<?xml version="1.0" encoding="utf-8" standalone="no"?>
<!DOCTYPE svg PUBLIC "-//W3C//DTD SVG 1.1//EN"
  "http://www.w3.org/Graphics/SVG/1.1/DTD/svg11.dtd">
<svg height="323.276562pt" version="1.1" viewBox="0 0 438.77125 323.276562" width="438.77125pt" xmlns="http://www.w3.org/2000/svg" xmlns:xlink="http://www.w3.org/1999/xlink">
 <metadata>
  <rdf:RDF xmlns:cc="http://creativecommons.org/ns#" xmlns:dc="http://purl.org/dc/elements/1.1/" xmlns:rdf="http://www.w3.org/1999/02/22-rdf-syntax-ns#">
   <cc:Work>
    <dc:type rdf:resource="http://purl.org/dc/dcmitype/StillImage"/>
    <dc:date>2022-01-12T10:23:29.481449</dc:date>
    <dc:format>image/svg+xml</dc:format>
    <dc:creator>
     <cc:Agent>
      <dc:title>Matplotlib v3.4.3, https://matplotlib.org/</dc:title>
     </cc:Agent>
    </dc:creator>
   </cc:Work>
  </rdf:RDF>
 </metadata>
 <defs>
  <style type="text/css">*{stroke-linecap:butt;stroke-linejoin:round;}</style>
 </defs>
 <g id="figure_1">
  <g id="patch_1">
   <path d="M 0 323.276562 
L 438.77125 323.276562 
L 438.77125 0 
L 0 0 
z
" style="fill:#ffffff;"/>
  </g>
  <g id="axes_1">
   <g id="patch_2">
    <path d="M 36.58125 306.598437 
L 438.77125 306.598437 
L 438.77125 10.598437 
L 36.58125 10.598437 
z
" style="fill:#ffffff;"/>
   </g>
   <g id="patch_3">
    <path clip-path="url(#pa1707bfd7e)" d="M 54.862614 306.598437 
L 62.175159 306.598437 
L 62.175159 24.693676 
L 54.862614 24.693676 
z
" style="fill:#ce6dbd;opacity:0.3;stroke:#b18aaa;stroke-linejoin:miter;"/>
   </g>
   <g id="patch_4">
    <path clip-path="url(#pa1707bfd7e)" d="M 62.175159 306.598437 
L 69.487705 306.598437 
L 69.487705 305.592634 
L 62.175159 305.592634 
z
" style="fill:#ce6dbd;opacity:0.3;stroke:#b18aaa;stroke-linejoin:miter;"/>
   </g>
   <g id="patch_5">
    <path clip-path="url(#pa1707bfd7e)" d="M 69.487705 306.598437 
L 76.80025 306.598437 
L 76.80025 306.051749 
L 69.487705 306.051749 
z
" style="fill:#ce6dbd;opacity:0.3;stroke:#b18aaa;stroke-linejoin:miter;"/>
   </g>
   <g id="patch_6">
    <path clip-path="url(#pa1707bfd7e)" d="M 76.80025 306.598437 
L 84.112795 306.598437 
L 84.112795 306.202948 
L 76.80025 306.202948 
z
" style="fill:#ce6dbd;opacity:0.3;stroke:#b18aaa;stroke-linejoin:miter;"/>
   </g>
   <g id="patch_7">
    <path clip-path="url(#pa1707bfd7e)" d="M 84.112795 306.598437 
L 91.425341 306.598437 
L 91.425341 306.3113 
L 84.112795 306.3113 
z
" style="fill:#ce6dbd;opacity:0.3;stroke:#b18aaa;stroke-linejoin:miter;"/>
   </g>
   <g id="patch_8">
    <path clip-path="url(#pa1707bfd7e)" d="M 91.425341 306.598437 
L 98.737886 306.598437 
L 98.737886 306.368 
L 91.425341 306.368 
z
" style="fill:#ce6dbd;opacity:0.3;stroke:#b18aaa;stroke-linejoin:miter;"/>
   </g>
   <g id="patch_9">
    <path clip-path="url(#pa1707bfd7e)" d="M 98.737886 306.598437 
L 106.050432 306.598437 
L 106.050432 306.412491 
L 98.737886 306.412491 
z
" style="fill:#ce6dbd;opacity:0.3;stroke:#b18aaa;stroke-linejoin:miter;"/>
   </g>
   <g id="patch_10">
    <path clip-path="url(#pa1707bfd7e)" d="M 106.050432 306.598437 
L 113.362977 306.598437 
L 113.362977 306.434325 
L 106.050432 306.434325 
z
" style="fill:#ce6dbd;opacity:0.3;stroke:#b18aaa;stroke-linejoin:miter;"/>
   </g>
   <g id="patch_11">
    <path clip-path="url(#pa1707bfd7e)" d="M 113.362977 306.598437 
L 120.675523 306.598437 
L 120.675523 306.45616 
L 113.362977 306.45616 
z
" style="fill:#ce6dbd;opacity:0.3;stroke:#b18aaa;stroke-linejoin:miter;"/>
   </g>
   <g id="patch_12">
    <path clip-path="url(#pa1707bfd7e)" d="M 120.675523 306.598437 
L 127.988068 306.598437 
L 127.988068 306.476821 
L 120.675523 306.476821 
z
" style="fill:#ce6dbd;opacity:0.3;stroke:#b18aaa;stroke-linejoin:miter;"/>
   </g>
   <g id="patch_13">
    <path clip-path="url(#pa1707bfd7e)" d="M 127.988068 306.598437 
L 135.300614 306.598437 
L 135.300614 306.493021 
L 127.988068 306.493021 
z
" style="fill:#ce6dbd;opacity:0.3;stroke:#b18aaa;stroke-linejoin:miter;"/>
   </g>
   <g id="patch_14">
    <path clip-path="url(#pa1707bfd7e)" d="M 135.300614 306.598437 
L 142.613159 306.598437 
L 142.613159 306.506521 
L 135.300614 306.506521 
z
" style="fill:#ce6dbd;opacity:0.3;stroke:#b18aaa;stroke-linejoin:miter;"/>
   </g>
   <g id="patch_15">
    <path clip-path="url(#pa1707bfd7e)" d="M 142.613159 306.598437 
L 149.925705 306.598437 
L 149.925705 306.493138 
L 142.613159 306.493138 
z
" style="fill:#ce6dbd;opacity:0.3;stroke:#b18aaa;stroke-linejoin:miter;"/>
   </g>
   <g id="patch_16">
    <path clip-path="url(#pa1707bfd7e)" d="M 149.925705 306.598437 
L 157.23825 306.598437 
L 157.23825 306.52366 
L 149.925705 306.52366 
z
" style="fill:#ce6dbd;opacity:0.3;stroke:#b18aaa;stroke-linejoin:miter;"/>
   </g>
   <g id="patch_17">
    <path clip-path="url(#pa1707bfd7e)" d="M 157.23825 306.598437 
L 164.550795 306.598437 
L 164.550795 306.527416 
L 157.23825 306.527416 
z
" style="fill:#ce6dbd;opacity:0.3;stroke:#b18aaa;stroke-linejoin:miter;"/>
   </g>
   <g id="patch_18">
    <path clip-path="url(#pa1707bfd7e)" d="M 164.550795 306.598437 
L 171.863341 306.598437 
L 171.863341 306.520607 
L 164.550795 306.520607 
z
" style="fill:#ce6dbd;opacity:0.3;stroke:#b18aaa;stroke-linejoin:miter;"/>
   </g>
   <g id="patch_19">
    <path clip-path="url(#pa1707bfd7e)" d="M 171.863341 306.598437 
L 179.175886 306.598437 
L 179.175886 306.531407 
L 171.863341 306.531407 
z
" style="fill:#ce6dbd;opacity:0.3;stroke:#b18aaa;stroke-linejoin:miter;"/>
   </g>
   <g id="patch_20">
    <path clip-path="url(#pa1707bfd7e)" d="M 179.175886 306.598437 
L 186.488432 306.598437 
L 186.488432 306.524481 
L 179.175886 306.524481 
z
" style="fill:#ce6dbd;opacity:0.3;stroke:#b18aaa;stroke-linejoin:miter;"/>
   </g>
   <g id="patch_21">
    <path clip-path="url(#pa1707bfd7e)" d="M 186.488432 306.598437 
L 193.800977 306.598437 
L 193.800977 306.535986 
L 186.488432 306.535986 
z
" style="fill:#ce6dbd;opacity:0.3;stroke:#b18aaa;stroke-linejoin:miter;"/>
   </g>
   <g id="patch_22">
    <path clip-path="url(#pa1707bfd7e)" d="M 193.800977 306.598437 
L 201.113523 306.598437 
L 201.113523 306.526242 
L 193.800977 306.526242 
z
" style="fill:#ce6dbd;opacity:0.3;stroke:#b18aaa;stroke-linejoin:miter;"/>
   </g>
   <g id="patch_23">
    <path clip-path="url(#pa1707bfd7e)" d="M 201.113523 306.598437 
L 208.426068 306.598437 
L 208.426068 306.537277 
L 201.113523 306.537277 
z
" style="fill:#ce6dbd;opacity:0.3;stroke:#b18aaa;stroke-linejoin:miter;"/>
   </g>
   <g id="patch_24">
    <path clip-path="url(#pa1707bfd7e)" d="M 208.426068 306.598437 
L 215.738614 306.598437 
L 215.738614 306.530703 
L 208.426068 306.530703 
z
" style="fill:#ce6dbd;opacity:0.3;stroke:#b18aaa;stroke-linejoin:miter;"/>
   </g>
   <g id="patch_25">
    <path clip-path="url(#pa1707bfd7e)" d="M 215.738614 306.598437 
L 223.051159 306.598437 
L 223.051159 306.53399 
L 215.738614 306.53399 
z
" style="fill:#ce6dbd;opacity:0.3;stroke:#b18aaa;stroke-linejoin:miter;"/>
   </g>
   <g id="patch_26">
    <path clip-path="url(#pa1707bfd7e)" d="M 223.051159 306.598437 
L 230.363705 306.598437 
L 230.363705 306.52096 
L 223.051159 306.52096 
z
" style="fill:#ce6dbd;opacity:0.3;stroke:#b18aaa;stroke-linejoin:miter;"/>
   </g>
   <g id="patch_27">
    <path clip-path="url(#pa1707bfd7e)" d="M 230.363705 306.598437 
L 237.67625 306.598437 
L 237.67625 306.545025 
L 230.363705 306.545025 
z
" style="fill:#ce6dbd;opacity:0.3;stroke:#b18aaa;stroke-linejoin:miter;"/>
   </g>
   <g id="patch_28">
    <path clip-path="url(#pa1707bfd7e)" d="M 237.67625 306.598437 
L 244.988795 306.598437 
L 244.988795 306.55289 
L 237.67625 306.55289 
z
" style="fill:#ce6dbd;opacity:0.3;stroke:#b18aaa;stroke-linejoin:miter;"/>
   </g>
   <g id="patch_29">
    <path clip-path="url(#pa1707bfd7e)" d="M 244.988795 306.598437 
L 252.301341 306.598437 
L 252.301341 306.574372 
L 244.988795 306.574372 
z
" style="fill:#ce6dbd;opacity:0.3;stroke:#b18aaa;stroke-linejoin:miter;"/>
   </g>
   <g id="patch_30">
    <path clip-path="url(#pa1707bfd7e)" d="M 252.301341 306.598437 
L 259.613886 306.598437 
L 259.613886 306.58482 
L 252.301341 306.58482 
z
" style="fill:#ce6dbd;opacity:0.3;stroke:#b18aaa;stroke-linejoin:miter;"/>
   </g>
   <g id="patch_31">
    <path clip-path="url(#pa1707bfd7e)" d="M 259.613886 306.598437 
L 266.926432 306.598437 
L 266.926432 306.594211 
L 259.613886 306.594211 
z
" style="fill:#ce6dbd;opacity:0.3;stroke:#b18aaa;stroke-linejoin:miter;"/>
   </g>
   <g id="patch_32">
    <path clip-path="url(#pa1707bfd7e)" d="M 266.926432 306.598437 
L 274.238977 306.598437 
L 274.238977 306.595738 
L 266.926432 306.595738 
z
" style="fill:#ce6dbd;opacity:0.3;stroke:#b18aaa;stroke-linejoin:miter;"/>
   </g>
   <g id="patch_33">
    <path clip-path="url(#pa1707bfd7e)" d="M 274.238977 306.598437 
L 281.551523 306.598437 
L 281.551523 306.596207 
L 274.238977 306.596207 
z
" style="fill:#ce6dbd;opacity:0.3;stroke:#b18aaa;stroke-linejoin:miter;"/>
   </g>
   <g id="patch_34">
    <path clip-path="url(#pa1707bfd7e)" d="M 281.551523 306.598437 
L 288.864068 306.598437 
L 288.864068 306.597029 
L 281.551523 306.597029 
z
" style="fill:#ce6dbd;opacity:0.3;stroke:#b18aaa;stroke-linejoin:miter;"/>
   </g>
   <g id="patch_35">
    <path clip-path="url(#pa1707bfd7e)" d="M 288.864068 306.598437 
L 296.176614 306.598437 
L 296.176614 306.596794 
L 288.864068 306.596794 
z
" style="fill:#ce6dbd;opacity:0.3;stroke:#b18aaa;stroke-linejoin:miter;"/>
   </g>
   <g id="patch_36">
    <path clip-path="url(#pa1707bfd7e)" d="M 296.176614 306.598437 
L 303.489159 306.598437 
L 303.489159 306.597146 
L 296.176614 306.597146 
z
" style="fill:#ce6dbd;opacity:0.3;stroke:#b18aaa;stroke-linejoin:miter;"/>
   </g>
   <g id="patch_37">
    <path clip-path="url(#pa1707bfd7e)" d="M 303.489159 306.598437 
L 310.801705 306.598437 
L 310.801705 306.597968 
L 303.489159 306.597968 
z
" style="fill:#ce6dbd;opacity:0.3;stroke:#b18aaa;stroke-linejoin:miter;"/>
   </g>
   <g id="patch_38">
    <path clip-path="url(#pa1707bfd7e)" d="M 310.801705 306.598437 
L 318.11425 306.598437 
L 318.11425 306.598203 
L 310.801705 306.598203 
z
" style="fill:#ce6dbd;opacity:0.3;stroke:#b18aaa;stroke-linejoin:miter;"/>
   </g>
   <g id="patch_39">
    <path clip-path="url(#pa1707bfd7e)" d="M 318.11425 306.598437 
L 325.426795 306.598437 
L 325.426795 306.598085 
L 318.11425 306.598085 
z
" style="fill:#ce6dbd;opacity:0.3;stroke:#b18aaa;stroke-linejoin:miter;"/>
   </g>
   <g id="patch_40">
    <path clip-path="url(#pa1707bfd7e)" d="M 325.426795 306.598437 
L 332.739341 306.598437 
L 332.739341 306.597029 
L 325.426795 306.597029 
z
" style="fill:#ce6dbd;opacity:0.3;stroke:#b18aaa;stroke-linejoin:miter;"/>
   </g>
   <g id="patch_41">
    <path clip-path="url(#pa1707bfd7e)" d="M 332.739341 306.598437 
L 340.051886 306.598437 
L 340.051886 306.597733 
L 332.739341 306.597733 
z
" style="fill:#ce6dbd;opacity:0.3;stroke:#b18aaa;stroke-linejoin:miter;"/>
   </g>
   <g id="patch_42">
    <path clip-path="url(#pa1707bfd7e)" d="M 340.051886 306.598437 
L 347.364432 306.598437 
L 347.364432 306.59832 
L 340.051886 306.59832 
z
" style="fill:#ce6dbd;opacity:0.3;stroke:#b18aaa;stroke-linejoin:miter;"/>
   </g>
   <g id="patch_43">
    <path clip-path="url(#pa1707bfd7e)" d="M 347.364432 306.598437 
L 354.676977 306.598437 
L 354.676977 306.597733 
L 347.364432 306.597733 
z
" style="fill:#ce6dbd;opacity:0.3;stroke:#b18aaa;stroke-linejoin:miter;"/>
   </g>
   <g id="patch_44">
    <path clip-path="url(#pa1707bfd7e)" d="M 354.676977 306.598437 
L 361.989523 306.598437 
L 361.989523 306.597851 
L 354.676977 306.597851 
z
" style="fill:#ce6dbd;opacity:0.3;stroke:#b18aaa;stroke-linejoin:miter;"/>
   </g>
   <g id="patch_45">
    <path clip-path="url(#pa1707bfd7e)" d="M 361.989523 306.598437 
L 369.302068 306.598437 
L 369.302068 306.598085 
L 361.989523 306.598085 
z
" style="fill:#ce6dbd;opacity:0.3;stroke:#b18aaa;stroke-linejoin:miter;"/>
   </g>
   <g id="patch_46">
    <path clip-path="url(#pa1707bfd7e)" d="M 369.302068 306.598437 
L 376.614614 306.598437 
L 376.614614 306.597968 
L 369.302068 306.597968 
z
" style="fill:#ce6dbd;opacity:0.3;stroke:#b18aaa;stroke-linejoin:miter;"/>
   </g>
   <g id="patch_47">
    <path clip-path="url(#pa1707bfd7e)" d="M 376.614614 306.598437 
L 383.927159 306.598437 
L 383.927159 306.596911 
L 376.614614 306.596911 
z
" style="fill:#ce6dbd;opacity:0.3;stroke:#b18aaa;stroke-linejoin:miter;"/>
   </g>
   <g id="patch_48">
    <path clip-path="url(#pa1707bfd7e)" d="M 383.927159 306.598437 
L 391.239705 306.598437 
L 391.239705 306.596911 
L 383.927159 306.596911 
z
" style="fill:#ce6dbd;opacity:0.3;stroke:#b18aaa;stroke-linejoin:miter;"/>
   </g>
   <g id="patch_49">
    <path clip-path="url(#pa1707bfd7e)" d="M 391.239705 306.598437 
L 398.55225 306.598437 
L 398.55225 306.597733 
L 391.239705 306.597733 
z
" style="fill:#ce6dbd;opacity:0.3;stroke:#b18aaa;stroke-linejoin:miter;"/>
   </g>
   <g id="patch_50">
    <path clip-path="url(#pa1707bfd7e)" d="M 398.55225 306.598437 
L 405.864795 306.598437 
L 405.864795 306.597381 
L 398.55225 306.597381 
z
" style="fill:#ce6dbd;opacity:0.3;stroke:#b18aaa;stroke-linejoin:miter;"/>
   </g>
   <g id="patch_51">
    <path clip-path="url(#pa1707bfd7e)" d="M 405.864795 306.598437 
L 413.177341 306.598437 
L 413.177341 306.598085 
L 405.864795 306.598085 
z
" style="fill:#ce6dbd;opacity:0.3;stroke:#b18aaa;stroke-linejoin:miter;"/>
   </g>
   <g id="patch_52">
    <path clip-path="url(#pa1707bfd7e)" d="M 413.177341 306.598437 
L 420.489886 306.598437 
L 420.489886 306.597968 
L 413.177341 306.597968 
z
" style="fill:#ce6dbd;opacity:0.3;stroke:#b18aaa;stroke-linejoin:miter;"/>
   </g>
   <g id="patch_53">
    <path clip-path="url(#pa1707bfd7e)" d="M 54.862614 306.598437 
L 62.223002 306.598437 
L 62.223002 24.916953 
L 54.862614 24.916953 
z
" style="fill:#6495ed;opacity:0.3;stroke:#97a4ba;stroke-linejoin:miter;"/>
   </g>
   <g id="patch_54">
    <path clip-path="url(#pa1707bfd7e)" d="M 62.223002 306.598437 
L 69.58339 306.598437 
L 69.58339 305.558708 
L 62.223002 305.558708 
z
" style="fill:#6495ed;opacity:0.3;stroke:#97a4ba;stroke-linejoin:miter;"/>
   </g>
   <g id="patch_55">
    <path clip-path="url(#pa1707bfd7e)" d="M 69.58339 306.598437 
L 76.943778 306.598437 
L 76.943778 306.043649 
L 69.58339 306.043649 
z
" style="fill:#6495ed;opacity:0.3;stroke:#97a4ba;stroke-linejoin:miter;"/>
   </g>
   <g id="patch_56">
    <path clip-path="url(#pa1707bfd7e)" d="M 76.943778 306.598437 
L 84.304166 306.598437 
L 84.304166 306.217857 
L 76.943778 306.217857 
z
" style="fill:#6495ed;opacity:0.3;stroke:#97a4ba;stroke-linejoin:miter;"/>
   </g>
   <g id="patch_57">
    <path clip-path="url(#pa1707bfd7e)" d="M 84.304166 306.598437 
L 91.664554 306.598437 
L 91.664554 306.257418 
L 84.304166 306.257418 
z
" style="fill:#6495ed;opacity:0.3;stroke:#97a4ba;stroke-linejoin:miter;"/>
   </g>
   <g id="patch_58">
    <path clip-path="url(#pa1707bfd7e)" d="M 91.664554 306.598437 
L 99.024941 306.598437 
L 99.024941 306.388308 
L 91.664554 306.388308 
z
" style="fill:#6495ed;opacity:0.3;stroke:#97a4ba;stroke-linejoin:miter;"/>
   </g>
   <g id="patch_59">
    <path clip-path="url(#pa1707bfd7e)" d="M 99.024941 306.598437 
L 106.385329 306.598437 
L 106.385329 306.387134 
L 99.024941 306.387134 
z
" style="fill:#6495ed;opacity:0.3;stroke:#97a4ba;stroke-linejoin:miter;"/>
   </g>
   <g id="patch_60">
    <path clip-path="url(#pa1707bfd7e)" d="M 106.385329 306.598437 
L 113.745717 306.598437 
L 113.745717 306.425638 
L 106.385329 306.425638 
z
" style="fill:#6495ed;opacity:0.3;stroke:#97a4ba;stroke-linejoin:miter;"/>
   </g>
   <g id="patch_61">
    <path clip-path="url(#pa1707bfd7e)" d="M 113.745717 306.598437 
L 121.106105 306.598437 
L 121.106105 306.474943 
L 113.745717 306.474943 
z
" style="fill:#6495ed;opacity:0.3;stroke:#97a4ba;stroke-linejoin:miter;"/>
   </g>
   <g id="patch_62">
    <path clip-path="url(#pa1707bfd7e)" d="M 121.106105 306.598437 
L 128.466493 306.598437 
L 128.466493 306.464847 
L 121.106105 306.464847 
z
" style="fill:#6495ed;opacity:0.3;stroke:#97a4ba;stroke-linejoin:miter;"/>
   </g>
   <g id="patch_63">
    <path clip-path="url(#pa1707bfd7e)" d="M 128.466493 306.598437 
L 135.826881 306.598437 
L 135.826881 306.486564 
L 128.466493 306.486564 
z
" style="fill:#6495ed;opacity:0.3;stroke:#97a4ba;stroke-linejoin:miter;"/>
   </g>
   <g id="patch_64">
    <path clip-path="url(#pa1707bfd7e)" d="M 135.826881 306.598437 
L 143.187269 306.598437 
L 143.187269 306.501825 
L 135.826881 306.501825 
z
" style="fill:#6495ed;opacity:0.3;stroke:#97a4ba;stroke-linejoin:miter;"/>
   </g>
   <g id="patch_65">
    <path clip-path="url(#pa1707bfd7e)" d="M 143.187269 306.598437 
L 150.547657 306.598437 
L 150.547657 306.51016 
L 143.187269 306.51016 
z
" style="fill:#6495ed;opacity:0.3;stroke:#97a4ba;stroke-linejoin:miter;"/>
   </g>
   <g id="patch_66">
    <path clip-path="url(#pa1707bfd7e)" d="M 150.547657 306.598437 
L 157.908045 306.598437 
L 157.908045 306.507929 
L 150.547657 306.507929 
z
" style="fill:#6495ed;opacity:0.3;stroke:#97a4ba;stroke-linejoin:miter;"/>
   </g>
   <g id="patch_67">
    <path clip-path="url(#pa1707bfd7e)" d="M 157.908045 306.598437 
L 165.268433 306.598437 
L 165.268433 306.516499 
L 157.908045 306.516499 
z
" style="fill:#6495ed;opacity:0.3;stroke:#97a4ba;stroke-linejoin:miter;"/>
   </g>
   <g id="patch_68">
    <path clip-path="url(#pa1707bfd7e)" d="M 165.268433 306.598437 
L 172.628821 306.598437 
L 172.628821 306.515442 
L 165.268433 306.515442 
z
" style="fill:#6495ed;opacity:0.3;stroke:#97a4ba;stroke-linejoin:miter;"/>
   </g>
   <g id="patch_69">
    <path clip-path="url(#pa1707bfd7e)" d="M 172.628821 306.598437 
L 179.989209 306.598437 
L 179.989209 306.519434 
L 172.628821 306.519434 
z
" style="fill:#6495ed;opacity:0.3;stroke:#97a4ba;stroke-linejoin:miter;"/>
   </g>
   <g id="patch_70">
    <path clip-path="url(#pa1707bfd7e)" d="M 179.989209 306.598437 
L 187.349597 306.598437 
L 187.349597 306.529764 
L 179.989209 306.529764 
z
" style="fill:#6495ed;opacity:0.3;stroke:#97a4ba;stroke-linejoin:miter;"/>
   </g>
   <g id="patch_71">
    <path clip-path="url(#pa1707bfd7e)" d="M 187.349597 306.598437 
L 194.709985 306.598437 
L 194.709985 306.526125 
L 187.349597 306.526125 
z
" style="fill:#6495ed;opacity:0.3;stroke:#97a4ba;stroke-linejoin:miter;"/>
   </g>
   <g id="patch_72">
    <path clip-path="url(#pa1707bfd7e)" d="M 194.709985 306.598437 
L 202.070373 306.598437 
L 202.070373 306.53446 
L 194.709985 306.53446 
z
" style="fill:#6495ed;opacity:0.3;stroke:#97a4ba;stroke-linejoin:miter;"/>
   </g>
   <g id="patch_73">
    <path clip-path="url(#pa1707bfd7e)" d="M 202.070373 306.598437 
L 209.430761 306.598437 
L 209.430761 306.528003 
L 202.070373 306.528003 
z
" style="fill:#6495ed;opacity:0.3;stroke:#97a4ba;stroke-linejoin:miter;"/>
   </g>
   <g id="patch_74">
    <path clip-path="url(#pa1707bfd7e)" d="M 209.430761 306.598437 
L 216.791149 306.598437 
L 216.791149 306.514151 
L 209.430761 306.514151 
z
" style="fill:#6495ed;opacity:0.3;stroke:#97a4ba;stroke-linejoin:miter;"/>
   </g>
   <g id="patch_75">
    <path clip-path="url(#pa1707bfd7e)" d="M 216.791149 306.598437 
L 224.151537 306.598437 
L 224.151537 306.51826 
L 216.791149 306.51826 
z
" style="fill:#6495ed;opacity:0.3;stroke:#97a4ba;stroke-linejoin:miter;"/>
   </g>
   <g id="patch_76">
    <path clip-path="url(#pa1707bfd7e)" d="M 224.151537 306.598437 
L 231.511925 306.598437 
L 231.511925 306.506638 
L 224.151537 306.506638 
z
" style="fill:#6495ed;opacity:0.3;stroke:#97a4ba;stroke-linejoin:miter;"/>
   </g>
   <g id="patch_77">
    <path clip-path="url(#pa1707bfd7e)" d="M 231.511925 306.598437 
L 238.872313 306.598437 
L 238.872313 306.392065 
L 231.511925 306.392065 
z
" style="fill:#6495ed;opacity:0.3;stroke:#97a4ba;stroke-linejoin:miter;"/>
   </g>
   <g id="matplotlib.axis_1">
    <g id="xtick_1">
     <g id="line2d_1">
      <defs>
       <path d="M 0 0 
L 0 3.5 
" id="m10c1ae3b65" style="stroke:#000000;stroke-width:0.8;"/>
      </defs>
      <g>
       <use style="stroke:#000000;stroke-width:0.8;" x="54.862614" xlink:href="#m10c1ae3b65" y="306.598437"/>
      </g>
     </g>
     <g id="text_1">
      <!-- 0.0 -->
      <g transform="translate(46.911051 321.196875)scale(0.1 -0.1)">
       <defs>
        <path d="M 2034 4250 
Q 1547 4250 1301 3770 
Q 1056 3291 1056 2328 
Q 1056 1369 1301 889 
Q 1547 409 2034 409 
Q 2525 409 2770 889 
Q 3016 1369 3016 2328 
Q 3016 3291 2770 3770 
Q 2525 4250 2034 4250 
z
M 2034 4750 
Q 2819 4750 3233 4129 
Q 3647 3509 3647 2328 
Q 3647 1150 3233 529 
Q 2819 -91 2034 -91 
Q 1250 -91 836 529 
Q 422 1150 422 2328 
Q 422 3509 836 4129 
Q 1250 4750 2034 4750 
z
" id="DejaVuSans-30" transform="scale(0.015625)"/>
        <path d="M 684 794 
L 1344 794 
L 1344 0 
L 684 0 
L 684 794 
z
" id="DejaVuSans-2e" transform="scale(0.015625)"/>
       </defs>
       <use xlink:href="#DejaVuSans-30"/>
       <use x="63.623047" xlink:href="#DejaVuSans-2e"/>
       <use x="95.410156" xlink:href="#DejaVuSans-30"/>
      </g>
     </g>
    </g>
    <g id="xtick_2">
     <g id="line2d_2">
      <g>
       <use style="stroke:#000000;stroke-width:0.8;" x="128.466493" xlink:href="#m10c1ae3b65" y="306.598437"/>
      </g>
     </g>
     <g id="text_2">
      <!-- 0.2 -->
      <g transform="translate(120.514931 321.196875)scale(0.1 -0.1)">
       <defs>
        <path d="M 1228 531 
L 3431 531 
L 3431 0 
L 469 0 
L 469 531 
Q 828 903 1448 1529 
Q 2069 2156 2228 2338 
Q 2531 2678 2651 2914 
Q 2772 3150 2772 3378 
Q 2772 3750 2511 3984 
Q 2250 4219 1831 4219 
Q 1534 4219 1204 4116 
Q 875 4013 500 3803 
L 500 4441 
Q 881 4594 1212 4672 
Q 1544 4750 1819 4750 
Q 2544 4750 2975 4387 
Q 3406 4025 3406 3419 
Q 3406 3131 3298 2873 
Q 3191 2616 2906 2266 
Q 2828 2175 2409 1742 
Q 1991 1309 1228 531 
z
" id="DejaVuSans-32" transform="scale(0.015625)"/>
       </defs>
       <use xlink:href="#DejaVuSans-30"/>
       <use x="63.623047" xlink:href="#DejaVuSans-2e"/>
       <use x="95.410156" xlink:href="#DejaVuSans-32"/>
      </g>
     </g>
    </g>
    <g id="xtick_3">
     <g id="line2d_3">
      <g>
       <use style="stroke:#000000;stroke-width:0.8;" x="202.070373" xlink:href="#m10c1ae3b65" y="306.598437"/>
      </g>
     </g>
     <g id="text_3">
      <!-- 0.4 -->
      <g transform="translate(194.118811 321.196875)scale(0.1 -0.1)">
       <defs>
        <path d="M 2419 4116 
L 825 1625 
L 2419 1625 
L 2419 4116 
z
M 2253 4666 
L 3047 4666 
L 3047 1625 
L 3713 1625 
L 3713 1100 
L 3047 1100 
L 3047 0 
L 2419 0 
L 2419 1100 
L 313 1100 
L 313 1709 
L 2253 4666 
z
" id="DejaVuSans-34" transform="scale(0.015625)"/>
       </defs>
       <use xlink:href="#DejaVuSans-30"/>
       <use x="63.623047" xlink:href="#DejaVuSans-2e"/>
       <use x="95.410156" xlink:href="#DejaVuSans-34"/>
      </g>
     </g>
    </g>
    <g id="xtick_4">
     <g id="line2d_4">
      <g>
       <use style="stroke:#000000;stroke-width:0.8;" x="275.674253" xlink:href="#m10c1ae3b65" y="306.598437"/>
      </g>
     </g>
     <g id="text_4">
      <!-- 0.6 -->
      <g transform="translate(267.72269 321.196875)scale(0.1 -0.1)">
       <defs>
        <path d="M 2113 2584 
Q 1688 2584 1439 2293 
Q 1191 2003 1191 1497 
Q 1191 994 1439 701 
Q 1688 409 2113 409 
Q 2538 409 2786 701 
Q 3034 994 3034 1497 
Q 3034 2003 2786 2293 
Q 2538 2584 2113 2584 
z
M 3366 4563 
L 3366 3988 
Q 3128 4100 2886 4159 
Q 2644 4219 2406 4219 
Q 1781 4219 1451 3797 
Q 1122 3375 1075 2522 
Q 1259 2794 1537 2939 
Q 1816 3084 2150 3084 
Q 2853 3084 3261 2657 
Q 3669 2231 3669 1497 
Q 3669 778 3244 343 
Q 2819 -91 2113 -91 
Q 1303 -91 875 529 
Q 447 1150 447 2328 
Q 447 3434 972 4092 
Q 1497 4750 2381 4750 
Q 2619 4750 2861 4703 
Q 3103 4656 3366 4563 
z
" id="DejaVuSans-36" transform="scale(0.015625)"/>
       </defs>
       <use xlink:href="#DejaVuSans-30"/>
       <use x="63.623047" xlink:href="#DejaVuSans-2e"/>
       <use x="95.410156" xlink:href="#DejaVuSans-36"/>
      </g>
     </g>
    </g>
    <g id="xtick_5">
     <g id="line2d_5">
      <g>
       <use style="stroke:#000000;stroke-width:0.8;" x="349.278133" xlink:href="#m10c1ae3b65" y="306.598437"/>
      </g>
     </g>
     <g id="text_5">
      <!-- 0.8 -->
      <g transform="translate(341.32657 321.196875)scale(0.1 -0.1)">
       <defs>
        <path d="M 2034 2216 
Q 1584 2216 1326 1975 
Q 1069 1734 1069 1313 
Q 1069 891 1326 650 
Q 1584 409 2034 409 
Q 2484 409 2743 651 
Q 3003 894 3003 1313 
Q 3003 1734 2745 1975 
Q 2488 2216 2034 2216 
z
M 1403 2484 
Q 997 2584 770 2862 
Q 544 3141 544 3541 
Q 544 4100 942 4425 
Q 1341 4750 2034 4750 
Q 2731 4750 3128 4425 
Q 3525 4100 3525 3541 
Q 3525 3141 3298 2862 
Q 3072 2584 2669 2484 
Q 3125 2378 3379 2068 
Q 3634 1759 3634 1313 
Q 3634 634 3220 271 
Q 2806 -91 2034 -91 
Q 1263 -91 848 271 
Q 434 634 434 1313 
Q 434 1759 690 2068 
Q 947 2378 1403 2484 
z
M 1172 3481 
Q 1172 3119 1398 2916 
Q 1625 2713 2034 2713 
Q 2441 2713 2670 2916 
Q 2900 3119 2900 3481 
Q 2900 3844 2670 4047 
Q 2441 4250 2034 4250 
Q 1625 4250 1398 4047 
Q 1172 3844 1172 3481 
z
" id="DejaVuSans-38" transform="scale(0.015625)"/>
       </defs>
       <use xlink:href="#DejaVuSans-30"/>
       <use x="63.623047" xlink:href="#DejaVuSans-2e"/>
       <use x="95.410156" xlink:href="#DejaVuSans-38"/>
      </g>
     </g>
    </g>
    <g id="xtick_6">
     <g id="line2d_6">
      <g>
       <use style="stroke:#000000;stroke-width:0.8;" x="422.882012" xlink:href="#m10c1ae3b65" y="306.598437"/>
      </g>
     </g>
     <g id="text_6">
      <!-- 1.0 -->
      <g transform="translate(414.93045 321.196875)scale(0.1 -0.1)">
       <defs>
        <path d="M 794 531 
L 1825 531 
L 1825 4091 
L 703 3866 
L 703 4441 
L 1819 4666 
L 2450 4666 
L 2450 531 
L 3481 531 
L 3481 0 
L 794 0 
L 794 531 
z
" id="DejaVuSans-31" transform="scale(0.015625)"/>
       </defs>
       <use xlink:href="#DejaVuSans-31"/>
       <use x="63.623047" xlink:href="#DejaVuSans-2e"/>
       <use x="95.410156" xlink:href="#DejaVuSans-30"/>
      </g>
     </g>
    </g>
   </g>
   <g id="matplotlib.axis_2">
    <g id="ytick_1">
     <g id="line2d_7">
      <defs>
       <path d="M 0 0 
L -3.5 0 
" id="m1138a72a90" style="stroke:#000000;stroke-width:0.8;"/>
      </defs>
      <g>
       <use style="stroke:#000000;stroke-width:0.8;" x="36.58125" xlink:href="#m1138a72a90" y="306.598437"/>
      </g>
     </g>
     <g id="text_7">
      <!-- 0.0 -->
      <g transform="translate(13.678125 310.397656)scale(0.1 -0.1)">
       <use xlink:href="#DejaVuSans-30"/>
       <use x="63.623047" xlink:href="#DejaVuSans-2e"/>
       <use x="95.410156" xlink:href="#DejaVuSans-30"/>
      </g>
     </g>
    </g>
    <g id="ytick_2">
     <g id="line2d_8">
      <g>
       <use style="stroke:#000000;stroke-width:0.8;" x="36.58125" xlink:href="#m1138a72a90" y="247.903105"/>
      </g>
     </g>
     <g id="text_8">
      <!-- 0.5 -->
      <g transform="translate(13.678125 251.702323)scale(0.1 -0.1)">
       <defs>
        <path d="M 691 4666 
L 3169 4666 
L 3169 4134 
L 1269 4134 
L 1269 2991 
Q 1406 3038 1543 3061 
Q 1681 3084 1819 3084 
Q 2600 3084 3056 2656 
Q 3513 2228 3513 1497 
Q 3513 744 3044 326 
Q 2575 -91 1722 -91 
Q 1428 -91 1123 -41 
Q 819 9 494 109 
L 494 744 
Q 775 591 1075 516 
Q 1375 441 1709 441 
Q 2250 441 2565 725 
Q 2881 1009 2881 1497 
Q 2881 1984 2565 2268 
Q 2250 2553 1709 2553 
Q 1456 2553 1204 2497 
Q 953 2441 691 2322 
L 691 4666 
z
" id="DejaVuSans-35" transform="scale(0.015625)"/>
       </defs>
       <use xlink:href="#DejaVuSans-30"/>
       <use x="63.623047" xlink:href="#DejaVuSans-2e"/>
       <use x="95.410156" xlink:href="#DejaVuSans-35"/>
      </g>
     </g>
    </g>
    <g id="ytick_3">
     <g id="line2d_9">
      <g>
       <use style="stroke:#000000;stroke-width:0.8;" x="36.58125" xlink:href="#m1138a72a90" y="189.207772"/>
      </g>
     </g>
     <g id="text_9">
      <!-- 1.0 -->
      <g transform="translate(13.678125 193.006991)scale(0.1 -0.1)">
       <use xlink:href="#DejaVuSans-31"/>
       <use x="63.623047" xlink:href="#DejaVuSans-2e"/>
       <use x="95.410156" xlink:href="#DejaVuSans-30"/>
      </g>
     </g>
    </g>
    <g id="ytick_4">
     <g id="line2d_10">
      <g>
       <use style="stroke:#000000;stroke-width:0.8;" x="36.58125" xlink:href="#m1138a72a90" y="130.512439"/>
      </g>
     </g>
     <g id="text_10">
      <!-- 1.5 -->
      <g transform="translate(13.678125 134.311658)scale(0.1 -0.1)">
       <use xlink:href="#DejaVuSans-31"/>
       <use x="63.623047" xlink:href="#DejaVuSans-2e"/>
       <use x="95.410156" xlink:href="#DejaVuSans-35"/>
      </g>
     </g>
    </g>
    <g id="ytick_5">
     <g id="line2d_11">
      <g>
       <use style="stroke:#000000;stroke-width:0.8;" x="36.58125" xlink:href="#m1138a72a90" y="71.817106"/>
      </g>
     </g>
     <g id="text_11">
      <!-- 2.0 -->
      <g transform="translate(13.678125 75.616325)scale(0.1 -0.1)">
       <use xlink:href="#DejaVuSans-32"/>
       <use x="63.623047" xlink:href="#DejaVuSans-2e"/>
       <use x="95.410156" xlink:href="#DejaVuSans-30"/>
      </g>
     </g>
    </g>
    <g id="ytick_6">
     <g id="line2d_12">
      <g>
       <use style="stroke:#000000;stroke-width:0.8;" x="36.58125" xlink:href="#m1138a72a90" y="13.121773"/>
      </g>
     </g>
     <g id="text_12">
      <!-- 2.5 -->
      <g transform="translate(13.678125 16.920992)scale(0.1 -0.1)">
       <use xlink:href="#DejaVuSans-32"/>
       <use x="63.623047" xlink:href="#DejaVuSans-2e"/>
       <use x="95.410156" xlink:href="#DejaVuSans-35"/>
      </g>
     </g>
    </g>
    <g id="text_13">
     <!-- n SNPs -->
     <g transform="translate(7.598438 175.803125)rotate(-90)scale(0.1 -0.1)">
      <defs>
       <path d="M 3513 2113 
L 3513 0 
L 2938 0 
L 2938 2094 
Q 2938 2591 2744 2837 
Q 2550 3084 2163 3084 
Q 1697 3084 1428 2787 
Q 1159 2491 1159 1978 
L 1159 0 
L 581 0 
L 581 3500 
L 1159 3500 
L 1159 2956 
Q 1366 3272 1645 3428 
Q 1925 3584 2291 3584 
Q 2894 3584 3203 3211 
Q 3513 2838 3513 2113 
z
" id="DejaVuSans-6e" transform="scale(0.015625)"/>
       <path id="DejaVuSans-20" transform="scale(0.015625)"/>
       <path d="M 3425 4513 
L 3425 3897 
Q 3066 4069 2747 4153 
Q 2428 4238 2131 4238 
Q 1616 4238 1336 4038 
Q 1056 3838 1056 3469 
Q 1056 3159 1242 3001 
Q 1428 2844 1947 2747 
L 2328 2669 
Q 3034 2534 3370 2195 
Q 3706 1856 3706 1288 
Q 3706 609 3251 259 
Q 2797 -91 1919 -91 
Q 1588 -91 1214 -16 
Q 841 59 441 206 
L 441 856 
Q 825 641 1194 531 
Q 1563 422 1919 422 
Q 2459 422 2753 634 
Q 3047 847 3047 1241 
Q 3047 1584 2836 1778 
Q 2625 1972 2144 2069 
L 1759 2144 
Q 1053 2284 737 2584 
Q 422 2884 422 3419 
Q 422 4038 858 4394 
Q 1294 4750 2059 4750 
Q 2388 4750 2728 4690 
Q 3069 4631 3425 4513 
z
" id="DejaVuSans-53" transform="scale(0.015625)"/>
       <path d="M 628 4666 
L 1478 4666 
L 3547 763 
L 3547 4666 
L 4159 4666 
L 4159 0 
L 3309 0 
L 1241 3903 
L 1241 0 
L 628 0 
L 628 4666 
z
" id="DejaVuSans-4e" transform="scale(0.015625)"/>
       <path d="M 1259 4147 
L 1259 2394 
L 2053 2394 
Q 2494 2394 2734 2622 
Q 2975 2850 2975 3272 
Q 2975 3691 2734 3919 
Q 2494 4147 2053 4147 
L 1259 4147 
z
M 628 4666 
L 2053 4666 
Q 2838 4666 3239 4311 
Q 3641 3956 3641 3272 
Q 3641 2581 3239 2228 
Q 2838 1875 2053 1875 
L 1259 1875 
L 1259 0 
L 628 0 
L 628 4666 
z
" id="DejaVuSans-50" transform="scale(0.015625)"/>
       <path d="M 2834 3397 
L 2834 2853 
Q 2591 2978 2328 3040 
Q 2066 3103 1784 3103 
Q 1356 3103 1142 2972 
Q 928 2841 928 2578 
Q 928 2378 1081 2264 
Q 1234 2150 1697 2047 
L 1894 2003 
Q 2506 1872 2764 1633 
Q 3022 1394 3022 966 
Q 3022 478 2636 193 
Q 2250 -91 1575 -91 
Q 1294 -91 989 -36 
Q 684 19 347 128 
L 347 722 
Q 666 556 975 473 
Q 1284 391 1588 391 
Q 1994 391 2212 530 
Q 2431 669 2431 922 
Q 2431 1156 2273 1281 
Q 2116 1406 1581 1522 
L 1381 1569 
Q 847 1681 609 1914 
Q 372 2147 372 2553 
Q 372 3047 722 3315 
Q 1072 3584 1716 3584 
Q 2034 3584 2315 3537 
Q 2597 3491 2834 3397 
z
" id="DejaVuSans-73" transform="scale(0.015625)"/>
      </defs>
      <use xlink:href="#DejaVuSans-6e"/>
      <use x="63.378906" xlink:href="#DejaVuSans-20"/>
      <use x="95.166016" xlink:href="#DejaVuSans-53"/>
      <use x="158.642578" xlink:href="#DejaVuSans-4e"/>
      <use x="233.447266" xlink:href="#DejaVuSans-50"/>
      <use x="292" xlink:href="#DejaVuSans-73"/>
     </g>
    </g>
    <g id="text_14">
     <!-- 1e6 -->
     <g transform="translate(36.58125 7.598437)scale(0.1 -0.1)">
      <defs>
       <path d="M 3597 1894 
L 3597 1613 
L 953 1613 
Q 991 1019 1311 708 
Q 1631 397 2203 397 
Q 2534 397 2845 478 
Q 3156 559 3463 722 
L 3463 178 
Q 3153 47 2828 -22 
Q 2503 -91 2169 -91 
Q 1331 -91 842 396 
Q 353 884 353 1716 
Q 353 2575 817 3079 
Q 1281 3584 2069 3584 
Q 2775 3584 3186 3129 
Q 3597 2675 3597 1894 
z
M 3022 2063 
Q 3016 2534 2758 2815 
Q 2500 3097 2075 3097 
Q 1594 3097 1305 2825 
Q 1016 2553 972 2059 
L 3022 2063 
z
" id="DejaVuSans-65" transform="scale(0.015625)"/>
      </defs>
      <use xlink:href="#DejaVuSans-31"/>
      <use x="63.623047" xlink:href="#DejaVuSans-65"/>
      <use x="125.146484" xlink:href="#DejaVuSans-36"/>
     </g>
    </g>
   </g>
   <g id="line2d_13">
    <path clip-path="url(#pa1707bfd7e)" d="M 55.766768 306.598437 
L 55.766768 10.598437 
" style="fill:none;stroke:#ce6dbd;stroke-dasharray:3.7,1.6;stroke-dashoffset:0;"/>
   </g>
   <g id="line2d_14">
    <path clip-path="url(#pa1707bfd7e)" d="M 55.839653 306.598437 
L 55.839653 10.598437 
" style="fill:none;stroke:#6495ed;stroke-dasharray:3.7,1.6;stroke-dashoffset:0;"/>
   </g>
   <g id="patch_78">
    <path d="M 36.58125 306.598437 
L 36.58125 10.598437 
" style="fill:none;stroke:#000000;stroke-linecap:square;stroke-linejoin:miter;stroke-width:0.8;"/>
   </g>
   <g id="patch_79">
    <path d="M 438.77125 306.598437 
L 438.77125 10.598437 
" style="fill:none;stroke:#000000;stroke-linecap:square;stroke-linejoin:miter;stroke-width:0.8;"/>
   </g>
   <g id="patch_80">
    <path d="M 36.58125 306.598437 
L 438.77125 306.598437 
" style="fill:none;stroke:#000000;stroke-linecap:square;stroke-linejoin:miter;stroke-width:0.8;"/>
   </g>
   <g id="patch_81">
    <path d="M 36.58125 10.598437 
L 438.77125 10.598437 
" style="fill:none;stroke:#000000;stroke-linecap:square;stroke-linejoin:miter;stroke-width:0.8;"/>
   </g>
   <g id="text_15">
    <!-- $\bar{x}=0.0025$ -->
    <g style="fill:#ce6dbd;" transform="translate(59.446962 20.958437)scale(0.0833 -0.0833)">
     <defs>
      <path d="M -2522 4769 
L -653 4769 
L -653 4306 
L -2522 4306 
L -2522 4769 
z
" id="DejaVuSans-304" transform="scale(0.015625)"/>
      <path d="M 3841 3500 
L 2234 1784 
L 3219 0 
L 2559 0 
L 1819 1388 
L 531 0 
L -166 0 
L 1556 1844 
L 641 3500 
L 1300 3500 
L 1972 2234 
L 3144 3500 
L 3841 3500 
z
" id="DejaVuSans-Oblique-78" transform="scale(0.015625)"/>
      <path d="M 678 2906 
L 4684 2906 
L 4684 2381 
L 678 2381 
L 678 2906 
z
M 678 1631 
L 4684 1631 
L 4684 1100 
L 678 1100 
L 678 1631 
z
" id="DejaVuSans-3d" transform="scale(0.015625)"/>
     </defs>
     <use transform="translate(62.201172 0.484375)" xlink:href="#DejaVuSans-304"/>
     <use transform="translate(0 0.578125)" xlink:href="#DejaVuSans-Oblique-78"/>
     <use transform="translate(78.662109 0.578125)" xlink:href="#DejaVuSans-3d"/>
     <use transform="translate(181.933594 0.578125)" xlink:href="#DejaVuSans-30"/>
     <use transform="translate(245.556641 0.578125)" xlink:href="#DejaVuSans-2e"/>
     <use transform="translate(277.34375 0.578125)" xlink:href="#DejaVuSans-30"/>
     <use transform="translate(340.966797 0.578125)" xlink:href="#DejaVuSans-30"/>
     <use transform="translate(404.589844 0.578125)" xlink:href="#DejaVuSans-32"/>
     <use transform="translate(468.212891 0.578125)" xlink:href="#DejaVuSans-35"/>
    </g>
   </g>
   <g id="text_16">
    <!-- $\bar{x}=0.0027$ -->
    <g style="fill:#6495ed;" transform="translate(59.519847 20.958437)scale(0.0833 -0.0833)">
     <defs>
      <path d="M 525 4666 
L 3525 4666 
L 3525 4397 
L 1831 0 
L 1172 0 
L 2766 4134 
L 525 4134 
L 525 4666 
z
" id="DejaVuSans-37" transform="scale(0.015625)"/>
     </defs>
     <use transform="translate(62.201172 0.484375)" xlink:href="#DejaVuSans-304"/>
     <use transform="translate(0 0.578125)" xlink:href="#DejaVuSans-Oblique-78"/>
     <use transform="translate(78.662109 0.578125)" xlink:href="#DejaVuSans-3d"/>
     <use transform="translate(181.933594 0.578125)" xlink:href="#DejaVuSans-30"/>
     <use transform="translate(245.556641 0.578125)" xlink:href="#DejaVuSans-2e"/>
     <use transform="translate(277.34375 0.578125)" xlink:href="#DejaVuSans-30"/>
     <use transform="translate(340.966797 0.578125)" xlink:href="#DejaVuSans-30"/>
     <use transform="translate(404.589844 0.578125)" xlink:href="#DejaVuSans-32"/>
     <use transform="translate(468.212891 0.578125)" xlink:href="#DejaVuSans-37"/>
    </g>
   </g>
   <g id="legend_1">
    <g id="patch_82">
     <path d="M 353.410312 47.954687 
L 431.77125 47.954687 
Q 433.77125 47.954687 433.77125 45.954687 
L 433.77125 17.598437 
Q 433.77125 15.598437 431.77125 15.598437 
L 353.410312 15.598437 
Q 351.410312 15.598437 351.410312 17.598437 
L 351.410312 45.954687 
Q 351.410312 47.954687 353.410312 47.954687 
z
" style="fill:#ffffff;opacity:0.8;stroke:#cccccc;stroke-linejoin:miter;"/>
    </g>
    <g id="patch_83">
     <path d="M 355.410312 27.196875 
L 375.410312 27.196875 
L 375.410312 20.196875 
L 355.410312 20.196875 
z
" style="fill:#ce6dbd;opacity:0.3;stroke:#b18aaa;stroke-linejoin:miter;"/>
    </g>
    <g id="text_17">
     <!-- observed -->
     <g transform="translate(383.410312 27.196875)scale(0.1 -0.1)">
      <defs>
       <path d="M 1959 3097 
Q 1497 3097 1228 2736 
Q 959 2375 959 1747 
Q 959 1119 1226 758 
Q 1494 397 1959 397 
Q 2419 397 2687 759 
Q 2956 1122 2956 1747 
Q 2956 2369 2687 2733 
Q 2419 3097 1959 3097 
z
M 1959 3584 
Q 2709 3584 3137 3096 
Q 3566 2609 3566 1747 
Q 3566 888 3137 398 
Q 2709 -91 1959 -91 
Q 1206 -91 779 398 
Q 353 888 353 1747 
Q 353 2609 779 3096 
Q 1206 3584 1959 3584 
z
" id="DejaVuSans-6f" transform="scale(0.015625)"/>
       <path d="M 3116 1747 
Q 3116 2381 2855 2742 
Q 2594 3103 2138 3103 
Q 1681 3103 1420 2742 
Q 1159 2381 1159 1747 
Q 1159 1113 1420 752 
Q 1681 391 2138 391 
Q 2594 391 2855 752 
Q 3116 1113 3116 1747 
z
M 1159 2969 
Q 1341 3281 1617 3432 
Q 1894 3584 2278 3584 
Q 2916 3584 3314 3078 
Q 3713 2572 3713 1747 
Q 3713 922 3314 415 
Q 2916 -91 2278 -91 
Q 1894 -91 1617 61 
Q 1341 213 1159 525 
L 1159 0 
L 581 0 
L 581 4863 
L 1159 4863 
L 1159 2969 
z
" id="DejaVuSans-62" transform="scale(0.015625)"/>
       <path d="M 2631 2963 
Q 2534 3019 2420 3045 
Q 2306 3072 2169 3072 
Q 1681 3072 1420 2755 
Q 1159 2438 1159 1844 
L 1159 0 
L 581 0 
L 581 3500 
L 1159 3500 
L 1159 2956 
Q 1341 3275 1631 3429 
Q 1922 3584 2338 3584 
Q 2397 3584 2469 3576 
Q 2541 3569 2628 3553 
L 2631 2963 
z
" id="DejaVuSans-72" transform="scale(0.015625)"/>
       <path d="M 191 3500 
L 800 3500 
L 1894 563 
L 2988 3500 
L 3597 3500 
L 2284 0 
L 1503 0 
L 191 3500 
z
" id="DejaVuSans-76" transform="scale(0.015625)"/>
       <path d="M 2906 2969 
L 2906 4863 
L 3481 4863 
L 3481 0 
L 2906 0 
L 2906 525 
Q 2725 213 2448 61 
Q 2172 -91 1784 -91 
Q 1150 -91 751 415 
Q 353 922 353 1747 
Q 353 2572 751 3078 
Q 1150 3584 1784 3584 
Q 2172 3584 2448 3432 
Q 2725 3281 2906 2969 
z
M 947 1747 
Q 947 1113 1208 752 
Q 1469 391 1925 391 
Q 2381 391 2643 752 
Q 2906 1113 2906 1747 
Q 2906 2381 2643 2742 
Q 2381 3103 1925 3103 
Q 1469 3103 1208 2742 
Q 947 2381 947 1747 
z
" id="DejaVuSans-64" transform="scale(0.015625)"/>
      </defs>
      <use xlink:href="#DejaVuSans-6f"/>
      <use x="61.181641" xlink:href="#DejaVuSans-62"/>
      <use x="124.658203" xlink:href="#DejaVuSans-73"/>
      <use x="176.757812" xlink:href="#DejaVuSans-65"/>
      <use x="238.28125" xlink:href="#DejaVuSans-72"/>
      <use x="279.394531" xlink:href="#DejaVuSans-76"/>
      <use x="338.574219" xlink:href="#DejaVuSans-65"/>
      <use x="400.097656" xlink:href="#DejaVuSans-64"/>
     </g>
    </g>
    <g id="patch_84">
     <path d="M 355.410312 41.875 
L 375.410312 41.875 
L 375.410312 34.875 
L 355.410312 34.875 
z
" style="fill:#6495ed;opacity:0.3;stroke:#97a4ba;stroke-linejoin:miter;"/>
    </g>
    <g id="text_18">
     <!-- expected -->
     <g transform="translate(383.410312 41.875)scale(0.1 -0.1)">
      <defs>
       <path d="M 3513 3500 
L 2247 1797 
L 3578 0 
L 2900 0 
L 1881 1375 
L 863 0 
L 184 0 
L 1544 1831 
L 300 3500 
L 978 3500 
L 1906 2253 
L 2834 3500 
L 3513 3500 
z
" id="DejaVuSans-78" transform="scale(0.015625)"/>
       <path d="M 1159 525 
L 1159 -1331 
L 581 -1331 
L 581 3500 
L 1159 3500 
L 1159 2969 
Q 1341 3281 1617 3432 
Q 1894 3584 2278 3584 
Q 2916 3584 3314 3078 
Q 3713 2572 3713 1747 
Q 3713 922 3314 415 
Q 2916 -91 2278 -91 
Q 1894 -91 1617 61 
Q 1341 213 1159 525 
z
M 3116 1747 
Q 3116 2381 2855 2742 
Q 2594 3103 2138 3103 
Q 1681 3103 1420 2742 
Q 1159 2381 1159 1747 
Q 1159 1113 1420 752 
Q 1681 391 2138 391 
Q 2594 391 2855 752 
Q 3116 1113 3116 1747 
z
" id="DejaVuSans-70" transform="scale(0.015625)"/>
       <path d="M 3122 3366 
L 3122 2828 
Q 2878 2963 2633 3030 
Q 2388 3097 2138 3097 
Q 1578 3097 1268 2742 
Q 959 2388 959 1747 
Q 959 1106 1268 751 
Q 1578 397 2138 397 
Q 2388 397 2633 464 
Q 2878 531 3122 666 
L 3122 134 
Q 2881 22 2623 -34 
Q 2366 -91 2075 -91 
Q 1284 -91 818 406 
Q 353 903 353 1747 
Q 353 2603 823 3093 
Q 1294 3584 2113 3584 
Q 2378 3584 2631 3529 
Q 2884 3475 3122 3366 
z
" id="DejaVuSans-63" transform="scale(0.015625)"/>
       <path d="M 1172 4494 
L 1172 3500 
L 2356 3500 
L 2356 3053 
L 1172 3053 
L 1172 1153 
Q 1172 725 1289 603 
Q 1406 481 1766 481 
L 2356 481 
L 2356 0 
L 1766 0 
Q 1100 0 847 248 
Q 594 497 594 1153 
L 594 3053 
L 172 3053 
L 172 3500 
L 594 3500 
L 594 4494 
L 1172 4494 
z
" id="DejaVuSans-74" transform="scale(0.015625)"/>
      </defs>
      <use xlink:href="#DejaVuSans-65"/>
      <use x="59.773438" xlink:href="#DejaVuSans-78"/>
      <use x="118.953125" xlink:href="#DejaVuSans-70"/>
      <use x="182.429688" xlink:href="#DejaVuSans-65"/>
      <use x="243.953125" xlink:href="#DejaVuSans-63"/>
      <use x="298.933594" xlink:href="#DejaVuSans-74"/>
      <use x="338.142578" xlink:href="#DejaVuSans-65"/>
      <use x="399.666016" xlink:href="#DejaVuSans-64"/>
     </g>
    </g>
   </g>
  </g>
 </g>
 <defs>
  <clipPath id="pa1707bfd7e">
   <rect height="296" width="402.19" x="36.58125" y="10.598437"/>
  </clipPath>
 </defs>
</svg>
