<?xml version="1.0" encoding="utf-8" standalone="no"?>
<!DOCTYPE svg PUBLIC "-//W3C//DTD SVG 1.1//EN"
  "http://www.w3.org/Graphics/SVG/1.1/DTD/svg11.dtd">
<svg height="115.454307pt" version="1.1" viewBox="0 0 489.3365 115.454307" width="489.3365pt" xmlns="http://www.w3.org/2000/svg" xmlns:xlink="http://www.w3.org/1999/xlink">
 <metadata>
  <rdf:RDF xmlns:cc="http://creativecommons.org/ns#" xmlns:dc="http://purl.org/dc/elements/1.1/" xmlns:rdf="http://www.w3.org/1999/02/22-rdf-syntax-ns#">
   <cc:Work>
    <dc:type rdf:resource="http://purl.org/dc/dcmitype/StillImage"/>
    <dc:date>2022-02-02T12:19:27.901356</dc:date>
    <dc:format>image/svg+xml</dc:format>
    <dc:creator>
     <cc:Agent>
      <dc:title>Matplotlib v3.4.3, https://matplotlib.org/</dc:title>
     </cc:Agent>
    </dc:creator>
   </cc:Work>
  </rdf:RDF>
 </metadata>
 <defs>
  <style type="text/css">*{stroke-linecap:butt;stroke-linejoin:round;}</style>
 </defs>
 <g id="figure_1">
  <g id="patch_1">
   <path d="M 0 115.454307 
L 489.3365 115.454307 
L 489.3365 0 
L 0 0 
z
" style="fill:#ffffff;"/>
  </g>
  <g id="axes_1">
   <g id="patch_2">
    <path d="M 13.3625 98.776182 
L 489.3365 98.776182 
L 489.3365 3.799219 
L 13.3625 3.799219 
z
" style="fill:#ffffff;"/>
   </g>
   <g id="patch_3">
    <path clip-path="url(#p01a6c0145d)" d="M 13.907093 98.776182 
L 16.085463 98.776182 
L 16.085463 98.775232 
L 13.907093 98.775232 
z
" style="fill:#1f77b4;"/>
   </g>
   <g id="patch_4">
    <path clip-path="url(#p01a6c0145d)" d="M 16.085463 98.776182 
L 18.263834 98.776182 
L 18.263834 98.775232 
L 16.085463 98.775232 
z
" style="fill:#1f77b4;"/>
   </g>
   <g id="patch_5">
    <path clip-path="url(#p01a6c0145d)" d="M 18.263834 98.776182 
L 20.442205 98.776182 
L 20.442205 98.775232 
L 18.263834 98.775232 
z
" style="fill:#1f77b4;"/>
   </g>
   <g id="patch_6">
    <path clip-path="url(#p01a6c0145d)" d="M 20.442205 98.776182 
L 22.620576 98.776182 
L 22.620576 98.775232 
L 20.442205 98.775232 
z
" style="fill:#1f77b4;"/>
   </g>
   <g id="patch_7">
    <path clip-path="url(#p01a6c0145d)" d="M 22.620576 98.776182 
L 24.798946 98.776182 
L 24.798946 98.775232 
L 22.620576 98.775232 
z
" style="fill:#1f77b4;"/>
   </g>
   <g id="patch_8">
    <path clip-path="url(#p01a6c0145d)" d="M 24.798946 98.776182 
L 26.977317 98.776182 
L 26.977317 98.775232 
L 24.798946 98.775232 
z
" style="fill:#1f77b4;"/>
   </g>
   <g id="patch_9">
    <path clip-path="url(#p01a6c0145d)" d="M 26.977317 98.776182 
L 29.155688 98.776182 
L 29.155688 98.775232 
L 26.977317 98.775232 
z
" style="fill:#1f77b4;"/>
   </g>
   <g id="patch_10">
    <path clip-path="url(#p01a6c0145d)" d="M 29.155688 98.776182 
L 31.334058 98.776182 
L 31.334058 98.775232 
L 29.155688 98.775232 
z
" style="fill:#1f77b4;"/>
   </g>
   <g id="patch_11">
    <path clip-path="url(#p01a6c0145d)" d="M 31.334058 98.776182 
L 33.512429 98.776182 
L 33.512429 98.775232 
L 31.334058 98.775232 
z
" style="fill:#1f77b4;"/>
   </g>
   <g id="patch_12">
    <path clip-path="url(#p01a6c0145d)" d="M 33.512429 98.776182 
L 35.6908 98.776182 
L 35.6908 98.775232 
L 33.512429 98.775232 
z
" style="fill:#1f77b4;"/>
   </g>
   <g id="patch_13">
    <path clip-path="url(#p01a6c0145d)" d="M 35.6908 98.776182 
L 37.86917 98.776182 
L 37.86917 98.775232 
L 35.6908 98.775232 
z
" style="fill:#1f77b4;"/>
   </g>
   <g id="patch_14">
    <path clip-path="url(#p01a6c0145d)" d="M 37.86917 98.776182 
L 40.047541 98.776182 
L 40.047541 98.775232 
L 37.86917 98.775232 
z
" style="fill:#1f77b4;"/>
   </g>
   <g id="patch_15">
    <path clip-path="url(#p01a6c0145d)" d="M 40.047541 98.776182 
L 42.225912 98.776182 
L 42.225912 98.775232 
L 40.047541 98.775232 
z
" style="fill:#1f77b4;"/>
   </g>
   <g id="patch_16">
    <path clip-path="url(#p01a6c0145d)" d="M 42.225912 98.776182 
L 44.404283 98.776182 
L 44.404283 98.775232 
L 42.225912 98.775232 
z
" style="fill:#1f77b4;"/>
   </g>
   <g id="patch_17">
    <path clip-path="url(#p01a6c0145d)" d="M 44.404283 98.776182 
L 46.582653 98.776182 
L 46.582653 98.775232 
L 44.404283 98.775232 
z
" style="fill:#1f77b4;"/>
   </g>
   <g id="patch_18">
    <path clip-path="url(#p01a6c0145d)" d="M 46.582653 98.776182 
L 48.761024 98.776182 
L 48.761024 98.775232 
L 46.582653 98.775232 
z
" style="fill:#1f77b4;"/>
   </g>
   <g id="patch_19">
    <path clip-path="url(#p01a6c0145d)" d="M 48.761024 98.776182 
L 50.939395 98.776182 
L 50.939395 98.775232 
L 48.761024 98.775232 
z
" style="fill:#1f77b4;"/>
   </g>
   <g id="patch_20">
    <path clip-path="url(#p01a6c0145d)" d="M 50.939395 98.776182 
L 53.117765 98.776182 
L 53.117765 98.775232 
L 50.939395 98.775232 
z
" style="fill:#1f77b4;"/>
   </g>
   <g id="patch_21">
    <path clip-path="url(#p01a6c0145d)" d="M 53.117765 98.776182 
L 55.296136 98.776182 
L 55.296136 98.775232 
L 53.117765 98.775232 
z
" style="fill:#1f77b4;"/>
   </g>
   <g id="patch_22">
    <path clip-path="url(#p01a6c0145d)" d="M 55.296136 98.776182 
L 57.474507 98.776182 
L 57.474507 98.775232 
L 55.296136 98.775232 
z
" style="fill:#1f77b4;"/>
   </g>
   <g id="patch_23">
    <path clip-path="url(#p01a6c0145d)" d="M 57.474507 98.776182 
L 59.652878 98.776182 
L 59.652878 98.775232 
L 57.474507 98.775232 
z
" style="fill:#1f77b4;"/>
   </g>
   <g id="patch_24">
    <path clip-path="url(#p01a6c0145d)" d="M 59.652878 98.776182 
L 61.831248 98.776182 
L 61.831248 98.775232 
L 59.652878 98.775232 
z
" style="fill:#1f77b4;"/>
   </g>
   <g id="patch_25">
    <path clip-path="url(#p01a6c0145d)" d="M 61.831248 98.776182 
L 64.009619 98.776182 
L 64.009619 98.775232 
L 61.831248 98.775232 
z
" style="fill:#1f77b4;"/>
   </g>
   <g id="patch_26">
    <path clip-path="url(#p01a6c0145d)" d="M 64.009619 98.776182 
L 66.18799 98.776182 
L 66.18799 98.775232 
L 64.009619 98.775232 
z
" style="fill:#1f77b4;"/>
   </g>
   <g id="patch_27">
    <path clip-path="url(#p01a6c0145d)" d="M 66.18799 98.776182 
L 68.36636 98.776182 
L 68.36636 98.775232 
L 66.18799 98.775232 
z
" style="fill:#1f77b4;"/>
   </g>
   <g id="patch_28">
    <path clip-path="url(#p01a6c0145d)" d="M 68.36636 98.776182 
L 70.544731 98.776182 
L 70.544731 98.775232 
L 68.36636 98.775232 
z
" style="fill:#1f77b4;"/>
   </g>
   <g id="patch_29">
    <path clip-path="url(#p01a6c0145d)" d="M 70.544731 98.776182 
L 72.723102 98.776182 
L 72.723102 98.775232 
L 70.544731 98.775232 
z
" style="fill:#1f77b4;"/>
   </g>
   <g id="patch_30">
    <path clip-path="url(#p01a6c0145d)" d="M 72.723102 98.776182 
L 74.901473 98.776182 
L 74.901473 98.775232 
L 72.723102 98.775232 
z
" style="fill:#1f77b4;"/>
   </g>
   <g id="patch_31">
    <path clip-path="url(#p01a6c0145d)" d="M 74.901473 98.776182 
L 77.079843 98.776182 
L 77.079843 98.775232 
L 74.901473 98.775232 
z
" style="fill:#1f77b4;"/>
   </g>
   <g id="patch_32">
    <path clip-path="url(#p01a6c0145d)" d="M 77.079843 98.776182 
L 79.258214 98.776182 
L 79.258214 98.775232 
L 77.079843 98.775232 
z
" style="fill:#1f77b4;"/>
   </g>
   <g id="patch_33">
    <path clip-path="url(#p01a6c0145d)" d="M 79.258214 98.776182 
L 81.436585 98.776182 
L 81.436585 98.775232 
L 79.258214 98.775232 
z
" style="fill:#1f77b4;"/>
   </g>
   <g id="patch_34">
    <path clip-path="url(#p01a6c0145d)" d="M 81.436585 98.776182 
L 83.614955 98.776182 
L 83.614955 98.775232 
L 81.436585 98.775232 
z
" style="fill:#1f77b4;"/>
   </g>
   <g id="patch_35">
    <path clip-path="url(#p01a6c0145d)" d="M 83.614955 98.776182 
L 85.793326 98.776182 
L 85.793326 98.775232 
L 83.614955 98.775232 
z
" style="fill:#1f77b4;"/>
   </g>
   <g id="patch_36">
    <path clip-path="url(#p01a6c0145d)" d="M 85.793326 98.776182 
L 87.971697 98.776182 
L 87.971697 98.775232 
L 85.793326 98.775232 
z
" style="fill:#1f77b4;"/>
   </g>
   <g id="patch_37">
    <path clip-path="url(#p01a6c0145d)" d="M 87.971697 98.776182 
L 90.150068 98.776182 
L 90.150068 98.775232 
L 87.971697 98.775232 
z
" style="fill:#1f77b4;"/>
   </g>
   <g id="patch_38">
    <path clip-path="url(#p01a6c0145d)" d="M 90.150068 98.776182 
L 92.328438 98.776182 
L 92.328438 98.775232 
L 90.150068 98.775232 
z
" style="fill:#1f77b4;"/>
   </g>
   <g id="patch_39">
    <path clip-path="url(#p01a6c0145d)" d="M 92.328438 98.776182 
L 94.506809 98.776182 
L 94.506809 98.775232 
L 92.328438 98.775232 
z
" style="fill:#1f77b4;"/>
   </g>
   <g id="patch_40">
    <path clip-path="url(#p01a6c0145d)" d="M 94.506809 98.776182 
L 96.68518 98.776182 
L 96.68518 98.775232 
L 94.506809 98.775232 
z
" style="fill:#1f77b4;"/>
   </g>
   <g id="patch_41">
    <path clip-path="url(#p01a6c0145d)" d="M 96.68518 98.776182 
L 98.86355 98.776182 
L 98.86355 98.775232 
L 96.68518 98.775232 
z
" style="fill:#1f77b4;"/>
   </g>
   <g id="patch_42">
    <path clip-path="url(#p01a6c0145d)" d="M 98.86355 98.776182 
L 101.041921 98.776182 
L 101.041921 98.775232 
L 98.86355 98.775232 
z
" style="fill:#1f77b4;"/>
   </g>
   <g id="patch_43">
    <path clip-path="url(#p01a6c0145d)" d="M 101.041921 98.776182 
L 103.220292 98.776182 
L 103.220292 98.775232 
L 101.041921 98.775232 
z
" style="fill:#1f77b4;"/>
   </g>
   <g id="patch_44">
    <path clip-path="url(#p01a6c0145d)" d="M 103.220292 98.776182 
L 105.398662 98.776182 
L 105.398662 98.775232 
L 103.220292 98.775232 
z
" style="fill:#1f77b4;"/>
   </g>
   <g id="patch_45">
    <path clip-path="url(#p01a6c0145d)" d="M 105.398662 98.776182 
L 107.577033 98.776182 
L 107.577033 98.775232 
L 105.398662 98.775232 
z
" style="fill:#1f77b4;"/>
   </g>
   <g id="patch_46">
    <path clip-path="url(#p01a6c0145d)" d="M 107.577033 98.776182 
L 109.755404 98.776182 
L 109.755404 98.775232 
L 107.577033 98.775232 
z
" style="fill:#1f77b4;"/>
   </g>
   <g id="patch_47">
    <path clip-path="url(#p01a6c0145d)" d="M 109.755404 98.776182 
L 111.933775 98.776182 
L 111.933775 98.775232 
L 109.755404 98.775232 
z
" style="fill:#1f77b4;"/>
   </g>
   <g id="patch_48">
    <path clip-path="url(#p01a6c0145d)" d="M 111.933775 98.776182 
L 114.112145 98.776182 
L 114.112145 98.775232 
L 111.933775 98.775232 
z
" style="fill:#1f77b4;"/>
   </g>
   <g id="patch_49">
    <path clip-path="url(#p01a6c0145d)" d="M 114.112145 98.776182 
L 116.290516 98.776182 
L 116.290516 98.775232 
L 114.112145 98.775232 
z
" style="fill:#1f77b4;"/>
   </g>
   <g id="patch_50">
    <path clip-path="url(#p01a6c0145d)" d="M 116.290516 98.776182 
L 118.468887 98.776182 
L 118.468887 98.775232 
L 116.290516 98.775232 
z
" style="fill:#1f77b4;"/>
   </g>
   <g id="patch_51">
    <path clip-path="url(#p01a6c0145d)" d="M 118.468887 98.776182 
L 120.647257 98.776182 
L 120.647257 78.772229 
L 118.468887 78.772229 
z
" style="fill:#1f77b4;"/>
   </g>
   <g id="patch_52">
    <path clip-path="url(#p01a6c0145d)" d="M 120.647257 98.776182 
L 122.825628 98.776182 
L 122.825628 74.516596 
L 120.647257 74.516596 
z
" style="fill:#1f77b4;"/>
   </g>
   <g id="patch_53">
    <path clip-path="url(#p01a6c0145d)" d="M 122.825628 98.776182 
L 125.003999 98.776182 
L 125.003999 98.775232 
L 122.825628 98.775232 
z
" style="fill:#1f77b4;"/>
   </g>
   <g id="patch_54">
    <path clip-path="url(#p01a6c0145d)" d="M 125.003999 98.776182 
L 127.18237 98.776182 
L 127.18237 98.775232 
L 125.003999 98.775232 
z
" style="fill:#1f77b4;"/>
   </g>
   <g id="patch_55">
    <path clip-path="url(#p01a6c0145d)" d="M 127.18237 98.776182 
L 129.36074 98.776182 
L 129.36074 98.775232 
L 127.18237 98.775232 
z
" style="fill:#1f77b4;"/>
   </g>
   <g id="patch_56">
    <path clip-path="url(#p01a6c0145d)" d="M 129.36074 98.776182 
L 131.539111 98.776182 
L 131.539111 98.775232 
L 129.36074 98.775232 
z
" style="fill:#1f77b4;"/>
   </g>
   <g id="patch_57">
    <path clip-path="url(#p01a6c0145d)" d="M 131.539111 98.776182 
L 133.717482 98.776182 
L 133.717482 98.775232 
L 131.539111 98.775232 
z
" style="fill:#1f77b4;"/>
   </g>
   <g id="patch_58">
    <path clip-path="url(#p01a6c0145d)" d="M 133.717482 98.776182 
L 135.895852 98.776182 
L 135.895852 98.775232 
L 133.717482 98.775232 
z
" style="fill:#1f77b4;"/>
   </g>
   <g id="patch_59">
    <path clip-path="url(#p01a6c0145d)" d="M 135.895852 98.776182 
L 138.074223 98.776182 
L 138.074223 98.775232 
L 135.895852 98.775232 
z
" style="fill:#1f77b4;"/>
   </g>
   <g id="patch_60">
    <path clip-path="url(#p01a6c0145d)" d="M 138.074223 98.776182 
L 140.252594 98.776182 
L 140.252594 98.775232 
L 138.074223 98.775232 
z
" style="fill:#1f77b4;"/>
   </g>
   <g id="patch_61">
    <path clip-path="url(#p01a6c0145d)" d="M 140.252594 98.776182 
L 142.430965 98.776182 
L 142.430965 98.775232 
L 140.252594 98.775232 
z
" style="fill:#1f77b4;"/>
   </g>
   <g id="patch_62">
    <path clip-path="url(#p01a6c0145d)" d="M 142.430965 98.776182 
L 144.609335 98.776182 
L 144.609335 98.775232 
L 142.430965 98.775232 
z
" style="fill:#1f77b4;"/>
   </g>
   <g id="patch_63">
    <path clip-path="url(#p01a6c0145d)" d="M 144.609335 98.776182 
L 146.787706 98.776182 
L 146.787706 98.775232 
L 144.609335 98.775232 
z
" style="fill:#1f77b4;"/>
   </g>
   <g id="patch_64">
    <path clip-path="url(#p01a6c0145d)" d="M 146.787706 98.776182 
L 148.966077 98.776182 
L 148.966077 98.775232 
L 146.787706 98.775232 
z
" style="fill:#1f77b4;"/>
   </g>
   <g id="patch_65">
    <path clip-path="url(#p01a6c0145d)" d="M 148.966077 98.776182 
L 151.144447 98.776182 
L 151.144447 98.775232 
L 148.966077 98.775232 
z
" style="fill:#1f77b4;"/>
   </g>
   <g id="patch_66">
    <path clip-path="url(#p01a6c0145d)" d="M 151.144447 98.776182 
L 153.322818 98.776182 
L 153.322818 98.775232 
L 151.144447 98.775232 
z
" style="fill:#1f77b4;"/>
   </g>
   <g id="patch_67">
    <path clip-path="url(#p01a6c0145d)" d="M 153.322818 98.776182 
L 155.501189 98.776182 
L 155.501189 98.775232 
L 153.322818 98.775232 
z
" style="fill:#1f77b4;"/>
   </g>
   <g id="patch_68">
    <path clip-path="url(#p01a6c0145d)" d="M 155.501189 98.776182 
L 157.679559 98.776182 
L 157.679559 98.775232 
L 155.501189 98.775232 
z
" style="fill:#1f77b4;"/>
   </g>
   <g id="patch_69">
    <path clip-path="url(#p01a6c0145d)" d="M 157.679559 98.776182 
L 159.85793 98.776182 
L 159.85793 98.775232 
L 157.679559 98.775232 
z
" style="fill:#1f77b4;"/>
   </g>
   <g id="patch_70">
    <path clip-path="url(#p01a6c0145d)" d="M 159.85793 98.776182 
L 162.036301 98.776182 
L 162.036301 98.775232 
L 159.85793 98.775232 
z
" style="fill:#1f77b4;"/>
   </g>
   <g id="patch_71">
    <path clip-path="url(#p01a6c0145d)" d="M 162.036301 98.776182 
L 164.214672 98.776182 
L 164.214672 53.324956 
L 162.036301 53.324956 
z
" style="fill:#1f77b4;"/>
   </g>
   <g id="patch_72">
    <path clip-path="url(#p01a6c0145d)" d="M 164.214672 98.776182 
L 166.393042 98.776182 
L 166.393042 73.971998 
L 164.214672 73.971998 
z
" style="fill:#1f77b4;"/>
   </g>
   <g id="patch_73">
    <path clip-path="url(#p01a6c0145d)" d="M 166.393042 98.776182 
L 168.571413 98.776182 
L 168.571413 98.775232 
L 166.393042 98.775232 
z
" style="fill:#1f77b4;"/>
   </g>
   <g id="patch_74">
    <path clip-path="url(#p01a6c0145d)" d="M 168.571413 98.776182 
L 170.749784 98.776182 
L 170.749784 98.775232 
L 168.571413 98.775232 
z
" style="fill:#1f77b4;"/>
   </g>
   <g id="patch_75">
    <path clip-path="url(#p01a6c0145d)" d="M 170.749784 98.776182 
L 172.928154 98.776182 
L 172.928154 98.775232 
L 170.749784 98.775232 
z
" style="fill:#1f77b4;"/>
   </g>
   <g id="patch_76">
    <path clip-path="url(#p01a6c0145d)" d="M 172.928154 98.776182 
L 175.106525 98.776182 
L 175.106525 98.775232 
L 172.928154 98.775232 
z
" style="fill:#1f77b4;"/>
   </g>
   <g id="patch_77">
    <path clip-path="url(#p01a6c0145d)" d="M 175.106525 98.776182 
L 177.284896 98.776182 
L 177.284896 98.775232 
L 175.106525 98.775232 
z
" style="fill:#1f77b4;"/>
   </g>
   <g id="patch_78">
    <path clip-path="url(#p01a6c0145d)" d="M 177.284896 98.776182 
L 179.463267 98.776182 
L 179.463267 98.775232 
L 177.284896 98.775232 
z
" style="fill:#1f77b4;"/>
   </g>
   <g id="patch_79">
    <path clip-path="url(#p01a6c0145d)" d="M 179.463267 98.776182 
L 181.641637 98.776182 
L 181.641637 98.775232 
L 179.463267 98.775232 
z
" style="fill:#1f77b4;"/>
   </g>
   <g id="patch_80">
    <path clip-path="url(#p01a6c0145d)" d="M 181.641637 98.776182 
L 183.820008 98.776182 
L 183.820008 98.775232 
L 181.641637 98.775232 
z
" style="fill:#1f77b4;"/>
   </g>
   <g id="patch_81">
    <path clip-path="url(#p01a6c0145d)" d="M 183.820008 98.776182 
L 185.998379 98.776182 
L 185.998379 78.336569 
L 183.820008 78.336569 
z
" style="fill:#1f77b4;"/>
   </g>
   <g id="patch_82">
    <path clip-path="url(#p01a6c0145d)" d="M 185.998379 98.776182 
L 188.176749 98.776182 
L 188.176749 98.775232 
L 185.998379 98.775232 
z
" style="fill:#1f77b4;"/>
   </g>
   <g id="patch_83">
    <path clip-path="url(#p01a6c0145d)" d="M 188.176749 98.776182 
L 190.35512 98.776182 
L 190.35512 98.775232 
L 188.176749 98.775232 
z
" style="fill:#1f77b4;"/>
   </g>
   <g id="patch_84">
    <path clip-path="url(#p01a6c0145d)" d="M 190.35512 98.776182 
L 192.533491 98.776182 
L 192.533491 81.491039 
L 190.35512 81.491039 
z
" style="fill:#1f77b4;"/>
   </g>
   <g id="patch_85">
    <path clip-path="url(#p01a6c0145d)" d="M 192.533491 98.776182 
L 194.711862 98.776182 
L 194.711862 98.775232 
L 192.533491 98.775232 
z
" style="fill:#1f77b4;"/>
   </g>
   <g id="patch_86">
    <path clip-path="url(#p01a6c0145d)" d="M 194.711862 98.776182 
L 196.890232 98.776182 
L 196.890232 98.775232 
L 194.711862 98.775232 
z
" style="fill:#1f77b4;"/>
   </g>
   <g id="patch_87">
    <path clip-path="url(#p01a6c0145d)" d="M 196.890232 98.776182 
L 199.068603 98.776182 
L 199.068603 98.775232 
L 196.890232 98.775232 
z
" style="fill:#1f77b4;"/>
   </g>
   <g id="patch_88">
    <path clip-path="url(#p01a6c0145d)" d="M 199.068603 98.776182 
L 201.246974 98.776182 
L 201.246974 53.117526 
L 199.068603 53.117526 
z
" style="fill:#1f77b4;"/>
   </g>
   <g id="patch_89">
    <path clip-path="url(#p01a6c0145d)" d="M 201.246974 98.776182 
L 203.425344 98.776182 
L 203.425344 70.819713 
L 201.246974 70.819713 
z
" style="fill:#1f77b4;"/>
   </g>
   <g id="patch_90">
    <path clip-path="url(#p01a6c0145d)" d="M 203.425344 98.776182 
L 205.603715 98.776182 
L 205.603715 63.970259 
L 203.425344 63.970259 
z
" style="fill:#1f77b4;"/>
   </g>
   <g id="patch_91">
    <path clip-path="url(#p01a6c0145d)" d="M 205.603715 98.776182 
L 207.782086 98.776182 
L 207.782086 98.775232 
L 205.603715 98.775232 
z
" style="fill:#1f77b4;"/>
   </g>
   <g id="patch_92">
    <path clip-path="url(#p01a6c0145d)" d="M 207.782086 98.776182 
L 209.960457 98.776182 
L 209.960457 98.775232 
L 207.782086 98.775232 
z
" style="fill:#1f77b4;"/>
   </g>
   <g id="patch_93">
    <path clip-path="url(#p01a6c0145d)" d="M 209.960457 98.776182 
L 212.138827 98.776182 
L 212.138827 98.775232 
L 209.960457 98.775232 
z
" style="fill:#1f77b4;"/>
   </g>
   <g id="patch_94">
    <path clip-path="url(#p01a6c0145d)" d="M 212.138827 98.776182 
L 214.317198 98.776182 
L 214.317198 76.756533 
L 212.138827 76.756533 
z
" style="fill:#1f77b4;"/>
   </g>
   <g id="patch_95">
    <path clip-path="url(#p01a6c0145d)" d="M 214.317198 98.776182 
L 216.495569 98.776182 
L 216.495569 98.775232 
L 214.317198 98.775232 
z
" style="fill:#1f77b4;"/>
   </g>
   <g id="patch_96">
    <path clip-path="url(#p01a6c0145d)" d="M 216.495569 98.776182 
L 218.673939 98.776182 
L 218.673939 52.758988 
L 216.495569 52.758988 
z
" style="fill:#1f77b4;"/>
   </g>
   <g id="patch_97">
    <path clip-path="url(#p01a6c0145d)" d="M 218.673939 98.776182 
L 220.85231 98.776182 
L 220.85231 98.775232 
L 218.673939 98.775232 
z
" style="fill:#1f77b4;"/>
   </g>
   <g id="patch_98">
    <path clip-path="url(#p01a6c0145d)" d="M 220.85231 98.776182 
L 223.030681 98.776182 
L 223.030681 53.814752 
L 220.85231 53.814752 
z
" style="fill:#1f77b4;"/>
   </g>
   <g id="patch_99">
    <path clip-path="url(#p01a6c0145d)" d="M 223.030681 98.776182 
L 225.209051 98.776182 
L 225.209051 98.775232 
L 223.030681 98.775232 
z
" style="fill:#1f77b4;"/>
   </g>
   <g id="patch_100">
    <path clip-path="url(#p01a6c0145d)" d="M 225.209051 98.776182 
L 227.387422 98.776182 
L 227.387422 98.775232 
L 225.209051 98.775232 
z
" style="fill:#1f77b4;"/>
   </g>
   <g id="patch_101">
    <path clip-path="url(#p01a6c0145d)" d="M 227.387422 98.776182 
L 229.565793 98.776182 
L 229.565793 62.08829 
L 227.387422 62.08829 
z
" style="fill:#1f77b4;"/>
   </g>
   <g id="patch_102">
    <path clip-path="url(#p01a6c0145d)" d="M 229.565793 98.776182 
L 231.744164 98.776182 
L 231.744164 54.371317 
L 229.565793 54.371317 
z
" style="fill:#1f77b4;"/>
   </g>
   <g id="patch_103">
    <path clip-path="url(#p01a6c0145d)" d="M 231.744164 98.776182 
L 233.922534 98.776182 
L 233.922534 98.775232 
L 231.744164 98.775232 
z
" style="fill:#1f77b4;"/>
   </g>
   <g id="patch_104">
    <path clip-path="url(#p01a6c0145d)" d="M 233.922534 98.776182 
L 236.100905 98.776182 
L 236.100905 67.329309 
L 233.922534 67.329309 
z
" style="fill:#1f77b4;"/>
   </g>
   <g id="patch_105">
    <path clip-path="url(#p01a6c0145d)" d="M 236.100905 98.776182 
L 238.279276 98.776182 
L 238.279276 69.473604 
L 236.100905 69.473604 
z
" style="fill:#1f77b4;"/>
   </g>
   <g id="patch_106">
    <path clip-path="url(#p01a6c0145d)" d="M 238.279276 98.776182 
L 240.457646 98.776182 
L 240.457646 98.775232 
L 238.279276 98.775232 
z
" style="fill:#1f77b4;"/>
   </g>
   <g id="patch_107">
    <path clip-path="url(#p01a6c0145d)" d="M 240.457646 98.776182 
L 242.636017 98.776182 
L 242.636017 98.775232 
L 240.457646 98.775232 
z
" style="fill:#1f77b4;"/>
   </g>
   <g id="patch_108">
    <path clip-path="url(#p01a6c0145d)" d="M 242.636017 98.776182 
L 244.814388 98.776182 
L 244.814388 98.775232 
L 242.636017 98.775232 
z
" style="fill:#1f77b4;"/>
   </g>
   <g id="patch_109">
    <path clip-path="url(#p01a6c0145d)" d="M 244.814388 98.776182 
L 246.992759 98.776182 
L 246.992759 53.588042 
L 244.814388 53.588042 
z
" style="fill:#1f77b4;"/>
   </g>
   <g id="patch_110">
    <path clip-path="url(#p01a6c0145d)" d="M 246.992759 98.776182 
L 249.171129 98.776182 
L 249.171129 77.796245 
L 246.992759 77.796245 
z
" style="fill:#1f77b4;"/>
   </g>
   <g id="patch_111">
    <path clip-path="url(#p01a6c0145d)" d="M 249.171129 98.776182 
L 251.3495 98.776182 
L 251.3495 98.775232 
L 249.171129 98.775232 
z
" style="fill:#1f77b4;"/>
   </g>
   <g id="patch_112">
    <path clip-path="url(#p01a6c0145d)" d="M 251.3495 98.776182 
L 253.527871 98.776182 
L 253.527871 98.775232 
L 251.3495 98.775232 
z
" style="fill:#1f77b4;"/>
   </g>
   <g id="patch_113">
    <path clip-path="url(#p01a6c0145d)" d="M 253.527871 98.776182 
L 255.706241 98.776182 
L 255.706241 98.775232 
L 253.527871 98.775232 
z
" style="fill:#1f77b4;"/>
   </g>
   <g id="patch_114">
    <path clip-path="url(#p01a6c0145d)" d="M 255.706241 98.776182 
L 257.884612 98.776182 
L 257.884612 66.717278 
L 255.706241 66.717278 
z
" style="fill:#1f77b4;"/>
   </g>
   <g id="patch_115">
    <path clip-path="url(#p01a6c0145d)" d="M 257.884612 98.776182 
L 260.062983 98.776182 
L 260.062983 78.226396 
L 257.884612 78.226396 
z
" style="fill:#1f77b4;"/>
   </g>
   <g id="patch_116">
    <path clip-path="url(#p01a6c0145d)" d="M 260.062983 98.776182 
L 262.241354 98.776182 
L 262.241354 68.494392 
L 260.062983 68.494392 
z
" style="fill:#1f77b4;"/>
   </g>
   <g id="patch_117">
    <path clip-path="url(#p01a6c0145d)" d="M 262.241354 98.776182 
L 264.419724 98.776182 
L 264.419724 74.462269 
L 262.241354 74.462269 
z
" style="fill:#1f77b4;"/>
   </g>
   <g id="patch_118">
    <path clip-path="url(#p01a6c0145d)" d="M 264.419724 98.776182 
L 266.598095 98.776182 
L 266.598095 71.733391 
L 264.419724 71.733391 
z
" style="fill:#1f77b4;"/>
   </g>
   <g id="patch_119">
    <path clip-path="url(#p01a6c0145d)" d="M 266.598095 98.776182 
L 268.776466 98.776182 
L 268.776466 66.030784 
L 266.598095 66.030784 
z
" style="fill:#1f77b4;"/>
   </g>
   <g id="patch_120">
    <path clip-path="url(#p01a6c0145d)" d="M 268.776466 98.776182 
L 270.954836 98.776182 
L 270.954836 66.248851 
L 268.776466 66.248851 
z
" style="fill:#1f77b4;"/>
   </g>
   <g id="patch_121">
    <path clip-path="url(#p01a6c0145d)" d="M 270.954836 98.776182 
L 273.133207 98.776182 
L 273.133207 63.608207 
L 270.954836 63.608207 
z
" style="fill:#1f77b4;"/>
   </g>
   <g id="patch_122">
    <path clip-path="url(#p01a6c0145d)" d="M 273.133207 98.776182 
L 275.311578 98.776182 
L 275.311578 73.150542 
L 273.133207 73.150542 
z
" style="fill:#1f77b4;"/>
   </g>
   <g id="patch_123">
    <path clip-path="url(#p01a6c0145d)" d="M 275.311578 98.776182 
L 277.489949 98.776182 
L 277.489949 63.272653 
L 275.311578 63.272653 
z
" style="fill:#1f77b4;"/>
   </g>
   <g id="patch_124">
    <path clip-path="url(#p01a6c0145d)" d="M 277.489949 98.776182 
L 279.668319 98.776182 
L 279.668319 67.665053 
L 277.489949 67.665053 
z
" style="fill:#1f77b4;"/>
   </g>
   <g id="patch_125">
    <path clip-path="url(#p01a6c0145d)" d="M 279.668319 98.776182 
L 281.84669 98.776182 
L 281.84669 60.715114 
L 279.668319 60.715114 
z
" style="fill:#1f77b4;"/>
   </g>
   <g id="patch_126">
    <path clip-path="url(#p01a6c0145d)" d="M 281.84669 98.776182 
L 284.025061 98.776182 
L 284.025061 71.126013 
L 281.84669 71.126013 
z
" style="fill:#1f77b4;"/>
   </g>
   <g id="patch_127">
    <path clip-path="url(#p01a6c0145d)" d="M 284.025061 98.776182 
L 286.203431 98.776182 
L 286.203431 65.268594 
L 284.025061 65.268594 
z
" style="fill:#1f77b4;"/>
   </g>
   <g id="patch_128">
    <path clip-path="url(#p01a6c0145d)" d="M 286.203431 98.776182 
L 288.381802 98.776182 
L 288.381802 51.590392 
L 286.203431 51.590392 
z
" style="fill:#1f77b4;"/>
   </g>
   <g id="patch_129">
    <path clip-path="url(#p01a6c0145d)" d="M 288.381802 98.776182 
L 290.560173 98.776182 
L 290.560173 53.487747 
L 288.381802 53.487747 
z
" style="fill:#1f77b4;"/>
   </g>
   <g id="patch_130">
    <path clip-path="url(#p01a6c0145d)" d="M 290.560173 98.776182 
L 292.738543 98.776182 
L 292.738543 62.702412 
L 290.560173 62.702412 
z
" style="fill:#1f77b4;"/>
   </g>
   <g id="patch_131">
    <path clip-path="url(#p01a6c0145d)" d="M 292.738543 98.776182 
L 294.916914 98.776182 
L 294.916914 49.807389 
L 292.738543 49.807389 
z
" style="fill:#1f77b4;"/>
   </g>
   <g id="patch_132">
    <path clip-path="url(#p01a6c0145d)" d="M 294.916914 98.776182 
L 297.095285 98.776182 
L 297.095285 50.292342 
L 294.916914 50.292342 
z
" style="fill:#1f77b4;"/>
   </g>
   <g id="patch_133">
    <path clip-path="url(#p01a6c0145d)" d="M 297.095285 98.776182 
L 299.273656 98.776182 
L 299.273656 49.86428 
L 297.095285 49.86428 
z
" style="fill:#1f77b4;"/>
   </g>
   <g id="patch_134">
    <path clip-path="url(#p01a6c0145d)" d="M 299.273656 98.776182 
L 301.452026 98.776182 
L 301.452026 45.257613 
L 299.273656 45.257613 
z
" style="fill:#1f77b4;"/>
   </g>
   <g id="patch_135">
    <path clip-path="url(#p01a6c0145d)" d="M 301.452026 98.776182 
L 303.630397 98.776182 
L 303.630397 47.141481 
L 301.452026 47.141481 
z
" style="fill:#1f77b4;"/>
   </g>
   <g id="patch_136">
    <path clip-path="url(#p01a6c0145d)" d="M 303.630397 98.776182 
L 305.808768 98.776182 
L 305.808768 44.403105 
L 303.630397 44.403105 
z
" style="fill:#1f77b4;"/>
   </g>
   <g id="patch_137">
    <path clip-path="url(#p01a6c0145d)" d="M 305.808768 98.776182 
L 307.987138 98.776182 
L 307.987138 35.442314 
L 305.808768 35.442314 
z
" style="fill:#1f77b4;"/>
   </g>
   <g id="patch_138">
    <path clip-path="url(#p01a6c0145d)" d="M 307.987138 98.776182 
L 310.165509 98.776182 
L 310.165509 44.253611 
L 307.987138 44.253611 
z
" style="fill:#1f77b4;"/>
   </g>
   <g id="patch_139">
    <path clip-path="url(#p01a6c0145d)" d="M 310.165509 98.776182 
L 312.34388 98.776182 
L 312.34388 47.292589 
L 310.165509 47.292589 
z
" style="fill:#1f77b4;"/>
   </g>
   <g id="patch_140">
    <path clip-path="url(#p01a6c0145d)" d="M 312.34388 98.776182 
L 314.522251 98.776182 
L 314.522251 3.800169 
L 312.34388 3.800169 
z
" style="fill:#1f77b4;"/>
   </g>
   <g id="patch_141">
    <path clip-path="url(#p01a6c0145d)" d="M 314.522251 98.776182 
L 316.700621 98.776182 
L 316.700621 47.672687 
L 314.522251 47.672687 
z
" style="fill:#1f77b4;"/>
   </g>
   <g id="patch_142">
    <path clip-path="url(#p01a6c0145d)" d="M 316.700621 98.776182 
L 318.878992 98.776182 
L 318.878992 48.349683 
L 316.700621 48.349683 
z
" style="fill:#1f77b4;"/>
   </g>
   <g id="patch_143">
    <path clip-path="url(#p01a6c0145d)" d="M 318.878992 98.776182 
L 321.057363 98.776182 
L 321.057363 33.022965 
L 318.878992 33.022965 
z
" style="fill:#1f77b4;"/>
   </g>
   <g id="patch_144">
    <path clip-path="url(#p01a6c0145d)" d="M 321.057363 98.776182 
L 323.235733 98.776182 
L 323.235733 3.800169 
L 321.057363 3.800169 
z
" style="fill:#1f77b4;"/>
   </g>
   <g id="patch_145">
    <path clip-path="url(#p01a6c0145d)" d="M 323.235733 98.776182 
L 325.414104 98.776182 
L 325.414104 45.656326 
L 323.235733 45.656326 
z
" style="fill:#1f77b4;"/>
   </g>
   <g id="patch_146">
    <path clip-path="url(#p01a6c0145d)" d="M 325.414104 98.776182 
L 327.592475 98.776182 
L 327.592475 31.68588 
L 325.414104 31.68588 
z
" style="fill:#1f77b4;"/>
   </g>
   <g id="patch_147">
    <path clip-path="url(#p01a6c0145d)" d="M 327.592475 98.776182 
L 329.770846 98.776182 
L 329.770846 3.800169 
L 327.592475 3.800169 
z
" style="fill:#1f77b4;"/>
   </g>
   <g id="patch_148">
    <path clip-path="url(#p01a6c0145d)" d="M 329.770846 98.776182 
L 331.949216 98.776182 
L 331.949216 3.800169 
L 329.770846 3.800169 
z
" style="fill:#1f77b4;"/>
   </g>
   <g id="patch_149">
    <path clip-path="url(#p01a6c0145d)" d="M 331.949216 98.776182 
L 334.127587 98.776182 
L 334.127587 3.800169 
L 331.949216 3.800169 
z
" style="fill:#1f77b4;"/>
   </g>
   <g id="patch_150">
    <path clip-path="url(#p01a6c0145d)" d="M 334.127587 98.776182 
L 336.305958 98.776182 
L 336.305958 3.800169 
L 334.127587 3.800169 
z
" style="fill:#1f77b4;"/>
   </g>
   <g id="patch_151">
    <path clip-path="url(#p01a6c0145d)" d="M 336.305958 98.776182 
L 338.484328 98.776182 
L 338.484328 3.800169 
L 336.305958 3.800169 
z
" style="fill:#1f77b4;"/>
   </g>
   <g id="patch_152">
    <path clip-path="url(#p01a6c0145d)" d="M 338.484328 98.776182 
L 340.662699 98.776182 
L 340.662699 3.800169 
L 338.484328 3.800169 
z
" style="fill:#1f77b4;"/>
   </g>
   <g id="patch_153">
    <path clip-path="url(#p01a6c0145d)" d="M 340.662699 98.776182 
L 342.84107 98.776182 
L 342.84107 3.800169 
L 340.662699 3.800169 
z
" style="fill:#1f77b4;"/>
   </g>
   <g id="patch_154">
    <path clip-path="url(#p01a6c0145d)" d="M 342.84107 98.776182 
L 345.019441 98.776182 
L 345.019441 3.800169 
L 342.84107 3.800169 
z
" style="fill:#1f77b4;"/>
   </g>
   <g id="patch_155">
    <path clip-path="url(#p01a6c0145d)" d="M 345.019441 98.776182 
L 347.197811 98.776182 
L 347.197811 3.800169 
L 345.019441 3.800169 
z
" style="fill:#1f77b4;"/>
   </g>
   <g id="patch_156">
    <path clip-path="url(#p01a6c0145d)" d="M 347.197811 98.776182 
L 349.376182 98.776182 
L 349.376182 3.800169 
L 347.197811 3.800169 
z
" style="fill:#1f77b4;"/>
   </g>
   <g id="patch_157">
    <path clip-path="url(#p01a6c0145d)" d="M 349.376182 98.776182 
L 351.554553 98.776182 
L 351.554553 3.800169 
L 349.376182 3.800169 
z
" style="fill:#1f77b4;"/>
   </g>
   <g id="patch_158">
    <path clip-path="url(#p01a6c0145d)" d="M 351.554553 98.776182 
L 353.732923 98.776182 
L 353.732923 3.800169 
L 351.554553 3.800169 
z
" style="fill:#1f77b4;"/>
   </g>
   <g id="patch_159">
    <path clip-path="url(#p01a6c0145d)" d="M 353.732923 98.776182 
L 355.911294 98.776182 
L 355.911294 3.800169 
L 353.732923 3.800169 
z
" style="fill:#1f77b4;"/>
   </g>
   <g id="patch_160">
    <path clip-path="url(#p01a6c0145d)" d="M 355.911294 98.776182 
L 358.089665 98.776182 
L 358.089665 3.800169 
L 355.911294 3.800169 
z
" style="fill:#1f77b4;"/>
   </g>
   <g id="patch_161">
    <path clip-path="url(#p01a6c0145d)" d="M 358.089665 98.776182 
L 360.268035 98.776182 
L 360.268035 3.800169 
L 358.089665 3.800169 
z
" style="fill:#1f77b4;"/>
   </g>
   <g id="patch_162">
    <path clip-path="url(#p01a6c0145d)" d="M 360.268035 98.776182 
L 362.446406 98.776182 
L 362.446406 3.800169 
L 360.268035 3.800169 
z
" style="fill:#1f77b4;"/>
   </g>
   <g id="patch_163">
    <path clip-path="url(#p01a6c0145d)" d="M 362.446406 98.776182 
L 364.624777 98.776182 
L 364.624777 3.800169 
L 362.446406 3.800169 
z
" style="fill:#1f77b4;"/>
   </g>
   <g id="patch_164">
    <path clip-path="url(#p01a6c0145d)" d="M 364.624777 98.776182 
L 366.803148 98.776182 
L 366.803148 3.800169 
L 364.624777 3.800169 
z
" style="fill:#1f77b4;"/>
   </g>
   <g id="patch_165">
    <path clip-path="url(#p01a6c0145d)" d="M 366.803148 98.776182 
L 368.981518 98.776182 
L 368.981518 3.800169 
L 366.803148 3.800169 
z
" style="fill:#1f77b4;"/>
   </g>
   <g id="patch_166">
    <path clip-path="url(#p01a6c0145d)" d="M 368.981518 98.776182 
L 371.159889 98.776182 
L 371.159889 3.800169 
L 368.981518 3.800169 
z
" style="fill:#1f77b4;"/>
   </g>
   <g id="patch_167">
    <path clip-path="url(#p01a6c0145d)" d="M 371.159889 98.776182 
L 373.33826 98.776182 
L 373.33826 3.800169 
L 371.159889 3.800169 
z
" style="fill:#1f77b4;"/>
   </g>
   <g id="patch_168">
    <path clip-path="url(#p01a6c0145d)" d="M 373.33826 98.776182 
L 375.51663 98.776182 
L 375.51663 3.800169 
L 373.33826 3.800169 
z
" style="fill:#1f77b4;"/>
   </g>
   <g id="patch_169">
    <path clip-path="url(#p01a6c0145d)" d="M 375.51663 98.776182 
L 377.695001 98.776182 
L 377.695001 3.800169 
L 375.51663 3.800169 
z
" style="fill:#1f77b4;"/>
   </g>
   <g id="patch_170">
    <path clip-path="url(#p01a6c0145d)" d="M 377.695001 98.776182 
L 379.873372 98.776182 
L 379.873372 3.800169 
L 377.695001 3.800169 
z
" style="fill:#1f77b4;"/>
   </g>
   <g id="patch_171">
    <path clip-path="url(#p01a6c0145d)" d="M 379.873372 98.776182 
L 382.051743 98.776182 
L 382.051743 3.800169 
L 379.873372 3.800169 
z
" style="fill:#1f77b4;"/>
   </g>
   <g id="patch_172">
    <path clip-path="url(#p01a6c0145d)" d="M 382.051743 98.776182 
L 384.230113 98.776182 
L 384.230113 3.800169 
L 382.051743 3.800169 
z
" style="fill:#1f77b4;"/>
   </g>
   <g id="patch_173">
    <path clip-path="url(#p01a6c0145d)" d="M 384.230113 98.776182 
L 386.408484 98.776182 
L 386.408484 3.800169 
L 384.230113 3.800169 
z
" style="fill:#1f77b4;"/>
   </g>
   <g id="patch_174">
    <path clip-path="url(#p01a6c0145d)" d="M 386.408484 98.776182 
L 388.586855 98.776182 
L 388.586855 3.800169 
L 386.408484 3.800169 
z
" style="fill:#1f77b4;"/>
   </g>
   <g id="patch_175">
    <path clip-path="url(#p01a6c0145d)" d="M 388.586855 98.776182 
L 390.765225 98.776182 
L 390.765225 3.800169 
L 388.586855 3.800169 
z
" style="fill:#1f77b4;"/>
   </g>
   <g id="patch_176">
    <path clip-path="url(#p01a6c0145d)" d="M 390.765225 98.776182 
L 392.943596 98.776182 
L 392.943596 3.800169 
L 390.765225 3.800169 
z
" style="fill:#1f77b4;"/>
   </g>
   <g id="patch_177">
    <path clip-path="url(#p01a6c0145d)" d="M 392.943596 98.776182 
L 395.121967 98.776182 
L 395.121967 3.800169 
L 392.943596 3.800169 
z
" style="fill:#1f77b4;"/>
   </g>
   <g id="patch_178">
    <path clip-path="url(#p01a6c0145d)" d="M 395.121967 98.776182 
L 397.300338 98.776182 
L 397.300338 3.800169 
L 395.121967 3.800169 
z
" style="fill:#1f77b4;"/>
   </g>
   <g id="patch_179">
    <path clip-path="url(#p01a6c0145d)" d="M 397.300338 98.776182 
L 399.478708 98.776182 
L 399.478708 3.800169 
L 397.300338 3.800169 
z
" style="fill:#1f77b4;"/>
   </g>
   <g id="patch_180">
    <path clip-path="url(#p01a6c0145d)" d="M 399.478708 98.776182 
L 401.657079 98.776182 
L 401.657079 3.800169 
L 399.478708 3.800169 
z
" style="fill:#1f77b4;"/>
   </g>
   <g id="patch_181">
    <path clip-path="url(#p01a6c0145d)" d="M 401.657079 98.776182 
L 403.83545 98.776182 
L 403.83545 3.800169 
L 401.657079 3.800169 
z
" style="fill:#1f77b4;"/>
   </g>
   <g id="patch_182">
    <path clip-path="url(#p01a6c0145d)" d="M 403.83545 98.776182 
L 406.01382 98.776182 
L 406.01382 3.800169 
L 403.83545 3.800169 
z
" style="fill:#1f77b4;"/>
   </g>
   <g id="patch_183">
    <path clip-path="url(#p01a6c0145d)" d="M 406.01382 98.776182 
L 408.192191 98.776182 
L 408.192191 3.800169 
L 406.01382 3.800169 
z
" style="fill:#1f77b4;"/>
   </g>
   <g id="patch_184">
    <path clip-path="url(#p01a6c0145d)" d="M 408.192191 98.776182 
L 410.370562 98.776182 
L 410.370562 3.800169 
L 408.192191 3.800169 
z
" style="fill:#1f77b4;"/>
   </g>
   <g id="patch_185">
    <path clip-path="url(#p01a6c0145d)" d="M 410.370562 98.776182 
L 412.548932 98.776182 
L 412.548932 3.800169 
L 410.370562 3.800169 
z
" style="fill:#1f77b4;"/>
   </g>
   <g id="patch_186">
    <path clip-path="url(#p01a6c0145d)" d="M 412.548932 98.776182 
L 414.727303 98.776182 
L 414.727303 3.800169 
L 412.548932 3.800169 
z
" style="fill:#1f77b4;"/>
   </g>
   <g id="patch_187">
    <path clip-path="url(#p01a6c0145d)" d="M 414.727303 98.776182 
L 416.905674 98.776182 
L 416.905674 3.800169 
L 414.727303 3.800169 
z
" style="fill:#1f77b4;"/>
   </g>
   <g id="patch_188">
    <path clip-path="url(#p01a6c0145d)" d="M 416.905674 98.776182 
L 419.084045 98.776182 
L 419.084045 3.800169 
L 416.905674 3.800169 
z
" style="fill:#1f77b4;"/>
   </g>
   <g id="patch_189">
    <path clip-path="url(#p01a6c0145d)" d="M 419.084045 98.776182 
L 421.262415 98.776182 
L 421.262415 3.800169 
L 419.084045 3.800169 
z
" style="fill:#1f77b4;"/>
   </g>
   <g id="patch_190">
    <path clip-path="url(#p01a6c0145d)" d="M 421.262415 98.776182 
L 423.440786 98.776182 
L 423.440786 3.800169 
L 421.262415 3.800169 
z
" style="fill:#1f77b4;"/>
   </g>
   <g id="patch_191">
    <path clip-path="url(#p01a6c0145d)" d="M 423.440786 98.776182 
L 425.619157 98.776182 
L 425.619157 3.800169 
L 423.440786 3.800169 
z
" style="fill:#1f77b4;"/>
   </g>
   <g id="patch_192">
    <path clip-path="url(#p01a6c0145d)" d="M 425.619157 98.776182 
L 427.797527 98.776182 
L 427.797527 3.800169 
L 425.619157 3.800169 
z
" style="fill:#1f77b4;"/>
   </g>
   <g id="patch_193">
    <path clip-path="url(#p01a6c0145d)" d="M 427.797527 98.776182 
L 429.975898 98.776182 
L 429.975898 3.800169 
L 427.797527 3.800169 
z
" style="fill:#1f77b4;"/>
   </g>
   <g id="patch_194">
    <path clip-path="url(#p01a6c0145d)" d="M 429.975898 98.776182 
L 432.154269 98.776182 
L 432.154269 3.800169 
L 429.975898 3.800169 
z
" style="fill:#1f77b4;"/>
   </g>
   <g id="patch_195">
    <path clip-path="url(#p01a6c0145d)" d="M 432.154269 98.776182 
L 434.33264 98.776182 
L 434.33264 3.800169 
L 432.154269 3.800169 
z
" style="fill:#1f77b4;"/>
   </g>
   <g id="patch_196">
    <path clip-path="url(#p01a6c0145d)" d="M 434.33264 98.776182 
L 436.51101 98.776182 
L 436.51101 3.800169 
L 434.33264 3.800169 
z
" style="fill:#1f77b4;"/>
   </g>
   <g id="patch_197">
    <path clip-path="url(#p01a6c0145d)" d="M 436.51101 98.776182 
L 438.689381 98.776182 
L 438.689381 3.800169 
L 436.51101 3.800169 
z
" style="fill:#1f77b4;"/>
   </g>
   <g id="patch_198">
    <path clip-path="url(#p01a6c0145d)" d="M 438.689381 98.776182 
L 440.867752 98.776182 
L 440.867752 3.800169 
L 438.689381 3.800169 
z
" style="fill:#1f77b4;"/>
   </g>
   <g id="patch_199">
    <path clip-path="url(#p01a6c0145d)" d="M 440.867752 98.776182 
L 443.046122 98.776182 
L 443.046122 3.800169 
L 440.867752 3.800169 
z
" style="fill:#1f77b4;"/>
   </g>
   <g id="patch_200">
    <path clip-path="url(#p01a6c0145d)" d="M 443.046122 98.776182 
L 445.224493 98.776182 
L 445.224493 3.800169 
L 443.046122 3.800169 
z
" style="fill:#1f77b4;"/>
   </g>
   <g id="patch_201">
    <path clip-path="url(#p01a6c0145d)" d="M 445.224493 98.776182 
L 447.402864 98.776182 
L 447.402864 3.800169 
L 445.224493 3.800169 
z
" style="fill:#1f77b4;"/>
   </g>
   <g id="patch_202">
    <path clip-path="url(#p01a6c0145d)" d="M 447.402864 98.776182 
L 449.581235 98.776182 
L 449.581235 3.800169 
L 447.402864 3.800169 
z
" style="fill:#1f77b4;"/>
   </g>
   <g id="patch_203">
    <path clip-path="url(#p01a6c0145d)" d="M 449.581235 98.776182 
L 451.759605 98.776182 
L 451.759605 3.800169 
L 449.581235 3.800169 
z
" style="fill:#1f77b4;"/>
   </g>
   <g id="patch_204">
    <path clip-path="url(#p01a6c0145d)" d="M 451.759605 98.776182 
L 453.937976 98.776182 
L 453.937976 3.800169 
L 451.759605 3.800169 
z
" style="fill:#1f77b4;"/>
   </g>
   <g id="patch_205">
    <path clip-path="url(#p01a6c0145d)" d="M 453.937976 98.776182 
L 456.116347 98.776182 
L 456.116347 3.800169 
L 453.937976 3.800169 
z
" style="fill:#1f77b4;"/>
   </g>
   <g id="patch_206">
    <path clip-path="url(#p01a6c0145d)" d="M 456.116347 98.776182 
L 458.294717 98.776182 
L 458.294717 3.800169 
L 456.116347 3.800169 
z
" style="fill:#1f77b4;"/>
   </g>
   <g id="patch_207">
    <path clip-path="url(#p01a6c0145d)" d="M 458.294717 98.776182 
L 460.473088 98.776182 
L 460.473088 3.800169 
L 458.294717 3.800169 
z
" style="fill:#1f77b4;"/>
   </g>
   <g id="patch_208">
    <path clip-path="url(#p01a6c0145d)" d="M 460.473088 98.776182 
L 462.651459 98.776182 
L 462.651459 3.800169 
L 460.473088 3.800169 
z
" style="fill:#1f77b4;"/>
   </g>
   <g id="patch_209">
    <path clip-path="url(#p01a6c0145d)" d="M 462.651459 98.776182 
L 464.82983 98.776182 
L 464.82983 3.800169 
L 462.651459 3.800169 
z
" style="fill:#1f77b4;"/>
   </g>
   <g id="patch_210">
    <path clip-path="url(#p01a6c0145d)" d="M 464.82983 98.776182 
L 467.0082 98.776182 
L 467.0082 3.800169 
L 464.82983 3.800169 
z
" style="fill:#1f77b4;"/>
   </g>
   <g id="patch_211">
    <path clip-path="url(#p01a6c0145d)" d="M 467.0082 98.776182 
L 469.186571 98.776182 
L 469.186571 3.800169 
L 467.0082 3.800169 
z
" style="fill:#1f77b4;"/>
   </g>
   <g id="patch_212">
    <path clip-path="url(#p01a6c0145d)" d="M 469.186571 98.776182 
L 471.364942 98.776182 
L 471.364942 3.800169 
L 469.186571 3.800169 
z
" style="fill:#1f77b4;"/>
   </g>
   <g id="patch_213">
    <path clip-path="url(#p01a6c0145d)" d="M 471.364942 98.776182 
L 473.543312 98.776182 
L 473.543312 3.800169 
L 471.364942 3.800169 
z
" style="fill:#1f77b4;"/>
   </g>
   <g id="patch_214">
    <path clip-path="url(#p01a6c0145d)" d="M 473.543312 98.776182 
L 475.721683 98.776182 
L 475.721683 3.800169 
L 473.543312 3.800169 
z
" style="fill:#1f77b4;"/>
   </g>
   <g id="patch_215">
    <path clip-path="url(#p01a6c0145d)" d="M 475.721683 98.776182 
L 477.900054 98.776182 
L 477.900054 3.800169 
L 475.721683 3.800169 
z
" style="fill:#1f77b4;"/>
   </g>
   <g id="patch_216">
    <path clip-path="url(#p01a6c0145d)" d="M 477.900054 98.776182 
L 480.078424 98.776182 
L 480.078424 3.800169 
L 477.900054 3.800169 
z
" style="fill:#1f77b4;"/>
   </g>
   <g id="patch_217">
    <path clip-path="url(#p01a6c0145d)" d="M 480.078424 98.776182 
L 482.256795 98.776182 
L 482.256795 3.800169 
L 480.078424 3.800169 
z
" style="fill:#1f77b4;"/>
   </g>
   <g id="patch_218">
    <path clip-path="url(#p01a6c0145d)" d="M 482.256795 98.776182 
L 484.435166 98.776182 
L 484.435166 3.800169 
L 482.256795 3.800169 
z
" style="fill:#1f77b4;"/>
   </g>
   <g id="patch_219">
    <path clip-path="url(#p01a6c0145d)" d="M 484.435166 98.776182 
L 486.613537 98.776182 
L 486.613537 3.800169 
L 484.435166 3.800169 
z
" style="fill:#1f77b4;"/>
   </g>
   <g id="patch_220">
    <path clip-path="url(#p01a6c0145d)" d="M 486.613537 98.776182 
L 488.791907 98.776182 
L 488.791907 3.800169 
L 486.613537 3.800169 
z
" style="fill:#1f77b4;"/>
   </g>
   <g id="patch_221">
    <path clip-path="url(#p01a6c0145d)" d="M 13.907093 98.775232 
L 16.085463 98.775232 
L 16.085463 3.799219 
L 13.907093 3.799219 
z
" style="fill:#ff7f0e;"/>
   </g>
   <g id="patch_222">
    <path clip-path="url(#p01a6c0145d)" d="M 16.085463 98.775232 
L 18.263834 98.775232 
L 18.263834 3.799219 
L 16.085463 3.799219 
z
" style="fill:#ff7f0e;"/>
   </g>
   <g id="patch_223">
    <path clip-path="url(#p01a6c0145d)" d="M 18.263834 98.775232 
L 20.442205 98.775232 
L 20.442205 3.799219 
L 18.263834 3.799219 
z
" style="fill:#ff7f0e;"/>
   </g>
   <g id="patch_224">
    <path clip-path="url(#p01a6c0145d)" d="M 20.442205 98.775232 
L 22.620576 98.775232 
L 22.620576 3.799219 
L 20.442205 3.799219 
z
" style="fill:#ff7f0e;"/>
   </g>
   <g id="patch_225">
    <path clip-path="url(#p01a6c0145d)" d="M 22.620576 98.775232 
L 24.798946 98.775232 
L 24.798946 3.799219 
L 22.620576 3.799219 
z
" style="fill:#ff7f0e;"/>
   </g>
   <g id="patch_226">
    <path clip-path="url(#p01a6c0145d)" d="M 24.798946 98.775232 
L 26.977317 98.775232 
L 26.977317 3.799219 
L 24.798946 3.799219 
z
" style="fill:#ff7f0e;"/>
   </g>
   <g id="patch_227">
    <path clip-path="url(#p01a6c0145d)" d="M 26.977317 98.775232 
L 29.155688 98.775232 
L 29.155688 3.799219 
L 26.977317 3.799219 
z
" style="fill:#ff7f0e;"/>
   </g>
   <g id="patch_228">
    <path clip-path="url(#p01a6c0145d)" d="M 29.155688 98.775232 
L 31.334058 98.775232 
L 31.334058 3.799219 
L 29.155688 3.799219 
z
" style="fill:#ff7f0e;"/>
   </g>
   <g id="patch_229">
    <path clip-path="url(#p01a6c0145d)" d="M 31.334058 98.775232 
L 33.512429 98.775232 
L 33.512429 3.799219 
L 31.334058 3.799219 
z
" style="fill:#ff7f0e;"/>
   </g>
   <g id="patch_230">
    <path clip-path="url(#p01a6c0145d)" d="M 33.512429 98.775232 
L 35.6908 98.775232 
L 35.6908 3.799219 
L 33.512429 3.799219 
z
" style="fill:#ff7f0e;"/>
   </g>
   <g id="patch_231">
    <path clip-path="url(#p01a6c0145d)" d="M 35.6908 98.775232 
L 37.86917 98.775232 
L 37.86917 3.799219 
L 35.6908 3.799219 
z
" style="fill:#ff7f0e;"/>
   </g>
   <g id="patch_232">
    <path clip-path="url(#p01a6c0145d)" d="M 37.86917 98.775232 
L 40.047541 98.775232 
L 40.047541 3.799219 
L 37.86917 3.799219 
z
" style="fill:#ff7f0e;"/>
   </g>
   <g id="patch_233">
    <path clip-path="url(#p01a6c0145d)" d="M 40.047541 98.775232 
L 42.225912 98.775232 
L 42.225912 3.799219 
L 40.047541 3.799219 
z
" style="fill:#ff7f0e;"/>
   </g>
   <g id="patch_234">
    <path clip-path="url(#p01a6c0145d)" d="M 42.225912 98.775232 
L 44.404283 98.775232 
L 44.404283 3.799219 
L 42.225912 3.799219 
z
" style="fill:#ff7f0e;"/>
   </g>
   <g id="patch_235">
    <path clip-path="url(#p01a6c0145d)" d="M 44.404283 98.775232 
L 46.582653 98.775232 
L 46.582653 3.799219 
L 44.404283 3.799219 
z
" style="fill:#ff7f0e;"/>
   </g>
   <g id="patch_236">
    <path clip-path="url(#p01a6c0145d)" d="M 46.582653 98.775232 
L 48.761024 98.775232 
L 48.761024 3.799219 
L 46.582653 3.799219 
z
" style="fill:#ff7f0e;"/>
   </g>
   <g id="patch_237">
    <path clip-path="url(#p01a6c0145d)" d="M 48.761024 98.775232 
L 50.939395 98.775232 
L 50.939395 3.799219 
L 48.761024 3.799219 
z
" style="fill:#ff7f0e;"/>
   </g>
   <g id="patch_238">
    <path clip-path="url(#p01a6c0145d)" d="M 50.939395 98.775232 
L 53.117765 98.775232 
L 53.117765 3.799219 
L 50.939395 3.799219 
z
" style="fill:#ff7f0e;"/>
   </g>
   <g id="patch_239">
    <path clip-path="url(#p01a6c0145d)" d="M 53.117765 98.775232 
L 55.296136 98.775232 
L 55.296136 3.799219 
L 53.117765 3.799219 
z
" style="fill:#ff7f0e;"/>
   </g>
   <g id="patch_240">
    <path clip-path="url(#p01a6c0145d)" d="M 55.296136 98.775232 
L 57.474507 98.775232 
L 57.474507 3.799219 
L 55.296136 3.799219 
z
" style="fill:#ff7f0e;"/>
   </g>
   <g id="patch_241">
    <path clip-path="url(#p01a6c0145d)" d="M 57.474507 98.775232 
L 59.652878 98.775232 
L 59.652878 3.799219 
L 57.474507 3.799219 
z
" style="fill:#ff7f0e;"/>
   </g>
   <g id="patch_242">
    <path clip-path="url(#p01a6c0145d)" d="M 59.652878 98.775232 
L 61.831248 98.775232 
L 61.831248 3.799219 
L 59.652878 3.799219 
z
" style="fill:#ff7f0e;"/>
   </g>
   <g id="patch_243">
    <path clip-path="url(#p01a6c0145d)" d="M 61.831248 98.775232 
L 64.009619 98.775232 
L 64.009619 3.799219 
L 61.831248 3.799219 
z
" style="fill:#ff7f0e;"/>
   </g>
   <g id="patch_244">
    <path clip-path="url(#p01a6c0145d)" d="M 64.009619 98.775232 
L 66.18799 98.775232 
L 66.18799 3.799219 
L 64.009619 3.799219 
z
" style="fill:#ff7f0e;"/>
   </g>
   <g id="patch_245">
    <path clip-path="url(#p01a6c0145d)" d="M 66.18799 98.775232 
L 68.36636 98.775232 
L 68.36636 3.799219 
L 66.18799 3.799219 
z
" style="fill:#ff7f0e;"/>
   </g>
   <g id="patch_246">
    <path clip-path="url(#p01a6c0145d)" d="M 68.36636 98.775232 
L 70.544731 98.775232 
L 70.544731 3.799219 
L 68.36636 3.799219 
z
" style="fill:#ff7f0e;"/>
   </g>
   <g id="patch_247">
    <path clip-path="url(#p01a6c0145d)" d="M 70.544731 98.775232 
L 72.723102 98.775232 
L 72.723102 3.799219 
L 70.544731 3.799219 
z
" style="fill:#ff7f0e;"/>
   </g>
   <g id="patch_248">
    <path clip-path="url(#p01a6c0145d)" d="M 72.723102 98.775232 
L 74.901473 98.775232 
L 74.901473 3.799219 
L 72.723102 3.799219 
z
" style="fill:#ff7f0e;"/>
   </g>
   <g id="patch_249">
    <path clip-path="url(#p01a6c0145d)" d="M 74.901473 98.775232 
L 77.079843 98.775232 
L 77.079843 3.799219 
L 74.901473 3.799219 
z
" style="fill:#ff7f0e;"/>
   </g>
   <g id="patch_250">
    <path clip-path="url(#p01a6c0145d)" d="M 77.079843 98.775232 
L 79.258214 98.775232 
L 79.258214 3.799219 
L 77.079843 3.799219 
z
" style="fill:#ff7f0e;"/>
   </g>
   <g id="patch_251">
    <path clip-path="url(#p01a6c0145d)" d="M 79.258214 98.775232 
L 81.436585 98.775232 
L 81.436585 3.799219 
L 79.258214 3.799219 
z
" style="fill:#ff7f0e;"/>
   </g>
   <g id="patch_252">
    <path clip-path="url(#p01a6c0145d)" d="M 81.436585 98.775232 
L 83.614955 98.775232 
L 83.614955 3.799219 
L 81.436585 3.799219 
z
" style="fill:#ff7f0e;"/>
   </g>
   <g id="patch_253">
    <path clip-path="url(#p01a6c0145d)" d="M 83.614955 98.775232 
L 85.793326 98.775232 
L 85.793326 3.799219 
L 83.614955 3.799219 
z
" style="fill:#ff7f0e;"/>
   </g>
   <g id="patch_254">
    <path clip-path="url(#p01a6c0145d)" d="M 85.793326 98.775232 
L 87.971697 98.775232 
L 87.971697 3.799219 
L 85.793326 3.799219 
z
" style="fill:#ff7f0e;"/>
   </g>
   <g id="patch_255">
    <path clip-path="url(#p01a6c0145d)" d="M 87.971697 98.775232 
L 90.150068 98.775232 
L 90.150068 3.799219 
L 87.971697 3.799219 
z
" style="fill:#ff7f0e;"/>
   </g>
   <g id="patch_256">
    <path clip-path="url(#p01a6c0145d)" d="M 90.150068 98.775232 
L 92.328438 98.775232 
L 92.328438 3.799219 
L 90.150068 3.799219 
z
" style="fill:#ff7f0e;"/>
   </g>
   <g id="patch_257">
    <path clip-path="url(#p01a6c0145d)" d="M 92.328438 98.775232 
L 94.506809 98.775232 
L 94.506809 3.799219 
L 92.328438 3.799219 
z
" style="fill:#ff7f0e;"/>
   </g>
   <g id="patch_258">
    <path clip-path="url(#p01a6c0145d)" d="M 94.506809 98.775232 
L 96.68518 98.775232 
L 96.68518 3.799219 
L 94.506809 3.799219 
z
" style="fill:#ff7f0e;"/>
   </g>
   <g id="patch_259">
    <path clip-path="url(#p01a6c0145d)" d="M 96.68518 98.775232 
L 98.86355 98.775232 
L 98.86355 3.799219 
L 96.68518 3.799219 
z
" style="fill:#ff7f0e;"/>
   </g>
   <g id="patch_260">
    <path clip-path="url(#p01a6c0145d)" d="M 98.86355 98.775232 
L 101.041921 98.775232 
L 101.041921 3.799219 
L 98.86355 3.799219 
z
" style="fill:#ff7f0e;"/>
   </g>
   <g id="patch_261">
    <path clip-path="url(#p01a6c0145d)" d="M 101.041921 98.775232 
L 103.220292 98.775232 
L 103.220292 3.799219 
L 101.041921 3.799219 
z
" style="fill:#ff7f0e;"/>
   </g>
   <g id="patch_262">
    <path clip-path="url(#p01a6c0145d)" d="M 103.220292 98.775232 
L 105.398662 98.775232 
L 105.398662 3.799219 
L 103.220292 3.799219 
z
" style="fill:#ff7f0e;"/>
   </g>
   <g id="patch_263">
    <path clip-path="url(#p01a6c0145d)" d="M 105.398662 98.775232 
L 107.577033 98.775232 
L 107.577033 3.799219 
L 105.398662 3.799219 
z
" style="fill:#ff7f0e;"/>
   </g>
   <g id="patch_264">
    <path clip-path="url(#p01a6c0145d)" d="M 107.577033 98.775232 
L 109.755404 98.775232 
L 109.755404 3.799219 
L 107.577033 3.799219 
z
" style="fill:#ff7f0e;"/>
   </g>
   <g id="patch_265">
    <path clip-path="url(#p01a6c0145d)" d="M 109.755404 98.775232 
L 111.933775 98.775232 
L 111.933775 3.799219 
L 109.755404 3.799219 
z
" style="fill:#ff7f0e;"/>
   </g>
   <g id="patch_266">
    <path clip-path="url(#p01a6c0145d)" d="M 111.933775 98.775232 
L 114.112145 98.775232 
L 114.112145 3.799219 
L 111.933775 3.799219 
z
" style="fill:#ff7f0e;"/>
   </g>
   <g id="patch_267">
    <path clip-path="url(#p01a6c0145d)" d="M 114.112145 98.775232 
L 116.290516 98.775232 
L 116.290516 3.799219 
L 114.112145 3.799219 
z
" style="fill:#ff7f0e;"/>
   </g>
   <g id="patch_268">
    <path clip-path="url(#p01a6c0145d)" d="M 116.290516 98.775232 
L 118.468887 98.775232 
L 118.468887 3.799219 
L 116.290516 3.799219 
z
" style="fill:#ff7f0e;"/>
   </g>
   <g id="patch_269">
    <path clip-path="url(#p01a6c0145d)" d="M 118.468887 78.772229 
L 120.647257 78.772229 
L 120.647257 3.799219 
L 118.468887 3.799219 
z
" style="fill:#ff7f0e;"/>
   </g>
   <g id="patch_270">
    <path clip-path="url(#p01a6c0145d)" d="M 120.647257 74.516596 
L 122.825628 74.516596 
L 122.825628 3.799219 
L 120.647257 3.799219 
z
" style="fill:#ff7f0e;"/>
   </g>
   <g id="patch_271">
    <path clip-path="url(#p01a6c0145d)" d="M 122.825628 98.775232 
L 125.003999 98.775232 
L 125.003999 3.799219 
L 122.825628 3.799219 
z
" style="fill:#ff7f0e;"/>
   </g>
   <g id="patch_272">
    <path clip-path="url(#p01a6c0145d)" d="M 125.003999 98.775232 
L 127.18237 98.775232 
L 127.18237 3.799219 
L 125.003999 3.799219 
z
" style="fill:#ff7f0e;"/>
   </g>
   <g id="patch_273">
    <path clip-path="url(#p01a6c0145d)" d="M 127.18237 98.775232 
L 129.36074 98.775232 
L 129.36074 3.799219 
L 127.18237 3.799219 
z
" style="fill:#ff7f0e;"/>
   </g>
   <g id="patch_274">
    <path clip-path="url(#p01a6c0145d)" d="M 129.36074 98.775232 
L 131.539111 98.775232 
L 131.539111 3.799219 
L 129.36074 3.799219 
z
" style="fill:#ff7f0e;"/>
   </g>
   <g id="patch_275">
    <path clip-path="url(#p01a6c0145d)" d="M 131.539111 98.775232 
L 133.717482 98.775232 
L 133.717482 3.799219 
L 131.539111 3.799219 
z
" style="fill:#ff7f0e;"/>
   </g>
   <g id="patch_276">
    <path clip-path="url(#p01a6c0145d)" d="M 133.717482 98.775232 
L 135.895852 98.775232 
L 135.895852 3.799219 
L 133.717482 3.799219 
z
" style="fill:#ff7f0e;"/>
   </g>
   <g id="patch_277">
    <path clip-path="url(#p01a6c0145d)" d="M 135.895852 98.775232 
L 138.074223 98.775232 
L 138.074223 3.799219 
L 135.895852 3.799219 
z
" style="fill:#ff7f0e;"/>
   </g>
   <g id="patch_278">
    <path clip-path="url(#p01a6c0145d)" d="M 138.074223 98.775232 
L 140.252594 98.775232 
L 140.252594 3.799219 
L 138.074223 3.799219 
z
" style="fill:#ff7f0e;"/>
   </g>
   <g id="patch_279">
    <path clip-path="url(#p01a6c0145d)" d="M 140.252594 98.775232 
L 142.430965 98.775232 
L 142.430965 3.799219 
L 140.252594 3.799219 
z
" style="fill:#ff7f0e;"/>
   </g>
   <g id="patch_280">
    <path clip-path="url(#p01a6c0145d)" d="M 142.430965 98.775232 
L 144.609335 98.775232 
L 144.609335 3.799219 
L 142.430965 3.799219 
z
" style="fill:#ff7f0e;"/>
   </g>
   <g id="patch_281">
    <path clip-path="url(#p01a6c0145d)" d="M 144.609335 98.775232 
L 146.787706 98.775232 
L 146.787706 3.799219 
L 144.609335 3.799219 
z
" style="fill:#ff7f0e;"/>
   </g>
   <g id="patch_282">
    <path clip-path="url(#p01a6c0145d)" d="M 146.787706 98.775232 
L 148.966077 98.775232 
L 148.966077 3.799219 
L 146.787706 3.799219 
z
" style="fill:#ff7f0e;"/>
   </g>
   <g id="patch_283">
    <path clip-path="url(#p01a6c0145d)" d="M 148.966077 98.775232 
L 151.144447 98.775232 
L 151.144447 3.799219 
L 148.966077 3.799219 
z
" style="fill:#ff7f0e;"/>
   </g>
   <g id="patch_284">
    <path clip-path="url(#p01a6c0145d)" d="M 151.144447 98.775232 
L 153.322818 98.775232 
L 153.322818 3.799219 
L 151.144447 3.799219 
z
" style="fill:#ff7f0e;"/>
   </g>
   <g id="patch_285">
    <path clip-path="url(#p01a6c0145d)" d="M 153.322818 98.775232 
L 155.501189 98.775232 
L 155.501189 3.799219 
L 153.322818 3.799219 
z
" style="fill:#ff7f0e;"/>
   </g>
   <g id="patch_286">
    <path clip-path="url(#p01a6c0145d)" d="M 155.501189 98.775232 
L 157.679559 98.775232 
L 157.679559 3.799219 
L 155.501189 3.799219 
z
" style="fill:#ff7f0e;"/>
   </g>
   <g id="patch_287">
    <path clip-path="url(#p01a6c0145d)" d="M 157.679559 98.775232 
L 159.85793 98.775232 
L 159.85793 3.799219 
L 157.679559 3.799219 
z
" style="fill:#ff7f0e;"/>
   </g>
   <g id="patch_288">
    <path clip-path="url(#p01a6c0145d)" d="M 159.85793 98.775232 
L 162.036301 98.775232 
L 162.036301 3.799219 
L 159.85793 3.799219 
z
" style="fill:#ff7f0e;"/>
   </g>
   <g id="patch_289">
    <path clip-path="url(#p01a6c0145d)" d="M 162.036301 53.324956 
L 164.214672 53.324956 
L 164.214672 3.799219 
L 162.036301 3.799219 
z
" style="fill:#ff7f0e;"/>
   </g>
   <g id="patch_290">
    <path clip-path="url(#p01a6c0145d)" d="M 164.214672 73.971998 
L 166.393042 73.971998 
L 166.393042 3.799219 
L 164.214672 3.799219 
z
" style="fill:#ff7f0e;"/>
   </g>
   <g id="patch_291">
    <path clip-path="url(#p01a6c0145d)" d="M 166.393042 98.775232 
L 168.571413 98.775232 
L 168.571413 3.799219 
L 166.393042 3.799219 
z
" style="fill:#ff7f0e;"/>
   </g>
   <g id="patch_292">
    <path clip-path="url(#p01a6c0145d)" d="M 168.571413 98.775232 
L 170.749784 98.775232 
L 170.749784 3.799219 
L 168.571413 3.799219 
z
" style="fill:#ff7f0e;"/>
   </g>
   <g id="patch_293">
    <path clip-path="url(#p01a6c0145d)" d="M 170.749784 98.775232 
L 172.928154 98.775232 
L 172.928154 3.799219 
L 170.749784 3.799219 
z
" style="fill:#ff7f0e;"/>
   </g>
   <g id="patch_294">
    <path clip-path="url(#p01a6c0145d)" d="M 172.928154 98.775232 
L 175.106525 98.775232 
L 175.106525 3.799219 
L 172.928154 3.799219 
z
" style="fill:#ff7f0e;"/>
   </g>
   <g id="patch_295">
    <path clip-path="url(#p01a6c0145d)" d="M 175.106525 98.775232 
L 177.284896 98.775232 
L 177.284896 3.799219 
L 175.106525 3.799219 
z
" style="fill:#ff7f0e;"/>
   </g>
   <g id="patch_296">
    <path clip-path="url(#p01a6c0145d)" d="M 177.284896 98.775232 
L 179.463267 98.775232 
L 179.463267 3.799219 
L 177.284896 3.799219 
z
" style="fill:#ff7f0e;"/>
   </g>
   <g id="patch_297">
    <path clip-path="url(#p01a6c0145d)" d="M 179.463267 98.775232 
L 181.641637 98.775232 
L 181.641637 3.799219 
L 179.463267 3.799219 
z
" style="fill:#ff7f0e;"/>
   </g>
   <g id="patch_298">
    <path clip-path="url(#p01a6c0145d)" d="M 181.641637 98.775232 
L 183.820008 98.775232 
L 183.820008 3.799219 
L 181.641637 3.799219 
z
" style="fill:#ff7f0e;"/>
   </g>
   <g id="patch_299">
    <path clip-path="url(#p01a6c0145d)" d="M 183.820008 78.336569 
L 185.998379 78.336569 
L 185.998379 3.799219 
L 183.820008 3.799219 
z
" style="fill:#ff7f0e;"/>
   </g>
   <g id="patch_300">
    <path clip-path="url(#p01a6c0145d)" d="M 185.998379 98.775232 
L 188.176749 98.775232 
L 188.176749 3.799219 
L 185.998379 3.799219 
z
" style="fill:#ff7f0e;"/>
   </g>
   <g id="patch_301">
    <path clip-path="url(#p01a6c0145d)" d="M 188.176749 98.775232 
L 190.35512 98.775232 
L 190.35512 3.799219 
L 188.176749 3.799219 
z
" style="fill:#ff7f0e;"/>
   </g>
   <g id="patch_302">
    <path clip-path="url(#p01a6c0145d)" d="M 190.35512 81.491039 
L 192.533491 81.491039 
L 192.533491 3.799219 
L 190.35512 3.799219 
z
" style="fill:#ff7f0e;"/>
   </g>
   <g id="patch_303">
    <path clip-path="url(#p01a6c0145d)" d="M 192.533491 98.775232 
L 194.711862 98.775232 
L 194.711862 3.799219 
L 192.533491 3.799219 
z
" style="fill:#ff7f0e;"/>
   </g>
   <g id="patch_304">
    <path clip-path="url(#p01a6c0145d)" d="M 194.711862 98.775232 
L 196.890232 98.775232 
L 196.890232 3.799219 
L 194.711862 3.799219 
z
" style="fill:#ff7f0e;"/>
   </g>
   <g id="patch_305">
    <path clip-path="url(#p01a6c0145d)" d="M 196.890232 98.775232 
L 199.068603 98.775232 
L 199.068603 3.799219 
L 196.890232 3.799219 
z
" style="fill:#ff7f0e;"/>
   </g>
   <g id="patch_306">
    <path clip-path="url(#p01a6c0145d)" d="M 199.068603 53.117526 
L 201.246974 53.117526 
L 201.246974 3.799219 
L 199.068603 3.799219 
z
" style="fill:#ff7f0e;"/>
   </g>
   <g id="patch_307">
    <path clip-path="url(#p01a6c0145d)" d="M 201.246974 70.819713 
L 203.425344 70.819713 
L 203.425344 3.799219 
L 201.246974 3.799219 
z
" style="fill:#ff7f0e;"/>
   </g>
   <g id="patch_308">
    <path clip-path="url(#p01a6c0145d)" d="M 203.425344 63.970259 
L 205.603715 63.970259 
L 205.603715 3.799219 
L 203.425344 3.799219 
z
" style="fill:#ff7f0e;"/>
   </g>
   <g id="patch_309">
    <path clip-path="url(#p01a6c0145d)" d="M 205.603715 98.775232 
L 207.782086 98.775232 
L 207.782086 3.799219 
L 205.603715 3.799219 
z
" style="fill:#ff7f0e;"/>
   </g>
   <g id="patch_310">
    <path clip-path="url(#p01a6c0145d)" d="M 207.782086 98.775232 
L 209.960457 98.775232 
L 209.960457 3.799219 
L 207.782086 3.799219 
z
" style="fill:#ff7f0e;"/>
   </g>
   <g id="patch_311">
    <path clip-path="url(#p01a6c0145d)" d="M 209.960457 98.775232 
L 212.138827 98.775232 
L 212.138827 3.799219 
L 209.960457 3.799219 
z
" style="fill:#ff7f0e;"/>
   </g>
   <g id="patch_312">
    <path clip-path="url(#p01a6c0145d)" d="M 212.138827 76.756533 
L 214.317198 76.756533 
L 214.317198 3.799219 
L 212.138827 3.799219 
z
" style="fill:#ff7f0e;"/>
   </g>
   <g id="patch_313">
    <path clip-path="url(#p01a6c0145d)" d="M 214.317198 98.775232 
L 216.495569 98.775232 
L 216.495569 3.799219 
L 214.317198 3.799219 
z
" style="fill:#ff7f0e;"/>
   </g>
   <g id="patch_314">
    <path clip-path="url(#p01a6c0145d)" d="M 216.495569 52.758988 
L 218.673939 52.758988 
L 218.673939 3.799219 
L 216.495569 3.799219 
z
" style="fill:#ff7f0e;"/>
   </g>
   <g id="patch_315">
    <path clip-path="url(#p01a6c0145d)" d="M 218.673939 98.775232 
L 220.85231 98.775232 
L 220.85231 3.799219 
L 218.673939 3.799219 
z
" style="fill:#ff7f0e;"/>
   </g>
   <g id="patch_316">
    <path clip-path="url(#p01a6c0145d)" d="M 220.85231 53.814752 
L 223.030681 53.814752 
L 223.030681 3.799219 
L 220.85231 3.799219 
z
" style="fill:#ff7f0e;"/>
   </g>
   <g id="patch_317">
    <path clip-path="url(#p01a6c0145d)" d="M 223.030681 98.775232 
L 225.209051 98.775232 
L 225.209051 3.799219 
L 223.030681 3.799219 
z
" style="fill:#ff7f0e;"/>
   </g>
   <g id="patch_318">
    <path clip-path="url(#p01a6c0145d)" d="M 225.209051 98.775232 
L 227.387422 98.775232 
L 227.387422 3.799219 
L 225.209051 3.799219 
z
" style="fill:#ff7f0e;"/>
   </g>
   <g id="patch_319">
    <path clip-path="url(#p01a6c0145d)" d="M 227.387422 62.08829 
L 229.565793 62.08829 
L 229.565793 3.799219 
L 227.387422 3.799219 
z
" style="fill:#ff7f0e;"/>
   </g>
   <g id="patch_320">
    <path clip-path="url(#p01a6c0145d)" d="M 229.565793 54.371317 
L 231.744164 54.371317 
L 231.744164 3.799219 
L 229.565793 3.799219 
z
" style="fill:#ff7f0e;"/>
   </g>
   <g id="patch_321">
    <path clip-path="url(#p01a6c0145d)" d="M 231.744164 98.775232 
L 233.922534 98.775232 
L 233.922534 3.799219 
L 231.744164 3.799219 
z
" style="fill:#ff7f0e;"/>
   </g>
   <g id="patch_322">
    <path clip-path="url(#p01a6c0145d)" d="M 233.922534 67.329309 
L 236.100905 67.329309 
L 236.100905 3.799219 
L 233.922534 3.799219 
z
" style="fill:#ff7f0e;"/>
   </g>
   <g id="patch_323">
    <path clip-path="url(#p01a6c0145d)" d="M 236.100905 69.473604 
L 238.279276 69.473604 
L 238.279276 3.799219 
L 236.100905 3.799219 
z
" style="fill:#ff7f0e;"/>
   </g>
   <g id="patch_324">
    <path clip-path="url(#p01a6c0145d)" d="M 238.279276 98.775232 
L 240.457646 98.775232 
L 240.457646 3.799219 
L 238.279276 3.799219 
z
" style="fill:#ff7f0e;"/>
   </g>
   <g id="patch_325">
    <path clip-path="url(#p01a6c0145d)" d="M 240.457646 98.775232 
L 242.636017 98.775232 
L 242.636017 3.799219 
L 240.457646 3.799219 
z
" style="fill:#ff7f0e;"/>
   </g>
   <g id="patch_326">
    <path clip-path="url(#p01a6c0145d)" d="M 242.636017 98.775232 
L 244.814388 98.775232 
L 244.814388 3.799219 
L 242.636017 3.799219 
z
" style="fill:#ff7f0e;"/>
   </g>
   <g id="patch_327">
    <path clip-path="url(#p01a6c0145d)" d="M 244.814388 53.588042 
L 246.992759 53.588042 
L 246.992759 3.799219 
L 244.814388 3.799219 
z
" style="fill:#ff7f0e;"/>
   </g>
   <g id="patch_328">
    <path clip-path="url(#p01a6c0145d)" d="M 246.992759 77.796245 
L 249.171129 77.796245 
L 249.171129 3.799219 
L 246.992759 3.799219 
z
" style="fill:#ff7f0e;"/>
   </g>
   <g id="patch_329">
    <path clip-path="url(#p01a6c0145d)" d="M 249.171129 98.775232 
L 251.3495 98.775232 
L 251.3495 3.799219 
L 249.171129 3.799219 
z
" style="fill:#ff7f0e;"/>
   </g>
   <g id="patch_330">
    <path clip-path="url(#p01a6c0145d)" d="M 251.3495 98.775232 
L 253.527871 98.775232 
L 253.527871 3.799219 
L 251.3495 3.799219 
z
" style="fill:#ff7f0e;"/>
   </g>
   <g id="patch_331">
    <path clip-path="url(#p01a6c0145d)" d="M 253.527871 98.775232 
L 255.706241 98.775232 
L 255.706241 3.799219 
L 253.527871 3.799219 
z
" style="fill:#ff7f0e;"/>
   </g>
   <g id="patch_332">
    <path clip-path="url(#p01a6c0145d)" d="M 255.706241 66.717278 
L 257.884612 66.717278 
L 257.884612 3.799219 
L 255.706241 3.799219 
z
" style="fill:#ff7f0e;"/>
   </g>
   <g id="patch_333">
    <path clip-path="url(#p01a6c0145d)" d="M 257.884612 78.226396 
L 260.062983 78.226396 
L 260.062983 3.799219 
L 257.884612 3.799219 
z
" style="fill:#ff7f0e;"/>
   </g>
   <g id="patch_334">
    <path clip-path="url(#p01a6c0145d)" d="M 260.062983 68.494392 
L 262.241354 68.494392 
L 262.241354 3.799219 
L 260.062983 3.799219 
z
" style="fill:#ff7f0e;"/>
   </g>
   <g id="patch_335">
    <path clip-path="url(#p01a6c0145d)" d="M 262.241354 74.462269 
L 264.419724 74.462269 
L 264.419724 3.799219 
L 262.241354 3.799219 
z
" style="fill:#ff7f0e;"/>
   </g>
   <g id="patch_336">
    <path clip-path="url(#p01a6c0145d)" d="M 264.419724 71.733391 
L 266.598095 71.733391 
L 266.598095 3.799219 
L 264.419724 3.799219 
z
" style="fill:#ff7f0e;"/>
   </g>
   <g id="patch_337">
    <path clip-path="url(#p01a6c0145d)" d="M 266.598095 66.030784 
L 268.776466 66.030784 
L 268.776466 3.799219 
L 266.598095 3.799219 
z
" style="fill:#ff7f0e;"/>
   </g>
   <g id="patch_338">
    <path clip-path="url(#p01a6c0145d)" d="M 268.776466 66.248851 
L 270.954836 66.248851 
L 270.954836 3.799219 
L 268.776466 3.799219 
z
" style="fill:#ff7f0e;"/>
   </g>
   <g id="patch_339">
    <path clip-path="url(#p01a6c0145d)" d="M 270.954836 63.608207 
L 273.133207 63.608207 
L 273.133207 3.799219 
L 270.954836 3.799219 
z
" style="fill:#ff7f0e;"/>
   </g>
   <g id="patch_340">
    <path clip-path="url(#p01a6c0145d)" d="M 273.133207 73.150542 
L 275.311578 73.150542 
L 275.311578 3.799219 
L 273.133207 3.799219 
z
" style="fill:#ff7f0e;"/>
   </g>
   <g id="patch_341">
    <path clip-path="url(#p01a6c0145d)" d="M 275.311578 63.272653 
L 277.489949 63.272653 
L 277.489949 3.799219 
L 275.311578 3.799219 
z
" style="fill:#ff7f0e;"/>
   </g>
   <g id="patch_342">
    <path clip-path="url(#p01a6c0145d)" d="M 277.489949 67.665053 
L 279.668319 67.665053 
L 279.668319 3.799219 
L 277.489949 3.799219 
z
" style="fill:#ff7f0e;"/>
   </g>
   <g id="patch_343">
    <path clip-path="url(#p01a6c0145d)" d="M 279.668319 60.715114 
L 281.84669 60.715114 
L 281.84669 3.799219 
L 279.668319 3.799219 
z
" style="fill:#ff7f0e;"/>
   </g>
   <g id="patch_344">
    <path clip-path="url(#p01a6c0145d)" d="M 281.84669 71.126013 
L 284.025061 71.126013 
L 284.025061 3.799219 
L 281.84669 3.799219 
z
" style="fill:#ff7f0e;"/>
   </g>
   <g id="patch_345">
    <path clip-path="url(#p01a6c0145d)" d="M 284.025061 65.268594 
L 286.203431 65.268594 
L 286.203431 3.799219 
L 284.025061 3.799219 
z
" style="fill:#ff7f0e;"/>
   </g>
   <g id="patch_346">
    <path clip-path="url(#p01a6c0145d)" d="M 286.203431 51.590392 
L 288.381802 51.590392 
L 288.381802 3.799219 
L 286.203431 3.799219 
z
" style="fill:#ff7f0e;"/>
   </g>
   <g id="patch_347">
    <path clip-path="url(#p01a6c0145d)" d="M 288.381802 53.487747 
L 290.560173 53.487747 
L 290.560173 3.799219 
L 288.381802 3.799219 
z
" style="fill:#ff7f0e;"/>
   </g>
   <g id="patch_348">
    <path clip-path="url(#p01a6c0145d)" d="M 290.560173 62.702412 
L 292.738543 62.702412 
L 292.738543 3.799219 
L 290.560173 3.799219 
z
" style="fill:#ff7f0e;"/>
   </g>
   <g id="patch_349">
    <path clip-path="url(#p01a6c0145d)" d="M 292.738543 49.807389 
L 294.916914 49.807389 
L 294.916914 3.799219 
L 292.738543 3.799219 
z
" style="fill:#ff7f0e;"/>
   </g>
   <g id="patch_350">
    <path clip-path="url(#p01a6c0145d)" d="M 294.916914 50.292342 
L 297.095285 50.292342 
L 297.095285 3.799219 
L 294.916914 3.799219 
z
" style="fill:#ff7f0e;"/>
   </g>
   <g id="patch_351">
    <path clip-path="url(#p01a6c0145d)" d="M 297.095285 49.86428 
L 299.273656 49.86428 
L 299.273656 3.799219 
L 297.095285 3.799219 
z
" style="fill:#ff7f0e;"/>
   </g>
   <g id="patch_352">
    <path clip-path="url(#p01a6c0145d)" d="M 299.273656 45.257613 
L 301.452026 45.257613 
L 301.452026 3.799219 
L 299.273656 3.799219 
z
" style="fill:#ff7f0e;"/>
   </g>
   <g id="patch_353">
    <path clip-path="url(#p01a6c0145d)" d="M 301.452026 47.141481 
L 303.630397 47.141481 
L 303.630397 3.799219 
L 301.452026 3.799219 
z
" style="fill:#ff7f0e;"/>
   </g>
   <g id="patch_354">
    <path clip-path="url(#p01a6c0145d)" d="M 303.630397 44.403105 
L 305.808768 44.403105 
L 305.808768 3.799219 
L 303.630397 3.799219 
z
" style="fill:#ff7f0e;"/>
   </g>
   <g id="patch_355">
    <path clip-path="url(#p01a6c0145d)" d="M 305.808768 35.442314 
L 307.987138 35.442314 
L 307.987138 3.799219 
L 305.808768 3.799219 
z
" style="fill:#ff7f0e;"/>
   </g>
   <g id="patch_356">
    <path clip-path="url(#p01a6c0145d)" d="M 307.987138 44.253611 
L 310.165509 44.253611 
L 310.165509 3.799219 
L 307.987138 3.799219 
z
" style="fill:#ff7f0e;"/>
   </g>
   <g id="patch_357">
    <path clip-path="url(#p01a6c0145d)" d="M 310.165509 47.292589 
L 312.34388 47.292589 
L 312.34388 3.799219 
L 310.165509 3.799219 
z
" style="fill:#ff7f0e;"/>
   </g>
   <g id="patch_358">
    <path clip-path="url(#p01a6c0145d)" d="M 312.34388 3.800169 
L 314.522251 3.800169 
L 314.522251 3.799219 
L 312.34388 3.799219 
z
" style="fill:#ff7f0e;"/>
   </g>
   <g id="patch_359">
    <path clip-path="url(#p01a6c0145d)" d="M 314.522251 47.672687 
L 316.700621 47.672687 
L 316.700621 3.799219 
L 314.522251 3.799219 
z
" style="fill:#ff7f0e;"/>
   </g>
   <g id="patch_360">
    <path clip-path="url(#p01a6c0145d)" d="M 316.700621 48.349683 
L 318.878992 48.349683 
L 318.878992 3.799219 
L 316.700621 3.799219 
z
" style="fill:#ff7f0e;"/>
   </g>
   <g id="patch_361">
    <path clip-path="url(#p01a6c0145d)" d="M 318.878992 33.022965 
L 321.057363 33.022965 
L 321.057363 3.799219 
L 318.878992 3.799219 
z
" style="fill:#ff7f0e;"/>
   </g>
   <g id="patch_362">
    <path clip-path="url(#p01a6c0145d)" d="M 321.057363 3.800169 
L 323.235733 3.800169 
L 323.235733 3.799219 
L 321.057363 3.799219 
z
" style="fill:#ff7f0e;"/>
   </g>
   <g id="patch_363">
    <path clip-path="url(#p01a6c0145d)" d="M 323.235733 45.656326 
L 325.414104 45.656326 
L 325.414104 3.799219 
L 323.235733 3.799219 
z
" style="fill:#ff7f0e;"/>
   </g>
   <g id="patch_364">
    <path clip-path="url(#p01a6c0145d)" d="M 325.414104 31.68588 
L 327.592475 31.68588 
L 327.592475 3.799219 
L 325.414104 3.799219 
z
" style="fill:#ff7f0e;"/>
   </g>
   <g id="patch_365">
    <path clip-path="url(#p01a6c0145d)" d="M 327.592475 3.800169 
L 329.770846 3.800169 
L 329.770846 3.799219 
L 327.592475 3.799219 
z
" style="fill:#ff7f0e;"/>
   </g>
   <g id="patch_366">
    <path clip-path="url(#p01a6c0145d)" d="M 329.770846 3.800169 
L 331.949216 3.800169 
L 331.949216 3.799219 
L 329.770846 3.799219 
z
" style="fill:#ff7f0e;"/>
   </g>
   <g id="patch_367">
    <path clip-path="url(#p01a6c0145d)" d="M 331.949216 3.800169 
L 334.127587 3.800169 
L 334.127587 3.799219 
L 331.949216 3.799219 
z
" style="fill:#ff7f0e;"/>
   </g>
   <g id="patch_368">
    <path clip-path="url(#p01a6c0145d)" d="M 334.127587 3.800169 
L 336.305958 3.800169 
L 336.305958 3.799219 
L 334.127587 3.799219 
z
" style="fill:#ff7f0e;"/>
   </g>
   <g id="patch_369">
    <path clip-path="url(#p01a6c0145d)" d="M 336.305958 3.800169 
L 338.484328 3.800169 
L 338.484328 3.799219 
L 336.305958 3.799219 
z
" style="fill:#ff7f0e;"/>
   </g>
   <g id="patch_370">
    <path clip-path="url(#p01a6c0145d)" d="M 338.484328 3.800169 
L 340.662699 3.800169 
L 340.662699 3.799219 
L 338.484328 3.799219 
z
" style="fill:#ff7f0e;"/>
   </g>
   <g id="patch_371">
    <path clip-path="url(#p01a6c0145d)" d="M 340.662699 3.800169 
L 342.84107 3.800169 
L 342.84107 3.799219 
L 340.662699 3.799219 
z
" style="fill:#ff7f0e;"/>
   </g>
   <g id="patch_372">
    <path clip-path="url(#p01a6c0145d)" d="M 342.84107 3.800169 
L 345.019441 3.800169 
L 345.019441 3.799219 
L 342.84107 3.799219 
z
" style="fill:#ff7f0e;"/>
   </g>
   <g id="patch_373">
    <path clip-path="url(#p01a6c0145d)" d="M 345.019441 3.800169 
L 347.197811 3.800169 
L 347.197811 3.799219 
L 345.019441 3.799219 
z
" style="fill:#ff7f0e;"/>
   </g>
   <g id="patch_374">
    <path clip-path="url(#p01a6c0145d)" d="M 347.197811 3.800169 
L 349.376182 3.800169 
L 349.376182 3.799219 
L 347.197811 3.799219 
z
" style="fill:#ff7f0e;"/>
   </g>
   <g id="patch_375">
    <path clip-path="url(#p01a6c0145d)" d="M 349.376182 3.800169 
L 351.554553 3.800169 
L 351.554553 3.799219 
L 349.376182 3.799219 
z
" style="fill:#ff7f0e;"/>
   </g>
   <g id="patch_376">
    <path clip-path="url(#p01a6c0145d)" d="M 351.554553 3.800169 
L 353.732923 3.800169 
L 353.732923 3.799219 
L 351.554553 3.799219 
z
" style="fill:#ff7f0e;"/>
   </g>
   <g id="patch_377">
    <path clip-path="url(#p01a6c0145d)" d="M 353.732923 3.800169 
L 355.911294 3.800169 
L 355.911294 3.799219 
L 353.732923 3.799219 
z
" style="fill:#ff7f0e;"/>
   </g>
   <g id="patch_378">
    <path clip-path="url(#p01a6c0145d)" d="M 355.911294 3.800169 
L 358.089665 3.800169 
L 358.089665 3.799219 
L 355.911294 3.799219 
z
" style="fill:#ff7f0e;"/>
   </g>
   <g id="patch_379">
    <path clip-path="url(#p01a6c0145d)" d="M 358.089665 3.800169 
L 360.268035 3.800169 
L 360.268035 3.799219 
L 358.089665 3.799219 
z
" style="fill:#ff7f0e;"/>
   </g>
   <g id="patch_380">
    <path clip-path="url(#p01a6c0145d)" d="M 360.268035 3.800169 
L 362.446406 3.800169 
L 362.446406 3.799219 
L 360.268035 3.799219 
z
" style="fill:#ff7f0e;"/>
   </g>
   <g id="patch_381">
    <path clip-path="url(#p01a6c0145d)" d="M 362.446406 3.800169 
L 364.624777 3.800169 
L 364.624777 3.799219 
L 362.446406 3.799219 
z
" style="fill:#ff7f0e;"/>
   </g>
   <g id="patch_382">
    <path clip-path="url(#p01a6c0145d)" d="M 364.624777 3.800169 
L 366.803148 3.800169 
L 366.803148 3.799219 
L 364.624777 3.799219 
z
" style="fill:#ff7f0e;"/>
   </g>
   <g id="patch_383">
    <path clip-path="url(#p01a6c0145d)" d="M 366.803148 3.800169 
L 368.981518 3.800169 
L 368.981518 3.799219 
L 366.803148 3.799219 
z
" style="fill:#ff7f0e;"/>
   </g>
   <g id="patch_384">
    <path clip-path="url(#p01a6c0145d)" d="M 368.981518 3.800169 
L 371.159889 3.800169 
L 371.159889 3.799219 
L 368.981518 3.799219 
z
" style="fill:#ff7f0e;"/>
   </g>
   <g id="patch_385">
    <path clip-path="url(#p01a6c0145d)" d="M 371.159889 3.800169 
L 373.33826 3.800169 
L 373.33826 3.799219 
L 371.159889 3.799219 
z
" style="fill:#ff7f0e;"/>
   </g>
   <g id="patch_386">
    <path clip-path="url(#p01a6c0145d)" d="M 373.33826 3.800169 
L 375.51663 3.800169 
L 375.51663 3.799219 
L 373.33826 3.799219 
z
" style="fill:#ff7f0e;"/>
   </g>
   <g id="patch_387">
    <path clip-path="url(#p01a6c0145d)" d="M 375.51663 3.800169 
L 377.695001 3.800169 
L 377.695001 3.799219 
L 375.51663 3.799219 
z
" style="fill:#ff7f0e;"/>
   </g>
   <g id="patch_388">
    <path clip-path="url(#p01a6c0145d)" d="M 377.695001 3.800169 
L 379.873372 3.800169 
L 379.873372 3.799219 
L 377.695001 3.799219 
z
" style="fill:#ff7f0e;"/>
   </g>
   <g id="patch_389">
    <path clip-path="url(#p01a6c0145d)" d="M 379.873372 3.800169 
L 382.051743 3.800169 
L 382.051743 3.799219 
L 379.873372 3.799219 
z
" style="fill:#ff7f0e;"/>
   </g>
   <g id="patch_390">
    <path clip-path="url(#p01a6c0145d)" d="M 382.051743 3.800169 
L 384.230113 3.800169 
L 384.230113 3.799219 
L 382.051743 3.799219 
z
" style="fill:#ff7f0e;"/>
   </g>
   <g id="patch_391">
    <path clip-path="url(#p01a6c0145d)" d="M 384.230113 3.800169 
L 386.408484 3.800169 
L 386.408484 3.799219 
L 384.230113 3.799219 
z
" style="fill:#ff7f0e;"/>
   </g>
   <g id="patch_392">
    <path clip-path="url(#p01a6c0145d)" d="M 386.408484 3.800169 
L 388.586855 3.800169 
L 388.586855 3.799219 
L 386.408484 3.799219 
z
" style="fill:#ff7f0e;"/>
   </g>
   <g id="patch_393">
    <path clip-path="url(#p01a6c0145d)" d="M 388.586855 3.800169 
L 390.765225 3.800169 
L 390.765225 3.799219 
L 388.586855 3.799219 
z
" style="fill:#ff7f0e;"/>
   </g>
   <g id="patch_394">
    <path clip-path="url(#p01a6c0145d)" d="M 390.765225 3.800169 
L 392.943596 3.800169 
L 392.943596 3.799219 
L 390.765225 3.799219 
z
" style="fill:#ff7f0e;"/>
   </g>
   <g id="patch_395">
    <path clip-path="url(#p01a6c0145d)" d="M 392.943596 3.800169 
L 395.121967 3.800169 
L 395.121967 3.799219 
L 392.943596 3.799219 
z
" style="fill:#ff7f0e;"/>
   </g>
   <g id="patch_396">
    <path clip-path="url(#p01a6c0145d)" d="M 395.121967 3.800169 
L 397.300338 3.800169 
L 397.300338 3.799219 
L 395.121967 3.799219 
z
" style="fill:#ff7f0e;"/>
   </g>
   <g id="patch_397">
    <path clip-path="url(#p01a6c0145d)" d="M 397.300338 3.800169 
L 399.478708 3.800169 
L 399.478708 3.799219 
L 397.300338 3.799219 
z
" style="fill:#ff7f0e;"/>
   </g>
   <g id="patch_398">
    <path clip-path="url(#p01a6c0145d)" d="M 399.478708 3.800169 
L 401.657079 3.800169 
L 401.657079 3.799219 
L 399.478708 3.799219 
z
" style="fill:#ff7f0e;"/>
   </g>
   <g id="patch_399">
    <path clip-path="url(#p01a6c0145d)" d="M 401.657079 3.800169 
L 403.83545 3.800169 
L 403.83545 3.799219 
L 401.657079 3.799219 
z
" style="fill:#ff7f0e;"/>
   </g>
   <g id="patch_400">
    <path clip-path="url(#p01a6c0145d)" d="M 403.83545 3.800169 
L 406.01382 3.800169 
L 406.01382 3.799219 
L 403.83545 3.799219 
z
" style="fill:#ff7f0e;"/>
   </g>
   <g id="patch_401">
    <path clip-path="url(#p01a6c0145d)" d="M 406.01382 3.800169 
L 408.192191 3.800169 
L 408.192191 3.799219 
L 406.01382 3.799219 
z
" style="fill:#ff7f0e;"/>
   </g>
   <g id="patch_402">
    <path clip-path="url(#p01a6c0145d)" d="M 408.192191 3.800169 
L 410.370562 3.800169 
L 410.370562 3.799219 
L 408.192191 3.799219 
z
" style="fill:#ff7f0e;"/>
   </g>
   <g id="patch_403">
    <path clip-path="url(#p01a6c0145d)" d="M 410.370562 3.800169 
L 412.548932 3.800169 
L 412.548932 3.799219 
L 410.370562 3.799219 
z
" style="fill:#ff7f0e;"/>
   </g>
   <g id="patch_404">
    <path clip-path="url(#p01a6c0145d)" d="M 412.548932 3.800169 
L 414.727303 3.800169 
L 414.727303 3.799219 
L 412.548932 3.799219 
z
" style="fill:#ff7f0e;"/>
   </g>
   <g id="patch_405">
    <path clip-path="url(#p01a6c0145d)" d="M 414.727303 3.800169 
L 416.905674 3.800169 
L 416.905674 3.799219 
L 414.727303 3.799219 
z
" style="fill:#ff7f0e;"/>
   </g>
   <g id="patch_406">
    <path clip-path="url(#p01a6c0145d)" d="M 416.905674 3.800169 
L 419.084045 3.800169 
L 419.084045 3.799219 
L 416.905674 3.799219 
z
" style="fill:#ff7f0e;"/>
   </g>
   <g id="patch_407">
    <path clip-path="url(#p01a6c0145d)" d="M 419.084045 3.800169 
L 421.262415 3.800169 
L 421.262415 3.799219 
L 419.084045 3.799219 
z
" style="fill:#ff7f0e;"/>
   </g>
   <g id="patch_408">
    <path clip-path="url(#p01a6c0145d)" d="M 421.262415 3.800169 
L 423.440786 3.800169 
L 423.440786 3.799219 
L 421.262415 3.799219 
z
" style="fill:#ff7f0e;"/>
   </g>
   <g id="patch_409">
    <path clip-path="url(#p01a6c0145d)" d="M 423.440786 3.800169 
L 425.619157 3.800169 
L 425.619157 3.799219 
L 423.440786 3.799219 
z
" style="fill:#ff7f0e;"/>
   </g>
   <g id="patch_410">
    <path clip-path="url(#p01a6c0145d)" d="M 425.619157 3.800169 
L 427.797527 3.800169 
L 427.797527 3.799219 
L 425.619157 3.799219 
z
" style="fill:#ff7f0e;"/>
   </g>
   <g id="patch_411">
    <path clip-path="url(#p01a6c0145d)" d="M 427.797527 3.800169 
L 429.975898 3.800169 
L 429.975898 3.799219 
L 427.797527 3.799219 
z
" style="fill:#ff7f0e;"/>
   </g>
   <g id="patch_412">
    <path clip-path="url(#p01a6c0145d)" d="M 429.975898 3.800169 
L 432.154269 3.800169 
L 432.154269 3.799219 
L 429.975898 3.799219 
z
" style="fill:#ff7f0e;"/>
   </g>
   <g id="patch_413">
    <path clip-path="url(#p01a6c0145d)" d="M 432.154269 3.800169 
L 434.33264 3.800169 
L 434.33264 3.799219 
L 432.154269 3.799219 
z
" style="fill:#ff7f0e;"/>
   </g>
   <g id="patch_414">
    <path clip-path="url(#p01a6c0145d)" d="M 434.33264 3.800169 
L 436.51101 3.800169 
L 436.51101 3.799219 
L 434.33264 3.799219 
z
" style="fill:#ff7f0e;"/>
   </g>
   <g id="patch_415">
    <path clip-path="url(#p01a6c0145d)" d="M 436.51101 3.800169 
L 438.689381 3.800169 
L 438.689381 3.799219 
L 436.51101 3.799219 
z
" style="fill:#ff7f0e;"/>
   </g>
   <g id="patch_416">
    <path clip-path="url(#p01a6c0145d)" d="M 438.689381 3.800169 
L 440.867752 3.800169 
L 440.867752 3.799219 
L 438.689381 3.799219 
z
" style="fill:#ff7f0e;"/>
   </g>
   <g id="patch_417">
    <path clip-path="url(#p01a6c0145d)" d="M 440.867752 3.800169 
L 443.046122 3.800169 
L 443.046122 3.799219 
L 440.867752 3.799219 
z
" style="fill:#ff7f0e;"/>
   </g>
   <g id="patch_418">
    <path clip-path="url(#p01a6c0145d)" d="M 443.046122 3.800169 
L 445.224493 3.800169 
L 445.224493 3.799219 
L 443.046122 3.799219 
z
" style="fill:#ff7f0e;"/>
   </g>
   <g id="patch_419">
    <path clip-path="url(#p01a6c0145d)" d="M 445.224493 3.800169 
L 447.402864 3.800169 
L 447.402864 3.799219 
L 445.224493 3.799219 
z
" style="fill:#ff7f0e;"/>
   </g>
   <g id="patch_420">
    <path clip-path="url(#p01a6c0145d)" d="M 447.402864 3.800169 
L 449.581235 3.800169 
L 449.581235 3.799219 
L 447.402864 3.799219 
z
" style="fill:#ff7f0e;"/>
   </g>
   <g id="patch_421">
    <path clip-path="url(#p01a6c0145d)" d="M 449.581235 3.800169 
L 451.759605 3.800169 
L 451.759605 3.799219 
L 449.581235 3.799219 
z
" style="fill:#ff7f0e;"/>
   </g>
   <g id="patch_422">
    <path clip-path="url(#p01a6c0145d)" d="M 451.759605 3.800169 
L 453.937976 3.800169 
L 453.937976 3.799219 
L 451.759605 3.799219 
z
" style="fill:#ff7f0e;"/>
   </g>
   <g id="patch_423">
    <path clip-path="url(#p01a6c0145d)" d="M 453.937976 3.800169 
L 456.116347 3.800169 
L 456.116347 3.799219 
L 453.937976 3.799219 
z
" style="fill:#ff7f0e;"/>
   </g>
   <g id="patch_424">
    <path clip-path="url(#p01a6c0145d)" d="M 456.116347 3.800169 
L 458.294717 3.800169 
L 458.294717 3.799219 
L 456.116347 3.799219 
z
" style="fill:#ff7f0e;"/>
   </g>
   <g id="patch_425">
    <path clip-path="url(#p01a6c0145d)" d="M 458.294717 3.800169 
L 460.473088 3.800169 
L 460.473088 3.799219 
L 458.294717 3.799219 
z
" style="fill:#ff7f0e;"/>
   </g>
   <g id="patch_426">
    <path clip-path="url(#p01a6c0145d)" d="M 460.473088 3.800169 
L 462.651459 3.800169 
L 462.651459 3.799219 
L 460.473088 3.799219 
z
" style="fill:#ff7f0e;"/>
   </g>
   <g id="patch_427">
    <path clip-path="url(#p01a6c0145d)" d="M 462.651459 3.800169 
L 464.82983 3.800169 
L 464.82983 3.799219 
L 462.651459 3.799219 
z
" style="fill:#ff7f0e;"/>
   </g>
   <g id="patch_428">
    <path clip-path="url(#p01a6c0145d)" d="M 464.82983 3.800169 
L 467.0082 3.800169 
L 467.0082 3.799219 
L 464.82983 3.799219 
z
" style="fill:#ff7f0e;"/>
   </g>
   <g id="patch_429">
    <path clip-path="url(#p01a6c0145d)" d="M 467.0082 3.800169 
L 469.186571 3.800169 
L 469.186571 3.799219 
L 467.0082 3.799219 
z
" style="fill:#ff7f0e;"/>
   </g>
   <g id="patch_430">
    <path clip-path="url(#p01a6c0145d)" d="M 469.186571 3.800169 
L 471.364942 3.800169 
L 471.364942 3.799219 
L 469.186571 3.799219 
z
" style="fill:#ff7f0e;"/>
   </g>
   <g id="patch_431">
    <path clip-path="url(#p01a6c0145d)" d="M 471.364942 3.800169 
L 473.543312 3.800169 
L 473.543312 3.799219 
L 471.364942 3.799219 
z
" style="fill:#ff7f0e;"/>
   </g>
   <g id="patch_432">
    <path clip-path="url(#p01a6c0145d)" d="M 473.543312 3.800169 
L 475.721683 3.800169 
L 475.721683 3.799219 
L 473.543312 3.799219 
z
" style="fill:#ff7f0e;"/>
   </g>
   <g id="patch_433">
    <path clip-path="url(#p01a6c0145d)" d="M 475.721683 3.800169 
L 477.900054 3.800169 
L 477.900054 3.799219 
L 475.721683 3.799219 
z
" style="fill:#ff7f0e;"/>
   </g>
   <g id="patch_434">
    <path clip-path="url(#p01a6c0145d)" d="M 477.900054 3.800169 
L 480.078424 3.800169 
L 480.078424 3.799219 
L 477.900054 3.799219 
z
" style="fill:#ff7f0e;"/>
   </g>
   <g id="patch_435">
    <path clip-path="url(#p01a6c0145d)" d="M 480.078424 3.800169 
L 482.256795 3.800169 
L 482.256795 3.799219 
L 480.078424 3.799219 
z
" style="fill:#ff7f0e;"/>
   </g>
   <g id="patch_436">
    <path clip-path="url(#p01a6c0145d)" d="M 482.256795 3.800169 
L 484.435166 3.800169 
L 484.435166 3.799219 
L 482.256795 3.799219 
z
" style="fill:#ff7f0e;"/>
   </g>
   <g id="patch_437">
    <path clip-path="url(#p01a6c0145d)" d="M 484.435166 3.800169 
L 486.613537 3.800169 
L 486.613537 3.799219 
L 484.435166 3.799219 
z
" style="fill:#ff7f0e;"/>
   </g>
   <g id="patch_438">
    <path clip-path="url(#p01a6c0145d)" d="M 486.613537 3.800169 
L 488.791907 3.800169 
L 488.791907 3.799219 
L 486.613537 3.799219 
z
" style="fill:#ff7f0e;"/>
   </g>
   <g id="matplotlib.axis_1">
    <g id="xtick_1">
     <g id="line2d_1">
      <defs>
       <path d="M 0 0 
L 0 3.5 
" id="m17c2920be0" style="stroke:#000000;stroke-width:0.8;"/>
      </defs>
      <g>
       <use style="stroke:#000000;stroke-width:0.8;" x="153.322818" xlink:href="#m17c2920be0" y="98.776182"/>
      </g>
     </g>
     <g id="text_1">
      <!-- B. pubescens south -->
      <g transform="translate(104.365787 113.374619)scale(0.1 -0.1)">
       <defs>
        <path d="M 1259 2228 
L 1259 519 
L 2272 519 
Q 2781 519 3026 730 
Q 3272 941 3272 1375 
Q 3272 1813 3026 2020 
Q 2781 2228 2272 2228 
L 1259 2228 
z
M 1259 4147 
L 1259 2741 
L 2194 2741 
Q 2656 2741 2882 2914 
Q 3109 3088 3109 3444 
Q 3109 3797 2882 3972 
Q 2656 4147 2194 4147 
L 1259 4147 
z
M 628 4666 
L 2241 4666 
Q 2963 4666 3353 4366 
Q 3744 4066 3744 3513 
Q 3744 3084 3544 2831 
Q 3344 2578 2956 2516 
Q 3422 2416 3680 2098 
Q 3938 1781 3938 1306 
Q 3938 681 3513 340 
Q 3088 0 2303 0 
L 628 0 
L 628 4666 
z
" id="DejaVuSans-42" transform="scale(0.015625)"/>
        <path d="M 684 794 
L 1344 794 
L 1344 0 
L 684 0 
L 684 794 
z
" id="DejaVuSans-2e" transform="scale(0.015625)"/>
        <path id="DejaVuSans-20" transform="scale(0.015625)"/>
        <path d="M 1159 525 
L 1159 -1331 
L 581 -1331 
L 581 3500 
L 1159 3500 
L 1159 2969 
Q 1341 3281 1617 3432 
Q 1894 3584 2278 3584 
Q 2916 3584 3314 3078 
Q 3713 2572 3713 1747 
Q 3713 922 3314 415 
Q 2916 -91 2278 -91 
Q 1894 -91 1617 61 
Q 1341 213 1159 525 
z
M 3116 1747 
Q 3116 2381 2855 2742 
Q 2594 3103 2138 3103 
Q 1681 3103 1420 2742 
Q 1159 2381 1159 1747 
Q 1159 1113 1420 752 
Q 1681 391 2138 391 
Q 2594 391 2855 752 
Q 3116 1113 3116 1747 
z
" id="DejaVuSans-70" transform="scale(0.015625)"/>
        <path d="M 544 1381 
L 544 3500 
L 1119 3500 
L 1119 1403 
Q 1119 906 1312 657 
Q 1506 409 1894 409 
Q 2359 409 2629 706 
Q 2900 1003 2900 1516 
L 2900 3500 
L 3475 3500 
L 3475 0 
L 2900 0 
L 2900 538 
Q 2691 219 2414 64 
Q 2138 -91 1772 -91 
Q 1169 -91 856 284 
Q 544 659 544 1381 
z
M 1991 3584 
L 1991 3584 
z
" id="DejaVuSans-75" transform="scale(0.015625)"/>
        <path d="M 3116 1747 
Q 3116 2381 2855 2742 
Q 2594 3103 2138 3103 
Q 1681 3103 1420 2742 
Q 1159 2381 1159 1747 
Q 1159 1113 1420 752 
Q 1681 391 2138 391 
Q 2594 391 2855 752 
Q 3116 1113 3116 1747 
z
M 1159 2969 
Q 1341 3281 1617 3432 
Q 1894 3584 2278 3584 
Q 2916 3584 3314 3078 
Q 3713 2572 3713 1747 
Q 3713 922 3314 415 
Q 2916 -91 2278 -91 
Q 1894 -91 1617 61 
Q 1341 213 1159 525 
L 1159 0 
L 581 0 
L 581 4863 
L 1159 4863 
L 1159 2969 
z
" id="DejaVuSans-62" transform="scale(0.015625)"/>
        <path d="M 3597 1894 
L 3597 1613 
L 953 1613 
Q 991 1019 1311 708 
Q 1631 397 2203 397 
Q 2534 397 2845 478 
Q 3156 559 3463 722 
L 3463 178 
Q 3153 47 2828 -22 
Q 2503 -91 2169 -91 
Q 1331 -91 842 396 
Q 353 884 353 1716 
Q 353 2575 817 3079 
Q 1281 3584 2069 3584 
Q 2775 3584 3186 3129 
Q 3597 2675 3597 1894 
z
M 3022 2063 
Q 3016 2534 2758 2815 
Q 2500 3097 2075 3097 
Q 1594 3097 1305 2825 
Q 1016 2553 972 2059 
L 3022 2063 
z
" id="DejaVuSans-65" transform="scale(0.015625)"/>
        <path d="M 2834 3397 
L 2834 2853 
Q 2591 2978 2328 3040 
Q 2066 3103 1784 3103 
Q 1356 3103 1142 2972 
Q 928 2841 928 2578 
Q 928 2378 1081 2264 
Q 1234 2150 1697 2047 
L 1894 2003 
Q 2506 1872 2764 1633 
Q 3022 1394 3022 966 
Q 3022 478 2636 193 
Q 2250 -91 1575 -91 
Q 1294 -91 989 -36 
Q 684 19 347 128 
L 347 722 
Q 666 556 975 473 
Q 1284 391 1588 391 
Q 1994 391 2212 530 
Q 2431 669 2431 922 
Q 2431 1156 2273 1281 
Q 2116 1406 1581 1522 
L 1381 1569 
Q 847 1681 609 1914 
Q 372 2147 372 2553 
Q 372 3047 722 3315 
Q 1072 3584 1716 3584 
Q 2034 3584 2315 3537 
Q 2597 3491 2834 3397 
z
" id="DejaVuSans-73" transform="scale(0.015625)"/>
        <path d="M 3122 3366 
L 3122 2828 
Q 2878 2963 2633 3030 
Q 2388 3097 2138 3097 
Q 1578 3097 1268 2742 
Q 959 2388 959 1747 
Q 959 1106 1268 751 
Q 1578 397 2138 397 
Q 2388 397 2633 464 
Q 2878 531 3122 666 
L 3122 134 
Q 2881 22 2623 -34 
Q 2366 -91 2075 -91 
Q 1284 -91 818 406 
Q 353 903 353 1747 
Q 353 2603 823 3093 
Q 1294 3584 2113 3584 
Q 2378 3584 2631 3529 
Q 2884 3475 3122 3366 
z
" id="DejaVuSans-63" transform="scale(0.015625)"/>
        <path d="M 3513 2113 
L 3513 0 
L 2938 0 
L 2938 2094 
Q 2938 2591 2744 2837 
Q 2550 3084 2163 3084 
Q 1697 3084 1428 2787 
Q 1159 2491 1159 1978 
L 1159 0 
L 581 0 
L 581 3500 
L 1159 3500 
L 1159 2956 
Q 1366 3272 1645 3428 
Q 1925 3584 2291 3584 
Q 2894 3584 3203 3211 
Q 3513 2838 3513 2113 
z
" id="DejaVuSans-6e" transform="scale(0.015625)"/>
        <path d="M 1959 3097 
Q 1497 3097 1228 2736 
Q 959 2375 959 1747 
Q 959 1119 1226 758 
Q 1494 397 1959 397 
Q 2419 397 2687 759 
Q 2956 1122 2956 1747 
Q 2956 2369 2687 2733 
Q 2419 3097 1959 3097 
z
M 1959 3584 
Q 2709 3584 3137 3096 
Q 3566 2609 3566 1747 
Q 3566 888 3137 398 
Q 2709 -91 1959 -91 
Q 1206 -91 779 398 
Q 353 888 353 1747 
Q 353 2609 779 3096 
Q 1206 3584 1959 3584 
z
" id="DejaVuSans-6f" transform="scale(0.015625)"/>
        <path d="M 1172 4494 
L 1172 3500 
L 2356 3500 
L 2356 3053 
L 1172 3053 
L 1172 1153 
Q 1172 725 1289 603 
Q 1406 481 1766 481 
L 2356 481 
L 2356 0 
L 1766 0 
Q 1100 0 847 248 
Q 594 497 594 1153 
L 594 3053 
L 172 3053 
L 172 3500 
L 594 3500 
L 594 4494 
L 1172 4494 
z
" id="DejaVuSans-74" transform="scale(0.015625)"/>
        <path d="M 3513 2113 
L 3513 0 
L 2938 0 
L 2938 2094 
Q 2938 2591 2744 2837 
Q 2550 3084 2163 3084 
Q 1697 3084 1428 2787 
Q 1159 2491 1159 1978 
L 1159 0 
L 581 0 
L 581 4863 
L 1159 4863 
L 1159 2956 
Q 1366 3272 1645 3428 
Q 1925 3584 2291 3584 
Q 2894 3584 3203 3211 
Q 3513 2838 3513 2113 
z
" id="DejaVuSans-68" transform="scale(0.015625)"/>
       </defs>
       <use xlink:href="#DejaVuSans-42"/>
       <use x="68.603516" xlink:href="#DejaVuSans-2e"/>
       <use x="100.390625" xlink:href="#DejaVuSans-20"/>
       <use x="132.177734" xlink:href="#DejaVuSans-70"/>
       <use x="195.654297" xlink:href="#DejaVuSans-75"/>
       <use x="259.033203" xlink:href="#DejaVuSans-62"/>
       <use x="322.509766" xlink:href="#DejaVuSans-65"/>
       <use x="384.033203" xlink:href="#DejaVuSans-73"/>
       <use x="436.132812" xlink:href="#DejaVuSans-63"/>
       <use x="491.113281" xlink:href="#DejaVuSans-65"/>
       <use x="552.636719" xlink:href="#DejaVuSans-6e"/>
       <use x="616.015625" xlink:href="#DejaVuSans-73"/>
       <use x="668.115234" xlink:href="#DejaVuSans-20"/>
       <use x="699.902344" xlink:href="#DejaVuSans-73"/>
       <use x="752.001953" xlink:href="#DejaVuSans-6f"/>
       <use x="813.183594" xlink:href="#DejaVuSans-75"/>
       <use x="876.5625" xlink:href="#DejaVuSans-74"/>
       <use x="915.771484" xlink:href="#DejaVuSans-68"/>
      </g>
     </g>
    </g>
    <g id="xtick_2">
     <g id="line2d_2">
      <g>
       <use style="stroke:#000000;stroke-width:0.8;" x="390.765225" xlink:href="#m17c2920be0" y="98.776182"/>
      </g>
     </g>
     <g id="text_2">
      <!-- B. pubescens north -->
      <g transform="translate(342.357413 113.374619)scale(0.1 -0.1)">
       <defs>
        <path d="M 2631 2963 
Q 2534 3019 2420 3045 
Q 2306 3072 2169 3072 
Q 1681 3072 1420 2755 
Q 1159 2438 1159 1844 
L 1159 0 
L 581 0 
L 581 3500 
L 1159 3500 
L 1159 2956 
Q 1341 3275 1631 3429 
Q 1922 3584 2338 3584 
Q 2397 3584 2469 3576 
Q 2541 3569 2628 3553 
L 2631 2963 
z
" id="DejaVuSans-72" transform="scale(0.015625)"/>
       </defs>
       <use xlink:href="#DejaVuSans-42"/>
       <use x="68.603516" xlink:href="#DejaVuSans-2e"/>
       <use x="100.390625" xlink:href="#DejaVuSans-20"/>
       <use x="132.177734" xlink:href="#DejaVuSans-70"/>
       <use x="195.654297" xlink:href="#DejaVuSans-75"/>
       <use x="259.033203" xlink:href="#DejaVuSans-62"/>
       <use x="322.509766" xlink:href="#DejaVuSans-65"/>
       <use x="384.033203" xlink:href="#DejaVuSans-73"/>
       <use x="436.132812" xlink:href="#DejaVuSans-63"/>
       <use x="491.113281" xlink:href="#DejaVuSans-65"/>
       <use x="552.636719" xlink:href="#DejaVuSans-6e"/>
       <use x="616.015625" xlink:href="#DejaVuSans-73"/>
       <use x="668.115234" xlink:href="#DejaVuSans-20"/>
       <use x="699.902344" xlink:href="#DejaVuSans-6e"/>
       <use x="763.28125" xlink:href="#DejaVuSans-6f"/>
       <use x="824.462891" xlink:href="#DejaVuSans-72"/>
       <use x="865.576172" xlink:href="#DejaVuSans-74"/>
       <use x="904.785156" xlink:href="#DejaVuSans-68"/>
      </g>
     </g>
    </g>
   </g>
   <g id="matplotlib.axis_2">
    <g id="ytick_1">
     <g id="line2d_3">
      <defs>
       <path d="M 0 0 
L -3.5 0 
" id="m74ec74729a" style="stroke:#000000;stroke-width:0.8;"/>
      </defs>
      <g>
       <use style="stroke:#000000;stroke-width:0.8;" x="13.3625" xlink:href="#m74ec74729a" y="98.776182"/>
      </g>
     </g>
     <g id="text_3">
      <!-- 0 -->
      <g transform="translate(0 102.5754)scale(0.1 -0.1)">
       <defs>
        <path d="M 2034 4250 
Q 1547 4250 1301 3770 
Q 1056 3291 1056 2328 
Q 1056 1369 1301 889 
Q 1547 409 2034 409 
Q 2525 409 2770 889 
Q 3016 1369 3016 2328 
Q 3016 3291 2770 3770 
Q 2525 4250 2034 4250 
z
M 2034 4750 
Q 2819 4750 3233 4129 
Q 3647 3509 3647 2328 
Q 3647 1150 3233 529 
Q 2819 -91 2034 -91 
Q 1250 -91 836 529 
Q 422 1150 422 2328 
Q 422 3509 836 4129 
Q 1250 4750 2034 4750 
z
" id="DejaVuSans-30" transform="scale(0.015625)"/>
       </defs>
       <use xlink:href="#DejaVuSans-30"/>
      </g>
     </g>
    </g>
    <g id="ytick_2">
     <g id="line2d_4">
      <g>
       <use style="stroke:#000000;stroke-width:0.8;" x="13.3625" xlink:href="#m74ec74729a" y="3.799219"/>
      </g>
     </g>
     <g id="text_4">
      <!-- 1 -->
      <g transform="translate(0 7.598437)scale(0.1 -0.1)">
       <defs>
        <path d="M 794 531 
L 1825 531 
L 1825 4091 
L 703 3866 
L 703 4441 
L 1819 4666 
L 2450 4666 
L 2450 531 
L 3481 531 
L 3481 0 
L 794 0 
L 794 531 
z
" id="DejaVuSans-31" transform="scale(0.015625)"/>
       </defs>
       <use xlink:href="#DejaVuSans-31"/>
      </g>
     </g>
    </g>
   </g>
   <g id="LineCollection_1">
    <path clip-path="url(#p01a6c0145d)" d="M 291.649358 98.776182 
L 291.649358 3.799219 
" style="fill:none;stroke:#000000;stroke-dasharray:5.55,2.4;stroke-dashoffset:0;stroke-width:1.5;"/>
   </g>
   <g id="patch_439">
    <path d="M 13.3625 98.776182 
L 13.3625 3.799219 
" style="fill:none;stroke:#000000;stroke-linecap:square;stroke-linejoin:miter;stroke-width:0.8;"/>
   </g>
   <g id="patch_440">
    <path d="M 489.3365 98.776182 
L 489.3365 3.799219 
" style="fill:none;stroke:#000000;stroke-linecap:square;stroke-linejoin:miter;stroke-width:0.8;"/>
   </g>
   <g id="patch_441">
    <path d="M 13.3625 98.776182 
L 489.3365 98.776182 
" style="fill:none;stroke:#000000;stroke-linecap:square;stroke-linejoin:miter;stroke-width:0.8;"/>
   </g>
   <g id="patch_442">
    <path d="M 13.3625 3.799219 
L 489.3365 3.799219 
" style="fill:none;stroke:#000000;stroke-linecap:square;stroke-linejoin:miter;stroke-width:0.8;"/>
   </g>
  </g>
 </g>
 <defs>
  <clipPath id="p01a6c0145d">
   <rect height="94.976963" width="475.974" x="13.3625" y="3.799219"/>
  </clipPath>
 </defs>
</svg>
