<?xml version="1.0" encoding="utf-8" standalone="no"?>
<!DOCTYPE svg PUBLIC "-//W3C//DTD SVG 1.1//EN"
  "http://www.w3.org/Graphics/SVG/1.1/DTD/svg11.dtd">
<svg height="267.355242pt" version="1.1" viewBox="0 0 367.185001 267.355242" width="367.185001pt" xmlns="http://www.w3.org/2000/svg" xmlns:xlink="http://www.w3.org/1999/xlink">
 <metadata>
  <rdf:RDF xmlns:cc="http://creativecommons.org/ns#" xmlns:dc="http://purl.org/dc/elements/1.1/" xmlns:rdf="http://www.w3.org/1999/02/22-rdf-syntax-ns#">
   <cc:Work>
    <dc:type rdf:resource="http://purl.org/dc/dcmitype/StillImage"/>
    <dc:date>2021-12-05T09:48:55.241077</dc:date>
    <dc:format>image/svg+xml</dc:format>
    <dc:creator>
     <cc:Agent>
      <dc:title>Matplotlib v3.4.3, https://matplotlib.org/</dc:title>
     </cc:Agent>
    </dc:creator>
   </cc:Work>
  </rdf:RDF>
 </metadata>
 <defs>
  <style type="text/css">*{stroke-linecap:butt;stroke-linejoin:round;}</style>
 </defs>
 <g id="figure_1">
  <g id="patch_1">
   <path d="M 0 267.355242 
L 367.185001 267.355242 
L 367.185001 0 
L 0 0 
z
" style="fill:#ffffff;"/>
  </g>
  <g id="axes_1">
   <g id="patch_2">
    <path d="M 188.401201 13.339242 
C 156.914323 13.339242 126.647588 25.675584 104.132006 47.686311 
C 81.616424 69.697037 68.596991 99.676279 67.883064 131.155063 
C 67.169137 162.633847 78.816045 193.172513 100.3106 216.181374 
C 121.805154 239.190234 151.481489 252.886063 182.935993 254.313551 
L 185.668597 194.100961 
C 169.941345 193.387217 155.103178 186.539302 144.355901 175.034872 
C 133.608623 163.530442 127.785169 148.261109 128.142133 132.521717 
C 128.499096 116.782325 135.008813 101.792704 146.266604 90.787341 
C 157.524395 79.781977 172.657762 73.613806 188.401201 73.613806 
L 188.401201 13.339242 
z
" style="fill:#3182bd;stroke:#ffffff;stroke-linejoin:miter;"/>
   </g>
   <g id="patch_3">
    <path d="M 182.935993 254.313551 
C 203.774175 255.259242 224.50536 250.780228 243.094499 241.316187 
C 261.683638 231.852145 277.501895 217.723226 288.996492 200.316377 
C 300.491089 182.909527 307.273185 162.813588 308.677025 142.00125 
C 310.080865 121.188912 306.058959 100.364218 297.006113 81.571397 
L 242.703657 107.729884 
C 247.23008 117.126294 249.241033 127.538641 248.539113 137.94481 
C 247.837193 148.350979 244.446145 158.398949 238.698847 167.102374 
C 232.951548 175.805798 225.04242 182.870258 215.74785 187.602279 
C 206.453281 192.334299 196.087688 194.573806 185.668597 194.100961 
L 182.935993 254.313551 
z
" style="fill:#e6550d;stroke:#ffffff;stroke-linejoin:miter;"/>
   </g>
   <g id="patch_4">
    <path d="M 297.006113 81.571397 
C 291.258017 69.638913 283.582475 58.734911 274.288529 49.298421 
C 264.994583 39.861932 254.208663 32.021324 242.365046 26.092285 
L 215.383124 79.990328 
C 221.304932 82.954847 226.697892 86.875151 231.344865 91.593396 
C 235.991838 96.311641 239.829609 101.763642 242.703657 107.729884 
L 297.006113 81.571397 
z
" style="fill:#31a354;stroke:#ffffff;stroke-linejoin:miter;"/>
   </g>
   <g id="patch_5">
    <path d="M 242.365046 26.092285 
C 234.017031 21.913182 225.21174 18.717927 216.126358 16.570818 
C 207.040975 14.423708 197.736852 13.339242 188.401207 13.339242 
L 188.401204 73.613806 
C 193.069027 73.613806 197.721088 74.156039 202.26378 75.229594 
C 206.806471 76.303149 211.209116 77.900776 215.383124 79.990328 
L 242.365046 26.092285 
z
" style="fill:#756bb1;stroke:#ffffff;stroke-linejoin:miter;"/>
   </g>
   <g id="patch_6">
    <path d="M 188.401201 73.613806 
C 172.657762 73.613806 157.524395 79.781977 146.266604 90.787341 
C 135.008813 101.792704 128.499096 116.782325 128.142133 132.521717 
C 127.785169 148.261109 133.608623 163.530442 144.355901 175.034872 
C 155.103178 186.539302 169.941345 193.387217 185.668597 194.100961 
L 186.215118 182.058443 
C 173.633316 181.487448 161.762783 176.009116 153.164961 166.805572 
C 144.567139 157.602028 139.908376 145.386561 140.193946 132.795048 
C 140.479517 120.203534 145.68729 108.211837 154.693523 99.407547 
C 163.699756 90.603256 175.80645 85.668719 188.401201 85.668719 
L 188.401201 73.613806 
z
" style="fill:#6baed6;stroke:#ffffff;stroke-linejoin:miter;"/>
   </g>
   <g id="patch_7">
    <path d="M 185.668597 194.100961 
C 187.206977 194.170776 188.747468 194.18161 190.286679 194.133438 
C 191.825889 194.085265 193.362687 193.978122 194.893691 193.812245 
L 193.595193 181.82747 
C 192.37039 181.960172 191.140951 182.045886 189.909583 182.084424 
C 188.678215 182.122962 187.445822 182.114295 186.215118 182.058443 
L 185.668597 194.100961 
z
" style="fill:#fd8d3c;stroke:#ffffff;stroke-linejoin:miter;"/>
   </g>
   <g id="patch_8">
    <path d="M 194.893691 193.812245 
C 204.485699 192.772993 213.68943 189.445686 221.728558 184.11098 
C 229.767685 178.776273 236.409639 171.5885 241.094175 163.153941 
C 245.778712 154.719383 248.370309 145.282049 248.650368 135.637972 
C 248.930426 125.993895 246.890844 116.422074 242.703658 107.729886 
L 231.843167 112.961583 
C 235.192915 119.915334 236.824581 127.57279 236.600534 135.288052 
C 236.376488 143.003314 234.30321 150.55318 230.555581 157.300827 
C 226.807951 164.048474 221.494388 169.798693 215.063086 174.066458 
C 208.631784 178.334223 201.2688 180.996068 193.595193 181.82747 
L 194.893691 193.812245 
z
" style="fill:#fdae6b;stroke:#ffffff;stroke-linejoin:miter;"/>
   </g>
   <g id="patch_9">
    <path d="M 242.703658 107.729886 
C 242.60947 107.534361 242.514226 107.339345 242.417932 107.144848 
C 242.321637 106.950352 242.224292 106.756376 242.125902 106.562931 
L 231.380962 112.028019 
C 231.459674 112.182775 231.53755 112.337955 231.614586 112.493553 
C 231.691621 112.64915 231.767816 112.805163 231.843167 112.961583 
L 242.703658 107.729886 
z
" style="fill:#74c476;stroke:#ffffff;stroke-linejoin:miter;"/>
   </g>
   <g id="patch_10">
    <path d="M 242.125902 106.562931 
C 241.857396 106.03502 241.581124 105.511095 241.297175 104.991326 
C 241.013225 104.471558 240.721631 103.956004 240.422485 103.44483 
L 230.018229 109.533538 
C 230.257545 109.942477 230.490821 110.354921 230.71798 110.770735 
C 230.945139 111.18655 231.166157 111.60569 231.380962 112.028019 
L 242.125902 106.562931 
z
" style="fill:#a1d99b;stroke:#ffffff;stroke-linejoin:miter;"/>
   </g>
   <g id="patch_11">
    <path d="M 240.422485 103.44483 
C 237.488823 98.43185 233.845898 93.869137 229.606846 89.898395 
C 225.367795 85.927653 220.57696 82.590417 215.383127 79.99033 
L 209.986742 90.769938 
C 214.141808 92.850008 217.974476 95.519796 221.365717 98.69639 
C 224.756959 101.872984 227.671299 105.523154 230.018229 109.533538 
L 240.422485 103.44483 
z
" style="fill:#c7e9c0;stroke:#ffffff;stroke-linejoin:miter;"/>
   </g>
   <g id="patch_12">
    <path d="M 215.383127 79.99033 
C 214.648504 79.62257 213.90644 79.269868 213.157398 78.932444 
C 212.408357 78.595021 211.652495 78.272947 210.890287 77.966424 
L 206.39247 89.150813 
C 207.002236 89.396031 207.606926 89.653691 208.206159 89.923629 
C 208.805392 90.193568 209.399044 90.47573 209.986742 90.769938 
L 215.383127 79.99033 
z
" style="fill:#9e9ac8;stroke:#ffffff;stroke-linejoin:miter;"/>
   </g>
   <g id="patch_13">
    <path d="M 210.890287 77.966424 
C 207.323861 76.532181 203.628395 75.442394 199.854416 74.711965 
C 196.080437 73.981535 192.245222 73.613806 188.401207 73.613806 
L 188.401206 85.668719 
C 191.476418 85.668719 194.54459 85.962902 197.563773 86.547246 
C 200.582957 87.13159 203.539329 88.003419 206.39247 89.150813 
L 210.890287 77.966424 
z
" style="fill:#bcbddc;stroke:#ffffff;stroke-linejoin:miter;"/>
   </g>
   <g id="matplotlib.axis_1"/>
   <g id="matplotlib.axis_2"/>
   <g id="text_1">
    <!-- non-coding -->
    <g transform="translate(0 133.641108)scale(0.1 -0.1)">
     <defs>
      <path d="M 3513 2113 
L 3513 0 
L 2938 0 
L 2938 2094 
Q 2938 2591 2744 2837 
Q 2550 3084 2163 3084 
Q 1697 3084 1428 2787 
Q 1159 2491 1159 1978 
L 1159 0 
L 581 0 
L 581 3500 
L 1159 3500 
L 1159 2956 
Q 1366 3272 1645 3428 
Q 1925 3584 2291 3584 
Q 2894 3584 3203 3211 
Q 3513 2838 3513 2113 
z
" id="DejaVuSans-6e" transform="scale(0.015625)"/>
      <path d="M 1959 3097 
Q 1497 3097 1228 2736 
Q 959 2375 959 1747 
Q 959 1119 1226 758 
Q 1494 397 1959 397 
Q 2419 397 2687 759 
Q 2956 1122 2956 1747 
Q 2956 2369 2687 2733 
Q 2419 3097 1959 3097 
z
M 1959 3584 
Q 2709 3584 3137 3096 
Q 3566 2609 3566 1747 
Q 3566 888 3137 398 
Q 2709 -91 1959 -91 
Q 1206 -91 779 398 
Q 353 888 353 1747 
Q 353 2609 779 3096 
Q 1206 3584 1959 3584 
z
" id="DejaVuSans-6f" transform="scale(0.015625)"/>
      <path d="M 313 2009 
L 1997 2009 
L 1997 1497 
L 313 1497 
L 313 2009 
z
" id="DejaVuSans-2d" transform="scale(0.015625)"/>
      <path d="M 3122 3366 
L 3122 2828 
Q 2878 2963 2633 3030 
Q 2388 3097 2138 3097 
Q 1578 3097 1268 2742 
Q 959 2388 959 1747 
Q 959 1106 1268 751 
Q 1578 397 2138 397 
Q 2388 397 2633 464 
Q 2878 531 3122 666 
L 3122 134 
Q 2881 22 2623 -34 
Q 2366 -91 2075 -91 
Q 1284 -91 818 406 
Q 353 903 353 1747 
Q 353 2603 823 3093 
Q 1294 3584 2113 3584 
Q 2378 3584 2631 3529 
Q 2884 3475 3122 3366 
z
" id="DejaVuSans-63" transform="scale(0.015625)"/>
      <path d="M 2906 2969 
L 2906 4863 
L 3481 4863 
L 3481 0 
L 2906 0 
L 2906 525 
Q 2725 213 2448 61 
Q 2172 -91 1784 -91 
Q 1150 -91 751 415 
Q 353 922 353 1747 
Q 353 2572 751 3078 
Q 1150 3584 1784 3584 
Q 2172 3584 2448 3432 
Q 2725 3281 2906 2969 
z
M 947 1747 
Q 947 1113 1208 752 
Q 1469 391 1925 391 
Q 2381 391 2643 752 
Q 2906 1113 2906 1747 
Q 2906 2381 2643 2742 
Q 2381 3103 1925 3103 
Q 1469 3103 1208 2742 
Q 947 2381 947 1747 
z
" id="DejaVuSans-64" transform="scale(0.015625)"/>
      <path d="M 603 3500 
L 1178 3500 
L 1178 0 
L 603 0 
L 603 3500 
z
M 603 4863 
L 1178 4863 
L 1178 4134 
L 603 4134 
L 603 4863 
z
" id="DejaVuSans-69" transform="scale(0.015625)"/>
      <path d="M 2906 1791 
Q 2906 2416 2648 2759 
Q 2391 3103 1925 3103 
Q 1463 3103 1205 2759 
Q 947 2416 947 1791 
Q 947 1169 1205 825 
Q 1463 481 1925 481 
Q 2391 481 2648 825 
Q 2906 1169 2906 1791 
z
M 3481 434 
Q 3481 -459 3084 -895 
Q 2688 -1331 1869 -1331 
Q 1566 -1331 1297 -1286 
Q 1028 -1241 775 -1147 
L 775 -588 
Q 1028 -725 1275 -790 
Q 1522 -856 1778 -856 
Q 2344 -856 2625 -561 
Q 2906 -266 2906 331 
L 2906 616 
Q 2728 306 2450 153 
Q 2172 0 1784 0 
Q 1141 0 747 490 
Q 353 981 353 1791 
Q 353 2603 747 3093 
Q 1141 3584 1784 3584 
Q 2172 3584 2450 3431 
Q 2728 3278 2906 2969 
L 2906 3500 
L 3481 3500 
L 3481 434 
z
" id="DejaVuSans-67" transform="scale(0.015625)"/>
     </defs>
     <use xlink:href="#DejaVuSans-6e"/>
     <use x="63.378906" xlink:href="#DejaVuSans-6f"/>
     <use x="124.560547" xlink:href="#DejaVuSans-6e"/>
     <use x="187.939453" xlink:href="#DejaVuSans-2d"/>
     <use x="224.023438" xlink:href="#DejaVuSans-63"/>
     <use x="279.003906" xlink:href="#DejaVuSans-6f"/>
     <use x="340.185547" xlink:href="#DejaVuSans-64"/>
     <use x="403.662109" xlink:href="#DejaVuSans-69"/>
     <use x="431.445312" xlink:href="#DejaVuSans-6e"/>
     <use x="494.824219" xlink:href="#DejaVuSans-67"/>
    </g>
   </g>
   <g id="text_2">
    <!-- 1201864 -->
    <g transform="translate(75.743848 128.998859)scale(0.1 -0.1)">
     <defs>
      <path d="M 794 531 
L 1825 531 
L 1825 4091 
L 703 3866 
L 703 4441 
L 1819 4666 
L 2450 4666 
L 2450 531 
L 3481 531 
L 3481 0 
L 794 0 
L 794 531 
z
" id="DejaVuSans-31" transform="scale(0.015625)"/>
      <path d="M 1228 531 
L 3431 531 
L 3431 0 
L 469 0 
L 469 531 
Q 828 903 1448 1529 
Q 2069 2156 2228 2338 
Q 2531 2678 2651 2914 
Q 2772 3150 2772 3378 
Q 2772 3750 2511 3984 
Q 2250 4219 1831 4219 
Q 1534 4219 1204 4116 
Q 875 4013 500 3803 
L 500 4441 
Q 881 4594 1212 4672 
Q 1544 4750 1819 4750 
Q 2544 4750 2975 4387 
Q 3406 4025 3406 3419 
Q 3406 3131 3298 2873 
Q 3191 2616 2906 2266 
Q 2828 2175 2409 1742 
Q 1991 1309 1228 531 
z
" id="DejaVuSans-32" transform="scale(0.015625)"/>
      <path d="M 2034 4250 
Q 1547 4250 1301 3770 
Q 1056 3291 1056 2328 
Q 1056 1369 1301 889 
Q 1547 409 2034 409 
Q 2525 409 2770 889 
Q 3016 1369 3016 2328 
Q 3016 3291 2770 3770 
Q 2525 4250 2034 4250 
z
M 2034 4750 
Q 2819 4750 3233 4129 
Q 3647 3509 3647 2328 
Q 3647 1150 3233 529 
Q 2819 -91 2034 -91 
Q 1250 -91 836 529 
Q 422 1150 422 2328 
Q 422 3509 836 4129 
Q 1250 4750 2034 4750 
z
" id="DejaVuSans-30" transform="scale(0.015625)"/>
      <path d="M 2034 2216 
Q 1584 2216 1326 1975 
Q 1069 1734 1069 1313 
Q 1069 891 1326 650 
Q 1584 409 2034 409 
Q 2484 409 2743 651 
Q 3003 894 3003 1313 
Q 3003 1734 2745 1975 
Q 2488 2216 2034 2216 
z
M 1403 2484 
Q 997 2584 770 2862 
Q 544 3141 544 3541 
Q 544 4100 942 4425 
Q 1341 4750 2034 4750 
Q 2731 4750 3128 4425 
Q 3525 4100 3525 3541 
Q 3525 3141 3298 2862 
Q 3072 2584 2669 2484 
Q 3125 2378 3379 2068 
Q 3634 1759 3634 1313 
Q 3634 634 3220 271 
Q 2806 -91 2034 -91 
Q 1263 -91 848 271 
Q 434 634 434 1313 
Q 434 1759 690 2068 
Q 947 2378 1403 2484 
z
M 1172 3481 
Q 1172 3119 1398 2916 
Q 1625 2713 2034 2713 
Q 2441 2713 2670 2916 
Q 2900 3119 2900 3481 
Q 2900 3844 2670 4047 
Q 2441 4250 2034 4250 
Q 1625 4250 1398 4047 
Q 1172 3844 1172 3481 
z
" id="DejaVuSans-38" transform="scale(0.015625)"/>
      <path d="M 2113 2584 
Q 1688 2584 1439 2293 
Q 1191 2003 1191 1497 
Q 1191 994 1439 701 
Q 1688 409 2113 409 
Q 2538 409 2786 701 
Q 3034 994 3034 1497 
Q 3034 2003 2786 2293 
Q 2538 2584 2113 2584 
z
M 3366 4563 
L 3366 3988 
Q 3128 4100 2886 4159 
Q 2644 4219 2406 4219 
Q 1781 4219 1451 3797 
Q 1122 3375 1075 2522 
Q 1259 2794 1537 2939 
Q 1816 3084 2150 3084 
Q 2853 3084 3261 2657 
Q 3669 2231 3669 1497 
Q 3669 778 3244 343 
Q 2819 -91 2113 -91 
Q 1303 -91 875 529 
Q 447 1150 447 2328 
Q 447 3434 972 4092 
Q 1497 4750 2381 4750 
Q 2619 4750 2861 4703 
Q 3103 4656 3366 4563 
z
" id="DejaVuSans-36" transform="scale(0.015625)"/>
      <path d="M 2419 4116 
L 825 1625 
L 2419 1625 
L 2419 4116 
z
M 2253 4666 
L 3047 4666 
L 3047 1625 
L 3713 1625 
L 3713 1100 
L 3047 1100 
L 3047 0 
L 2419 0 
L 2419 1100 
L 313 1100 
L 313 1709 
L 2253 4666 
z
" id="DejaVuSans-34" transform="scale(0.015625)"/>
     </defs>
     <use xlink:href="#DejaVuSans-31"/>
     <use x="63.623047" xlink:href="#DejaVuSans-32"/>
     <use x="127.246094" xlink:href="#DejaVuSans-30"/>
     <use x="190.869141" xlink:href="#DejaVuSans-31"/>
     <use x="254.492188" xlink:href="#DejaVuSans-38"/>
     <use x="318.115234" xlink:href="#DejaVuSans-36"/>
     <use x="381.738281" xlink:href="#DejaVuSans-34"/>
    </g>
    <!-- 49.3% -->
    <g transform="translate(82.129004 140.196671)scale(0.1 -0.1)">
     <defs>
      <path d="M 703 97 
L 703 672 
Q 941 559 1184 500 
Q 1428 441 1663 441 
Q 2288 441 2617 861 
Q 2947 1281 2994 2138 
Q 2813 1869 2534 1725 
Q 2256 1581 1919 1581 
Q 1219 1581 811 2004 
Q 403 2428 403 3163 
Q 403 3881 828 4315 
Q 1253 4750 1959 4750 
Q 2769 4750 3195 4129 
Q 3622 3509 3622 2328 
Q 3622 1225 3098 567 
Q 2575 -91 1691 -91 
Q 1453 -91 1209 -44 
Q 966 3 703 97 
z
M 1959 2075 
Q 2384 2075 2632 2365 
Q 2881 2656 2881 3163 
Q 2881 3666 2632 3958 
Q 2384 4250 1959 4250 
Q 1534 4250 1286 3958 
Q 1038 3666 1038 3163 
Q 1038 2656 1286 2365 
Q 1534 2075 1959 2075 
z
" id="DejaVuSans-39" transform="scale(0.015625)"/>
      <path d="M 684 794 
L 1344 794 
L 1344 0 
L 684 0 
L 684 794 
z
" id="DejaVuSans-2e" transform="scale(0.015625)"/>
      <path d="M 2597 2516 
Q 3050 2419 3304 2112 
Q 3559 1806 3559 1356 
Q 3559 666 3084 287 
Q 2609 -91 1734 -91 
Q 1441 -91 1130 -33 
Q 819 25 488 141 
L 488 750 
Q 750 597 1062 519 
Q 1375 441 1716 441 
Q 2309 441 2620 675 
Q 2931 909 2931 1356 
Q 2931 1769 2642 2001 
Q 2353 2234 1838 2234 
L 1294 2234 
L 1294 2753 
L 1863 2753 
Q 2328 2753 2575 2939 
Q 2822 3125 2822 3475 
Q 2822 3834 2567 4026 
Q 2313 4219 1838 4219 
Q 1578 4219 1281 4162 
Q 984 4106 628 3988 
L 628 4550 
Q 988 4650 1302 4700 
Q 1616 4750 1894 4750 
Q 2613 4750 3031 4423 
Q 3450 4097 3450 3541 
Q 3450 3153 3228 2886 
Q 3006 2619 2597 2516 
z
" id="DejaVuSans-33" transform="scale(0.015625)"/>
      <path d="M 4653 2053 
Q 4381 2053 4226 1822 
Q 4072 1591 4072 1178 
Q 4072 772 4226 539 
Q 4381 306 4653 306 
Q 4919 306 5073 539 
Q 5228 772 5228 1178 
Q 5228 1588 5073 1820 
Q 4919 2053 4653 2053 
z
M 4653 2450 
Q 5147 2450 5437 2106 
Q 5728 1763 5728 1178 
Q 5728 594 5436 251 
Q 5144 -91 4653 -91 
Q 4153 -91 3862 251 
Q 3572 594 3572 1178 
Q 3572 1766 3864 2108 
Q 4156 2450 4653 2450 
z
M 1428 4353 
Q 1159 4353 1004 4120 
Q 850 3888 850 3481 
Q 850 3069 1003 2837 
Q 1156 2606 1428 2606 
Q 1700 2606 1854 2837 
Q 2009 3069 2009 3481 
Q 2009 3884 1853 4118 
Q 1697 4353 1428 4353 
z
M 4250 4750 
L 4750 4750 
L 1831 -91 
L 1331 -91 
L 4250 4750 
z
M 1428 4750 
Q 1922 4750 2215 4408 
Q 2509 4066 2509 3481 
Q 2509 2891 2217 2550 
Q 1925 2209 1428 2209 
Q 931 2209 642 2551 
Q 353 2894 353 3481 
Q 353 4063 643 4406 
Q 934 4750 1428 4750 
z
" id="DejaVuSans-25" transform="scale(0.015625)"/>
     </defs>
     <use xlink:href="#DejaVuSans-34"/>
     <use x="63.623047" xlink:href="#DejaVuSans-39"/>
     <use x="127.246094" xlink:href="#DejaVuSans-2e"/>
     <use x="159.033203" xlink:href="#DejaVuSans-33"/>
     <use x="222.65625" xlink:href="#DejaVuSans-25"/>
    </g>
   </g>
   <g id="text_3">
    <!-- 0-fold -->
    <g transform="translate(299.056021 209.718552)scale(0.1 -0.1)">
     <defs>
      <path d="M 2375 4863 
L 2375 4384 
L 1825 4384 
Q 1516 4384 1395 4259 
Q 1275 4134 1275 3809 
L 1275 3500 
L 2222 3500 
L 2222 3053 
L 1275 3053 
L 1275 0 
L 697 0 
L 697 3053 
L 147 3053 
L 147 3500 
L 697 3500 
L 697 3744 
Q 697 4328 969 4595 
Q 1241 4863 1831 4863 
L 2375 4863 
z
" id="DejaVuSans-66" transform="scale(0.015625)"/>
      <path d="M 603 4863 
L 1178 4863 
L 1178 0 
L 603 0 
L 603 4863 
z
" id="DejaVuSans-6c" transform="scale(0.015625)"/>
     </defs>
     <use xlink:href="#DejaVuSans-30"/>
     <use x="63.623047" xlink:href="#DejaVuSans-2d"/>
     <use x="99.707031" xlink:href="#DejaVuSans-66"/>
     <use x="134.912109" xlink:href="#DejaVuSans-6f"/>
     <use x="196.09375" xlink:href="#DejaVuSans-6c"/>
     <use x="223.876953" xlink:href="#DejaVuSans-64"/>
    </g>
   </g>
   <g id="text_4">
    <!-- 801593 -->
    <g transform="translate(244.760169 180.869844)scale(0.1 -0.1)">
     <defs>
      <path d="M 691 4666 
L 3169 4666 
L 3169 4134 
L 1269 4134 
L 1269 2991 
Q 1406 3038 1543 3061 
Q 1681 3084 1819 3084 
Q 2600 3084 3056 2656 
Q 3513 2228 3513 1497 
Q 3513 744 3044 326 
Q 2575 -91 1722 -91 
Q 1428 -91 1123 -41 
Q 819 9 494 109 
L 494 744 
Q 775 591 1075 516 
Q 1375 441 1709 441 
Q 2250 441 2565 725 
Q 2881 1009 2881 1497 
Q 2881 1984 2565 2268 
Q 2250 2553 1709 2553 
Q 1456 2553 1204 2497 
Q 953 2441 691 2322 
L 691 4666 
z
" id="DejaVuSans-35" transform="scale(0.015625)"/>
     </defs>
     <use xlink:href="#DejaVuSans-38"/>
     <use x="63.623047" xlink:href="#DejaVuSans-30"/>
     <use x="127.246094" xlink:href="#DejaVuSans-31"/>
     <use x="190.869141" xlink:href="#DejaVuSans-35"/>
     <use x="254.492188" xlink:href="#DejaVuSans-39"/>
     <use x="318.115234" xlink:href="#DejaVuSans-33"/>
    </g>
    <!-- 32.9% -->
    <g transform="translate(247.964076 192.067656)scale(0.1 -0.1)">
     <use xlink:href="#DejaVuSans-33"/>
     <use x="63.623047" xlink:href="#DejaVuSans-32"/>
     <use x="127.246094" xlink:href="#DejaVuSans-2e"/>
     <use x="159.033203" xlink:href="#DejaVuSans-39"/>
     <use x="222.65625" xlink:href="#DejaVuSans-25"/>
    </g>
   </g>
   <g id="text_5">
    <!-- 2-fold -->
    <g transform="translate(282.877262 43.598801)scale(0.1 -0.1)">
     <use xlink:href="#DejaVuSans-32"/>
     <use x="63.623047" xlink:href="#DejaVuSans-2d"/>
     <use x="99.707031" xlink:href="#DejaVuSans-66"/>
     <use x="134.912109" xlink:href="#DejaVuSans-6f"/>
     <use x="196.09375" xlink:href="#DejaVuSans-6c"/>
     <use x="223.876953" xlink:href="#DejaVuSans-64"/>
    </g>
   </g>
   <g id="text_6">
    <!-- 255316 -->
    <g transform="translate(233.729197 67.606377)scale(0.1 -0.1)">
     <use xlink:href="#DejaVuSans-32"/>
     <use x="63.623047" xlink:href="#DejaVuSans-35"/>
     <use x="127.246094" xlink:href="#DejaVuSans-35"/>
     <use x="190.869141" xlink:href="#DejaVuSans-33"/>
     <use x="254.492188" xlink:href="#DejaVuSans-31"/>
     <use x="318.115234" xlink:href="#DejaVuSans-36"/>
    </g>
    <!-- 10.5% -->
    <g transform="translate(236.933103 78.80419)scale(0.1 -0.1)">
     <use xlink:href="#DejaVuSans-31"/>
     <use x="63.623047" xlink:href="#DejaVuSans-30"/>
     <use x="127.246094" xlink:href="#DejaVuSans-2e"/>
     <use x="159.033203" xlink:href="#DejaVuSans-35"/>
     <use x="222.65625" xlink:href="#DejaVuSans-25"/>
    </g>
   </g>
   <g id="text_7">
    <!-- 4-fold -->
    <g transform="translate(218.898874 7.598437)scale(0.1 -0.1)">
     <use xlink:href="#DejaVuSans-34"/>
     <use x="63.623047" xlink:href="#DejaVuSans-2d"/>
     <use x="99.707031" xlink:href="#DejaVuSans-66"/>
     <use x="134.912109" xlink:href="#DejaVuSans-6f"/>
     <use x="196.09375" xlink:href="#DejaVuSans-6c"/>
     <use x="223.876953" xlink:href="#DejaVuSans-64"/>
    </g>
   </g>
   <g id="text_8">
    <!-- 180163 -->
    <g transform="translate(190.107569 43.060675)scale(0.1 -0.1)">
     <use xlink:href="#DejaVuSans-31"/>
     <use x="63.623047" xlink:href="#DejaVuSans-38"/>
     <use x="127.246094" xlink:href="#DejaVuSans-30"/>
     <use x="190.869141" xlink:href="#DejaVuSans-31"/>
     <use x="254.492188" xlink:href="#DejaVuSans-36"/>
     <use x="318.115234" xlink:href="#DejaVuSans-33"/>
    </g>
    <!-- 7.4% -->
    <g transform="translate(196.492725 54.258487)scale(0.1 -0.1)">
     <defs>
      <path d="M 525 4666 
L 3525 4666 
L 3525 4397 
L 1831 0 
L 1172 0 
L 2766 4134 
L 525 4134 
L 525 4666 
z
" id="DejaVuSans-37" transform="scale(0.015625)"/>
     </defs>
     <use xlink:href="#DejaVuSans-37"/>
     <use x="63.623047" xlink:href="#DejaVuSans-2e"/>
     <use x="95.410156" xlink:href="#DejaVuSans-34"/>
     <use x="159.033203" xlink:href="#DejaVuSans-25"/>
    </g>
   </g>
   <g id="legend_1">
    <g id="patch_14">
     <path d="M 17.065001 67.955742 
L 134.713438 67.955742 
Q 136.713438 67.955742 136.713438 65.955742 
L 136.713438 8.243242 
Q 136.713438 6.243242 134.713438 6.243242 
L 17.065001 6.243242 
Q 15.065001 6.243242 15.065001 8.243242 
L 15.065001 65.955742 
Q 15.065001 67.955742 17.065001 67.955742 
z
" style="fill:#ffffff;opacity:0.8;stroke:#cccccc;stroke-linejoin:miter;"/>
    </g>
    <g id="patch_15">
     <path d="M 19.065001 17.841679 
L 39.065001 17.841679 
L 39.065001 10.841679 
L 19.065001 10.841679 
z
" style="fill:#fd8d3c;stroke:#ffffff;stroke-linejoin:miter;"/>
    </g>
    <g id="text_9">
     <!-- non-synonymous -->
     <g transform="translate(47.065001 17.841679)scale(0.1 -0.1)">
      <defs>
       <path d="M 2834 3397 
L 2834 2853 
Q 2591 2978 2328 3040 
Q 2066 3103 1784 3103 
Q 1356 3103 1142 2972 
Q 928 2841 928 2578 
Q 928 2378 1081 2264 
Q 1234 2150 1697 2047 
L 1894 2003 
Q 2506 1872 2764 1633 
Q 3022 1394 3022 966 
Q 3022 478 2636 193 
Q 2250 -91 1575 -91 
Q 1294 -91 989 -36 
Q 684 19 347 128 
L 347 722 
Q 666 556 975 473 
Q 1284 391 1588 391 
Q 1994 391 2212 530 
Q 2431 669 2431 922 
Q 2431 1156 2273 1281 
Q 2116 1406 1581 1522 
L 1381 1569 
Q 847 1681 609 1914 
Q 372 2147 372 2553 
Q 372 3047 722 3315 
Q 1072 3584 1716 3584 
Q 2034 3584 2315 3537 
Q 2597 3491 2834 3397 
z
" id="DejaVuSans-73" transform="scale(0.015625)"/>
       <path d="M 2059 -325 
Q 1816 -950 1584 -1140 
Q 1353 -1331 966 -1331 
L 506 -1331 
L 506 -850 
L 844 -850 
Q 1081 -850 1212 -737 
Q 1344 -625 1503 -206 
L 1606 56 
L 191 3500 
L 800 3500 
L 1894 763 
L 2988 3500 
L 3597 3500 
L 2059 -325 
z
" id="DejaVuSans-79" transform="scale(0.015625)"/>
       <path d="M 3328 2828 
Q 3544 3216 3844 3400 
Q 4144 3584 4550 3584 
Q 5097 3584 5394 3201 
Q 5691 2819 5691 2113 
L 5691 0 
L 5113 0 
L 5113 2094 
Q 5113 2597 4934 2840 
Q 4756 3084 4391 3084 
Q 3944 3084 3684 2787 
Q 3425 2491 3425 1978 
L 3425 0 
L 2847 0 
L 2847 2094 
Q 2847 2600 2669 2842 
Q 2491 3084 2119 3084 
Q 1678 3084 1418 2786 
Q 1159 2488 1159 1978 
L 1159 0 
L 581 0 
L 581 3500 
L 1159 3500 
L 1159 2956 
Q 1356 3278 1631 3431 
Q 1906 3584 2284 3584 
Q 2666 3584 2933 3390 
Q 3200 3197 3328 2828 
z
" id="DejaVuSans-6d" transform="scale(0.015625)"/>
       <path d="M 544 1381 
L 544 3500 
L 1119 3500 
L 1119 1403 
Q 1119 906 1312 657 
Q 1506 409 1894 409 
Q 2359 409 2629 706 
Q 2900 1003 2900 1516 
L 2900 3500 
L 3475 3500 
L 3475 0 
L 2900 0 
L 2900 538 
Q 2691 219 2414 64 
Q 2138 -91 1772 -91 
Q 1169 -91 856 284 
Q 544 659 544 1381 
z
M 1991 3584 
L 1991 3584 
z
" id="DejaVuSans-75" transform="scale(0.015625)"/>
      </defs>
      <use xlink:href="#DejaVuSans-6e"/>
      <use x="63.378906" xlink:href="#DejaVuSans-6f"/>
      <use x="124.560547" xlink:href="#DejaVuSans-6e"/>
      <use x="187.939453" xlink:href="#DejaVuSans-2d"/>
      <use x="224.023438" xlink:href="#DejaVuSans-73"/>
      <use x="276.123047" xlink:href="#DejaVuSans-79"/>
      <use x="335.302734" xlink:href="#DejaVuSans-6e"/>
      <use x="398.681641" xlink:href="#DejaVuSans-6f"/>
      <use x="459.863281" xlink:href="#DejaVuSans-6e"/>
      <use x="523.242188" xlink:href="#DejaVuSans-79"/>
      <use x="582.421875" xlink:href="#DejaVuSans-6d"/>
      <use x="679.833984" xlink:href="#DejaVuSans-6f"/>
      <use x="741.015625" xlink:href="#DejaVuSans-75"/>
      <use x="804.394531" xlink:href="#DejaVuSans-73"/>
     </g>
    </g>
    <g id="patch_16">
     <path d="M 19.065001 32.519804 
L 39.065001 32.519804 
L 39.065001 25.519804 
L 19.065001 25.519804 
z
" style="fill:#74c476;stroke:#ffffff;stroke-linejoin:miter;"/>
    </g>
    <g id="text_10">
     <!-- non-synonymous -->
     <g transform="translate(47.065001 32.519804)scale(0.1 -0.1)">
      <use xlink:href="#DejaVuSans-6e"/>
      <use x="63.378906" xlink:href="#DejaVuSans-6f"/>
      <use x="124.560547" xlink:href="#DejaVuSans-6e"/>
      <use x="187.939453" xlink:href="#DejaVuSans-2d"/>
      <use x="224.023438" xlink:href="#DejaVuSans-73"/>
      <use x="276.123047" xlink:href="#DejaVuSans-79"/>
      <use x="335.302734" xlink:href="#DejaVuSans-6e"/>
      <use x="398.681641" xlink:href="#DejaVuSans-6f"/>
      <use x="459.863281" xlink:href="#DejaVuSans-6e"/>
      <use x="523.242188" xlink:href="#DejaVuSans-79"/>
      <use x="582.421875" xlink:href="#DejaVuSans-6d"/>
      <use x="679.833984" xlink:href="#DejaVuSans-6f"/>
      <use x="741.015625" xlink:href="#DejaVuSans-75"/>
      <use x="804.394531" xlink:href="#DejaVuSans-73"/>
     </g>
    </g>
    <g id="patch_17">
     <path d="M 19.065001 47.197929 
L 39.065001 47.197929 
L 39.065001 40.197929 
L 19.065001 40.197929 
z
" style="fill:#a1d99b;stroke:#ffffff;stroke-linejoin:miter;"/>
    </g>
    <g id="text_11">
     <!-- synonymous -->
     <g transform="translate(47.065001 47.197929)scale(0.1 -0.1)">
      <use xlink:href="#DejaVuSans-73"/>
      <use x="52.099609" xlink:href="#DejaVuSans-79"/>
      <use x="111.279297" xlink:href="#DejaVuSans-6e"/>
      <use x="174.658203" xlink:href="#DejaVuSans-6f"/>
      <use x="235.839844" xlink:href="#DejaVuSans-6e"/>
      <use x="299.21875" xlink:href="#DejaVuSans-79"/>
      <use x="358.398438" xlink:href="#DejaVuSans-6d"/>
      <use x="455.810547" xlink:href="#DejaVuSans-6f"/>
      <use x="516.992188" xlink:href="#DejaVuSans-75"/>
      <use x="580.371094" xlink:href="#DejaVuSans-73"/>
     </g>
    </g>
    <g id="patch_18">
     <path d="M 19.065001 61.876054 
L 39.065001 61.876054 
L 39.065001 54.876054 
L 19.065001 54.876054 
z
" style="fill:#9e9ac8;stroke:#ffffff;stroke-linejoin:miter;"/>
    </g>
    <g id="text_12">
     <!-- synonymous -->
     <g transform="translate(47.065001 61.876054)scale(0.1 -0.1)">
      <use xlink:href="#DejaVuSans-73"/>
      <use x="52.099609" xlink:href="#DejaVuSans-79"/>
      <use x="111.279297" xlink:href="#DejaVuSans-6e"/>
      <use x="174.658203" xlink:href="#DejaVuSans-6f"/>
      <use x="235.839844" xlink:href="#DejaVuSans-6e"/>
      <use x="299.21875" xlink:href="#DejaVuSans-79"/>
      <use x="358.398438" xlink:href="#DejaVuSans-6d"/>
      <use x="455.810547" xlink:href="#DejaVuSans-6f"/>
      <use x="516.992188" xlink:href="#DejaVuSans-75"/>
      <use x="580.371094" xlink:href="#DejaVuSans-73"/>
     </g>
    </g>
   </g>
  </g>
 </g>
</svg>
