<?xml version="1.0" encoding="utf-8" standalone="no"?>
<!DOCTYPE svg PUBLIC "-//W3C//DTD SVG 1.1//EN"
  "http://www.w3.org/Graphics/SVG/1.1/DTD/svg11.dtd">
<svg height="345.6pt" version="1.1" viewBox="0 0 460.8 345.6" width="460.8pt" xmlns="http://www.w3.org/2000/svg" xmlns:xlink="http://www.w3.org/1999/xlink">
 <metadata>
  <rdf:RDF xmlns:cc="http://creativecommons.org/ns#" xmlns:dc="http://purl.org/dc/elements/1.1/" xmlns:rdf="http://www.w3.org/1999/02/22-rdf-syntax-ns#">
   <cc:Work>
    <dc:type rdf:resource="http://purl.org/dc/dcmitype/StillImage"/>
    <dc:date>2021-12-16T17:30:29.870753</dc:date>
    <dc:format>image/svg+xml</dc:format>
    <dc:creator>
     <cc:Agent>
      <dc:title>Matplotlib v3.4.3, https://matplotlib.org/</dc:title>
     </cc:Agent>
    </dc:creator>
   </cc:Work>
  </rdf:RDF>
 </metadata>
 <defs>
  <style type="text/css">*{stroke-linecap:butt;stroke-linejoin:round;}</style>
 </defs>
 <g id="figure_1">
  <g id="patch_1">
   <path d="M 0 345.6 
L 460.8 345.6 
L 460.8 0 
L 0 0 
z
" style="fill:#ffffff;"/>
  </g>
  <g id="axes_1">
   <g id="patch_2">
    <path d="M 57.6 307.584 
L 414.72 307.584 
L 414.72 41.472 
L 57.6 41.472 
z
" style="fill:#ffffff;"/>
   </g>
   <g id="patch_3">
    <path clip-path="url(#pa42a71af49)" d="M 57.6 307.584 
L 60.849828 307.584 
L 60.849828 41.472 
L 57.6 41.472 
z
" style="fill:#1f77b4;"/>
   </g>
   <g id="patch_4">
    <path clip-path="url(#pa42a71af49)" d="M 61.21092 307.584 
L 64.460748 307.584 
L 64.460748 189.858237 
L 61.21092 189.858237 
z
" style="fill:#1f77b4;"/>
   </g>
   <g id="patch_5">
    <path clip-path="url(#pa42a71af49)" d="M 64.82184 307.584 
L 68.071668 307.584 
L 68.071668 236.457195 
L 64.82184 236.457195 
z
" style="fill:#1f77b4;"/>
   </g>
   <g id="patch_6">
    <path clip-path="url(#pa42a71af49)" d="M 68.43276 307.584 
L 71.682588 307.584 
L 71.682588 257.852824 
L 68.43276 257.852824 
z
" style="fill:#1f77b4;"/>
   </g>
   <g id="patch_7">
    <path clip-path="url(#pa42a71af49)" d="M 72.04368 307.584 
L 75.293509 307.584 
L 75.293509 270.052226 
L 72.04368 270.052226 
z
" style="fill:#1f77b4;"/>
   </g>
   <g id="patch_8">
    <path clip-path="url(#pa42a71af49)" d="M 75.654601 307.584 
L 78.904429 307.584 
L 78.904429 277.799201 
L 75.654601 277.799201 
z
" style="fill:#1f77b4;"/>
   </g>
   <g id="patch_9">
    <path clip-path="url(#pa42a71af49)" d="M 79.265521 307.584 
L 82.515349 307.584 
L 82.515349 283.156638 
L 79.265521 283.156638 
z
" style="fill:#1f77b4;"/>
   </g>
   <g id="patch_10">
    <path clip-path="url(#pa42a71af49)" d="M 82.876441 307.584 
L 86.126269 307.584 
L 86.126269 287.08982 
L 82.876441 287.08982 
z
" style="fill:#1f77b4;"/>
   </g>
   <g id="patch_11">
    <path clip-path="url(#pa42a71af49)" d="M 86.487361 307.584 
L 89.737189 307.584 
L 89.737189 290.10239 
L 86.487361 290.10239 
z
" style="fill:#1f77b4;"/>
   </g>
   <g id="patch_12">
    <path clip-path="url(#pa42a71af49)" d="M 90.098281 307.584 
L 93.348109 307.584 
L 93.348109 292.474116 
L 90.098281 292.474116 
z
" style="fill:#1f77b4;"/>
   </g>
   <g id="patch_13">
    <path clip-path="url(#pa42a71af49)" d="M 93.709201 307.584 
L 96.959029 307.584 
L 96.959029 294.37321 
L 93.709201 294.37321 
z
" style="fill:#1f77b4;"/>
   </g>
   <g id="patch_14">
    <path clip-path="url(#pa42a71af49)" d="M 97.320121 307.584 
L 100.569949 307.584 
L 100.569949 295.910041 
L 97.320121 295.910041 
z
" style="fill:#1f77b4;"/>
   </g>
   <g id="patch_15">
    <path clip-path="url(#pa42a71af49)" d="M 100.931041 307.584 
L 104.18087 307.584 
L 104.18087 297.158161 
L 100.931041 297.158161 
z
" style="fill:#1f77b4;"/>
   </g>
   <g id="patch_16">
    <path clip-path="url(#pa42a71af49)" d="M 104.541962 307.584 
L 107.79179 307.584 
L 107.79179 298.168822 
L 104.541962 298.168822 
z
" style="fill:#1f77b4;"/>
   </g>
   <g id="patch_17">
    <path clip-path="url(#pa42a71af49)" d="M 108.152882 307.584 
L 111.40271 307.584 
L 111.40271 298.986922 
L 108.152882 298.986922 
z
" style="fill:#1f77b4;"/>
   </g>
   <g id="patch_18">
    <path clip-path="url(#pa42a71af49)" d="M 111.763802 307.584 
L 115.01363 307.584 
L 115.01363 299.659843 
L 111.763802 299.659843 
z
" style="fill:#1f77b4;"/>
   </g>
   <g id="patch_19">
    <path clip-path="url(#pa42a71af49)" d="M 115.374722 307.584 
L 118.62455 307.584 
L 118.62455 300.234917 
L 115.374722 300.234917 
z
" style="fill:#1f77b4;"/>
   </g>
   <g id="patch_20">
    <path clip-path="url(#pa42a71af49)" d="M 118.985642 307.584 
L 122.23547 307.584 
L 122.23547 300.750904 
L 118.985642 300.750904 
z
" style="fill:#1f77b4;"/>
   </g>
   <g id="patch_21">
    <path clip-path="url(#pa42a71af49)" d="M 122.596562 307.584 
L 125.84639 307.584 
L 125.84639 301.231698 
L 122.596562 301.231698 
z
" style="fill:#1f77b4;"/>
   </g>
   <g id="patch_22">
    <path clip-path="url(#pa42a71af49)" d="M 126.207482 307.584 
L 129.45731 307.584 
L 129.45731 301.686146 
L 126.207482 301.686146 
z
" style="fill:#1f77b4;"/>
   </g>
   <g id="patch_23">
    <path clip-path="url(#pa42a71af49)" d="M 129.818402 307.584 
L 133.068231 307.584 
L 133.068231 302.112504 
L 129.818402 302.112504 
z
" style="fill:#1f77b4;"/>
   </g>
   <g id="patch_24">
    <path clip-path="url(#pa42a71af49)" d="M 133.429323 307.584 
L 136.679151 307.584 
L 136.679151 302.504176 
L 133.429323 302.504176 
z
" style="fill:#1f77b4;"/>
   </g>
   <g id="patch_25">
    <path clip-path="url(#pa42a71af49)" d="M 137.040243 307.584 
L 140.290071 307.584 
L 140.290071 302.854517 
L 137.040243 302.854517 
z
" style="fill:#1f77b4;"/>
   </g>
   <g id="patch_26">
    <path clip-path="url(#pa42a71af49)" d="M 140.651163 307.584 
L 143.900991 307.584 
L 143.900991 303.159913 
L 140.651163 303.159913 
z
" style="fill:#1f77b4;"/>
   </g>
   <g id="patch_27">
    <path clip-path="url(#pa42a71af49)" d="M 144.262083 307.584 
L 147.511911 307.584 
L 147.511911 303.421167 
L 144.262083 303.421167 
z
" style="fill:#1f77b4;"/>
   </g>
   <g id="patch_28">
    <path clip-path="url(#pa42a71af49)" d="M 147.873003 307.584 
L 151.122831 307.584 
L 151.122831 303.643394 
L 147.873003 303.643394 
z
" style="fill:#1f77b4;"/>
   </g>
   <g id="patch_29">
    <path clip-path="url(#pa42a71af49)" d="M 151.483923 307.584 
L 154.733751 307.584 
L 154.733751 303.834757 
L 151.483923 303.834757 
z
" style="fill:#1f77b4;"/>
   </g>
   <g id="patch_30">
    <path clip-path="url(#pa42a71af49)" d="M 155.094843 307.584 
L 158.344671 307.584 
L 158.344671 304.004503 
L 155.094843 304.004503 
z
" style="fill:#1f77b4;"/>
   </g>
   <g id="patch_31">
    <path clip-path="url(#pa42a71af49)" d="M 158.705763 307.584 
L 161.955592 307.584 
L 161.955592 304.161 
L 158.705763 304.161 
z
" style="fill:#1f77b4;"/>
   </g>
   <g id="patch_32">
    <path clip-path="url(#pa42a71af49)" d="M 162.316684 307.584 
L 165.566512 307.584 
L 165.566512 304.310455 
L 162.316684 304.310455 
z
" style="fill:#1f77b4;"/>
   </g>
   <g id="patch_33">
    <path clip-path="url(#pa42a71af49)" d="M 165.927604 307.584 
L 169.177432 307.584 
L 169.177432 304.45661 
L 165.927604 304.45661 
z
" style="fill:#1f77b4;"/>
   </g>
   <g id="patch_34">
    <path clip-path="url(#pa42a71af49)" d="M 169.538524 307.584 
L 172.788352 307.584 
L 172.788352 304.601165 
L 169.538524 304.601165 
z
" style="fill:#1f77b4;"/>
   </g>
   <g id="patch_35">
    <path clip-path="url(#pa42a71af49)" d="M 173.149444 307.584 
L 176.399272 307.584 
L 176.399272 304.744382 
L 173.149444 304.744382 
z
" style="fill:#1f77b4;"/>
   </g>
   <g id="patch_36">
    <path clip-path="url(#pa42a71af49)" d="M 176.760364 307.584 
L 180.010192 307.584 
L 180.010192 304.885495 
L 176.760364 304.885495 
z
" style="fill:#1f77b4;"/>
   </g>
   <g id="patch_37">
    <path clip-path="url(#pa42a71af49)" d="M 180.371284 307.584 
L 183.621112 307.584 
L 183.621112 305.022939 
L 180.371284 305.022939 
z
" style="fill:#1f77b4;"/>
   </g>
   <g id="patch_38">
    <path clip-path="url(#pa42a71af49)" d="M 183.982204 307.584 
L 187.232032 307.584 
L 187.232032 305.154646 
L 183.982204 305.154646 
z
" style="fill:#1f77b4;"/>
   </g>
   <g id="patch_39">
    <path clip-path="url(#pa42a71af49)" d="M 187.593124 307.584 
L 190.842952 307.584 
L 190.842952 305.278499 
L 187.593124 305.278499 
z
" style="fill:#1f77b4;"/>
   </g>
   <g id="patch_40">
    <path clip-path="url(#pa42a71af49)" d="M 191.204044 307.584 
L 194.453873 307.584 
L 194.453873 305.39285 
L 191.204044 305.39285 
z
" style="fill:#1f77b4;"/>
   </g>
   <g id="patch_41">
    <path clip-path="url(#pa42a71af49)" d="M 194.814965 307.584 
L 198.064793 307.584 
L 198.064793 305.496843 
L 194.814965 305.496843 
z
" style="fill:#1f77b4;"/>
   </g>
   <g id="patch_42">
    <path clip-path="url(#pa42a71af49)" d="M 198.425885 307.584 
L 201.675713 307.584 
L 201.675713 305.590422 
L 198.425885 305.590422 
z
" style="fill:#1f77b4;"/>
   </g>
   <g id="patch_43">
    <path clip-path="url(#pa42a71af49)" d="M 202.036805 307.584 
L 205.286633 307.584 
L 205.286633 305.674103 
L 202.036805 305.674103 
z
" style="fill:#1f77b4;"/>
   </g>
   <g id="patch_44">
    <path clip-path="url(#pa42a71af49)" d="M 205.647725 307.584 
L 208.897553 307.584 
L 208.897553 305.748689 
L 205.647725 305.748689 
z
" style="fill:#1f77b4;"/>
   </g>
   <g id="patch_45">
    <path clip-path="url(#pa42a71af49)" d="M 209.258645 307.584 
L 212.508473 307.584 
L 212.508473 305.815095 
L 209.258645 305.815095 
z
" style="fill:#1f77b4;"/>
   </g>
   <g id="patch_46">
    <path clip-path="url(#pa42a71af49)" d="M 212.869565 307.584 
L 216.119393 307.584 
L 216.119393 305.874283 
L 212.869565 305.874283 
z
" style="fill:#1f77b4;"/>
   </g>
   <g id="patch_47">
    <path clip-path="url(#pa42a71af49)" d="M 216.480485 307.584 
L 219.730313 307.584 
L 219.730313 305.927229 
L 216.480485 305.927229 
z
" style="fill:#1f77b4;"/>
   </g>
   <g id="patch_48">
    <path clip-path="url(#pa42a71af49)" d="M 220.091405 307.584 
L 223.341234 307.584 
L 223.341234 305.974815 
L 220.091405 305.974815 
z
" style="fill:#1f77b4;"/>
   </g>
   <g id="patch_49">
    <path clip-path="url(#pa42a71af49)" d="M 223.702326 307.584 
L 226.952154 307.584 
L 226.952154 306.017631 
L 223.702326 306.017631 
z
" style="fill:#1f77b4;"/>
   </g>
   <g id="patch_50">
    <path clip-path="url(#pa42a71af49)" d="M 227.313246 307.584 
L 230.563074 307.584 
L 230.563074 306.055797 
L 227.313246 306.055797 
z
" style="fill:#1f77b4;"/>
   </g>
   <g id="patch_51">
    <path clip-path="url(#pa42a71af49)" d="M 230.924166 307.584 
L 234.173994 307.584 
L 234.173994 306.08894 
L 230.924166 306.08894 
z
" style="fill:#1f77b4;"/>
   </g>
   <g id="patch_52">
    <path clip-path="url(#pa42a71af49)" d="M 234.535086 307.584 
L 237.784914 307.584 
L 237.784914 306.116433 
L 234.535086 306.116433 
z
" style="fill:#1f77b4;"/>
   </g>
   <g id="patch_53">
    <path clip-path="url(#pa42a71af49)" d="M 238.146006 307.584 
L 241.395834 307.584 
L 241.395834 306.137825 
L 238.146006 306.137825 
z
" style="fill:#1f77b4;"/>
   </g>
   <g id="patch_54">
    <path clip-path="url(#pa42a71af49)" d="M 241.756926 307.584 
L 245.006754 307.584 
L 245.006754 306.153273 
L 241.756926 306.153273 
z
" style="fill:#1f77b4;"/>
   </g>
   <g id="patch_55">
    <path clip-path="url(#pa42a71af49)" d="M 245.367846 307.584 
L 248.617674 307.584 
L 248.617674 306.163782 
L 245.367846 306.163782 
z
" style="fill:#1f77b4;"/>
   </g>
   <g id="patch_56">
    <path clip-path="url(#pa42a71af49)" d="M 248.978766 307.584 
L 252.228595 307.584 
L 252.228595 306.171111 
L 248.978766 306.171111 
z
" style="fill:#1f77b4;"/>
   </g>
   <g id="patch_57">
    <path clip-path="url(#pa42a71af49)" d="M 252.589687 307.584 
L 255.839515 307.584 
L 255.839515 306.177405 
L 252.589687 306.177405 
z
" style="fill:#1f77b4;"/>
   </g>
   <g id="patch_58">
    <path clip-path="url(#pa42a71af49)" d="M 256.200607 307.584 
L 259.450435 307.584 
L 259.450435 306.184715 
L 256.200607 306.184715 
z
" style="fill:#1f77b4;"/>
   </g>
   <g id="patch_59">
    <path clip-path="url(#pa42a71af49)" d="M 259.811527 307.584 
L 263.061355 307.584 
L 263.061355 306.194593 
L 259.811527 306.194593 
z
" style="fill:#1f77b4;"/>
   </g>
   <g id="patch_60">
    <path clip-path="url(#pa42a71af49)" d="M 263.422447 307.584 
L 266.672275 307.584 
L 266.672275 306.207849 
L 263.422447 306.207849 
z
" style="fill:#1f77b4;"/>
   </g>
   <g id="patch_61">
    <path clip-path="url(#pa42a71af49)" d="M 267.033367 307.584 
L 270.283195 307.584 
L 270.283195 306.224511 
L 267.033367 306.224511 
z
" style="fill:#1f77b4;"/>
   </g>
   <g id="patch_62">
    <path clip-path="url(#pa42a71af49)" d="M 270.644287 307.584 
L 273.894115 307.584 
L 273.894115 306.243925 
L 270.644287 306.243925 
z
" style="fill:#1f77b4;"/>
   </g>
   <g id="patch_63">
    <path clip-path="url(#pa42a71af49)" d="M 274.255207 307.584 
L 277.505035 307.584 
L 277.505035 306.264954 
L 274.255207 306.264954 
z
" style="fill:#1f77b4;"/>
   </g>
   <g id="patch_64">
    <path clip-path="url(#pa42a71af49)" d="M 277.866127 307.584 
L 281.115956 307.584 
L 281.115956 306.286252 
L 277.866127 306.286252 
z
" style="fill:#1f77b4;"/>
   </g>
   <g id="patch_65">
    <path clip-path="url(#pa42a71af49)" d="M 281.477048 307.584 
L 284.726876 307.584 
L 284.726876 306.306567 
L 281.477048 306.306567 
z
" style="fill:#1f77b4;"/>
   </g>
   <g id="patch_66">
    <path clip-path="url(#pa42a71af49)" d="M 285.087968 307.584 
L 288.337796 307.584 
L 288.337796 306.325041 
L 285.087968 306.325041 
z
" style="fill:#1f77b4;"/>
   </g>
   <g id="patch_67">
    <path clip-path="url(#pa42a71af49)" d="M 288.698888 307.584 
L 291.948716 307.584 
L 291.948716 306.341435 
L 288.698888 306.341435 
z
" style="fill:#1f77b4;"/>
   </g>
   <g id="patch_68">
    <path clip-path="url(#pa42a71af49)" d="M 292.309808 307.584 
L 295.559636 307.584 
L 295.559636 306.356193 
L 292.309808 306.356193 
z
" style="fill:#1f77b4;"/>
   </g>
   <g id="patch_69">
    <path clip-path="url(#pa42a71af49)" d="M 295.920728 307.584 
L 299.170556 307.584 
L 299.170556 306.370266 
L 295.920728 306.370266 
z
" style="fill:#1f77b4;"/>
   </g>
   <g id="patch_70">
    <path clip-path="url(#pa42a71af49)" d="M 299.531648 307.584 
L 302.781476 307.584 
L 302.781476 306.384705 
L 299.531648 306.384705 
z
" style="fill:#1f77b4;"/>
   </g>
   <g id="patch_71">
    <path clip-path="url(#pa42a71af49)" d="M 303.142568 307.584 
L 306.392396 307.584 
L 306.392396 306.400145 
L 303.142568 306.400145 
z
" style="fill:#1f77b4;"/>
   </g>
   <g id="patch_72">
    <path clip-path="url(#pa42a71af49)" d="M 306.753488 307.584 
L 310.003316 307.584 
L 310.003316 306.416399 
L 306.753488 306.416399 
z
" style="fill:#1f77b4;"/>
   </g>
   <g id="patch_73">
    <path clip-path="url(#pa42a71af49)" d="M 310.364408 307.584 
L 313.614237 307.584 
L 313.614237 306.432395 
L 310.364408 306.432395 
z
" style="fill:#1f77b4;"/>
   </g>
   <g id="patch_74">
    <path clip-path="url(#pa42a71af49)" d="M 313.975329 307.584 
L 317.225157 307.584 
L 317.225157 306.446513 
L 313.975329 306.446513 
z
" style="fill:#1f77b4;"/>
   </g>
   <g id="patch_75">
    <path clip-path="url(#pa42a71af49)" d="M 317.586249 307.584 
L 320.836077 307.584 
L 320.836077 306.457207 
L 317.586249 306.457207 
z
" style="fill:#1f77b4;"/>
   </g>
   <g id="patch_76">
    <path clip-path="url(#pa42a71af49)" d="M 321.197169 307.584 
L 324.446997 307.584 
L 324.446997 306.463636 
L 321.197169 306.463636 
z
" style="fill:#1f77b4;"/>
   </g>
   <g id="patch_77">
    <path clip-path="url(#pa42a71af49)" d="M 324.808089 307.584 
L 328.057917 307.584 
L 328.057917 306.466 
L 324.808089 306.466 
z
" style="fill:#1f77b4;"/>
   </g>
   <g id="patch_78">
    <path clip-path="url(#pa42a71af49)" d="M 328.419009 307.584 
L 331.668837 307.584 
L 331.668837 306.465423 
L 328.419009 306.465423 
z
" style="fill:#1f77b4;"/>
   </g>
   <g id="patch_79">
    <path clip-path="url(#pa42a71af49)" d="M 332.029929 307.584 
L 335.279757 307.584 
L 335.279757 306.463458 
L 332.029929 306.463458 
z
" style="fill:#1f77b4;"/>
   </g>
   <g id="patch_80">
    <path clip-path="url(#pa42a71af49)" d="M 335.640849 307.584 
L 338.890677 307.584 
L 338.890677 306.461517 
L 335.640849 306.461517 
z
" style="fill:#1f77b4;"/>
   </g>
   <g id="patch_81">
    <path clip-path="url(#pa42a71af49)" d="M 339.251769 307.584 
L 342.501598 307.584 
L 342.501598 306.460618 
L 339.251769 306.460618 
z
" style="fill:#1f77b4;"/>
   </g>
   <g id="patch_82">
    <path clip-path="url(#pa42a71af49)" d="M 342.86269 307.584 
L 346.112518 307.584 
L 346.112518 306.461572 
L 342.86269 306.461572 
z
" style="fill:#1f77b4;"/>
   </g>
   <g id="patch_83">
    <path clip-path="url(#pa42a71af49)" d="M 346.47361 307.584 
L 349.723438 307.584 
L 349.723438 306.465362 
L 346.47361 306.465362 
z
" style="fill:#1f77b4;"/>
   </g>
   <g id="patch_84">
    <path clip-path="url(#pa42a71af49)" d="M 350.08453 307.584 
L 353.334358 307.584 
L 353.334358 306.473117 
L 350.08453 306.473117 
z
" style="fill:#1f77b4;"/>
   </g>
   <g id="patch_85">
    <path clip-path="url(#pa42a71af49)" d="M 353.69545 307.584 
L 356.945278 307.584 
L 356.945278 306.485281 
L 353.69545 306.485281 
z
" style="fill:#1f77b4;"/>
   </g>
   <g id="patch_86">
    <path clip-path="url(#pa42a71af49)" d="M 357.30637 307.584 
L 360.556198 307.584 
L 360.556198 306.500223 
L 357.30637 306.500223 
z
" style="fill:#1f77b4;"/>
   </g>
   <g id="patch_87">
    <path clip-path="url(#pa42a71af49)" d="M 360.91729 307.584 
L 364.167118 307.584 
L 364.167118 306.513265 
L 360.91729 306.513265 
z
" style="fill:#1f77b4;"/>
   </g>
   <g id="patch_88">
    <path clip-path="url(#pa42a71af49)" d="M 364.52821 307.584 
L 367.778038 307.584 
L 367.778038 306.517256 
L 364.52821 306.517256 
z
" style="fill:#1f77b4;"/>
   </g>
   <g id="patch_89">
    <path clip-path="url(#pa42a71af49)" d="M 368.13913 307.584 
L 371.388959 307.584 
L 371.388959 306.505108 
L 368.13913 306.505108 
z
" style="fill:#1f77b4;"/>
   </g>
   <g id="patch_90">
    <path clip-path="url(#pa42a71af49)" d="M 371.750051 307.584 
L 374.999879 307.584 
L 374.999879 306.473241 
L 371.750051 306.473241 
z
" style="fill:#1f77b4;"/>
   </g>
   <g id="patch_91">
    <path clip-path="url(#pa42a71af49)" d="M 375.360971 307.584 
L 378.610799 307.584 
L 378.610799 306.423426 
L 375.360971 306.423426 
z
" style="fill:#1f77b4;"/>
   </g>
   <g id="patch_92">
    <path clip-path="url(#pa42a71af49)" d="M 378.971891 307.584 
L 382.221719 307.584 
L 382.221719 306.36025 
L 378.971891 306.36025 
z
" style="fill:#1f77b4;"/>
   </g>
   <g id="patch_93">
    <path clip-path="url(#pa42a71af49)" d="M 382.582811 307.584 
L 385.832639 307.584 
L 385.832639 306.28426 
L 382.582811 306.28426 
z
" style="fill:#1f77b4;"/>
   </g>
   <g id="patch_94">
    <path clip-path="url(#pa42a71af49)" d="M 386.193731 307.584 
L 389.443559 307.584 
L 389.443559 306.186284 
L 386.193731 306.186284 
z
" style="fill:#1f77b4;"/>
   </g>
   <g id="patch_95">
    <path clip-path="url(#pa42a71af49)" d="M 389.804651 307.584 
L 393.054479 307.584 
L 393.054479 306.0499 
L 389.804651 306.0499 
z
" style="fill:#1f77b4;"/>
   </g>
   <g id="patch_96">
    <path clip-path="url(#pa42a71af49)" d="M 393.415571 307.584 
L 396.665399 307.584 
L 396.665399 305.863437 
L 393.415571 305.863437 
z
" style="fill:#1f77b4;"/>
   </g>
   <g id="patch_97">
    <path clip-path="url(#pa42a71af49)" d="M 397.026491 307.584 
L 400.27632 307.584 
L 400.27632 305.633028 
L 397.026491 305.633028 
z
" style="fill:#1f77b4;"/>
   </g>
   <g id="patch_98">
    <path clip-path="url(#pa42a71af49)" d="M 400.637412 307.584 
L 403.88724 307.584 
L 403.88724 305.387113 
L 400.637412 305.387113 
z
" style="fill:#1f77b4;"/>
   </g>
   <g id="patch_99">
    <path clip-path="url(#pa42a71af49)" d="M 404.248332 307.584 
L 407.49816 307.584 
L 407.49816 305.15808 
L 404.248332 305.15808 
z
" style="fill:#1f77b4;"/>
   </g>
   <g id="patch_100">
    <path clip-path="url(#pa42a71af49)" d="M 407.859252 307.584 
L 411.10908 307.584 
L 411.10908 304.880786 
L 407.859252 304.880786 
z
" style="fill:#1f77b4;"/>
   </g>
   <g id="patch_101">
    <path clip-path="url(#pa42a71af49)" d="M 411.470172 307.584 
L 414.72 307.584 
L 414.72 303.355512 
L 411.470172 303.355512 
z
" style="fill:#1f77b4;"/>
   </g>
   <g id="matplotlib.axis_1">
    <g id="xtick_1">
     <g id="line2d_1">
      <defs>
       <path d="M 0 0 
L 0 3.5 
" id="mf87256bfb8" style="stroke:#000000;stroke-width:0.8;"/>
      </defs>
      <g>
       <use style="stroke:#000000;stroke-width:0.8;" x="59.224914" xlink:href="#mf87256bfb8" y="307.584"/>
      </g>
     </g>
     <g id="text_1">
      <!-- 1 -->
      <g transform="translate(56.043664 322.182437)scale(0.1 -0.1)">
       <defs>
        <path d="M 794 531 
L 1825 531 
L 1825 4091 
L 703 3866 
L 703 4441 
L 1819 4666 
L 2450 4666 
L 2450 531 
L 3481 531 
L 3481 0 
L 794 0 
L 794 531 
z
" id="DejaVuSans-31" transform="scale(0.015625)"/>
       </defs>
       <use xlink:href="#DejaVuSans-31"/>
      </g>
     </g>
    </g>
    <g id="xtick_2">
     <g id="line2d_2">
      <g>
       <use style="stroke:#000000;stroke-width:0.8;" x="109.777796" xlink:href="#mf87256bfb8" y="307.584"/>
      </g>
     </g>
     <g id="text_2">
      <!-- 15 -->
      <g transform="translate(103.415296 322.182437)scale(0.1 -0.1)">
       <defs>
        <path d="M 691 4666 
L 3169 4666 
L 3169 4134 
L 1269 4134 
L 1269 2991 
Q 1406 3038 1543 3061 
Q 1681 3084 1819 3084 
Q 2600 3084 3056 2656 
Q 3513 2228 3513 1497 
Q 3513 744 3044 326 
Q 2575 -91 1722 -91 
Q 1428 -91 1123 -41 
Q 819 9 494 109 
L 494 744 
Q 775 591 1075 516 
Q 1375 441 1709 441 
Q 2250 441 2565 725 
Q 2881 1009 2881 1497 
Q 2881 1984 2565 2268 
Q 2250 2553 1709 2553 
Q 1456 2553 1204 2497 
Q 953 2441 691 2322 
L 691 4666 
z
" id="DejaVuSans-35" transform="scale(0.015625)"/>
       </defs>
       <use xlink:href="#DejaVuSans-31"/>
       <use x="63.623047" xlink:href="#DejaVuSans-35"/>
      </g>
     </g>
    </g>
    <g id="xtick_3">
     <g id="line2d_3">
      <g>
       <use style="stroke:#000000;stroke-width:0.8;" x="160.330677" xlink:href="#mf87256bfb8" y="307.584"/>
      </g>
     </g>
     <g id="text_3">
      <!-- 29 -->
      <g transform="translate(153.968177 322.182437)scale(0.1 -0.1)">
       <defs>
        <path d="M 1228 531 
L 3431 531 
L 3431 0 
L 469 0 
L 469 531 
Q 828 903 1448 1529 
Q 2069 2156 2228 2338 
Q 2531 2678 2651 2914 
Q 2772 3150 2772 3378 
Q 2772 3750 2511 3984 
Q 2250 4219 1831 4219 
Q 1534 4219 1204 4116 
Q 875 4013 500 3803 
L 500 4441 
Q 881 4594 1212 4672 
Q 1544 4750 1819 4750 
Q 2544 4750 2975 4387 
Q 3406 4025 3406 3419 
Q 3406 3131 3298 2873 
Q 3191 2616 2906 2266 
Q 2828 2175 2409 1742 
Q 1991 1309 1228 531 
z
" id="DejaVuSans-32" transform="scale(0.015625)"/>
        <path d="M 703 97 
L 703 672 
Q 941 559 1184 500 
Q 1428 441 1663 441 
Q 2288 441 2617 861 
Q 2947 1281 2994 2138 
Q 2813 1869 2534 1725 
Q 2256 1581 1919 1581 
Q 1219 1581 811 2004 
Q 403 2428 403 3163 
Q 403 3881 828 4315 
Q 1253 4750 1959 4750 
Q 2769 4750 3195 4129 
Q 3622 3509 3622 2328 
Q 3622 1225 3098 567 
Q 2575 -91 1691 -91 
Q 1453 -91 1209 -44 
Q 966 3 703 97 
z
M 1959 2075 
Q 2384 2075 2632 2365 
Q 2881 2656 2881 3163 
Q 2881 3666 2632 3958 
Q 2384 4250 1959 4250 
Q 1534 4250 1286 3958 
Q 1038 3666 1038 3163 
Q 1038 2656 1286 2365 
Q 1534 2075 1959 2075 
z
" id="DejaVuSans-39" transform="scale(0.015625)"/>
       </defs>
       <use xlink:href="#DejaVuSans-32"/>
       <use x="63.623047" xlink:href="#DejaVuSans-39"/>
      </g>
     </g>
    </g>
    <g id="xtick_4">
     <g id="line2d_4">
      <g>
       <use style="stroke:#000000;stroke-width:0.8;" x="210.883559" xlink:href="#mf87256bfb8" y="307.584"/>
      </g>
     </g>
     <g id="text_4">
      <!-- 43 -->
      <g transform="translate(204.521059 322.182437)scale(0.1 -0.1)">
       <defs>
        <path d="M 2419 4116 
L 825 1625 
L 2419 1625 
L 2419 4116 
z
M 2253 4666 
L 3047 4666 
L 3047 1625 
L 3713 1625 
L 3713 1100 
L 3047 1100 
L 3047 0 
L 2419 0 
L 2419 1100 
L 313 1100 
L 313 1709 
L 2253 4666 
z
" id="DejaVuSans-34" transform="scale(0.015625)"/>
        <path d="M 2597 2516 
Q 3050 2419 3304 2112 
Q 3559 1806 3559 1356 
Q 3559 666 3084 287 
Q 2609 -91 1734 -91 
Q 1441 -91 1130 -33 
Q 819 25 488 141 
L 488 750 
Q 750 597 1062 519 
Q 1375 441 1716 441 
Q 2309 441 2620 675 
Q 2931 909 2931 1356 
Q 2931 1769 2642 2001 
Q 2353 2234 1838 2234 
L 1294 2234 
L 1294 2753 
L 1863 2753 
Q 2328 2753 2575 2939 
Q 2822 3125 2822 3475 
Q 2822 3834 2567 4026 
Q 2313 4219 1838 4219 
Q 1578 4219 1281 4162 
Q 984 4106 628 3988 
L 628 4550 
Q 988 4650 1302 4700 
Q 1616 4750 1894 4750 
Q 2613 4750 3031 4423 
Q 3450 4097 3450 3541 
Q 3450 3153 3228 2886 
Q 3006 2619 2597 2516 
z
" id="DejaVuSans-33" transform="scale(0.015625)"/>
       </defs>
       <use xlink:href="#DejaVuSans-34"/>
       <use x="63.623047" xlink:href="#DejaVuSans-33"/>
      </g>
     </g>
    </g>
    <g id="xtick_5">
     <g id="line2d_5">
      <g>
       <use style="stroke:#000000;stroke-width:0.8;" x="261.436441" xlink:href="#mf87256bfb8" y="307.584"/>
      </g>
     </g>
     <g id="text_5">
      <!-- 57 -->
      <g transform="translate(255.073941 322.182437)scale(0.1 -0.1)">
       <defs>
        <path d="M 525 4666 
L 3525 4666 
L 3525 4397 
L 1831 0 
L 1172 0 
L 2766 4134 
L 525 4134 
L 525 4666 
z
" id="DejaVuSans-37" transform="scale(0.015625)"/>
       </defs>
       <use xlink:href="#DejaVuSans-35"/>
       <use x="63.623047" xlink:href="#DejaVuSans-37"/>
      </g>
     </g>
    </g>
    <g id="xtick_6">
     <g id="line2d_6">
      <g>
       <use style="stroke:#000000;stroke-width:0.8;" x="311.989323" xlink:href="#mf87256bfb8" y="307.584"/>
      </g>
     </g>
     <g id="text_6">
      <!-- 71 -->
      <g transform="translate(305.626823 322.182437)scale(0.1 -0.1)">
       <use xlink:href="#DejaVuSans-37"/>
       <use x="63.623047" xlink:href="#DejaVuSans-31"/>
      </g>
     </g>
    </g>
    <g id="xtick_7">
     <g id="line2d_7">
      <g>
       <use style="stroke:#000000;stroke-width:0.8;" x="362.542204" xlink:href="#mf87256bfb8" y="307.584"/>
      </g>
     </g>
     <g id="text_7">
      <!-- 85 -->
      <g transform="translate(356.179704 322.182437)scale(0.1 -0.1)">
       <defs>
        <path d="M 2034 2216 
Q 1584 2216 1326 1975 
Q 1069 1734 1069 1313 
Q 1069 891 1326 650 
Q 1584 409 2034 409 
Q 2484 409 2743 651 
Q 3003 894 3003 1313 
Q 3003 1734 2745 1975 
Q 2488 2216 2034 2216 
z
M 1403 2484 
Q 997 2584 770 2862 
Q 544 3141 544 3541 
Q 544 4100 942 4425 
Q 1341 4750 2034 4750 
Q 2731 4750 3128 4425 
Q 3525 4100 3525 3541 
Q 3525 3141 3298 2862 
Q 3072 2584 2669 2484 
Q 3125 2378 3379 2068 
Q 3634 1759 3634 1313 
Q 3634 634 3220 271 
Q 2806 -91 2034 -91 
Q 1263 -91 848 271 
Q 434 634 434 1313 
Q 434 1759 690 2068 
Q 947 2378 1403 2484 
z
M 1172 3481 
Q 1172 3119 1398 2916 
Q 1625 2713 2034 2713 
Q 2441 2713 2670 2916 
Q 2900 3119 2900 3481 
Q 2900 3844 2670 4047 
Q 2441 4250 2034 4250 
Q 1625 4250 1398 4047 
Q 1172 3844 1172 3481 
z
" id="DejaVuSans-38" transform="scale(0.015625)"/>
       </defs>
       <use xlink:href="#DejaVuSans-38"/>
       <use x="63.623047" xlink:href="#DejaVuSans-35"/>
      </g>
     </g>
    </g>
    <g id="text_8">
     <!-- Allele count -->
     <g transform="translate(206.724063 335.860562)scale(0.1 -0.1)">
      <defs>
       <path d="M 2188 4044 
L 1331 1722 
L 3047 1722 
L 2188 4044 
z
M 1831 4666 
L 2547 4666 
L 4325 0 
L 3669 0 
L 3244 1197 
L 1141 1197 
L 716 0 
L 50 0 
L 1831 4666 
z
" id="DejaVuSans-41" transform="scale(0.015625)"/>
       <path d="M 603 4863 
L 1178 4863 
L 1178 0 
L 603 0 
L 603 4863 
z
" id="DejaVuSans-6c" transform="scale(0.015625)"/>
       <path d="M 3597 1894 
L 3597 1613 
L 953 1613 
Q 991 1019 1311 708 
Q 1631 397 2203 397 
Q 2534 397 2845 478 
Q 3156 559 3463 722 
L 3463 178 
Q 3153 47 2828 -22 
Q 2503 -91 2169 -91 
Q 1331 -91 842 396 
Q 353 884 353 1716 
Q 353 2575 817 3079 
Q 1281 3584 2069 3584 
Q 2775 3584 3186 3129 
Q 3597 2675 3597 1894 
z
M 3022 2063 
Q 3016 2534 2758 2815 
Q 2500 3097 2075 3097 
Q 1594 3097 1305 2825 
Q 1016 2553 972 2059 
L 3022 2063 
z
" id="DejaVuSans-65" transform="scale(0.015625)"/>
       <path id="DejaVuSans-20" transform="scale(0.015625)"/>
       <path d="M 3122 3366 
L 3122 2828 
Q 2878 2963 2633 3030 
Q 2388 3097 2138 3097 
Q 1578 3097 1268 2742 
Q 959 2388 959 1747 
Q 959 1106 1268 751 
Q 1578 397 2138 397 
Q 2388 397 2633 464 
Q 2878 531 3122 666 
L 3122 134 
Q 2881 22 2623 -34 
Q 2366 -91 2075 -91 
Q 1284 -91 818 406 
Q 353 903 353 1747 
Q 353 2603 823 3093 
Q 1294 3584 2113 3584 
Q 2378 3584 2631 3529 
Q 2884 3475 3122 3366 
z
" id="DejaVuSans-63" transform="scale(0.015625)"/>
       <path d="M 1959 3097 
Q 1497 3097 1228 2736 
Q 959 2375 959 1747 
Q 959 1119 1226 758 
Q 1494 397 1959 397 
Q 2419 397 2687 759 
Q 2956 1122 2956 1747 
Q 2956 2369 2687 2733 
Q 2419 3097 1959 3097 
z
M 1959 3584 
Q 2709 3584 3137 3096 
Q 3566 2609 3566 1747 
Q 3566 888 3137 398 
Q 2709 -91 1959 -91 
Q 1206 -91 779 398 
Q 353 888 353 1747 
Q 353 2609 779 3096 
Q 1206 3584 1959 3584 
z
" id="DejaVuSans-6f" transform="scale(0.015625)"/>
       <path d="M 544 1381 
L 544 3500 
L 1119 3500 
L 1119 1403 
Q 1119 906 1312 657 
Q 1506 409 1894 409 
Q 2359 409 2629 706 
Q 2900 1003 2900 1516 
L 2900 3500 
L 3475 3500 
L 3475 0 
L 2900 0 
L 2900 538 
Q 2691 219 2414 64 
Q 2138 -91 1772 -91 
Q 1169 -91 856 284 
Q 544 659 544 1381 
z
M 1991 3584 
L 1991 3584 
z
" id="DejaVuSans-75" transform="scale(0.015625)"/>
       <path d="M 3513 2113 
L 3513 0 
L 2938 0 
L 2938 2094 
Q 2938 2591 2744 2837 
Q 2550 3084 2163 3084 
Q 1697 3084 1428 2787 
Q 1159 2491 1159 1978 
L 1159 0 
L 581 0 
L 581 3500 
L 1159 3500 
L 1159 2956 
Q 1366 3272 1645 3428 
Q 1925 3584 2291 3584 
Q 2894 3584 3203 3211 
Q 3513 2838 3513 2113 
z
" id="DejaVuSans-6e" transform="scale(0.015625)"/>
       <path d="M 1172 4494 
L 1172 3500 
L 2356 3500 
L 2356 3053 
L 1172 3053 
L 1172 1153 
Q 1172 725 1289 603 
Q 1406 481 1766 481 
L 2356 481 
L 2356 0 
L 1766 0 
Q 1100 0 847 248 
Q 594 497 594 1153 
L 594 3053 
L 172 3053 
L 172 3500 
L 594 3500 
L 594 4494 
L 1172 4494 
z
" id="DejaVuSans-74" transform="scale(0.015625)"/>
      </defs>
      <use xlink:href="#DejaVuSans-41"/>
      <use x="68.408203" xlink:href="#DejaVuSans-6c"/>
      <use x="96.191406" xlink:href="#DejaVuSans-6c"/>
      <use x="123.974609" xlink:href="#DejaVuSans-65"/>
      <use x="185.498047" xlink:href="#DejaVuSans-6c"/>
      <use x="213.28125" xlink:href="#DejaVuSans-65"/>
      <use x="274.804688" xlink:href="#DejaVuSans-20"/>
      <use x="306.591797" xlink:href="#DejaVuSans-63"/>
      <use x="361.572266" xlink:href="#DejaVuSans-6f"/>
      <use x="422.753906" xlink:href="#DejaVuSans-75"/>
      <use x="486.132812" xlink:href="#DejaVuSans-6e"/>
      <use x="549.511719" xlink:href="#DejaVuSans-74"/>
     </g>
    </g>
   </g>
   <g id="matplotlib.axis_2">
    <g id="ytick_1">
     <g id="line2d_8">
      <defs>
       <path d="M 0 0 
L -3.5 0 
" id="m909f2fe438" style="stroke:#000000;stroke-width:0.8;"/>
      </defs>
      <g>
       <use style="stroke:#000000;stroke-width:0.8;" x="57.6" xlink:href="#m909f2fe438" y="307.584"/>
      </g>
     </g>
     <g id="text_9">
      <!-- 0 -->
      <g transform="translate(44.2375 311.383219)scale(0.1 -0.1)">
       <defs>
        <path d="M 2034 4250 
Q 1547 4250 1301 3770 
Q 1056 3291 1056 2328 
Q 1056 1369 1301 889 
Q 1547 409 2034 409 
Q 2525 409 2770 889 
Q 3016 1369 3016 2328 
Q 3016 3291 2770 3770 
Q 2525 4250 2034 4250 
z
M 2034 4750 
Q 2819 4750 3233 4129 
Q 3647 3509 3647 2328 
Q 3647 1150 3233 529 
Q 2819 -91 2034 -91 
Q 1250 -91 836 529 
Q 422 1150 422 2328 
Q 422 3509 836 4129 
Q 1250 4750 2034 4750 
z
" id="DejaVuSans-30" transform="scale(0.015625)"/>
       </defs>
       <use xlink:href="#DejaVuSans-30"/>
      </g>
     </g>
    </g>
    <g id="ytick_2">
     <g id="line2d_9">
      <g>
       <use style="stroke:#000000;stroke-width:0.8;" x="57.6" xlink:href="#m909f2fe438" y="270.76038"/>
      </g>
     </g>
     <g id="text_10">
      <!-- 2000 -->
      <g transform="translate(25.15 274.559599)scale(0.1 -0.1)">
       <use xlink:href="#DejaVuSans-32"/>
       <use x="63.623047" xlink:href="#DejaVuSans-30"/>
       <use x="127.246094" xlink:href="#DejaVuSans-30"/>
       <use x="190.869141" xlink:href="#DejaVuSans-30"/>
      </g>
     </g>
    </g>
    <g id="ytick_3">
     <g id="line2d_10">
      <g>
       <use style="stroke:#000000;stroke-width:0.8;" x="57.6" xlink:href="#m909f2fe438" y="233.93676"/>
      </g>
     </g>
     <g id="text_11">
      <!-- 4000 -->
      <g transform="translate(25.15 237.735978)scale(0.1 -0.1)">
       <use xlink:href="#DejaVuSans-34"/>
       <use x="63.623047" xlink:href="#DejaVuSans-30"/>
       <use x="127.246094" xlink:href="#DejaVuSans-30"/>
       <use x="190.869141" xlink:href="#DejaVuSans-30"/>
      </g>
     </g>
    </g>
    <g id="ytick_4">
     <g id="line2d_11">
      <g>
       <use style="stroke:#000000;stroke-width:0.8;" x="57.6" xlink:href="#m909f2fe438" y="197.11314"/>
      </g>
     </g>
     <g id="text_12">
      <!-- 6000 -->
      <g transform="translate(25.15 200.912358)scale(0.1 -0.1)">
       <defs>
        <path d="M 2113 2584 
Q 1688 2584 1439 2293 
Q 1191 2003 1191 1497 
Q 1191 994 1439 701 
Q 1688 409 2113 409 
Q 2538 409 2786 701 
Q 3034 994 3034 1497 
Q 3034 2003 2786 2293 
Q 2538 2584 2113 2584 
z
M 3366 4563 
L 3366 3988 
Q 3128 4100 2886 4159 
Q 2644 4219 2406 4219 
Q 1781 4219 1451 3797 
Q 1122 3375 1075 2522 
Q 1259 2794 1537 2939 
Q 1816 3084 2150 3084 
Q 2853 3084 3261 2657 
Q 3669 2231 3669 1497 
Q 3669 778 3244 343 
Q 2819 -91 2113 -91 
Q 1303 -91 875 529 
Q 447 1150 447 2328 
Q 447 3434 972 4092 
Q 1497 4750 2381 4750 
Q 2619 4750 2861 4703 
Q 3103 4656 3366 4563 
z
" id="DejaVuSans-36" transform="scale(0.015625)"/>
       </defs>
       <use xlink:href="#DejaVuSans-36"/>
       <use x="63.623047" xlink:href="#DejaVuSans-30"/>
       <use x="127.246094" xlink:href="#DejaVuSans-30"/>
       <use x="190.869141" xlink:href="#DejaVuSans-30"/>
      </g>
     </g>
    </g>
    <g id="ytick_5">
     <g id="line2d_12">
      <g>
       <use style="stroke:#000000;stroke-width:0.8;" x="57.6" xlink:href="#m909f2fe438" y="160.289519"/>
      </g>
     </g>
     <g id="text_13">
      <!-- 8000 -->
      <g transform="translate(25.15 164.088738)scale(0.1 -0.1)">
       <use xlink:href="#DejaVuSans-38"/>
       <use x="63.623047" xlink:href="#DejaVuSans-30"/>
       <use x="127.246094" xlink:href="#DejaVuSans-30"/>
       <use x="190.869141" xlink:href="#DejaVuSans-30"/>
      </g>
     </g>
    </g>
    <g id="ytick_6">
     <g id="line2d_13">
      <g>
       <use style="stroke:#000000;stroke-width:0.8;" x="57.6" xlink:href="#m909f2fe438" y="123.465899"/>
      </g>
     </g>
     <g id="text_14">
      <!-- 10000 -->
      <g transform="translate(18.7875 127.265118)scale(0.1 -0.1)">
       <use xlink:href="#DejaVuSans-31"/>
       <use x="63.623047" xlink:href="#DejaVuSans-30"/>
       <use x="127.246094" xlink:href="#DejaVuSans-30"/>
       <use x="190.869141" xlink:href="#DejaVuSans-30"/>
       <use x="254.492188" xlink:href="#DejaVuSans-30"/>
      </g>
     </g>
    </g>
    <g id="ytick_7">
     <g id="line2d_14">
      <g>
       <use style="stroke:#000000;stroke-width:0.8;" x="57.6" xlink:href="#m909f2fe438" y="86.642279"/>
      </g>
     </g>
     <g id="text_15">
      <!-- 12000 -->
      <g transform="translate(18.7875 90.441498)scale(0.1 -0.1)">
       <use xlink:href="#DejaVuSans-31"/>
       <use x="63.623047" xlink:href="#DejaVuSans-32"/>
       <use x="127.246094" xlink:href="#DejaVuSans-30"/>
       <use x="190.869141" xlink:href="#DejaVuSans-30"/>
       <use x="254.492188" xlink:href="#DejaVuSans-30"/>
      </g>
     </g>
    </g>
    <g id="ytick_8">
     <g id="line2d_15">
      <g>
       <use style="stroke:#000000;stroke-width:0.8;" x="57.6" xlink:href="#m909f2fe438" y="49.818659"/>
      </g>
     </g>
     <g id="text_16">
      <!-- 14000 -->
      <g transform="translate(18.7875 53.617878)scale(0.1 -0.1)">
       <use xlink:href="#DejaVuSans-31"/>
       <use x="63.623047" xlink:href="#DejaVuSans-34"/>
       <use x="127.246094" xlink:href="#DejaVuSans-30"/>
       <use x="190.869141" xlink:href="#DejaVuSans-30"/>
       <use x="254.492188" xlink:href="#DejaVuSans-30"/>
      </g>
     </g>
    </g>
   </g>
   <g id="patch_102">
    <path d="M 57.6 307.584 
L 57.6 41.472 
" style="fill:none;stroke:#000000;stroke-linecap:square;stroke-linejoin:miter;stroke-width:0.8;"/>
   </g>
   <g id="patch_103">
    <path d="M 414.72 307.584 
L 414.72 41.472 
" style="fill:none;stroke:#000000;stroke-linecap:square;stroke-linejoin:miter;stroke-width:0.8;"/>
   </g>
   <g id="patch_104">
    <path d="M 57.6 307.584 
L 414.72 307.584 
" style="fill:none;stroke:#000000;stroke-linecap:square;stroke-linejoin:miter;stroke-width:0.8;"/>
   </g>
   <g id="patch_105">
    <path d="M 57.6 41.472 
L 414.72 41.472 
" style="fill:none;stroke:#000000;stroke-linecap:square;stroke-linejoin:miter;stroke-width:0.8;"/>
   </g>
  </g>
 </g>
 <defs>
  <clipPath id="pa42a71af49">
   <rect height="266.112" width="357.12" x="57.6" y="41.472"/>
  </clipPath>
 </defs>
</svg>
