<?xml version="1.0" encoding="utf-8" standalone="no"?>
<!DOCTYPE svg PUBLIC "-//W3C//DTD SVG 1.1//EN"
  "http://www.w3.org/Graphics/SVG/1.1/DTD/svg11.dtd">
<svg height="296.46825pt" version="1.1" viewBox="0 0 380.023125 296.46825" width="380.023125pt" xmlns="http://www.w3.org/2000/svg" xmlns:xlink="http://www.w3.org/1999/xlink">
 <metadata>
  <rdf:RDF xmlns:cc="http://creativecommons.org/ns#" xmlns:dc="http://purl.org/dc/elements/1.1/" xmlns:rdf="http://www.w3.org/1999/02/22-rdf-syntax-ns#">
   <cc:Work>
    <dc:type rdf:resource="http://purl.org/dc/dcmitype/StillImage"/>
    <dc:date>2022-01-10T15:15:50.846844</dc:date>
    <dc:format>image/svg+xml</dc:format>
    <dc:creator>
     <cc:Agent>
      <dc:title>Matplotlib v3.4.3, https://matplotlib.org/</dc:title>
     </cc:Agent>
    </dc:creator>
   </cc:Work>
  </rdf:RDF>
 </metadata>
 <defs>
  <style type="text/css">*{stroke-linecap:butt;stroke-linejoin:round;}</style>
 </defs>
 <g id="figure_1">
  <g id="patch_1">
   <path d="M 0 296.46825 
L 380.023125 296.46825 
L 380.023125 0 
L 0 0 
z
" style="fill:#ffffff;"/>
  </g>
  <g id="axes_1">
   <g id="patch_2">
    <path d="M 22.903125 266.112 
L 380.023125 266.112 
L 380.023125 -0 
L 22.903125 -0 
z
" style="fill:#ffffff;"/>
   </g>
   <g id="patch_3">
    <path clip-path="url(#p7378b70501)" d="M 22.903125 266.112 
L 36.522108 266.112 
L 36.522108 -3.698757 
L 22.903125 -3.698757 
z
" style="fill:#66c2a5;"/>
   </g>
   <g id="patch_4">
    <path clip-path="url(#p7378b70501)" d="M 83.431939 266.112 
L 97.050922 266.112 
L 97.050922 232.406668 
L 83.431939 232.406668 
z
" style="fill:#66c2a5;"/>
   </g>
   <g id="patch_5">
    <path clip-path="url(#p7378b70501)" d="M 143.960752 266.112 
L 157.579735 266.112 
L 157.579735 241.607693 
L 143.960752 241.607693 
z
" style="fill:#66c2a5;"/>
   </g>
   <g id="patch_6">
    <path clip-path="url(#p7378b70501)" d="M 204.489566 266.112 
L 218.108549 266.112 
L 218.108549 200.776025 
L 204.489566 200.776025 
z
" style="fill:#66c2a5;"/>
   </g>
   <g id="patch_7">
    <path clip-path="url(#p7378b70501)" d="M 265.018379 266.112 
L 278.637362 266.112 
L 278.637362 266.112 
L 265.018379 266.112 
z
" style="fill:#66c2a5;"/>
   </g>
   <g id="patch_8">
    <path clip-path="url(#p7378b70501)" d="M 325.547193 266.112 
L 339.166176 266.112 
L 339.166176 266.112 
L 325.547193 266.112 
z
" style="fill:#66c2a5;"/>
   </g>
   <g id="patch_9">
    <path clip-path="url(#p7378b70501)" d="M 36.522108 266.112 
L 50.141091 266.112 
L 50.141091 -3.381454 
L 36.522108 -3.381454 
z
" style="fill:#fc8d62;"/>
   </g>
   <g id="patch_10">
    <path clip-path="url(#p7378b70501)" d="M 97.050922 266.112 
L 110.669905 266.112 
L 110.669905 232.211601 
L 97.050922 232.211601 
z
" style="fill:#fc8d62;"/>
   </g>
   <g id="patch_11">
    <path clip-path="url(#p7378b70501)" d="M 157.579735 266.112 
L 171.198718 266.112 
L 171.198718 241.499723 
L 157.579735 241.499723 
z
" style="fill:#fc8d62;"/>
   </g>
   <g id="patch_12">
    <path clip-path="url(#p7378b70501)" d="M 218.108549 266.112 
L 231.727532 266.112 
L 231.727532 200.761759 
L 218.108549 200.761759 
z
" style="fill:#fc8d62;"/>
   </g>
   <g id="patch_13">
    <path clip-path="url(#p7378b70501)" d="M 278.637362 266.112 
L 292.256345 266.112 
L 292.256345 266.112 
L 278.637362 266.112 
z
" style="fill:#fc8d62;"/>
   </g>
   <g id="patch_14">
    <path clip-path="url(#p7378b70501)" d="M 339.166176 266.112 
L 352.785159 266.112 
L 352.785159 266.112 
L 339.166176 266.112 
z
" style="fill:#fc8d62;"/>
   </g>
   <g id="patch_15">
    <path clip-path="url(#p7378b70501)" d="M 50.141091 266.112 
L 63.760074 266.112 
L 63.760074 5.424017 
L 50.141091 5.424017 
z
" style="fill:#8da0cb;"/>
   </g>
   <g id="patch_16">
    <path clip-path="url(#p7378b70501)" d="M 110.669905 266.112 
L 124.288888 266.112 
L 124.288888 232.223068 
L 110.669905 232.223068 
z
" style="fill:#8da0cb;"/>
   </g>
   <g id="patch_17">
    <path clip-path="url(#p7378b70501)" d="M 171.198718 266.112 
L 184.817701 266.112 
L 184.817701 240.879534 
L 171.198718 240.879534 
z
" style="fill:#8da0cb;"/>
   </g>
   <g id="patch_18">
    <path clip-path="url(#p7378b70501)" d="M 231.727532 266.112 
L 245.346515 266.112 
L 245.346515 192.565011 
L 231.727532 192.565011 
z
" style="fill:#8da0cb;"/>
   </g>
   <g id="patch_19">
    <path clip-path="url(#p7378b70501)" d="M 292.256345 266.112 
L 305.875328 266.112 
L 305.875328 266.112 
L 292.256345 266.112 
z
" style="fill:#8da0cb;"/>
   </g>
   <g id="patch_20">
    <path clip-path="url(#p7378b70501)" d="M 352.785159 266.112 
L 366.404142 266.112 
L 366.404142 266.112 
L 352.785159 266.112 
z
" style="fill:#8da0cb;"/>
   </g>
   <g id="patch_21">
    <path clip-path="url(#p7378b70501)" d="M 63.760074 266.112 
L 77.379057 266.112 
L 77.379057 5.278176 
L 63.760074 5.278176 
z
" style="fill:#e78ac3;"/>
   </g>
   <g id="patch_22">
    <path clip-path="url(#p7378b70501)" d="M 124.288888 266.112 
L 137.907871 266.112 
L 137.907871 232.230109 
L 124.288888 232.230109 
z
" style="fill:#e78ac3;"/>
   </g>
   <g id="patch_23">
    <path clip-path="url(#p7378b70501)" d="M 184.817701 266.112 
L 198.436684 266.112 
L 198.436684 240.892264 
L 184.817701 240.892264 
z
" style="fill:#e78ac3;"/>
   </g>
   <g id="patch_24">
    <path clip-path="url(#p7378b70501)" d="M 245.346515 266.112 
L 258.965498 266.112 
L 258.965498 192.69108 
L 245.346515 192.69108 
z
" style="fill:#e78ac3;"/>
   </g>
   <g id="patch_25">
    <path clip-path="url(#p7378b70501)" d="M 305.875328 266.112 
L 319.494311 266.112 
L 319.494311 266.112 
L 305.875328 266.112 
z
" style="fill:#e78ac3;"/>
   </g>
   <g id="patch_26">
    <path clip-path="url(#p7378b70501)" d="M 366.404142 266.112 
L 380.023125 266.112 
L 380.023125 266.112 
L 366.404142 266.112 
z
" style="fill:#e78ac3;"/>
   </g>
   <g id="matplotlib.axis_1">
    <g id="xtick_1">
     <g id="line2d_1">
      <defs>
       <path d="M 0 0 
L 0 3.5 
" id="ma7d6d6a4b9" style="stroke:#000000;stroke-width:0.8;"/>
      </defs>
      <g>
       <use style="stroke:#000000;stroke-width:0.8;" x="50.141091" xlink:href="#ma7d6d6a4b9" y="266.112"/>
      </g>
     </g>
     <g id="text_1">
      <!-- (-$\infty$, -100] -->
      <g transform="translate(25.741091 280.710437)scale(0.1 -0.1)">
       <defs>
        <path d="M 1984 4856 
Q 1566 4138 1362 3434 
Q 1159 2731 1159 2009 
Q 1159 1288 1364 580 
Q 1569 -128 1984 -844 
L 1484 -844 
Q 1016 -109 783 600 
Q 550 1309 550 2009 
Q 550 2706 781 3412 
Q 1013 4119 1484 4856 
L 1984 4856 
z
" id="DejaVuSans-28" transform="scale(0.015625)"/>
        <path d="M 313 2009 
L 1997 2009 
L 1997 1497 
L 313 1497 
L 313 2009 
z
" id="DejaVuSans-2d" transform="scale(0.015625)"/>
        <path d="M 2916 1091 
Q 2819 1203 2666 1466 
Q 2456 1091 2272 925 
Q 2041 725 1681 725 
Q 1259 725 981 1041 
Q 688 1372 688 1919 
Q 688 2444 981 2800 
Q 1244 3116 1688 3116 
Q 1916 3116 2084 3022 
Q 2281 2919 2416 2741 
Q 2541 2581 2666 2366 
Q 2875 2741 3059 2906 
Q 3291 3106 3650 3106 
Q 4072 3106 4350 2791 
Q 4644 2459 4644 1913 
Q 4644 1388 4350 1031 
Q 4088 716 3644 716 
Q 3416 716 3247 809 
Q 3078 894 2916 1091 
z
M 1647 1134 
Q 2163 1134 2472 1884 
Q 2075 2703 1647 2703 
Q 1334 2703 1175 2478 
Q 1003 2238 1003 1919 
Q 1003 1569 1175 1353 
Q 1350 1134 1647 1134 
z
M 3684 2697 
Q 3219 2697 2859 1947 
Q 3253 1128 3684 1128 
Q 3997 1128 4156 1353 
Q 4328 1594 4328 1913 
Q 4328 2263 4156 2478 
Q 3981 2697 3684 2697 
z
" id="DejaVuSans-221e" transform="scale(0.015625)"/>
        <path d="M 750 794 
L 1409 794 
L 1409 256 
L 897 -744 
L 494 -744 
L 750 256 
L 750 794 
z
" id="DejaVuSans-2c" transform="scale(0.015625)"/>
        <path id="DejaVuSans-20" transform="scale(0.015625)"/>
        <path d="M 794 531 
L 1825 531 
L 1825 4091 
L 703 3866 
L 703 4441 
L 1819 4666 
L 2450 4666 
L 2450 531 
L 3481 531 
L 3481 0 
L 794 0 
L 794 531 
z
" id="DejaVuSans-31" transform="scale(0.015625)"/>
        <path d="M 2034 4250 
Q 1547 4250 1301 3770 
Q 1056 3291 1056 2328 
Q 1056 1369 1301 889 
Q 1547 409 2034 409 
Q 2525 409 2770 889 
Q 3016 1369 3016 2328 
Q 3016 3291 2770 3770 
Q 2525 4250 2034 4250 
z
M 2034 4750 
Q 2819 4750 3233 4129 
Q 3647 3509 3647 2328 
Q 3647 1150 3233 529 
Q 2819 -91 2034 -91 
Q 1250 -91 836 529 
Q 422 1150 422 2328 
Q 422 3509 836 4129 
Q 1250 4750 2034 4750 
z
" id="DejaVuSans-30" transform="scale(0.015625)"/>
        <path d="M 1947 4863 
L 1947 -844 
L 622 -844 
L 622 -397 
L 1369 -397 
L 1369 4416 
L 622 4416 
L 622 4863 
L 1947 4863 
z
" id="DejaVuSans-5d" transform="scale(0.015625)"/>
       </defs>
       <use transform="translate(0 0.015625)" xlink:href="#DejaVuSans-28"/>
       <use transform="translate(39.013672 0.015625)" xlink:href="#DejaVuSans-2d"/>
       <use transform="translate(75.097656 0.015625)" xlink:href="#DejaVuSans-221e"/>
       <use transform="translate(158.398438 0.015625)" xlink:href="#DejaVuSans-2c"/>
       <use transform="translate(190.185547 0.015625)" xlink:href="#DejaVuSans-20"/>
       <use transform="translate(221.972656 0.015625)" xlink:href="#DejaVuSans-2d"/>
       <use transform="translate(258.056641 0.015625)" xlink:href="#DejaVuSans-31"/>
       <use transform="translate(321.679688 0.015625)" xlink:href="#DejaVuSans-30"/>
       <use transform="translate(385.302734 0.015625)" xlink:href="#DejaVuSans-30"/>
       <use transform="translate(448.925781 0.015625)" xlink:href="#DejaVuSans-5d"/>
      </g>
     </g>
    </g>
    <g id="xtick_2">
     <g id="line2d_2">
      <g>
       <use style="stroke:#000000;stroke-width:0.8;" x="110.669905" xlink:href="#ma7d6d6a4b9" y="266.112"/>
      </g>
     </g>
     <g id="text_2">
      <!-- (-100, -10] -->
      <g transform="translate(84.076155 280.710437)scale(0.1 -0.1)">
       <use xlink:href="#DejaVuSans-28"/>
       <use x="39.013672" xlink:href="#DejaVuSans-2d"/>
       <use x="75.097656" xlink:href="#DejaVuSans-31"/>
       <use x="138.720703" xlink:href="#DejaVuSans-30"/>
       <use x="202.34375" xlink:href="#DejaVuSans-30"/>
       <use x="265.966797" xlink:href="#DejaVuSans-2c"/>
       <use x="297.753906" xlink:href="#DejaVuSans-20"/>
       <use x="329.541016" xlink:href="#DejaVuSans-2d"/>
       <use x="365.625" xlink:href="#DejaVuSans-31"/>
       <use x="429.248047" xlink:href="#DejaVuSans-30"/>
       <use x="492.871094" xlink:href="#DejaVuSans-5d"/>
      </g>
     </g>
    </g>
    <g id="xtick_3">
     <g id="line2d_3">
      <g>
       <use style="stroke:#000000;stroke-width:0.8;" x="171.198718" xlink:href="#ma7d6d6a4b9" y="266.112"/>
      </g>
     </g>
     <g id="text_3">
      <!-- (-10, -1] -->
      <g transform="translate(150.967468 280.710437)scale(0.1 -0.1)">
       <use xlink:href="#DejaVuSans-28"/>
       <use x="39.013672" xlink:href="#DejaVuSans-2d"/>
       <use x="75.097656" xlink:href="#DejaVuSans-31"/>
       <use x="138.720703" xlink:href="#DejaVuSans-30"/>
       <use x="202.34375" xlink:href="#DejaVuSans-2c"/>
       <use x="234.130859" xlink:href="#DejaVuSans-20"/>
       <use x="265.917969" xlink:href="#DejaVuSans-2d"/>
       <use x="302.001953" xlink:href="#DejaVuSans-31"/>
       <use x="365.625" xlink:href="#DejaVuSans-5d"/>
      </g>
     </g>
    </g>
    <g id="xtick_4">
     <g id="line2d_4">
      <g>
       <use style="stroke:#000000;stroke-width:0.8;" x="231.727532" xlink:href="#ma7d6d6a4b9" y="266.112"/>
      </g>
     </g>
     <g id="text_4">
      <!-- (-1, 0] -->
      <g transform="translate(216.481438 280.710437)scale(0.1 -0.1)">
       <use xlink:href="#DejaVuSans-28"/>
       <use x="39.013672" xlink:href="#DejaVuSans-2d"/>
       <use x="75.097656" xlink:href="#DejaVuSans-31"/>
       <use x="138.720703" xlink:href="#DejaVuSans-2c"/>
       <use x="170.507812" xlink:href="#DejaVuSans-20"/>
       <use x="202.294922" xlink:href="#DejaVuSans-30"/>
       <use x="265.917969" xlink:href="#DejaVuSans-5d"/>
      </g>
     </g>
    </g>
    <g id="xtick_5">
     <g id="line2d_5">
      <g>
       <use style="stroke:#000000;stroke-width:0.8;" x="292.256345" xlink:href="#ma7d6d6a4b9" y="266.112"/>
      </g>
     </g>
     <g id="text_5">
      <!-- (0, 1] -->
      <g transform="translate(278.814158 280.710437)scale(0.1 -0.1)">
       <use xlink:href="#DejaVuSans-28"/>
       <use x="39.013672" xlink:href="#DejaVuSans-30"/>
       <use x="102.636719" xlink:href="#DejaVuSans-2c"/>
       <use x="134.423828" xlink:href="#DejaVuSans-20"/>
       <use x="166.210938" xlink:href="#DejaVuSans-31"/>
       <use x="229.833984" xlink:href="#DejaVuSans-5d"/>
      </g>
     </g>
    </g>
    <g id="xtick_6">
     <g id="line2d_6">
      <g>
       <use style="stroke:#000000;stroke-width:0.8;" x="352.785159" xlink:href="#ma7d6d6a4b9" y="266.112"/>
      </g>
     </g>
     <g id="text_6">
      <!-- (1, $\infty$) -->
      <g transform="translate(338.335159 280.710437)scale(0.1 -0.1)">
       <defs>
        <path d="M 513 4856 
L 1013 4856 
Q 1481 4119 1714 3412 
Q 1947 2706 1947 2009 
Q 1947 1309 1714 600 
Q 1481 -109 1013 -844 
L 513 -844 
Q 928 -128 1133 580 
Q 1338 1288 1338 2009 
Q 1338 2731 1133 3434 
Q 928 4138 513 4856 
z
" id="DejaVuSans-29" transform="scale(0.015625)"/>
       </defs>
       <use transform="translate(0 0.125)" xlink:href="#DejaVuSans-28"/>
       <use transform="translate(39.013672 0.125)" xlink:href="#DejaVuSans-31"/>
       <use transform="translate(102.636719 0.125)" xlink:href="#DejaVuSans-2c"/>
       <use transform="translate(134.423828 0.125)" xlink:href="#DejaVuSans-20"/>
       <use transform="translate(166.210938 0.125)" xlink:href="#DejaVuSans-221e"/>
       <use transform="translate(249.511719 0.125)" xlink:href="#DejaVuSans-29"/>
      </g>
     </g>
    </g>
    <g id="text_7">
     <!-- $4N_e s$ -->
     <g transform="translate(189.613125 294.388562)scale(0.1 -0.1)">
      <defs>
       <path d="M 2419 4116 
L 825 1625 
L 2419 1625 
L 2419 4116 
z
M 2253 4666 
L 3047 4666 
L 3047 1625 
L 3713 1625 
L 3713 1100 
L 3047 1100 
L 3047 0 
L 2419 0 
L 2419 1100 
L 313 1100 
L 313 1709 
L 2253 4666 
z
" id="DejaVuSans-34" transform="scale(0.015625)"/>
       <path d="M 1081 4666 
L 1931 4666 
L 3219 666 
L 4000 4666 
L 4616 4666 
L 3706 0 
L 2853 0 
L 1569 4025 
L 788 0 
L 172 0 
L 1081 4666 
z
" id="DejaVuSans-Oblique-4e" transform="scale(0.015625)"/>
       <path d="M 3078 2063 
Q 3088 2113 3092 2166 
Q 3097 2219 3097 2272 
Q 3097 2653 2873 2875 
Q 2650 3097 2266 3097 
Q 1838 3097 1509 2826 
Q 1181 2556 1013 2059 
L 3078 2063 
z
M 3578 1613 
L 903 1613 
Q 884 1494 878 1425 
Q 872 1356 872 1306 
Q 872 872 1139 634 
Q 1406 397 1894 397 
Q 2269 397 2603 481 
Q 2938 566 3225 728 
L 3116 159 
Q 2806 34 2476 -28 
Q 2147 -91 1806 -91 
Q 1078 -91 686 257 
Q 294 606 294 1247 
Q 294 1794 489 2264 
Q 684 2734 1063 3103 
Q 1306 3334 1642 3459 
Q 1978 3584 2356 3584 
Q 2950 3584 3301 3228 
Q 3653 2872 3653 2272 
Q 3653 2128 3634 1964 
Q 3616 1800 3578 1613 
z
" id="DejaVuSans-Oblique-65" transform="scale(0.015625)"/>
       <path d="M 3200 3397 
L 3091 2853 
Q 2863 2978 2609 3040 
Q 2356 3103 2088 3103 
Q 1634 3103 1373 2948 
Q 1113 2794 1113 2528 
Q 1113 2219 1719 2053 
Q 1766 2041 1788 2034 
L 1972 1978 
Q 2547 1819 2739 1644 
Q 2931 1469 2931 1166 
Q 2931 609 2489 259 
Q 2047 -91 1331 -91 
Q 1053 -91 747 -37 
Q 441 16 72 128 
L 184 722 
Q 500 559 806 475 
Q 1113 391 1394 391 
Q 1816 391 2080 572 
Q 2344 753 2344 1031 
Q 2344 1331 1650 1516 
L 1591 1531 
L 1394 1581 
Q 956 1697 753 1886 
Q 550 2075 550 2369 
Q 550 2928 970 3256 
Q 1391 3584 2113 3584 
Q 2397 3584 2667 3537 
Q 2938 3491 3200 3397 
z
" id="DejaVuSans-Oblique-73" transform="scale(0.015625)"/>
      </defs>
      <use transform="translate(0 0.09375)" xlink:href="#DejaVuSans-34"/>
      <use transform="translate(63.623047 0.09375)" xlink:href="#DejaVuSans-Oblique-4e"/>
      <use transform="translate(138.427734 -16.3125)scale(0.7)" xlink:href="#DejaVuSans-Oblique-65"/>
      <use transform="translate(184.228516 0.09375)" xlink:href="#DejaVuSans-Oblique-73"/>
     </g>
    </g>
   </g>
   <g id="matplotlib.axis_2">
    <g id="ytick_1">
     <g id="line2d_7">
      <defs>
       <path d="M 0 0 
L -3.5 0 
" id="m8388e263ba" style="stroke:#000000;stroke-width:0.8;"/>
      </defs>
      <g>
       <use style="stroke:#000000;stroke-width:0.8;" x="22.903125" xlink:href="#m8388e263ba" y="266.112"/>
      </g>
     </g>
     <g id="text_8">
      <!-- 0.0 -->
      <g transform="translate(0 269.911219)scale(0.1 -0.1)">
       <defs>
        <path d="M 684 794 
L 1344 794 
L 1344 0 
L 684 0 
L 684 794 
z
" id="DejaVuSans-2e" transform="scale(0.015625)"/>
       </defs>
       <use xlink:href="#DejaVuSans-30"/>
       <use x="63.623047" xlink:href="#DejaVuSans-2e"/>
       <use x="95.410156" xlink:href="#DejaVuSans-30"/>
      </g>
     </g>
    </g>
    <g id="ytick_2">
     <g id="line2d_8">
      <g>
       <use style="stroke:#000000;stroke-width:0.8;" x="22.903125" xlink:href="#m8388e263ba" y="226.776363"/>
      </g>
     </g>
     <g id="text_9">
      <!-- 0.1 -->
      <g transform="translate(0 230.575582)scale(0.1 -0.1)">
       <use xlink:href="#DejaVuSans-30"/>
       <use x="63.623047" xlink:href="#DejaVuSans-2e"/>
       <use x="95.410156" xlink:href="#DejaVuSans-31"/>
      </g>
     </g>
    </g>
    <g id="ytick_3">
     <g id="line2d_9">
      <g>
       <use style="stroke:#000000;stroke-width:0.8;" x="22.903125" xlink:href="#m8388e263ba" y="187.440726"/>
      </g>
     </g>
     <g id="text_10">
      <!-- 0.2 -->
      <g transform="translate(0 191.239944)scale(0.1 -0.1)">
       <defs>
        <path d="M 1228 531 
L 3431 531 
L 3431 0 
L 469 0 
L 469 531 
Q 828 903 1448 1529 
Q 2069 2156 2228 2338 
Q 2531 2678 2651 2914 
Q 2772 3150 2772 3378 
Q 2772 3750 2511 3984 
Q 2250 4219 1831 4219 
Q 1534 4219 1204 4116 
Q 875 4013 500 3803 
L 500 4441 
Q 881 4594 1212 4672 
Q 1544 4750 1819 4750 
Q 2544 4750 2975 4387 
Q 3406 4025 3406 3419 
Q 3406 3131 3298 2873 
Q 3191 2616 2906 2266 
Q 2828 2175 2409 1742 
Q 1991 1309 1228 531 
z
" id="DejaVuSans-32" transform="scale(0.015625)"/>
       </defs>
       <use xlink:href="#DejaVuSans-30"/>
       <use x="63.623047" xlink:href="#DejaVuSans-2e"/>
       <use x="95.410156" xlink:href="#DejaVuSans-32"/>
      </g>
     </g>
    </g>
    <g id="ytick_4">
     <g id="line2d_10">
      <g>
       <use style="stroke:#000000;stroke-width:0.8;" x="22.903125" xlink:href="#m8388e263ba" y="148.105089"/>
      </g>
     </g>
     <g id="text_11">
      <!-- 0.3 -->
      <g transform="translate(0 151.904307)scale(0.1 -0.1)">
       <defs>
        <path d="M 2597 2516 
Q 3050 2419 3304 2112 
Q 3559 1806 3559 1356 
Q 3559 666 3084 287 
Q 2609 -91 1734 -91 
Q 1441 -91 1130 -33 
Q 819 25 488 141 
L 488 750 
Q 750 597 1062 519 
Q 1375 441 1716 441 
Q 2309 441 2620 675 
Q 2931 909 2931 1356 
Q 2931 1769 2642 2001 
Q 2353 2234 1838 2234 
L 1294 2234 
L 1294 2753 
L 1863 2753 
Q 2328 2753 2575 2939 
Q 2822 3125 2822 3475 
Q 2822 3834 2567 4026 
Q 2313 4219 1838 4219 
Q 1578 4219 1281 4162 
Q 984 4106 628 3988 
L 628 4550 
Q 988 4650 1302 4700 
Q 1616 4750 1894 4750 
Q 2613 4750 3031 4423 
Q 3450 4097 3450 3541 
Q 3450 3153 3228 2886 
Q 3006 2619 2597 2516 
z
" id="DejaVuSans-33" transform="scale(0.015625)"/>
       </defs>
       <use xlink:href="#DejaVuSans-30"/>
       <use x="63.623047" xlink:href="#DejaVuSans-2e"/>
       <use x="95.410156" xlink:href="#DejaVuSans-33"/>
      </g>
     </g>
    </g>
    <g id="ytick_5">
     <g id="line2d_11">
      <g>
       <use style="stroke:#000000;stroke-width:0.8;" x="22.903125" xlink:href="#m8388e263ba" y="108.769451"/>
      </g>
     </g>
     <g id="text_12">
      <!-- 0.4 -->
      <g transform="translate(0 112.56867)scale(0.1 -0.1)">
       <use xlink:href="#DejaVuSans-30"/>
       <use x="63.623047" xlink:href="#DejaVuSans-2e"/>
       <use x="95.410156" xlink:href="#DejaVuSans-34"/>
      </g>
     </g>
    </g>
    <g id="ytick_6">
     <g id="line2d_12">
      <g>
       <use style="stroke:#000000;stroke-width:0.8;" x="22.903125" xlink:href="#m8388e263ba" y="69.433814"/>
      </g>
     </g>
     <g id="text_13">
      <!-- 0.5 -->
      <g transform="translate(0 73.233033)scale(0.1 -0.1)">
       <defs>
        <path d="M 691 4666 
L 3169 4666 
L 3169 4134 
L 1269 4134 
L 1269 2991 
Q 1406 3038 1543 3061 
Q 1681 3084 1819 3084 
Q 2600 3084 3056 2656 
Q 3513 2228 3513 1497 
Q 3513 744 3044 326 
Q 2575 -91 1722 -91 
Q 1428 -91 1123 -41 
Q 819 9 494 109 
L 494 744 
Q 775 591 1075 516 
Q 1375 441 1709 441 
Q 2250 441 2565 725 
Q 2881 1009 2881 1497 
Q 2881 1984 2565 2268 
Q 2250 2553 1709 2553 
Q 1456 2553 1204 2497 
Q 953 2441 691 2322 
L 691 4666 
z
" id="DejaVuSans-35" transform="scale(0.015625)"/>
       </defs>
       <use xlink:href="#DejaVuSans-30"/>
       <use x="63.623047" xlink:href="#DejaVuSans-2e"/>
       <use x="95.410156" xlink:href="#DejaVuSans-35"/>
      </g>
     </g>
    </g>
    <g id="ytick_7">
     <g id="line2d_13">
      <g>
       <use style="stroke:#000000;stroke-width:0.8;" x="22.903125" xlink:href="#m8388e263ba" y="30.098177"/>
      </g>
     </g>
     <g id="text_14">
      <!-- 0.6 -->
      <g transform="translate(0 33.897396)scale(0.1 -0.1)">
       <defs>
        <path d="M 2113 2584 
Q 1688 2584 1439 2293 
Q 1191 2003 1191 1497 
Q 1191 994 1439 701 
Q 1688 409 2113 409 
Q 2538 409 2786 701 
Q 3034 994 3034 1497 
Q 3034 2003 2786 2293 
Q 2538 2584 2113 2584 
z
M 3366 4563 
L 3366 3988 
Q 3128 4100 2886 4159 
Q 2644 4219 2406 4219 
Q 1781 4219 1451 3797 
Q 1122 3375 1075 2522 
Q 1259 2794 1537 2939 
Q 1816 3084 2150 3084 
Q 2853 3084 3261 2657 
Q 3669 2231 3669 1497 
Q 3669 778 3244 343 
Q 2819 -91 2113 -91 
Q 1303 -91 875 529 
Q 447 1150 447 2328 
Q 447 3434 972 4092 
Q 1497 4750 2381 4750 
Q 2619 4750 2861 4703 
Q 3103 4656 3366 4563 
z
" id="DejaVuSans-36" transform="scale(0.015625)"/>
       </defs>
       <use xlink:href="#DejaVuSans-30"/>
       <use x="63.623047" xlink:href="#DejaVuSans-2e"/>
       <use x="95.410156" xlink:href="#DejaVuSans-36"/>
      </g>
     </g>
    </g>
   </g>
   <g id="LineCollection_1">
    <path clip-path="url(#p7378b70501)" d="M 29.712617 -0.603784 
L 29.712617 -1 
" style="fill:none;stroke:#000000;stroke-width:1.5;"/>
    <path clip-path="url(#p7378b70501)" d="M 90.24143 232.426744 
L 90.24143 225.015025 
" style="fill:none;stroke:#000000;stroke-width:1.5;"/>
    <path clip-path="url(#p7378b70501)" d="M 150.770244 241.861223 
L 150.770244 238.077259 
" style="fill:none;stroke:#000000;stroke-width:1.5;"/>
    <path clip-path="url(#p7378b70501)" d="M 211.299057 203.19395 
L 211.299057 197.716093 
" style="fill:none;stroke:#000000;stroke-width:1.5;"/>
    <path clip-path="url(#p7378b70501)" d="M 271.827871 266.112 
L 271.827871 266.112 
" style="fill:none;stroke:#000000;stroke-width:1.5;"/>
    <path clip-path="url(#p7378b70501)" d="M 332.356684 266.112 
L 332.356684 266.112 
" style="fill:none;stroke:#000000;stroke-width:1.5;"/>
   </g>
   <g id="LineCollection_2">
    <path clip-path="url(#p7378b70501)" d="M 43.3316 -0.598414 
L 43.3316 -1 
" style="fill:none;stroke:#000000;stroke-width:1.5;"/>
    <path clip-path="url(#p7378b70501)" d="M 103.860413 232.363448 
L 103.860413 224.52153 
" style="fill:none;stroke:#000000;stroke-width:1.5;"/>
    <path clip-path="url(#p7378b70501)" d="M 164.389227 241.644412 
L 164.389227 237.71044 
" style="fill:none;stroke:#000000;stroke-width:1.5;"/>
    <path clip-path="url(#p7378b70501)" d="M 224.91804 203.322201 
L 224.91804 197.939004 
" style="fill:none;stroke:#000000;stroke-width:1.5;"/>
    <path clip-path="url(#p7378b70501)" d="M 285.446854 266.112 
L 285.446854 266.112 
" style="fill:none;stroke:#000000;stroke-width:1.5;"/>
    <path clip-path="url(#p7378b70501)" d="M 345.975667 266.112 
L 345.975667 266.112 
" style="fill:none;stroke:#000000;stroke-width:1.5;"/>
   </g>
   <g id="LineCollection_3">
    <path clip-path="url(#p7378b70501)" d="M 56.950583 6.877524 
L 56.950583 2.230763 
" style="fill:none;stroke:#000000;stroke-width:1.5;"/>
    <path clip-path="url(#p7378b70501)" d="M 117.479396 232.301087 
L 117.479396 232.160663 
" style="fill:none;stroke:#000000;stroke-width:1.5;"/>
    <path clip-path="url(#p7378b70501)" d="M 178.00821 241.07471 
L 178.00821 240.722306 
" style="fill:none;stroke:#000000;stroke-width:1.5;"/>
    <path clip-path="url(#p7378b70501)" d="M 238.537023 194.676029 
L 238.537023 190.954454 
" style="fill:none;stroke:#000000;stroke-width:1.5;"/>
    <path clip-path="url(#p7378b70501)" d="M 299.065837 266.112 
L 299.065837 266.112 
" style="fill:none;stroke:#000000;stroke-width:1.5;"/>
    <path clip-path="url(#p7378b70501)" d="M 359.59465 266.112 
L 359.59465 266.112 
" style="fill:none;stroke:#000000;stroke-width:1.5;"/>
   </g>
   <g id="LineCollection_4">
    <path clip-path="url(#p7378b70501)" d="M 70.569566 7.947802 
L 70.569566 3.933564 
" style="fill:none;stroke:#000000;stroke-width:1.5;"/>
    <path clip-path="url(#p7378b70501)" d="M 131.098379 232.263331 
L 131.098379 232.156965 
" style="fill:none;stroke:#000000;stroke-width:1.5;"/>
    <path clip-path="url(#p7378b70501)" d="M 191.627193 240.973866 
L 191.627193 240.684189 
" style="fill:none;stroke:#000000;stroke-width:1.5;"/>
    <path clip-path="url(#p7378b70501)" d="M 252.156006 193.605553 
L 252.156006 190.301027 
" style="fill:none;stroke:#000000;stroke-width:1.5;"/>
    <path clip-path="url(#p7378b70501)" d="M 312.68482 266.112 
L 312.68482 266.112 
" style="fill:none;stroke:#000000;stroke-width:1.5;"/>
    <path clip-path="url(#p7378b70501)" d="M 373.213633 266.112 
L 373.213633 266.112 
" style="fill:none;stroke:#000000;stroke-width:1.5;"/>
   </g>
   <g id="line2d_14">
    <defs>
     <path d="M 3 0 
L -3 -0 
" id="ma3f40b1df2" style="stroke:#000000;"/>
    </defs>
    <g clip-path="url(#p7378b70501)">
     <use style="stroke:#000000;" x="29.712617" xlink:href="#ma3f40b1df2" y="-0.603784"/>
     <use style="stroke:#000000;" x="90.24143" xlink:href="#ma3f40b1df2" y="232.426744"/>
     <use style="stroke:#000000;" x="150.770244" xlink:href="#ma3f40b1df2" y="241.861223"/>
     <use style="stroke:#000000;" x="211.299057" xlink:href="#ma3f40b1df2" y="203.19395"/>
     <use style="stroke:#000000;" x="271.827871" xlink:href="#ma3f40b1df2" y="266.112"/>
     <use style="stroke:#000000;" x="332.356684" xlink:href="#ma3f40b1df2" y="266.112"/>
    </g>
   </g>
   <g id="line2d_15">
    <g clip-path="url(#p7378b70501)">
     <use style="stroke:#000000;" x="31.232925" xlink:href="#ma3f40b1df2" y="-1"/>
     <use style="stroke:#000000;" x="90.24143" xlink:href="#ma3f40b1df2" y="225.015025"/>
     <use style="stroke:#000000;" x="150.770244" xlink:href="#ma3f40b1df2" y="238.077259"/>
     <use style="stroke:#000000;" x="211.299057" xlink:href="#ma3f40b1df2" y="197.716093"/>
     <use style="stroke:#000000;" x="271.827871" xlink:href="#ma3f40b1df2" y="266.112"/>
     <use style="stroke:#000000;" x="332.356684" xlink:href="#ma3f40b1df2" y="266.112"/>
    </g>
   </g>
   <g id="line2d_16">
    <g clip-path="url(#p7378b70501)">
     <use style="stroke:#000000;" x="43.3316" xlink:href="#ma3f40b1df2" y="-0.598414"/>
     <use style="stroke:#000000;" x="103.860413" xlink:href="#ma3f40b1df2" y="232.363448"/>
     <use style="stroke:#000000;" x="164.389227" xlink:href="#ma3f40b1df2" y="241.644412"/>
     <use style="stroke:#000000;" x="224.91804" xlink:href="#ma3f40b1df2" y="203.322201"/>
     <use style="stroke:#000000;" x="285.446854" xlink:href="#ma3f40b1df2" y="266.112"/>
     <use style="stroke:#000000;" x="345.975667" xlink:href="#ma3f40b1df2" y="266.112"/>
    </g>
   </g>
   <g id="line2d_17">
    <g clip-path="url(#p7378b70501)">
     <use style="stroke:#000000;" x="44.792564" xlink:href="#ma3f40b1df2" y="-1"/>
     <use style="stroke:#000000;" x="103.860413" xlink:href="#ma3f40b1df2" y="224.52153"/>
     <use style="stroke:#000000;" x="164.389227" xlink:href="#ma3f40b1df2" y="237.71044"/>
     <use style="stroke:#000000;" x="224.91804" xlink:href="#ma3f40b1df2" y="197.939004"/>
     <use style="stroke:#000000;" x="285.446854" xlink:href="#ma3f40b1df2" y="266.112"/>
     <use style="stroke:#000000;" x="345.975667" xlink:href="#ma3f40b1df2" y="266.112"/>
    </g>
   </g>
   <g id="line2d_18">
    <g clip-path="url(#p7378b70501)">
     <use style="stroke:#000000;" x="56.950583" xlink:href="#ma3f40b1df2" y="6.877524"/>
     <use style="stroke:#000000;" x="117.479396" xlink:href="#ma3f40b1df2" y="232.301087"/>
     <use style="stroke:#000000;" x="178.00821" xlink:href="#ma3f40b1df2" y="241.07471"/>
     <use style="stroke:#000000;" x="238.537023" xlink:href="#ma3f40b1df2" y="194.676029"/>
     <use style="stroke:#000000;" x="299.065837" xlink:href="#ma3f40b1df2" y="266.112"/>
     <use style="stroke:#000000;" x="359.59465" xlink:href="#ma3f40b1df2" y="266.112"/>
    </g>
   </g>
   <g id="line2d_19">
    <g clip-path="url(#p7378b70501)">
     <use style="stroke:#000000;" x="56.950583" xlink:href="#ma3f40b1df2" y="2.230763"/>
     <use style="stroke:#000000;" x="117.479396" xlink:href="#ma3f40b1df2" y="232.160663"/>
     <use style="stroke:#000000;" x="178.00821" xlink:href="#ma3f40b1df2" y="240.722306"/>
     <use style="stroke:#000000;" x="238.537023" xlink:href="#ma3f40b1df2" y="190.954454"/>
     <use style="stroke:#000000;" x="299.065837" xlink:href="#ma3f40b1df2" y="266.112"/>
     <use style="stroke:#000000;" x="359.59465" xlink:href="#ma3f40b1df2" y="266.112"/>
    </g>
   </g>
   <g id="line2d_20">
    <g clip-path="url(#p7378b70501)">
     <use style="stroke:#000000;" x="70.569566" xlink:href="#ma3f40b1df2" y="7.947802"/>
     <use style="stroke:#000000;" x="131.098379" xlink:href="#ma3f40b1df2" y="232.263331"/>
     <use style="stroke:#000000;" x="191.627193" xlink:href="#ma3f40b1df2" y="240.973866"/>
     <use style="stroke:#000000;" x="252.156006" xlink:href="#ma3f40b1df2" y="193.605553"/>
     <use style="stroke:#000000;" x="312.68482" xlink:href="#ma3f40b1df2" y="266.112"/>
     <use style="stroke:#000000;" x="373.213633" xlink:href="#ma3f40b1df2" y="266.112"/>
    </g>
   </g>
   <g id="line2d_21">
    <g clip-path="url(#p7378b70501)">
     <use style="stroke:#000000;" x="70.569566" xlink:href="#ma3f40b1df2" y="3.933564"/>
     <use style="stroke:#000000;" x="131.098379" xlink:href="#ma3f40b1df2" y="232.156965"/>
     <use style="stroke:#000000;" x="191.627193" xlink:href="#ma3f40b1df2" y="240.684189"/>
     <use style="stroke:#000000;" x="252.156006" xlink:href="#ma3f40b1df2" y="190.301027"/>
     <use style="stroke:#000000;" x="312.68482" xlink:href="#ma3f40b1df2" y="266.112"/>
     <use style="stroke:#000000;" x="373.213633" xlink:href="#ma3f40b1df2" y="266.112"/>
    </g>
   </g>
   <g id="patch_27">
    <path d="M 22.903125 266.112 
L 22.903125 -0 
" style="fill:none;stroke:#000000;stroke-linecap:square;stroke-linejoin:miter;stroke-width:0.8;"/>
   </g>
   <g id="patch_28">
    <path d="M 380.023125 266.112 
L 380.023125 -0 
" style="fill:none;stroke:#000000;stroke-linecap:square;stroke-linejoin:miter;stroke-width:0.8;"/>
   </g>
   <g id="patch_29">
    <path d="M 22.903125 266.112 
L 380.023125 266.112 
" style="fill:none;stroke:#000000;stroke-linecap:square;stroke-linejoin:miter;stroke-width:0.8;"/>
   </g>
   <g id="patch_30">
    <path d="M 22.903125 -0 
L 380.023125 -0 
" style="fill:none;stroke:#000000;stroke-linecap:square;stroke-linejoin:miter;stroke-width:0.8;"/>
   </g>
   <g id="legend_1">
    <g id="patch_31">
     <path d="M 243.109063 66.7125 
L 373.023125 66.7125 
Q 375.023125 66.7125 375.023125 64.7125 
L 375.023125 7 
Q 375.023125 5 373.023125 5 
L 243.109063 5 
Q 241.109063 5 241.109063 7 
L 241.109063 64.7125 
Q 241.109063 66.7125 243.109063 66.7125 
z
" style="fill:#ffffff;opacity:0.8;stroke:#cccccc;stroke-linejoin:miter;"/>
    </g>
    <g id="patch_32">
     <path d="M 245.109063 16.598437 
L 265.109063 16.598437 
L 265.109063 9.598437 
L 245.109063 9.598437 
z
" style="fill:#66c2a5;"/>
    </g>
    <g id="text_15">
     <!-- B. pendula north -->
     <g transform="translate(273.109063 16.598437)scale(0.1 -0.1)">
      <defs>
       <path d="M 1259 2228 
L 1259 519 
L 2272 519 
Q 2781 519 3026 730 
Q 3272 941 3272 1375 
Q 3272 1813 3026 2020 
Q 2781 2228 2272 2228 
L 1259 2228 
z
M 1259 4147 
L 1259 2741 
L 2194 2741 
Q 2656 2741 2882 2914 
Q 3109 3088 3109 3444 
Q 3109 3797 2882 3972 
Q 2656 4147 2194 4147 
L 1259 4147 
z
M 628 4666 
L 2241 4666 
Q 2963 4666 3353 4366 
Q 3744 4066 3744 3513 
Q 3744 3084 3544 2831 
Q 3344 2578 2956 2516 
Q 3422 2416 3680 2098 
Q 3938 1781 3938 1306 
Q 3938 681 3513 340 
Q 3088 0 2303 0 
L 628 0 
L 628 4666 
z
" id="DejaVuSans-42" transform="scale(0.015625)"/>
       <path d="M 1159 525 
L 1159 -1331 
L 581 -1331 
L 581 3500 
L 1159 3500 
L 1159 2969 
Q 1341 3281 1617 3432 
Q 1894 3584 2278 3584 
Q 2916 3584 3314 3078 
Q 3713 2572 3713 1747 
Q 3713 922 3314 415 
Q 2916 -91 2278 -91 
Q 1894 -91 1617 61 
Q 1341 213 1159 525 
z
M 3116 1747 
Q 3116 2381 2855 2742 
Q 2594 3103 2138 3103 
Q 1681 3103 1420 2742 
Q 1159 2381 1159 1747 
Q 1159 1113 1420 752 
Q 1681 391 2138 391 
Q 2594 391 2855 752 
Q 3116 1113 3116 1747 
z
" id="DejaVuSans-70" transform="scale(0.015625)"/>
       <path d="M 3597 1894 
L 3597 1613 
L 953 1613 
Q 991 1019 1311 708 
Q 1631 397 2203 397 
Q 2534 397 2845 478 
Q 3156 559 3463 722 
L 3463 178 
Q 3153 47 2828 -22 
Q 2503 -91 2169 -91 
Q 1331 -91 842 396 
Q 353 884 353 1716 
Q 353 2575 817 3079 
Q 1281 3584 2069 3584 
Q 2775 3584 3186 3129 
Q 3597 2675 3597 1894 
z
M 3022 2063 
Q 3016 2534 2758 2815 
Q 2500 3097 2075 3097 
Q 1594 3097 1305 2825 
Q 1016 2553 972 2059 
L 3022 2063 
z
" id="DejaVuSans-65" transform="scale(0.015625)"/>
       <path d="M 3513 2113 
L 3513 0 
L 2938 0 
L 2938 2094 
Q 2938 2591 2744 2837 
Q 2550 3084 2163 3084 
Q 1697 3084 1428 2787 
Q 1159 2491 1159 1978 
L 1159 0 
L 581 0 
L 581 3500 
L 1159 3500 
L 1159 2956 
Q 1366 3272 1645 3428 
Q 1925 3584 2291 3584 
Q 2894 3584 3203 3211 
Q 3513 2838 3513 2113 
z
" id="DejaVuSans-6e" transform="scale(0.015625)"/>
       <path d="M 2906 2969 
L 2906 4863 
L 3481 4863 
L 3481 0 
L 2906 0 
L 2906 525 
Q 2725 213 2448 61 
Q 2172 -91 1784 -91 
Q 1150 -91 751 415 
Q 353 922 353 1747 
Q 353 2572 751 3078 
Q 1150 3584 1784 3584 
Q 2172 3584 2448 3432 
Q 2725 3281 2906 2969 
z
M 947 1747 
Q 947 1113 1208 752 
Q 1469 391 1925 391 
Q 2381 391 2643 752 
Q 2906 1113 2906 1747 
Q 2906 2381 2643 2742 
Q 2381 3103 1925 3103 
Q 1469 3103 1208 2742 
Q 947 2381 947 1747 
z
" id="DejaVuSans-64" transform="scale(0.015625)"/>
       <path d="M 544 1381 
L 544 3500 
L 1119 3500 
L 1119 1403 
Q 1119 906 1312 657 
Q 1506 409 1894 409 
Q 2359 409 2629 706 
Q 2900 1003 2900 1516 
L 2900 3500 
L 3475 3500 
L 3475 0 
L 2900 0 
L 2900 538 
Q 2691 219 2414 64 
Q 2138 -91 1772 -91 
Q 1169 -91 856 284 
Q 544 659 544 1381 
z
M 1991 3584 
L 1991 3584 
z
" id="DejaVuSans-75" transform="scale(0.015625)"/>
       <path d="M 603 4863 
L 1178 4863 
L 1178 0 
L 603 0 
L 603 4863 
z
" id="DejaVuSans-6c" transform="scale(0.015625)"/>
       <path d="M 2194 1759 
Q 1497 1759 1228 1600 
Q 959 1441 959 1056 
Q 959 750 1161 570 
Q 1363 391 1709 391 
Q 2188 391 2477 730 
Q 2766 1069 2766 1631 
L 2766 1759 
L 2194 1759 
z
M 3341 1997 
L 3341 0 
L 2766 0 
L 2766 531 
Q 2569 213 2275 61 
Q 1981 -91 1556 -91 
Q 1019 -91 701 211 
Q 384 513 384 1019 
Q 384 1609 779 1909 
Q 1175 2209 1959 2209 
L 2766 2209 
L 2766 2266 
Q 2766 2663 2505 2880 
Q 2244 3097 1772 3097 
Q 1472 3097 1187 3025 
Q 903 2953 641 2809 
L 641 3341 
Q 956 3463 1253 3523 
Q 1550 3584 1831 3584 
Q 2591 3584 2966 3190 
Q 3341 2797 3341 1997 
z
" id="DejaVuSans-61" transform="scale(0.015625)"/>
       <path d="M 1959 3097 
Q 1497 3097 1228 2736 
Q 959 2375 959 1747 
Q 959 1119 1226 758 
Q 1494 397 1959 397 
Q 2419 397 2687 759 
Q 2956 1122 2956 1747 
Q 2956 2369 2687 2733 
Q 2419 3097 1959 3097 
z
M 1959 3584 
Q 2709 3584 3137 3096 
Q 3566 2609 3566 1747 
Q 3566 888 3137 398 
Q 2709 -91 1959 -91 
Q 1206 -91 779 398 
Q 353 888 353 1747 
Q 353 2609 779 3096 
Q 1206 3584 1959 3584 
z
" id="DejaVuSans-6f" transform="scale(0.015625)"/>
       <path d="M 2631 2963 
Q 2534 3019 2420 3045 
Q 2306 3072 2169 3072 
Q 1681 3072 1420 2755 
Q 1159 2438 1159 1844 
L 1159 0 
L 581 0 
L 581 3500 
L 1159 3500 
L 1159 2956 
Q 1341 3275 1631 3429 
Q 1922 3584 2338 3584 
Q 2397 3584 2469 3576 
Q 2541 3569 2628 3553 
L 2631 2963 
z
" id="DejaVuSans-72" transform="scale(0.015625)"/>
       <path d="M 1172 4494 
L 1172 3500 
L 2356 3500 
L 2356 3053 
L 1172 3053 
L 1172 1153 
Q 1172 725 1289 603 
Q 1406 481 1766 481 
L 2356 481 
L 2356 0 
L 1766 0 
Q 1100 0 847 248 
Q 594 497 594 1153 
L 594 3053 
L 172 3053 
L 172 3500 
L 594 3500 
L 594 4494 
L 1172 4494 
z
" id="DejaVuSans-74" transform="scale(0.015625)"/>
       <path d="M 3513 2113 
L 3513 0 
L 2938 0 
L 2938 2094 
Q 2938 2591 2744 2837 
Q 2550 3084 2163 3084 
Q 1697 3084 1428 2787 
Q 1159 2491 1159 1978 
L 1159 0 
L 581 0 
L 581 4863 
L 1159 4863 
L 1159 2956 
Q 1366 3272 1645 3428 
Q 1925 3584 2291 3584 
Q 2894 3584 3203 3211 
Q 3513 2838 3513 2113 
z
" id="DejaVuSans-68" transform="scale(0.015625)"/>
      </defs>
      <use xlink:href="#DejaVuSans-42"/>
      <use x="68.603516" xlink:href="#DejaVuSans-2e"/>
      <use x="100.390625" xlink:href="#DejaVuSans-20"/>
      <use x="132.177734" xlink:href="#DejaVuSans-70"/>
      <use x="195.654297" xlink:href="#DejaVuSans-65"/>
      <use x="257.177734" xlink:href="#DejaVuSans-6e"/>
      <use x="320.556641" xlink:href="#DejaVuSans-64"/>
      <use x="384.033203" xlink:href="#DejaVuSans-75"/>
      <use x="447.412109" xlink:href="#DejaVuSans-6c"/>
      <use x="475.195312" xlink:href="#DejaVuSans-61"/>
      <use x="536.474609" xlink:href="#DejaVuSans-20"/>
      <use x="568.261719" xlink:href="#DejaVuSans-6e"/>
      <use x="631.640625" xlink:href="#DejaVuSans-6f"/>
      <use x="692.822266" xlink:href="#DejaVuSans-72"/>
      <use x="733.935547" xlink:href="#DejaVuSans-74"/>
      <use x="773.144531" xlink:href="#DejaVuSans-68"/>
     </g>
    </g>
    <g id="patch_33">
     <path d="M 245.109063 31.276562 
L 265.109063 31.276562 
L 265.109063 24.276562 
L 245.109063 24.276562 
z
" style="fill:#fc8d62;"/>
    </g>
    <g id="text_16">
     <!-- B. pendula south -->
     <g transform="translate(273.109063 31.276562)scale(0.1 -0.1)">
      <defs>
       <path d="M 2834 3397 
L 2834 2853 
Q 2591 2978 2328 3040 
Q 2066 3103 1784 3103 
Q 1356 3103 1142 2972 
Q 928 2841 928 2578 
Q 928 2378 1081 2264 
Q 1234 2150 1697 2047 
L 1894 2003 
Q 2506 1872 2764 1633 
Q 3022 1394 3022 966 
Q 3022 478 2636 193 
Q 2250 -91 1575 -91 
Q 1294 -91 989 -36 
Q 684 19 347 128 
L 347 722 
Q 666 556 975 473 
Q 1284 391 1588 391 
Q 1994 391 2212 530 
Q 2431 669 2431 922 
Q 2431 1156 2273 1281 
Q 2116 1406 1581 1522 
L 1381 1569 
Q 847 1681 609 1914 
Q 372 2147 372 2553 
Q 372 3047 722 3315 
Q 1072 3584 1716 3584 
Q 2034 3584 2315 3537 
Q 2597 3491 2834 3397 
z
" id="DejaVuSans-73" transform="scale(0.015625)"/>
      </defs>
      <use xlink:href="#DejaVuSans-42"/>
      <use x="68.603516" xlink:href="#DejaVuSans-2e"/>
      <use x="100.390625" xlink:href="#DejaVuSans-20"/>
      <use x="132.177734" xlink:href="#DejaVuSans-70"/>
      <use x="195.654297" xlink:href="#DejaVuSans-65"/>
      <use x="257.177734" xlink:href="#DejaVuSans-6e"/>
      <use x="320.556641" xlink:href="#DejaVuSans-64"/>
      <use x="384.033203" xlink:href="#DejaVuSans-75"/>
      <use x="447.412109" xlink:href="#DejaVuSans-6c"/>
      <use x="475.195312" xlink:href="#DejaVuSans-61"/>
      <use x="536.474609" xlink:href="#DejaVuSans-20"/>
      <use x="568.261719" xlink:href="#DejaVuSans-73"/>
      <use x="620.361328" xlink:href="#DejaVuSans-6f"/>
      <use x="681.542969" xlink:href="#DejaVuSans-75"/>
      <use x="744.921875" xlink:href="#DejaVuSans-74"/>
      <use x="784.130859" xlink:href="#DejaVuSans-68"/>
     </g>
    </g>
    <g id="patch_34">
     <path d="M 245.109063 45.954687 
L 265.109063 45.954687 
L 265.109063 38.954687 
L 245.109063 38.954687 
z
" style="fill:#8da0cb;"/>
    </g>
    <g id="text_17">
     <!-- B. pubescens north -->
     <g transform="translate(273.109063 45.954687)scale(0.1 -0.1)">
      <defs>
       <path d="M 3116 1747 
Q 3116 2381 2855 2742 
Q 2594 3103 2138 3103 
Q 1681 3103 1420 2742 
Q 1159 2381 1159 1747 
Q 1159 1113 1420 752 
Q 1681 391 2138 391 
Q 2594 391 2855 752 
Q 3116 1113 3116 1747 
z
M 1159 2969 
Q 1341 3281 1617 3432 
Q 1894 3584 2278 3584 
Q 2916 3584 3314 3078 
Q 3713 2572 3713 1747 
Q 3713 922 3314 415 
Q 2916 -91 2278 -91 
Q 1894 -91 1617 61 
Q 1341 213 1159 525 
L 1159 0 
L 581 0 
L 581 4863 
L 1159 4863 
L 1159 2969 
z
" id="DejaVuSans-62" transform="scale(0.015625)"/>
       <path d="M 3122 3366 
L 3122 2828 
Q 2878 2963 2633 3030 
Q 2388 3097 2138 3097 
Q 1578 3097 1268 2742 
Q 959 2388 959 1747 
Q 959 1106 1268 751 
Q 1578 397 2138 397 
Q 2388 397 2633 464 
Q 2878 531 3122 666 
L 3122 134 
Q 2881 22 2623 -34 
Q 2366 -91 2075 -91 
Q 1284 -91 818 406 
Q 353 903 353 1747 
Q 353 2603 823 3093 
Q 1294 3584 2113 3584 
Q 2378 3584 2631 3529 
Q 2884 3475 3122 3366 
z
" id="DejaVuSans-63" transform="scale(0.015625)"/>
      </defs>
      <use xlink:href="#DejaVuSans-42"/>
      <use x="68.603516" xlink:href="#DejaVuSans-2e"/>
      <use x="100.390625" xlink:href="#DejaVuSans-20"/>
      <use x="132.177734" xlink:href="#DejaVuSans-70"/>
      <use x="195.654297" xlink:href="#DejaVuSans-75"/>
      <use x="259.033203" xlink:href="#DejaVuSans-62"/>
      <use x="322.509766" xlink:href="#DejaVuSans-65"/>
      <use x="384.033203" xlink:href="#DejaVuSans-73"/>
      <use x="436.132812" xlink:href="#DejaVuSans-63"/>
      <use x="491.113281" xlink:href="#DejaVuSans-65"/>
      <use x="552.636719" xlink:href="#DejaVuSans-6e"/>
      <use x="616.015625" xlink:href="#DejaVuSans-73"/>
      <use x="668.115234" xlink:href="#DejaVuSans-20"/>
      <use x="699.902344" xlink:href="#DejaVuSans-6e"/>
      <use x="763.28125" xlink:href="#DejaVuSans-6f"/>
      <use x="824.462891" xlink:href="#DejaVuSans-72"/>
      <use x="865.576172" xlink:href="#DejaVuSans-74"/>
      <use x="904.785156" xlink:href="#DejaVuSans-68"/>
     </g>
    </g>
    <g id="patch_35">
     <path d="M 245.109063 60.632812 
L 265.109063 60.632812 
L 265.109063 53.632812 
L 245.109063 53.632812 
z
" style="fill:#e78ac3;"/>
    </g>
    <g id="text_18">
     <!-- B. pubescens south -->
     <g transform="translate(273.109063 60.632812)scale(0.1 -0.1)">
      <use xlink:href="#DejaVuSans-42"/>
      <use x="68.603516" xlink:href="#DejaVuSans-2e"/>
      <use x="100.390625" xlink:href="#DejaVuSans-20"/>
      <use x="132.177734" xlink:href="#DejaVuSans-70"/>
      <use x="195.654297" xlink:href="#DejaVuSans-75"/>
      <use x="259.033203" xlink:href="#DejaVuSans-62"/>
      <use x="322.509766" xlink:href="#DejaVuSans-65"/>
      <use x="384.033203" xlink:href="#DejaVuSans-73"/>
      <use x="436.132812" xlink:href="#DejaVuSans-63"/>
      <use x="491.113281" xlink:href="#DejaVuSans-65"/>
      <use x="552.636719" xlink:href="#DejaVuSans-6e"/>
      <use x="616.015625" xlink:href="#DejaVuSans-73"/>
      <use x="668.115234" xlink:href="#DejaVuSans-20"/>
      <use x="699.902344" xlink:href="#DejaVuSans-73"/>
      <use x="752.001953" xlink:href="#DejaVuSans-6f"/>
      <use x="813.183594" xlink:href="#DejaVuSans-75"/>
      <use x="876.5625" xlink:href="#DejaVuSans-74"/>
      <use x="915.771484" xlink:href="#DejaVuSans-68"/>
     </g>
    </g>
   </g>
  </g>
 </g>
 <defs>
  <clipPath id="p7378b70501">
   <rect height="266.112" width="357.12" x="22.903125" y="-0"/>
  </clipPath>
 </defs>
</svg>
