<?xml version="1.0" encoding="utf-8" standalone="no"?>
<!DOCTYPE svg PUBLIC "-//W3C//DTD SVG 1.1//EN"
  "http://www.w3.org/Graphics/SVG/1.1/DTD/svg11.dtd">
<svg height="267.282003pt" version="1.1" viewBox="0 0 366.829401 267.282003" width="366.829401pt" xmlns="http://www.w3.org/2000/svg" xmlns:xlink="http://www.w3.org/1999/xlink">
 <metadata>
  <rdf:RDF xmlns:cc="http://creativecommons.org/ns#" xmlns:dc="http://purl.org/dc/elements/1.1/" xmlns:rdf="http://www.w3.org/1999/02/22-rdf-syntax-ns#">
   <cc:Work>
    <dc:type rdf:resource="http://purl.org/dc/dcmitype/StillImage"/>
    <dc:date>2022-01-17T14:09:10.385342</dc:date>
    <dc:format>image/svg+xml</dc:format>
    <dc:creator>
     <cc:Agent>
      <dc:title>Matplotlib v3.4.3, https://matplotlib.org/</dc:title>
     </cc:Agent>
    </dc:creator>
   </cc:Work>
  </rdf:RDF>
 </metadata>
 <defs>
  <style type="text/css">*{stroke-linecap:butt;stroke-linejoin:round;}</style>
 </defs>
 <g id="figure_1">
  <g id="patch_1">
   <path d="M 0 267.282003 
L 366.829401 267.282003 
L 366.829401 0 
L 0 0 
z
" style="fill:#ffffff;"/>
  </g>
  <g id="axes_1">
   <g id="patch_2">
    <path d="M 188.139501 13.266003 
C 156.982043 13.266003 127.010367 25.36467 104.584314 46.994726 
C 82.158261 68.624781 68.984799 98.139845 67.859273 129.276967 
C 66.733746 160.414089 77.741824 190.803254 98.547648 213.99603 
C 119.353471 237.188807 148.373395 251.419867 179.449537 253.669452 
L 183.794519 193.647119 
C 168.256448 192.522327 153.746486 185.406797 143.343575 173.810409 
C 132.940663 162.21402 127.436624 147.019438 127.999387 131.450877 
C 128.56215 115.882316 135.148881 101.124784 146.361908 90.309756 
C 157.574934 79.494729 172.560772 73.445395 188.139501 73.445395 
L 188.139501 13.266003 
z
" style="fill:#3182bd;stroke:#ffffff;stroke-linejoin:miter;"/>
   </g>
   <g id="patch_3">
    <path d="M 179.449537 253.669452 
C 200.399445 255.186003 221.385892 251.19227 240.314428 242.086826 
C 259.242965 232.981382 275.462231 219.07756 287.353543 201.762962 
C 299.244854 184.448365 306.399014 164.318812 308.102035 143.383237 
C 309.805056 122.447662 305.998336 101.426488 297.061785 82.417631 
L 242.600643 108.021209 
C 247.068919 117.525638 248.972279 128.036225 248.120768 138.504012 
C 247.269257 148.9718 243.692178 159.036576 237.746522 167.693875 
C 231.800866 176.351174 223.691233 183.303085 214.226965 187.855807 
C 204.762697 192.408529 194.269473 194.405395 183.794519 193.647119 
L 179.449537 253.669452 
z
" style="fill:#e6550d;stroke:#ffffff;stroke-linejoin:miter;"/>
   </g>
   <g id="patch_4">
    <path d="M 297.061785 82.417631 
C 291.388031 70.349039 283.747725 59.306911 274.453655 49.743301 
C 265.159584 40.17969 254.340333 32.226912 242.438833 26.210545 
L 215.289167 79.917666 
C 221.239917 82.92585 226.649543 86.902239 231.296578 91.684044 
C 235.943613 96.465849 239.763766 101.986913 242.600643 108.021209 
L 297.061785 82.417631 
z
" style="fill:#31a354;stroke:#ffffff;stroke-linejoin:miter;"/>
   </g>
   <g id="patch_5">
    <path d="M 242.438833 26.210545 
C 234.050105 21.969931 225.193412 18.72658 216.049979 16.546856 
C 206.906546 14.367132 197.539164 13.266004 188.139507 13.266003 
L 188.139504 73.445395 
C 192.839333 73.445396 197.523024 73.995959 202.09474 75.085822 
C 206.666457 76.175684 211.094803 77.797359 215.289167 79.917666 
L 242.438833 26.210545 
z
" style="fill:#756bb1;stroke:#ffffff;stroke-linejoin:miter;"/>
   </g>
   <g id="patch_6">
    <path d="M 188.139501 73.445395 
C 172.560772 73.445395 157.574934 79.494729 146.361908 90.309756 
C 135.148881 101.124784 128.56215 115.882316 127.999387 131.450877 
C 127.436624 147.019438 132.940663 162.21402 143.343575 173.810409 
C 153.746486 185.406797 168.256448 192.522327 183.794519 193.647119 
L 184.663515 181.642653 
C 172.233059 180.742819 160.625089 175.050395 152.30276 165.773285 
C 143.98043 156.496174 139.577199 144.340508 140.02741 131.885659 
C 140.477621 119.430811 145.747005 107.624785 154.717426 98.972763 
C 163.687848 90.32074 175.676518 85.481274 188.139501 85.481274 
L 188.139501 73.445395 
z
" style="fill:#6baed6;stroke:#ffffff;stroke-linejoin:miter;"/>
   </g>
   <g id="patch_7">
    <path d="M 183.794519 193.647119 
C 184.899165 193.727084 186.005808 193.776539 187.113184 193.795427 
C 188.220559 193.814315 189.328245 193.80263 190.434976 193.760384 
L 189.975881 181.733265 
C 189.090497 181.767061 188.204348 181.77641 187.318447 181.761299 
C 186.432547 181.746189 185.547232 181.706625 184.663515 181.642653 
L 183.794519 193.647119 
z
" style="fill:#fd8d3c;stroke:#ffffff;stroke-linejoin:miter;"/>
   </g>
   <g id="patch_8">
    <path d="M 190.434976 193.760384 
C 200.367567 193.381241 210.053213 190.54709 218.62343 185.512062 
C 227.193646 180.477035 234.384387 173.396258 239.550878 164.904646 
C 244.71737 156.413033 247.700433 146.77221 248.232586 136.84664 
C 248.76474 126.92107 246.829587 117.01656 242.600647 108.021217 
L 231.708418 113.141931 
C 235.09157 120.338206 236.639692 128.261814 236.213969 136.20227 
C 235.788247 144.142725 233.401796 151.855384 229.268603 158.648674 
C 225.13541 165.441964 219.382817 171.106585 212.526644 175.134607 
C 205.670471 179.16263 197.921954 181.42995 189.975881 181.733265 
L 190.434976 193.760384 
z
" style="fill:#fdae6b;stroke:#ffffff;stroke-linejoin:miter;"/>
   </g>
   <g id="patch_9">
    <path d="M 242.600647 108.021217 
C 242.533265 107.877889 242.465317 107.734827 242.396805 107.592036 
C 242.328294 107.449244 242.259218 107.306723 242.189581 107.164477 
L 231.379565 112.456539 
C 231.435275 112.570336 231.490535 112.684353 231.545345 112.798586 
C 231.600154 112.912819 231.654512 113.027269 231.708418 113.141931 
L 242.600647 108.021217 
z
" style="fill:#74c476;stroke:#ffffff;stroke-linejoin:miter;"/>
   </g>
   <g id="patch_10">
    <path d="M 242.189581 107.164477 
C 241.987649 106.751993 241.781002 106.341835 241.56968 105.934082 
C 241.358359 105.526329 241.142376 105.121009 240.921775 104.7182 
L 230.36532 110.499518 
C 230.541801 110.821764 230.714587 111.146021 230.883645 111.472223 
C 231.052702 111.798425 231.21802 112.126552 231.379565 112.456539 
L 242.189581 107.164477 
z
" style="fill:#a1d99b;stroke:#ffffff;stroke-linejoin:miter;"/>
   </g>
   <g id="patch_11">
    <path d="M 240.921775 104.7182 
C 238.017447 99.415013 234.330394 94.579691 229.984998 90.375353 
C 225.639602 86.171015 220.685283 82.645476 215.289174 79.91767 
L 209.85924 90.659093 
C 214.176127 92.841338 218.139582 95.661769 221.615899 99.02524 
C 225.092215 102.38871 228.041858 106.256968 230.36532 110.499518 
L 240.921775 104.7182 
z
" style="fill:#c7e9c0;stroke:#ffffff;stroke-linejoin:miter;"/>
   </g>
   <g id="patch_12">
    <path d="M 215.289174 79.91767 
C 214.719437 79.62966 214.145152 79.350734 213.566539 79.080998 
C 212.987926 78.811262 212.405057 78.55075 211.818154 78.299562 
L 207.082424 89.364607 
C 207.551946 89.565558 208.018241 89.773967 208.481131 89.989756 
C 208.944022 90.205545 209.40345 90.428685 209.85924 90.659093 
L 215.289174 79.91767 
z
" style="fill:#9e9ac8;stroke:#ffffff;stroke-linejoin:miter;"/>
   </g>
   <g id="patch_13">
    <path d="M 211.818154 78.299562 
C 208.086057 76.70226 204.201893 75.486687 200.225051 74.671427 
C 196.248208 73.856167 192.199059 73.445396 188.139511 73.445395 
L 188.139509 85.481274 
C 191.387147 85.481274 194.626467 85.809891 197.807941 86.462099 
C 200.989415 87.114307 204.096746 88.086766 207.082424 89.364607 
L 211.818154 78.299562 
z
" style="fill:#bcbddc;stroke:#ffffff;stroke-linejoin:miter;"/>
   </g>
   <g id="matplotlib.axis_1"/>
   <g id="matplotlib.axis_2"/>
   <g id="text_1">
    <!-- non-coding -->
    <g transform="translate(0 131.60156)scale(0.1 -0.1)">
     <defs>
      <path d="M 3513 2113 
L 3513 0 
L 2938 0 
L 2938 2094 
Q 2938 2591 2744 2837 
Q 2550 3084 2163 3084 
Q 1697 3084 1428 2787 
Q 1159 2491 1159 1978 
L 1159 0 
L 581 0 
L 581 3500 
L 1159 3500 
L 1159 2956 
Q 1366 3272 1645 3428 
Q 1925 3584 2291 3584 
Q 2894 3584 3203 3211 
Q 3513 2838 3513 2113 
z
" id="DejaVuSans-6e" transform="scale(0.015625)"/>
      <path d="M 1959 3097 
Q 1497 3097 1228 2736 
Q 959 2375 959 1747 
Q 959 1119 1226 758 
Q 1494 397 1959 397 
Q 2419 397 2687 759 
Q 2956 1122 2956 1747 
Q 2956 2369 2687 2733 
Q 2419 3097 1959 3097 
z
M 1959 3584 
Q 2709 3584 3137 3096 
Q 3566 2609 3566 1747 
Q 3566 888 3137 398 
Q 2709 -91 1959 -91 
Q 1206 -91 779 398 
Q 353 888 353 1747 
Q 353 2609 779 3096 
Q 1206 3584 1959 3584 
z
" id="DejaVuSans-6f" transform="scale(0.015625)"/>
      <path d="M 313 2009 
L 1997 2009 
L 1997 1497 
L 313 1497 
L 313 2009 
z
" id="DejaVuSans-2d" transform="scale(0.015625)"/>
      <path d="M 3122 3366 
L 3122 2828 
Q 2878 2963 2633 3030 
Q 2388 3097 2138 3097 
Q 1578 3097 1268 2742 
Q 959 2388 959 1747 
Q 959 1106 1268 751 
Q 1578 397 2138 397 
Q 2388 397 2633 464 
Q 2878 531 3122 666 
L 3122 134 
Q 2881 22 2623 -34 
Q 2366 -91 2075 -91 
Q 1284 -91 818 406 
Q 353 903 353 1747 
Q 353 2603 823 3093 
Q 1294 3584 2113 3584 
Q 2378 3584 2631 3529 
Q 2884 3475 3122 3366 
z
" id="DejaVuSans-63" transform="scale(0.015625)"/>
      <path d="M 2906 2969 
L 2906 4863 
L 3481 4863 
L 3481 0 
L 2906 0 
L 2906 525 
Q 2725 213 2448 61 
Q 2172 -91 1784 -91 
Q 1150 -91 751 415 
Q 353 922 353 1747 
Q 353 2572 751 3078 
Q 1150 3584 1784 3584 
Q 2172 3584 2448 3432 
Q 2725 3281 2906 2969 
z
M 947 1747 
Q 947 1113 1208 752 
Q 1469 391 1925 391 
Q 2381 391 2643 752 
Q 2906 1113 2906 1747 
Q 2906 2381 2643 2742 
Q 2381 3103 1925 3103 
Q 1469 3103 1208 2742 
Q 947 2381 947 1747 
z
" id="DejaVuSans-64" transform="scale(0.015625)"/>
      <path d="M 603 3500 
L 1178 3500 
L 1178 0 
L 603 0 
L 603 3500 
z
M 603 4863 
L 1178 4863 
L 1178 4134 
L 603 4134 
L 603 4863 
z
" id="DejaVuSans-69" transform="scale(0.015625)"/>
      <path d="M 2906 1791 
Q 2906 2416 2648 2759 
Q 2391 3103 1925 3103 
Q 1463 3103 1205 2759 
Q 947 2416 947 1791 
Q 947 1169 1205 825 
Q 1463 481 1925 481 
Q 2391 481 2648 825 
Q 2906 1169 2906 1791 
z
M 3481 434 
Q 3481 -459 3084 -895 
Q 2688 -1331 1869 -1331 
Q 1566 -1331 1297 -1286 
Q 1028 -1241 775 -1147 
L 775 -588 
Q 1028 -725 1275 -790 
Q 1522 -856 1778 -856 
Q 2344 -856 2625 -561 
Q 2906 -266 2906 331 
L 2906 616 
Q 2728 306 2450 153 
Q 2172 0 1784 0 
Q 1141 0 747 490 
Q 353 981 353 1791 
Q 353 2603 747 3093 
Q 1141 3584 1784 3584 
Q 2172 3584 2450 3431 
Q 2728 3278 2906 2969 
L 2906 3500 
L 3481 3500 
L 3481 434 
z
" id="DejaVuSans-67" transform="scale(0.015625)"/>
     </defs>
     <use xlink:href="#DejaVuSans-6e"/>
     <use x="63.378906" xlink:href="#DejaVuSans-6f"/>
     <use x="124.560547" xlink:href="#DejaVuSans-6e"/>
     <use x="187.939453" xlink:href="#DejaVuSans-2d"/>
     <use x="224.023438" xlink:href="#DejaVuSans-63"/>
     <use x="279.003906" xlink:href="#DejaVuSans-6f"/>
     <use x="340.185547" xlink:href="#DejaVuSans-64"/>
     <use x="403.662109" xlink:href="#DejaVuSans-69"/>
     <use x="431.445312" xlink:href="#DejaVuSans-6e"/>
     <use x="494.824219" xlink:href="#DejaVuSans-67"/>
    </g>
   </g>
   <g id="text_2">
    <!-- 1180848 -->
    <g transform="translate(75.66058 127.524391)scale(0.1 -0.1)">
     <defs>
      <path d="M 794 531 
L 1825 531 
L 1825 4091 
L 703 3866 
L 703 4441 
L 1819 4666 
L 2450 4666 
L 2450 531 
L 3481 531 
L 3481 0 
L 794 0 
L 794 531 
z
" id="DejaVuSans-31" transform="scale(0.015625)"/>
      <path d="M 2034 2216 
Q 1584 2216 1326 1975 
Q 1069 1734 1069 1313 
Q 1069 891 1326 650 
Q 1584 409 2034 409 
Q 2484 409 2743 651 
Q 3003 894 3003 1313 
Q 3003 1734 2745 1975 
Q 2488 2216 2034 2216 
z
M 1403 2484 
Q 997 2584 770 2862 
Q 544 3141 544 3541 
Q 544 4100 942 4425 
Q 1341 4750 2034 4750 
Q 2731 4750 3128 4425 
Q 3525 4100 3525 3541 
Q 3525 3141 3298 2862 
Q 3072 2584 2669 2484 
Q 3125 2378 3379 2068 
Q 3634 1759 3634 1313 
Q 3634 634 3220 271 
Q 2806 -91 2034 -91 
Q 1263 -91 848 271 
Q 434 634 434 1313 
Q 434 1759 690 2068 
Q 947 2378 1403 2484 
z
M 1172 3481 
Q 1172 3119 1398 2916 
Q 1625 2713 2034 2713 
Q 2441 2713 2670 2916 
Q 2900 3119 2900 3481 
Q 2900 3844 2670 4047 
Q 2441 4250 2034 4250 
Q 1625 4250 1398 4047 
Q 1172 3844 1172 3481 
z
" id="DejaVuSans-38" transform="scale(0.015625)"/>
      <path d="M 2034 4250 
Q 1547 4250 1301 3770 
Q 1056 3291 1056 2328 
Q 1056 1369 1301 889 
Q 1547 409 2034 409 
Q 2525 409 2770 889 
Q 3016 1369 3016 2328 
Q 3016 3291 2770 3770 
Q 2525 4250 2034 4250 
z
M 2034 4750 
Q 2819 4750 3233 4129 
Q 3647 3509 3647 2328 
Q 3647 1150 3233 529 
Q 2819 -91 2034 -91 
Q 1250 -91 836 529 
Q 422 1150 422 2328 
Q 422 3509 836 4129 
Q 1250 4750 2034 4750 
z
" id="DejaVuSans-30" transform="scale(0.015625)"/>
      <path d="M 2419 4116 
L 825 1625 
L 2419 1625 
L 2419 4116 
z
M 2253 4666 
L 3047 4666 
L 3047 1625 
L 3713 1625 
L 3713 1100 
L 3047 1100 
L 3047 0 
L 2419 0 
L 2419 1100 
L 313 1100 
L 313 1709 
L 2253 4666 
z
" id="DejaVuSans-34" transform="scale(0.015625)"/>
     </defs>
     <use xlink:href="#DejaVuSans-31"/>
     <use x="63.623047" xlink:href="#DejaVuSans-31"/>
     <use x="127.246094" xlink:href="#DejaVuSans-38"/>
     <use x="190.869141" xlink:href="#DejaVuSans-30"/>
     <use x="254.492188" xlink:href="#DejaVuSans-38"/>
     <use x="318.115234" xlink:href="#DejaVuSans-34"/>
     <use x="381.738281" xlink:href="#DejaVuSans-38"/>
    </g>
    <!-- 48.8% -->
    <g transform="translate(82.045736 138.722204)scale(0.1 -0.1)">
     <defs>
      <path d="M 684 794 
L 1344 794 
L 1344 0 
L 684 0 
L 684 794 
z
" id="DejaVuSans-2e" transform="scale(0.015625)"/>
      <path d="M 4653 2053 
Q 4381 2053 4226 1822 
Q 4072 1591 4072 1178 
Q 4072 772 4226 539 
Q 4381 306 4653 306 
Q 4919 306 5073 539 
Q 5228 772 5228 1178 
Q 5228 1588 5073 1820 
Q 4919 2053 4653 2053 
z
M 4653 2450 
Q 5147 2450 5437 2106 
Q 5728 1763 5728 1178 
Q 5728 594 5436 251 
Q 5144 -91 4653 -91 
Q 4153 -91 3862 251 
Q 3572 594 3572 1178 
Q 3572 1766 3864 2108 
Q 4156 2450 4653 2450 
z
M 1428 4353 
Q 1159 4353 1004 4120 
Q 850 3888 850 3481 
Q 850 3069 1003 2837 
Q 1156 2606 1428 2606 
Q 1700 2606 1854 2837 
Q 2009 3069 2009 3481 
Q 2009 3884 1853 4118 
Q 1697 4353 1428 4353 
z
M 4250 4750 
L 4750 4750 
L 1831 -91 
L 1331 -91 
L 4250 4750 
z
M 1428 4750 
Q 1922 4750 2215 4408 
Q 2509 4066 2509 3481 
Q 2509 2891 2217 2550 
Q 1925 2209 1428 2209 
Q 931 2209 642 2551 
Q 353 2894 353 3481 
Q 353 4063 643 4406 
Q 934 4750 1428 4750 
z
" id="DejaVuSans-25" transform="scale(0.015625)"/>
     </defs>
     <use xlink:href="#DejaVuSans-34"/>
     <use x="63.623047" xlink:href="#DejaVuSans-38"/>
     <use x="127.246094" xlink:href="#DejaVuSans-2e"/>
     <use x="159.033203" xlink:href="#DejaVuSans-38"/>
     <use x="222.65625" xlink:href="#DejaVuSans-25"/>
    </g>
   </g>
   <g id="text_3">
    <!-- 0-fold -->
    <g transform="translate(297.274947 211.336155)scale(0.1 -0.1)">
     <defs>
      <path d="M 2375 4863 
L 2375 4384 
L 1825 4384 
Q 1516 4384 1395 4259 
Q 1275 4134 1275 3809 
L 1275 3500 
L 2222 3500 
L 2222 3053 
L 1275 3053 
L 1275 0 
L 697 0 
L 697 3053 
L 147 3053 
L 147 3500 
L 697 3500 
L 697 3744 
Q 697 4328 969 4595 
Q 1241 4863 1831 4863 
L 2375 4863 
z
" id="DejaVuSans-66" transform="scale(0.015625)"/>
      <path d="M 603 4863 
L 1178 4863 
L 1178 0 
L 603 0 
L 603 4863 
z
" id="DejaVuSans-6c" transform="scale(0.015625)"/>
     </defs>
     <use xlink:href="#DejaVuSans-30"/>
     <use x="63.623047" xlink:href="#DejaVuSans-2d"/>
     <use x="99.707031" xlink:href="#DejaVuSans-66"/>
     <use x="134.912109" xlink:href="#DejaVuSans-6f"/>
     <use x="196.09375" xlink:href="#DejaVuSans-6c"/>
     <use x="223.876953" xlink:href="#DejaVuSans-64"/>
    </g>
   </g>
   <g id="text_4">
    <!-- 801199 -->
    <g transform="translate(243.462532 181.888887)scale(0.1 -0.1)">
     <defs>
      <path d="M 703 97 
L 703 672 
Q 941 559 1184 500 
Q 1428 441 1663 441 
Q 2288 441 2617 861 
Q 2947 1281 2994 2138 
Q 2813 1869 2534 1725 
Q 2256 1581 1919 1581 
Q 1219 1581 811 2004 
Q 403 2428 403 3163 
Q 403 3881 828 4315 
Q 1253 4750 1959 4750 
Q 2769 4750 3195 4129 
Q 3622 3509 3622 2328 
Q 3622 1225 3098 567 
Q 2575 -91 1691 -91 
Q 1453 -91 1209 -44 
Q 966 3 703 97 
z
M 1959 2075 
Q 2384 2075 2632 2365 
Q 2881 2656 2881 3163 
Q 2881 3666 2632 3958 
Q 2384 4250 1959 4250 
Q 1534 4250 1286 3958 
Q 1038 3666 1038 3163 
Q 1038 2656 1286 2365 
Q 1534 2075 1959 2075 
z
" id="DejaVuSans-39" transform="scale(0.015625)"/>
     </defs>
     <use xlink:href="#DejaVuSans-38"/>
     <use x="63.623047" xlink:href="#DejaVuSans-30"/>
     <use x="127.246094" xlink:href="#DejaVuSans-31"/>
     <use x="190.869141" xlink:href="#DejaVuSans-31"/>
     <use x="254.492188" xlink:href="#DejaVuSans-39"/>
     <use x="318.115234" xlink:href="#DejaVuSans-39"/>
    </g>
    <!-- 33.1% -->
    <g transform="translate(246.666438 193.0867)scale(0.1 -0.1)">
     <defs>
      <path d="M 2597 2516 
Q 3050 2419 3304 2112 
Q 3559 1806 3559 1356 
Q 3559 666 3084 287 
Q 2609 -91 1734 -91 
Q 1441 -91 1130 -33 
Q 819 25 488 141 
L 488 750 
Q 750 597 1062 519 
Q 1375 441 1716 441 
Q 2309 441 2620 675 
Q 2931 909 2931 1356 
Q 2931 1769 2642 2001 
Q 2353 2234 1838 2234 
L 1294 2234 
L 1294 2753 
L 1863 2753 
Q 2328 2753 2575 2939 
Q 2822 3125 2822 3475 
Q 2822 3834 2567 4026 
Q 2313 4219 1838 4219 
Q 1578 4219 1281 4162 
Q 984 4106 628 3988 
L 628 4550 
Q 988 4650 1302 4700 
Q 1616 4750 1894 4750 
Q 2613 4750 3031 4423 
Q 3450 4097 3450 3541 
Q 3450 3153 3228 2886 
Q 3006 2619 2597 2516 
z
" id="DejaVuSans-33" transform="scale(0.015625)"/>
     </defs>
     <use xlink:href="#DejaVuSans-33"/>
     <use x="63.623047" xlink:href="#DejaVuSans-33"/>
     <use x="127.246094" xlink:href="#DejaVuSans-2e"/>
     <use x="159.033203" xlink:href="#DejaVuSans-31"/>
     <use x="222.65625" xlink:href="#DejaVuSans-25"/>
    </g>
   </g>
   <g id="text_5">
    <!-- 2-fold -->
    <g transform="translate(283.08507 44.114527)scale(0.1 -0.1)">
     <defs>
      <path d="M 1228 531 
L 3431 531 
L 3431 0 
L 469 0 
L 469 531 
Q 828 903 1448 1529 
Q 2069 2156 2228 2338 
Q 2531 2678 2651 2914 
Q 2772 3150 2772 3378 
Q 2772 3750 2511 3984 
Q 2250 4219 1831 4219 
Q 1534 4219 1204 4116 
Q 875 4013 500 3803 
L 500 4441 
Q 881 4594 1212 4672 
Q 1544 4750 1819 4750 
Q 2544 4750 2975 4387 
Q 3406 4025 3406 3419 
Q 3406 3131 3298 2873 
Q 3191 2616 2906 2266 
Q 2828 2175 2409 1742 
Q 1991 1309 1228 531 
z
" id="DejaVuSans-32" transform="scale(0.015625)"/>
     </defs>
     <use xlink:href="#DejaVuSans-32"/>
     <use x="63.623047" xlink:href="#DejaVuSans-2d"/>
     <use x="99.707031" xlink:href="#DejaVuSans-66"/>
     <use x="134.912109" xlink:href="#DejaVuSans-6f"/>
     <use x="196.09375" xlink:href="#DejaVuSans-6c"/>
     <use x="223.876953" xlink:href="#DejaVuSans-64"/>
    </g>
   </g>
   <g id="text_6">
    <!-- 255182 -->
    <g transform="translate(233.787616 67.874141)scale(0.1 -0.1)">
     <defs>
      <path d="M 691 4666 
L 3169 4666 
L 3169 4134 
L 1269 4134 
L 1269 2991 
Q 1406 3038 1543 3061 
Q 1681 3084 1819 3084 
Q 2600 3084 3056 2656 
Q 3513 2228 3513 1497 
Q 3513 744 3044 326 
Q 2575 -91 1722 -91 
Q 1428 -91 1123 -41 
Q 819 9 494 109 
L 494 744 
Q 775 591 1075 516 
Q 1375 441 1709 441 
Q 2250 441 2565 725 
Q 2881 1009 2881 1497 
Q 2881 1984 2565 2268 
Q 2250 2553 1709 2553 
Q 1456 2553 1204 2497 
Q 953 2441 691 2322 
L 691 4666 
z
" id="DejaVuSans-35" transform="scale(0.015625)"/>
     </defs>
     <use xlink:href="#DejaVuSans-32"/>
     <use x="63.623047" xlink:href="#DejaVuSans-35"/>
     <use x="127.246094" xlink:href="#DejaVuSans-35"/>
     <use x="190.869141" xlink:href="#DejaVuSans-31"/>
     <use x="254.492188" xlink:href="#DejaVuSans-38"/>
     <use x="318.115234" xlink:href="#DejaVuSans-32"/>
    </g>
    <!-- 10.6% -->
    <g transform="translate(236.991523 79.071954)scale(0.1 -0.1)">
     <defs>
      <path d="M 2113 2584 
Q 1688 2584 1439 2293 
Q 1191 2003 1191 1497 
Q 1191 994 1439 701 
Q 1688 409 2113 409 
Q 2538 409 2786 701 
Q 3034 994 3034 1497 
Q 3034 2003 2786 2293 
Q 2538 2584 2113 2584 
z
M 3366 4563 
L 3366 3988 
Q 3128 4100 2886 4159 
Q 2644 4219 2406 4219 
Q 1781 4219 1451 3797 
Q 1122 3375 1075 2522 
Q 1259 2794 1537 2939 
Q 1816 3084 2150 3084 
Q 2853 3084 3261 2657 
Q 3669 2231 3669 1497 
Q 3669 778 3244 343 
Q 2819 -91 2113 -91 
Q 1303 -91 875 529 
Q 447 1150 447 2328 
Q 447 3434 972 4092 
Q 1497 4750 2381 4750 
Q 2619 4750 2861 4703 
Q 3103 4656 3366 4563 
z
" id="DejaVuSans-36" transform="scale(0.015625)"/>
     </defs>
     <use xlink:href="#DejaVuSans-31"/>
     <use x="63.623047" xlink:href="#DejaVuSans-30"/>
     <use x="127.246094" xlink:href="#DejaVuSans-2e"/>
     <use x="159.033203" xlink:href="#DejaVuSans-36"/>
     <use x="222.65625" xlink:href="#DejaVuSans-25"/>
    </g>
   </g>
   <g id="text_7">
    <!-- 4-fold -->
    <g transform="translate(218.841027 7.598437)scale(0.1 -0.1)">
     <use xlink:href="#DejaVuSans-34"/>
     <use x="63.623047" xlink:href="#DejaVuSans-2d"/>
     <use x="99.707031" xlink:href="#DejaVuSans-66"/>
     <use x="134.912109" xlink:href="#DejaVuSans-6f"/>
     <use x="196.09375" xlink:href="#DejaVuSans-6c"/>
     <use x="223.876953" xlink:href="#DejaVuSans-64"/>
    </g>
   </g>
   <g id="text_8">
    <!-- 180070 -->
    <g transform="translate(189.98486 42.976807)scale(0.1 -0.1)">
     <defs>
      <path d="M 525 4666 
L 3525 4666 
L 3525 4397 
L 1831 0 
L 1172 0 
L 2766 4134 
L 525 4134 
L 525 4666 
z
" id="DejaVuSans-37" transform="scale(0.015625)"/>
     </defs>
     <use xlink:href="#DejaVuSans-31"/>
     <use x="63.623047" xlink:href="#DejaVuSans-38"/>
     <use x="127.246094" xlink:href="#DejaVuSans-30"/>
     <use x="190.869141" xlink:href="#DejaVuSans-30"/>
     <use x="254.492188" xlink:href="#DejaVuSans-37"/>
     <use x="318.115234" xlink:href="#DejaVuSans-30"/>
    </g>
    <!-- 7.4% -->
    <g transform="translate(196.370016 54.17462)scale(0.1 -0.1)">
     <use xlink:href="#DejaVuSans-37"/>
     <use x="63.623047" xlink:href="#DejaVuSans-2e"/>
     <use x="95.410156" xlink:href="#DejaVuSans-34"/>
     <use x="159.033203" xlink:href="#DejaVuSans-25"/>
    </g>
   </g>
   <g id="legend_1">
    <g id="patch_14">
     <path d="M 16.709401 67.882503 
L 134.357839 67.882503 
Q 136.357839 67.882503 136.357839 65.882503 
L 136.357839 8.170003 
Q 136.357839 6.170003 134.357839 6.170003 
L 16.709401 6.170003 
Q 14.709401 6.170003 14.709401 8.170003 
L 14.709401 65.882503 
Q 14.709401 67.882503 16.709401 67.882503 
z
" style="fill:#ffffff;opacity:0.8;stroke:#cccccc;stroke-linejoin:miter;"/>
    </g>
    <g id="patch_15">
     <path d="M 18.709401 17.768441 
L 38.709401 17.768441 
L 38.709401 10.768441 
L 18.709401 10.768441 
z
" style="fill:#fd8d3c;stroke:#ffffff;stroke-linejoin:miter;"/>
    </g>
    <g id="text_9">
     <!-- non-synonymous -->
     <g transform="translate(46.709401 17.768441)scale(0.1 -0.1)">
      <defs>
       <path d="M 2834 3397 
L 2834 2853 
Q 2591 2978 2328 3040 
Q 2066 3103 1784 3103 
Q 1356 3103 1142 2972 
Q 928 2841 928 2578 
Q 928 2378 1081 2264 
Q 1234 2150 1697 2047 
L 1894 2003 
Q 2506 1872 2764 1633 
Q 3022 1394 3022 966 
Q 3022 478 2636 193 
Q 2250 -91 1575 -91 
Q 1294 -91 989 -36 
Q 684 19 347 128 
L 347 722 
Q 666 556 975 473 
Q 1284 391 1588 391 
Q 1994 391 2212 530 
Q 2431 669 2431 922 
Q 2431 1156 2273 1281 
Q 2116 1406 1581 1522 
L 1381 1569 
Q 847 1681 609 1914 
Q 372 2147 372 2553 
Q 372 3047 722 3315 
Q 1072 3584 1716 3584 
Q 2034 3584 2315 3537 
Q 2597 3491 2834 3397 
z
" id="DejaVuSans-73" transform="scale(0.015625)"/>
       <path d="M 2059 -325 
Q 1816 -950 1584 -1140 
Q 1353 -1331 966 -1331 
L 506 -1331 
L 506 -850 
L 844 -850 
Q 1081 -850 1212 -737 
Q 1344 -625 1503 -206 
L 1606 56 
L 191 3500 
L 800 3500 
L 1894 763 
L 2988 3500 
L 3597 3500 
L 2059 -325 
z
" id="DejaVuSans-79" transform="scale(0.015625)"/>
       <path d="M 3328 2828 
Q 3544 3216 3844 3400 
Q 4144 3584 4550 3584 
Q 5097 3584 5394 3201 
Q 5691 2819 5691 2113 
L 5691 0 
L 5113 0 
L 5113 2094 
Q 5113 2597 4934 2840 
Q 4756 3084 4391 3084 
Q 3944 3084 3684 2787 
Q 3425 2491 3425 1978 
L 3425 0 
L 2847 0 
L 2847 2094 
Q 2847 2600 2669 2842 
Q 2491 3084 2119 3084 
Q 1678 3084 1418 2786 
Q 1159 2488 1159 1978 
L 1159 0 
L 581 0 
L 581 3500 
L 1159 3500 
L 1159 2956 
Q 1356 3278 1631 3431 
Q 1906 3584 2284 3584 
Q 2666 3584 2933 3390 
Q 3200 3197 3328 2828 
z
" id="DejaVuSans-6d" transform="scale(0.015625)"/>
       <path d="M 544 1381 
L 544 3500 
L 1119 3500 
L 1119 1403 
Q 1119 906 1312 657 
Q 1506 409 1894 409 
Q 2359 409 2629 706 
Q 2900 1003 2900 1516 
L 2900 3500 
L 3475 3500 
L 3475 0 
L 2900 0 
L 2900 538 
Q 2691 219 2414 64 
Q 2138 -91 1772 -91 
Q 1169 -91 856 284 
Q 544 659 544 1381 
z
M 1991 3584 
L 1991 3584 
z
" id="DejaVuSans-75" transform="scale(0.015625)"/>
      </defs>
      <use xlink:href="#DejaVuSans-6e"/>
      <use x="63.378906" xlink:href="#DejaVuSans-6f"/>
      <use x="124.560547" xlink:href="#DejaVuSans-6e"/>
      <use x="187.939453" xlink:href="#DejaVuSans-2d"/>
      <use x="224.023438" xlink:href="#DejaVuSans-73"/>
      <use x="276.123047" xlink:href="#DejaVuSans-79"/>
      <use x="335.302734" xlink:href="#DejaVuSans-6e"/>
      <use x="398.681641" xlink:href="#DejaVuSans-6f"/>
      <use x="459.863281" xlink:href="#DejaVuSans-6e"/>
      <use x="523.242188" xlink:href="#DejaVuSans-79"/>
      <use x="582.421875" xlink:href="#DejaVuSans-6d"/>
      <use x="679.833984" xlink:href="#DejaVuSans-6f"/>
      <use x="741.015625" xlink:href="#DejaVuSans-75"/>
      <use x="804.394531" xlink:href="#DejaVuSans-73"/>
     </g>
    </g>
    <g id="patch_16">
     <path d="M 18.709401 32.446566 
L 38.709401 32.446566 
L 38.709401 25.446566 
L 18.709401 25.446566 
z
" style="fill:#74c476;stroke:#ffffff;stroke-linejoin:miter;"/>
    </g>
    <g id="text_10">
     <!-- non-synonymous -->
     <g transform="translate(46.709401 32.446566)scale(0.1 -0.1)">
      <use xlink:href="#DejaVuSans-6e"/>
      <use x="63.378906" xlink:href="#DejaVuSans-6f"/>
      <use x="124.560547" xlink:href="#DejaVuSans-6e"/>
      <use x="187.939453" xlink:href="#DejaVuSans-2d"/>
      <use x="224.023438" xlink:href="#DejaVuSans-73"/>
      <use x="276.123047" xlink:href="#DejaVuSans-79"/>
      <use x="335.302734" xlink:href="#DejaVuSans-6e"/>
      <use x="398.681641" xlink:href="#DejaVuSans-6f"/>
      <use x="459.863281" xlink:href="#DejaVuSans-6e"/>
      <use x="523.242188" xlink:href="#DejaVuSans-79"/>
      <use x="582.421875" xlink:href="#DejaVuSans-6d"/>
      <use x="679.833984" xlink:href="#DejaVuSans-6f"/>
      <use x="741.015625" xlink:href="#DejaVuSans-75"/>
      <use x="804.394531" xlink:href="#DejaVuSans-73"/>
     </g>
    </g>
    <g id="patch_17">
     <path d="M 18.709401 47.124691 
L 38.709401 47.124691 
L 38.709401 40.124691 
L 18.709401 40.124691 
z
" style="fill:#a1d99b;stroke:#ffffff;stroke-linejoin:miter;"/>
    </g>
    <g id="text_11">
     <!-- synonymous -->
     <g transform="translate(46.709401 47.124691)scale(0.1 -0.1)">
      <use xlink:href="#DejaVuSans-73"/>
      <use x="52.099609" xlink:href="#DejaVuSans-79"/>
      <use x="111.279297" xlink:href="#DejaVuSans-6e"/>
      <use x="174.658203" xlink:href="#DejaVuSans-6f"/>
      <use x="235.839844" xlink:href="#DejaVuSans-6e"/>
      <use x="299.21875" xlink:href="#DejaVuSans-79"/>
      <use x="358.398438" xlink:href="#DejaVuSans-6d"/>
      <use x="455.810547" xlink:href="#DejaVuSans-6f"/>
      <use x="516.992188" xlink:href="#DejaVuSans-75"/>
      <use x="580.371094" xlink:href="#DejaVuSans-73"/>
     </g>
    </g>
    <g id="patch_18">
     <path d="M 18.709401 61.802816 
L 38.709401 61.802816 
L 38.709401 54.802816 
L 18.709401 54.802816 
z
" style="fill:#9e9ac8;stroke:#ffffff;stroke-linejoin:miter;"/>
    </g>
    <g id="text_12">
     <!-- synonymous -->
     <g transform="translate(46.709401 61.802816)scale(0.1 -0.1)">
      <use xlink:href="#DejaVuSans-73"/>
      <use x="52.099609" xlink:href="#DejaVuSans-79"/>
      <use x="111.279297" xlink:href="#DejaVuSans-6e"/>
      <use x="174.658203" xlink:href="#DejaVuSans-6f"/>
      <use x="235.839844" xlink:href="#DejaVuSans-6e"/>
      <use x="299.21875" xlink:href="#DejaVuSans-79"/>
      <use x="358.398438" xlink:href="#DejaVuSans-6d"/>
      <use x="455.810547" xlink:href="#DejaVuSans-6f"/>
      <use x="516.992188" xlink:href="#DejaVuSans-75"/>
      <use x="580.371094" xlink:href="#DejaVuSans-73"/>
     </g>
    </g>
   </g>
  </g>
 </g>
</svg>
