<?xml version="1.0" encoding="utf-8" standalone="no"?>
<!DOCTYPE svg PUBLIC "-//W3C//DTD SVG 1.1//EN"
  "http://www.w3.org/Graphics/SVG/1.1/DTD/svg11.dtd">
<svg height="323.598125pt" version="1.1" viewBox="0 0 438.633125 323.598125" width="438.633125pt" xmlns="http://www.w3.org/2000/svg" xmlns:xlink="http://www.w3.org/1999/xlink">
 <metadata>
  <rdf:RDF xmlns:cc="http://creativecommons.org/ns#" xmlns:dc="http://purl.org/dc/elements/1.1/" xmlns:rdf="http://www.w3.org/1999/02/22-rdf-syntax-ns#">
   <cc:Work>
    <dc:type rdf:resource="http://purl.org/dc/dcmitype/StillImage"/>
    <dc:date>2022-01-12T10:23:26.011143</dc:date>
    <dc:format>image/svg+xml</dc:format>
    <dc:creator>
     <cc:Agent>
      <dc:title>Matplotlib v3.4.3, https://matplotlib.org/</dc:title>
     </cc:Agent>
    </dc:creator>
   </cc:Work>
  </rdf:RDF>
 </metadata>
 <defs>
  <style type="text/css">*{stroke-linecap:butt;stroke-linejoin:round;}</style>
 </defs>
 <g id="figure_1">
  <g id="patch_1">
   <path d="M 0 323.598125 
L 438.633125 323.598125 
L 438.633125 0 
L 0 0 
z
" style="fill:#ffffff;"/>
  </g>
  <g id="axes_1">
   <g id="patch_2">
    <path d="M 58.853125 306.92 
L 438.633125 306.92 
L 438.633125 0 
L 58.853125 0 
z
" style="fill:#ffffff;"/>
   </g>
   <g id="patch_3">
    <path clip-path="url(#pb46d8c9cf9)" d="M 76.115852 306.92 
L 83.020943 306.92 
L 83.020943 14.615238 
L 76.115852 14.615238 
z
" style="fill:#ce6dbd;opacity:0.3;stroke:#b18aaa;stroke-linejoin:miter;"/>
   </g>
   <g id="patch_4">
    <path clip-path="url(#pb46d8c9cf9)" d="M 83.020943 306.92 
L 89.926034 306.92 
L 89.926034 263.088655 
L 83.020943 263.088655 
z
" style="fill:#ce6dbd;opacity:0.3;stroke:#b18aaa;stroke-linejoin:miter;"/>
   </g>
   <g id="patch_5">
    <path clip-path="url(#pb46d8c9cf9)" d="M 89.926034 306.92 
L 96.831125 306.92 
L 96.831125 284.520107 
L 89.926034 284.520107 
z
" style="fill:#ce6dbd;opacity:0.3;stroke:#b18aaa;stroke-linejoin:miter;"/>
   </g>
   <g id="patch_6">
    <path clip-path="url(#pb46d8c9cf9)" d="M 96.831125 306.92 
L 103.736216 306.92 
L 103.736216 294.864621 
L 96.831125 294.864621 
z
" style="fill:#ce6dbd;opacity:0.3;stroke:#b18aaa;stroke-linejoin:miter;"/>
   </g>
   <g id="patch_7">
    <path clip-path="url(#pb46d8c9cf9)" d="M 103.736216 306.92 
L 110.641307 306.92 
L 110.641307 297.882208 
L 103.736216 297.882208 
z
" style="fill:#ce6dbd;opacity:0.3;stroke:#b18aaa;stroke-linejoin:miter;"/>
   </g>
   <g id="patch_8">
    <path clip-path="url(#pb46d8c9cf9)" d="M 110.641307 306.92 
L 117.546398 306.92 
L 117.546398 299.86699 
L 110.641307 299.86699 
z
" style="fill:#ce6dbd;opacity:0.3;stroke:#b18aaa;stroke-linejoin:miter;"/>
   </g>
   <g id="patch_9">
    <path clip-path="url(#pb46d8c9cf9)" d="M 117.546398 306.92 
L 124.451489 306.92 
L 124.451489 301.31142 
L 117.546398 301.31142 
z
" style="fill:#ce6dbd;opacity:0.3;stroke:#b18aaa;stroke-linejoin:miter;"/>
   </g>
   <g id="patch_10">
    <path clip-path="url(#pb46d8c9cf9)" d="M 124.451489 306.92 
L 131.35658 306.92 
L 131.35658 301.979001 
L 124.451489 301.979001 
z
" style="fill:#ce6dbd;opacity:0.3;stroke:#b18aaa;stroke-linejoin:miter;"/>
   </g>
   <g id="patch_11">
    <path clip-path="url(#pb46d8c9cf9)" d="M 131.35658 306.92 
L 138.26167 306.92 
L 138.26167 303.136042 
L 131.35658 303.136042 
z
" style="fill:#ce6dbd;opacity:0.3;stroke:#b18aaa;stroke-linejoin:miter;"/>
   </g>
   <g id="patch_12">
    <path clip-path="url(#pb46d8c9cf9)" d="M 138.26167 306.92 
L 145.166761 306.92 
L 145.166761 303.049227 
L 138.26167 303.049227 
z
" style="fill:#ce6dbd;opacity:0.3;stroke:#b18aaa;stroke-linejoin:miter;"/>
   </g>
   <g id="patch_13">
    <path clip-path="url(#pb46d8c9cf9)" d="M 145.166761 306.92 
L 152.071852 306.92 
L 152.071852 303.879961 
L 145.166761 303.879961 
z
" style="fill:#ce6dbd;opacity:0.3;stroke:#b18aaa;stroke-linejoin:miter;"/>
   </g>
   <g id="patch_14">
    <path clip-path="url(#pb46d8c9cf9)" d="M 152.071852 306.92 
L 158.976943 306.92 
L 158.976943 303.90391 
L 152.071852 303.90391 
z
" style="fill:#ce6dbd;opacity:0.3;stroke:#b18aaa;stroke-linejoin:miter;"/>
   </g>
   <g id="patch_15">
    <path clip-path="url(#pb46d8c9cf9)" d="M 158.976943 306.92 
L 165.882034 306.92 
L 165.882034 304.411332 
L 158.976943 304.411332 
z
" style="fill:#ce6dbd;opacity:0.3;stroke:#b18aaa;stroke-linejoin:miter;"/>
   </g>
   <g id="patch_16">
    <path clip-path="url(#pb46d8c9cf9)" d="M 165.882034 306.92 
L 172.787125 306.92 
L 172.787125 304.49216 
L 165.882034 304.49216 
z
" style="fill:#ce6dbd;opacity:0.3;stroke:#b18aaa;stroke-linejoin:miter;"/>
   </g>
   <g id="patch_17">
    <path clip-path="url(#pb46d8c9cf9)" d="M 172.787125 306.92 
L 179.692216 306.92 
L 179.692216 304.483179 
L 172.787125 304.483179 
z
" style="fill:#ce6dbd;opacity:0.3;stroke:#b18aaa;stroke-linejoin:miter;"/>
   </g>
   <g id="patch_18">
    <path clip-path="url(#pb46d8c9cf9)" d="M 179.692216 306.92 
L 186.597307 306.92 
L 186.597307 304.909772 
L 179.692216 304.909772 
z
" style="fill:#ce6dbd;opacity:0.3;stroke:#b18aaa;stroke-linejoin:miter;"/>
   </g>
   <g id="patch_19">
    <path clip-path="url(#pb46d8c9cf9)" d="M 186.597307 306.92 
L 193.502398 306.92 
L 193.502398 304.863371 
L 186.597307 304.863371 
z
" style="fill:#ce6dbd;opacity:0.3;stroke:#b18aaa;stroke-linejoin:miter;"/>
   </g>
   <g id="patch_20">
    <path clip-path="url(#pb46d8c9cf9)" d="M 193.502398 306.92 
L 200.407489 306.92 
L 200.407489 305.116333 
L 193.502398 305.116333 
z
" style="fill:#ce6dbd;opacity:0.3;stroke:#b18aaa;stroke-linejoin:miter;"/>
   </g>
   <g id="patch_21">
    <path clip-path="url(#pb46d8c9cf9)" d="M 200.407489 306.92 
L 207.31258 306.92 
L 207.31258 305.102862 
L 200.407489 305.102862 
z
" style="fill:#ce6dbd;opacity:0.3;stroke:#b18aaa;stroke-linejoin:miter;"/>
   </g>
   <g id="patch_22">
    <path clip-path="url(#pb46d8c9cf9)" d="M 207.31258 306.92 
L 214.21767 306.92 
L 214.21767 305.034008 
L 207.31258 305.034008 
z
" style="fill:#ce6dbd;opacity:0.3;stroke:#b18aaa;stroke-linejoin:miter;"/>
   </g>
   <g id="patch_23">
    <path clip-path="url(#pb46d8c9cf9)" d="M 214.21767 306.92 
L 221.122761 306.92 
L 221.122761 305.222607 
L 214.21767 305.222607 
z
" style="fill:#ce6dbd;opacity:0.3;stroke:#b18aaa;stroke-linejoin:miter;"/>
   </g>
   <g id="patch_24">
    <path clip-path="url(#pb46d8c9cf9)" d="M 221.122761 306.92 
L 228.027852 306.92 
L 228.027852 305.213627 
L 221.122761 305.213627 
z
" style="fill:#ce6dbd;opacity:0.3;stroke:#b18aaa;stroke-linejoin:miter;"/>
   </g>
   <g id="patch_25">
    <path clip-path="url(#pb46d8c9cf9)" d="M 228.027852 306.92 
L 234.932943 306.92 
L 234.932943 305.27799 
L 228.027852 305.27799 
z
" style="fill:#ce6dbd;opacity:0.3;stroke:#b18aaa;stroke-linejoin:miter;"/>
   </g>
   <g id="patch_26">
    <path clip-path="url(#pb46d8c9cf9)" d="M 234.932943 306.92 
L 241.838034 306.92 
L 241.838034 305.119327 
L 234.932943 305.119327 
z
" style="fill:#ce6dbd;opacity:0.3;stroke:#b18aaa;stroke-linejoin:miter;"/>
   </g>
   <g id="patch_27">
    <path clip-path="url(#pb46d8c9cf9)" d="M 241.838034 306.92 
L 248.743125 306.92 
L 248.743125 305.260028 
L 241.838034 305.260028 
z
" style="fill:#ce6dbd;opacity:0.3;stroke:#b18aaa;stroke-linejoin:miter;"/>
   </g>
   <g id="patch_28">
    <path clip-path="url(#pb46d8c9cf9)" d="M 248.743125 306.92 
L 255.648216 306.92 
L 255.648216 305.231588 
L 248.743125 305.231588 
z
" style="fill:#ce6dbd;opacity:0.3;stroke:#b18aaa;stroke-linejoin:miter;"/>
   </g>
   <g id="patch_29">
    <path clip-path="url(#pb46d8c9cf9)" d="M 255.648216 306.92 
L 262.553307 306.92 
L 262.553307 305.839297 
L 255.648216 305.839297 
z
" style="fill:#ce6dbd;opacity:0.3;stroke:#b18aaa;stroke-linejoin:miter;"/>
   </g>
   <g id="patch_30">
    <path clip-path="url(#pb46d8c9cf9)" d="M 262.553307 306.92 
L 269.458398 306.92 
L 269.458398 306.20003 
L 262.553307 306.20003 
z
" style="fill:#ce6dbd;opacity:0.3;stroke:#b18aaa;stroke-linejoin:miter;"/>
   </g>
   <g id="patch_31">
    <path clip-path="url(#pb46d8c9cf9)" d="M 269.458398 306.92 
L 276.363489 306.92 
L 276.363489 306.174584 
L 269.458398 306.174584 
z
" style="fill:#ce6dbd;opacity:0.3;stroke:#b18aaa;stroke-linejoin:miter;"/>
   </g>
   <g id="patch_32">
    <path clip-path="url(#pb46d8c9cf9)" d="M 276.363489 306.92 
L 283.26858 306.92 
L 283.26858 306.237451 
L 276.363489 306.237451 
z
" style="fill:#ce6dbd;opacity:0.3;stroke:#b18aaa;stroke-linejoin:miter;"/>
   </g>
   <g id="patch_33">
    <path clip-path="url(#pb46d8c9cf9)" d="M 283.26858 306.92 
L 290.17367 306.92 
L 290.17367 306.315285 
L 283.26858 306.315285 
z
" style="fill:#ce6dbd;opacity:0.3;stroke:#b18aaa;stroke-linejoin:miter;"/>
   </g>
   <g id="patch_34">
    <path clip-path="url(#pb46d8c9cf9)" d="M 290.17367 306.92 
L 297.078761 306.92 
L 297.078761 306.444012 
L 290.17367 306.444012 
z
" style="fill:#ce6dbd;opacity:0.3;stroke:#b18aaa;stroke-linejoin:miter;"/>
   </g>
   <g id="patch_35">
    <path clip-path="url(#pb46d8c9cf9)" d="M 297.078761 306.92 
L 303.983852 306.92 
L 303.983852 306.429043 
L 297.078761 306.429043 
z
" style="fill:#ce6dbd;opacity:0.3;stroke:#b18aaa;stroke-linejoin:miter;"/>
   </g>
   <g id="patch_36">
    <path clip-path="url(#pb46d8c9cf9)" d="M 303.983852 306.92 
L 310.888943 306.92 
L 310.888943 306.42605 
L 303.983852 306.42605 
z
" style="fill:#ce6dbd;opacity:0.3;stroke:#b18aaa;stroke-linejoin:miter;"/>
   </g>
   <g id="patch_37">
    <path clip-path="url(#pb46d8c9cf9)" d="M 310.888943 306.92 
L 317.794034 306.92 
L 317.794034 306.499394 
L 310.888943 306.499394 
z
" style="fill:#ce6dbd;opacity:0.3;stroke:#b18aaa;stroke-linejoin:miter;"/>
   </g>
   <g id="patch_38">
    <path clip-path="url(#pb46d8c9cf9)" d="M 317.794034 306.92 
L 324.699125 306.92 
L 324.699125 306.662547 
L 317.794034 306.662547 
z
" style="fill:#ce6dbd;opacity:0.3;stroke:#b18aaa;stroke-linejoin:miter;"/>
   </g>
   <g id="patch_39">
    <path clip-path="url(#pb46d8c9cf9)" d="M 324.699125 306.92 
L 331.604216 306.92 
L 331.604216 306.800254 
L 324.699125 306.800254 
z
" style="fill:#ce6dbd;opacity:0.3;stroke:#b18aaa;stroke-linejoin:miter;"/>
   </g>
   <g id="patch_40">
    <path clip-path="url(#pb46d8c9cf9)" d="M 331.604216 306.92 
L 338.509307 306.92 
L 338.509307 306.867611 
L 331.604216 306.867611 
z
" style="fill:#ce6dbd;opacity:0.3;stroke:#b18aaa;stroke-linejoin:miter;"/>
   </g>
   <g id="patch_41">
    <path clip-path="url(#pb46d8c9cf9)" d="M 338.509307 306.92 
L 345.414398 306.92 
L 345.414398 306.873599 
L 338.509307 306.873599 
z
" style="fill:#ce6dbd;opacity:0.3;stroke:#b18aaa;stroke-linejoin:miter;"/>
   </g>
   <g id="patch_42">
    <path clip-path="url(#pb46d8c9cf9)" d="M 345.414398 306.92 
L 352.319489 306.92 
L 352.319489 306.894554 
L 345.414398 306.894554 
z
" style="fill:#ce6dbd;opacity:0.3;stroke:#b18aaa;stroke-linejoin:miter;"/>
   </g>
   <g id="patch_43">
    <path clip-path="url(#pb46d8c9cf9)" d="M 352.319489 306.92 
L 359.22458 306.92 
L 359.22458 306.911019 
L 352.319489 306.911019 
z
" style="fill:#ce6dbd;opacity:0.3;stroke:#b18aaa;stroke-linejoin:miter;"/>
   </g>
   <g id="patch_44">
    <path clip-path="url(#pb46d8c9cf9)" d="M 359.22458 306.92 
L 366.12967 306.92 
L 366.12967 306.908025 
L 359.22458 306.908025 
z
" style="fill:#ce6dbd;opacity:0.3;stroke:#b18aaa;stroke-linejoin:miter;"/>
   </g>
   <g id="patch_45">
    <path clip-path="url(#pb46d8c9cf9)" d="M 366.12967 306.92 
L 373.034761 306.92 
L 373.034761 306.908025 
L 366.12967 306.908025 
z
" style="fill:#ce6dbd;opacity:0.3;stroke:#b18aaa;stroke-linejoin:miter;"/>
   </g>
   <g id="patch_46">
    <path clip-path="url(#pb46d8c9cf9)" d="M 373.034761 306.92 
L 379.939852 306.92 
L 379.939852 306.909522 
L 373.034761 306.909522 
z
" style="fill:#ce6dbd;opacity:0.3;stroke:#b18aaa;stroke-linejoin:miter;"/>
   </g>
   <g id="patch_47">
    <path clip-path="url(#pb46d8c9cf9)" d="M 379.939852 306.92 
L 386.844943 306.92 
L 386.844943 306.909522 
L 379.939852 306.909522 
z
" style="fill:#ce6dbd;opacity:0.3;stroke:#b18aaa;stroke-linejoin:miter;"/>
   </g>
   <g id="patch_48">
    <path clip-path="url(#pb46d8c9cf9)" d="M 386.844943 306.92 
L 393.750034 306.92 
L 393.750034 306.903535 
L 386.844943 306.903535 
z
" style="fill:#ce6dbd;opacity:0.3;stroke:#b18aaa;stroke-linejoin:miter;"/>
   </g>
   <g id="patch_49">
    <path clip-path="url(#pb46d8c9cf9)" d="M 393.750034 306.92 
L 400.655125 306.92 
L 400.655125 306.917006 
L 393.750034 306.917006 
z
" style="fill:#ce6dbd;opacity:0.3;stroke:#b18aaa;stroke-linejoin:miter;"/>
   </g>
   <g id="patch_50">
    <path clip-path="url(#pb46d8c9cf9)" d="M 400.655125 306.92 
L 407.560216 306.92 
L 407.560216 306.911019 
L 400.655125 306.911019 
z
" style="fill:#ce6dbd;opacity:0.3;stroke:#b18aaa;stroke-linejoin:miter;"/>
   </g>
   <g id="patch_51">
    <path clip-path="url(#pb46d8c9cf9)" d="M 407.560216 306.92 
L 414.465307 306.92 
L 414.465307 306.909522 
L 407.560216 306.909522 
z
" style="fill:#ce6dbd;opacity:0.3;stroke:#b18aaa;stroke-linejoin:miter;"/>
   </g>
   <g id="patch_52">
    <path clip-path="url(#pb46d8c9cf9)" d="M 414.465307 306.92 
L 421.370398 306.92 
L 421.370398 306.918503 
L 414.465307 306.918503 
z
" style="fill:#ce6dbd;opacity:0.3;stroke:#b18aaa;stroke-linejoin:miter;"/>
   </g>
   <g id="patch_53">
    <path clip-path="url(#pb46d8c9cf9)" d="M 76.115852 306.92 
L 83.058433 306.92 
L 83.058433 19.478402 
L 76.115852 19.478402 
z
" style="fill:#6495ed;opacity:0.3;stroke:#97a4ba;stroke-linejoin:miter;"/>
   </g>
   <g id="patch_54">
    <path clip-path="url(#pb46d8c9cf9)" d="M 83.058433 306.92 
L 90.001014 306.92 
L 90.001014 258.923008 
L 83.058433 258.923008 
z
" style="fill:#6495ed;opacity:0.3;stroke:#97a4ba;stroke-linejoin:miter;"/>
   </g>
   <g id="patch_55">
    <path clip-path="url(#pb46d8c9cf9)" d="M 90.001014 306.92 
L 96.943595 306.92 
L 96.943595 285.787912 
L 90.001014 285.787912 
z
" style="fill:#6495ed;opacity:0.3;stroke:#97a4ba;stroke-linejoin:miter;"/>
   </g>
   <g id="patch_56">
    <path clip-path="url(#pb46d8c9cf9)" d="M 96.943595 306.92 
L 103.886176 306.92 
L 103.886176 294.153632 
L 96.943595 294.153632 
z
" style="fill:#6495ed;opacity:0.3;stroke:#97a4ba;stroke-linejoin:miter;"/>
   </g>
   <g id="patch_57">
    <path clip-path="url(#pb46d8c9cf9)" d="M 103.886176 306.92 
L 110.828757 306.92 
L 110.828757 297.882208 
L 103.886176 297.882208 
z
" style="fill:#6495ed;opacity:0.3;stroke:#97a4ba;stroke-linejoin:miter;"/>
   </g>
   <g id="patch_58">
    <path clip-path="url(#pb46d8c9cf9)" d="M 110.828757 306.92 
L 117.771337 306.92 
L 117.771337 299.663422 
L 110.828757 299.663422 
z
" style="fill:#6495ed;opacity:0.3;stroke:#97a4ba;stroke-linejoin:miter;"/>
   </g>
   <g id="patch_59">
    <path clip-path="url(#pb46d8c9cf9)" d="M 117.771337 306.92 
L 124.713918 306.92 
L 124.713918 300.693234 
L 117.771337 300.693234 
z
" style="fill:#6495ed;opacity:0.3;stroke:#97a4ba;stroke-linejoin:miter;"/>
   </g>
   <g id="patch_60">
    <path clip-path="url(#pb46d8c9cf9)" d="M 124.713918 306.92 
L 131.656499 306.92 
L 131.656499 302.019415 
L 124.713918 302.019415 
z
" style="fill:#6495ed;opacity:0.3;stroke:#97a4ba;stroke-linejoin:miter;"/>
   </g>
   <g id="patch_61">
    <path clip-path="url(#pb46d8c9cf9)" d="M 131.656499 306.92 
L 138.59908 306.92 
L 138.59908 302.710946 
L 131.656499 302.710946 
z
" style="fill:#6495ed;opacity:0.3;stroke:#97a4ba;stroke-linejoin:miter;"/>
   </g>
   <g id="patch_62">
    <path clip-path="url(#pb46d8c9cf9)" d="M 138.59908 306.92 
L 145.541661 306.92 
L 145.541661 302.94894 
L 138.59908 302.94894 
z
" style="fill:#6495ed;opacity:0.3;stroke:#97a4ba;stroke-linejoin:miter;"/>
   </g>
   <g id="patch_63">
    <path clip-path="url(#pb46d8c9cf9)" d="M 145.541661 306.92 
L 152.484242 306.92 
L 152.484242 303.544674 
L 145.541661 303.544674 
z
" style="fill:#6495ed;opacity:0.3;stroke:#97a4ba;stroke-linejoin:miter;"/>
   </g>
   <g id="patch_64">
    <path clip-path="url(#pb46d8c9cf9)" d="M 152.484242 306.92 
L 159.426822 306.92 
L 159.426822 303.496775 
L 152.484242 303.496775 
z
" style="fill:#6495ed;opacity:0.3;stroke:#97a4ba;stroke-linejoin:miter;"/>
   </g>
   <g id="patch_65">
    <path clip-path="url(#pb46d8c9cf9)" d="M 159.426822 306.92 
L 166.369403 306.92 
L 166.369403 303.972764 
L 159.426822 303.972764 
z
" style="fill:#6495ed;opacity:0.3;stroke:#97a4ba;stroke-linejoin:miter;"/>
   </g>
   <g id="patch_66">
    <path clip-path="url(#pb46d8c9cf9)" d="M 166.369403 306.92 
L 173.311984 306.92 
L 173.311984 304.215248 
L 166.369403 304.215248 
z
" style="fill:#6495ed;opacity:0.3;stroke:#97a4ba;stroke-linejoin:miter;"/>
   </g>
   <g id="patch_67">
    <path clip-path="url(#pb46d8c9cf9)" d="M 173.311984 306.92 
L 180.254565 306.92 
L 180.254565 304.188306 
L 173.311984 304.188306 
z
" style="fill:#6495ed;opacity:0.3;stroke:#97a4ba;stroke-linejoin:miter;"/>
   </g>
   <g id="patch_68">
    <path clip-path="url(#pb46d8c9cf9)" d="M 180.254565 306.92 
L 187.197146 306.92 
L 187.197146 304.245185 
L 180.254565 304.245185 
z
" style="fill:#6495ed;opacity:0.3;stroke:#97a4ba;stroke-linejoin:miter;"/>
   </g>
   <g id="patch_69">
    <path clip-path="url(#pb46d8c9cf9)" d="M 187.197146 306.92 
L 194.139727 306.92 
L 194.139727 304.484676 
L 187.197146 304.484676 
z
" style="fill:#6495ed;opacity:0.3;stroke:#97a4ba;stroke-linejoin:miter;"/>
   </g>
   <g id="patch_70">
    <path clip-path="url(#pb46d8c9cf9)" d="M 194.139727 306.92 
L 201.082307 306.92 
L 201.082307 304.667288 
L 194.139727 304.667288 
z
" style="fill:#6495ed;opacity:0.3;stroke:#97a4ba;stroke-linejoin:miter;"/>
   </g>
   <g id="patch_71">
    <path clip-path="url(#pb46d8c9cf9)" d="M 201.082307 306.92 
L 208.024888 306.92 
L 208.024888 304.655313 
L 201.082307 304.655313 
z
" style="fill:#6495ed;opacity:0.3;stroke:#97a4ba;stroke-linejoin:miter;"/>
   </g>
   <g id="patch_72">
    <path clip-path="url(#pb46d8c9cf9)" d="M 208.024888 306.92 
L 214.967469 306.92 
L 214.967469 304.691237 
L 208.024888 304.691237 
z
" style="fill:#6495ed;opacity:0.3;stroke:#97a4ba;stroke-linejoin:miter;"/>
   </g>
   <g id="patch_73">
    <path clip-path="url(#pb46d8c9cf9)" d="M 214.967469 306.92 
L 221.91005 306.92 
L 221.91005 304.724167 
L 214.967469 304.724167 
z
" style="fill:#6495ed;opacity:0.3;stroke:#97a4ba;stroke-linejoin:miter;"/>
   </g>
   <g id="patch_74">
    <path clip-path="url(#pb46d8c9cf9)" d="M 221.91005 306.92 
L 228.852631 306.92 
L 228.852631 305.063945 
L 221.91005 305.063945 
z
" style="fill:#6495ed;opacity:0.3;stroke:#97a4ba;stroke-linejoin:miter;"/>
   </g>
   <g id="patch_75">
    <path clip-path="url(#pb46d8c9cf9)" d="M 228.852631 306.92 
L 235.795212 306.92 
L 235.795212 304.95318 
L 228.852631 304.95318 
z
" style="fill:#6495ed;opacity:0.3;stroke:#97a4ba;stroke-linejoin:miter;"/>
   </g>
   <g id="patch_76">
    <path clip-path="url(#pb46d8c9cf9)" d="M 235.795212 306.92 
L 242.737793 306.92 
L 242.737793 304.98162 
L 235.795212 304.98162 
z
" style="fill:#6495ed;opacity:0.3;stroke:#97a4ba;stroke-linejoin:miter;"/>
   </g>
   <g id="patch_77">
    <path clip-path="url(#pb46d8c9cf9)" d="M 242.737793 306.92 
L 249.680373 306.92 
L 249.680373 302.45948 
L 242.737793 302.45948 
z
" style="fill:#6495ed;opacity:0.3;stroke:#97a4ba;stroke-linejoin:miter;"/>
   </g>
   <g id="matplotlib.axis_1">
    <g id="xtick_1">
     <g id="line2d_1">
      <defs>
       <path d="M 0 0 
L 0 3.5 
" id="mf8ed095dd2" style="stroke:#000000;stroke-width:0.8;"/>
      </defs>
      <g>
       <use style="stroke:#000000;stroke-width:0.8;" x="76.115852" xlink:href="#mf8ed095dd2" y="306.92"/>
      </g>
     </g>
     <g id="text_1">
      <!-- 0.0 -->
      <g transform="translate(68.16429 321.518437)scale(0.1 -0.1)">
       <defs>
        <path d="M 2034 4250 
Q 1547 4250 1301 3770 
Q 1056 3291 1056 2328 
Q 1056 1369 1301 889 
Q 1547 409 2034 409 
Q 2525 409 2770 889 
Q 3016 1369 3016 2328 
Q 3016 3291 2770 3770 
Q 2525 4250 2034 4250 
z
M 2034 4750 
Q 2819 4750 3233 4129 
Q 3647 3509 3647 2328 
Q 3647 1150 3233 529 
Q 2819 -91 2034 -91 
Q 1250 -91 836 529 
Q 422 1150 422 2328 
Q 422 3509 836 4129 
Q 1250 4750 2034 4750 
z
" id="DejaVuSans-30" transform="scale(0.015625)"/>
        <path d="M 684 794 
L 1344 794 
L 1344 0 
L 684 0 
L 684 794 
z
" id="DejaVuSans-2e" transform="scale(0.015625)"/>
       </defs>
       <use xlink:href="#DejaVuSans-30"/>
       <use x="63.623047" xlink:href="#DejaVuSans-2e"/>
       <use x="95.410156" xlink:href="#DejaVuSans-30"/>
      </g>
     </g>
    </g>
    <g id="xtick_2">
     <g id="line2d_2">
      <g>
       <use style="stroke:#000000;stroke-width:0.8;" x="145.541661" xlink:href="#mf8ed095dd2" y="306.92"/>
      </g>
     </g>
     <g id="text_2">
      <!-- 0.2 -->
      <g transform="translate(137.590098 321.518437)scale(0.1 -0.1)">
       <defs>
        <path d="M 1228 531 
L 3431 531 
L 3431 0 
L 469 0 
L 469 531 
Q 828 903 1448 1529 
Q 2069 2156 2228 2338 
Q 2531 2678 2651 2914 
Q 2772 3150 2772 3378 
Q 2772 3750 2511 3984 
Q 2250 4219 1831 4219 
Q 1534 4219 1204 4116 
Q 875 4013 500 3803 
L 500 4441 
Q 881 4594 1212 4672 
Q 1544 4750 1819 4750 
Q 2544 4750 2975 4387 
Q 3406 4025 3406 3419 
Q 3406 3131 3298 2873 
Q 3191 2616 2906 2266 
Q 2828 2175 2409 1742 
Q 1991 1309 1228 531 
z
" id="DejaVuSans-32" transform="scale(0.015625)"/>
       </defs>
       <use xlink:href="#DejaVuSans-30"/>
       <use x="63.623047" xlink:href="#DejaVuSans-2e"/>
       <use x="95.410156" xlink:href="#DejaVuSans-32"/>
      </g>
     </g>
    </g>
    <g id="xtick_3">
     <g id="line2d_3">
      <g>
       <use style="stroke:#000000;stroke-width:0.8;" x="214.967469" xlink:href="#mf8ed095dd2" y="306.92"/>
      </g>
     </g>
     <g id="text_3">
      <!-- 0.4 -->
      <g transform="translate(207.015907 321.518437)scale(0.1 -0.1)">
       <defs>
        <path d="M 2419 4116 
L 825 1625 
L 2419 1625 
L 2419 4116 
z
M 2253 4666 
L 3047 4666 
L 3047 1625 
L 3713 1625 
L 3713 1100 
L 3047 1100 
L 3047 0 
L 2419 0 
L 2419 1100 
L 313 1100 
L 313 1709 
L 2253 4666 
z
" id="DejaVuSans-34" transform="scale(0.015625)"/>
       </defs>
       <use xlink:href="#DejaVuSans-30"/>
       <use x="63.623047" xlink:href="#DejaVuSans-2e"/>
       <use x="95.410156" xlink:href="#DejaVuSans-34"/>
      </g>
     </g>
    </g>
    <g id="xtick_4">
     <g id="line2d_4">
      <g>
       <use style="stroke:#000000;stroke-width:0.8;" x="284.393278" xlink:href="#mf8ed095dd2" y="306.92"/>
      </g>
     </g>
     <g id="text_4">
      <!-- 0.6 -->
      <g transform="translate(276.441715 321.518437)scale(0.1 -0.1)">
       <defs>
        <path d="M 2113 2584 
Q 1688 2584 1439 2293 
Q 1191 2003 1191 1497 
Q 1191 994 1439 701 
Q 1688 409 2113 409 
Q 2538 409 2786 701 
Q 3034 994 3034 1497 
Q 3034 2003 2786 2293 
Q 2538 2584 2113 2584 
z
M 3366 4563 
L 3366 3988 
Q 3128 4100 2886 4159 
Q 2644 4219 2406 4219 
Q 1781 4219 1451 3797 
Q 1122 3375 1075 2522 
Q 1259 2794 1537 2939 
Q 1816 3084 2150 3084 
Q 2853 3084 3261 2657 
Q 3669 2231 3669 1497 
Q 3669 778 3244 343 
Q 2819 -91 2113 -91 
Q 1303 -91 875 529 
Q 447 1150 447 2328 
Q 447 3434 972 4092 
Q 1497 4750 2381 4750 
Q 2619 4750 2861 4703 
Q 3103 4656 3366 4563 
z
" id="DejaVuSans-36" transform="scale(0.015625)"/>
       </defs>
       <use xlink:href="#DejaVuSans-30"/>
       <use x="63.623047" xlink:href="#DejaVuSans-2e"/>
       <use x="95.410156" xlink:href="#DejaVuSans-36"/>
      </g>
     </g>
    </g>
    <g id="xtick_5">
     <g id="line2d_5">
      <g>
       <use style="stroke:#000000;stroke-width:0.8;" x="353.819086" xlink:href="#mf8ed095dd2" y="306.92"/>
      </g>
     </g>
     <g id="text_5">
      <!-- 0.8 -->
      <g transform="translate(345.867524 321.518437)scale(0.1 -0.1)">
       <defs>
        <path d="M 2034 2216 
Q 1584 2216 1326 1975 
Q 1069 1734 1069 1313 
Q 1069 891 1326 650 
Q 1584 409 2034 409 
Q 2484 409 2743 651 
Q 3003 894 3003 1313 
Q 3003 1734 2745 1975 
Q 2488 2216 2034 2216 
z
M 1403 2484 
Q 997 2584 770 2862 
Q 544 3141 544 3541 
Q 544 4100 942 4425 
Q 1341 4750 2034 4750 
Q 2731 4750 3128 4425 
Q 3525 4100 3525 3541 
Q 3525 3141 3298 2862 
Q 3072 2584 2669 2484 
Q 3125 2378 3379 2068 
Q 3634 1759 3634 1313 
Q 3634 634 3220 271 
Q 2806 -91 2034 -91 
Q 1263 -91 848 271 
Q 434 634 434 1313 
Q 434 1759 690 2068 
Q 947 2378 1403 2484 
z
M 1172 3481 
Q 1172 3119 1398 2916 
Q 1625 2713 2034 2713 
Q 2441 2713 2670 2916 
Q 2900 3119 2900 3481 
Q 2900 3844 2670 4047 
Q 2441 4250 2034 4250 
Q 1625 4250 1398 4047 
Q 1172 3844 1172 3481 
z
" id="DejaVuSans-38" transform="scale(0.015625)"/>
       </defs>
       <use xlink:href="#DejaVuSans-30"/>
       <use x="63.623047" xlink:href="#DejaVuSans-2e"/>
       <use x="95.410156" xlink:href="#DejaVuSans-38"/>
      </g>
     </g>
    </g>
    <g id="xtick_6">
     <g id="line2d_6">
      <g>
       <use style="stroke:#000000;stroke-width:0.8;" x="423.244895" xlink:href="#mf8ed095dd2" y="306.92"/>
      </g>
     </g>
     <g id="text_6">
      <!-- 1.0 -->
      <g transform="translate(415.293332 321.518437)scale(0.1 -0.1)">
       <defs>
        <path d="M 794 531 
L 1825 531 
L 1825 4091 
L 703 3866 
L 703 4441 
L 1819 4666 
L 2450 4666 
L 2450 531 
L 3481 531 
L 3481 0 
L 794 0 
L 794 531 
z
" id="DejaVuSans-31" transform="scale(0.015625)"/>
       </defs>
       <use xlink:href="#DejaVuSans-31"/>
       <use x="63.623047" xlink:href="#DejaVuSans-2e"/>
       <use x="95.410156" xlink:href="#DejaVuSans-30"/>
      </g>
     </g>
    </g>
   </g>
   <g id="matplotlib.axis_2">
    <g id="ytick_1">
     <g id="line2d_7">
      <defs>
       <path d="M 0 0 
L -3.5 0 
" id="me6333d31ab" style="stroke:#000000;stroke-width:0.8;"/>
      </defs>
      <g>
       <use style="stroke:#000000;stroke-width:0.8;" x="58.853125" xlink:href="#me6333d31ab" y="306.92"/>
      </g>
     </g>
     <g id="text_7">
      <!-- 0 -->
      <g transform="translate(45.490625 310.719219)scale(0.1 -0.1)">
       <use xlink:href="#DejaVuSans-30"/>
      </g>
     </g>
    </g>
    <g id="ytick_2">
     <g id="line2d_8">
      <g>
       <use style="stroke:#000000;stroke-width:0.8;" x="58.853125" xlink:href="#me6333d31ab" y="269.49953"/>
      </g>
     </g>
     <g id="text_8">
      <!-- 25000 -->
      <g transform="translate(20.040625 273.298749)scale(0.1 -0.1)">
       <defs>
        <path d="M 691 4666 
L 3169 4666 
L 3169 4134 
L 1269 4134 
L 1269 2991 
Q 1406 3038 1543 3061 
Q 1681 3084 1819 3084 
Q 2600 3084 3056 2656 
Q 3513 2228 3513 1497 
Q 3513 744 3044 326 
Q 2575 -91 1722 -91 
Q 1428 -91 1123 -41 
Q 819 9 494 109 
L 494 744 
Q 775 591 1075 516 
Q 1375 441 1709 441 
Q 2250 441 2565 725 
Q 2881 1009 2881 1497 
Q 2881 1984 2565 2268 
Q 2250 2553 1709 2553 
Q 1456 2553 1204 2497 
Q 953 2441 691 2322 
L 691 4666 
z
" id="DejaVuSans-35" transform="scale(0.015625)"/>
       </defs>
       <use xlink:href="#DejaVuSans-32"/>
       <use x="63.623047" xlink:href="#DejaVuSans-35"/>
       <use x="127.246094" xlink:href="#DejaVuSans-30"/>
       <use x="190.869141" xlink:href="#DejaVuSans-30"/>
       <use x="254.492188" xlink:href="#DejaVuSans-30"/>
      </g>
     </g>
    </g>
    <g id="ytick_3">
     <g id="line2d_9">
      <g>
       <use style="stroke:#000000;stroke-width:0.8;" x="58.853125" xlink:href="#me6333d31ab" y="232.07906"/>
      </g>
     </g>
     <g id="text_9">
      <!-- 50000 -->
      <g transform="translate(20.040625 235.878279)scale(0.1 -0.1)">
       <use xlink:href="#DejaVuSans-35"/>
       <use x="63.623047" xlink:href="#DejaVuSans-30"/>
       <use x="127.246094" xlink:href="#DejaVuSans-30"/>
       <use x="190.869141" xlink:href="#DejaVuSans-30"/>
       <use x="254.492188" xlink:href="#DejaVuSans-30"/>
      </g>
     </g>
    </g>
    <g id="ytick_4">
     <g id="line2d_10">
      <g>
       <use style="stroke:#000000;stroke-width:0.8;" x="58.853125" xlink:href="#me6333d31ab" y="194.65859"/>
      </g>
     </g>
     <g id="text_10">
      <!-- 75000 -->
      <g transform="translate(20.040625 198.457809)scale(0.1 -0.1)">
       <defs>
        <path d="M 525 4666 
L 3525 4666 
L 3525 4397 
L 1831 0 
L 1172 0 
L 2766 4134 
L 525 4134 
L 525 4666 
z
" id="DejaVuSans-37" transform="scale(0.015625)"/>
       </defs>
       <use xlink:href="#DejaVuSans-37"/>
       <use x="63.623047" xlink:href="#DejaVuSans-35"/>
       <use x="127.246094" xlink:href="#DejaVuSans-30"/>
       <use x="190.869141" xlink:href="#DejaVuSans-30"/>
       <use x="254.492188" xlink:href="#DejaVuSans-30"/>
      </g>
     </g>
    </g>
    <g id="ytick_5">
     <g id="line2d_11">
      <g>
       <use style="stroke:#000000;stroke-width:0.8;" x="58.853125" xlink:href="#me6333d31ab" y="157.23812"/>
      </g>
     </g>
     <g id="text_11">
      <!-- 100000 -->
      <g transform="translate(13.678125 161.037339)scale(0.1 -0.1)">
       <use xlink:href="#DejaVuSans-31"/>
       <use x="63.623047" xlink:href="#DejaVuSans-30"/>
       <use x="127.246094" xlink:href="#DejaVuSans-30"/>
       <use x="190.869141" xlink:href="#DejaVuSans-30"/>
       <use x="254.492188" xlink:href="#DejaVuSans-30"/>
       <use x="318.115234" xlink:href="#DejaVuSans-30"/>
      </g>
     </g>
    </g>
    <g id="ytick_6">
     <g id="line2d_12">
      <g>
       <use style="stroke:#000000;stroke-width:0.8;" x="58.853125" xlink:href="#me6333d31ab" y="119.81765"/>
      </g>
     </g>
     <g id="text_12">
      <!-- 125000 -->
      <g transform="translate(13.678125 123.616869)scale(0.1 -0.1)">
       <use xlink:href="#DejaVuSans-31"/>
       <use x="63.623047" xlink:href="#DejaVuSans-32"/>
       <use x="127.246094" xlink:href="#DejaVuSans-35"/>
       <use x="190.869141" xlink:href="#DejaVuSans-30"/>
       <use x="254.492188" xlink:href="#DejaVuSans-30"/>
       <use x="318.115234" xlink:href="#DejaVuSans-30"/>
      </g>
     </g>
    </g>
    <g id="ytick_7">
     <g id="line2d_13">
      <g>
       <use style="stroke:#000000;stroke-width:0.8;" x="58.853125" xlink:href="#me6333d31ab" y="82.39718"/>
      </g>
     </g>
     <g id="text_13">
      <!-- 150000 -->
      <g transform="translate(13.678125 86.196399)scale(0.1 -0.1)">
       <use xlink:href="#DejaVuSans-31"/>
       <use x="63.623047" xlink:href="#DejaVuSans-35"/>
       <use x="127.246094" xlink:href="#DejaVuSans-30"/>
       <use x="190.869141" xlink:href="#DejaVuSans-30"/>
       <use x="254.492188" xlink:href="#DejaVuSans-30"/>
       <use x="318.115234" xlink:href="#DejaVuSans-30"/>
      </g>
     </g>
    </g>
    <g id="ytick_8">
     <g id="line2d_14">
      <g>
       <use style="stroke:#000000;stroke-width:0.8;" x="58.853125" xlink:href="#me6333d31ab" y="44.976711"/>
      </g>
     </g>
     <g id="text_14">
      <!-- 175000 -->
      <g transform="translate(13.678125 48.775929)scale(0.1 -0.1)">
       <use xlink:href="#DejaVuSans-31"/>
       <use x="63.623047" xlink:href="#DejaVuSans-37"/>
       <use x="127.246094" xlink:href="#DejaVuSans-35"/>
       <use x="190.869141" xlink:href="#DejaVuSans-30"/>
       <use x="254.492188" xlink:href="#DejaVuSans-30"/>
       <use x="318.115234" xlink:href="#DejaVuSans-30"/>
      </g>
     </g>
    </g>
    <g id="ytick_9">
     <g id="line2d_15">
      <g>
       <use style="stroke:#000000;stroke-width:0.8;" x="58.853125" xlink:href="#me6333d31ab" y="7.556241"/>
      </g>
     </g>
     <g id="text_15">
      <!-- 200000 -->
      <g transform="translate(13.678125 11.355459)scale(0.1 -0.1)">
       <use xlink:href="#DejaVuSans-32"/>
       <use x="63.623047" xlink:href="#DejaVuSans-30"/>
       <use x="127.246094" xlink:href="#DejaVuSans-30"/>
       <use x="190.869141" xlink:href="#DejaVuSans-30"/>
       <use x="254.492188" xlink:href="#DejaVuSans-30"/>
       <use x="318.115234" xlink:href="#DejaVuSans-30"/>
      </g>
     </g>
    </g>
    <g id="text_16">
     <!-- n SNPs -->
     <g transform="translate(7.598437 170.664687)rotate(-90)scale(0.1 -0.1)">
      <defs>
       <path d="M 3513 2113 
L 3513 0 
L 2938 0 
L 2938 2094 
Q 2938 2591 2744 2837 
Q 2550 3084 2163 3084 
Q 1697 3084 1428 2787 
Q 1159 2491 1159 1978 
L 1159 0 
L 581 0 
L 581 3500 
L 1159 3500 
L 1159 2956 
Q 1366 3272 1645 3428 
Q 1925 3584 2291 3584 
Q 2894 3584 3203 3211 
Q 3513 2838 3513 2113 
z
" id="DejaVuSans-6e" transform="scale(0.015625)"/>
       <path id="DejaVuSans-20" transform="scale(0.015625)"/>
       <path d="M 3425 4513 
L 3425 3897 
Q 3066 4069 2747 4153 
Q 2428 4238 2131 4238 
Q 1616 4238 1336 4038 
Q 1056 3838 1056 3469 
Q 1056 3159 1242 3001 
Q 1428 2844 1947 2747 
L 2328 2669 
Q 3034 2534 3370 2195 
Q 3706 1856 3706 1288 
Q 3706 609 3251 259 
Q 2797 -91 1919 -91 
Q 1588 -91 1214 -16 
Q 841 59 441 206 
L 441 856 
Q 825 641 1194 531 
Q 1563 422 1919 422 
Q 2459 422 2753 634 
Q 3047 847 3047 1241 
Q 3047 1584 2836 1778 
Q 2625 1972 2144 2069 
L 1759 2144 
Q 1053 2284 737 2584 
Q 422 2884 422 3419 
Q 422 4038 858 4394 
Q 1294 4750 2059 4750 
Q 2388 4750 2728 4690 
Q 3069 4631 3425 4513 
z
" id="DejaVuSans-53" transform="scale(0.015625)"/>
       <path d="M 628 4666 
L 1478 4666 
L 3547 763 
L 3547 4666 
L 4159 4666 
L 4159 0 
L 3309 0 
L 1241 3903 
L 1241 0 
L 628 0 
L 628 4666 
z
" id="DejaVuSans-4e" transform="scale(0.015625)"/>
       <path d="M 1259 4147 
L 1259 2394 
L 2053 2394 
Q 2494 2394 2734 2622 
Q 2975 2850 2975 3272 
Q 2975 3691 2734 3919 
Q 2494 4147 2053 4147 
L 1259 4147 
z
M 628 4666 
L 2053 4666 
Q 2838 4666 3239 4311 
Q 3641 3956 3641 3272 
Q 3641 2581 3239 2228 
Q 2838 1875 2053 1875 
L 1259 1875 
L 1259 0 
L 628 0 
L 628 4666 
z
" id="DejaVuSans-50" transform="scale(0.015625)"/>
       <path d="M 2834 3397 
L 2834 2853 
Q 2591 2978 2328 3040 
Q 2066 3103 1784 3103 
Q 1356 3103 1142 2972 
Q 928 2841 928 2578 
Q 928 2378 1081 2264 
Q 1234 2150 1697 2047 
L 1894 2003 
Q 2506 1872 2764 1633 
Q 3022 1394 3022 966 
Q 3022 478 2636 193 
Q 2250 -91 1575 -91 
Q 1294 -91 989 -36 
Q 684 19 347 128 
L 347 722 
Q 666 556 975 473 
Q 1284 391 1588 391 
Q 1994 391 2212 530 
Q 2431 669 2431 922 
Q 2431 1156 2273 1281 
Q 2116 1406 1581 1522 
L 1381 1569 
Q 847 1681 609 1914 
Q 372 2147 372 2553 
Q 372 3047 722 3315 
Q 1072 3584 1716 3584 
Q 2034 3584 2315 3537 
Q 2597 3491 2834 3397 
z
" id="DejaVuSans-73" transform="scale(0.015625)"/>
      </defs>
      <use xlink:href="#DejaVuSans-6e"/>
      <use x="63.378906" xlink:href="#DejaVuSans-20"/>
      <use x="95.166016" xlink:href="#DejaVuSans-53"/>
      <use x="158.642578" xlink:href="#DejaVuSans-4e"/>
      <use x="233.447266" xlink:href="#DejaVuSans-50"/>
      <use x="292" xlink:href="#DejaVuSans-73"/>
     </g>
    </g>
   </g>
   <g id="line2d_16">
    <path clip-path="url(#pb46d8c9cf9)" d="M 95.278849 306.92 
L 95.278849 0 
" style="fill:none;stroke:#ce6dbd;stroke-dasharray:3.7,1.6;stroke-dashoffset:0;"/>
   </g>
   <g id="line2d_17">
    <path clip-path="url(#pb46d8c9cf9)" d="M 94.379207 306.92 
L 94.379207 0 
" style="fill:none;stroke:#6495ed;stroke-dasharray:3.7,1.6;stroke-dashoffset:0;"/>
   </g>
   <g id="patch_78">
    <path d="M 58.853125 306.92 
L 58.853125 0 
" style="fill:none;stroke:#000000;stroke-linecap:square;stroke-linejoin:miter;stroke-width:0.8;"/>
   </g>
   <g id="patch_79">
    <path d="M 438.633125 306.92 
L 438.633125 0 
" style="fill:none;stroke:#000000;stroke-linecap:square;stroke-linejoin:miter;stroke-width:0.8;"/>
   </g>
   <g id="patch_80">
    <path d="M 58.853125 306.92 
L 438.633125 306.92 
" style="fill:none;stroke:#000000;stroke-linecap:square;stroke-linejoin:miter;stroke-width:0.8;"/>
   </g>
   <g id="patch_81">
    <path d="M 58.853125 0 
L 438.633125 0 
" style="fill:none;stroke:#000000;stroke-linecap:square;stroke-linejoin:miter;stroke-width:0.8;"/>
   </g>
   <g id="text_17">
    <!-- $\bar{x}=0.0552$ -->
    <g style="fill:#ce6dbd;" transform="translate(98.750139 10.7422)scale(0.0833 -0.0833)">
     <defs>
      <path d="M -2522 4769 
L -653 4769 
L -653 4306 
L -2522 4306 
L -2522 4769 
z
" id="DejaVuSans-304" transform="scale(0.015625)"/>
      <path d="M 3841 3500 
L 2234 1784 
L 3219 0 
L 2559 0 
L 1819 1388 
L 531 0 
L -166 0 
L 1556 1844 
L 641 3500 
L 1300 3500 
L 1972 2234 
L 3144 3500 
L 3841 3500 
z
" id="DejaVuSans-Oblique-78" transform="scale(0.015625)"/>
      <path d="M 678 2906 
L 4684 2906 
L 4684 2381 
L 678 2381 
L 678 2906 
z
M 678 1631 
L 4684 1631 
L 4684 1100 
L 678 1100 
L 678 1631 
z
" id="DejaVuSans-3d" transform="scale(0.015625)"/>
     </defs>
     <use transform="translate(62.201172 0.484375)" xlink:href="#DejaVuSans-304"/>
     <use transform="translate(0 0.578125)" xlink:href="#DejaVuSans-Oblique-78"/>
     <use transform="translate(78.662109 0.578125)" xlink:href="#DejaVuSans-3d"/>
     <use transform="translate(181.933594 0.578125)" xlink:href="#DejaVuSans-30"/>
     <use transform="translate(245.556641 0.578125)" xlink:href="#DejaVuSans-2e"/>
     <use transform="translate(277.34375 0.578125)" xlink:href="#DejaVuSans-30"/>
     <use transform="translate(340.966797 0.578125)" xlink:href="#DejaVuSans-35"/>
     <use transform="translate(404.589844 0.578125)" xlink:href="#DejaVuSans-35"/>
     <use transform="translate(468.212891 0.578125)" xlink:href="#DejaVuSans-32"/>
    </g>
   </g>
   <g id="text_18">
    <!-- $\bar{x}=0.0526$ -->
    <g style="fill:#6495ed;" transform="translate(97.850497 10.7422)scale(0.0833 -0.0833)">
     <use transform="translate(62.201172 0.484375)" xlink:href="#DejaVuSans-304"/>
     <use transform="translate(0 0.578125)" xlink:href="#DejaVuSans-Oblique-78"/>
     <use transform="translate(78.662109 0.578125)" xlink:href="#DejaVuSans-3d"/>
     <use transform="translate(181.933594 0.578125)" xlink:href="#DejaVuSans-30"/>
     <use transform="translate(245.556641 0.578125)" xlink:href="#DejaVuSans-2e"/>
     <use transform="translate(277.34375 0.578125)" xlink:href="#DejaVuSans-30"/>
     <use transform="translate(340.966797 0.578125)" xlink:href="#DejaVuSans-35"/>
     <use transform="translate(404.589844 0.578125)" xlink:href="#DejaVuSans-32"/>
     <use transform="translate(468.212891 0.578125)" xlink:href="#DejaVuSans-36"/>
    </g>
   </g>
   <g id="legend_1">
    <g id="patch_82">
     <path d="M 353.272187 37.35625 
L 431.633125 37.35625 
Q 433.633125 37.35625 433.633125 35.35625 
L 433.633125 7 
Q 433.633125 5 431.633125 5 
L 353.272187 5 
Q 351.272187 5 351.272187 7 
L 351.272187 35.35625 
Q 351.272187 37.35625 353.272187 37.35625 
z
" style="fill:#ffffff;opacity:0.8;stroke:#cccccc;stroke-linejoin:miter;"/>
    </g>
    <g id="patch_83">
     <path d="M 355.272187 16.598437 
L 375.272187 16.598437 
L 375.272187 9.598437 
L 355.272187 9.598437 
z
" style="fill:#ce6dbd;opacity:0.3;stroke:#b18aaa;stroke-linejoin:miter;"/>
    </g>
    <g id="text_19">
     <!-- observed -->
     <g transform="translate(383.272187 16.598437)scale(0.1 -0.1)">
      <defs>
       <path d="M 1959 3097 
Q 1497 3097 1228 2736 
Q 959 2375 959 1747 
Q 959 1119 1226 758 
Q 1494 397 1959 397 
Q 2419 397 2687 759 
Q 2956 1122 2956 1747 
Q 2956 2369 2687 2733 
Q 2419 3097 1959 3097 
z
M 1959 3584 
Q 2709 3584 3137 3096 
Q 3566 2609 3566 1747 
Q 3566 888 3137 398 
Q 2709 -91 1959 -91 
Q 1206 -91 779 398 
Q 353 888 353 1747 
Q 353 2609 779 3096 
Q 1206 3584 1959 3584 
z
" id="DejaVuSans-6f" transform="scale(0.015625)"/>
       <path d="M 3116 1747 
Q 3116 2381 2855 2742 
Q 2594 3103 2138 3103 
Q 1681 3103 1420 2742 
Q 1159 2381 1159 1747 
Q 1159 1113 1420 752 
Q 1681 391 2138 391 
Q 2594 391 2855 752 
Q 3116 1113 3116 1747 
z
M 1159 2969 
Q 1341 3281 1617 3432 
Q 1894 3584 2278 3584 
Q 2916 3584 3314 3078 
Q 3713 2572 3713 1747 
Q 3713 922 3314 415 
Q 2916 -91 2278 -91 
Q 1894 -91 1617 61 
Q 1341 213 1159 525 
L 1159 0 
L 581 0 
L 581 4863 
L 1159 4863 
L 1159 2969 
z
" id="DejaVuSans-62" transform="scale(0.015625)"/>
       <path d="M 3597 1894 
L 3597 1613 
L 953 1613 
Q 991 1019 1311 708 
Q 1631 397 2203 397 
Q 2534 397 2845 478 
Q 3156 559 3463 722 
L 3463 178 
Q 3153 47 2828 -22 
Q 2503 -91 2169 -91 
Q 1331 -91 842 396 
Q 353 884 353 1716 
Q 353 2575 817 3079 
Q 1281 3584 2069 3584 
Q 2775 3584 3186 3129 
Q 3597 2675 3597 1894 
z
M 3022 2063 
Q 3016 2534 2758 2815 
Q 2500 3097 2075 3097 
Q 1594 3097 1305 2825 
Q 1016 2553 972 2059 
L 3022 2063 
z
" id="DejaVuSans-65" transform="scale(0.015625)"/>
       <path d="M 2631 2963 
Q 2534 3019 2420 3045 
Q 2306 3072 2169 3072 
Q 1681 3072 1420 2755 
Q 1159 2438 1159 1844 
L 1159 0 
L 581 0 
L 581 3500 
L 1159 3500 
L 1159 2956 
Q 1341 3275 1631 3429 
Q 1922 3584 2338 3584 
Q 2397 3584 2469 3576 
Q 2541 3569 2628 3553 
L 2631 2963 
z
" id="DejaVuSans-72" transform="scale(0.015625)"/>
       <path d="M 191 3500 
L 800 3500 
L 1894 563 
L 2988 3500 
L 3597 3500 
L 2284 0 
L 1503 0 
L 191 3500 
z
" id="DejaVuSans-76" transform="scale(0.015625)"/>
       <path d="M 2906 2969 
L 2906 4863 
L 3481 4863 
L 3481 0 
L 2906 0 
L 2906 525 
Q 2725 213 2448 61 
Q 2172 -91 1784 -91 
Q 1150 -91 751 415 
Q 353 922 353 1747 
Q 353 2572 751 3078 
Q 1150 3584 1784 3584 
Q 2172 3584 2448 3432 
Q 2725 3281 2906 2969 
z
M 947 1747 
Q 947 1113 1208 752 
Q 1469 391 1925 391 
Q 2381 391 2643 752 
Q 2906 1113 2906 1747 
Q 2906 2381 2643 2742 
Q 2381 3103 1925 3103 
Q 1469 3103 1208 2742 
Q 947 2381 947 1747 
z
" id="DejaVuSans-64" transform="scale(0.015625)"/>
      </defs>
      <use xlink:href="#DejaVuSans-6f"/>
      <use x="61.181641" xlink:href="#DejaVuSans-62"/>
      <use x="124.658203" xlink:href="#DejaVuSans-73"/>
      <use x="176.757812" xlink:href="#DejaVuSans-65"/>
      <use x="238.28125" xlink:href="#DejaVuSans-72"/>
      <use x="279.394531" xlink:href="#DejaVuSans-76"/>
      <use x="338.574219" xlink:href="#DejaVuSans-65"/>
      <use x="400.097656" xlink:href="#DejaVuSans-64"/>
     </g>
    </g>
    <g id="patch_84">
     <path d="M 355.272187 31.276563 
L 375.272187 31.276563 
L 375.272187 24.276563 
L 355.272187 24.276563 
z
" style="fill:#6495ed;opacity:0.3;stroke:#97a4ba;stroke-linejoin:miter;"/>
    </g>
    <g id="text_20">
     <!-- expected -->
     <g transform="translate(383.272187 31.276563)scale(0.1 -0.1)">
      <defs>
       <path d="M 3513 3500 
L 2247 1797 
L 3578 0 
L 2900 0 
L 1881 1375 
L 863 0 
L 184 0 
L 1544 1831 
L 300 3500 
L 978 3500 
L 1906 2253 
L 2834 3500 
L 3513 3500 
z
" id="DejaVuSans-78" transform="scale(0.015625)"/>
       <path d="M 1159 525 
L 1159 -1331 
L 581 -1331 
L 581 3500 
L 1159 3500 
L 1159 2969 
Q 1341 3281 1617 3432 
Q 1894 3584 2278 3584 
Q 2916 3584 3314 3078 
Q 3713 2572 3713 1747 
Q 3713 922 3314 415 
Q 2916 -91 2278 -91 
Q 1894 -91 1617 61 
Q 1341 213 1159 525 
z
M 3116 1747 
Q 3116 2381 2855 2742 
Q 2594 3103 2138 3103 
Q 1681 3103 1420 2742 
Q 1159 2381 1159 1747 
Q 1159 1113 1420 752 
Q 1681 391 2138 391 
Q 2594 391 2855 752 
Q 3116 1113 3116 1747 
z
" id="DejaVuSans-70" transform="scale(0.015625)"/>
       <path d="M 3122 3366 
L 3122 2828 
Q 2878 2963 2633 3030 
Q 2388 3097 2138 3097 
Q 1578 3097 1268 2742 
Q 959 2388 959 1747 
Q 959 1106 1268 751 
Q 1578 397 2138 397 
Q 2388 397 2633 464 
Q 2878 531 3122 666 
L 3122 134 
Q 2881 22 2623 -34 
Q 2366 -91 2075 -91 
Q 1284 -91 818 406 
Q 353 903 353 1747 
Q 353 2603 823 3093 
Q 1294 3584 2113 3584 
Q 2378 3584 2631 3529 
Q 2884 3475 3122 3366 
z
" id="DejaVuSans-63" transform="scale(0.015625)"/>
       <path d="M 1172 4494 
L 1172 3500 
L 2356 3500 
L 2356 3053 
L 1172 3053 
L 1172 1153 
Q 1172 725 1289 603 
Q 1406 481 1766 481 
L 2356 481 
L 2356 0 
L 1766 0 
Q 1100 0 847 248 
Q 594 497 594 1153 
L 594 3053 
L 172 3053 
L 172 3500 
L 594 3500 
L 594 4494 
L 1172 4494 
z
" id="DejaVuSans-74" transform="scale(0.015625)"/>
      </defs>
      <use xlink:href="#DejaVuSans-65"/>
      <use x="59.773438" xlink:href="#DejaVuSans-78"/>
      <use x="118.953125" xlink:href="#DejaVuSans-70"/>
      <use x="182.429688" xlink:href="#DejaVuSans-65"/>
      <use x="243.953125" xlink:href="#DejaVuSans-63"/>
      <use x="298.933594" xlink:href="#DejaVuSans-74"/>
      <use x="338.142578" xlink:href="#DejaVuSans-65"/>
      <use x="399.666016" xlink:href="#DejaVuSans-64"/>
     </g>
    </g>
   </g>
  </g>
 </g>
 <defs>
  <clipPath id="pb46d8c9cf9">
   <rect height="306.92" width="379.78" x="58.853125" y="0"/>
  </clipPath>
 </defs>
</svg>
