<?xml version="1.0" encoding="utf-8" standalone="no"?>
<!DOCTYPE svg PUBLIC "-//W3C//DTD SVG 1.1//EN"
  "http://www.w3.org/Graphics/SVG/1.1/DTD/svg11.dtd">
<svg height="323.598125pt" version="1.1" viewBox="0 0 438.577449 323.598125" width="438.577449pt" xmlns="http://www.w3.org/2000/svg" xmlns:xlink="http://www.w3.org/1999/xlink">
 <metadata>
  <rdf:RDF xmlns:cc="http://creativecommons.org/ns#" xmlns:dc="http://purl.org/dc/elements/1.1/" xmlns:rdf="http://www.w3.org/1999/02/22-rdf-syntax-ns#">
   <cc:Work>
    <dc:type rdf:resource="http://purl.org/dc/dcmitype/StillImage"/>
    <dc:date>2022-01-12T14:44:11.456068</dc:date>
    <dc:format>image/svg+xml</dc:format>
    <dc:creator>
     <cc:Agent>
      <dc:title>Matplotlib v3.4.3, https://matplotlib.org/</dc:title>
     </cc:Agent>
    </dc:creator>
   </cc:Work>
  </rdf:RDF>
 </metadata>
 <defs>
  <style type="text/css">*{stroke-linecap:butt;stroke-linejoin:round;}</style>
 </defs>
 <g id="figure_1">
  <g id="patch_1">
   <path d="M 0 323.598125 
L 438.577449 323.598125 
L 438.577449 0 
L 0 0 
z
" style="fill:#ffffff;"/>
  </g>
  <g id="axes_1">
   <g id="patch_2">
    <path d="M 58.853125 306.92 
L 428.29855 306.92 
L 428.29855 0 
L 58.853125 0 
z
" style="fill:#ffffff;"/>
   </g>
   <g id="patch_3">
    <path clip-path="url(#p02201e2bbd)" d="M 75.646099 306.92 
L 82.363288 306.92 
L 82.363288 306.267509 
L 75.646099 306.267509 
z
" style="fill:#6baed6;stroke:#8ea5b3;stroke-linejoin:miter;"/>
   </g>
   <g id="patch_4">
    <path clip-path="url(#p02201e2bbd)" d="M 82.363288 306.92 
L 89.080478 306.92 
L 89.080478 301.237889 
L 82.363288 301.237889 
z
" style="fill:#6baed6;stroke:#8ea5b3;stroke-linejoin:miter;"/>
   </g>
   <g id="patch_5">
    <path clip-path="url(#p02201e2bbd)" d="M 89.080478 306.92 
L 95.797668 306.92 
L 95.797668 86.889974 
L 89.080478 86.889974 
z
" style="fill:#6baed6;stroke:#8ea5b3;stroke-linejoin:miter;"/>
   </g>
   <g id="patch_6">
    <path clip-path="url(#p02201e2bbd)" d="M 95.797668 306.92 
L 102.514857 306.92 
L 102.514857 14.615238 
L 95.797668 14.615238 
z
" style="fill:#6baed6;stroke:#8ea5b3;stroke-linejoin:miter;"/>
   </g>
   <g id="patch_7">
    <path clip-path="url(#p02201e2bbd)" d="M 102.514857 306.92 
L 109.232047 306.92 
L 109.232047 262.947073 
L 102.514857 262.947073 
z
" style="fill:#6baed6;stroke:#8ea5b3;stroke-linejoin:miter;"/>
   </g>
   <g id="patch_8">
    <path clip-path="url(#p02201e2bbd)" d="M 109.232047 306.92 
L 115.949236 306.92 
L 115.949236 286.350666 
L 109.232047 286.350666 
z
" style="fill:#6baed6;stroke:#8ea5b3;stroke-linejoin:miter;"/>
   </g>
   <g id="patch_9">
    <path clip-path="url(#p02201e2bbd)" d="M 115.949236 306.92 
L 122.666426 306.92 
L 122.666426 296.165222 
L 115.949236 296.165222 
z
" style="fill:#6baed6;stroke:#8ea5b3;stroke-linejoin:miter;"/>
   </g>
   <g id="patch_10">
    <path clip-path="url(#p02201e2bbd)" d="M 122.666426 306.92 
L 129.383615 306.92 
L 129.383615 301.174452 
L 122.666426 301.174452 
z
" style="fill:#6baed6;stroke:#8ea5b3;stroke-linejoin:miter;"/>
   </g>
   <g id="patch_11">
    <path clip-path="url(#p02201e2bbd)" d="M 129.383615 306.92 
L 136.100805 306.92 
L 136.100805 303.159113 
L 129.383615 303.159113 
z
" style="fill:#6baed6;stroke:#8ea5b3;stroke-linejoin:miter;"/>
   </g>
   <g id="patch_12">
    <path clip-path="url(#p02201e2bbd)" d="M 136.100805 306.92 
L 142.817994 306.92 
L 142.817994 304.667999 
L 136.100805 304.667999 
z
" style="fill:#6baed6;stroke:#8ea5b3;stroke-linejoin:miter;"/>
   </g>
   <g id="patch_13">
    <path clip-path="url(#p02201e2bbd)" d="M 142.817994 306.92 
L 149.535184 306.92 
L 149.535184 305.121118 
L 142.817994 305.121118 
z
" style="fill:#6baed6;stroke:#8ea5b3;stroke-linejoin:miter;"/>
   </g>
   <g id="patch_14">
    <path clip-path="url(#p02201e2bbd)" d="M 149.535184 306.92 
L 156.252374 306.92 
L 156.252374 305.651267 
L 149.535184 305.651267 
z
" style="fill:#6baed6;stroke:#8ea5b3;stroke-linejoin:miter;"/>
   </g>
   <g id="patch_15">
    <path clip-path="url(#p02201e2bbd)" d="M 156.252374 306.92 
L 162.969563 306.92 
L 162.969563 305.945794 
L 156.252374 305.945794 
z
" style="fill:#6baed6;stroke:#8ea5b3;stroke-linejoin:miter;"/>
   </g>
   <g id="patch_16">
    <path clip-path="url(#p02201e2bbd)" d="M 162.969563 306.92 
L 169.686753 306.92 
L 169.686753 306.315086 
L 162.969563 306.315086 
z
" style="fill:#6baed6;stroke:#8ea5b3;stroke-linejoin:miter;"/>
   </g>
   <g id="patch_17">
    <path clip-path="url(#p02201e2bbd)" d="M 169.686753 306.92 
L 176.403942 306.92 
L 176.403942 306.258446 
L 169.686753 306.258446 
z
" style="fill:#6baed6;stroke:#8ea5b3;stroke-linejoin:miter;"/>
   </g>
   <g id="patch_18">
    <path clip-path="url(#p02201e2bbd)" d="M 176.403942 306.92 
L 183.121132 306.92 
L 183.121132 306.417038 
L 176.403942 306.417038 
z
" style="fill:#6baed6;stroke:#8ea5b3;stroke-linejoin:miter;"/>
   </g>
   <g id="patch_19">
    <path clip-path="url(#p02201e2bbd)" d="M 183.121132 306.92 
L 189.838321 306.92 
L 189.838321 306.546177 
L 183.121132 306.546177 
z
" style="fill:#6baed6;stroke:#8ea5b3;stroke-linejoin:miter;"/>
   </g>
   <g id="patch_20">
    <path clip-path="url(#p02201e2bbd)" d="M 189.838321 306.92 
L 196.555511 306.92 
L 196.555511 306.557505 
L 189.838321 306.557505 
z
" style="fill:#6baed6;stroke:#8ea5b3;stroke-linejoin:miter;"/>
   </g>
   <g id="patch_21">
    <path clip-path="url(#p02201e2bbd)" d="M 196.555511 306.92 
L 203.2727 306.92 
L 203.2727 306.620942 
L 196.555511 306.620942 
z
" style="fill:#6baed6;stroke:#8ea5b3;stroke-linejoin:miter;"/>
   </g>
   <g id="patch_22">
    <path clip-path="url(#p02201e2bbd)" d="M 203.2727 306.92 
L 209.98989 306.92 
L 209.98989 306.7093 
L 203.2727 306.7093 
z
" style="fill:#6baed6;stroke:#8ea5b3;stroke-linejoin:miter;"/>
   </g>
   <g id="patch_23">
    <path clip-path="url(#p02201e2bbd)" d="M 209.98989 306.92 
L 216.70708 306.92 
L 216.70708 306.7093 
L 209.98989 306.7093 
z
" style="fill:#6baed6;stroke:#8ea5b3;stroke-linejoin:miter;"/>
   </g>
   <g id="patch_24">
    <path clip-path="url(#p02201e2bbd)" d="M 216.70708 306.92 
L 223.424269 306.92 
L 223.424269 306.745549 
L 216.70708 306.745549 
z
" style="fill:#6baed6;stroke:#8ea5b3;stroke-linejoin:miter;"/>
   </g>
   <g id="patch_25">
    <path clip-path="url(#p02201e2bbd)" d="M 223.424269 306.92 
L 230.141459 306.92 
L 230.141459 306.797658 
L 223.424269 306.797658 
z
" style="fill:#6baed6;stroke:#8ea5b3;stroke-linejoin:miter;"/>
   </g>
   <g id="patch_26">
    <path clip-path="url(#p02201e2bbd)" d="M 230.141459 306.92 
L 236.858648 306.92 
L 236.858648 306.752346 
L 230.141459 306.752346 
z
" style="fill:#6baed6;stroke:#8ea5b3;stroke-linejoin:miter;"/>
   </g>
   <g id="patch_27">
    <path clip-path="url(#p02201e2bbd)" d="M 236.858648 306.92 
L 243.575838 306.92 
L 243.575838 306.815783 
L 236.858648 306.815783 
z
" style="fill:#6baed6;stroke:#8ea5b3;stroke-linejoin:miter;"/>
   </g>
   <g id="patch_28">
    <path clip-path="url(#p02201e2bbd)" d="M 243.575838 306.92 
L 250.293027 306.92 
L 250.293027 306.793127 
L 243.575838 306.793127 
z
" style="fill:#6baed6;stroke:#8ea5b3;stroke-linejoin:miter;"/>
   </g>
   <g id="patch_29">
    <path clip-path="url(#p02201e2bbd)" d="M 250.293027 306.92 
L 257.010217 306.92 
L 257.010217 306.818048 
L 250.293027 306.818048 
z
" style="fill:#6baed6;stroke:#8ea5b3;stroke-linejoin:miter;"/>
   </g>
   <g id="patch_30">
    <path clip-path="url(#p02201e2bbd)" d="M 257.010217 306.92 
L 263.727406 306.92 
L 263.727406 306.820314 
L 257.010217 306.820314 
z
" style="fill:#6baed6;stroke:#8ea5b3;stroke-linejoin:miter;"/>
   </g>
   <g id="patch_31">
    <path clip-path="url(#p02201e2bbd)" d="M 263.727406 306.92 
L 270.444596 306.92 
L 270.444596 306.86336 
L 263.727406 306.86336 
z
" style="fill:#6baed6;stroke:#8ea5b3;stroke-linejoin:miter;"/>
   </g>
   <g id="patch_32">
    <path clip-path="url(#p02201e2bbd)" d="M 270.444596 306.92 
L 277.161786 306.92 
L 277.161786 306.840704 
L 270.444596 306.840704 
z
" style="fill:#6baed6;stroke:#8ea5b3;stroke-linejoin:miter;"/>
   </g>
   <g id="patch_33">
    <path clip-path="url(#p02201e2bbd)" d="M 277.161786 306.92 
L 283.878975 306.92 
L 283.878975 306.856563 
L 277.161786 306.856563 
z
" style="fill:#6baed6;stroke:#8ea5b3;stroke-linejoin:miter;"/>
   </g>
   <g id="patch_34">
    <path clip-path="url(#p02201e2bbd)" d="M 283.878975 306.92 
L 290.596165 306.92 
L 290.596165 306.870157 
L 283.878975 306.870157 
z
" style="fill:#6baed6;stroke:#8ea5b3;stroke-linejoin:miter;"/>
   </g>
   <g id="patch_35">
    <path clip-path="url(#p02201e2bbd)" d="M 290.596165 306.92 
L 297.313354 306.92 
L 297.313354 306.892813 
L 290.596165 306.892813 
z
" style="fill:#6baed6;stroke:#8ea5b3;stroke-linejoin:miter;"/>
   </g>
   <g id="patch_36">
    <path clip-path="url(#p02201e2bbd)" d="M 297.313354 306.92 
L 304.030544 306.92 
L 304.030544 306.876954 
L 297.313354 306.876954 
z
" style="fill:#6baed6;stroke:#8ea5b3;stroke-linejoin:miter;"/>
   </g>
   <g id="patch_37">
    <path clip-path="url(#p02201e2bbd)" d="M 304.030544 306.92 
L 310.747733 306.92 
L 310.747733 306.861095 
L 304.030544 306.861095 
z
" style="fill:#6baed6;stroke:#8ea5b3;stroke-linejoin:miter;"/>
   </g>
   <g id="patch_38">
    <path clip-path="url(#p02201e2bbd)" d="M 310.747733 306.92 
L 317.464923 306.92 
L 317.464923 306.881485 
L 310.747733 306.881485 
z
" style="fill:#6baed6;stroke:#8ea5b3;stroke-linejoin:miter;"/>
   </g>
   <g id="patch_39">
    <path clip-path="url(#p02201e2bbd)" d="M 317.464923 306.92 
L 324.182112 306.92 
L 324.182112 306.890547 
L 317.464923 306.890547 
z
" style="fill:#6baed6;stroke:#8ea5b3;stroke-linejoin:miter;"/>
   </g>
   <g id="patch_40">
    <path clip-path="url(#p02201e2bbd)" d="M 324.182112 306.92 
L 330.899302 306.92 
L 330.899302 306.892813 
L 324.182112 306.892813 
z
" style="fill:#6baed6;stroke:#8ea5b3;stroke-linejoin:miter;"/>
   </g>
   <g id="patch_41">
    <path clip-path="url(#p02201e2bbd)" d="M 330.899302 306.92 
L 337.616491 306.92 
L 337.616491 306.876954 
L 330.899302 306.876954 
z
" style="fill:#6baed6;stroke:#8ea5b3;stroke-linejoin:miter;"/>
   </g>
   <g id="patch_42">
    <path clip-path="url(#p02201e2bbd)" d="M 337.616491 306.92 
L 344.333681 306.92 
L 344.333681 306.865626 
L 337.616491 306.865626 
z
" style="fill:#6baed6;stroke:#8ea5b3;stroke-linejoin:miter;"/>
   </g>
   <g id="patch_43">
    <path clip-path="url(#p02201e2bbd)" d="M 344.333681 306.92 
L 351.050871 306.92 
L 351.050871 306.858829 
L 344.333681 306.858829 
z
" style="fill:#6baed6;stroke:#8ea5b3;stroke-linejoin:miter;"/>
   </g>
   <g id="patch_44">
    <path clip-path="url(#p02201e2bbd)" d="M 351.050871 306.92 
L 357.76806 306.92 
L 357.76806 306.897344 
L 351.050871 306.897344 
z
" style="fill:#6baed6;stroke:#8ea5b3;stroke-linejoin:miter;"/>
   </g>
   <g id="patch_45">
    <path clip-path="url(#p02201e2bbd)" d="M 357.76806 306.92 
L 364.48525 306.92 
L 364.48525 306.915469 
L 357.76806 306.915469 
z
" style="fill:#6baed6;stroke:#8ea5b3;stroke-linejoin:miter;"/>
   </g>
   <g id="patch_46">
    <path clip-path="url(#p02201e2bbd)" d="M 364.48525 306.92 
L 371.202439 306.92 
L 371.202439 306.917734 
L 364.48525 306.917734 
z
" style="fill:#6baed6;stroke:#8ea5b3;stroke-linejoin:miter;"/>
   </g>
   <g id="patch_47">
    <path clip-path="url(#p02201e2bbd)" d="M 371.202439 306.92 
L 377.919629 306.92 
L 377.919629 306.917734 
L 371.202439 306.917734 
z
" style="fill:#6baed6;stroke:#8ea5b3;stroke-linejoin:miter;"/>
   </g>
   <g id="patch_48">
    <path clip-path="url(#p02201e2bbd)" d="M 377.919629 306.92 
L 384.636818 306.92 
L 384.636818 306.92 
L 377.919629 306.92 
z
" style="fill:#6baed6;stroke:#8ea5b3;stroke-linejoin:miter;"/>
   </g>
   <g id="patch_49">
    <path clip-path="url(#p02201e2bbd)" d="M 384.636818 306.92 
L 391.354008 306.92 
L 391.354008 306.92 
L 384.636818 306.92 
z
" style="fill:#6baed6;stroke:#8ea5b3;stroke-linejoin:miter;"/>
   </g>
   <g id="patch_50">
    <path clip-path="url(#p02201e2bbd)" d="M 391.354008 306.92 
L 398.071197 306.92 
L 398.071197 306.92 
L 391.354008 306.92 
z
" style="fill:#6baed6;stroke:#8ea5b3;stroke-linejoin:miter;"/>
   </g>
   <g id="patch_51">
    <path clip-path="url(#p02201e2bbd)" d="M 398.071197 306.92 
L 404.788387 306.92 
L 404.788387 306.92 
L 398.071197 306.92 
z
" style="fill:#6baed6;stroke:#8ea5b3;stroke-linejoin:miter;"/>
   </g>
   <g id="patch_52">
    <path clip-path="url(#p02201e2bbd)" d="M 404.788387 306.92 
L 411.505577 306.92 
L 411.505577 306.917734 
L 404.788387 306.917734 
z
" style="fill:#6baed6;stroke:#8ea5b3;stroke-linejoin:miter;"/>
   </g>
   <g id="matplotlib.axis_1">
    <g id="xtick_1">
     <g id="line2d_1">
      <defs>
       <path d="M 0 0 
L 0 3.5 
" id="m8e30f1029a" style="stroke:#000000;stroke-width:0.8;"/>
      </defs>
      <g>
       <use style="stroke:#000000;stroke-width:0.8;" x="96.277793" xlink:href="#m8e30f1029a" y="306.92"/>
      </g>
     </g>
     <g id="text_1">
      <!-- 0.00 -->
      <g transform="translate(85.144981 321.518437)scale(0.1 -0.1)">
       <defs>
        <path d="M 2034 4250 
Q 1547 4250 1301 3770 
Q 1056 3291 1056 2328 
Q 1056 1369 1301 889 
Q 1547 409 2034 409 
Q 2525 409 2770 889 
Q 3016 1369 3016 2328 
Q 3016 3291 2770 3770 
Q 2525 4250 2034 4250 
z
M 2034 4750 
Q 2819 4750 3233 4129 
Q 3647 3509 3647 2328 
Q 3647 1150 3233 529 
Q 2819 -91 2034 -91 
Q 1250 -91 836 529 
Q 422 1150 422 2328 
Q 422 3509 836 4129 
Q 1250 4750 2034 4750 
z
" id="DejaVuSans-30" transform="scale(0.015625)"/>
        <path d="M 684 794 
L 1344 794 
L 1344 0 
L 684 0 
L 684 794 
z
" id="DejaVuSans-2e" transform="scale(0.015625)"/>
       </defs>
       <use xlink:href="#DejaVuSans-30"/>
       <use x="63.623047" xlink:href="#DejaVuSans-2e"/>
       <use x="95.410156" xlink:href="#DejaVuSans-30"/>
       <use x="159.033203" xlink:href="#DejaVuSans-30"/>
      </g>
     </g>
    </g>
    <g id="xtick_2">
     <g id="line2d_2">
      <g>
       <use style="stroke:#000000;stroke-width:0.8;" x="151.472267" xlink:href="#m8e30f1029a" y="306.92"/>
      </g>
     </g>
     <g id="text_2">
      <!-- 0.05 -->
      <g transform="translate(140.339455 321.518437)scale(0.1 -0.1)">
       <defs>
        <path d="M 691 4666 
L 3169 4666 
L 3169 4134 
L 1269 4134 
L 1269 2991 
Q 1406 3038 1543 3061 
Q 1681 3084 1819 3084 
Q 2600 3084 3056 2656 
Q 3513 2228 3513 1497 
Q 3513 744 3044 326 
Q 2575 -91 1722 -91 
Q 1428 -91 1123 -41 
Q 819 9 494 109 
L 494 744 
Q 775 591 1075 516 
Q 1375 441 1709 441 
Q 2250 441 2565 725 
Q 2881 1009 2881 1497 
Q 2881 1984 2565 2268 
Q 2250 2553 1709 2553 
Q 1456 2553 1204 2497 
Q 953 2441 691 2322 
L 691 4666 
z
" id="DejaVuSans-35" transform="scale(0.015625)"/>
       </defs>
       <use xlink:href="#DejaVuSans-30"/>
       <use x="63.623047" xlink:href="#DejaVuSans-2e"/>
       <use x="95.410156" xlink:href="#DejaVuSans-30"/>
       <use x="159.033203" xlink:href="#DejaVuSans-35"/>
      </g>
     </g>
    </g>
    <g id="xtick_3">
     <g id="line2d_3">
      <g>
       <use style="stroke:#000000;stroke-width:0.8;" x="206.666741" xlink:href="#m8e30f1029a" y="306.92"/>
      </g>
     </g>
     <g id="text_3">
      <!-- 0.10 -->
      <g transform="translate(195.533929 321.518437)scale(0.1 -0.1)">
       <defs>
        <path d="M 794 531 
L 1825 531 
L 1825 4091 
L 703 3866 
L 703 4441 
L 1819 4666 
L 2450 4666 
L 2450 531 
L 3481 531 
L 3481 0 
L 794 0 
L 794 531 
z
" id="DejaVuSans-31" transform="scale(0.015625)"/>
       </defs>
       <use xlink:href="#DejaVuSans-30"/>
       <use x="63.623047" xlink:href="#DejaVuSans-2e"/>
       <use x="95.410156" xlink:href="#DejaVuSans-31"/>
       <use x="159.033203" xlink:href="#DejaVuSans-30"/>
      </g>
     </g>
    </g>
    <g id="xtick_4">
     <g id="line2d_4">
      <g>
       <use style="stroke:#000000;stroke-width:0.8;" x="261.861215" xlink:href="#m8e30f1029a" y="306.92"/>
      </g>
     </g>
     <g id="text_4">
      <!-- 0.15 -->
      <g transform="translate(250.728402 321.518437)scale(0.1 -0.1)">
       <use xlink:href="#DejaVuSans-30"/>
       <use x="63.623047" xlink:href="#DejaVuSans-2e"/>
       <use x="95.410156" xlink:href="#DejaVuSans-31"/>
       <use x="159.033203" xlink:href="#DejaVuSans-35"/>
      </g>
     </g>
    </g>
    <g id="xtick_5">
     <g id="line2d_5">
      <g>
       <use style="stroke:#000000;stroke-width:0.8;" x="317.055689" xlink:href="#m8e30f1029a" y="306.92"/>
      </g>
     </g>
     <g id="text_5">
      <!-- 0.20 -->
      <g transform="translate(305.922876 321.518437)scale(0.1 -0.1)">
       <defs>
        <path d="M 1228 531 
L 3431 531 
L 3431 0 
L 469 0 
L 469 531 
Q 828 903 1448 1529 
Q 2069 2156 2228 2338 
Q 2531 2678 2651 2914 
Q 2772 3150 2772 3378 
Q 2772 3750 2511 3984 
Q 2250 4219 1831 4219 
Q 1534 4219 1204 4116 
Q 875 4013 500 3803 
L 500 4441 
Q 881 4594 1212 4672 
Q 1544 4750 1819 4750 
Q 2544 4750 2975 4387 
Q 3406 4025 3406 3419 
Q 3406 3131 3298 2873 
Q 3191 2616 2906 2266 
Q 2828 2175 2409 1742 
Q 1991 1309 1228 531 
z
" id="DejaVuSans-32" transform="scale(0.015625)"/>
       </defs>
       <use xlink:href="#DejaVuSans-30"/>
       <use x="63.623047" xlink:href="#DejaVuSans-2e"/>
       <use x="95.410156" xlink:href="#DejaVuSans-32"/>
       <use x="159.033203" xlink:href="#DejaVuSans-30"/>
      </g>
     </g>
    </g>
    <g id="xtick_6">
     <g id="line2d_6">
      <g>
       <use style="stroke:#000000;stroke-width:0.8;" x="372.250163" xlink:href="#m8e30f1029a" y="306.92"/>
      </g>
     </g>
     <g id="text_6">
      <!-- 0.25 -->
      <g transform="translate(361.11735 321.518437)scale(0.1 -0.1)">
       <use xlink:href="#DejaVuSans-30"/>
       <use x="63.623047" xlink:href="#DejaVuSans-2e"/>
       <use x="95.410156" xlink:href="#DejaVuSans-32"/>
       <use x="159.033203" xlink:href="#DejaVuSans-35"/>
      </g>
     </g>
    </g>
    <g id="xtick_7">
     <g id="line2d_7">
      <g>
       <use style="stroke:#000000;stroke-width:0.8;" x="427.444637" xlink:href="#m8e30f1029a" y="306.92"/>
      </g>
     </g>
     <g id="text_7">
      <!-- 0.30 -->
      <g transform="translate(416.311824 321.518437)scale(0.1 -0.1)">
       <defs>
        <path d="M 2597 2516 
Q 3050 2419 3304 2112 
Q 3559 1806 3559 1356 
Q 3559 666 3084 287 
Q 2609 -91 1734 -91 
Q 1441 -91 1130 -33 
Q 819 25 488 141 
L 488 750 
Q 750 597 1062 519 
Q 1375 441 1716 441 
Q 2309 441 2620 675 
Q 2931 909 2931 1356 
Q 2931 1769 2642 2001 
Q 2353 2234 1838 2234 
L 1294 2234 
L 1294 2753 
L 1863 2753 
Q 2328 2753 2575 2939 
Q 2822 3125 2822 3475 
Q 2822 3834 2567 4026 
Q 2313 4219 1838 4219 
Q 1578 4219 1281 4162 
Q 984 4106 628 3988 
L 628 4550 
Q 988 4650 1302 4700 
Q 1616 4750 1894 4750 
Q 2613 4750 3031 4423 
Q 3450 4097 3450 3541 
Q 3450 3153 3228 2886 
Q 3006 2619 2597 2516 
z
" id="DejaVuSans-33" transform="scale(0.015625)"/>
       </defs>
       <use xlink:href="#DejaVuSans-30"/>
       <use x="63.623047" xlink:href="#DejaVuSans-2e"/>
       <use x="95.410156" xlink:href="#DejaVuSans-33"/>
       <use x="159.033203" xlink:href="#DejaVuSans-30"/>
      </g>
     </g>
    </g>
   </g>
   <g id="matplotlib.axis_2">
    <g id="ytick_1">
     <g id="line2d_8">
      <defs>
       <path d="M 0 0 
L -3.5 0 
" id="m58fafc7fc3" style="stroke:#000000;stroke-width:0.8;"/>
      </defs>
      <g>
       <use style="stroke:#000000;stroke-width:0.8;" x="58.853125" xlink:href="#m58fafc7fc3" y="306.92"/>
      </g>
     </g>
     <g id="text_8">
      <!-- 0 -->
      <g transform="translate(45.490625 310.719219)scale(0.1 -0.1)">
       <use xlink:href="#DejaVuSans-30"/>
      </g>
     </g>
    </g>
    <g id="ytick_2">
     <g id="line2d_9">
      <g>
       <use style="stroke:#000000;stroke-width:0.8;" x="58.853125" xlink:href="#m58fafc7fc3" y="261.608106"/>
      </g>
     </g>
     <g id="text_9">
      <!-- 20000 -->
      <g transform="translate(20.040625 265.407325)scale(0.1 -0.1)">
       <use xlink:href="#DejaVuSans-32"/>
       <use x="63.623047" xlink:href="#DejaVuSans-30"/>
       <use x="127.246094" xlink:href="#DejaVuSans-30"/>
       <use x="190.869141" xlink:href="#DejaVuSans-30"/>
       <use x="254.492188" xlink:href="#DejaVuSans-30"/>
      </g>
     </g>
    </g>
    <g id="ytick_3">
     <g id="line2d_10">
      <g>
       <use style="stroke:#000000;stroke-width:0.8;" x="58.853125" xlink:href="#m58fafc7fc3" y="216.296212"/>
      </g>
     </g>
     <g id="text_10">
      <!-- 40000 -->
      <g transform="translate(20.040625 220.095431)scale(0.1 -0.1)">
       <defs>
        <path d="M 2419 4116 
L 825 1625 
L 2419 1625 
L 2419 4116 
z
M 2253 4666 
L 3047 4666 
L 3047 1625 
L 3713 1625 
L 3713 1100 
L 3047 1100 
L 3047 0 
L 2419 0 
L 2419 1100 
L 313 1100 
L 313 1709 
L 2253 4666 
z
" id="DejaVuSans-34" transform="scale(0.015625)"/>
       </defs>
       <use xlink:href="#DejaVuSans-34"/>
       <use x="63.623047" xlink:href="#DejaVuSans-30"/>
       <use x="127.246094" xlink:href="#DejaVuSans-30"/>
       <use x="190.869141" xlink:href="#DejaVuSans-30"/>
       <use x="254.492188" xlink:href="#DejaVuSans-30"/>
      </g>
     </g>
    </g>
    <g id="ytick_4">
     <g id="line2d_11">
      <g>
       <use style="stroke:#000000;stroke-width:0.8;" x="58.853125" xlink:href="#m58fafc7fc3" y="170.984318"/>
      </g>
     </g>
     <g id="text_11">
      <!-- 60000 -->
      <g transform="translate(20.040625 174.783537)scale(0.1 -0.1)">
       <defs>
        <path d="M 2113 2584 
Q 1688 2584 1439 2293 
Q 1191 2003 1191 1497 
Q 1191 994 1439 701 
Q 1688 409 2113 409 
Q 2538 409 2786 701 
Q 3034 994 3034 1497 
Q 3034 2003 2786 2293 
Q 2538 2584 2113 2584 
z
M 3366 4563 
L 3366 3988 
Q 3128 4100 2886 4159 
Q 2644 4219 2406 4219 
Q 1781 4219 1451 3797 
Q 1122 3375 1075 2522 
Q 1259 2794 1537 2939 
Q 1816 3084 2150 3084 
Q 2853 3084 3261 2657 
Q 3669 2231 3669 1497 
Q 3669 778 3244 343 
Q 2819 -91 2113 -91 
Q 1303 -91 875 529 
Q 447 1150 447 2328 
Q 447 3434 972 4092 
Q 1497 4750 2381 4750 
Q 2619 4750 2861 4703 
Q 3103 4656 3366 4563 
z
" id="DejaVuSans-36" transform="scale(0.015625)"/>
       </defs>
       <use xlink:href="#DejaVuSans-36"/>
       <use x="63.623047" xlink:href="#DejaVuSans-30"/>
       <use x="127.246094" xlink:href="#DejaVuSans-30"/>
       <use x="190.869141" xlink:href="#DejaVuSans-30"/>
       <use x="254.492188" xlink:href="#DejaVuSans-30"/>
      </g>
     </g>
    </g>
    <g id="ytick_5">
     <g id="line2d_12">
      <g>
       <use style="stroke:#000000;stroke-width:0.8;" x="58.853125" xlink:href="#m58fafc7fc3" y="125.672424"/>
      </g>
     </g>
     <g id="text_12">
      <!-- 80000 -->
      <g transform="translate(20.040625 129.471643)scale(0.1 -0.1)">
       <defs>
        <path d="M 2034 2216 
Q 1584 2216 1326 1975 
Q 1069 1734 1069 1313 
Q 1069 891 1326 650 
Q 1584 409 2034 409 
Q 2484 409 2743 651 
Q 3003 894 3003 1313 
Q 3003 1734 2745 1975 
Q 2488 2216 2034 2216 
z
M 1403 2484 
Q 997 2584 770 2862 
Q 544 3141 544 3541 
Q 544 4100 942 4425 
Q 1341 4750 2034 4750 
Q 2731 4750 3128 4425 
Q 3525 4100 3525 3541 
Q 3525 3141 3298 2862 
Q 3072 2584 2669 2484 
Q 3125 2378 3379 2068 
Q 3634 1759 3634 1313 
Q 3634 634 3220 271 
Q 2806 -91 2034 -91 
Q 1263 -91 848 271 
Q 434 634 434 1313 
Q 434 1759 690 2068 
Q 947 2378 1403 2484 
z
M 1172 3481 
Q 1172 3119 1398 2916 
Q 1625 2713 2034 2713 
Q 2441 2713 2670 2916 
Q 2900 3119 2900 3481 
Q 2900 3844 2670 4047 
Q 2441 4250 2034 4250 
Q 1625 4250 1398 4047 
Q 1172 3844 1172 3481 
z
" id="DejaVuSans-38" transform="scale(0.015625)"/>
       </defs>
       <use xlink:href="#DejaVuSans-38"/>
       <use x="63.623047" xlink:href="#DejaVuSans-30"/>
       <use x="127.246094" xlink:href="#DejaVuSans-30"/>
       <use x="190.869141" xlink:href="#DejaVuSans-30"/>
       <use x="254.492188" xlink:href="#DejaVuSans-30"/>
      </g>
     </g>
    </g>
    <g id="ytick_6">
     <g id="line2d_13">
      <g>
       <use style="stroke:#000000;stroke-width:0.8;" x="58.853125" xlink:href="#m58fafc7fc3" y="80.360531"/>
      </g>
     </g>
     <g id="text_13">
      <!-- 100000 -->
      <g transform="translate(13.678125 84.159749)scale(0.1 -0.1)">
       <use xlink:href="#DejaVuSans-31"/>
       <use x="63.623047" xlink:href="#DejaVuSans-30"/>
       <use x="127.246094" xlink:href="#DejaVuSans-30"/>
       <use x="190.869141" xlink:href="#DejaVuSans-30"/>
       <use x="254.492188" xlink:href="#DejaVuSans-30"/>
       <use x="318.115234" xlink:href="#DejaVuSans-30"/>
      </g>
     </g>
    </g>
    <g id="ytick_7">
     <g id="line2d_14">
      <g>
       <use style="stroke:#000000;stroke-width:0.8;" x="58.853125" xlink:href="#m58fafc7fc3" y="35.048637"/>
      </g>
     </g>
     <g id="text_14">
      <!-- 120000 -->
      <g transform="translate(13.678125 38.847855)scale(0.1 -0.1)">
       <use xlink:href="#DejaVuSans-31"/>
       <use x="63.623047" xlink:href="#DejaVuSans-32"/>
       <use x="127.246094" xlink:href="#DejaVuSans-30"/>
       <use x="190.869141" xlink:href="#DejaVuSans-30"/>
       <use x="254.492188" xlink:href="#DejaVuSans-30"/>
       <use x="318.115234" xlink:href="#DejaVuSans-30"/>
      </g>
     </g>
    </g>
    <g id="text_15">
     <!-- n SNPs -->
     <g transform="translate(7.598437 170.664687)rotate(-90)scale(0.1 -0.1)">
      <defs>
       <path d="M 3513 2113 
L 3513 0 
L 2938 0 
L 2938 2094 
Q 2938 2591 2744 2837 
Q 2550 3084 2163 3084 
Q 1697 3084 1428 2787 
Q 1159 2491 1159 1978 
L 1159 0 
L 581 0 
L 581 3500 
L 1159 3500 
L 1159 2956 
Q 1366 3272 1645 3428 
Q 1925 3584 2291 3584 
Q 2894 3584 3203 3211 
Q 3513 2838 3513 2113 
z
" id="DejaVuSans-6e" transform="scale(0.015625)"/>
       <path id="DejaVuSans-20" transform="scale(0.015625)"/>
       <path d="M 3425 4513 
L 3425 3897 
Q 3066 4069 2747 4153 
Q 2428 4238 2131 4238 
Q 1616 4238 1336 4038 
Q 1056 3838 1056 3469 
Q 1056 3159 1242 3001 
Q 1428 2844 1947 2747 
L 2328 2669 
Q 3034 2534 3370 2195 
Q 3706 1856 3706 1288 
Q 3706 609 3251 259 
Q 2797 -91 1919 -91 
Q 1588 -91 1214 -16 
Q 841 59 441 206 
L 441 856 
Q 825 641 1194 531 
Q 1563 422 1919 422 
Q 2459 422 2753 634 
Q 3047 847 3047 1241 
Q 3047 1584 2836 1778 
Q 2625 1972 2144 2069 
L 1759 2144 
Q 1053 2284 737 2584 
Q 422 2884 422 3419 
Q 422 4038 858 4394 
Q 1294 4750 2059 4750 
Q 2388 4750 2728 4690 
Q 3069 4631 3425 4513 
z
" id="DejaVuSans-53" transform="scale(0.015625)"/>
       <path d="M 628 4666 
L 1478 4666 
L 3547 763 
L 3547 4666 
L 4159 4666 
L 4159 0 
L 3309 0 
L 1241 3903 
L 1241 0 
L 628 0 
L 628 4666 
z
" id="DejaVuSans-4e" transform="scale(0.015625)"/>
       <path d="M 1259 4147 
L 1259 2394 
L 2053 2394 
Q 2494 2394 2734 2622 
Q 2975 2850 2975 3272 
Q 2975 3691 2734 3919 
Q 2494 4147 2053 4147 
L 1259 4147 
z
M 628 4666 
L 2053 4666 
Q 2838 4666 3239 4311 
Q 3641 3956 3641 3272 
Q 3641 2581 3239 2228 
Q 2838 1875 2053 1875 
L 1259 1875 
L 1259 0 
L 628 0 
L 628 4666 
z
" id="DejaVuSans-50" transform="scale(0.015625)"/>
       <path d="M 2834 3397 
L 2834 2853 
Q 2591 2978 2328 3040 
Q 2066 3103 1784 3103 
Q 1356 3103 1142 2972 
Q 928 2841 928 2578 
Q 928 2378 1081 2264 
Q 1234 2150 1697 2047 
L 1894 2003 
Q 2506 1872 2764 1633 
Q 3022 1394 3022 966 
Q 3022 478 2636 193 
Q 2250 -91 1575 -91 
Q 1294 -91 989 -36 
Q 684 19 347 128 
L 347 722 
Q 666 556 975 473 
Q 1284 391 1588 391 
Q 1994 391 2212 530 
Q 2431 669 2431 922 
Q 2431 1156 2273 1281 
Q 2116 1406 1581 1522 
L 1381 1569 
Q 847 1681 609 1914 
Q 372 2147 372 2553 
Q 372 3047 722 3315 
Q 1072 3584 1716 3584 
Q 2034 3584 2315 3537 
Q 2597 3491 2834 3397 
z
" id="DejaVuSans-73" transform="scale(0.015625)"/>
      </defs>
      <use xlink:href="#DejaVuSans-6e"/>
      <use x="63.378906" xlink:href="#DejaVuSans-20"/>
      <use x="95.166016" xlink:href="#DejaVuSans-53"/>
      <use x="158.642578" xlink:href="#DejaVuSans-4e"/>
      <use x="233.447266" xlink:href="#DejaVuSans-50"/>
      <use x="292" xlink:href="#DejaVuSans-73"/>
     </g>
    </g>
   </g>
   <g id="line2d_15">
    <path clip-path="url(#p02201e2bbd)" d="M 99.001398 306.92 
L 99.001398 0 
" style="fill:none;stroke:#6baed6;stroke-dasharray:3.7,1.6;stroke-dashoffset:0;"/>
   </g>
   <g id="patch_53">
    <path d="M 58.853125 306.92 
L 58.853125 0 
" style="fill:none;stroke:#000000;stroke-linecap:square;stroke-linejoin:miter;stroke-width:0.8;"/>
   </g>
   <g id="patch_54">
    <path d="M 428.29855 306.92 
L 428.29855 0 
" style="fill:none;stroke:#000000;stroke-linecap:square;stroke-linejoin:miter;stroke-width:0.8;"/>
   </g>
   <g id="patch_55">
    <path d="M 58.853125 306.92 
L 428.29855 306.92 
" style="fill:none;stroke:#000000;stroke-linecap:square;stroke-linejoin:miter;stroke-width:0.8;"/>
   </g>
   <g id="patch_56">
    <path d="M 58.853125 0 
L 428.29855 0 
" style="fill:none;stroke:#000000;stroke-linecap:square;stroke-linejoin:miter;stroke-width:0.8;"/>
   </g>
   <g id="legend_1">
    <g id="patch_57">
     <path d="M 336.09855 22.678125 
L 421.29855 22.678125 
Q 423.29855 22.678125 423.29855 20.678125 
L 423.29855 7 
Q 423.29855 5 421.29855 5 
L 336.09855 5 
Q 334.09855 5 334.09855 7 
L 334.09855 20.678125 
Q 334.09855 22.678125 336.09855 22.678125 
z
" style="fill:#ffffff;opacity:0.8;stroke:#cccccc;stroke-linejoin:miter;"/>
    </g>
    <g id="line2d_16">
     <path d="M 338.09855 13.098438 
L 358.09855 13.098438 
" style="fill:none;stroke:#6baed6;stroke-dasharray:3.7,1.6;stroke-dashoffset:0;"/>
    </g>
    <g id="line2d_17"/>
    <g id="text_16">
     <!-- $\bar{x}=0.0025$ -->
     <g transform="translate(366.09855 16.598438)scale(0.1 -0.1)">
      <defs>
       <path d="M -2522 4769 
L -653 4769 
L -653 4306 
L -2522 4306 
L -2522 4769 
z
" id="DejaVuSans-304" transform="scale(0.015625)"/>
       <path d="M 3841 3500 
L 2234 1784 
L 3219 0 
L 2559 0 
L 1819 1388 
L 531 0 
L -166 0 
L 1556 1844 
L 641 3500 
L 1300 3500 
L 1972 2234 
L 3144 3500 
L 3841 3500 
z
" id="DejaVuSans-Oblique-78" transform="scale(0.015625)"/>
       <path d="M 678 2906 
L 4684 2906 
L 4684 2381 
L 678 2381 
L 678 2906 
z
M 678 1631 
L 4684 1631 
L 4684 1100 
L 678 1100 
L 678 1631 
z
" id="DejaVuSans-3d" transform="scale(0.015625)"/>
      </defs>
      <use transform="translate(62.201172 0.484375)" xlink:href="#DejaVuSans-304"/>
      <use transform="translate(0 0.578125)" xlink:href="#DejaVuSans-Oblique-78"/>
      <use transform="translate(78.662109 0.578125)" xlink:href="#DejaVuSans-3d"/>
      <use transform="translate(181.933594 0.578125)" xlink:href="#DejaVuSans-30"/>
      <use transform="translate(245.556641 0.578125)" xlink:href="#DejaVuSans-2e"/>
      <use transform="translate(277.34375 0.578125)" xlink:href="#DejaVuSans-30"/>
      <use transform="translate(340.966797 0.578125)" xlink:href="#DejaVuSans-30"/>
      <use transform="translate(404.589844 0.578125)" xlink:href="#DejaVuSans-32"/>
      <use transform="translate(468.212891 0.578125)" xlink:href="#DejaVuSans-35"/>
     </g>
    </g>
   </g>
  </g>
 </g>
 <defs>
  <clipPath id="p02201e2bbd">
   <rect height="306.92" width="369.445425" x="58.853125" y="0"/>
  </clipPath>
 </defs>
</svg>
