<?xml version="1.0" encoding="utf-8" standalone="no"?>
<!DOCTYPE svg PUBLIC "-//W3C//DTD SVG 1.1//EN"
  "http://www.w3.org/Graphics/SVG/1.1/DTD/svg11.dtd">
<svg height="296.46825pt" version="1.1" viewBox="0 0 301.532312 296.46825" width="301.532312pt" xmlns="http://www.w3.org/2000/svg" xmlns:xlink="http://www.w3.org/1999/xlink">
 <metadata>
  <rdf:RDF xmlns:cc="http://creativecommons.org/ns#" xmlns:dc="http://purl.org/dc/elements/1.1/" xmlns:rdf="http://www.w3.org/1999/02/22-rdf-syntax-ns#">
   <cc:Work>
    <dc:type rdf:resource="http://purl.org/dc/dcmitype/StillImage"/>
    <dc:date>2022-01-26T11:35:04.241308</dc:date>
    <dc:format>image/svg+xml</dc:format>
    <dc:creator>
     <cc:Agent>
      <dc:title>Matplotlib v3.4.3, https://matplotlib.org/</dc:title>
     </cc:Agent>
    </dc:creator>
   </cc:Work>
  </rdf:RDF>
 </metadata>
 <defs>
  <style type="text/css">*{stroke-linecap:butt;stroke-linejoin:round;}</style>
 </defs>
 <g id="figure_1">
  <g id="patch_1">
   <path d="M 0 296.46825 
L 301.532312 296.46825 
L 301.532312 0 
L 0 0 
z
" style="fill:#ffffff;"/>
  </g>
  <g id="axes_1">
   <g id="patch_2">
    <path d="M 35.420313 266.112 
L 301.532312 266.112 
L 301.532312 -0 
L 35.420313 -0 
z
" style="fill:#ffffff;"/>
   </g>
   <g id="PathCollection_1">
    <defs>
     <path d="M 0 2.236068 
C 0.593012 2.236068 1.161816 2.000462 1.581139 1.581139 
C 2.000462 1.161816 2.236068 0.593012 2.236068 -0 
C 2.236068 -0.593012 2.000462 -1.161816 1.581139 -1.581139 
C 1.161816 -2.000462 0.593012 -2.236068 0 -2.236068 
C -0.593012 -2.236068 -1.161816 -2.000462 -1.581139 -1.581139 
C -2.000462 -1.161816 -2.236068 -0.593012 -2.236068 0 
C -2.236068 0.593012 -2.000462 1.161816 -1.581139 1.581139 
C -1.161816 2.000462 -0.593012 2.236068 0 2.236068 
z
" id="C0_0_16959762b0"/>
    </defs>
    <g clip-path="url(#p71c47f8e5e)">
     <use style="fill:#440154;stroke:#440154;" x="161.584869" xlink:href="#C0_0_16959762b0" y="168.826743"/>
    </g>
    <g clip-path="url(#p71c47f8e5e)">
     <use style="fill:#fde725;stroke:#fde725;" x="176.837804" xlink:href="#C0_0_16959762b0" y="174.419643"/>
    </g>
    <g clip-path="url(#p71c47f8e5e)">
     <use style="fill:#440154;stroke:#440154;" x="146.149173" xlink:href="#C0_0_16959762b0" y="180.197057"/>
    </g>
    <g clip-path="url(#p71c47f8e5e)">
     <use style="fill:#440154;stroke:#440154;" x="76.649315" xlink:href="#C0_0_16959762b0" y="176.775064"/>
    </g>
    <g clip-path="url(#p71c47f8e5e)">
     <use style="fill:#fde725;stroke:#fde725;" x="198.306369" xlink:href="#C0_0_16959762b0" y="143.982506"/>
    </g>
    <g clip-path="url(#p71c47f8e5e)">
     <use style="fill:#fde725;stroke:#fde725;" x="113.111226" xlink:href="#C0_0_16959762b0" y="174.441695"/>
    </g>
    <g clip-path="url(#p71c47f8e5e)">
     <use style="fill:#fde725;stroke:#fde725;" x="110.87627" xlink:href="#C0_0_16959762b0" y="122.658033"/>
    </g>
    <g clip-path="url(#p71c47f8e5e)">
     <use style="fill:#fde725;stroke:#fde725;" x="176.783135" xlink:href="#C0_0_16959762b0" y="175.820871"/>
    </g>
    <g clip-path="url(#p71c47f8e5e)">
     <use style="fill:#440154;stroke:#440154;" x="223.799249" xlink:href="#C0_0_16959762b0" y="200.070233"/>
    </g>
    <g clip-path="url(#p71c47f8e5e)">
     <use style="fill:#fde725;stroke:#fde725;" x="191.715504" xlink:href="#C0_0_16959762b0" y="166.727691"/>
    </g>
    <g clip-path="url(#p71c47f8e5e)">
     <use style="fill:#fde725;stroke:#fde725;" x="124.080626" xlink:href="#C0_0_16959762b0" y="239.469394"/>
    </g>
    <g clip-path="url(#p71c47f8e5e)">
     <use style="fill:#fde725;stroke:#fde725;" x="179.434002" xlink:href="#C0_0_16959762b0" y="187.59398"/>
    </g>
    <g clip-path="url(#p71c47f8e5e)">
     <use style="fill:#fde725;stroke:#fde725;" x="166.886572" xlink:href="#C0_0_16959762b0" y="207.449134"/>
    </g>
    <g clip-path="url(#p71c47f8e5e)">
     <use style="fill:#fde725;stroke:#fde725;" x="112.42418" xlink:href="#C0_0_16959762b0" y="205.195747"/>
    </g>
    <g clip-path="url(#p71c47f8e5e)">
     <use style="fill:#440154;stroke:#440154;" x="114.015268" xlink:href="#C0_0_16959762b0" y="190.469428"/>
    </g>
    <g clip-path="url(#p71c47f8e5e)">
     <use style="fill:#440154;stroke:#440154;" x="188.749896" xlink:href="#C0_0_16959762b0" y="182.16599"/>
    </g>
    <g clip-path="url(#p71c47f8e5e)">
     <use style="fill:#fde725;stroke:#fde725;" x="161.006036" xlink:href="#C0_0_16959762b0" y="150.728607"/>
    </g>
    <g clip-path="url(#p71c47f8e5e)">
     <use style="fill:#440154;stroke:#440154;" x="206.794367" xlink:href="#C0_0_16959762b0" y="223.230248"/>
    </g>
    <g clip-path="url(#p71c47f8e5e)">
     <use style="fill:#440154;stroke:#440154;" x="122.095342" xlink:href="#C0_0_16959762b0" y="123.128389"/>
    </g>
    <g clip-path="url(#p71c47f8e5e)">
     <use style="fill:#440154;stroke:#440154;" x="72.894766" xlink:href="#C0_0_16959762b0" y="191.524294"/>
    </g>
    <g clip-path="url(#p71c47f8e5e)">
     <use style="fill:#440154;stroke:#440154;" x="200.513706" xlink:href="#C0_0_16959762b0" y="176.615536"/>
    </g>
    <g clip-path="url(#p71c47f8e5e)">
     <use style="fill:#440154;stroke:#440154;" x="140.351684" xlink:href="#C0_0_16959762b0" y="228.959888"/>
    </g>
    <g clip-path="url(#p71c47f8e5e)">
     <use style="fill:#440154;stroke:#440154;" x="236.846342" xlink:href="#C0_0_16959762b0" y="161.168342"/>
    </g>
    <g clip-path="url(#p71c47f8e5e)">
     <use style="fill:#fde725;stroke:#fde725;" x="240.010896" xlink:href="#C0_0_16959762b0" y="145.944976"/>
    </g>
    <g clip-path="url(#p71c47f8e5e)">
     <use style="fill:#440154;stroke:#440154;" x="198.156972" xlink:href="#C0_0_16959762b0" y="75.905242"/>
    </g>
    <g clip-path="url(#p71c47f8e5e)">
     <use style="fill:#440154;stroke:#440154;" x="182.703867" xlink:href="#C0_0_16959762b0" y="80.070068"/>
    </g>
    <g clip-path="url(#p71c47f8e5e)">
     <use style="fill:#fde725;stroke:#fde725;" x="178.449146" xlink:href="#C0_0_16959762b0" y="36.106057"/>
    </g>
    <g clip-path="url(#p71c47f8e5e)">
     <use style="fill:#440154;stroke:#440154;" x="128.971956" xlink:href="#C0_0_16959762b0" y="44.620174"/>
    </g>
    <g clip-path="url(#p71c47f8e5e)">
     <use style="fill:#fde725;stroke:#fde725;" x="174.19116" xlink:href="#C0_0_16959762b0" y="119.93131"/>
    </g>
    <g clip-path="url(#p71c47f8e5e)">
     <use style="fill:#fde725;stroke:#fde725;" x="144.36948" xlink:href="#C0_0_16959762b0" y="115.366393"/>
    </g>
    <g clip-path="url(#p71c47f8e5e)">
     <use style="fill:#fde725;stroke:#fde725;" x="101.849525" xlink:href="#C0_0_16959762b0" y="182.627236"/>
    </g>
    <g clip-path="url(#p71c47f8e5e)">
     <use style="fill:#440154;stroke:#440154;" x="237.496162" xlink:href="#C0_0_16959762b0" y="107.177626"/>
    </g>
    <g clip-path="url(#p71c47f8e5e)">
     <use style="fill:#fde725;stroke:#fde725;" x="107.328613" xlink:href="#C0_0_16959762b0" y="94.724445"/>
    </g>
    <g clip-path="url(#p71c47f8e5e)">
     <use style="fill:#fde725;stroke:#fde725;" x="123.191323" xlink:href="#C0_0_16959762b0" y="55.80102"/>
    </g>
    <g clip-path="url(#p71c47f8e5e)">
     <use style="fill:#fde725;stroke:#fde725;" x="102.040772" xlink:href="#C0_0_16959762b0" y="88.592935"/>
    </g>
    <g clip-path="url(#p71c47f8e5e)">
     <use style="fill:#fde725;stroke:#fde725;" x="220.647261" xlink:href="#C0_0_16959762b0" y="119.532277"/>
    </g>
    <g clip-path="url(#p71c47f8e5e)">
     <use style="fill:#fde725;stroke:#fde725;" x="82.022059" xlink:href="#C0_0_16959762b0" y="127.996639"/>
    </g>
    <g clip-path="url(#p71c47f8e5e)">
     <use style="fill:#440154;stroke:#440154;" x="150.639246" xlink:href="#C0_0_16959762b0" y="149.19673"/>
    </g>
    <g clip-path="url(#p71c47f8e5e)">
     <use style="fill:#fde725;stroke:#fde725;" x="85.558316" xlink:href="#C0_0_16959762b0" y="124.689351"/>
    </g>
    <g clip-path="url(#p71c47f8e5e)">
     <use style="fill:#fde725;stroke:#fde725;" x="180.670574" xlink:href="#C0_0_16959762b0" y="79.632085"/>
    </g>
    <g clip-path="url(#p71c47f8e5e)">
     <use style="fill:#fde725;stroke:#fde725;" x="115.411609" xlink:href="#C0_0_16959762b0" y="88.807773"/>
    </g>
    <g clip-path="url(#p71c47f8e5e)">
     <use style="fill:#fde725;stroke:#fde725;" x="98.76221" xlink:href="#C0_0_16959762b0" y="106.981157"/>
    </g>
    <g clip-path="url(#p71c47f8e5e)">
     <use style="fill:#440154;stroke:#440154;" x="146.492995" xlink:href="#C0_0_16959762b0" y="87.620462"/>
    </g>
    <g clip-path="url(#p71c47f8e5e)">
     <use style="fill:#440154;stroke:#440154;" x="55.908419" xlink:href="#C0_0_16959762b0" y="159.804387"/>
    </g>
    <g clip-path="url(#p71c47f8e5e)">
     <use style="fill:#440154;stroke:#440154;" x="46.635131" xlink:href="#C0_0_16959762b0" y="165.330697"/>
    </g>
    <g clip-path="url(#p71c47f8e5e)">
     <use style="fill:#440154;stroke:#440154;" x="55.473835" xlink:href="#C0_0_16959762b0" y="160.537025"/>
    </g>
    <g clip-path="url(#p71c47f8e5e)">
     <use style="fill:#440154;stroke:#440154;" x="121.629013" xlink:href="#C0_0_16959762b0" y="206.450665"/>
    </g>
    <g clip-path="url(#p71c47f8e5e)">
     <use style="fill:#fde725;stroke:#fde725;" x="172.597237" xlink:href="#C0_0_16959762b0" y="214.200057"/>
    </g>
    <g clip-path="url(#p71c47f8e5e)">
     <use style="fill:#440154;stroke:#440154;" x="86.064257" xlink:href="#C0_0_16959762b0" y="173.646764"/>
    </g>
    <g clip-path="url(#p71c47f8e5e)">
     <use style="fill:#fde725;stroke:#fde725;" x="118.189247" xlink:href="#C0_0_16959762b0" y="160.303346"/>
    </g>
    <g clip-path="url(#p71c47f8e5e)">
     <use style="fill:#440154;stroke:#440154;" x="220.702117" xlink:href="#C0_0_16959762b0" y="178.635848"/>
    </g>
    <g clip-path="url(#p71c47f8e5e)">
     <use style="fill:#440154;stroke:#440154;" x="164.275538" xlink:href="#C0_0_16959762b0" y="110.200452"/>
    </g>
    <g clip-path="url(#p71c47f8e5e)">
     <use style="fill:#440154;stroke:#440154;" x="239.700815" xlink:href="#C0_0_16959762b0" y="223.472306"/>
    </g>
    <g clip-path="url(#p71c47f8e5e)">
     <use style="fill:#fde725;stroke:#fde725;" x="166.595852" xlink:href="#C0_0_16959762b0" y="194.583345"/>
    </g>
    <g clip-path="url(#p71c47f8e5e)">
     <use style="fill:#fde725;stroke:#fde725;" x="132.228871" xlink:href="#C0_0_16959762b0" y="190.572346"/>
    </g>
    <g clip-path="url(#p71c47f8e5e)">
     <use style="fill:#fde725;stroke:#fde725;" x="146.381317" xlink:href="#C0_0_16959762b0" y="187.592889"/>
    </g>
    <g clip-path="url(#p71c47f8e5e)">
     <use style="fill:#440154;stroke:#440154;" x="234.146139" xlink:href="#C0_0_16959762b0" y="180.519857"/>
    </g>
    <g clip-path="url(#p71c47f8e5e)">
     <use style="fill:#fde725;stroke:#fde725;" x="251.079828" xlink:href="#C0_0_16959762b0" y="170.083039"/>
    </g>
    <g clip-path="url(#p71c47f8e5e)">
     <use style="fill:#fde725;stroke:#fde725;" x="126.089042" xlink:href="#C0_0_16959762b0" y="144.243491"/>
    </g>
    <g clip-path="url(#p71c47f8e5e)">
     <use style="fill:#440154;stroke:#440154;" x="150.956326" xlink:href="#C0_0_16959762b0" y="188.241575"/>
    </g>
    <g clip-path="url(#p71c47f8e5e)">
     <use style="fill:#440154;stroke:#440154;" x="68.879864" xlink:href="#C0_0_16959762b0" y="219.650143"/>
    </g>
    <g clip-path="url(#p71c47f8e5e)">
     <use style="fill:#fde725;stroke:#fde725;" x="155.274039" xlink:href="#C0_0_16959762b0" y="168.624827"/>
    </g>
    <g clip-path="url(#p71c47f8e5e)">
     <use style="fill:#440154;stroke:#440154;" x="193.029006" xlink:href="#C0_0_16959762b0" y="170.827273"/>
    </g>
    <g clip-path="url(#p71c47f8e5e)">
     <use style="fill:#fde725;stroke:#fde725;" x="263.32739" xlink:href="#C0_0_16959762b0" y="164.997808"/>
    </g>
    <g clip-path="url(#p71c47f8e5e)">
     <use style="fill:#fde725;stroke:#fde725;" x="110.605787" xlink:href="#C0_0_16959762b0" y="101.883316"/>
    </g>
    <g clip-path="url(#p71c47f8e5e)">
     <use style="fill:#fde725;stroke:#fde725;" x="118.676886" xlink:href="#C0_0_16959762b0" y="150.81211"/>
    </g>
    <g clip-path="url(#p71c47f8e5e)">
     <use style="fill:#fde725;stroke:#fde725;" x="124.256959" xlink:href="#C0_0_16959762b0" y="146.913043"/>
    </g>
    <g clip-path="url(#p71c47f8e5e)">
     <use style="fill:#fde725;stroke:#fde725;" x="189.402834" xlink:href="#C0_0_16959762b0" y="66.211025"/>
    </g>
    <g clip-path="url(#p71c47f8e5e)">
     <use style="fill:#fde725;stroke:#fde725;" x="198.948783" xlink:href="#C0_0_16959762b0" y="166.236427"/>
    </g>
    <g clip-path="url(#p71c47f8e5e)">
     <use style="fill:#440154;stroke:#440154;" x="150.80858" xlink:href="#C0_0_16959762b0" y="151.43739"/>
    </g>
    <g clip-path="url(#p71c47f8e5e)">
     <use style="fill:#440154;stroke:#440154;" x="143.159706" xlink:href="#C0_0_16959762b0" y="130.359238"/>
    </g>
    <g clip-path="url(#p71c47f8e5e)">
     <use style="fill:#440154;stroke:#440154;" x="155.575463" xlink:href="#C0_0_16959762b0" y="105.887838"/>
    </g>
    <g clip-path="url(#p71c47f8e5e)">
     <use style="fill:#440154;stroke:#440154;" x="218.948943" xlink:href="#C0_0_16959762b0" y="159.939706"/>
    </g>
    <g clip-path="url(#p71c47f8e5e)">
     <use style="fill:#440154;stroke:#440154;" x="270.931508" xlink:href="#C0_0_16959762b0" y="209.197012"/>
    </g>
    <g clip-path="url(#p71c47f8e5e)">
     <use style="fill:#440154;stroke:#440154;" x="134.034105" xlink:href="#C0_0_16959762b0" y="47.697295"/>
    </g>
    <g clip-path="url(#p71c47f8e5e)">
     <use style="fill:#440154;stroke:#440154;" x="201.201038" xlink:href="#C0_0_16959762b0" y="96.928972"/>
    </g>
    <g clip-path="url(#p71c47f8e5e)">
     <use style="fill:#fde725;stroke:#fde725;" x="74.873267" xlink:href="#C0_0_16959762b0" y="148.109902"/>
    </g>
    <g clip-path="url(#p71c47f8e5e)">
     <use style="fill:#440154;stroke:#440154;" x="142.699076" xlink:href="#C0_0_16959762b0" y="101.895598"/>
    </g>
    <g clip-path="url(#p71c47f8e5e)">
     <use style="fill:#440154;stroke:#440154;" x="145.308436" xlink:href="#C0_0_16959762b0" y="76.298563"/>
    </g>
    <g clip-path="url(#p71c47f8e5e)">
     <use style="fill:#440154;stroke:#440154;" x="197.902072" xlink:href="#C0_0_16959762b0" y="72.231232"/>
    </g>
    <g clip-path="url(#p71c47f8e5e)">
     <use style="fill:#fde725;stroke:#fde725;" x="167.886005" xlink:href="#C0_0_16959762b0" y="12.096"/>
    </g>
    <g clip-path="url(#p71c47f8e5e)">
     <use style="fill:#fde725;stroke:#fde725;" x="247.288842" xlink:href="#C0_0_16959762b0" y="122.265906"/>
    </g>
    <g clip-path="url(#p71c47f8e5e)">
     <use style="fill:#fde725;stroke:#fde725;" x="121.500681" xlink:href="#C0_0_16959762b0" y="143.38593"/>
    </g>
    <g clip-path="url(#p71c47f8e5e)">
     <use style="fill:#fde725;stroke:#fde725;" x="187.198463" xlink:href="#C0_0_16959762b0" y="144.824291"/>
    </g>
    <g clip-path="url(#p71c47f8e5e)">
     <use style="fill:#440154;stroke:#440154;" x="106.035806" xlink:href="#C0_0_16959762b0" y="137.612101"/>
    </g>
    <g clip-path="url(#p71c47f8e5e)">
     <use style="fill:#440154;stroke:#440154;" x="131.538026" xlink:href="#C0_0_16959762b0" y="167.779061"/>
    </g>
    <g clip-path="url(#p71c47f8e5e)">
     <use style="fill:#fde725;stroke:#fde725;" x="158.038911" xlink:href="#C0_0_16959762b0" y="180.439416"/>
    </g>
    <g clip-path="url(#p71c47f8e5e)">
     <use style="fill:#fde725;stroke:#fde725;" x="151.458586" xlink:href="#C0_0_16959762b0" y="167.023703"/>
    </g>
    <g clip-path="url(#p71c47f8e5e)">
     <use style="fill:#fde725;stroke:#fde725;" x="239.546048" xlink:href="#C0_0_16959762b0" y="129.531377"/>
    </g>
    <g clip-path="url(#p71c47f8e5e)">
     <use style="fill:#fde725;stroke:#fde725;" x="237.817279" xlink:href="#C0_0_16959762b0" y="160.759659"/>
    </g>
    <g clip-path="url(#p71c47f8e5e)">
     <use style="fill:#fde725;stroke:#fde725;" x="154.567876" xlink:href="#C0_0_16959762b0" y="213.343833"/>
    </g>
    <g clip-path="url(#p71c47f8e5e)">
     <use style="fill:#440154;stroke:#440154;" x="57.094007" xlink:href="#C0_0_16959762b0" y="191.234005"/>
    </g>
    <g clip-path="url(#p71c47f8e5e)">
     <use style="fill:#fde725;stroke:#fde725;" x="97.606865" xlink:href="#C0_0_16959762b0" y="185.181915"/>
    </g>
    <g clip-path="url(#p71c47f8e5e)">
     <use style="fill:#440154;stroke:#440154;" x="258.707942" xlink:href="#C0_0_16959762b0" y="151.599207"/>
    </g>
    <g clip-path="url(#p71c47f8e5e)">
     <use style="fill:#fde725;stroke:#fde725;" x="152.331623" xlink:href="#C0_0_16959762b0" y="182.56921"/>
    </g>
    <g clip-path="url(#p71c47f8e5e)">
     <use style="fill:#440154;stroke:#440154;" x="107.136558" xlink:href="#C0_0_16959762b0" y="179.758"/>
    </g>
    <g clip-path="url(#p71c47f8e5e)">
     <use style="fill:#fde725;stroke:#fde725;" x="230.800363" xlink:href="#C0_0_16959762b0" y="214.866608"/>
    </g>
    <g clip-path="url(#p71c47f8e5e)">
     <use style="fill:#fde725;stroke:#fde725;" x="192.576115" xlink:href="#C0_0_16959762b0" y="179.864301"/>
    </g>
    <g clip-path="url(#p71c47f8e5e)">
     <use style="fill:#440154;stroke:#440154;" x="191.718901" xlink:href="#C0_0_16959762b0" y="191.252761"/>
    </g>
    <g clip-path="url(#p71c47f8e5e)">
     <use style="fill:#440154;stroke:#440154;" x="177.830461" xlink:href="#C0_0_16959762b0" y="150.974817"/>
    </g>
    <g clip-path="url(#p71c47f8e5e)">
     <use style="fill:#440154;stroke:#440154;" x="251.623565" xlink:href="#C0_0_16959762b0" y="189.160993"/>
    </g>
    <g clip-path="url(#p71c47f8e5e)">
     <use style="fill:#440154;stroke:#440154;" x="229.99143" xlink:href="#C0_0_16959762b0" y="230.210958"/>
    </g>
    <g clip-path="url(#p71c47f8e5e)">
     <use style="fill:#440154;stroke:#440154;" x="199.120249" xlink:href="#C0_0_16959762b0" y="163.327418"/>
    </g>
    <g clip-path="url(#p71c47f8e5e)">
     <use style="fill:#440154;stroke:#440154;" x="72.562411" xlink:href="#C0_0_16959762b0" y="144.803342"/>
    </g>
    <g clip-path="url(#p71c47f8e5e)">
     <use style="fill:#440154;stroke:#440154;" x="87.955746" xlink:href="#C0_0_16959762b0" y="197.116395"/>
    </g>
    <g clip-path="url(#p71c47f8e5e)">
     <use style="fill:#440154;stroke:#440154;" x="187.277642" xlink:href="#C0_0_16959762b0" y="170.275807"/>
    </g>
    <g clip-path="url(#p71c47f8e5e)">
     <use style="fill:#440154;stroke:#440154;" x="172.491059" xlink:href="#C0_0_16959762b0" y="137.669021"/>
    </g>
    <g clip-path="url(#p71c47f8e5e)">
     <use style="fill:#fde725;stroke:#fde725;" x="200.653945" xlink:href="#C0_0_16959762b0" y="114.713591"/>
    </g>
    <g clip-path="url(#p71c47f8e5e)">
     <use style="fill:#fde725;stroke:#fde725;" x="233.520374" xlink:href="#C0_0_16959762b0" y="172.025815"/>
    </g>
    <g clip-path="url(#p71c47f8e5e)">
     <use style="fill:#440154;stroke:#440154;" x="129.700292" xlink:href="#C0_0_16959762b0" y="19.405769"/>
    </g>
    <g clip-path="url(#p71c47f8e5e)">
     <use style="fill:#fde725;stroke:#fde725;" x="183.194611" xlink:href="#C0_0_16959762b0" y="24.335407"/>
    </g>
    <g clip-path="url(#p71c47f8e5e)">
     <use style="fill:#fde725;stroke:#fde725;" x="134.591081" xlink:href="#C0_0_16959762b0" y="29.408121"/>
    </g>
    <g clip-path="url(#p71c47f8e5e)">
     <use style="fill:#440154;stroke:#440154;" x="168.666182" xlink:href="#C0_0_16959762b0" y="48.352493"/>
    </g>
    <g clip-path="url(#p71c47f8e5e)">
     <use style="fill:#fde725;stroke:#fde725;" x="114.024697" xlink:href="#C0_0_16959762b0" y="93.080256"/>
    </g>
    <g clip-path="url(#p71c47f8e5e)">
     <use style="fill:#440154;stroke:#440154;" x="96.85938" xlink:href="#C0_0_16959762b0" y="107.188277"/>
    </g>
    <g clip-path="url(#p71c47f8e5e)">
     <use style="fill:#fde725;stroke:#fde725;" x="103.098737" xlink:href="#C0_0_16959762b0" y="98.324167"/>
    </g>
    <g clip-path="url(#p71c47f8e5e)">
     <use style="fill:#fde725;stroke:#fde725;" x="226.811785" xlink:href="#C0_0_16959762b0" y="75.261445"/>
    </g>
    <g clip-path="url(#p71c47f8e5e)">
     <use style="fill:#fde725;stroke:#fde725;" x="184.481592" xlink:href="#C0_0_16959762b0" y="44.733482"/>
    </g>
    <g clip-path="url(#p71c47f8e5e)">
     <use style="fill:#fde725;stroke:#fde725;" x="170.195117" xlink:href="#C0_0_16959762b0" y="105.921618"/>
    </g>
    <g clip-path="url(#p71c47f8e5e)">
     <use style="fill:#440154;stroke:#440154;" x="162.327613" xlink:href="#C0_0_16959762b0" y="116.091872"/>
    </g>
    <g clip-path="url(#p71c47f8e5e)">
     <use style="fill:#440154;stroke:#440154;" x="132.603895" xlink:href="#C0_0_16959762b0" y="143.981145"/>
    </g>
    <g clip-path="url(#p71c47f8e5e)">
     <use style="fill:#440154;stroke:#440154;" x="89.327782" xlink:href="#C0_0_16959762b0" y="168.455728"/>
    </g>
    <g clip-path="url(#p71c47f8e5e)">
     <use style="fill:#440154;stroke:#440154;" x="183.575349" xlink:href="#C0_0_16959762b0" y="187.954527"/>
    </g>
    <g clip-path="url(#p71c47f8e5e)">
     <use style="fill:#440154;stroke:#440154;" x="181.897993" xlink:href="#C0_0_16959762b0" y="126.581376"/>
    </g>
    <g clip-path="url(#p71c47f8e5e)">
     <use style="fill:#fde725;stroke:#fde725;" x="48.093196" xlink:href="#C0_0_16959762b0" y="212.543542"/>
    </g>
    <g clip-path="url(#p71c47f8e5e)">
     <use style="fill:#440154;stroke:#440154;" x="129.279611" xlink:href="#C0_0_16959762b0" y="231.415721"/>
    </g>
    <g clip-path="url(#p71c47f8e5e)">
     <use style="fill:#440154;stroke:#440154;" x="166.196983" xlink:href="#C0_0_16959762b0" y="170.537782"/>
    </g>
    <g clip-path="url(#p71c47f8e5e)">
     <use style="fill:#fde725;stroke:#fde725;" x="168.697348" xlink:href="#C0_0_16959762b0" y="191.640106"/>
    </g>
    <g clip-path="url(#p71c47f8e5e)">
     <use style="fill:#440154;stroke:#440154;" x="117.143851" xlink:href="#C0_0_16959762b0" y="207.581032"/>
    </g>
    <g clip-path="url(#p71c47f8e5e)">
     <use style="fill:#fde725;stroke:#fde725;" x="113.098001" xlink:href="#C0_0_16959762b0" y="213.270169"/>
    </g>
    <g clip-path="url(#p71c47f8e5e)">
     <use style="fill:#440154;stroke:#440154;" x="222.843124" xlink:href="#C0_0_16959762b0" y="199.140481"/>
    </g>
    <g clip-path="url(#p71c47f8e5e)">
     <use style="fill:#fde725;stroke:#fde725;" x="181.541998" xlink:href="#C0_0_16959762b0" y="180.736212"/>
    </g>
    <g clip-path="url(#p71c47f8e5e)">
     <use style="fill:#fde725;stroke:#fde725;" x="138.399954" xlink:href="#C0_0_16959762b0" y="254.016"/>
    </g>
    <g clip-path="url(#p71c47f8e5e)">
     <use style="fill:#440154;stroke:#440154;" x="152.285112" xlink:href="#C0_0_16959762b0" y="227.839065"/>
    </g>
    <g clip-path="url(#p71c47f8e5e)">
     <use style="fill:#440154;stroke:#440154;" x="189.654933" xlink:href="#C0_0_16959762b0" y="198.700514"/>
    </g>
    <g clip-path="url(#p71c47f8e5e)">
     <use style="fill:#440154;stroke:#440154;" x="92.887626" xlink:href="#C0_0_16959762b0" y="158.344243"/>
    </g>
    <g clip-path="url(#p71c47f8e5e)">
     <use style="fill:#fde725;stroke:#fde725;" x="154.337023" xlink:href="#C0_0_16959762b0" y="136.80724"/>
    </g>
    <g clip-path="url(#p71c47f8e5e)">
     <use style="fill:#fde725;stroke:#fde725;" x="152.869844" xlink:href="#C0_0_16959762b0" y="139.547816"/>
    </g>
    <g clip-path="url(#p71c47f8e5e)">
     <use style="fill:#440154;stroke:#440154;" x="86.064744" xlink:href="#C0_0_16959762b0" y="139.897068"/>
    </g>
    <g clip-path="url(#p71c47f8e5e)">
     <use style="fill:#fde725;stroke:#fde725;" x="125.968087" xlink:href="#C0_0_16959762b0" y="192.046838"/>
    </g>
    <g clip-path="url(#p71c47f8e5e)">
     <use style="fill:#440154;stroke:#440154;" x="220.106617" xlink:href="#C0_0_16959762b0" y="230.093517"/>
    </g>
    <g clip-path="url(#p71c47f8e5e)">
     <use style="fill:#440154;stroke:#440154;" x="152.363389" xlink:href="#C0_0_16959762b0" y="189.384934"/>
    </g>
    <g clip-path="url(#p71c47f8e5e)">
     <use style="fill:#440154;stroke:#440154;" x="149.584276" xlink:href="#C0_0_16959762b0" y="179.825553"/>
    </g>
    <g clip-path="url(#p71c47f8e5e)">
     <use style="fill:#440154;stroke:#440154;" x="177.132966" xlink:href="#C0_0_16959762b0" y="158.674528"/>
    </g>
    <g clip-path="url(#p71c47f8e5e)">
     <use style="fill:#fde725;stroke:#fde725;" x="172.769984" xlink:href="#C0_0_16959762b0" y="156.314537"/>
    </g>
    <g clip-path="url(#p71c47f8e5e)">
     <use style="fill:#fde725;stroke:#fde725;" x="115.886397" xlink:href="#C0_0_16959762b0" y="161.013971"/>
    </g>
    <g clip-path="url(#p71c47f8e5e)">
     <use style="fill:#fde725;stroke:#fde725;" x="103.738784" xlink:href="#C0_0_16959762b0" y="216.094875"/>
    </g>
    <g clip-path="url(#p71c47f8e5e)">
     <use style="fill:#440154;stroke:#440154;" x="78.153763" xlink:href="#C0_0_16959762b0" y="172.681479"/>
    </g>
    <g clip-path="url(#p71c47f8e5e)">
     <use style="fill:#440154;stroke:#440154;" x="197.668216" xlink:href="#C0_0_16959762b0" y="167.741129"/>
    </g>
    <g clip-path="url(#p71c47f8e5e)">
     <use style="fill:#fde725;stroke:#fde725;" x="138.415788" xlink:href="#C0_0_16959762b0" y="211.209762"/>
    </g>
    <g clip-path="url(#p71c47f8e5e)">
     <use style="fill:#fde725;stroke:#fde725;" x="261.861881" xlink:href="#C0_0_16959762b0" y="143.521822"/>
    </g>
    <g clip-path="url(#p71c47f8e5e)">
     <use style="fill:#fde725;stroke:#fde725;" x="207.440721" xlink:href="#C0_0_16959762b0" y="200.189854"/>
    </g>
    <g clip-path="url(#p71c47f8e5e)">
     <use style="fill:#440154;stroke:#440154;" x="167.167933" xlink:href="#C0_0_16959762b0" y="135.088278"/>
    </g>
    <g clip-path="url(#p71c47f8e5e)">
     <use style="fill:#440154;stroke:#440154;" x="94.4982" xlink:href="#C0_0_16959762b0" y="197.969919"/>
    </g>
    <g clip-path="url(#p71c47f8e5e)">
     <use style="fill:#440154;stroke:#440154;" x="137.100009" xlink:href="#C0_0_16959762b0" y="170.583289"/>
    </g>
   </g>
   <g id="matplotlib.axis_1">
    <g id="xtick_1">
     <g id="line2d_1">
      <defs>
       <path d="M 0 0 
L 0 3.5 
" id="m093c81fc60" style="stroke:#000000;stroke-width:0.8;"/>
      </defs>
      <g>
       <use style="stroke:#000000;stroke-width:0.8;" x="41.667363" xlink:href="#m093c81fc60" y="266.112"/>
      </g>
     </g>
     <g id="text_1">
      <!-- −10 -->
      <g transform="translate(31.115019 280.710437)scale(0.1 -0.1)">
       <defs>
        <path d="M 678 2272 
L 4684 2272 
L 4684 1741 
L 678 1741 
L 678 2272 
z
" id="DejaVuSans-2212" transform="scale(0.015625)"/>
        <path d="M 794 531 
L 1825 531 
L 1825 4091 
L 703 3866 
L 703 4441 
L 1819 4666 
L 2450 4666 
L 2450 531 
L 3481 531 
L 3481 0 
L 794 0 
L 794 531 
z
" id="DejaVuSans-31" transform="scale(0.015625)"/>
        <path d="M 2034 4250 
Q 1547 4250 1301 3770 
Q 1056 3291 1056 2328 
Q 1056 1369 1301 889 
Q 1547 409 2034 409 
Q 2525 409 2770 889 
Q 3016 1369 3016 2328 
Q 3016 3291 2770 3770 
Q 2525 4250 2034 4250 
z
M 2034 4750 
Q 2819 4750 3233 4129 
Q 3647 3509 3647 2328 
Q 3647 1150 3233 529 
Q 2819 -91 2034 -91 
Q 1250 -91 836 529 
Q 422 1150 422 2328 
Q 422 3509 836 4129 
Q 1250 4750 2034 4750 
z
" id="DejaVuSans-30" transform="scale(0.015625)"/>
       </defs>
       <use xlink:href="#DejaVuSans-2212"/>
       <use x="83.789062" xlink:href="#DejaVuSans-31"/>
       <use x="147.412109" xlink:href="#DejaVuSans-30"/>
      </g>
     </g>
    </g>
    <g id="xtick_2">
     <g id="line2d_2">
      <g>
       <use style="stroke:#000000;stroke-width:0.8;" x="98.981579" xlink:href="#m093c81fc60" y="266.112"/>
      </g>
     </g>
     <g id="text_2">
      <!-- −5 -->
      <g transform="translate(91.610485 280.710437)scale(0.1 -0.1)">
       <defs>
        <path d="M 691 4666 
L 3169 4666 
L 3169 4134 
L 1269 4134 
L 1269 2991 
Q 1406 3038 1543 3061 
Q 1681 3084 1819 3084 
Q 2600 3084 3056 2656 
Q 3513 2228 3513 1497 
Q 3513 744 3044 326 
Q 2575 -91 1722 -91 
Q 1428 -91 1123 -41 
Q 819 9 494 109 
L 494 744 
Q 775 591 1075 516 
Q 1375 441 1709 441 
Q 2250 441 2565 725 
Q 2881 1009 2881 1497 
Q 2881 1984 2565 2268 
Q 2250 2553 1709 2553 
Q 1456 2553 1204 2497 
Q 953 2441 691 2322 
L 691 4666 
z
" id="DejaVuSans-35" transform="scale(0.015625)"/>
       </defs>
       <use xlink:href="#DejaVuSans-2212"/>
       <use x="83.789062" xlink:href="#DejaVuSans-35"/>
      </g>
     </g>
    </g>
    <g id="xtick_3">
     <g id="line2d_3">
      <g>
       <use style="stroke:#000000;stroke-width:0.8;" x="156.295795" xlink:href="#m093c81fc60" y="266.112"/>
      </g>
     </g>
     <g id="text_3">
      <!-- 0 -->
      <g transform="translate(153.114545 280.710437)scale(0.1 -0.1)">
       <use xlink:href="#DejaVuSans-30"/>
      </g>
     </g>
    </g>
    <g id="xtick_4">
     <g id="line2d_4">
      <g>
       <use style="stroke:#000000;stroke-width:0.8;" x="213.610012" xlink:href="#m093c81fc60" y="266.112"/>
      </g>
     </g>
     <g id="text_4">
      <!-- 5 -->
      <g transform="translate(210.428762 280.710437)scale(0.1 -0.1)">
       <use xlink:href="#DejaVuSans-35"/>
      </g>
     </g>
    </g>
    <g id="xtick_5">
     <g id="line2d_5">
      <g>
       <use style="stroke:#000000;stroke-width:0.8;" x="270.924228" xlink:href="#m093c81fc60" y="266.112"/>
      </g>
     </g>
     <g id="text_5">
      <!-- 10 -->
      <g transform="translate(264.561728 280.710437)scale(0.1 -0.1)">
       <use xlink:href="#DejaVuSans-31"/>
       <use x="63.623047" xlink:href="#DejaVuSans-30"/>
      </g>
     </g>
    </g>
    <g id="text_6">
     <!-- 1.54% -->
     <g transform="translate(152.592719 294.388562)scale(0.1 -0.1)">
      <defs>
       <path d="M 684 794 
L 1344 794 
L 1344 0 
L 684 0 
L 684 794 
z
" id="DejaVuSans-2e" transform="scale(0.015625)"/>
       <path d="M 2419 4116 
L 825 1625 
L 2419 1625 
L 2419 4116 
z
M 2253 4666 
L 3047 4666 
L 3047 1625 
L 3713 1625 
L 3713 1100 
L 3047 1100 
L 3047 0 
L 2419 0 
L 2419 1100 
L 313 1100 
L 313 1709 
L 2253 4666 
z
" id="DejaVuSans-34" transform="scale(0.015625)"/>
       <path d="M 4653 2053 
Q 4381 2053 4226 1822 
Q 4072 1591 4072 1178 
Q 4072 772 4226 539 
Q 4381 306 4653 306 
Q 4919 306 5073 539 
Q 5228 772 5228 1178 
Q 5228 1588 5073 1820 
Q 4919 2053 4653 2053 
z
M 4653 2450 
Q 5147 2450 5437 2106 
Q 5728 1763 5728 1178 
Q 5728 594 5436 251 
Q 5144 -91 4653 -91 
Q 4153 -91 3862 251 
Q 3572 594 3572 1178 
Q 3572 1766 3864 2108 
Q 4156 2450 4653 2450 
z
M 1428 4353 
Q 1159 4353 1004 4120 
Q 850 3888 850 3481 
Q 850 3069 1003 2837 
Q 1156 2606 1428 2606 
Q 1700 2606 1854 2837 
Q 2009 3069 2009 3481 
Q 2009 3884 1853 4118 
Q 1697 4353 1428 4353 
z
M 4250 4750 
L 4750 4750 
L 1831 -91 
L 1331 -91 
L 4250 4750 
z
M 1428 4750 
Q 1922 4750 2215 4408 
Q 2509 4066 2509 3481 
Q 2509 2891 2217 2550 
Q 1925 2209 1428 2209 
Q 931 2209 642 2551 
Q 353 2894 353 3481 
Q 353 4063 643 4406 
Q 934 4750 1428 4750 
z
" id="DejaVuSans-25" transform="scale(0.015625)"/>
      </defs>
      <use xlink:href="#DejaVuSans-31"/>
      <use x="63.623047" xlink:href="#DejaVuSans-2e"/>
      <use x="95.410156" xlink:href="#DejaVuSans-35"/>
      <use x="159.033203" xlink:href="#DejaVuSans-34"/>
      <use x="222.65625" xlink:href="#DejaVuSans-25"/>
     </g>
    </g>
   </g>
   <g id="matplotlib.axis_2">
    <g id="ytick_1">
     <g id="line2d_6">
      <defs>
       <path d="M 0 0 
L -3.5 0 
" id="m87ae25c717" style="stroke:#000000;stroke-width:0.8;"/>
      </defs>
      <g>
       <use style="stroke:#000000;stroke-width:0.8;" x="35.420313" xlink:href="#m87ae25c717" y="210.260618"/>
      </g>
     </g>
     <g id="text_7">
      <!-- −5 -->
      <g transform="translate(13.678125 214.059836)scale(0.1 -0.1)">
       <use xlink:href="#DejaVuSans-2212"/>
       <use x="83.789062" xlink:href="#DejaVuSans-35"/>
      </g>
     </g>
    </g>
    <g id="ytick_2">
     <g id="line2d_7">
      <g>
       <use style="stroke:#000000;stroke-width:0.8;" x="35.420313" xlink:href="#m87ae25c717" y="152.946401"/>
      </g>
     </g>
     <g id="text_8">
      <!-- 0 -->
      <g transform="translate(22.057813 156.74562)scale(0.1 -0.1)">
       <use xlink:href="#DejaVuSans-30"/>
      </g>
     </g>
    </g>
    <g id="ytick_3">
     <g id="line2d_8">
      <g>
       <use style="stroke:#000000;stroke-width:0.8;" x="35.420313" xlink:href="#m87ae25c717" y="95.632185"/>
      </g>
     </g>
     <g id="text_9">
      <!-- 5 -->
      <g transform="translate(22.057813 99.431404)scale(0.1 -0.1)">
       <use xlink:href="#DejaVuSans-35"/>
      </g>
     </g>
    </g>
    <g id="ytick_4">
     <g id="line2d_9">
      <g>
       <use style="stroke:#000000;stroke-width:0.8;" x="35.420313" xlink:href="#m87ae25c717" y="38.317969"/>
      </g>
     </g>
     <g id="text_10">
      <!-- 10 -->
      <g transform="translate(15.695313 42.117188)scale(0.1 -0.1)">
       <use xlink:href="#DejaVuSans-31"/>
       <use x="63.623047" xlink:href="#DejaVuSans-30"/>
      </g>
     </g>
    </g>
    <g id="text_11">
     <!-- 1.48% -->
     <g transform="translate(7.598438 148.939594)rotate(-90)scale(0.1 -0.1)">
      <defs>
       <path d="M 2034 2216 
Q 1584 2216 1326 1975 
Q 1069 1734 1069 1313 
Q 1069 891 1326 650 
Q 1584 409 2034 409 
Q 2484 409 2743 651 
Q 3003 894 3003 1313 
Q 3003 1734 2745 1975 
Q 2488 2216 2034 2216 
z
M 1403 2484 
Q 997 2584 770 2862 
Q 544 3141 544 3541 
Q 544 4100 942 4425 
Q 1341 4750 2034 4750 
Q 2731 4750 3128 4425 
Q 3525 4100 3525 3541 
Q 3525 3141 3298 2862 
Q 3072 2584 2669 2484 
Q 3125 2378 3379 2068 
Q 3634 1759 3634 1313 
Q 3634 634 3220 271 
Q 2806 -91 2034 -91 
Q 1263 -91 848 271 
Q 434 634 434 1313 
Q 434 1759 690 2068 
Q 947 2378 1403 2484 
z
M 1172 3481 
Q 1172 3119 1398 2916 
Q 1625 2713 2034 2713 
Q 2441 2713 2670 2916 
Q 2900 3119 2900 3481 
Q 2900 3844 2670 4047 
Q 2441 4250 2034 4250 
Q 1625 4250 1398 4047 
Q 1172 3844 1172 3481 
z
" id="DejaVuSans-38" transform="scale(0.015625)"/>
      </defs>
      <use xlink:href="#DejaVuSans-31"/>
      <use x="63.623047" xlink:href="#DejaVuSans-2e"/>
      <use x="95.410156" xlink:href="#DejaVuSans-34"/>
      <use x="159.033203" xlink:href="#DejaVuSans-38"/>
      <use x="222.65625" xlink:href="#DejaVuSans-25"/>
     </g>
    </g>
   </g>
   <g id="patch_3">
    <path d="M 35.420313 266.112 
L 35.420313 -0 
" style="fill:none;stroke:#000000;stroke-linecap:square;stroke-linejoin:miter;stroke-width:0.8;"/>
   </g>
   <g id="patch_4">
    <path d="M 301.532312 266.112 
L 301.532312 -0 
" style="fill:none;stroke:#000000;stroke-linecap:square;stroke-linejoin:miter;stroke-width:0.8;"/>
   </g>
   <g id="patch_5">
    <path d="M 35.420312 266.112 
L 301.532312 266.112 
" style="fill:none;stroke:#000000;stroke-linecap:square;stroke-linejoin:miter;stroke-width:0.8;"/>
   </g>
   <g id="patch_6">
    <path d="M 35.420312 -0 
L 301.532312 -0 
" style="fill:none;stroke:#000000;stroke-linecap:square;stroke-linejoin:miter;stroke-width:0.8;"/>
   </g>
   <g id="legend_1">
    <g id="patch_7">
     <path d="M 177.782312 37.35625 
L 294.532312 37.35625 
Q 296.532312 37.35625 296.532312 35.35625 
L 296.532312 7 
Q 296.532312 5 294.532312 5 
L 177.782312 5 
Q 175.782312 5 175.782312 7 
L 175.782312 35.35625 
Q 175.782312 37.35625 177.782312 37.35625 
z
" style="fill:#ffffff;opacity:0.8;stroke:#cccccc;stroke-linejoin:miter;"/>
    </g>
    <g id="line2d_10"/>
    <g id="line2d_11">
     <defs>
      <path d="M 0 3 
C 0.795609 3 1.55874 2.683901 2.12132 2.12132 
C 2.683901 1.55874 3 0.795609 3 0 
C 3 -0.795609 2.683901 -1.55874 2.12132 -2.12132 
C 1.55874 -2.683901 0.795609 -3 0 -3 
C -0.795609 -3 -1.55874 -2.683901 -2.12132 -2.12132 
C -2.683901 -1.55874 -3 -0.795609 -3 0 
C -3 0.795609 -2.683901 1.55874 -2.12132 2.12132 
C -1.55874 2.683901 -0.795609 3 0 3 
z
" id="m9b475d4cfa" style="stroke:#440154;"/>
     </defs>
     <g>
      <use style="fill:#440154;stroke:#440154;" x="189.782312" xlink:href="#m9b475d4cfa" y="13.098437"/>
     </g>
    </g>
    <g id="text_12">
     <!-- B. pendula north -->
     <g transform="translate(207.782312 16.598437)scale(0.1 -0.1)">
      <defs>
       <path d="M 1259 2228 
L 1259 519 
L 2272 519 
Q 2781 519 3026 730 
Q 3272 941 3272 1375 
Q 3272 1813 3026 2020 
Q 2781 2228 2272 2228 
L 1259 2228 
z
M 1259 4147 
L 1259 2741 
L 2194 2741 
Q 2656 2741 2882 2914 
Q 3109 3088 3109 3444 
Q 3109 3797 2882 3972 
Q 2656 4147 2194 4147 
L 1259 4147 
z
M 628 4666 
L 2241 4666 
Q 2963 4666 3353 4366 
Q 3744 4066 3744 3513 
Q 3744 3084 3544 2831 
Q 3344 2578 2956 2516 
Q 3422 2416 3680 2098 
Q 3938 1781 3938 1306 
Q 3938 681 3513 340 
Q 3088 0 2303 0 
L 628 0 
L 628 4666 
z
" id="DejaVuSans-42" transform="scale(0.015625)"/>
       <path id="DejaVuSans-20" transform="scale(0.015625)"/>
       <path d="M 1159 525 
L 1159 -1331 
L 581 -1331 
L 581 3500 
L 1159 3500 
L 1159 2969 
Q 1341 3281 1617 3432 
Q 1894 3584 2278 3584 
Q 2916 3584 3314 3078 
Q 3713 2572 3713 1747 
Q 3713 922 3314 415 
Q 2916 -91 2278 -91 
Q 1894 -91 1617 61 
Q 1341 213 1159 525 
z
M 3116 1747 
Q 3116 2381 2855 2742 
Q 2594 3103 2138 3103 
Q 1681 3103 1420 2742 
Q 1159 2381 1159 1747 
Q 1159 1113 1420 752 
Q 1681 391 2138 391 
Q 2594 391 2855 752 
Q 3116 1113 3116 1747 
z
" id="DejaVuSans-70" transform="scale(0.015625)"/>
       <path d="M 3597 1894 
L 3597 1613 
L 953 1613 
Q 991 1019 1311 708 
Q 1631 397 2203 397 
Q 2534 397 2845 478 
Q 3156 559 3463 722 
L 3463 178 
Q 3153 47 2828 -22 
Q 2503 -91 2169 -91 
Q 1331 -91 842 396 
Q 353 884 353 1716 
Q 353 2575 817 3079 
Q 1281 3584 2069 3584 
Q 2775 3584 3186 3129 
Q 3597 2675 3597 1894 
z
M 3022 2063 
Q 3016 2534 2758 2815 
Q 2500 3097 2075 3097 
Q 1594 3097 1305 2825 
Q 1016 2553 972 2059 
L 3022 2063 
z
" id="DejaVuSans-65" transform="scale(0.015625)"/>
       <path d="M 3513 2113 
L 3513 0 
L 2938 0 
L 2938 2094 
Q 2938 2591 2744 2837 
Q 2550 3084 2163 3084 
Q 1697 3084 1428 2787 
Q 1159 2491 1159 1978 
L 1159 0 
L 581 0 
L 581 3500 
L 1159 3500 
L 1159 2956 
Q 1366 3272 1645 3428 
Q 1925 3584 2291 3584 
Q 2894 3584 3203 3211 
Q 3513 2838 3513 2113 
z
" id="DejaVuSans-6e" transform="scale(0.015625)"/>
       <path d="M 2906 2969 
L 2906 4863 
L 3481 4863 
L 3481 0 
L 2906 0 
L 2906 525 
Q 2725 213 2448 61 
Q 2172 -91 1784 -91 
Q 1150 -91 751 415 
Q 353 922 353 1747 
Q 353 2572 751 3078 
Q 1150 3584 1784 3584 
Q 2172 3584 2448 3432 
Q 2725 3281 2906 2969 
z
M 947 1747 
Q 947 1113 1208 752 
Q 1469 391 1925 391 
Q 2381 391 2643 752 
Q 2906 1113 2906 1747 
Q 2906 2381 2643 2742 
Q 2381 3103 1925 3103 
Q 1469 3103 1208 2742 
Q 947 2381 947 1747 
z
" id="DejaVuSans-64" transform="scale(0.015625)"/>
       <path d="M 544 1381 
L 544 3500 
L 1119 3500 
L 1119 1403 
Q 1119 906 1312 657 
Q 1506 409 1894 409 
Q 2359 409 2629 706 
Q 2900 1003 2900 1516 
L 2900 3500 
L 3475 3500 
L 3475 0 
L 2900 0 
L 2900 538 
Q 2691 219 2414 64 
Q 2138 -91 1772 -91 
Q 1169 -91 856 284 
Q 544 659 544 1381 
z
M 1991 3584 
L 1991 3584 
z
" id="DejaVuSans-75" transform="scale(0.015625)"/>
       <path d="M 603 4863 
L 1178 4863 
L 1178 0 
L 603 0 
L 603 4863 
z
" id="DejaVuSans-6c" transform="scale(0.015625)"/>
       <path d="M 2194 1759 
Q 1497 1759 1228 1600 
Q 959 1441 959 1056 
Q 959 750 1161 570 
Q 1363 391 1709 391 
Q 2188 391 2477 730 
Q 2766 1069 2766 1631 
L 2766 1759 
L 2194 1759 
z
M 3341 1997 
L 3341 0 
L 2766 0 
L 2766 531 
Q 2569 213 2275 61 
Q 1981 -91 1556 -91 
Q 1019 -91 701 211 
Q 384 513 384 1019 
Q 384 1609 779 1909 
Q 1175 2209 1959 2209 
L 2766 2209 
L 2766 2266 
Q 2766 2663 2505 2880 
Q 2244 3097 1772 3097 
Q 1472 3097 1187 3025 
Q 903 2953 641 2809 
L 641 3341 
Q 956 3463 1253 3523 
Q 1550 3584 1831 3584 
Q 2591 3584 2966 3190 
Q 3341 2797 3341 1997 
z
" id="DejaVuSans-61" transform="scale(0.015625)"/>
       <path d="M 1959 3097 
Q 1497 3097 1228 2736 
Q 959 2375 959 1747 
Q 959 1119 1226 758 
Q 1494 397 1959 397 
Q 2419 397 2687 759 
Q 2956 1122 2956 1747 
Q 2956 2369 2687 2733 
Q 2419 3097 1959 3097 
z
M 1959 3584 
Q 2709 3584 3137 3096 
Q 3566 2609 3566 1747 
Q 3566 888 3137 398 
Q 2709 -91 1959 -91 
Q 1206 -91 779 398 
Q 353 888 353 1747 
Q 353 2609 779 3096 
Q 1206 3584 1959 3584 
z
" id="DejaVuSans-6f" transform="scale(0.015625)"/>
       <path d="M 2631 2963 
Q 2534 3019 2420 3045 
Q 2306 3072 2169 3072 
Q 1681 3072 1420 2755 
Q 1159 2438 1159 1844 
L 1159 0 
L 581 0 
L 581 3500 
L 1159 3500 
L 1159 2956 
Q 1341 3275 1631 3429 
Q 1922 3584 2338 3584 
Q 2397 3584 2469 3576 
Q 2541 3569 2628 3553 
L 2631 2963 
z
" id="DejaVuSans-72" transform="scale(0.015625)"/>
       <path d="M 1172 4494 
L 1172 3500 
L 2356 3500 
L 2356 3053 
L 1172 3053 
L 1172 1153 
Q 1172 725 1289 603 
Q 1406 481 1766 481 
L 2356 481 
L 2356 0 
L 1766 0 
Q 1100 0 847 248 
Q 594 497 594 1153 
L 594 3053 
L 172 3053 
L 172 3500 
L 594 3500 
L 594 4494 
L 1172 4494 
z
" id="DejaVuSans-74" transform="scale(0.015625)"/>
       <path d="M 3513 2113 
L 3513 0 
L 2938 0 
L 2938 2094 
Q 2938 2591 2744 2837 
Q 2550 3084 2163 3084 
Q 1697 3084 1428 2787 
Q 1159 2491 1159 1978 
L 1159 0 
L 581 0 
L 581 4863 
L 1159 4863 
L 1159 2956 
Q 1366 3272 1645 3428 
Q 1925 3584 2291 3584 
Q 2894 3584 3203 3211 
Q 3513 2838 3513 2113 
z
" id="DejaVuSans-68" transform="scale(0.015625)"/>
      </defs>
      <use xlink:href="#DejaVuSans-42"/>
      <use x="68.603516" xlink:href="#DejaVuSans-2e"/>
      <use x="100.390625" xlink:href="#DejaVuSans-20"/>
      <use x="132.177734" xlink:href="#DejaVuSans-70"/>
      <use x="195.654297" xlink:href="#DejaVuSans-65"/>
      <use x="257.177734" xlink:href="#DejaVuSans-6e"/>
      <use x="320.556641" xlink:href="#DejaVuSans-64"/>
      <use x="384.033203" xlink:href="#DejaVuSans-75"/>
      <use x="447.412109" xlink:href="#DejaVuSans-6c"/>
      <use x="475.195312" xlink:href="#DejaVuSans-61"/>
      <use x="536.474609" xlink:href="#DejaVuSans-20"/>
      <use x="568.261719" xlink:href="#DejaVuSans-6e"/>
      <use x="631.640625" xlink:href="#DejaVuSans-6f"/>
      <use x="692.822266" xlink:href="#DejaVuSans-72"/>
      <use x="733.935547" xlink:href="#DejaVuSans-74"/>
      <use x="773.144531" xlink:href="#DejaVuSans-68"/>
     </g>
    </g>
    <g id="line2d_12"/>
    <g id="line2d_13">
     <defs>
      <path d="M 0 3 
C 0.795609 3 1.55874 2.683901 2.12132 2.12132 
C 2.683901 1.55874 3 0.795609 3 0 
C 3 -0.795609 2.683901 -1.55874 2.12132 -2.12132 
C 1.55874 -2.683901 0.795609 -3 0 -3 
C -0.795609 -3 -1.55874 -2.683901 -2.12132 -2.12132 
C -2.683901 -1.55874 -3 -0.795609 -3 0 
C -3 0.795609 -2.683901 1.55874 -2.12132 2.12132 
C -1.55874 2.683901 -0.795609 3 0 3 
z
" id="mcf42f09136" style="stroke:#fde725;"/>
     </defs>
     <g>
      <use style="fill:#fde725;stroke:#fde725;" x="189.782312" xlink:href="#mcf42f09136" y="27.776562"/>
     </g>
    </g>
    <g id="text_13">
     <!-- B. pendula south -->
     <g transform="translate(207.782312 31.276562)scale(0.1 -0.1)">
      <defs>
       <path d="M 2834 3397 
L 2834 2853 
Q 2591 2978 2328 3040 
Q 2066 3103 1784 3103 
Q 1356 3103 1142 2972 
Q 928 2841 928 2578 
Q 928 2378 1081 2264 
Q 1234 2150 1697 2047 
L 1894 2003 
Q 2506 1872 2764 1633 
Q 3022 1394 3022 966 
Q 3022 478 2636 193 
Q 2250 -91 1575 -91 
Q 1294 -91 989 -36 
Q 684 19 347 128 
L 347 722 
Q 666 556 975 473 
Q 1284 391 1588 391 
Q 1994 391 2212 530 
Q 2431 669 2431 922 
Q 2431 1156 2273 1281 
Q 2116 1406 1581 1522 
L 1381 1569 
Q 847 1681 609 1914 
Q 372 2147 372 2553 
Q 372 3047 722 3315 
Q 1072 3584 1716 3584 
Q 2034 3584 2315 3537 
Q 2597 3491 2834 3397 
z
" id="DejaVuSans-73" transform="scale(0.015625)"/>
      </defs>
      <use xlink:href="#DejaVuSans-42"/>
      <use x="68.603516" xlink:href="#DejaVuSans-2e"/>
      <use x="100.390625" xlink:href="#DejaVuSans-20"/>
      <use x="132.177734" xlink:href="#DejaVuSans-70"/>
      <use x="195.654297" xlink:href="#DejaVuSans-65"/>
      <use x="257.177734" xlink:href="#DejaVuSans-6e"/>
      <use x="320.556641" xlink:href="#DejaVuSans-64"/>
      <use x="384.033203" xlink:href="#DejaVuSans-75"/>
      <use x="447.412109" xlink:href="#DejaVuSans-6c"/>
      <use x="475.195312" xlink:href="#DejaVuSans-61"/>
      <use x="536.474609" xlink:href="#DejaVuSans-20"/>
      <use x="568.261719" xlink:href="#DejaVuSans-73"/>
      <use x="620.361328" xlink:href="#DejaVuSans-6f"/>
      <use x="681.542969" xlink:href="#DejaVuSans-75"/>
      <use x="744.921875" xlink:href="#DejaVuSans-74"/>
      <use x="784.130859" xlink:href="#DejaVuSans-68"/>
     </g>
    </g>
   </g>
  </g>
 </g>
 <defs>
  <clipPath id="p71c47f8e5e">
   <rect height="266.112" width="266.112" x="35.420313" y="-0"/>
  </clipPath>
 </defs>
</svg>
