<?xml version="1.0" encoding="utf-8" standalone="no"?>
<!DOCTYPE svg PUBLIC "-//W3C//DTD SVG 1.1//EN"
  "http://www.w3.org/Graphics/SVG/1.1/DTD/svg11.dtd">
<svg height="207.76425pt" version="1.1" viewBox="0 0 210.811125 207.76425" width="210.811125pt" xmlns="http://www.w3.org/2000/svg" xmlns:xlink="http://www.w3.org/1999/xlink">
 <metadata>
  <rdf:RDF xmlns:cc="http://creativecommons.org/ns#" xmlns:dc="http://purl.org/dc/elements/1.1/" xmlns:rdf="http://www.w3.org/1999/02/22-rdf-syntax-ns#">
   <cc:Work>
    <dc:type rdf:resource="http://purl.org/dc/dcmitype/StillImage"/>
    <dc:date>2022-02-01T16:38:50.328049</dc:date>
    <dc:format>image/svg+xml</dc:format>
    <dc:creator>
     <cc:Agent>
      <dc:title>Matplotlib v3.4.3, https://matplotlib.org/</dc:title>
     </cc:Agent>
    </dc:creator>
   </cc:Work>
  </rdf:RDF>
 </metadata>
 <defs>
  <style type="text/css">*{stroke-linecap:butt;stroke-linejoin:round;}</style>
 </defs>
 <g id="figure_1">
  <g id="patch_1">
   <path d="M 0 207.76425 
L 210.811125 207.76425 
L 210.811125 0 
L 0 0 
z
" style="fill:#ffffff;"/>
  </g>
  <g id="axes_1">
   <g id="patch_2">
    <path d="M 33.403125 177.408 
L 210.811125 177.408 
L 210.811125 0 
L 33.403125 0 
z
" style="fill:#ffffff;"/>
   </g>
   <g id="PathCollection_1">
    <defs>
     <path d="M 0 0.935414 
C 0.248075 0.935414 0.486022 0.836853 0.661438 0.661438 
C 0.836853 0.486022 0.935414 0.248075 0.935414 -0 
C 0.935414 -0.248075 0.836853 -0.486022 0.661438 -0.661438 
C 0.486022 -0.836853 0.248075 -0.935414 0 -0.935414 
C -0.248075 -0.935414 -0.486022 -0.836853 -0.661438 -0.661438 
C -0.836853 -0.486022 -0.935414 -0.248075 -0.935414 0 
C -0.935414 0.248075 -0.836853 0.486022 -0.661438 0.661438 
C -0.486022 0.836853 -0.248075 0.935414 0 0.935414 
z
" id="C0_0_0adb45f06c"/>
    </defs>
    <g clip-path="url(#pc6f9a7f90e)">
     <use style="fill:#440154;stroke:#440154;" x="89.875192" xlink:href="#C0_0_0adb45f06c" y="102.829898"/>
    </g>
    <g clip-path="url(#pc6f9a7f90e)">
     <use style="fill:#440154;stroke:#440154;" x="97.800542" xlink:href="#C0_0_0adb45f06c" y="108.868254"/>
    </g>
    <g clip-path="url(#pc6f9a7f90e)">
     <use style="fill:#440154;stroke:#440154;" x="88.031434" xlink:href="#C0_0_0adb45f06c" y="106.306711"/>
    </g>
    <g clip-path="url(#pc6f9a7f90e)">
     <use style="fill:#440154;stroke:#440154;" x="87.732427" xlink:href="#C0_0_0adb45f06c" y="100.718787"/>
    </g>
    <g clip-path="url(#pc6f9a7f90e)">
     <use style="fill:#440154;stroke:#440154;" x="90.874246" xlink:href="#C0_0_0adb45f06c" y="102.371649"/>
    </g>
    <g clip-path="url(#pc6f9a7f90e)">
     <use style="fill:#fde725;stroke:#fde725;" x="90.607668" xlink:href="#C0_0_0adb45f06c" y="114.966556"/>
    </g>
    <g clip-path="url(#pc6f9a7f90e)">
     <use style="fill:#fde725;stroke:#fde725;" x="101.355195" xlink:href="#C0_0_0adb45f06c" y="106.433551"/>
    </g>
    <g clip-path="url(#pc6f9a7f90e)">
     <use style="fill:#440154;stroke:#440154;" x="97.01596" xlink:href="#C0_0_0adb45f06c" y="111.309967"/>
    </g>
    <g clip-path="url(#pc6f9a7f90e)">
     <use style="fill:#440154;stroke:#440154;" x="93.200216" xlink:href="#C0_0_0adb45f06c" y="111.096845"/>
    </g>
    <g clip-path="url(#pc6f9a7f90e)">
     <use style="fill:#440154;stroke:#440154;" x="87.387245" xlink:href="#C0_0_0adb45f06c" y="108.822028"/>
    </g>
    <g clip-path="url(#pc6f9a7f90e)">
     <use style="fill:#440154;stroke:#440154;" x="96.550839" xlink:href="#C0_0_0adb45f06c" y="110.002143"/>
    </g>
    <g clip-path="url(#pc6f9a7f90e)">
     <use style="fill:#440154;stroke:#440154;" x="88.38436" xlink:href="#C0_0_0adb45f06c" y="104.201378"/>
    </g>
    <g clip-path="url(#pc6f9a7f90e)">
     <use style="fill:#440154;stroke:#440154;" x="85.973455" xlink:href="#C0_0_0adb45f06c" y="107.270533"/>
    </g>
    <g clip-path="url(#pc6f9a7f90e)">
     <use style="fill:#440154;stroke:#440154;" x="98.072351" xlink:href="#C0_0_0adb45f06c" y="110.101175"/>
    </g>
    <g clip-path="url(#pc6f9a7f90e)">
     <use style="fill:#440154;stroke:#440154;" x="94.215797" xlink:href="#C0_0_0adb45f06c" y="108.674755"/>
    </g>
    <g clip-path="url(#pc6f9a7f90e)">
     <use style="fill:#440154;stroke:#440154;" x="96.889508" xlink:href="#C0_0_0adb45f06c" y="109.162593"/>
    </g>
    <g clip-path="url(#pc6f9a7f90e)">
     <use style="fill:#440154;stroke:#440154;" x="94.2237" xlink:href="#C0_0_0adb45f06c" y="104.025148"/>
    </g>
    <g clip-path="url(#pc6f9a7f90e)">
     <use style="fill:#440154;stroke:#440154;" x="96.606037" xlink:href="#C0_0_0adb45f06c" y="111.54816"/>
    </g>
    <g clip-path="url(#pc6f9a7f90e)">
     <use style="fill:#440154;stroke:#440154;" x="89.930323" xlink:href="#C0_0_0adb45f06c" y="109.253825"/>
    </g>
    <g clip-path="url(#pc6f9a7f90e)">
     <use style="fill:#440154;stroke:#440154;" x="88.23371" xlink:href="#C0_0_0adb45f06c" y="114.421193"/>
    </g>
    <g clip-path="url(#pc6f9a7f90e)">
     <use style="fill:#fde725;stroke:#fde725;" x="95.830216" xlink:href="#C0_0_0adb45f06c" y="121.942686"/>
    </g>
    <g clip-path="url(#pc6f9a7f90e)">
     <use style="fill:#440154;stroke:#440154;" x="89.255675" xlink:href="#C0_0_0adb45f06c" y="107.746108"/>
    </g>
    <g clip-path="url(#pc6f9a7f90e)">
     <use style="fill:#440154;stroke:#440154;" x="89.759766" xlink:href="#C0_0_0adb45f06c" y="106.812758"/>
    </g>
    <g clip-path="url(#pc6f9a7f90e)">
     <use style="fill:#440154;stroke:#440154;" x="90.795828" xlink:href="#C0_0_0adb45f06c" y="113.925644"/>
    </g>
    <g clip-path="url(#pc6f9a7f90e)">
     <use style="fill:#fde725;stroke:#fde725;" x="136.720135" xlink:href="#C0_0_0adb45f06c" y="35.214727"/>
    </g>
    <g clip-path="url(#pc6f9a7f90e)">
     <use style="fill:#fde725;stroke:#fde725;" x="135.075516" xlink:href="#C0_0_0adb45f06c" y="51.702479"/>
    </g>
    <g clip-path="url(#pc6f9a7f90e)">
     <use style="fill:#fde725;stroke:#fde725;" x="130.555444" xlink:href="#C0_0_0adb45f06c" y="45.060998"/>
    </g>
    <g clip-path="url(#pc6f9a7f90e)">
     <use style="fill:#fde725;stroke:#fde725;" x="133.793265" xlink:href="#C0_0_0adb45f06c" y="46.092301"/>
    </g>
    <g clip-path="url(#pc6f9a7f90e)">
     <use style="fill:#fde725;stroke:#fde725;" x="126.799104" xlink:href="#C0_0_0adb45f06c" y="38.477529"/>
    </g>
    <g clip-path="url(#pc6f9a7f90e)">
     <use style="fill:#fde725;stroke:#fde725;" x="139.410829" xlink:href="#C0_0_0adb45f06c" y="38.75831"/>
    </g>
    <g clip-path="url(#pc6f9a7f90e)">
     <use style="fill:#440154;stroke:#440154;" x="129.549979" xlink:href="#C0_0_0adb45f06c" y="44.577587"/>
    </g>
    <g clip-path="url(#pc6f9a7f90e)">
     <use style="fill:#fde725;stroke:#fde725;" x="131.753327" xlink:href="#C0_0_0adb45f06c" y="43.58935"/>
    </g>
    <g clip-path="url(#pc6f9a7f90e)">
     <use style="fill:#fde725;stroke:#fde725;" x="136.873699" xlink:href="#C0_0_0adb45f06c" y="49.194067"/>
    </g>
    <g clip-path="url(#pc6f9a7f90e)">
     <use style="fill:#fde725;stroke:#fde725;" x="149.601879" xlink:href="#C0_0_0adb45f06c" y="44.883412"/>
    </g>
    <g clip-path="url(#pc6f9a7f90e)">
     <use style="fill:#fde725;stroke:#fde725;" x="159.707507" xlink:href="#C0_0_0adb45f06c" y="37.654163"/>
    </g>
    <g clip-path="url(#pc6f9a7f90e)">
     <use style="fill:#fde725;stroke:#fde725;" x="147.152288" xlink:href="#C0_0_0adb45f06c" y="35.421654"/>
    </g>
    <g clip-path="url(#pc6f9a7f90e)">
     <use style="fill:#fde725;stroke:#fde725;" x="154.058449" xlink:href="#C0_0_0adb45f06c" y="30.667005"/>
    </g>
    <g clip-path="url(#pc6f9a7f90e)">
     <use style="fill:#fde725;stroke:#fde725;" x="152.702221" xlink:href="#C0_0_0adb45f06c" y="30.790574"/>
    </g>
    <g clip-path="url(#pc6f9a7f90e)">
     <use style="fill:#fde725;stroke:#fde725;" x="147.704652" xlink:href="#C0_0_0adb45f06c" y="37.828663"/>
    </g>
    <g clip-path="url(#pc6f9a7f90e)">
     <use style="fill:#fde725;stroke:#fde725;" x="155.192834" xlink:href="#C0_0_0adb45f06c" y="37.452237"/>
    </g>
    <g clip-path="url(#pc6f9a7f90e)">
     <use style="fill:#fde725;stroke:#fde725;" x="152.116653" xlink:href="#C0_0_0adb45f06c" y="40.756102"/>
    </g>
    <g clip-path="url(#pc6f9a7f90e)">
     <use style="fill:#fde725;stroke:#fde725;" x="156.293076" xlink:href="#C0_0_0adb45f06c" y="42.400684"/>
    </g>
    <g clip-path="url(#pc6f9a7f90e)">
     <use style="fill:#fde725;stroke:#fde725;" x="156.522027" xlink:href="#C0_0_0adb45f06c" y="43.668005"/>
    </g>
    <g clip-path="url(#pc6f9a7f90e)">
     <use style="fill:#440154;stroke:#440154;" x="162.453405" xlink:href="#C0_0_0adb45f06c" y="27.477212"/>
    </g>
    <g clip-path="url(#pc6f9a7f90e)">
     <use style="fill:#440154;stroke:#440154;" x="158.793331" xlink:href="#C0_0_0adb45f06c" y="38.370233"/>
    </g>
    <g clip-path="url(#pc6f9a7f90e)">
     <use style="fill:#440154;stroke:#440154;" x="151.241663" xlink:href="#C0_0_0adb45f06c" y="38.053337"/>
    </g>
    <g clip-path="url(#pc6f9a7f90e)">
     <use style="fill:#440154;stroke:#440154;" x="45.709009" xlink:href="#C0_0_0adb45f06c" y="167.247736"/>
    </g>
    <g clip-path="url(#pc6f9a7f90e)">
     <use style="fill:#440154;stroke:#440154;" x="51.637318" xlink:href="#C0_0_0adb45f06c" y="158.259077"/>
    </g>
    <g clip-path="url(#pc6f9a7f90e)">
     <use style="fill:#440154;stroke:#440154;" x="49.66985" xlink:href="#C0_0_0adb45f06c" y="168.84644"/>
    </g>
    <g clip-path="url(#pc6f9a7f90e)">
     <use style="fill:#440154;stroke:#440154;" x="49.602855" xlink:href="#C0_0_0adb45f06c" y="162.643113"/>
    </g>
    <g clip-path="url(#pc6f9a7f90e)">
     <use style="fill:#440154;stroke:#440154;" x="39.610079" xlink:href="#C0_0_0adb45f06c" y="165.665738"/>
    </g>
    <g clip-path="url(#pc6f9a7f90e)">
     <use style="fill:#440154;stroke:#440154;" x="46.66111" xlink:href="#C0_0_0adb45f06c" y="159.988322"/>
    </g>
    <g clip-path="url(#pc6f9a7f90e)">
     <use style="fill:#440154;stroke:#440154;" x="43.501334" xlink:href="#C0_0_0adb45f06c" y="163.962732"/>
    </g>
    <g clip-path="url(#pc6f9a7f90e)">
     <use style="fill:#440154;stroke:#440154;" x="48.008116" xlink:href="#C0_0_0adb45f06c" y="166.928249"/>
    </g>
    <g clip-path="url(#pc6f9a7f90e)">
     <use style="fill:#440154;stroke:#440154;" x="46.334269" xlink:href="#C0_0_0adb45f06c" y="161.826021"/>
    </g>
    <g clip-path="url(#pc6f9a7f90e)">
     <use style="fill:#440154;stroke:#440154;" x="50.798433" xlink:href="#C0_0_0adb45f06c" y="159.804902"/>
    </g>
    <g clip-path="url(#pc6f9a7f90e)">
     <use style="fill:#440154;stroke:#440154;" x="48.173225" xlink:href="#C0_0_0adb45f06c" y="161.406759"/>
    </g>
    <g clip-path="url(#pc6f9a7f90e)">
     <use style="fill:#440154;stroke:#440154;" x="50.250109" xlink:href="#C0_0_0adb45f06c" y="160.36212"/>
    </g>
    <g clip-path="url(#pc6f9a7f90e)">
     <use style="fill:#440154;stroke:#440154;" x="44.703837" xlink:href="#C0_0_0adb45f06c" y="164.509577"/>
    </g>
    <g clip-path="url(#pc6f9a7f90e)">
     <use style="fill:#440154;stroke:#440154;" x="42.587474" xlink:href="#C0_0_0adb45f06c" y="163.30721"/>
    </g>
    <g clip-path="url(#pc6f9a7f90e)">
     <use style="fill:#440154;stroke:#440154;" x="44.953401" xlink:href="#C0_0_0adb45f06c" y="164.678426"/>
    </g>
    <g clip-path="url(#pc6f9a7f90e)">
     <use style="fill:#440154;stroke:#440154;" x="46.693455" xlink:href="#C0_0_0adb45f06c" y="163.293096"/>
    </g>
    <g clip-path="url(#pc6f9a7f90e)">
     <use style="fill:#440154;stroke:#440154;" x="48.447423" xlink:href="#C0_0_0adb45f06c" y="165.301283"/>
    </g>
    <g clip-path="url(#pc6f9a7f90e)">
     <use style="fill:#440154;stroke:#440154;" x="56.77142" xlink:href="#C0_0_0adb45f06c" y="169.344"/>
    </g>
    <g clip-path="url(#pc6f9a7f90e)">
     <use style="fill:#fde725;stroke:#fde725;" x="113.286192" xlink:href="#C0_0_0adb45f06c" y="55.989015"/>
    </g>
    <g clip-path="url(#pc6f9a7f90e)">
     <use style="fill:#fde725;stroke:#fde725;" x="109.241033" xlink:href="#C0_0_0adb45f06c" y="58.553332"/>
    </g>
    <g clip-path="url(#pc6f9a7f90e)">
     <use style="fill:#fde725;stroke:#fde725;" x="111.941516" xlink:href="#C0_0_0adb45f06c" y="63.991889"/>
    </g>
    <g clip-path="url(#pc6f9a7f90e)">
     <use style="fill:#fde725;stroke:#fde725;" x="111.420804" xlink:href="#C0_0_0adb45f06c" y="54.725662"/>
    </g>
    <g clip-path="url(#pc6f9a7f90e)">
     <use style="fill:#440154;stroke:#440154;" x="100.109427" xlink:href="#C0_0_0adb45f06c" y="75.1063"/>
    </g>
    <g clip-path="url(#pc6f9a7f90e)">
     <use style="fill:#440154;stroke:#440154;" x="91.156218" xlink:href="#C0_0_0adb45f06c" y="70.859451"/>
    </g>
    <g clip-path="url(#pc6f9a7f90e)">
     <use style="fill:#fde725;stroke:#fde725;" x="98.257849" xlink:href="#C0_0_0adb45f06c" y="67.861535"/>
    </g>
    <g clip-path="url(#pc6f9a7f90e)">
     <use style="fill:#fde725;stroke:#fde725;" x="98.67067" xlink:href="#C0_0_0adb45f06c" y="70.518384"/>
    </g>
    <g clip-path="url(#pc6f9a7f90e)">
     <use style="fill:#440154;stroke:#440154;" x="99.005702" xlink:href="#C0_0_0adb45f06c" y="66.044974"/>
    </g>
    <g clip-path="url(#pc6f9a7f90e)">
     <use style="fill:#440154;stroke:#440154;" x="95.33328" xlink:href="#C0_0_0adb45f06c" y="76.556358"/>
    </g>
    <g clip-path="url(#pc6f9a7f90e)">
     <use style="fill:#fde725;stroke:#fde725;" x="144.443977" xlink:href="#C0_0_0adb45f06c" y="8.064"/>
    </g>
    <g clip-path="url(#pc6f9a7f90e)">
     <use style="fill:#fde725;stroke:#fde725;" x="139.192597" xlink:href="#C0_0_0adb45f06c" y="12.877133"/>
    </g>
    <g clip-path="url(#pc6f9a7f90e)">
     <use style="fill:#fde725;stroke:#fde725;" x="143.313256" xlink:href="#C0_0_0adb45f06c" y="13.700552"/>
    </g>
    <g clip-path="url(#pc6f9a7f90e)">
     <use style="fill:#fde725;stroke:#fde725;" x="143.093921" xlink:href="#C0_0_0adb45f06c" y="12.408016"/>
    </g>
    <g clip-path="url(#pc6f9a7f90e)">
     <use style="fill:#fde725;stroke:#fde725;" x="147.339298" xlink:href="#C0_0_0adb45f06c" y="11.224615"/>
    </g>
    <g clip-path="url(#pc6f9a7f90e)">
     <use style="fill:#fde725;stroke:#fde725;" x="140.378572" xlink:href="#C0_0_0adb45f06c" y="9.596622"/>
    </g>
    <g clip-path="url(#pc6f9a7f90e)">
     <use style="fill:#fde725;stroke:#fde725;" x="148.955913" xlink:href="#C0_0_0adb45f06c" y="15.003736"/>
    </g>
    <g clip-path="url(#pc6f9a7f90e)">
     <use style="fill:#fde725;stroke:#fde725;" x="94.263945" xlink:href="#C0_0_0adb45f06c" y="83.777328"/>
    </g>
    <g clip-path="url(#pc6f9a7f90e)">
     <use style="fill:#440154;stroke:#440154;" x="78.483013" xlink:href="#C0_0_0adb45f06c" y="85.703924"/>
    </g>
    <g clip-path="url(#pc6f9a7f90e)">
     <use style="fill:#fde725;stroke:#fde725;" x="89.534602" xlink:href="#C0_0_0adb45f06c" y="94.566938"/>
    </g>
    <g clip-path="url(#pc6f9a7f90e)">
     <use style="fill:#440154;stroke:#440154;" x="90.644299" xlink:href="#C0_0_0adb45f06c" y="81.176625"/>
    </g>
    <g clip-path="url(#pc6f9a7f90e)">
     <use style="fill:#440154;stroke:#440154;" x="84.825315" xlink:href="#C0_0_0adb45f06c" y="79.371899"/>
    </g>
    <g clip-path="url(#pc6f9a7f90e)">
     <use style="fill:#440154;stroke:#440154;" x="85.888595" xlink:href="#C0_0_0adb45f06c" y="82.546749"/>
    </g>
    <g clip-path="url(#pc6f9a7f90e)">
     <use style="fill:#440154;stroke:#440154;" x="87.059132" xlink:href="#C0_0_0adb45f06c" y="88.562125"/>
    </g>
    <g clip-path="url(#pc6f9a7f90e)">
     <use style="fill:#fde725;stroke:#fde725;" x="86.329026" xlink:href="#C0_0_0adb45f06c" y="92.506076"/>
    </g>
    <g clip-path="url(#pc6f9a7f90e)">
     <use style="fill:#440154;stroke:#440154;" x="86.574495" xlink:href="#C0_0_0adb45f06c" y="96.821776"/>
    </g>
    <g clip-path="url(#pc6f9a7f90e)">
     <use style="fill:#440154;stroke:#440154;" x="80.522434" xlink:href="#C0_0_0adb45f06c" y="103.275118"/>
    </g>
    <g clip-path="url(#pc6f9a7f90e)">
     <use style="fill:#440154;stroke:#440154;" x="93.044288" xlink:href="#C0_0_0adb45f06c" y="96.078022"/>
    </g>
    <g clip-path="url(#pc6f9a7f90e)">
     <use style="fill:#440154;stroke:#440154;" x="92.722367" xlink:href="#C0_0_0adb45f06c" y="100.568044"/>
    </g>
    <g clip-path="url(#pc6f9a7f90e)">
     <use style="fill:#440154;stroke:#440154;" x="84.341587" xlink:href="#C0_0_0adb45f06c" y="97.166276"/>
    </g>
    <g clip-path="url(#pc6f9a7f90e)">
     <use style="fill:#440154;stroke:#440154;" x="81.450302" xlink:href="#C0_0_0adb45f06c" y="99.912401"/>
    </g>
    <g clip-path="url(#pc6f9a7f90e)">
     <use style="fill:#440154;stroke:#440154;" x="90.249489" xlink:href="#C0_0_0adb45f06c" y="98.361935"/>
    </g>
    <g clip-path="url(#pc6f9a7f90e)">
     <use style="fill:#440154;stroke:#440154;" x="85.393406" xlink:href="#C0_0_0adb45f06c" y="101.443651"/>
    </g>
    <g clip-path="url(#pc6f9a7f90e)">
     <use style="fill:#440154;stroke:#440154;" x="88.571052" xlink:href="#C0_0_0adb45f06c" y="93.583575"/>
    </g>
    <g clip-path="url(#pc6f9a7f90e)">
     <use style="fill:#440154;stroke:#440154;" x="86.528826" xlink:href="#C0_0_0adb45f06c" y="100.928261"/>
    </g>
    <g clip-path="url(#pc6f9a7f90e)">
     <use style="fill:#440154;stroke:#440154;" x="91.004226" xlink:href="#C0_0_0adb45f06c" y="99.710415"/>
    </g>
    <g clip-path="url(#pc6f9a7f90e)">
     <use style="fill:#440154;stroke:#440154;" x="91.018439" xlink:href="#C0_0_0adb45f06c" y="93.152888"/>
    </g>
    <g clip-path="url(#pc6f9a7f90e)">
     <use style="fill:#440154;stroke:#440154;" x="84.730156" xlink:href="#C0_0_0adb45f06c" y="107.457055"/>
    </g>
    <g clip-path="url(#pc6f9a7f90e)">
     <use style="fill:#440154;stroke:#440154;" x="81.818034" xlink:href="#C0_0_0adb45f06c" y="107.11494"/>
    </g>
    <g clip-path="url(#pc6f9a7f90e)">
     <use style="fill:#440154;stroke:#440154;" x="80.934461" xlink:href="#C0_0_0adb45f06c" y="97.198339"/>
    </g>
    <g clip-path="url(#pc6f9a7f90e)">
     <use style="fill:#440154;stroke:#440154;" x="90.64491" xlink:href="#C0_0_0adb45f06c" y="106.683892"/>
    </g>
    <g clip-path="url(#pc6f9a7f90e)">
     <use style="fill:#440154;stroke:#440154;" x="82.679163" xlink:href="#C0_0_0adb45f06c" y="92.885167"/>
    </g>
    <g clip-path="url(#pc6f9a7f90e)">
     <use style="fill:#fde725;stroke:#fde725;" x="85.698763" xlink:href="#C0_0_0adb45f06c" y="103.321348"/>
    </g>
    <g clip-path="url(#pc6f9a7f90e)">
     <use style="fill:#fde725;stroke:#fde725;" x="152.449728" xlink:href="#C0_0_0adb45f06c" y="25.108156"/>
    </g>
    <g clip-path="url(#pc6f9a7f90e)">
     <use style="fill:#fde725;stroke:#fde725;" x="154.857051" xlink:href="#C0_0_0adb45f06c" y="13.285541"/>
    </g>
    <g clip-path="url(#pc6f9a7f90e)">
     <use style="fill:#fde725;stroke:#fde725;" x="146.517314" xlink:href="#C0_0_0adb45f06c" y="15.244294"/>
    </g>
    <g clip-path="url(#pc6f9a7f90e)">
     <use style="fill:#fde725;stroke:#fde725;" x="155.925559" xlink:href="#C0_0_0adb45f06c" y="13.530738"/>
    </g>
    <g clip-path="url(#pc6f9a7f90e)">
     <use style="fill:#fde725;stroke:#fde725;" x="157.409198" xlink:href="#C0_0_0adb45f06c" y="17.787639"/>
    </g>
    <g clip-path="url(#pc6f9a7f90e)">
     <use style="fill:#fde725;stroke:#fde725;" x="155.481251" xlink:href="#C0_0_0adb45f06c" y="25.611853"/>
    </g>
    <g clip-path="url(#pc6f9a7f90e)">
     <use style="fill:#fde725;stroke:#fde725;" x="153.713399" xlink:href="#C0_0_0adb45f06c" y="13.342552"/>
    </g>
    <g clip-path="url(#pc6f9a7f90e)">
     <use style="fill:#fde725;stroke:#fde725;" x="155.521" xlink:href="#C0_0_0adb45f06c" y="22.985487"/>
    </g>
    <g clip-path="url(#pc6f9a7f90e)">
     <use style="fill:#fde725;stroke:#fde725;" x="156.856474" xlink:href="#C0_0_0adb45f06c" y="18.246254"/>
    </g>
    <g clip-path="url(#pc6f9a7f90e)">
     <use style="fill:#fde725;stroke:#fde725;" x="142.814716" xlink:href="#C0_0_0adb45f06c" y="17.605202"/>
    </g>
    <g clip-path="url(#pc6f9a7f90e)">
     <use style="fill:#fde725;stroke:#fde725;" x="163.749168" xlink:href="#C0_0_0adb45f06c" y="22.485233"/>
    </g>
    <g clip-path="url(#pc6f9a7f90e)">
     <use style="fill:#fde725;stroke:#fde725;" x="156.816837" xlink:href="#C0_0_0adb45f06c" y="19.080253"/>
    </g>
    <g clip-path="url(#pc6f9a7f90e)">
     <use style="fill:#fde725;stroke:#fde725;" x="152.201381" xlink:href="#C0_0_0adb45f06c" y="17.716085"/>
    </g>
    <g clip-path="url(#pc6f9a7f90e)">
     <use style="fill:#440154;stroke:#440154;" x="54.925555" xlink:href="#C0_0_0adb45f06c" y="149.261639"/>
    </g>
    <g clip-path="url(#pc6f9a7f90e)">
     <use style="fill:#440154;stroke:#440154;" x="58.842355" xlink:href="#C0_0_0adb45f06c" y="155.795547"/>
    </g>
    <g clip-path="url(#pc6f9a7f90e)">
     <use style="fill:#440154;stroke:#440154;" x="56.142393" xlink:href="#C0_0_0adb45f06c" y="149.607797"/>
    </g>
    <g clip-path="url(#pc6f9a7f90e)">
     <use style="fill:#fde725;stroke:#fde725;" x="47.665994" xlink:href="#C0_0_0adb45f06c" y="145.055892"/>
    </g>
    <g clip-path="url(#pc6f9a7f90e)">
     <use style="fill:#440154;stroke:#440154;" x="65.796522" xlink:href="#C0_0_0adb45f06c" y="154.003235"/>
    </g>
    <g clip-path="url(#pc6f9a7f90e)">
     <use style="fill:#440154;stroke:#440154;" x="56.167023" xlink:href="#C0_0_0adb45f06c" y="151.590659"/>
    </g>
    <g clip-path="url(#pc6f9a7f90e)">
     <use style="fill:#440154;stroke:#440154;" x="61.173016" xlink:href="#C0_0_0adb45f06c" y="152.854734"/>
    </g>
    <g clip-path="url(#pc6f9a7f90e)">
     <use style="fill:#440154;stroke:#440154;" x="53.592514" xlink:href="#C0_0_0adb45f06c" y="142.740961"/>
    </g>
    <g clip-path="url(#pc6f9a7f90e)">
     <use style="fill:#440154;stroke:#440154;" x="63.458401" xlink:href="#C0_0_0adb45f06c" y="147.951741"/>
    </g>
    <g clip-path="url(#pc6f9a7f90e)">
     <use style="fill:#440154;stroke:#440154;" x="57.924144" xlink:href="#C0_0_0adb45f06c" y="149.124233"/>
    </g>
    <g clip-path="url(#pc6f9a7f90e)">
     <use style="fill:#440154;stroke:#440154;" x="59.351945" xlink:href="#C0_0_0adb45f06c" y="154.336824"/>
    </g>
    <g clip-path="url(#pc6f9a7f90e)">
     <use style="fill:#440154;stroke:#440154;" x="52.028781" xlink:href="#C0_0_0adb45f06c" y="148.540772"/>
    </g>
    <g clip-path="url(#pc6f9a7f90e)">
     <use style="fill:#440154;stroke:#440154;" x="62.018507" xlink:href="#C0_0_0adb45f06c" y="153.913648"/>
    </g>
    <g clip-path="url(#pc6f9a7f90e)">
     <use style="fill:#440154;stroke:#440154;" x="59.710442" xlink:href="#C0_0_0adb45f06c" y="150.78726"/>
    </g>
    <g clip-path="url(#pc6f9a7f90e)">
     <use style="fill:#440154;stroke:#440154;" x="70.53676" xlink:href="#C0_0_0adb45f06c" y="129.245598"/>
    </g>
    <g clip-path="url(#pc6f9a7f90e)">
     <use style="fill:#440154;stroke:#440154;" x="61.992388" xlink:href="#C0_0_0adb45f06c" y="123.43576"/>
    </g>
    <g clip-path="url(#pc6f9a7f90e)">
     <use style="fill:#440154;stroke:#440154;" x="62.643467" xlink:href="#C0_0_0adb45f06c" y="123.877792"/>
    </g>
    <g clip-path="url(#pc6f9a7f90e)">
     <use style="fill:#440154;stroke:#440154;" x="74.973214" xlink:href="#C0_0_0adb45f06c" y="127.352723"/>
    </g>
    <g clip-path="url(#pc6f9a7f90e)">
     <use style="fill:#440154;stroke:#440154;" x="60.080117" xlink:href="#C0_0_0adb45f06c" y="124.677289"/>
    </g>
    <g clip-path="url(#pc6f9a7f90e)">
     <use style="fill:#440154;stroke:#440154;" x="64.171224" xlink:href="#C0_0_0adb45f06c" y="131.269823"/>
    </g>
    <g clip-path="url(#pc6f9a7f90e)">
     <use style="fill:#440154;stroke:#440154;" x="69.806457" xlink:href="#C0_0_0adb45f06c" y="133.032751"/>
    </g>
    <g clip-path="url(#pc6f9a7f90e)">
     <use style="fill:#440154;stroke:#440154;" x="65.205769" xlink:href="#C0_0_0adb45f06c" y="124.485211"/>
    </g>
    <g clip-path="url(#pc6f9a7f90e)">
     <use style="fill:#440154;stroke:#440154;" x="67.354016" xlink:href="#C0_0_0adb45f06c" y="125.692613"/>
    </g>
    <g clip-path="url(#pc6f9a7f90e)">
     <use style="fill:#440154;stroke:#440154;" x="63.004637" xlink:href="#C0_0_0adb45f06c" y="123.619058"/>
    </g>
    <g clip-path="url(#pc6f9a7f90e)">
     <use style="fill:#440154;stroke:#440154;" x="66.411456" xlink:href="#C0_0_0adb45f06c" y="115.879657"/>
    </g>
    <g clip-path="url(#pc6f9a7f90e)">
     <use style="fill:#440154;stroke:#440154;" x="58.988742" xlink:href="#C0_0_0adb45f06c" y="122.249043"/>
    </g>
    <g clip-path="url(#pc6f9a7f90e)">
     <use style="fill:#440154;stroke:#440154;" x="72.114134" xlink:href="#C0_0_0adb45f06c" y="130.471852"/>
    </g>
    <g clip-path="url(#pc6f9a7f90e)">
     <use style="fill:#440154;stroke:#440154;" x="64.249966" xlink:href="#C0_0_0adb45f06c" y="121.485172"/>
    </g>
    <g clip-path="url(#pc6f9a7f90e)">
     <use style="fill:#440154;stroke:#440154;" x="61.761768" xlink:href="#C0_0_0adb45f06c" y="132.256426"/>
    </g>
    <g clip-path="url(#pc6f9a7f90e)">
     <use style="fill:#440154;stroke:#440154;" x="67.723382" xlink:href="#C0_0_0adb45f06c" y="128.474093"/>
    </g>
    <g clip-path="url(#pc6f9a7f90e)">
     <use style="fill:#440154;stroke:#440154;" x="62.733373" xlink:href="#C0_0_0adb45f06c" y="126.73265"/>
    </g>
    <g clip-path="url(#pc6f9a7f90e)">
     <use style="fill:#440154;stroke:#440154;" x="58.865966" xlink:href="#C0_0_0adb45f06c" y="118.845064"/>
    </g>
    <g clip-path="url(#pc6f9a7f90e)">
     <use style="fill:#440154;stroke:#440154;" x="58.810806" xlink:href="#C0_0_0adb45f06c" y="129.727769"/>
    </g>
    <g clip-path="url(#pc6f9a7f90e)">
     <use style="fill:#440154;stroke:#440154;" x="67.844646" xlink:href="#C0_0_0adb45f06c" y="130.089406"/>
    </g>
    <g clip-path="url(#pc6f9a7f90e)">
     <use style="fill:#440154;stroke:#440154;" x="64.066635" xlink:href="#C0_0_0adb45f06c" y="126.866403"/>
    </g>
   </g>
   <g id="matplotlib.axis_1">
    <g id="xtick_1">
     <g id="line2d_1">
      <defs>
       <path d="M 0 0 
L 0 3.5 
" id="me865091db7" style="stroke:#000000;stroke-width:0.8;"/>
      </defs>
      <g>
       <use style="stroke:#000000;stroke-width:0.8;" x="63.29735" xlink:href="#me865091db7" y="177.408"/>
      </g>
     </g>
     <g id="text_1">
      <!-- 15.0 -->
      <g transform="translate(52.164537 192.006438)scale(0.1 -0.1)">
       <defs>
        <path d="M 794 531 
L 1825 531 
L 1825 4091 
L 703 3866 
L 703 4441 
L 1819 4666 
L 2450 4666 
L 2450 531 
L 3481 531 
L 3481 0 
L 794 0 
L 794 531 
z
" id="DejaVuSans-31" transform="scale(0.015625)"/>
        <path d="M 691 4666 
L 3169 4666 
L 3169 4134 
L 1269 4134 
L 1269 2991 
Q 1406 3038 1543 3061 
Q 1681 3084 1819 3084 
Q 2600 3084 3056 2656 
Q 3513 2228 3513 1497 
Q 3513 744 3044 326 
Q 2575 -91 1722 -91 
Q 1428 -91 1123 -41 
Q 819 9 494 109 
L 494 744 
Q 775 591 1075 516 
Q 1375 441 1709 441 
Q 2250 441 2565 725 
Q 2881 1009 2881 1497 
Q 2881 1984 2565 2268 
Q 2250 2553 1709 2553 
Q 1456 2553 1204 2497 
Q 953 2441 691 2322 
L 691 4666 
z
" id="DejaVuSans-35" transform="scale(0.015625)"/>
        <path d="M 684 794 
L 1344 794 
L 1344 0 
L 684 0 
L 684 794 
z
" id="DejaVuSans-2e" transform="scale(0.015625)"/>
        <path d="M 2034 4250 
Q 1547 4250 1301 3770 
Q 1056 3291 1056 2328 
Q 1056 1369 1301 889 
Q 1547 409 2034 409 
Q 2525 409 2770 889 
Q 3016 1369 3016 2328 
Q 3016 3291 2770 3770 
Q 2525 4250 2034 4250 
z
M 2034 4750 
Q 2819 4750 3233 4129 
Q 3647 3509 3647 2328 
Q 3647 1150 3233 529 
Q 2819 -91 2034 -91 
Q 1250 -91 836 529 
Q 422 1150 422 2328 
Q 422 3509 836 4129 
Q 1250 4750 2034 4750 
z
" id="DejaVuSans-30" transform="scale(0.015625)"/>
       </defs>
       <use xlink:href="#DejaVuSans-31"/>
       <use x="63.623047" xlink:href="#DejaVuSans-35"/>
       <use x="127.246094" xlink:href="#DejaVuSans-2e"/>
       <use x="159.033203" xlink:href="#DejaVuSans-30"/>
      </g>
     </g>
    </g>
    <g id="xtick_2">
     <g id="line2d_2">
      <g>
       <use style="stroke:#000000;stroke-width:0.8;" x="100.191414" xlink:href="#me865091db7" y="177.408"/>
      </g>
     </g>
     <g id="text_2">
      <!-- 17.5 -->
      <g transform="translate(89.058601 192.006438)scale(0.1 -0.1)">
       <defs>
        <path d="M 525 4666 
L 3525 4666 
L 3525 4397 
L 1831 0 
L 1172 0 
L 2766 4134 
L 525 4134 
L 525 4666 
z
" id="DejaVuSans-37" transform="scale(0.015625)"/>
       </defs>
       <use xlink:href="#DejaVuSans-31"/>
       <use x="63.623047" xlink:href="#DejaVuSans-37"/>
       <use x="127.246094" xlink:href="#DejaVuSans-2e"/>
       <use x="159.033203" xlink:href="#DejaVuSans-35"/>
      </g>
     </g>
    </g>
    <g id="xtick_3">
     <g id="line2d_3">
      <g>
       <use style="stroke:#000000;stroke-width:0.8;" x="137.085478" xlink:href="#me865091db7" y="177.408"/>
      </g>
     </g>
     <g id="text_3">
      <!-- 20.0 -->
      <g transform="translate(125.952666 192.006438)scale(0.1 -0.1)">
       <defs>
        <path d="M 1228 531 
L 3431 531 
L 3431 0 
L 469 0 
L 469 531 
Q 828 903 1448 1529 
Q 2069 2156 2228 2338 
Q 2531 2678 2651 2914 
Q 2772 3150 2772 3378 
Q 2772 3750 2511 3984 
Q 2250 4219 1831 4219 
Q 1534 4219 1204 4116 
Q 875 4013 500 3803 
L 500 4441 
Q 881 4594 1212 4672 
Q 1544 4750 1819 4750 
Q 2544 4750 2975 4387 
Q 3406 4025 3406 3419 
Q 3406 3131 3298 2873 
Q 3191 2616 2906 2266 
Q 2828 2175 2409 1742 
Q 1991 1309 1228 531 
z
" id="DejaVuSans-32" transform="scale(0.015625)"/>
       </defs>
       <use xlink:href="#DejaVuSans-32"/>
       <use x="63.623047" xlink:href="#DejaVuSans-30"/>
       <use x="127.246094" xlink:href="#DejaVuSans-2e"/>
       <use x="159.033203" xlink:href="#DejaVuSans-30"/>
      </g>
     </g>
    </g>
    <g id="xtick_4">
     <g id="line2d_4">
      <g>
       <use style="stroke:#000000;stroke-width:0.8;" x="173.979542" xlink:href="#me865091db7" y="177.408"/>
      </g>
     </g>
     <g id="text_4">
      <!-- 22.5 -->
      <g transform="translate(162.84673 192.006438)scale(0.1 -0.1)">
       <use xlink:href="#DejaVuSans-32"/>
       <use x="63.623047" xlink:href="#DejaVuSans-32"/>
       <use x="127.246094" xlink:href="#DejaVuSans-2e"/>
       <use x="159.033203" xlink:href="#DejaVuSans-35"/>
      </g>
     </g>
    </g>
    <g id="text_5">
     <!-- longitude -->
     <g transform="translate(98.546969 205.684563)scale(0.1 -0.1)">
      <defs>
       <path d="M 603 4863 
L 1178 4863 
L 1178 0 
L 603 0 
L 603 4863 
z
" id="DejaVuSans-6c" transform="scale(0.015625)"/>
       <path d="M 1959 3097 
Q 1497 3097 1228 2736 
Q 959 2375 959 1747 
Q 959 1119 1226 758 
Q 1494 397 1959 397 
Q 2419 397 2687 759 
Q 2956 1122 2956 1747 
Q 2956 2369 2687 2733 
Q 2419 3097 1959 3097 
z
M 1959 3584 
Q 2709 3584 3137 3096 
Q 3566 2609 3566 1747 
Q 3566 888 3137 398 
Q 2709 -91 1959 -91 
Q 1206 -91 779 398 
Q 353 888 353 1747 
Q 353 2609 779 3096 
Q 1206 3584 1959 3584 
z
" id="DejaVuSans-6f" transform="scale(0.015625)"/>
       <path d="M 3513 2113 
L 3513 0 
L 2938 0 
L 2938 2094 
Q 2938 2591 2744 2837 
Q 2550 3084 2163 3084 
Q 1697 3084 1428 2787 
Q 1159 2491 1159 1978 
L 1159 0 
L 581 0 
L 581 3500 
L 1159 3500 
L 1159 2956 
Q 1366 3272 1645 3428 
Q 1925 3584 2291 3584 
Q 2894 3584 3203 3211 
Q 3513 2838 3513 2113 
z
" id="DejaVuSans-6e" transform="scale(0.015625)"/>
       <path d="M 2906 1791 
Q 2906 2416 2648 2759 
Q 2391 3103 1925 3103 
Q 1463 3103 1205 2759 
Q 947 2416 947 1791 
Q 947 1169 1205 825 
Q 1463 481 1925 481 
Q 2391 481 2648 825 
Q 2906 1169 2906 1791 
z
M 3481 434 
Q 3481 -459 3084 -895 
Q 2688 -1331 1869 -1331 
Q 1566 -1331 1297 -1286 
Q 1028 -1241 775 -1147 
L 775 -588 
Q 1028 -725 1275 -790 
Q 1522 -856 1778 -856 
Q 2344 -856 2625 -561 
Q 2906 -266 2906 331 
L 2906 616 
Q 2728 306 2450 153 
Q 2172 0 1784 0 
Q 1141 0 747 490 
Q 353 981 353 1791 
Q 353 2603 747 3093 
Q 1141 3584 1784 3584 
Q 2172 3584 2450 3431 
Q 2728 3278 2906 2969 
L 2906 3500 
L 3481 3500 
L 3481 434 
z
" id="DejaVuSans-67" transform="scale(0.015625)"/>
       <path d="M 603 3500 
L 1178 3500 
L 1178 0 
L 603 0 
L 603 3500 
z
M 603 4863 
L 1178 4863 
L 1178 4134 
L 603 4134 
L 603 4863 
z
" id="DejaVuSans-69" transform="scale(0.015625)"/>
       <path d="M 1172 4494 
L 1172 3500 
L 2356 3500 
L 2356 3053 
L 1172 3053 
L 1172 1153 
Q 1172 725 1289 603 
Q 1406 481 1766 481 
L 2356 481 
L 2356 0 
L 1766 0 
Q 1100 0 847 248 
Q 594 497 594 1153 
L 594 3053 
L 172 3053 
L 172 3500 
L 594 3500 
L 594 4494 
L 1172 4494 
z
" id="DejaVuSans-74" transform="scale(0.015625)"/>
       <path d="M 544 1381 
L 544 3500 
L 1119 3500 
L 1119 1403 
Q 1119 906 1312 657 
Q 1506 409 1894 409 
Q 2359 409 2629 706 
Q 2900 1003 2900 1516 
L 2900 3500 
L 3475 3500 
L 3475 0 
L 2900 0 
L 2900 538 
Q 2691 219 2414 64 
Q 2138 -91 1772 -91 
Q 1169 -91 856 284 
Q 544 659 544 1381 
z
M 1991 3584 
L 1991 3584 
z
" id="DejaVuSans-75" transform="scale(0.015625)"/>
       <path d="M 2906 2969 
L 2906 4863 
L 3481 4863 
L 3481 0 
L 2906 0 
L 2906 525 
Q 2725 213 2448 61 
Q 2172 -91 1784 -91 
Q 1150 -91 751 415 
Q 353 922 353 1747 
Q 353 2572 751 3078 
Q 1150 3584 1784 3584 
Q 2172 3584 2448 3432 
Q 2725 3281 2906 2969 
z
M 947 1747 
Q 947 1113 1208 752 
Q 1469 391 1925 391 
Q 2381 391 2643 752 
Q 2906 1113 2906 1747 
Q 2906 2381 2643 2742 
Q 2381 3103 1925 3103 
Q 1469 3103 1208 2742 
Q 947 2381 947 1747 
z
" id="DejaVuSans-64" transform="scale(0.015625)"/>
       <path d="M 3597 1894 
L 3597 1613 
L 953 1613 
Q 991 1019 1311 708 
Q 1631 397 2203 397 
Q 2534 397 2845 478 
Q 3156 559 3463 722 
L 3463 178 
Q 3153 47 2828 -22 
Q 2503 -91 2169 -91 
Q 1331 -91 842 396 
Q 353 884 353 1716 
Q 353 2575 817 3079 
Q 1281 3584 2069 3584 
Q 2775 3584 3186 3129 
Q 3597 2675 3597 1894 
z
M 3022 2063 
Q 3016 2534 2758 2815 
Q 2500 3097 2075 3097 
Q 1594 3097 1305 2825 
Q 1016 2553 972 2059 
L 3022 2063 
z
" id="DejaVuSans-65" transform="scale(0.015625)"/>
      </defs>
      <use xlink:href="#DejaVuSans-6c"/>
      <use x="27.783203" xlink:href="#DejaVuSans-6f"/>
      <use x="88.964844" xlink:href="#DejaVuSans-6e"/>
      <use x="152.34375" xlink:href="#DejaVuSans-67"/>
      <use x="215.820312" xlink:href="#DejaVuSans-69"/>
      <use x="243.603516" xlink:href="#DejaVuSans-74"/>
      <use x="282.8125" xlink:href="#DejaVuSans-75"/>
      <use x="346.191406" xlink:href="#DejaVuSans-64"/>
      <use x="409.667969" xlink:href="#DejaVuSans-65"/>
     </g>
    </g>
   </g>
   <g id="matplotlib.axis_2">
    <g id="ytick_1">
     <g id="line2d_5">
      <defs>
       <path d="M 0 0 
L -3.5 0 
" id="m4d9d14c7b2" style="stroke:#000000;stroke-width:0.8;"/>
      </defs>
      <g>
       <use style="stroke:#000000;stroke-width:0.8;" x="33.403125" xlink:href="#m4d9d14c7b2" y="161.996403"/>
      </g>
     </g>
     <g id="text_6">
      <!-- 56 -->
      <g transform="translate(13.678125 165.795622)scale(0.1 -0.1)">
       <defs>
        <path d="M 2113 2584 
Q 1688 2584 1439 2293 
Q 1191 2003 1191 1497 
Q 1191 994 1439 701 
Q 1688 409 2113 409 
Q 2538 409 2786 701 
Q 3034 994 3034 1497 
Q 3034 2003 2786 2293 
Q 2538 2584 2113 2584 
z
M 3366 4563 
L 3366 3988 
Q 3128 4100 2886 4159 
Q 2644 4219 2406 4219 
Q 1781 4219 1451 3797 
Q 1122 3375 1075 2522 
Q 1259 2794 1537 2939 
Q 1816 3084 2150 3084 
Q 2853 3084 3261 2657 
Q 3669 2231 3669 1497 
Q 3669 778 3244 343 
Q 2819 -91 2113 -91 
Q 1303 -91 875 529 
Q 447 1150 447 2328 
Q 447 3434 972 4092 
Q 1497 4750 2381 4750 
Q 2619 4750 2861 4703 
Q 3103 4656 3366 4563 
z
" id="DejaVuSans-36" transform="scale(0.015625)"/>
       </defs>
       <use xlink:href="#DejaVuSans-35"/>
       <use x="63.623047" xlink:href="#DejaVuSans-36"/>
      </g>
     </g>
    </g>
    <g id="ytick_2">
     <g id="line2d_6">
      <g>
       <use style="stroke:#000000;stroke-width:0.8;" x="33.403125" xlink:href="#m4d9d14c7b2" y="132.481151"/>
      </g>
     </g>
     <g id="text_7">
      <!-- 58 -->
      <g transform="translate(13.678125 136.28037)scale(0.1 -0.1)">
       <defs>
        <path d="M 2034 2216 
Q 1584 2216 1326 1975 
Q 1069 1734 1069 1313 
Q 1069 891 1326 650 
Q 1584 409 2034 409 
Q 2484 409 2743 651 
Q 3003 894 3003 1313 
Q 3003 1734 2745 1975 
Q 2488 2216 2034 2216 
z
M 1403 2484 
Q 997 2584 770 2862 
Q 544 3141 544 3541 
Q 544 4100 942 4425 
Q 1341 4750 2034 4750 
Q 2731 4750 3128 4425 
Q 3525 4100 3525 3541 
Q 3525 3141 3298 2862 
Q 3072 2584 2669 2484 
Q 3125 2378 3379 2068 
Q 3634 1759 3634 1313 
Q 3634 634 3220 271 
Q 2806 -91 2034 -91 
Q 1263 -91 848 271 
Q 434 634 434 1313 
Q 434 1759 690 2068 
Q 947 2378 1403 2484 
z
M 1172 3481 
Q 1172 3119 1398 2916 
Q 1625 2713 2034 2713 
Q 2441 2713 2670 2916 
Q 2900 3119 2900 3481 
Q 2900 3844 2670 4047 
Q 2441 4250 2034 4250 
Q 1625 4250 1398 4047 
Q 1172 3844 1172 3481 
z
" id="DejaVuSans-38" transform="scale(0.015625)"/>
       </defs>
       <use xlink:href="#DejaVuSans-35"/>
       <use x="63.623047" xlink:href="#DejaVuSans-38"/>
      </g>
     </g>
    </g>
    <g id="ytick_3">
     <g id="line2d_7">
      <g>
       <use style="stroke:#000000;stroke-width:0.8;" x="33.403125" xlink:href="#m4d9d14c7b2" y="102.9659"/>
      </g>
     </g>
     <g id="text_8">
      <!-- 60 -->
      <g transform="translate(13.678125 106.765119)scale(0.1 -0.1)">
       <use xlink:href="#DejaVuSans-36"/>
       <use x="63.623047" xlink:href="#DejaVuSans-30"/>
      </g>
     </g>
    </g>
    <g id="ytick_4">
     <g id="line2d_8">
      <g>
       <use style="stroke:#000000;stroke-width:0.8;" x="33.403125" xlink:href="#m4d9d14c7b2" y="73.450649"/>
      </g>
     </g>
     <g id="text_9">
      <!-- 62 -->
      <g transform="translate(13.678125 77.249868)scale(0.1 -0.1)">
       <use xlink:href="#DejaVuSans-36"/>
       <use x="63.623047" xlink:href="#DejaVuSans-32"/>
      </g>
     </g>
    </g>
    <g id="ytick_5">
     <g id="line2d_9">
      <g>
       <use style="stroke:#000000;stroke-width:0.8;" x="33.403125" xlink:href="#m4d9d14c7b2" y="43.935397"/>
      </g>
     </g>
     <g id="text_10">
      <!-- 64 -->
      <g transform="translate(13.678125 47.734616)scale(0.1 -0.1)">
       <defs>
        <path d="M 2419 4116 
L 825 1625 
L 2419 1625 
L 2419 4116 
z
M 2253 4666 
L 3047 4666 
L 3047 1625 
L 3713 1625 
L 3713 1100 
L 3047 1100 
L 3047 0 
L 2419 0 
L 2419 1100 
L 313 1100 
L 313 1709 
L 2253 4666 
z
" id="DejaVuSans-34" transform="scale(0.015625)"/>
       </defs>
       <use xlink:href="#DejaVuSans-36"/>
       <use x="63.623047" xlink:href="#DejaVuSans-34"/>
      </g>
     </g>
    </g>
    <g id="ytick_6">
     <g id="line2d_10">
      <g>
       <use style="stroke:#000000;stroke-width:0.8;" x="33.403125" xlink:href="#m4d9d14c7b2" y="14.420146"/>
      </g>
     </g>
     <g id="text_11">
      <!-- 66 -->
      <g transform="translate(13.678125 18.219365)scale(0.1 -0.1)">
       <use xlink:href="#DejaVuSans-36"/>
       <use x="63.623047" xlink:href="#DejaVuSans-36"/>
      </g>
     </g>
    </g>
    <g id="text_12">
     <!-- latitude -->
     <g transform="translate(7.598437 107.886031)rotate(-90)scale(0.1 -0.1)">
      <defs>
       <path d="M 2194 1759 
Q 1497 1759 1228 1600 
Q 959 1441 959 1056 
Q 959 750 1161 570 
Q 1363 391 1709 391 
Q 2188 391 2477 730 
Q 2766 1069 2766 1631 
L 2766 1759 
L 2194 1759 
z
M 3341 1997 
L 3341 0 
L 2766 0 
L 2766 531 
Q 2569 213 2275 61 
Q 1981 -91 1556 -91 
Q 1019 -91 701 211 
Q 384 513 384 1019 
Q 384 1609 779 1909 
Q 1175 2209 1959 2209 
L 2766 2209 
L 2766 2266 
Q 2766 2663 2505 2880 
Q 2244 3097 1772 3097 
Q 1472 3097 1187 3025 
Q 903 2953 641 2809 
L 641 3341 
Q 956 3463 1253 3523 
Q 1550 3584 1831 3584 
Q 2591 3584 2966 3190 
Q 3341 2797 3341 1997 
z
" id="DejaVuSans-61" transform="scale(0.015625)"/>
      </defs>
      <use xlink:href="#DejaVuSans-6c"/>
      <use x="27.783203" xlink:href="#DejaVuSans-61"/>
      <use x="89.0625" xlink:href="#DejaVuSans-74"/>
      <use x="128.271484" xlink:href="#DejaVuSans-69"/>
      <use x="156.054688" xlink:href="#DejaVuSans-74"/>
      <use x="195.263672" xlink:href="#DejaVuSans-75"/>
      <use x="258.642578" xlink:href="#DejaVuSans-64"/>
      <use x="322.119141" xlink:href="#DejaVuSans-65"/>
     </g>
    </g>
   </g>
   <g id="patch_3">
    <path d="M 33.403125 177.408 
L 33.403125 0 
" style="fill:none;stroke:#000000;stroke-linecap:square;stroke-linejoin:miter;stroke-width:0.8;"/>
   </g>
   <g id="patch_4">
    <path d="M 210.811125 177.408 
L 210.811125 0 
" style="fill:none;stroke:#000000;stroke-linecap:square;stroke-linejoin:miter;stroke-width:0.8;"/>
   </g>
   <g id="patch_5">
    <path d="M 33.403125 177.408 
L 210.811125 177.408 
" style="fill:none;stroke:#000000;stroke-linecap:square;stroke-linejoin:miter;stroke-width:0.8;"/>
   </g>
   <g id="patch_6">
    <path d="M 33.403125 0 
L 210.811125 0 
" style="fill:none;stroke:#000000;stroke-linecap:square;stroke-linejoin:miter;stroke-width:0.8;"/>
   </g>
   <g id="legend_1">
    <g id="patch_7">
     <path d="M 87.061125 172.408 
L 203.811125 172.408 
Q 205.811125 172.408 205.811125 170.408 
L 205.811125 142.05175 
Q 205.811125 140.05175 203.811125 140.05175 
L 87.061125 140.05175 
Q 85.061125 140.05175 85.061125 142.05175 
L 85.061125 170.408 
Q 85.061125 172.408 87.061125 172.408 
z
" style="fill:#ffffff;opacity:0.8;stroke:#cccccc;stroke-linejoin:miter;"/>
    </g>
    <g id="line2d_11"/>
    <g id="line2d_12">
     <defs>
      <path d="M 0 3 
C 0.795609 3 1.55874 2.683901 2.12132 2.12132 
C 2.683901 1.55874 3 0.795609 3 0 
C 3 -0.795609 2.683901 -1.55874 2.12132 -2.12132 
C 1.55874 -2.683901 0.795609 -3 0 -3 
C -0.795609 -3 -1.55874 -2.683901 -2.12132 -2.12132 
C -2.683901 -1.55874 -3 -0.795609 -3 0 
C -3 0.795609 -2.683901 1.55874 -2.12132 2.12132 
C -1.55874 2.683901 -0.795609 3 0 3 
z
" id="m9cef679b31" style="stroke:#440154;"/>
     </defs>
     <g>
      <use style="fill:#440154;stroke:#440154;" x="99.061125" xlink:href="#m9cef679b31" y="148.150188"/>
     </g>
    </g>
    <g id="text_13">
     <!-- B. pendula north -->
     <g transform="translate(117.061125 151.650188)scale(0.1 -0.1)">
      <defs>
       <path d="M 1259 2228 
L 1259 519 
L 2272 519 
Q 2781 519 3026 730 
Q 3272 941 3272 1375 
Q 3272 1813 3026 2020 
Q 2781 2228 2272 2228 
L 1259 2228 
z
M 1259 4147 
L 1259 2741 
L 2194 2741 
Q 2656 2741 2882 2914 
Q 3109 3088 3109 3444 
Q 3109 3797 2882 3972 
Q 2656 4147 2194 4147 
L 1259 4147 
z
M 628 4666 
L 2241 4666 
Q 2963 4666 3353 4366 
Q 3744 4066 3744 3513 
Q 3744 3084 3544 2831 
Q 3344 2578 2956 2516 
Q 3422 2416 3680 2098 
Q 3938 1781 3938 1306 
Q 3938 681 3513 340 
Q 3088 0 2303 0 
L 628 0 
L 628 4666 
z
" id="DejaVuSans-42" transform="scale(0.015625)"/>
       <path id="DejaVuSans-20" transform="scale(0.015625)"/>
       <path d="M 1159 525 
L 1159 -1331 
L 581 -1331 
L 581 3500 
L 1159 3500 
L 1159 2969 
Q 1341 3281 1617 3432 
Q 1894 3584 2278 3584 
Q 2916 3584 3314 3078 
Q 3713 2572 3713 1747 
Q 3713 922 3314 415 
Q 2916 -91 2278 -91 
Q 1894 -91 1617 61 
Q 1341 213 1159 525 
z
M 3116 1747 
Q 3116 2381 2855 2742 
Q 2594 3103 2138 3103 
Q 1681 3103 1420 2742 
Q 1159 2381 1159 1747 
Q 1159 1113 1420 752 
Q 1681 391 2138 391 
Q 2594 391 2855 752 
Q 3116 1113 3116 1747 
z
" id="DejaVuSans-70" transform="scale(0.015625)"/>
       <path d="M 2631 2963 
Q 2534 3019 2420 3045 
Q 2306 3072 2169 3072 
Q 1681 3072 1420 2755 
Q 1159 2438 1159 1844 
L 1159 0 
L 581 0 
L 581 3500 
L 1159 3500 
L 1159 2956 
Q 1341 3275 1631 3429 
Q 1922 3584 2338 3584 
Q 2397 3584 2469 3576 
Q 2541 3569 2628 3553 
L 2631 2963 
z
" id="DejaVuSans-72" transform="scale(0.015625)"/>
       <path d="M 3513 2113 
L 3513 0 
L 2938 0 
L 2938 2094 
Q 2938 2591 2744 2837 
Q 2550 3084 2163 3084 
Q 1697 3084 1428 2787 
Q 1159 2491 1159 1978 
L 1159 0 
L 581 0 
L 581 4863 
L 1159 4863 
L 1159 2956 
Q 1366 3272 1645 3428 
Q 1925 3584 2291 3584 
Q 2894 3584 3203 3211 
Q 3513 2838 3513 2113 
z
" id="DejaVuSans-68" transform="scale(0.015625)"/>
      </defs>
      <use xlink:href="#DejaVuSans-42"/>
      <use x="68.603516" xlink:href="#DejaVuSans-2e"/>
      <use x="100.390625" xlink:href="#DejaVuSans-20"/>
      <use x="132.177734" xlink:href="#DejaVuSans-70"/>
      <use x="195.654297" xlink:href="#DejaVuSans-65"/>
      <use x="257.177734" xlink:href="#DejaVuSans-6e"/>
      <use x="320.556641" xlink:href="#DejaVuSans-64"/>
      <use x="384.033203" xlink:href="#DejaVuSans-75"/>
      <use x="447.412109" xlink:href="#DejaVuSans-6c"/>
      <use x="475.195312" xlink:href="#DejaVuSans-61"/>
      <use x="536.474609" xlink:href="#DejaVuSans-20"/>
      <use x="568.261719" xlink:href="#DejaVuSans-6e"/>
      <use x="631.640625" xlink:href="#DejaVuSans-6f"/>
      <use x="692.822266" xlink:href="#DejaVuSans-72"/>
      <use x="733.935547" xlink:href="#DejaVuSans-74"/>
      <use x="773.144531" xlink:href="#DejaVuSans-68"/>
     </g>
    </g>
    <g id="line2d_13"/>
    <g id="line2d_14">
     <defs>
      <path d="M 0 3 
C 0.795609 3 1.55874 2.683901 2.12132 2.12132 
C 2.683901 1.55874 3 0.795609 3 0 
C 3 -0.795609 2.683901 -1.55874 2.12132 -2.12132 
C 1.55874 -2.683901 0.795609 -3 0 -3 
C -0.795609 -3 -1.55874 -2.683901 -2.12132 -2.12132 
C -2.683901 -1.55874 -3 -0.795609 -3 0 
C -3 0.795609 -2.683901 1.55874 -2.12132 2.12132 
C -1.55874 2.683901 -0.795609 3 0 3 
z
" id="mcb917ec4e2" style="stroke:#fde725;"/>
     </defs>
     <g>
      <use style="fill:#fde725;stroke:#fde725;" x="99.061125" xlink:href="#mcb917ec4e2" y="162.828313"/>
     </g>
    </g>
    <g id="text_14">
     <!-- B. pendula south -->
     <g transform="translate(117.061125 166.328313)scale(0.1 -0.1)">
      <defs>
       <path d="M 2834 3397 
L 2834 2853 
Q 2591 2978 2328 3040 
Q 2066 3103 1784 3103 
Q 1356 3103 1142 2972 
Q 928 2841 928 2578 
Q 928 2378 1081 2264 
Q 1234 2150 1697 2047 
L 1894 2003 
Q 2506 1872 2764 1633 
Q 3022 1394 3022 966 
Q 3022 478 2636 193 
Q 2250 -91 1575 -91 
Q 1294 -91 989 -36 
Q 684 19 347 128 
L 347 722 
Q 666 556 975 473 
Q 1284 391 1588 391 
Q 1994 391 2212 530 
Q 2431 669 2431 922 
Q 2431 1156 2273 1281 
Q 2116 1406 1581 1522 
L 1381 1569 
Q 847 1681 609 1914 
Q 372 2147 372 2553 
Q 372 3047 722 3315 
Q 1072 3584 1716 3584 
Q 2034 3584 2315 3537 
Q 2597 3491 2834 3397 
z
" id="DejaVuSans-73" transform="scale(0.015625)"/>
      </defs>
      <use xlink:href="#DejaVuSans-42"/>
      <use x="68.603516" xlink:href="#DejaVuSans-2e"/>
      <use x="100.390625" xlink:href="#DejaVuSans-20"/>
      <use x="132.177734" xlink:href="#DejaVuSans-70"/>
      <use x="195.654297" xlink:href="#DejaVuSans-65"/>
      <use x="257.177734" xlink:href="#DejaVuSans-6e"/>
      <use x="320.556641" xlink:href="#DejaVuSans-64"/>
      <use x="384.033203" xlink:href="#DejaVuSans-75"/>
      <use x="447.412109" xlink:href="#DejaVuSans-6c"/>
      <use x="475.195312" xlink:href="#DejaVuSans-61"/>
      <use x="536.474609" xlink:href="#DejaVuSans-20"/>
      <use x="568.261719" xlink:href="#DejaVuSans-73"/>
      <use x="620.361328" xlink:href="#DejaVuSans-6f"/>
      <use x="681.542969" xlink:href="#DejaVuSans-75"/>
      <use x="744.921875" xlink:href="#DejaVuSans-74"/>
      <use x="784.130859" xlink:href="#DejaVuSans-68"/>
     </g>
    </g>
   </g>
  </g>
 </g>
 <defs>
  <clipPath id="pc6f9a7f90e">
   <rect height="177.408" width="177.408" x="33.403125" y="0"/>
  </clipPath>
 </defs>
</svg>
