<?xml version="1.0" encoding="UTF-8" standalone="no"?>
<!DOCTYPE svg PUBLIC "-//W3C//DTD SVG 1.1//EN"
 "http://www.w3.org/Graphics/SVG/1.1/DTD/svg11.dtd">
<!-- Generated by graphviz version 2.50.0 (0)
 -->
<!-- Title: snakemake_dag Pages: 1 -->
<svg width="944pt" height="404pt"
 viewBox="0.00 0.00 943.81 404.00" xmlns="http://www.w3.org/2000/svg" xmlns:xlink="http://www.w3.org/1999/xlink">
<g id="graph0" class="graph" transform="scale(1 1) rotate(0) translate(4 400)">
<title>snakemake_dag</title>
<polygon fill="white" stroke="transparent" points="-4,4 -4,-400 939.81,-400 939.81,4 -4,4"/>
<!-- 0 -->
<g id="node1" class="node">
<title>0</title>
<path fill="none" stroke="#d87556" stroke-width="2" d="M673.97,-36C673.97,-36 626.97,-36 626.97,-36 620.97,-36 614.97,-30 614.97,-24 614.97,-24 614.97,-12 614.97,-12 614.97,-6 620.97,0 626.97,0 626.97,0 673.97,0 673.97,0 679.97,0 685.97,-6 685.97,-12 685.97,-12 685.97,-24 685.97,-24 685.97,-30 679.97,-36 673.97,-36"/>
<text text-anchor="middle" x="650.47" y="-15.5" font-family="sans" font-size="10.00">run_all_dadi</text>
</g>
<!-- 1 -->
<g id="node2" class="node">
<title>1</title>
<path fill="none" stroke="#56c1d8" stroke-width="2" d="M696.97,-324C696.97,-324 579.97,-324 579.97,-324 573.97,-324 567.97,-318 567.97,-312 567.97,-312 567.97,-300 567.97,-300 567.97,-294 573.97,-288 579.97,-288 579.97,-288 696.97,-288 696.97,-288 702.97,-288 708.97,-294 708.97,-300 708.97,-300 708.97,-312 708.97,-312 708.97,-318 702.97,-324 696.97,-324"/>
<text text-anchor="middle" x="638.47" y="-303.5" font-family="sans" font-size="10.00">calculate_basic_stats_types</text>
</g>
<!-- 1&#45;&gt;0 -->
<g id="edge2" class="edge">
<title>1&#45;&gt;0</title>
<path fill="none" stroke="grey" stroke-width="2" d="M709.09,-293.97C773.44,-279.77 864.87,-248.23 908.47,-180 964.05,-93.02 784.26,-44.99 696.19,-27.15"/>
<polygon fill="grey" stroke="grey" stroke-width="2" points="696.67,-23.68 686.18,-25.17 695.31,-30.54 696.67,-23.68"/>
</g>
<!-- 2 -->
<g id="node3" class="node">
<title>2</title>
<path fill="none" stroke="#afd856" stroke-width="2" d="M812.47,-396C812.47,-396 738.47,-396 738.47,-396 732.47,-396 726.47,-390 726.47,-384 726.47,-384 726.47,-372 726.47,-372 726.47,-366 732.47,-360 738.47,-360 738.47,-360 812.47,-360 812.47,-360 818.47,-360 824.47,-366 824.47,-372 824.47,-372 824.47,-384 824.47,-384 824.47,-390 818.47,-396 812.47,-396"/>
<text text-anchor="middle" x="775.47" y="-375.5" font-family="sans" font-size="10.00">resource_vcf_dadi</text>
</g>
<!-- 2&#45;&gt;1 -->
<g id="edge6" class="edge">
<title>2&#45;&gt;1</title>
<path fill="none" stroke="grey" stroke-width="2" d="M741.96,-359.88C723.63,-350.51 700.73,-338.81 681.14,-328.8"/>
<polygon fill="grey" stroke="grey" stroke-width="2" points="682.61,-325.62 672.11,-324.19 679.43,-331.86 682.61,-325.62"/>
</g>
<!-- 4 -->
<g id="node5" class="node">
<title>4</title>
<path fill="none" stroke="#88d856" stroke-width="2" d="M320.97,-324C320.97,-324 171.97,-324 171.97,-324 165.97,-324 159.97,-318 159.97,-312 159.97,-312 159.97,-300 159.97,-300 159.97,-294 165.97,-288 171.97,-288 171.97,-288 320.97,-288 320.97,-288 326.97,-288 332.97,-294 332.97,-300 332.97,-300 332.97,-312 332.97,-312 332.97,-318 326.97,-324 320.97,-324"/>
<text text-anchor="middle" x="246.47" y="-303.5" font-family="sans" font-size="10.00">calculate_basic_stats_sample_sets</text>
</g>
<!-- 2&#45;&gt;4 -->
<g id="edge8" class="edge">
<title>2&#45;&gt;4</title>
<path fill="none" stroke="grey" stroke-width="2" d="M726.33,-371.85C647.71,-363.42 488.58,-345.59 343.05,-324.04"/>
<polygon fill="grey" stroke="grey" stroke-width="2" points="343.45,-320.56 333.04,-322.55 342.42,-327.49 343.45,-320.56"/>
</g>
<!-- 5 -->
<g id="node6" class="node">
<title>5</title>
<path fill="none" stroke="#569ad8" stroke-width="2" d="M766.47,-108C766.47,-108 668.47,-108 668.47,-108 662.47,-108 656.47,-102 656.47,-96 656.47,-96 656.47,-84 656.47,-84 656.47,-78 662.47,-72 668.47,-72 668.47,-72 766.47,-72 766.47,-72 772.47,-72 778.47,-78 778.47,-84 778.47,-84 778.47,-96 778.47,-96 778.47,-102 772.47,-108 766.47,-108"/>
<text text-anchor="middle" x="717.47" y="-87.5" font-family="sans" font-size="10.00">determine_cis_dadi_1D</text>
</g>
<!-- 2&#45;&gt;5 -->
<g id="edge12" class="edge">
<title>2&#45;&gt;5</title>
<path fill="none" stroke="grey" stroke-width="2" d="M824.65,-364.94C846.91,-356.97 871.52,-344.15 886.47,-324 934.5,-259.28 957.25,-208.16 908.47,-144 893.69,-124.56 836.61,-110.39 788.66,-101.62"/>
<polygon fill="grey" stroke="grey" stroke-width="2" points="789.05,-98.13 778.59,-99.83 787.82,-105.02 789.05,-98.13"/>
</g>
<!-- 6 -->
<g id="node7" class="node">
<title>6</title>
<path fill="none" stroke="#56d86b" stroke-width="2" d="M886.97,-180C886.97,-180 757.97,-180 757.97,-180 751.97,-180 745.97,-174 745.97,-168 745.97,-168 745.97,-156 745.97,-156 745.97,-150 751.97,-144 757.97,-144 757.97,-144 886.97,-144 886.97,-144 892.97,-144 898.97,-150 898.97,-156 898.97,-156 898.97,-168 898.97,-168 898.97,-174 892.97,-180 886.97,-180"/>
<text text-anchor="middle" x="822.47" y="-159.5" font-family="sans" font-size="10.00">bootstrap_pop_scenarios_dadi</text>
</g>
<!-- 2&#45;&gt;6 -->
<g id="edge15" class="edge">
<title>2&#45;&gt;6</title>
<path fill="none" stroke="grey" stroke-width="2" d="M824.03,-359.97C840.14,-351.73 856.29,-340.06 865.47,-324 889.29,-282.33 881.51,-261.24 865.47,-216 861.81,-205.68 855.18,-195.9 848.21,-187.61"/>
<polygon fill="grey" stroke="grey" stroke-width="2" points="850.8,-185.26 841.51,-180.16 845.6,-189.94 850.8,-185.26"/>
</g>
<!-- 7 -->
<g id="node8" class="node">
<title>7</title>
<path fill="none" stroke="#567bd8" stroke-width="2" d="M593.47,-252C593.47,-252 477.47,-252 477.47,-252 471.47,-252 465.47,-246 465.47,-240 465.47,-240 465.47,-228 465.47,-228 465.47,-222 471.47,-216 477.47,-216 477.47,-216 593.47,-216 593.47,-216 599.47,-216 605.47,-222 605.47,-228 605.47,-228 605.47,-240 605.47,-240 605.47,-246 599.47,-252 593.47,-252"/>
<text text-anchor="middle" x="535.47" y="-231.5" font-family="sans" font-size="10.00">determine_best_batch_dadi</text>
</g>
<!-- 2&#45;&gt;7 -->
<g id="edge18" class="edge">
<title>2&#45;&gt;7</title>
<path fill="none" stroke="grey" stroke-width="2" d="M775.74,-359.7C775.07,-339.64 770.81,-306.91 751.47,-288 732.05,-269.01 668.74,-254.89 615.65,-246.02"/>
<polygon fill="grey" stroke="grey" stroke-width="2" points="615.96,-242.52 605.52,-244.37 614.83,-249.43 615.96,-242.52"/>
</g>
<!-- 8 -->
<g id="node9" class="node">
<title>8</title>
<path fill="none" stroke="#d8bc56" stroke-width="2" d="M499.47,-324C499.47,-324 363.47,-324 363.47,-324 357.47,-324 351.47,-318 351.47,-312 351.47,-312 351.47,-300 351.47,-300 351.47,-294 357.47,-288 363.47,-288 363.47,-288 499.47,-288 499.47,-288 505.47,-288 511.47,-294 511.47,-300 511.47,-300 511.47,-312 511.47,-312 511.47,-318 505.47,-324 499.47,-324"/>
<text text-anchor="middle" x="431.47" y="-303.5" font-family="sans" font-size="10.00">fit_pop_scenarios_dadi_batches</text>
</g>
<!-- 2&#45;&gt;8 -->
<g id="edge20" class="edge">
<title>2&#45;&gt;8</title>
<path fill="none" stroke="grey" stroke-width="2" d="M726.18,-366.97C672.91,-356.13 586.85,-338.62 521.45,-325.31"/>
<polygon fill="grey" stroke="grey" stroke-width="2" points="522.05,-321.86 511.55,-323.3 520.65,-328.72 522.05,-321.86"/>
</g>
<!-- 10 -->
<g id="node11" class="node">
<title>10</title>
<path fill="none" stroke="#ced856" stroke-width="2" d="M507.47,-180C507.47,-180 409.47,-180 409.47,-180 403.47,-180 397.47,-174 397.47,-168 397.47,-168 397.47,-156 397.47,-156 397.47,-150 403.47,-144 409.47,-144 409.47,-144 507.47,-144 507.47,-144 513.47,-144 519.47,-150 519.47,-156 519.47,-156 519.47,-168 519.47,-168 519.47,-174 513.47,-180 507.47,-180"/>
<text text-anchor="middle" x="458.47" y="-159.5" font-family="sans" font-size="10.00">plot_trajectory_1D_dadi</text>
</g>
<!-- 2&#45;&gt;10 -->
<g id="edge26" class="edge">
<title>2&#45;&gt;10</title>
<path fill="none" stroke="grey" stroke-width="2" d="M780.39,-359.69C784.77,-340.51 788.52,-309.46 774.47,-288 746.69,-245.56 613.68,-203.74 529.32,-180.85"/>
<polygon fill="grey" stroke="grey" stroke-width="2" points="530.1,-177.44 519.54,-178.23 528.29,-184.2 530.1,-177.44"/>
</g>
<!-- 11 -->
<g id="node12" class="node">
<title>11</title>
<path fill="none" stroke="#68d856" stroke-width="2" d="M366.97,-180C366.97,-180 239.97,-180 239.97,-180 233.97,-180 227.97,-174 227.97,-168 227.97,-168 227.97,-156 227.97,-156 227.97,-150 233.97,-144 239.97,-144 239.97,-144 366.97,-144 366.97,-144 372.97,-144 378.97,-150 378.97,-156 378.97,-156 378.97,-168 378.97,-168 378.97,-174 372.97,-180 366.97,-180"/>
<text text-anchor="middle" x="303.47" y="-159.5" font-family="sans" font-size="10.00">plot_sfs_comparison_dadi_1D</text>
</g>
<!-- 2&#45;&gt;11 -->
<g id="edge29" class="edge">
<title>2&#45;&gt;11</title>
<path fill="none" stroke="grey" stroke-width="2" d="M766.65,-359.7C754.41,-336.39 732.23,-296.8 718.47,-288 619.44,-224.69 567.6,-290.28 456.47,-252 411.12,-236.38 364.19,-206.72 334.47,-185.95"/>
<polygon fill="grey" stroke="grey" stroke-width="2" points="336.37,-183.01 326.19,-180.08 332.32,-188.72 336.37,-183.01"/>
</g>
<!-- 12 -->
<g id="node13" class="node">
<title>12</title>
<path fill="none" stroke="#56d8a9" stroke-width="2" d="M676.97,-180C676.97,-180 549.97,-180 549.97,-180 543.97,-180 537.97,-174 537.97,-168 537.97,-168 537.97,-156 537.97,-156 537.97,-150 543.97,-144 549.97,-144 549.97,-144 676.97,-144 676.97,-144 682.97,-144 688.97,-150 688.97,-156 688.97,-156 688.97,-168 688.97,-168 688.97,-174 682.97,-180 676.97,-180"/>
<text text-anchor="middle" x="613.47" y="-159.5" font-family="sans" font-size="10.00">plot_sfs_comparison_dadi_2D</text>
</g>
<!-- 2&#45;&gt;12 -->
<g id="edge32" class="edge">
<title>2&#45;&gt;12</title>
<path fill="none" stroke="grey" stroke-width="2" d="M799.22,-359.91C810.02,-350.65 821.67,-338.2 827.47,-324 845.63,-279.57 857.05,-253.8 827.47,-216 811.35,-195.4 751.43,-181.69 699.08,-173.38"/>
<polygon fill="grey" stroke="grey" stroke-width="2" points="699.49,-169.9 689.07,-171.84 698.42,-176.82 699.49,-169.9"/>
</g>
<!-- 3 -->
<g id="node4" class="node">
<title>3</title>
<path fill="none" stroke="#56d8d0" stroke-width="2" d="M204.97,-396C204.97,-396 57.97,-396 57.97,-396 51.97,-396 45.97,-390 45.97,-384 45.97,-384 45.97,-372 45.97,-372 45.97,-366 51.97,-360 57.97,-360 57.97,-360 204.97,-360 204.97,-360 210.97,-360 216.97,-366 216.97,-372 216.97,-372 216.97,-384 216.97,-384 216.97,-390 210.97,-396 204.97,-396"/>
<text text-anchor="middle" x="131.47" y="-375.5" font-family="sans" font-size="10.00">resource_subpopulation_files_dadi</text>
</g>
<!-- 3&#45;&gt;1 -->
<g id="edge5" class="edge">
<title>3&#45;&gt;1</title>
<path fill="none" stroke="grey" stroke-width="2" d="M217,-368.1C302.44,-358.77 437.4,-342.87 553.47,-324 554.76,-323.79 556.07,-323.57 557.38,-323.35"/>
<polygon fill="grey" stroke="grey" stroke-width="2" points="558.33,-326.74 567.58,-321.58 557.13,-319.85 558.33,-326.74"/>
</g>
<!-- 3&#45;&gt;4 -->
<g id="edge7" class="edge">
<title>3&#45;&gt;4</title>
<path fill="none" stroke="grey" stroke-width="2" d="M159.6,-359.88C174.64,-350.72 193.34,-339.34 209.53,-329.48"/>
<polygon fill="grey" stroke="grey" stroke-width="2" points="211.51,-332.38 218.23,-324.19 207.87,-326.4 211.51,-332.38"/>
</g>
<!-- 3&#45;&gt;5 -->
<g id="edge9" class="edge">
<title>3&#45;&gt;5</title>
<path fill="none" stroke="grey" stroke-width="2" d="M67.22,-359.9C49.45,-351.94 32.13,-340.46 21.47,-324 -4.63,-283.71 -8.1,-255.3 19.47,-216 73.49,-139.01 126.74,-164.76 218.47,-144 377.89,-107.92 422.05,-126.36 584.47,-108 604.55,-105.73 626.31,-103.04 646.3,-100.48"/>
<polygon fill="grey" stroke="grey" stroke-width="2" points="646.8,-103.95 656.27,-99.2 645.9,-97.01 646.8,-103.95"/>
</g>
<!-- 3&#45;&gt;6 -->
<g id="edge13" class="edge">
<title>3&#45;&gt;6</title>
<path fill="none" stroke="grey" stroke-width="2" d="M217.23,-371.34C315.08,-363.83 468.29,-348.59 520.47,-324 541.81,-313.94 539.93,-301.21 559.47,-288 626.04,-242.99 711.34,-205.68 766.44,-183.86"/>
<polygon fill="grey" stroke="grey" stroke-width="2" points="768,-187.01 776.03,-180.1 765.44,-180.5 768,-187.01"/>
</g>
<!-- 3&#45;&gt;7 -->
<g id="edge16" class="edge">
<title>3&#45;&gt;7</title>
<path fill="none" stroke="grey" stroke-width="2" d="M129.8,-359.81C128.87,-339.53 130.79,-306.28 150.47,-288 193.42,-248.1 355.47,-237.95 455.13,-235.54"/>
<polygon fill="grey" stroke="grey" stroke-width="2" points="455.25,-239.04 465.17,-235.32 455.1,-232.04 455.25,-239.04"/>
</g>
<!-- 3&#45;&gt;8 -->
<g id="edge19" class="edge">
<title>3&#45;&gt;8</title>
<path fill="none" stroke="grey" stroke-width="2" d="M204.47,-359.97C248.02,-349.8 303.45,-336.87 348.63,-326.33"/>
<polygon fill="grey" stroke="grey" stroke-width="2" points="349.46,-329.73 358.4,-324.05 347.86,-322.91 349.46,-329.73"/>
</g>
<!-- 3&#45;&gt;10 -->
<g id="edge24" class="edge">
<title>3&#45;&gt;10</title>
<path fill="none" stroke="grey" stroke-width="2" d="M107.72,-359.91C96.92,-350.65 85.27,-338.2 79.47,-324 61.31,-279.57 47.55,-251.85 79.47,-216 123.55,-166.48 304.68,-190.03 387.09,-179.85"/>
<polygon fill="grey" stroke="grey" stroke-width="2" points="387.73,-183.3 397.1,-178.35 386.69,-176.37 387.73,-183.3"/>
</g>
<!-- 3&#45;&gt;11 -->
<g id="edge27" class="edge">
<title>3&#45;&gt;11</title>
<path fill="none" stroke="grey" stroke-width="2" d="M82.91,-359.97C66.8,-351.73 50.65,-340.06 41.47,-324 17.65,-282.33 11.08,-253.15 41.47,-216 63.55,-189.01 150,-175.44 217.63,-168.84"/>
<polygon fill="grey" stroke="grey" stroke-width="2" points="218.26,-172.3 227.89,-167.88 217.6,-165.33 218.26,-172.3"/>
</g>
<!-- 3&#45;&gt;12 -->
<g id="edge30" class="edge">
<title>3&#45;&gt;12</title>
<path fill="none" stroke="grey" stroke-width="2" d="M125.29,-359.96C119.4,-340.44 113.57,-308.53 129.47,-288 141.84,-272.03 392.31,-213.15 527.94,-182.24"/>
<polygon fill="grey" stroke="grey" stroke-width="2" points="528.93,-185.61 537.9,-179.97 527.37,-178.78 528.93,-185.61"/>
</g>
<!-- 4&#45;&gt;0 -->
<g id="edge4" class="edge">
<title>4&#45;&gt;0</title>
<path fill="none" stroke="grey" stroke-width="2" d="M235.85,-287.79C217.78,-256.05 186.01,-187.57 218.47,-144 265.2,-81.27 503.42,-40.16 604.75,-25.26"/>
<polygon fill="grey" stroke="grey" stroke-width="2" points="605.3,-28.71 614.7,-23.81 604.3,-21.79 605.3,-28.71"/>
</g>
<!-- 5&#45;&gt;0 -->
<g id="edge3" class="edge">
<title>5&#45;&gt;0</title>
<path fill="none" stroke="grey" stroke-width="2" d="M700.91,-71.7C692.79,-63.22 682.88,-52.86 674,-43.58"/>
<polygon fill="grey" stroke="grey" stroke-width="2" points="676.28,-40.91 666.84,-36.1 671.23,-45.75 676.28,-40.91"/>
</g>
<!-- 6&#45;&gt;5 -->
<g id="edge10" class="edge">
<title>6&#45;&gt;5</title>
<path fill="none" stroke="grey" stroke-width="2" d="M796.78,-143.88C783.18,-134.81 766.3,-123.55 751.61,-113.76"/>
<polygon fill="grey" stroke="grey" stroke-width="2" points="753.52,-110.82 743.25,-108.19 749.63,-116.65 753.52,-110.82"/>
</g>
<!-- 7&#45;&gt;5 -->
<g id="edge11" class="edge">
<title>7&#45;&gt;5</title>
<path fill="none" stroke="grey" stroke-width="2" d="M605.65,-217.56C643.69,-207.81 685.52,-194.37 698.47,-180 713.46,-163.36 717.68,-137.86 718.45,-118.42"/>
<polygon fill="grey" stroke="grey" stroke-width="2" points="721.95,-118.37 718.58,-108.33 714.95,-118.29 721.95,-118.37"/>
</g>
<!-- 7&#45;&gt;6 -->
<g id="edge14" class="edge">
<title>7&#45;&gt;6</title>
<path fill="none" stroke="grey" stroke-width="2" d="M605.31,-215.97C646.72,-205.87 699.35,-193.03 742.43,-182.52"/>
<polygon fill="grey" stroke="grey" stroke-width="2" points="743.43,-185.88 752.32,-180.11 741.77,-179.08 743.43,-185.88"/>
</g>
<!-- 7&#45;&gt;10 -->
<g id="edge25" class="edge">
<title>7&#45;&gt;10</title>
<path fill="none" stroke="grey" stroke-width="2" d="M516.44,-215.7C506.93,-207.05 495.26,-196.45 484.9,-187.03"/>
<polygon fill="grey" stroke="grey" stroke-width="2" points="487.04,-184.24 477.28,-180.1 482.33,-189.42 487.04,-184.24"/>
</g>
<!-- 7&#45;&gt;11 -->
<g id="edge28" class="edge">
<title>7&#45;&gt;11</title>
<path fill="none" stroke="grey" stroke-width="2" d="M479.01,-215.97C446.17,-206.06 404.6,-193.51 370.16,-183.12"/>
<polygon fill="grey" stroke="grey" stroke-width="2" points="370.76,-179.65 360.18,-180.11 368.74,-186.35 370.76,-179.65"/>
</g>
<!-- 7&#45;&gt;12 -->
<g id="edge31" class="edge">
<title>7&#45;&gt;12</title>
<path fill="none" stroke="grey" stroke-width="2" d="M554.75,-215.7C564.39,-207.05 576.2,-196.45 586.7,-187.03"/>
<polygon fill="grey" stroke="grey" stroke-width="2" points="589.31,-189.39 594.41,-180.1 584.63,-184.18 589.31,-189.39"/>
</g>
<!-- 8&#45;&gt;7 -->
<g id="edge17" class="edge">
<title>8&#45;&gt;7</title>
<path fill="none" stroke="grey" stroke-width="2" d="M456.91,-287.88C470.26,-278.89 486.79,-267.76 501.25,-258.03"/>
<polygon fill="grey" stroke="grey" stroke-width="2" points="503.59,-260.68 509.93,-252.19 499.68,-254.87 503.59,-260.68"/>
</g>
<!-- 9 -->
<g id="node10" class="node">
<title>9</title>
<path fill="none" stroke="#d85656" stroke-width="2" d="M562.97,-108C562.97,-108 479.97,-108 479.97,-108 473.97,-108 467.97,-102 467.97,-96 467.97,-96 467.97,-84 467.97,-84 467.97,-78 473.97,-72 479.97,-72 479.97,-72 562.97,-72 562.97,-72 568.97,-72 574.97,-78 574.97,-84 574.97,-84 574.97,-96 574.97,-96 574.97,-102 568.97,-108 562.97,-108"/>
<text text-anchor="middle" x="521.47" y="-87.5" font-family="sans" font-size="10.00">convert_svg_to_png</text>
</g>
<!-- 9&#45;&gt;0 -->
<g id="edge1" class="edge">
<title>9&#45;&gt;0</title>
<path fill="none" stroke="grey" stroke-width="2" d="M553.03,-71.88C570.13,-62.6 591.45,-51.03 609.79,-41.08"/>
<polygon fill="grey" stroke="grey" stroke-width="2" points="611.67,-44.04 618.79,-36.19 608.33,-37.88 611.67,-44.04"/>
</g>
<!-- 10&#45;&gt;9 -->
<g id="edge22" class="edge">
<title>10&#45;&gt;9</title>
<path fill="none" stroke="grey" stroke-width="2" d="M474.04,-143.7C481.67,-135.22 490.99,-124.86 499.35,-115.58"/>
<polygon fill="grey" stroke="grey" stroke-width="2" points="501.99,-117.88 506.08,-108.1 496.78,-113.2 501.99,-117.88"/>
</g>
<!-- 11&#45;&gt;9 -->
<g id="edge21" class="edge">
<title>11&#45;&gt;9</title>
<path fill="none" stroke="grey" stroke-width="2" d="M356.52,-143.97C387.24,-134.1 426.11,-121.62 458.39,-111.25"/>
<polygon fill="grey" stroke="grey" stroke-width="2" points="459.73,-114.5 468.18,-108.11 457.59,-107.84 459.73,-114.5"/>
</g>
<!-- 12&#45;&gt;9 -->
<g id="edge23" class="edge">
<title>12&#45;&gt;9</title>
<path fill="none" stroke="grey" stroke-width="2" d="M590.73,-143.7C579.03,-134.8 564.61,-123.82 551.96,-114.2"/>
<polygon fill="grey" stroke="grey" stroke-width="2" points="554.03,-111.37 543.95,-108.1 549.79,-116.94 554.03,-111.37"/>
</g>
</g>
</svg>
