<?xml version="1.0" encoding="UTF-8" standalone="no"?>
<!DOCTYPE svg PUBLIC "-//W3C//DTD SVG 1.1//EN"
 "http://www.w3.org/Graphics/SVG/1.1/DTD/svg11.dtd">
<!-- Generated by graphviz version 2.50.0 (0)
 -->
<!-- Title: snakemake_dag Pages: 1 -->
<svg width="806pt" height="332pt"
 viewBox="0.00 0.00 806.00 332.00" xmlns="http://www.w3.org/2000/svg" xmlns:xlink="http://www.w3.org/1999/xlink">
<g id="graph0" class="graph" transform="scale(1 1) rotate(0) translate(4 328)">
<title>snakemake_dag</title>
<polygon fill="white" stroke="transparent" points="-4,4 -4,-328 802,-328 802,4 -4,4"/>
<!-- 0 -->
<g id="node1" class="node">
<title>0</title>
<path fill="none" stroke="#80d856" stroke-width="2" d="M446,-36C446,-36 406,-36 406,-36 400,-36 394,-30 394,-24 394,-24 394,-12 394,-12 394,-6 400,0 406,0 406,0 446,0 446,0 452,0 458,-6 458,-12 458,-12 458,-24 458,-24 458,-30 452,-36 446,-36"/>
<text text-anchor="middle" x="426" y="-15.5" font-family="sans" font-size="10.00">run_feems</text>
</g>
<!-- 1 -->
<g id="node2" class="node">
<title>1</title>
<path fill="none" stroke="#d88556" stroke-width="2" d="M467.5,-108C467.5,-108 384.5,-108 384.5,-108 378.5,-108 372.5,-102 372.5,-96 372.5,-96 372.5,-84 372.5,-84 372.5,-78 378.5,-72 384.5,-72 384.5,-72 467.5,-72 467.5,-72 473.5,-72 479.5,-78 479.5,-84 479.5,-84 479.5,-96 479.5,-96 479.5,-102 473.5,-108 467.5,-108"/>
<text text-anchor="middle" x="426" y="-87.5" font-family="sans" font-size="10.00">convert_svg_to_png</text>
</g>
<!-- 1&#45;&gt;0 -->
<g id="edge1" class="edge">
<title>1&#45;&gt;0</title>
<path fill="none" stroke="grey" stroke-width="2" d="M426,-71.7C426,-63.98 426,-54.71 426,-46.11"/>
<polygon fill="grey" stroke="grey" stroke-width="2" points="429.5,-46.1 426,-36.1 422.5,-46.1 429.5,-46.1"/>
</g>
<!-- 2 -->
<g id="node3" class="node">
<title>2</title>
<path fill="none" stroke="#5682d8" stroke-width="2" d="M584,-180C584,-180 462,-180 462,-180 456,-180 450,-174 450,-168 450,-168 450,-156 450,-156 450,-150 456,-144 462,-144 462,-144 584,-144 584,-144 590,-144 596,-150 596,-156 596,-156 596,-168 596,-168 596,-174 590,-180 584,-180"/>
<text text-anchor="middle" x="523" y="-159.5" font-family="sans" font-size="10.00">calculate_migration_surfaces</text>
</g>
<!-- 2&#45;&gt;1 -->
<g id="edge2" class="edge">
<title>2&#45;&gt;1</title>
<path fill="none" stroke="grey" stroke-width="2" d="M499.02,-143.7C486.69,-134.8 471.48,-123.82 458.15,-114.2"/>
<polygon fill="grey" stroke="grey" stroke-width="2" points="459.86,-111.12 449.7,-108.1 455.76,-116.79 459.86,-111.12"/>
</g>
<!-- 3 -->
<g id="node4" class="node">
<title>3</title>
<path fill="none" stroke="#d85656" stroke-width="2" d="M400,-252C400,-252 292,-252 292,-252 286,-252 280,-246 280,-240 280,-240 280,-228 280,-228 280,-222 286,-216 292,-216 292,-216 400,-216 400,-216 406,-216 412,-222 412,-228 412,-228 412,-240 412,-240 412,-246 406,-252 400,-252"/>
<text text-anchor="middle" x="346" y="-231.5" font-family="sans" font-size="10.00">convert_plink_sample_set</text>
</g>
<!-- 3&#45;&gt;2 -->
<g id="edge6" class="edge">
<title>3&#45;&gt;2</title>
<path fill="none" stroke="grey" stroke-width="2" d="M389.3,-215.88C413.71,-206.22 444.4,-194.09 470.21,-183.88"/>
<polygon fill="grey" stroke="grey" stroke-width="2" points="471.83,-187 479.84,-180.07 469.26,-180.49 471.83,-187"/>
</g>
<!-- 6 -->
<g id="node7" class="node">
<title>6</title>
<path fill="none" stroke="#56d882" stroke-width="2" d="M786,-180C786,-180 626,-180 626,-180 620,-180 614,-174 614,-168 614,-168 614,-156 614,-156 614,-150 620,-144 626,-144 626,-144 786,-144 786,-144 792,-144 798,-150 798,-156 798,-156 798,-168 798,-168 798,-174 792,-180 786,-180"/>
<text text-anchor="middle" x="706" y="-159.5" font-family="sans" font-size="10.00">calculate_migration_surfaces_lambda</text>
</g>
<!-- 3&#45;&gt;6 -->
<g id="edge9" class="edge">
<title>3&#45;&gt;6</title>
<path fill="none" stroke="grey" stroke-width="2" d="M412.02,-219.57C418.1,-218.36 424.16,-217.15 430,-216 488.35,-204.49 553.71,-191.93 606.17,-181.92"/>
<polygon fill="grey" stroke="grey" stroke-width="2" points="606.98,-185.33 616.15,-180.02 605.67,-178.45 606.98,-185.33"/>
</g>
<!-- 7 -->
<g id="node8" class="node">
<title>7</title>
<path fill="none" stroke="#56a9d8" stroke-width="2" d="M196,-180C196,-180 12,-180 12,-180 6,-180 0,-174 0,-168 0,-168 0,-156 0,-156 0,-150 6,-144 12,-144 12,-144 196,-144 196,-144 202,-144 208,-150 208,-156 208,-156 208,-168 208,-168 208,-174 202,-180 196,-180"/>
<text text-anchor="middle" x="104" y="-159.5" font-family="sans" font-size="10.00">plot_migration_surfaces_sample_allocation</text>
</g>
<!-- 3&#45;&gt;7 -->
<g id="edge11" class="edge">
<title>3&#45;&gt;7</title>
<path fill="none" stroke="grey" stroke-width="2" d="M287.11,-215.97C252.71,-206.01 209.12,-193.41 173.1,-182.99"/>
<polygon fill="grey" stroke="grey" stroke-width="2" points="173.73,-179.53 163.15,-180.11 171.79,-186.25 173.73,-179.53"/>
</g>
<!-- 8 -->
<g id="node9" class="node">
<title>8</title>
<path fill="none" stroke="#59d856" stroke-width="2" d="M419.5,-180C419.5,-180 238.5,-180 238.5,-180 232.5,-180 226.5,-174 226.5,-168 226.5,-168 226.5,-156 226.5,-156 226.5,-150 232.5,-144 238.5,-144 238.5,-144 419.5,-144 419.5,-144 425.5,-144 431.5,-150 431.5,-156 431.5,-156 431.5,-168 431.5,-168 431.5,-174 425.5,-180 419.5,-180"/>
<text text-anchor="middle" x="329" y="-159.5" font-family="sans" font-size="10.00">plot_migration_surfaces_sample_locations</text>
</g>
<!-- 3&#45;&gt;8 -->
<g id="edge13" class="edge">
<title>3&#45;&gt;8</title>
<path fill="none" stroke="grey" stroke-width="2" d="M341.8,-215.7C339.9,-207.9 337.62,-198.51 335.52,-189.83"/>
<polygon fill="grey" stroke="grey" stroke-width="2" points="338.92,-189 333.15,-180.1 332.11,-190.65 338.92,-189"/>
</g>
<!-- 4 -->
<g id="node5" class="node">
<title>4</title>
<path fill="none" stroke="#d6d856" stroke-width="2" d="M390,-324C390,-324 302,-324 302,-324 296,-324 290,-318 290,-312 290,-312 290,-300 290,-300 290,-294 296,-288 302,-288 302,-288 390,-288 390,-288 396,-288 402,-294 402,-300 402,-300 402,-312 402,-312 402,-318 396,-324 390,-324"/>
<text text-anchor="middle" x="346" y="-303.5" font-family="sans" font-size="10.00">resource_vcfs_feems</text>
</g>
<!-- 4&#45;&gt;3 -->
<g id="edge8" class="edge">
<title>4&#45;&gt;3</title>
<path fill="none" stroke="grey" stroke-width="2" d="M346,-287.7C346,-279.98 346,-270.71 346,-262.11"/>
<polygon fill="grey" stroke="grey" stroke-width="2" points="349.5,-262.1 346,-252.1 342.5,-262.1 349.5,-262.1"/>
</g>
<!-- 5 -->
<g id="node6" class="node">
<title>5</title>
<path fill="none" stroke="#56d8d8" stroke-width="2" d="M577,-252C577,-252 451,-252 451,-252 445,-252 439,-246 439,-240 439,-240 439,-228 439,-228 439,-222 445,-216 451,-216 451,-216 577,-216 577,-216 583,-216 589,-222 589,-228 589,-228 589,-240 589,-240 589,-246 583,-252 577,-252"/>
<text text-anchor="middle" x="514" y="-231.5" font-family="sans" font-size="10.00">resource_sample_sets_feems</text>
</g>
<!-- 5&#45;&gt;2 -->
<g id="edge7" class="edge">
<title>5&#45;&gt;2</title>
<path fill="none" stroke="grey" stroke-width="2" d="M516.22,-215.7C517.22,-207.98 518.41,-198.71 519.51,-190.11"/>
<polygon fill="grey" stroke="grey" stroke-width="2" points="523,-190.47 520.8,-180.1 516.05,-189.58 523,-190.47"/>
</g>
<!-- 5&#45;&gt;6 -->
<g id="edge10" class="edge">
<title>5&#45;&gt;6</title>
<path fill="none" stroke="grey" stroke-width="2" d="M560.97,-215.88C587.68,-206.14 621.32,-193.87 649.47,-183.61"/>
<polygon fill="grey" stroke="grey" stroke-width="2" points="650.99,-186.78 659.18,-180.07 648.59,-180.21 650.99,-186.78"/>
</g>
<!-- 5&#45;&gt;7 -->
<g id="edge12" class="edge">
<title>5&#45;&gt;7</title>
<path fill="none" stroke="grey" stroke-width="2" d="M438.9,-219.17C432.84,-218.09 426.82,-217.02 421,-216 353.84,-204.25 278.56,-191.64 218.23,-181.67"/>
<polygon fill="grey" stroke="grey" stroke-width="2" points="218.73,-178.2 208.29,-180.03 217.59,-185.11 218.73,-178.2"/>
</g>
<!-- 5&#45;&gt;8 -->
<g id="edge14" class="edge">
<title>5&#45;&gt;8</title>
<path fill="none" stroke="grey" stroke-width="2" d="M468.74,-215.88C443,-206.14 410.59,-193.87 383.46,-183.61"/>
<polygon fill="grey" stroke="grey" stroke-width="2" points="384.7,-180.33 374.11,-180.07 382.22,-186.88 384.7,-180.33"/>
</g>
<!-- 6&#45;&gt;1 -->
<g id="edge5" class="edge">
<title>6&#45;&gt;1</title>
<path fill="none" stroke="grey" stroke-width="2" d="M637.86,-143.97C592.71,-132.68 533.89,-117.97 489.68,-106.92"/>
<polygon fill="grey" stroke="grey" stroke-width="2" points="490.46,-103.51 479.91,-104.48 488.76,-110.3 490.46,-103.51"/>
</g>
<!-- 7&#45;&gt;1 -->
<g id="edge4" class="edge">
<title>7&#45;&gt;1</title>
<path fill="none" stroke="grey" stroke-width="2" d="M182.36,-143.97C237.51,-131.98 310.41,-116.13 362.05,-104.9"/>
<polygon fill="grey" stroke="grey" stroke-width="2" points="363.06,-108.27 372.08,-102.72 361.57,-101.42 363.06,-108.27"/>
</g>
<!-- 8&#45;&gt;1 -->
<g id="edge3" class="edge">
<title>8&#45;&gt;1</title>
<path fill="none" stroke="grey" stroke-width="2" d="M352.98,-143.7C365.31,-134.8 380.52,-123.82 393.85,-114.2"/>
<polygon fill="grey" stroke="grey" stroke-width="2" points="396.24,-116.79 402.3,-108.1 392.14,-111.12 396.24,-116.79"/>
</g>
</g>
</svg>
