<?xml version="1.0" encoding="UTF-8" standalone="no"?>
<!DOCTYPE svg PUBLIC "-//W3C//DTD SVG 1.1//EN"
 "http://www.w3.org/Graphics/SVG/1.1/DTD/svg11.dtd">
<!-- Generated by graphviz version 2.50.0 (0)
 -->
<!-- Title: snakemake_dag Pages: 1 -->
<svg width="414pt" height="332pt"
 viewBox="0.00 0.00 413.50 332.00" xmlns="http://www.w3.org/2000/svg" xmlns:xlink="http://www.w3.org/1999/xlink">
<g id="graph0" class="graph" transform="scale(1 1) rotate(0) translate(4 328)">
<title>snakemake_dag</title>
<polygon fill="white" stroke="transparent" points="-4,4 -4,-328 409.5,-328 409.5,4 -4,4"/>
<!-- 0 -->
<g id="node1" class="node">
<title>0</title>
<path fill="none" stroke="#5682d8" stroke-width="2" d="M218,-36C218,-36 188,-36 188,-36 182,-36 176,-30 176,-24 176,-24 176,-12 176,-12 176,-6 182,0 188,0 188,0 218,0 218,0 224,0 230,-6 230,-12 230,-12 230,-24 230,-24 230,-30 224,-36 218,-36"/>
<text text-anchor="middle" x="203" y="-15.5" font-family="sans" font-size="10.00">run_pca</text>
</g>
<!-- 1 -->
<g id="node2" class="node">
<title>1</title>
<path fill="none" stroke="#d8ac56" stroke-width="2" d="M244.5,-108C244.5,-108 161.5,-108 161.5,-108 155.5,-108 149.5,-102 149.5,-96 149.5,-96 149.5,-84 149.5,-84 149.5,-78 155.5,-72 161.5,-72 161.5,-72 244.5,-72 244.5,-72 250.5,-72 256.5,-78 256.5,-84 256.5,-84 256.5,-96 256.5,-96 256.5,-102 250.5,-108 244.5,-108"/>
<text text-anchor="middle" x="203" y="-87.5" font-family="sans" font-size="10.00">convert_svg_to_png</text>
</g>
<!-- 1&#45;&gt;0 -->
<g id="edge1" class="edge">
<title>1&#45;&gt;0</title>
<path fill="none" stroke="grey" stroke-width="2" d="M203,-71.7C203,-63.98 203,-54.71 203,-46.11"/>
<polygon fill="grey" stroke="grey" stroke-width="2" points="206.5,-46.1 203,-36.1 199.5,-46.1 206.5,-46.1"/>
</g>
<!-- 2 -->
<g id="node3" class="node">
<title>2</title>
<path fill="none" stroke="#56d882" stroke-width="2" d="M264,-180C264,-180 234,-180 234,-180 228,-180 222,-174 222,-168 222,-168 222,-156 222,-156 222,-150 228,-144 234,-144 234,-144 264,-144 264,-144 270,-144 276,-150 276,-156 276,-156 276,-168 276,-168 276,-174 270,-180 264,-180"/>
<text text-anchor="middle" x="249" y="-159.5" font-family="sans" font-size="10.00">plot_pca</text>
</g>
<!-- 2&#45;&gt;1 -->
<g id="edge2" class="edge">
<title>2&#45;&gt;1</title>
<path fill="none" stroke="grey" stroke-width="2" d="M237.63,-143.7C232.28,-135.56 225.8,-125.69 219.89,-116.7"/>
<polygon fill="grey" stroke="grey" stroke-width="2" points="222.66,-114.54 214.24,-108.1 216.81,-118.38 222.66,-114.54"/>
</g>
<!-- 3 -->
<g id="node4" class="node">
<title>3</title>
<path fill="none" stroke="#d88556" stroke-width="2" d="M180,-252C180,-252 72,-252 72,-252 66,-252 60,-246 60,-240 60,-240 60,-228 60,-228 60,-222 66,-216 72,-216 72,-216 180,-216 180,-216 186,-216 192,-222 192,-228 192,-228 192,-240 192,-240 192,-246 186,-252 180,-252"/>
<text text-anchor="middle" x="126" y="-231.5" font-family="sans" font-size="10.00">convert_plink_sample_set</text>
</g>
<!-- 3&#45;&gt;2 -->
<g id="edge6" class="edge">
<title>3&#45;&gt;2</title>
<path fill="none" stroke="grey" stroke-width="2" d="M156.09,-215.88C173.17,-206.16 194.67,-193.92 212.68,-183.67"/>
<polygon fill="grey" stroke="grey" stroke-width="2" points="214.78,-186.5 221.74,-178.51 211.32,-180.42 214.78,-186.5"/>
</g>
<!-- 6 -->
<g id="node7" class="node">
<title>6</title>
<path fill="none" stroke="#d85656" stroke-width="2" d="M393.5,-180C393.5,-180 306.5,-180 306.5,-180 300.5,-180 294.5,-174 294.5,-168 294.5,-168 294.5,-156 294.5,-156 294.5,-150 300.5,-144 306.5,-144 306.5,-144 393.5,-144 393.5,-144 399.5,-144 405.5,-150 405.5,-156 405.5,-156 405.5,-168 405.5,-168 405.5,-174 399.5,-180 393.5,-180"/>
<text text-anchor="middle" x="350" y="-159.5" font-family="sans" font-size="10.00">plot_pca_tight_layout</text>
</g>
<!-- 3&#45;&gt;6 -->
<g id="edge9" class="edge">
<title>3&#45;&gt;6</title>
<path fill="none" stroke="grey" stroke-width="2" d="M180.51,-215.97C212.22,-206.06 252.36,-193.51 285.61,-183.12"/>
<polygon fill="grey" stroke="grey" stroke-width="2" points="286.74,-186.43 295.25,-180.11 284.66,-179.75 286.74,-186.43"/>
</g>
<!-- 7 -->
<g id="node8" class="node">
<title>7</title>
<path fill="none" stroke="#d6d856" stroke-width="2" d="M80,-180C80,-180 12,-180 12,-180 6,-180 0,-174 0,-168 0,-168 0,-156 0,-156 0,-150 6,-144 12,-144 12,-144 80,-144 80,-144 86,-144 92,-150 92,-156 92,-156 92,-168 92,-168 92,-174 86,-180 80,-180"/>
<text text-anchor="middle" x="46" y="-159.5" font-family="sans" font-size="10.00">plot_pca_labeled</text>
</g>
<!-- 3&#45;&gt;7 -->
<g id="edge11" class="edge">
<title>3&#45;&gt;7</title>
<path fill="none" stroke="grey" stroke-width="2" d="M106.22,-215.7C96.25,-206.97 83.99,-196.24 73.14,-186.75"/>
<polygon fill="grey" stroke="grey" stroke-width="2" points="75.38,-184.06 65.55,-180.1 70.77,-189.32 75.38,-184.06"/>
</g>
<!-- 8 -->
<g id="node9" class="node">
<title>8</title>
<path fill="none" stroke="#56d8a9" stroke-width="2" d="M191.5,-180C191.5,-180 122.5,-180 122.5,-180 116.5,-180 110.5,-174 110.5,-168 110.5,-168 110.5,-156 110.5,-156 110.5,-150 116.5,-144 122.5,-144 122.5,-144 191.5,-144 191.5,-144 197.5,-144 203.5,-150 203.5,-156 203.5,-156 203.5,-168 203.5,-168 203.5,-174 197.5,-180 191.5,-180"/>
<text text-anchor="middle" x="157" y="-159.5" font-family="sans" font-size="10.00">plot_pca_marked</text>
</g>
<!-- 3&#45;&gt;8 -->
<g id="edge13" class="edge">
<title>3&#45;&gt;8</title>
<path fill="none" stroke="grey" stroke-width="2" d="M133.66,-215.7C137.19,-207.73 141.46,-198.1 145.37,-189.26"/>
<polygon fill="grey" stroke="grey" stroke-width="2" points="148.58,-190.67 149.43,-180.1 142.18,-187.83 148.58,-190.67"/>
</g>
<!-- 4 -->
<g id="node5" class="node">
<title>4</title>
<path fill="none" stroke="#80d856" stroke-width="2" d="M164,-324C164,-324 88,-324 88,-324 82,-324 76,-318 76,-312 76,-312 76,-300 76,-300 76,-294 82,-288 88,-288 88,-288 164,-288 164,-288 170,-288 176,-294 176,-300 176,-300 176,-312 176,-312 176,-318 170,-324 164,-324"/>
<text text-anchor="middle" x="126" y="-303.5" font-family="sans" font-size="10.00">resource_vcfs_pca</text>
</g>
<!-- 4&#45;&gt;3 -->
<g id="edge8" class="edge">
<title>4&#45;&gt;3</title>
<path fill="none" stroke="grey" stroke-width="2" d="M126,-287.7C126,-279.98 126,-270.71 126,-262.11"/>
<polygon fill="grey" stroke="grey" stroke-width="2" points="129.5,-262.1 126,-252.1 122.5,-262.1 129.5,-262.1"/>
</g>
<!-- 5 -->
<g id="node6" class="node">
<title>5</title>
<path fill="none" stroke="#afd856" stroke-width="2" d="M337.5,-252C337.5,-252 222.5,-252 222.5,-252 216.5,-252 210.5,-246 210.5,-240 210.5,-240 210.5,-228 210.5,-228 210.5,-222 216.5,-216 222.5,-216 222.5,-216 337.5,-216 337.5,-216 343.5,-216 349.5,-222 349.5,-228 349.5,-228 349.5,-240 349.5,-240 349.5,-246 343.5,-252 337.5,-252"/>
<text text-anchor="middle" x="280" y="-231.5" font-family="sans" font-size="10.00">resource_sample_sets_pca</text>
</g>
<!-- 5&#45;&gt;2 -->
<g id="edge7" class="edge">
<title>5&#45;&gt;2</title>
<path fill="none" stroke="grey" stroke-width="2" d="M272.34,-215.7C268.81,-207.73 264.54,-198.1 260.63,-189.26"/>
<polygon fill="grey" stroke="grey" stroke-width="2" points="263.82,-187.83 256.57,-180.1 257.42,-190.67 263.82,-187.83"/>
</g>
<!-- 5&#45;&gt;6 -->
<g id="edge10" class="edge">
<title>5&#45;&gt;6</title>
<path fill="none" stroke="grey" stroke-width="2" d="M297.3,-215.7C305.86,-207.14 316.34,-196.66 325.7,-187.3"/>
<polygon fill="grey" stroke="grey" stroke-width="2" points="328.3,-189.65 332.9,-180.1 323.35,-184.7 328.3,-189.65"/>
</g>
<!-- 5&#45;&gt;7 -->
<g id="edge12" class="edge">
<title>5&#45;&gt;7</title>
<path fill="none" stroke="grey" stroke-width="2" d="M221.91,-215.99C189.18,-206.36 147.33,-193.98 101.94,-180.27"/>
<polygon fill="grey" stroke="grey" stroke-width="2" points="102.79,-176.87 92.2,-177.32 100.76,-183.57 102.79,-176.87"/>
</g>
<!-- 5&#45;&gt;8 -->
<g id="edge14" class="edge">
<title>5&#45;&gt;8</title>
<path fill="none" stroke="grey" stroke-width="2" d="M249.91,-215.88C233.68,-206.64 213.46,-195.13 196.03,-185.21"/>
<polygon fill="grey" stroke="grey" stroke-width="2" points="197.63,-182.09 187.2,-180.19 194.16,-188.18 197.63,-182.09"/>
</g>
<!-- 6&#45;&gt;1 -->
<g id="edge3" class="edge">
<title>6&#45;&gt;1</title>
<path fill="none" stroke="grey" stroke-width="2" d="M314.04,-143.88C294.12,-134.39 269.18,-122.51 247.98,-112.42"/>
<polygon fill="grey" stroke="grey" stroke-width="2" points="249.38,-109.21 238.84,-108.07 246.37,-115.53 249.38,-109.21"/>
</g>
<!-- 7&#45;&gt;1 -->
<g id="edge4" class="edge">
<title>7&#45;&gt;1</title>
<path fill="none" stroke="grey" stroke-width="2" d="M84.41,-143.88C105.87,-134.31 132.8,-122.3 155.57,-112.15"/>
<polygon fill="grey" stroke="grey" stroke-width="2" points="157.01,-115.34 164.72,-108.07 154.16,-108.94 157.01,-115.34"/>
</g>
<!-- 8&#45;&gt;1 -->
<g id="edge5" class="edge">
<title>8&#45;&gt;1</title>
<path fill="none" stroke="grey" stroke-width="2" d="M168.37,-143.7C173.72,-135.56 180.2,-125.69 186.11,-116.7"/>
<polygon fill="grey" stroke="grey" stroke-width="2" points="189.19,-118.38 191.76,-108.1 183.34,-114.54 189.19,-118.38"/>
</g>
</g>
</svg>
