<?xml version="1.0" encoding="UTF-8" standalone="no"?>
<!DOCTYPE svg PUBLIC "-//W3C//DTD SVG 1.1//EN"
 "http://www.w3.org/Graphics/SVG/1.1/DTD/svg11.dtd">
<!-- Generated by graphviz version 2.50.0 (0)
 -->
<!-- Title: snakemake_dag Pages: 1 -->
<svg width="1016pt" height="620pt"
 viewBox="0.00 0.00 1016.00 620.00" xmlns="http://www.w3.org/2000/svg" xmlns:xlink="http://www.w3.org/1999/xlink">
<g id="graph0" class="graph" transform="scale(1 1) rotate(0) translate(4 616)">
<title>snakemake_dag</title>
<polygon fill="white" stroke="transparent" points="-4,4 -4,-616 1012,-616 1012,4 -4,4"/>
<!-- 0 -->
<g id="node1" class="node">
<title>0</title>
<path fill="none" stroke="#b6d856" stroke-width="2" d="M633,-36C633,-36 573,-36 573,-36 567,-36 561,-30 561,-24 561,-24 561,-12 561,-12 561,-6 567,0 573,0 573,0 633,0 633,0 639,0 645,-6 645,-12 645,-12 645,-24 645,-24 645,-30 639,-36 633,-36"/>
<text text-anchor="middle" x="603" y="-15.5" font-family="sans" font-size="10.00">run_all_polydfe</text>
</g>
<!-- 1 -->
<g id="node2" class="node">
<title>1</title>
<path fill="none" stroke="#56d86b" stroke-width="2" d="M644.5,-108C644.5,-108 561.5,-108 561.5,-108 555.5,-108 549.5,-102 549.5,-96 549.5,-96 549.5,-84 549.5,-84 549.5,-78 555.5,-72 561.5,-72 561.5,-72 644.5,-72 644.5,-72 650.5,-72 656.5,-78 656.5,-84 656.5,-84 656.5,-96 656.5,-96 656.5,-102 650.5,-108 644.5,-108"/>
<text text-anchor="middle" x="603" y="-87.5" font-family="sans" font-size="10.00">convert_svg_to_png</text>
</g>
<!-- 1&#45;&gt;0 -->
<g id="edge1" class="edge">
<title>1&#45;&gt;0</title>
<path fill="none" stroke="grey" stroke-width="2" d="M603,-71.7C603,-63.98 603,-54.71 603,-46.11"/>
<polygon fill="grey" stroke="grey" stroke-width="2" points="606.5,-46.1 603,-36.1 599.5,-46.1 606.5,-46.1"/>
</g>
<!-- 2 -->
<g id="node3" class="node">
<title>2</title>
<path fill="none" stroke="#56d8b1" stroke-width="2" d="M996,-252C996,-252 914,-252 914,-252 908,-252 902,-246 902,-240 902,-240 902,-228 902,-228 902,-222 908,-216 914,-216 914,-216 996,-216 996,-216 1002,-216 1008,-222 1008,-228 1008,-228 1008,-240 1008,-240 1008,-246 1002,-252 996,-252"/>
<text text-anchor="middle" x="955" y="-231.5" font-family="sans" font-size="10.00">plot_polyDFE_types</text>
</g>
<!-- 2&#45;&gt;1 -->
<g id="edge5" class="edge">
<title>2&#45;&gt;1</title>
<path fill="none" stroke="grey" stroke-width="2" d="M947.04,-215.84C936.56,-195.28 916.11,-161.42 888,-144 851.86,-121.61 739.3,-105.69 666.92,-97.45"/>
<polygon fill="grey" stroke="grey" stroke-width="2" points="666.88,-93.92 656.55,-96.29 666.1,-100.88 666.88,-93.92"/>
</g>
<!-- 3 -->
<g id="node4" class="node">
<title>3</title>
<path fill="none" stroke="#56d882" stroke-width="2" d="M982,-396C982,-396 928,-396 928,-396 922,-396 916,-390 916,-384 916,-384 916,-372 916,-372 916,-366 922,-360 928,-360 928,-360 982,-360 982,-360 988,-360 994,-366 994,-372 994,-372 994,-384 994,-384 994,-390 988,-396 982,-396"/>
<text text-anchor="middle" x="955" y="-375.5" font-family="sans" font-size="10.00">discretize_dfe</text>
</g>
<!-- 3&#45;&gt;2 -->
<g id="edge9" class="edge">
<title>3&#45;&gt;2</title>
<path fill="none" stroke="grey" stroke-width="2" d="M955,-359.87C955,-335.67 955,-291.21 955,-262.39"/>
<polygon fill="grey" stroke="grey" stroke-width="2" points="958.5,-262.19 955,-252.19 951.5,-262.19 958.5,-262.19"/>
</g>
<!-- 4 -->
<g id="node5" class="node">
<title>4</title>
<path fill="none" stroke="#569ad8" stroke-width="2" d="M838.5,-468C838.5,-468 787.5,-468 787.5,-468 781.5,-468 775.5,-462 775.5,-456 775.5,-456 775.5,-444 775.5,-444 775.5,-438 781.5,-432 787.5,-432 787.5,-432 838.5,-432 838.5,-432 844.5,-432 850.5,-438 850.5,-444 850.5,-444 850.5,-456 850.5,-456 850.5,-462 844.5,-468 838.5,-468"/>
<text text-anchor="middle" x="813" y="-447.5" font-family="sans" font-size="10.00">run_polyDFE</text>
</g>
<!-- 4&#45;&gt;3 -->
<g id="edge11" class="edge">
<title>4&#45;&gt;3</title>
<path fill="none" stroke="grey" stroke-width="2" d="M847.74,-431.88C866.82,-422.47 890.68,-410.71 911.05,-400.67"/>
<polygon fill="grey" stroke="grey" stroke-width="2" points="912.71,-403.75 920.13,-396.19 909.61,-397.47 912.71,-403.75"/>
</g>
<!-- 13 -->
<g id="node14" class="node">
<title>13</title>
<path fill="none" stroke="#d85656" stroke-width="2" d="M721.5,-396C721.5,-396 586.5,-396 586.5,-396 580.5,-396 574.5,-390 574.5,-384 574.5,-384 574.5,-372 574.5,-372 574.5,-366 580.5,-360 586.5,-360 586.5,-360 721.5,-360 721.5,-360 727.5,-360 733.5,-366 733.5,-372 733.5,-372 733.5,-384 733.5,-384 733.5,-390 727.5,-396 721.5,-396"/>
<text text-anchor="middle" x="654" y="-375.5" font-family="sans" font-size="10.00">create_init_bootstraps_polyDFE</text>
</g>
<!-- 4&#45;&gt;13 -->
<g id="edge23" class="edge">
<title>4&#45;&gt;13</title>
<path fill="none" stroke="grey" stroke-width="2" d="M775.32,-432.41C753.45,-422.78 725.67,-410.55 702.21,-400.23"/>
<polygon fill="grey" stroke="grey" stroke-width="2" points="703.36,-396.9 692.79,-396.08 700.53,-403.31 703.36,-396.9"/>
</g>
<!-- 19 -->
<g id="node20" class="node">
<title>19</title>
<path fill="none" stroke="#70d856" stroke-width="2" d="M886,-396C886,-396 764,-396 764,-396 758,-396 752,-390 752,-384 752,-384 752,-372 752,-372 752,-366 758,-360 764,-360 764,-360 886,-360 886,-360 892,-360 898,-366 898,-372 898,-372 898,-384 898,-384 898,-390 892,-396 886,-396"/>
<text text-anchor="middle" x="825" y="-375.5" font-family="sans" font-size="10.00">compare_nested_DFE_types</text>
</g>
<!-- 4&#45;&gt;19 -->
<g id="edge30" class="edge">
<title>4&#45;&gt;19</title>
<path fill="none" stroke="grey" stroke-width="2" d="M815.97,-431.7C817.29,-423.98 818.88,-414.71 820.35,-406.11"/>
<polygon fill="grey" stroke="grey" stroke-width="2" points="823.83,-406.55 822.07,-396.1 816.93,-405.37 823.83,-406.55"/>
</g>
<!-- 5 -->
<g id="node6" class="node">
<title>5</title>
<path fill="none" stroke="#d8b456" stroke-width="2" d="M662,-540C662,-540 564,-540 564,-540 558,-540 552,-534 552,-528 552,-528 552,-516 552,-516 552,-510 558,-504 564,-504 564,-504 662,-504 662,-504 668,-504 674,-510 674,-516 674,-516 674,-528 674,-528 674,-534 668,-540 662,-540"/>
<text text-anchor="middle" x="613" y="-519.5" font-family="sans" font-size="10.00">prepare_input_polyDFE</text>
</g>
<!-- 5&#45;&gt;4 -->
<g id="edge12" class="edge">
<title>5&#45;&gt;4</title>
<path fill="none" stroke="grey" stroke-width="2" d="M661.67,-503.97C693.28,-492.9 734.29,-478.55 765.64,-467.58"/>
<polygon fill="grey" stroke="grey" stroke-width="2" points="767.17,-470.75 775.45,-464.14 764.86,-464.14 767.17,-470.75"/>
</g>
<!-- 12 -->
<g id="node13" class="node">
<title>12</title>
<path fill="none" stroke="#56c9d8" stroke-width="2" d="M506,-396C506,-396 340,-396 340,-396 334,-396 328,-390 328,-384 328,-384 328,-372 328,-372 328,-366 334,-360 340,-360 340,-360 506,-360 506,-360 512,-360 518,-366 518,-372 518,-372 518,-384 518,-384 518,-390 512,-396 506,-396"/>
<text text-anchor="middle" x="423" y="-375.5" font-family="sans" font-size="10.00">create_bootstrapped_spectra_polyDFE</text>
</g>
<!-- 5&#45;&gt;12 -->
<g id="edge21" class="edge">
<title>5&#45;&gt;12</title>
<path fill="none" stroke="grey" stroke-width="2" d="M590.08,-503.87C556.13,-478.5 492.38,-430.85 454.2,-402.32"/>
<polygon fill="grey" stroke="grey" stroke-width="2" points="456.11,-399.37 446,-396.19 451.91,-404.98 456.11,-399.37"/>
</g>
<!-- 6 -->
<g id="node7" class="node">
<title>6</title>
<path fill="none" stroke="#56b1d8" stroke-width="2" d="M574,-612C574,-612 486,-612 486,-612 480,-612 474,-606 474,-600 474,-600 474,-588 474,-588 474,-582 480,-576 486,-576 486,-576 574,-576 574,-576 580,-576 586,-582 586,-588 586,-588 586,-600 586,-600 586,-606 580,-612 574,-612"/>
<text text-anchor="middle" x="530" y="-591.5" font-family="sans" font-size="10.00">resource_vcf_polydfe</text>
</g>
<!-- 6&#45;&gt;5 -->
<g id="edge13" class="edge">
<title>6&#45;&gt;5</title>
<path fill="none" stroke="grey" stroke-width="2" d="M550.52,-575.7C560.87,-566.97 573.59,-556.24 584.84,-546.75"/>
<polygon fill="grey" stroke="grey" stroke-width="2" points="587.33,-549.23 592.72,-540.1 582.82,-543.88 587.33,-549.23"/>
</g>
<!-- 7 -->
<g id="node8" class="node">
<title>7</title>
<path fill="none" stroke="#56d89a" stroke-width="2" d="M776,-612C776,-612 616,-612 616,-612 610,-612 604,-606 604,-600 604,-600 604,-588 604,-588 604,-582 610,-576 616,-576 616,-576 776,-576 776,-576 782,-576 788,-582 788,-588 788,-588 788,-600 788,-600 788,-606 782,-612 776,-612"/>
<text text-anchor="middle" x="696" y="-591.5" font-family="sans" font-size="10.00">resource_subpopulation_files_polydfe</text>
</g>
<!-- 7&#45;&gt;5 -->
<g id="edge14" class="edge">
<title>7&#45;&gt;5</title>
<path fill="none" stroke="grey" stroke-width="2" d="M675.48,-575.7C665.13,-566.97 652.41,-556.24 641.16,-546.75"/>
<polygon fill="grey" stroke="grey" stroke-width="2" points="643.18,-543.88 633.28,-540.1 638.67,-549.23 643.18,-543.88"/>
</g>
<!-- 8 -->
<g id="node9" class="node">
<title>8</title>
<path fill="none" stroke="#d88556" stroke-width="2" d="M734,-468C734,-468 574,-468 574,-468 568,-468 562,-462 562,-456 562,-456 562,-444 562,-444 562,-438 568,-432 574,-432 574,-432 734,-432 734,-432 740,-432 746,-438 746,-444 746,-444 746,-456 746,-456 746,-462 740,-468 734,-468"/>
<text text-anchor="middle" x="654" y="-447.5" font-family="sans" font-size="10.00">fetch_postprocessing_script_polyDFE</text>
</g>
<!-- 8&#45;&gt;3 -->
<g id="edge10" class="edge">
<title>8&#45;&gt;3</title>
<path fill="none" stroke="grey" stroke-width="2" d="M746.06,-432.79C791.81,-424 848,-412.12 906.12,-396.07"/>
<polygon fill="grey" stroke="grey" stroke-width="2" points="907.16,-399.41 915.84,-393.35 905.27,-392.67 907.16,-399.41"/>
</g>
<!-- 10 -->
<g id="node11" class="node">
<title>10</title>
<path fill="none" stroke="#88d856" stroke-width="2" d="M497,-252C497,-252 379,-252 379,-252 373,-252 367,-246 367,-240 367,-240 367,-228 367,-228 367,-222 373,-216 379,-216 379,-216 497,-216 497,-216 503,-216 509,-222 509,-228 509,-228 509,-240 509,-240 509,-246 503,-252 497,-252"/>
<text text-anchor="middle" x="438" y="-231.5" font-family="sans" font-size="10.00">discretize_dfe_bootstrapped</text>
</g>
<!-- 8&#45;&gt;10 -->
<g id="edge16" class="edge">
<title>8&#45;&gt;10</title>
<path fill="none" stroke="grey" stroke-width="2" d="M614.56,-431.9C597.67,-423.07 578.72,-410.99 565,-396 529.03,-356.7 547.41,-328.67 513,-288 503.13,-276.33 490.13,-265.97 477.73,-257.57"/>
<polygon fill="grey" stroke="grey" stroke-width="2" points="479.58,-254.6 469.29,-252.08 475.77,-260.47 479.58,-254.6"/>
</g>
<!-- 8&#45;&gt;12 -->
<g id="edge20" class="edge">
<title>8&#45;&gt;12</title>
<path fill="none" stroke="grey" stroke-width="2" d="M597.79,-431.97C565.09,-422.06 523.7,-409.51 489.4,-399.12"/>
<polygon fill="grey" stroke="grey" stroke-width="2" points="490.05,-395.66 479.47,-396.11 488.02,-402.36 490.05,-395.66"/>
</g>
<!-- 8&#45;&gt;13 -->
<g id="edge22" class="edge">
<title>8&#45;&gt;13</title>
<path fill="none" stroke="grey" stroke-width="2" d="M654,-431.7C654,-423.98 654,-414.71 654,-406.11"/>
<polygon fill="grey" stroke="grey" stroke-width="2" points="657.5,-406.1 654,-396.1 650.5,-406.1 657.5,-406.1"/>
</g>
<!-- 8&#45;&gt;19 -->
<g id="edge29" class="edge">
<title>8&#45;&gt;19</title>
<path fill="none" stroke="grey" stroke-width="2" d="M695.83,-431.88C719.42,-422.22 749.06,-410.09 774,-399.88"/>
<polygon fill="grey" stroke="grey" stroke-width="2" points="775.38,-403.1 783.3,-396.07 772.72,-396.62 775.38,-403.1"/>
</g>
<!-- 9 -->
<g id="node10" class="node">
<title>9</title>
<path fill="none" stroke="#5682d8" stroke-width="2" d="M487.5,-180C487.5,-180 362.5,-180 362.5,-180 356.5,-180 350.5,-174 350.5,-168 350.5,-168 350.5,-156 350.5,-156 350.5,-150 356.5,-144 362.5,-144 362.5,-144 487.5,-144 487.5,-144 493.5,-144 499.5,-150 499.5,-156 499.5,-156 499.5,-168 499.5,-168 499.5,-174 493.5,-180 487.5,-180"/>
<text text-anchor="middle" x="425" y="-159.5" font-family="sans" font-size="10.00">plot_polyDFE_subpopulations</text>
</g>
<!-- 9&#45;&gt;1 -->
<g id="edge6" class="edge">
<title>9&#45;&gt;1</title>
<path fill="none" stroke="grey" stroke-width="2" d="M468.54,-143.88C493.2,-134.18 524.22,-121.98 550.25,-111.74"/>
<polygon fill="grey" stroke="grey" stroke-width="2" points="551.57,-114.99 559.6,-108.07 549.01,-108.47 551.57,-114.99"/>
</g>
<!-- 10&#45;&gt;9 -->
<g id="edge15" class="edge">
<title>10&#45;&gt;9</title>
<path fill="none" stroke="grey" stroke-width="2" d="M434.79,-215.7C433.35,-207.98 431.63,-198.71 430.04,-190.11"/>
<polygon fill="grey" stroke="grey" stroke-width="2" points="433.44,-189.3 428.18,-180.1 426.56,-190.58 433.44,-189.3"/>
</g>
<!-- 14 -->
<g id="node15" class="node">
<title>14</title>
<path fill="none" stroke="#ced856" stroke-width="2" d="M676,-180C676,-180 530,-180 530,-180 524,-180 518,-174 518,-168 518,-168 518,-156 518,-156 518,-150 524,-144 530,-144 530,-144 676,-144 676,-144 682,-144 688,-150 688,-156 688,-156 688,-168 688,-168 688,-174 682,-180 676,-180"/>
<text text-anchor="middle" x="603" y="-159.5" font-family="sans" font-size="10.00">plot_polyDFE_types_bootstrapped</text>
</g>
<!-- 10&#45;&gt;14 -->
<g id="edge24" class="edge">
<title>10&#45;&gt;14</title>
<path fill="none" stroke="grey" stroke-width="2" d="M478.36,-215.88C501.02,-206.26 529.47,-194.19 553.47,-184.01"/>
<polygon fill="grey" stroke="grey" stroke-width="2" points="554.93,-187.2 562.77,-180.07 552.19,-180.75 554.93,-187.2"/>
</g>
<!-- 15 -->
<g id="node16" class="node">
<title>15</title>
<path fill="none" stroke="#d8cb56" stroke-width="2" d="M834,-180C834,-180 718,-180 718,-180 712,-180 706,-174 706,-168 706,-168 706,-156 706,-156 706,-150 712,-144 718,-144 718,-144 834,-144 834,-144 840,-144 846,-150 846,-156 846,-156 846,-168 846,-168 846,-174 840,-180 834,-180"/>
<text text-anchor="middle" x="776" y="-159.5" font-family="sans" font-size="10.00">plot_polyDFE_bootstrapped</text>
</g>
<!-- 10&#45;&gt;15 -->
<g id="edge25" class="edge">
<title>10&#45;&gt;15</title>
<path fill="none" stroke="grey" stroke-width="2" d="M509.22,-218.63C558.83,-208.57 626.82,-194.69 695.64,-180.28"/>
<polygon fill="grey" stroke="grey" stroke-width="2" points="696.73,-183.62 705.8,-178.15 695.29,-176.77 696.73,-183.62"/>
</g>
<!-- 16 -->
<g id="node17" class="node">
<title>16</title>
<path fill="none" stroke="#59d856" stroke-width="2" d="M170,-180C170,-180 12,-180 12,-180 6,-180 0,-174 0,-168 0,-168 0,-156 0,-156 0,-150 6,-144 12,-144 12,-144 170,-144 170,-144 176,-144 182,-150 182,-156 182,-156 182,-168 182,-168 182,-174 176,-180 170,-180"/>
<text text-anchor="middle" x="91" y="-159.5" font-family="sans" font-size="10.00">plot_polyDFE_bootstrapped_gradient</text>
</g>
<!-- 10&#45;&gt;16 -->
<g id="edge26" class="edge">
<title>10&#45;&gt;16</title>
<path fill="none" stroke="grey" stroke-width="2" d="M366.94,-218.67C314.57,-208.1 242.79,-193.62 185.57,-182.08"/>
<polygon fill="grey" stroke="grey" stroke-width="2" points="185.92,-178.58 175.43,-180.03 184.54,-185.44 185.92,-178.58"/>
</g>
<!-- 17 -->
<g id="node18" class="node">
<title>17</title>
<path fill="none" stroke="#566bd8" stroke-width="2" d="M320,-180C320,-180 212,-180 212,-180 206,-180 200,-174 200,-168 200,-168 200,-156 200,-156 200,-150 206,-144 212,-144 212,-144 320,-144 320,-144 326,-144 332,-150 332,-156 332,-156 332,-168 332,-168 332,-174 326,-180 320,-180"/>
<text text-anchor="middle" x="266" y="-159.5" font-family="sans" font-size="10.00">plot_polyDFE_param_dist</text>
</g>
<!-- 10&#45;&gt;17 -->
<g id="edge27" class="edge">
<title>10&#45;&gt;17</title>
<path fill="none" stroke="grey" stroke-width="2" d="M395.92,-215.88C372.2,-206.22 342.38,-194.09 317.3,-183.88"/>
<polygon fill="grey" stroke="grey" stroke-width="2" points="318.52,-180.6 307.94,-180.07 315.88,-187.08 318.52,-180.6"/>
</g>
<!-- 11 -->
<g id="node12" class="node">
<title>11</title>
<path fill="none" stroke="#56d8c9" stroke-width="2" d="M492,-324C492,-324 384,-324 384,-324 378,-324 372,-318 372,-312 372,-312 372,-300 372,-300 372,-294 378,-288 384,-288 384,-288 492,-288 492,-288 498,-288 504,-294 504,-300 504,-300 504,-312 504,-312 504,-318 498,-324 492,-324"/>
<text text-anchor="middle" x="438" y="-303.5" font-family="sans" font-size="10.00">run_polydfe_n_bootstraps</text>
</g>
<!-- 11&#45;&gt;10 -->
<g id="edge17" class="edge">
<title>11&#45;&gt;10</title>
<path fill="none" stroke="grey" stroke-width="2" d="M438,-287.7C438,-279.98 438,-270.71 438,-262.11"/>
<polygon fill="grey" stroke="grey" stroke-width="2" points="441.5,-262.1 438,-252.1 434.5,-262.1 441.5,-262.1"/>
</g>
<!-- 12&#45;&gt;11 -->
<g id="edge19" class="edge">
<title>12&#45;&gt;11</title>
<path fill="none" stroke="grey" stroke-width="2" d="M426.71,-359.7C428.36,-351.98 430.35,-342.71 432.19,-334.11"/>
<polygon fill="grey" stroke="grey" stroke-width="2" points="435.66,-334.62 434.33,-324.1 428.82,-333.15 435.66,-334.62"/>
</g>
<!-- 13&#45;&gt;11 -->
<g id="edge18" class="edge">
<title>13&#45;&gt;11</title>
<path fill="none" stroke="grey" stroke-width="2" d="M601.44,-359.97C570.99,-350.1 532.49,-337.62 500.5,-327.25"/>
<polygon fill="grey" stroke="grey" stroke-width="2" points="501.39,-323.86 490.8,-324.11 499.23,-330.52 501.39,-323.86"/>
</g>
<!-- 14&#45;&gt;1 -->
<g id="edge4" class="edge">
<title>14&#45;&gt;1</title>
<path fill="none" stroke="grey" stroke-width="2" d="M603,-143.7C603,-135.98 603,-126.71 603,-118.11"/>
<polygon fill="grey" stroke="grey" stroke-width="2" points="606.5,-118.1 603,-108.1 599.5,-118.1 606.5,-118.1"/>
</g>
<!-- 15&#45;&gt;1 -->
<g id="edge8" class="edge">
<title>15&#45;&gt;1</title>
<path fill="none" stroke="grey" stroke-width="2" d="M733.68,-143.88C709.82,-134.22 679.83,-122.09 654.6,-111.88"/>
<polygon fill="grey" stroke="grey" stroke-width="2" points="655.77,-108.57 645.18,-108.07 653.14,-115.06 655.77,-108.57"/>
</g>
<!-- 16&#45;&gt;1 -->
<g id="edge2" class="edge">
<title>16&#45;&gt;1</title>
<path fill="none" stroke="grey" stroke-width="2" d="M182.26,-145.33C185.21,-144.87 188.13,-144.43 191,-144 313.95,-125.65 458.13,-107.98 539.19,-98.4"/>
<polygon fill="grey" stroke="grey" stroke-width="2" points="539.72,-101.86 549.24,-97.21 538.9,-94.91 539.72,-101.86"/>
</g>
<!-- 17&#45;&gt;1 -->
<g id="edge7" class="edge">
<title>17&#45;&gt;1</title>
<path fill="none" stroke="grey" stroke-width="2" d="M332.23,-145.9C335.2,-145.25 338.13,-144.62 341,-144 408.67,-129.49 486.42,-113.9 539.53,-103.41"/>
<polygon fill="grey" stroke="grey" stroke-width="2" points="540.35,-106.82 549.48,-101.45 539,-99.95 540.35,-106.82"/>
</g>
<!-- 18 -->
<g id="node19" class="node">
<title>18</title>
<path fill="none" stroke="#d86e56" stroke-width="2" d="M902,-324C902,-324 772,-324 772,-324 766,-324 760,-318 760,-312 760,-312 760,-300 760,-300 760,-294 766,-288 772,-288 772,-288 902,-288 902,-288 908,-288 914,-294 914,-300 914,-300 914,-312 914,-312 914,-318 908,-324 902,-324"/>
<text text-anchor="middle" x="837" y="-303.5" font-family="sans" font-size="10.00">plot_props_nested_DFE_types</text>
</g>
<!-- 18&#45;&gt;1 -->
<g id="edge3" class="edge">
<title>18&#45;&gt;1</title>
<path fill="none" stroke="grey" stroke-width="2" d="M846.19,-287.71C861.89,-255.53 889.03,-185.93 855,-144 831.72,-115.31 733.47,-101.58 666.76,-95.44"/>
<polygon fill="grey" stroke="grey" stroke-width="2" points="667.01,-91.95 656.74,-94.56 666.4,-98.93 667.01,-91.95"/>
</g>
<!-- 19&#45;&gt;18 -->
<g id="edge28" class="edge">
<title>19&#45;&gt;18</title>
<path fill="none" stroke="grey" stroke-width="2" d="M827.97,-359.7C829.29,-351.98 830.88,-342.71 832.35,-334.11"/>
<polygon fill="grey" stroke="grey" stroke-width="2" points="835.83,-334.55 834.07,-324.1 828.93,-333.37 835.83,-334.55"/>
</g>
</g>
</svg>
