<?xml version="1.0" encoding="UTF-8" standalone="no"?>
<!DOCTYPE svg PUBLIC "-//W3C//DTD SVG 1.1//EN"
 "http://www.w3.org/Graphics/SVG/1.1/DTD/svg11.dtd">
<!-- Generated by graphviz version 2.50.0 (0)
 -->
<!-- Title: snakemake_dag Pages: 1 -->
<svg width="1211pt" height="620pt"
 viewBox="0.00 0.00 1210.50 620.00" xmlns="http://www.w3.org/2000/svg" xmlns:xlink="http://www.w3.org/1999/xlink">
<g id="graph0" class="graph" transform="scale(1 1) rotate(0) translate(4 616)">
<title>snakemake_dag</title>
<polygon fill="white" stroke="transparent" points="-4,4 -4,-616 1206.5,-616 1206.5,4 -4,4"/>
<!-- 0 -->
<g id="node1" class="node">
<title>0</title>
<path fill="none" stroke="#78d856" stroke-width="2" d="M319.5,-540C319.5,-540 226.5,-540 226.5,-540 220.5,-540 214.5,-534 214.5,-528 214.5,-528 214.5,-516 214.5,-516 214.5,-510 220.5,-504 226.5,-504 226.5,-504 319.5,-504 319.5,-504 325.5,-504 331.5,-510 331.5,-516 331.5,-516 331.5,-528 331.5,-528 331.5,-534 325.5,-540 319.5,-540"/>
<text text-anchor="middle" x="273" y="-519.5" font-family="sans" font-size="10.00">create_sample_set_all</text>
</g>
<!-- 18 -->
<g id="node19" class="node">
<title>18</title>
<path fill="none" stroke="#56d8a9" stroke-width="2" d="M594,-36C594,-36 510,-36 510,-36 504,-36 498,-30 498,-24 498,-24 498,-12 498,-12 498,-6 504,0 510,0 510,0 594,0 594,0 600,0 606,-6 606,-12 606,-12 606,-24 606,-24 606,-30 600,-36 594,-36"/>
<text text-anchor="middle" x="552" y="-15.5" font-family="sans" font-size="10.00">run_all_sample_sets</text>
</g>
<!-- 0&#45;&gt;18 -->
<g id="edge21" class="edge">
<title>0&#45;&gt;18</title>
<path fill="none" stroke="grey" stroke-width="2" d="M214.43,-516.23C134.22,-506.13 0,-474.9 0,-379 0,-379 0,-379 0,-161 0,-111.75 23.28,-96.5 66,-72 136.31,-31.68 372.21,-22.02 487.49,-19.72"/>
<polygon fill="grey" stroke="grey" stroke-width="2" points="487.66,-23.21 497.59,-19.53 487.53,-16.22 487.66,-23.21"/>
</g>
<!-- 1 -->
<g id="node2" class="node">
<title>1</title>
<path fill="none" stroke="#56b1d8" stroke-width="2" d="M865.5,-612C865.5,-612 752.5,-612 752.5,-612 746.5,-612 740.5,-606 740.5,-600 740.5,-600 740.5,-588 740.5,-588 740.5,-582 746.5,-576 752.5,-576 752.5,-576 865.5,-576 865.5,-576 871.5,-576 877.5,-582 877.5,-588 877.5,-588 877.5,-600 877.5,-600 877.5,-606 871.5,-612 865.5,-612"/>
<text text-anchor="middle" x="809" y="-591.5" font-family="sans" font-size="10.00">resource_ingroup_samples</text>
</g>
<!-- 1&#45;&gt;0 -->
<g id="edge2" class="edge">
<title>1&#45;&gt;0</title>
<path fill="none" stroke="grey" stroke-width="2" d="M740.3,-584.03C637.37,-570.59 444.28,-545.37 341.48,-531.94"/>
<polygon fill="grey" stroke="grey" stroke-width="2" points="341.89,-528.47 331.52,-530.64 340.98,-535.41 341.89,-528.47"/>
</g>
<!-- 3 -->
<g id="node4" class="node">
<title>3</title>
<path fill="none" stroke="#d88d56" stroke-width="2" d="M861,-540C861,-540 757,-540 757,-540 751,-540 745,-534 745,-528 745,-528 745,-516 745,-516 745,-510 751,-504 757,-504 757,-504 861,-504 861,-504 867,-504 873,-510 873,-516 873,-516 873,-528 873,-528 873,-534 867,-540 861,-540"/>
<text text-anchor="middle" x="809" y="-519.5" font-family="sans" font-size="10.00">create_sample_set_birch</text>
</g>
<!-- 1&#45;&gt;3 -->
<g id="edge3" class="edge">
<title>1&#45;&gt;3</title>
<path fill="none" stroke="grey" stroke-width="2" d="M809,-575.7C809,-567.98 809,-558.71 809,-550.11"/>
<polygon fill="grey" stroke="grey" stroke-width="2" points="812.5,-550.1 809,-540.1 805.5,-550.1 812.5,-550.1"/>
</g>
<!-- 12 -->
<g id="node13" class="node">
<title>12</title>
<path fill="none" stroke="#61d856" stroke-width="2" d="M1185,-468C1185,-468 1013,-468 1013,-468 1007,-468 1001,-462 1001,-456 1001,-456 1001,-444 1001,-444 1001,-438 1007,-432 1013,-432 1013,-432 1185,-432 1185,-432 1191,-432 1197,-438 1197,-444 1197,-444 1197,-456 1197,-456 1197,-462 1191,-468 1185,-468"/>
<text text-anchor="middle" x="1099" y="-447.5" font-family="sans" font-size="10.00">create_sample_set_pendula_pubescens</text>
</g>
<!-- 1&#45;&gt;12 -->
<g id="edge13" class="edge">
<title>1&#45;&gt;12</title>
<path fill="none" stroke="grey" stroke-width="2" d="M843.98,-575.87C896.78,-550.02 996.8,-501.04 1054.64,-472.72"/>
<polygon fill="grey" stroke="grey" stroke-width="2" points="1056.45,-475.73 1063.9,-468.19 1053.37,-469.44 1056.45,-475.73"/>
</g>
<!-- 2 -->
<g id="node3" class="node">
<title>2</title>
<path fill="none" stroke="#c6d856" stroke-width="2" d="M332.5,-612C332.5,-612 213.5,-612 213.5,-612 207.5,-612 201.5,-606 201.5,-600 201.5,-600 201.5,-588 201.5,-588 201.5,-582 207.5,-576 213.5,-576 213.5,-576 332.5,-576 332.5,-576 338.5,-576 344.5,-582 344.5,-588 344.5,-588 344.5,-600 344.5,-600 344.5,-606 338.5,-612 332.5,-612"/>
<text text-anchor="middle" x="273" y="-591.5" font-family="sans" font-size="10.00">resource_outgroup_samples</text>
</g>
<!-- 2&#45;&gt;0 -->
<g id="edge1" class="edge">
<title>2&#45;&gt;0</title>
<path fill="none" stroke="grey" stroke-width="2" d="M273,-575.7C273,-567.98 273,-558.71 273,-550.11"/>
<polygon fill="grey" stroke="grey" stroke-width="2" points="276.5,-550.1 273,-540.1 269.5,-550.1 276.5,-550.1"/>
</g>
<!-- 6 -->
<g id="node7" class="node">
<title>6</title>
<path fill="none" stroke="#56d892" stroke-width="2" d="M760.5,-396C760.5,-396 615.5,-396 615.5,-396 609.5,-396 603.5,-390 603.5,-384 603.5,-384 603.5,-372 603.5,-372 603.5,-366 609.5,-360 615.5,-360 615.5,-360 760.5,-360 760.5,-360 766.5,-360 772.5,-366 772.5,-372 772.5,-372 772.5,-384 772.5,-384 772.5,-390 766.5,-396 760.5,-396"/>
<text text-anchor="middle" x="688" y="-375.5" font-family="sans" font-size="10.00">generate_vcf_sample_set_biallelic</text>
</g>
<!-- 3&#45;&gt;6 -->
<g id="edge7" class="edge">
<title>3&#45;&gt;6</title>
<path fill="none" stroke="grey" stroke-width="2" d="M802.97,-503.81C795.67,-484.73 781.96,-453.78 763,-432 752.96,-420.47 739.92,-410.14 727.54,-401.73"/>
<polygon fill="grey" stroke="grey" stroke-width="2" points="729.4,-398.77 719.12,-396.23 725.57,-404.63 729.4,-398.77"/>
</g>
<!-- 7 -->
<g id="node8" class="node">
<title>7</title>
<path fill="none" stroke="#d6d856" stroke-width="2" d="M741.5,-468C741.5,-468 634.5,-468 634.5,-468 628.5,-468 622.5,-462 622.5,-456 622.5,-456 622.5,-444 622.5,-444 622.5,-438 628.5,-432 634.5,-432 634.5,-432 741.5,-432 741.5,-432 747.5,-432 753.5,-438 753.5,-444 753.5,-444 753.5,-456 753.5,-456 753.5,-462 747.5,-468 741.5,-468"/>
<text text-anchor="middle" x="688" y="-447.5" font-family="sans" font-size="10.00">generate_vcf_sample_set</text>
</g>
<!-- 3&#45;&gt;7 -->
<g id="edge9" class="edge">
<title>3&#45;&gt;7</title>
<path fill="none" stroke="grey" stroke-width="2" d="M779.4,-503.88C763.43,-494.64 743.54,-483.13 726.39,-473.21"/>
<polygon fill="grey" stroke="grey" stroke-width="2" points="728.12,-470.17 717.71,-468.19 724.62,-476.23 728.12,-470.17"/>
</g>
<!-- 3&#45;&gt;18 -->
<g id="edge22" class="edge">
<title>3&#45;&gt;18</title>
<path fill="none" stroke="grey" stroke-width="2" d="M855.56,-503.87C904.04,-482.67 973,-441.52 973,-379 973,-379 973,-379 973,-161 973,-117.81 968.44,-98.06 934,-72 885.26,-35.11 711.7,-23.88 616.19,-20.48"/>
<polygon fill="grey" stroke="grey" stroke-width="2" points="616.18,-16.97 606.07,-20.13 615.94,-23.97 616.18,-16.97"/>
</g>
<!-- 4 -->
<g id="node5" class="node">
<title>4</title>
<path fill="none" stroke="#88d856" stroke-width="2" d="M617.5,-252C617.5,-252 486.5,-252 486.5,-252 480.5,-252 474.5,-246 474.5,-240 474.5,-240 474.5,-228 474.5,-228 474.5,-222 480.5,-216 486.5,-216 486.5,-216 617.5,-216 617.5,-216 623.5,-216 629.5,-222 629.5,-228 629.5,-228 629.5,-240 629.5,-240 629.5,-246 623.5,-252 617.5,-252"/>
<text text-anchor="middle" x="552" y="-231.5" font-family="sans" font-size="10.00">create_sample_set_left_cluster</text>
</g>
<!-- 11 -->
<g id="node12" class="node">
<title>11</title>
<path fill="none" stroke="#56d85b" stroke-width="2" d="M779.5,-180C779.5,-180 648.5,-180 648.5,-180 642.5,-180 636.5,-174 636.5,-168 636.5,-168 636.5,-156 636.5,-156 636.5,-150 642.5,-144 648.5,-144 648.5,-144 779.5,-144 779.5,-144 785.5,-144 791.5,-150 791.5,-156 791.5,-156 791.5,-168 791.5,-168 791.5,-174 785.5,-180 779.5,-180"/>
<text text-anchor="middle" x="714" y="-159.5" font-family="sans" font-size="10.00">create_sample_set_pubescens</text>
</g>
<!-- 4&#45;&gt;11 -->
<g id="edge12" class="edge">
<title>4&#45;&gt;11</title>
<path fill="none" stroke="grey" stroke-width="2" d="M591.63,-215.88C613.78,-206.31 641.56,-194.3 665.06,-184.15"/>
<polygon fill="grey" stroke="grey" stroke-width="2" points="666.71,-187.25 674.5,-180.07 663.93,-180.82 666.71,-187.25"/>
</g>
<!-- 4&#45;&gt;18 -->
<g id="edge20" class="edge">
<title>4&#45;&gt;18</title>
<path fill="none" stroke="grey" stroke-width="2" d="M541.15,-215.82C523.8,-186.09 493.47,-123.31 511,-72 514.44,-61.93 520.66,-52.28 527.23,-44.05"/>
<polygon fill="grey" stroke="grey" stroke-width="2" points="530,-46.2 533.83,-36.32 524.68,-41.65 530,-46.2"/>
</g>
<!-- 5 -->
<g id="node6" class="node">
<title>5</title>
<path fill="none" stroke="#d87d56" stroke-width="2" d="M606,-324C606,-324 498,-324 498,-324 492,-324 486,-318 486,-312 486,-312 486,-300 486,-300 486,-294 492,-288 498,-288 498,-288 606,-288 606,-288 612,-288 618,-294 618,-300 618,-300 618,-312 618,-312 618,-318 612,-324 606,-324"/>
<text text-anchor="middle" x="552" y="-303.5" font-family="sans" font-size="10.00">convert_plink_sample_set</text>
</g>
<!-- 5&#45;&gt;4 -->
<g id="edge4" class="edge">
<title>5&#45;&gt;4</title>
<path fill="none" stroke="grey" stroke-width="2" d="M552,-287.7C552,-279.98 552,-270.71 552,-262.11"/>
<polygon fill="grey" stroke="grey" stroke-width="2" points="555.5,-262.1 552,-252.1 548.5,-262.1 555.5,-262.1"/>
</g>
<!-- 9 -->
<g id="node10" class="node">
<title>9</title>
<path fill="none" stroke="#d8c356" stroke-width="2" d="M258.5,-252C258.5,-252 121.5,-252 121.5,-252 115.5,-252 109.5,-246 109.5,-240 109.5,-240 109.5,-228 109.5,-228 109.5,-222 115.5,-216 121.5,-216 121.5,-216 258.5,-216 258.5,-216 264.5,-216 270.5,-222 270.5,-228 270.5,-228 270.5,-240 270.5,-240 270.5,-246 264.5,-252 258.5,-252"/>
<text text-anchor="middle" x="190" y="-231.5" font-family="sans" font-size="10.00">create_sample_set_right_cluster</text>
</g>
<!-- 5&#45;&gt;9 -->
<g id="edge10" class="edge">
<title>5&#45;&gt;9</title>
<path fill="none" stroke="grey" stroke-width="2" d="M485.6,-292.16C428.06,-281.03 344.26,-264.83 280.57,-252.51"/>
<polygon fill="grey" stroke="grey" stroke-width="2" points="281.01,-249.03 270.53,-250.57 279.68,-255.91 281.01,-249.03"/>
</g>
<!-- 6&#45;&gt;5 -->
<g id="edge5" class="edge">
<title>6&#45;&gt;5</title>
<path fill="none" stroke="grey" stroke-width="2" d="M654.73,-359.88C636.54,-350.51 613.81,-338.81 594.36,-328.8"/>
<polygon fill="grey" stroke="grey" stroke-width="2" points="595.89,-325.65 585.4,-324.19 592.69,-331.88 595.89,-325.65"/>
</g>
<!-- 7&#45;&gt;6 -->
<g id="edge6" class="edge">
<title>7&#45;&gt;6</title>
<path fill="none" stroke="grey" stroke-width="2" d="M688,-431.7C688,-423.98 688,-414.71 688,-406.11"/>
<polygon fill="grey" stroke="grey" stroke-width="2" points="691.5,-406.1 688,-396.1 684.5,-406.1 691.5,-406.1"/>
</g>
<!-- 8 -->
<g id="node9" class="node">
<title>8</title>
<path fill="none" stroke="#56a9d8" stroke-width="2" d="M714.5,-540C714.5,-540 643.5,-540 643.5,-540 637.5,-540 631.5,-534 631.5,-528 631.5,-528 631.5,-516 631.5,-516 631.5,-510 637.5,-504 643.5,-504 643.5,-504 714.5,-504 714.5,-504 720.5,-504 726.5,-510 726.5,-516 726.5,-516 726.5,-528 726.5,-528 726.5,-534 720.5,-540 714.5,-540"/>
<text text-anchor="middle" x="679" y="-519.5" font-family="sans" font-size="10.00">resource_raw_vcf</text>
</g>
<!-- 8&#45;&gt;7 -->
<g id="edge8" class="edge">
<title>8&#45;&gt;7</title>
<path fill="none" stroke="grey" stroke-width="2" d="M681.22,-503.7C682.22,-495.98 683.41,-486.71 684.51,-478.11"/>
<polygon fill="grey" stroke="grey" stroke-width="2" points="688,-478.47 685.8,-468.1 681.05,-477.58 688,-478.47"/>
</g>
<!-- 10 -->
<g id="node11" class="node">
<title>10</title>
<path fill="none" stroke="#afd856" stroke-width="2" d="M249,-180C249,-180 131,-180 131,-180 125,-180 119,-174 119,-168 119,-168 119,-156 119,-156 119,-150 125,-144 131,-144 131,-144 249,-144 249,-144 255,-144 261,-150 261,-156 261,-156 261,-168 261,-168 261,-174 255,-180 249,-180"/>
<text text-anchor="middle" x="190" y="-159.5" font-family="sans" font-size="10.00">create_sample_set_pendula</text>
</g>
<!-- 9&#45;&gt;10 -->
<g id="edge11" class="edge">
<title>9&#45;&gt;10</title>
<path fill="none" stroke="grey" stroke-width="2" d="M190,-215.7C190,-207.98 190,-198.71 190,-190.11"/>
<polygon fill="grey" stroke="grey" stroke-width="2" points="193.5,-190.1 190,-180.1 186.5,-190.1 193.5,-190.1"/>
</g>
<!-- 9&#45;&gt;18 -->
<g id="edge27" class="edge">
<title>9&#45;&gt;18</title>
<path fill="none" stroke="grey" stroke-width="2" d="M154.3,-215.95C138.88,-207.08 121.74,-194.93 110,-180 79.49,-141.18 51.11,-108.82 84,-72 110.4,-42.44 365.16,-27.26 487.31,-21.63"/>
<polygon fill="grey" stroke="grey" stroke-width="2" points="487.81,-25.11 497.64,-21.16 487.5,-18.12 487.81,-25.11"/>
</g>
<!-- 13 -->
<g id="node14" class="node">
<title>13</title>
<path fill="none" stroke="#9fd856" stroke-width="2" d="M264,-108C264,-108 116,-108 116,-108 110,-108 104,-102 104,-96 104,-96 104,-84 104,-84 104,-78 110,-72 116,-72 116,-72 264,-72 264,-72 270,-72 276,-78 276,-84 276,-84 276,-96 276,-96 276,-102 270,-108 264,-108"/>
<text text-anchor="middle" x="190" y="-87.5" font-family="sans" font-size="10.00">create_sample_set_pendula_south</text>
</g>
<!-- 10&#45;&gt;13 -->
<g id="edge14" class="edge">
<title>10&#45;&gt;13</title>
<path fill="none" stroke="grey" stroke-width="2" d="M190,-143.7C190,-135.98 190,-126.71 190,-118.11"/>
<polygon fill="grey" stroke="grey" stroke-width="2" points="193.5,-118.1 190,-108.1 186.5,-118.1 193.5,-118.1"/>
</g>
<!-- 14 -->
<g id="node15" class="node">
<title>14</title>
<path fill="none" stroke="#56d8d8" stroke-width="2" d="M452,-108C452,-108 306,-108 306,-108 300,-108 294,-102 294,-96 294,-96 294,-84 294,-84 294,-78 300,-72 306,-72 306,-72 452,-72 452,-72 458,-72 464,-78 464,-84 464,-84 464,-96 464,-96 464,-102 458,-108 452,-108"/>
<text text-anchor="middle" x="379" y="-87.5" font-family="sans" font-size="10.00">create_sample_set_pendula_north</text>
</g>
<!-- 10&#45;&gt;14 -->
<g id="edge15" class="edge">
<title>10&#45;&gt;14</title>
<path fill="none" stroke="grey" stroke-width="2" d="M236.23,-143.88C262.53,-134.14 295.64,-121.87 323.36,-111.61"/>
<polygon fill="grey" stroke="grey" stroke-width="2" points="324.75,-114.82 332.92,-108.07 322.32,-108.26 324.75,-114.82"/>
</g>
<!-- 10&#45;&gt;18 -->
<g id="edge23" class="edge">
<title>10&#45;&gt;18</title>
<path fill="none" stroke="grey" stroke-width="2" d="M137.32,-143.84C120.82,-135.7 104.47,-124.12 95,-108 86.9,-94.2 84.36,-83.95 95,-72 120.65,-43.2 367.67,-27.69 487.47,-21.81"/>
<polygon fill="grey" stroke="grey" stroke-width="2" points="487.8,-25.3 497.62,-21.32 487.46,-18.31 487.8,-25.3"/>
</g>
<!-- 16 -->
<g id="node17" class="node">
<title>16</title>
<path fill="none" stroke="#56d87b" stroke-width="2" d="M693.5,-108C693.5,-108 532.5,-108 532.5,-108 526.5,-108 520.5,-102 520.5,-96 520.5,-96 520.5,-84 520.5,-84 520.5,-78 526.5,-72 532.5,-72 532.5,-72 693.5,-72 693.5,-72 699.5,-72 705.5,-78 705.5,-84 705.5,-84 705.5,-96 705.5,-96 705.5,-102 699.5,-108 693.5,-108"/>
<text text-anchor="middle" x="613" y="-87.5" font-family="sans" font-size="10.00">create_sample_set_pubescens_south</text>
</g>
<!-- 11&#45;&gt;16 -->
<g id="edge16" class="edge">
<title>11&#45;&gt;16</title>
<path fill="none" stroke="grey" stroke-width="2" d="M689.29,-143.88C676.33,-134.89 660.27,-123.76 646.23,-114.03"/>
<polygon fill="grey" stroke="grey" stroke-width="2" points="648.02,-111.01 637.8,-108.19 644.03,-116.76 648.02,-111.01"/>
</g>
<!-- 17 -->
<g id="node18" class="node">
<title>17</title>
<path fill="none" stroke="#d8cb56" stroke-width="2" d="M894.5,-108C894.5,-108 735.5,-108 735.5,-108 729.5,-108 723.5,-102 723.5,-96 723.5,-96 723.5,-84 723.5,-84 723.5,-78 729.5,-72 735.5,-72 735.5,-72 894.5,-72 894.5,-72 900.5,-72 906.5,-78 906.5,-84 906.5,-84 906.5,-96 906.5,-96 906.5,-102 900.5,-108 894.5,-108"/>
<text text-anchor="middle" x="815" y="-87.5" font-family="sans" font-size="10.00">create_sample_set_pubescens_north</text>
</g>
<!-- 11&#45;&gt;17 -->
<g id="edge17" class="edge">
<title>11&#45;&gt;17</title>
<path fill="none" stroke="grey" stroke-width="2" d="M738.71,-143.88C751.67,-134.89 767.73,-123.76 781.77,-114.03"/>
<polygon fill="grey" stroke="grey" stroke-width="2" points="783.97,-116.76 790.2,-108.19 779.98,-111.01 783.97,-116.76"/>
</g>
<!-- 11&#45;&gt;18 -->
<g id="edge24" class="edge">
<title>11&#45;&gt;18</title>
<path fill="none" stroke="grey" stroke-width="2" d="M791.79,-152.86C864.65,-142.19 956.68,-119.03 916,-72 878.05,-28.12 710.62,-19.83 616.61,-18.71"/>
<polygon fill="grey" stroke="grey" stroke-width="2" points="616.39,-15.21 606.36,-18.62 616.33,-22.21 616.39,-15.21"/>
</g>
<!-- 12&#45;&gt;18 -->
<g id="edge25" class="edge">
<title>12&#45;&gt;18</title>
<path fill="none" stroke="grey" stroke-width="2" d="M1079.47,-431.86C1053.54,-407.11 1011,-358.63 1011,-307 1011,-307 1011,-307 1011,-161 1011,-120.03 1017.95,-98.84 987,-72 932.99,-25.17 723.84,-18.53 616.44,-18.32"/>
<polygon fill="grey" stroke="grey" stroke-width="2" points="616.38,-14.82 606.37,-18.31 616.37,-21.82 616.38,-14.82"/>
</g>
<!-- 13&#45;&gt;18 -->
<g id="edge18" class="edge">
<title>13&#45;&gt;18</title>
<path fill="none" stroke="grey" stroke-width="2" d="M276.25,-72.32C341.29,-59.75 429.06,-42.77 487.95,-31.39"/>
<polygon fill="grey" stroke="grey" stroke-width="2" points="488.71,-34.8 497.87,-29.47 487.39,-27.93 488.71,-34.8"/>
</g>
<!-- 14&#45;&gt;18 -->
<g id="edge19" class="edge">
<title>14&#45;&gt;18</title>
<path fill="none" stroke="grey" stroke-width="2" d="M421.32,-71.88C445.18,-62.22 475.17,-50.09 500.4,-39.88"/>
<polygon fill="grey" stroke="grey" stroke-width="2" points="501.86,-43.06 509.82,-36.07 499.23,-36.57 501.86,-43.06"/>
</g>
<!-- 15 -->
<g id="node16" class="node">
<title>15</title>
<path fill="none" stroke="#569ad8" stroke-width="2" d="M1190.5,-108C1190.5,-108 1051.5,-108 1051.5,-108 1045.5,-108 1039.5,-102 1039.5,-96 1039.5,-96 1039.5,-84 1039.5,-84 1039.5,-78 1045.5,-72 1051.5,-72 1051.5,-72 1190.5,-72 1190.5,-72 1196.5,-72 1202.5,-78 1202.5,-84 1202.5,-84 1202.5,-96 1202.5,-96 1202.5,-102 1196.5,-108 1190.5,-108"/>
<text text-anchor="middle" x="1121" y="-87.5" font-family="sans" font-size="10.00">create_sample_set_pendula_luis</text>
</g>
<!-- 15&#45;&gt;18 -->
<g id="edge26" class="edge">
<title>15&#45;&gt;18</title>
<path fill="none" stroke="grey" stroke-width="2" d="M1039.36,-74.18C1034.5,-73.41 1029.69,-72.68 1025,-72 879.32,-50.96 707.35,-33.54 616.22,-24.89"/>
<polygon fill="grey" stroke="grey" stroke-width="2" points="616.34,-21.38 606.05,-23.93 615.68,-28.35 616.34,-21.38"/>
</g>
<!-- 16&#45;&gt;18 -->
<g id="edge28" class="edge">
<title>16&#45;&gt;18</title>
<path fill="none" stroke="grey" stroke-width="2" d="M597.92,-71.7C590.61,-63.3 581.69,-53.07 573.66,-43.86"/>
<polygon fill="grey" stroke="grey" stroke-width="2" points="576.11,-41.34 566.91,-36.1 570.84,-45.94 576.11,-41.34"/>
</g>
<!-- 17&#45;&gt;18 -->
<g id="edge29" class="edge">
<title>17&#45;&gt;18</title>
<path fill="none" stroke="grey" stroke-width="2" d="M751,-71.97C709.98,-61.05 656.95,-46.93 615.94,-36.02"/>
<polygon fill="grey" stroke="grey" stroke-width="2" points="616.62,-32.58 606.06,-33.39 614.82,-39.34 616.62,-32.58"/>
</g>
</g>
</svg>
