<?xml version="1.0" encoding="UTF-8" standalone="no"?>
<!DOCTYPE svg PUBLIC "-//W3C//DTD SVG 1.1//EN"
 "http://www.w3.org/Graphics/SVG/1.1/DTD/svg11.dtd">
<!-- Generated by graphviz version 2.50.0 (0)
 -->
<!-- Title: snakemake_dag Pages: 1 -->
<svg width="1493pt" height="1700pt"
 viewBox="0.00 0.00 1492.50 1700.00" xmlns="http://www.w3.org/2000/svg" xmlns:xlink="http://www.w3.org/1999/xlink">
<g id="graph0" class="graph" transform="scale(1 1) rotate(0) translate(4 1696)">
<title>snakemake_dag</title>
<polygon fill="white" stroke="transparent" points="-4,4 -4,-1696 1488.5,-1696 1488.5,4 -4,4"/>
<!-- 0 -->
<g id="node1" class="node">
<title>0</title>
<path fill="none" stroke="#56d882" stroke-width="2" d="M137,-1476C137,-1476 12,-1476 12,-1476 6,-1476 0,-1470 0,-1464 0,-1464 0,-1452 0,-1452 0,-1446 6,-1440 12,-1440 12,-1440 137,-1440 137,-1440 143,-1440 149,-1446 149,-1452 149,-1452 149,-1464 149,-1464 149,-1470 143,-1476 137,-1476"/>
<text text-anchor="middle" x="74.5" y="-1455.5" font-family="sans" font-size="10.00">run_all_snp_calling_tetraploid</text>
</g>
<!-- 1 -->
<g id="node2" class="node">
<title>1</title>
<path fill="none" stroke="#568ad8" stroke-width="2" d="M210,-1548C210,-1548 145,-1548 145,-1548 139,-1548 133,-1542 133,-1536 133,-1536 133,-1524 133,-1524 133,-1518 139,-1512 145,-1512 145,-1512 210,-1512 210,-1512 216,-1512 222,-1518 222,-1524 222,-1524 222,-1536 222,-1536 222,-1542 216,-1548 210,-1548"/>
<text text-anchor="middle" x="177.5" y="-1527.5" font-family="sans" font-size="10.00">sort_variants_all</text>
</g>
<!-- 1&#45;&gt;0 -->
<g id="edge1" class="edge">
<title>1&#45;&gt;0</title>
<path fill="none" stroke="grey" stroke-width="2" d="M152.3,-1511.88C139.09,-1502.89 122.71,-1491.76 108.39,-1482.03"/>
<polygon fill="grey" stroke="grey" stroke-width="2" points="110.03,-1478.92 99.79,-1476.19 106.1,-1484.71 110.03,-1478.92"/>
</g>
<!-- 23 -->
<g id="node24" class="node">
<title>23</title>
<path fill="none" stroke="#c6d856" stroke-width="2" d="M1196,-1476C1196,-1476 1089,-1476 1089,-1476 1083,-1476 1077,-1470 1077,-1464 1077,-1464 1077,-1452 1077,-1452 1077,-1446 1083,-1440 1089,-1440 1089,-1440 1196,-1440 1196,-1440 1202,-1440 1208,-1446 1208,-1452 1208,-1452 1208,-1464 1208,-1464 1208,-1470 1202,-1476 1196,-1476"/>
<text text-anchor="middle" x="1142.5" y="-1455.5" font-family="sans" font-size="10.00">generate_vcf_sample_set</text>
</g>
<!-- 1&#45;&gt;23 -->
<g id="edge39" class="edge">
<title>1&#45;&gt;23</title>
<path fill="none" stroke="grey" stroke-width="2" d="M222.25,-1516.55C229.95,-1514.77 237.92,-1513.16 245.5,-1512 518.8,-1470.29 590.53,-1492.5 866.5,-1476 934.28,-1471.95 1011.42,-1467.18 1066.88,-1463.73"/>
<polygon fill="grey" stroke="grey" stroke-width="2" points="1067.22,-1467.22 1076.98,-1463.1 1066.78,-1460.23 1067.22,-1467.22"/>
</g>
<!-- 2 -->
<g id="node3" class="node">
<title>2</title>
<path fill="none" stroke="#56d8c1" stroke-width="2" d="M254,-36C254,-36 193,-36 193,-36 187,-36 181,-30 181,-24 181,-24 181,-12 181,-12 181,-6 187,0 193,0 193,0 254,0 254,0 260,0 266,-6 266,-12 266,-12 266,-24 266,-24 266,-30 260,-36 254,-36"/>
<text text-anchor="middle" x="223.5" y="-15.5" font-family="sans" font-size="10.00">gather_variants</text>
</g>
<!-- 2&#45;&gt;1 -->
<g id="edge2" class="edge">
<title>2&#45;&gt;1</title>
<path fill="none" stroke="grey" stroke-width="2" d="M213.97,-36.34C200.5,-62.53 177.5,-114.1 177.5,-161 177.5,-1387 177.5,-1387 177.5,-1387 177.5,-1427 177.5,-1473.35 177.5,-1501.92"/>
<polygon fill="grey" stroke="grey" stroke-width="2" points="174,-1501.95 177.5,-1511.95 181,-1501.95 174,-1501.95"/>
</g>
<!-- 3 -->
<g id="node4" class="node">
<title>3</title>
<path fill="none" stroke="#56d8b1" stroke-width="2" d="M371,-108C371,-108 266,-108 266,-108 260,-108 254,-102 254,-96 254,-96 254,-84 254,-84 254,-78 260,-72 266,-72 266,-72 371,-72 371,-72 377,-72 383,-78 383,-84 383,-84 383,-96 383,-96 383,-102 377,-108 371,-108"/>
<text text-anchor="middle" x="318.5" y="-87.5" font-family="sans" font-size="10.00">compress_synonymy_vcf</text>
</g>
<!-- 3&#45;&gt;2 -->
<g id="edge3" class="edge">
<title>3&#45;&gt;2</title>
<path fill="none" stroke="grey" stroke-width="2" d="M295.02,-71.7C282.94,-62.8 268.05,-51.82 254.98,-42.2"/>
<polygon fill="grey" stroke="grey" stroke-width="2" points="256.84,-39.22 246.71,-36.1 252.69,-44.85 256.84,-39.22"/>
</g>
<!-- 4 -->
<g id="node5" class="node">
<title>4</title>
<path fill="none" stroke="#56d86b" stroke-width="2" d="M368.5,-180C368.5,-180 280.5,-180 280.5,-180 274.5,-180 268.5,-174 268.5,-168 268.5,-168 268.5,-156 268.5,-156 268.5,-150 274.5,-144 280.5,-144 280.5,-144 368.5,-144 368.5,-144 374.5,-144 380.5,-150 380.5,-156 380.5,-156 380.5,-168 380.5,-168 380.5,-174 374.5,-180 368.5,-180"/>
<text text-anchor="middle" x="324.5" y="-159.5" font-family="sans" font-size="10.00">determine_synonymy</text>
</g>
<!-- 4&#45;&gt;3 -->
<g id="edge4" class="edge">
<title>4&#45;&gt;3</title>
<path fill="none" stroke="grey" stroke-width="2" d="M323.02,-143.7C322.36,-135.98 321.56,-126.71 320.82,-118.11"/>
<polygon fill="grey" stroke="grey" stroke-width="2" points="324.31,-117.77 319.97,-108.1 317.33,-118.37 324.31,-117.77"/>
</g>
<!-- 5 -->
<g id="node6" class="node">
<title>5</title>
<path fill="none" stroke="#d87556" stroke-width="2" d="M387.5,-252C387.5,-252 275.5,-252 275.5,-252 269.5,-252 263.5,-246 263.5,-240 263.5,-240 263.5,-228 263.5,-228 263.5,-222 269.5,-216 275.5,-216 275.5,-216 387.5,-216 387.5,-216 393.5,-216 399.5,-222 399.5,-228 399.5,-228 399.5,-240 399.5,-240 399.5,-246 393.5,-252 387.5,-252"/>
<text text-anchor="middle" x="331.5" y="-231.5" font-family="sans" font-size="10.00">compress_degeneracy_vcf</text>
</g>
<!-- 5&#45;&gt;4 -->
<g id="edge7" class="edge">
<title>5&#45;&gt;4</title>
<path fill="none" stroke="grey" stroke-width="2" d="M329.77,-215.7C329,-207.98 328.07,-198.71 327.21,-190.11"/>
<polygon fill="grey" stroke="grey" stroke-width="2" points="330.69,-189.71 326.21,-180.1 323.72,-190.4 330.69,-189.71"/>
</g>
<!-- 6 -->
<g id="node7" class="node">
<title>6</title>
<path fill="none" stroke="#afd856" stroke-width="2" d="M391,-324C391,-324 296,-324 296,-324 290,-324 284,-318 284,-312 284,-312 284,-300 284,-300 284,-294 290,-288 296,-288 296,-288 391,-288 391,-288 397,-288 403,-294 403,-300 403,-300 403,-312 403,-312 403,-318 397,-324 391,-324"/>
<text text-anchor="middle" x="343.5" y="-303.5" font-family="sans" font-size="10.00">determine_degeneracy</text>
</g>
<!-- 6&#45;&gt;5 -->
<g id="edge8" class="edge">
<title>6&#45;&gt;5</title>
<path fill="none" stroke="grey" stroke-width="2" d="M340.53,-287.7C339.21,-279.98 337.62,-270.71 336.15,-262.11"/>
<polygon fill="grey" stroke="grey" stroke-width="2" points="339.57,-261.37 334.43,-252.1 332.67,-262.55 339.57,-261.37"/>
</g>
<!-- 7 -->
<g id="node8" class="node">
<title>7</title>
<path fill="none" stroke="#d8d356" stroke-width="2" d="M425,-396C425,-396 310,-396 310,-396 304,-396 298,-390 298,-384 298,-384 298,-372 298,-372 298,-366 304,-360 310,-360 310,-360 425,-360 425,-360 431,-360 437,-366 437,-372 437,-372 437,-384 437,-384 437,-390 431,-396 425,-396"/>
<text text-anchor="middle" x="367.5" y="-375.5" font-family="sans" font-size="10.00">predict_variant_effects_vep</text>
</g>
<!-- 7&#45;&gt;6 -->
<g id="edge9" class="edge">
<title>7&#45;&gt;6</title>
<path fill="none" stroke="grey" stroke-width="2" d="M361.57,-359.7C358.89,-351.9 355.67,-342.51 352.7,-333.83"/>
<polygon fill="grey" stroke="grey" stroke-width="2" points="355.92,-332.43 349.36,-324.1 349.3,-334.7 355.92,-332.43"/>
</g>
<!-- 8 -->
<g id="node9" class="node">
<title>8</title>
<path fill="none" stroke="#d89c56" stroke-width="2" d="M1076,-1692C1076,-1692 955,-1692 955,-1692 949,-1692 943,-1686 943,-1680 943,-1680 943,-1668 943,-1668 943,-1662 949,-1656 955,-1656 955,-1656 1076,-1656 1076,-1656 1082,-1656 1088,-1662 1088,-1668 1088,-1668 1088,-1680 1088,-1680 1088,-1686 1082,-1692 1076,-1692"/>
<text text-anchor="middle" x="1015.5" y="-1671.5" font-family="sans" font-size="10.00">resource_reference_genome</text>
</g>
<!-- 8&#45;&gt;4 -->
<g id="edge5" class="edge">
<title>8&#45;&gt;4</title>
<path fill="none" stroke="grey" stroke-width="2" d="M1088.38,-1670.94C1191.26,-1666.82 1372.67,-1654.73 1427.5,-1620 1467.18,-1594.87 1484.5,-1577.97 1484.5,-1531 1484.5,-1531 1484.5,-1531 1484.5,-305 1484.5,-194.05 637.65,-169.03 391.09,-164.1"/>
<polygon fill="grey" stroke="grey" stroke-width="2" points="390.91,-160.59 380.84,-163.9 390.77,-167.59 390.91,-160.59"/>
</g>
<!-- 8&#45;&gt;6 -->
<g id="edge11" class="edge">
<title>8&#45;&gt;6</title>
<path fill="none" stroke="grey" stroke-width="2" d="M1088.36,-1670.29C1184.09,-1665.47 1345.8,-1652.64 1394.5,-1620 1432.55,-1594.49 1446.5,-1576.81 1446.5,-1531 1446.5,-1531 1446.5,-1531 1446.5,-449 1446.5,-344.37 655.71,-315.12 413.3,-308.61"/>
<polygon fill="grey" stroke="grey" stroke-width="2" points="413.28,-305.11 403.19,-308.34 413.1,-312.11 413.28,-305.11"/>
</g>
<!-- 8&#45;&gt;7 -->
<g id="edge12" class="edge">
<title>8&#45;&gt;7</title>
<path fill="none" stroke="grey" stroke-width="2" d="M1088.02,-1669.68C1176.81,-1664.31 1320.69,-1651.01 1363.5,-1620 1399.4,-1594 1408.5,-1575.32 1408.5,-1531 1408.5,-1531 1408.5,-1531 1408.5,-521 1408.5,-424.07 690.74,-390.2 447.21,-381.5"/>
<polygon fill="grey" stroke="grey" stroke-width="2" points="447.13,-378 437.01,-381.14 446.88,-385 447.13,-378"/>
</g>
<!-- 16 -->
<g id="node17" class="node">
<title>16</title>
<path fill="none" stroke="#56d88a" stroke-width="2" d="M1026,-972C1026,-972 945,-972 945,-972 939,-972 933,-966 933,-960 933,-960 933,-948 933,-948 933,-942 939,-936 945,-936 945,-936 1026,-936 1026,-936 1032,-936 1038,-942 1038,-948 1038,-948 1038,-960 1038,-960 1038,-966 1032,-972 1026,-972"/>
<text text-anchor="middle" x="985.5" y="-951.5" font-family="sans" font-size="10.00">quality_tag_variants</text>
</g>
<!-- 8&#45;&gt;16 -->
<g id="edge25" class="edge">
<title>8&#45;&gt;16</title>
<path fill="none" stroke="grey" stroke-width="2" d="M1088.07,-1669.19C1170.52,-1663.48 1298.45,-1649.97 1335.5,-1620 1368.55,-1593.27 1370.5,-1573.5 1370.5,-1531 1370.5,-1531 1370.5,-1531 1370.5,-1097 1370.5,-1063.06 1157.19,-1000.97 1048.13,-971.44"/>
<polygon fill="grey" stroke="grey" stroke-width="2" points="1048.79,-968 1038.23,-968.78 1046.97,-974.76 1048.79,-968"/>
</g>
<!-- 17 -->
<g id="node18" class="node">
<title>17</title>
<path fill="none" stroke="#56d89a" stroke-width="2" d="M1019,-1044C1019,-1044 926,-1044 926,-1044 920,-1044 914,-1038 914,-1032 914,-1032 914,-1020 914,-1020 914,-1014 920,-1008 926,-1008 926,-1008 1019,-1008 1019,-1008 1025,-1008 1031,-1014 1031,-1020 1031,-1020 1031,-1032 1031,-1032 1031,-1038 1025,-1044 1019,-1044"/>
<text text-anchor="middle" x="972.5" y="-1023.5" font-family="sans" font-size="10.00">call_imported_variants</text>
</g>
<!-- 8&#45;&gt;17 -->
<g id="edge27" class="edge">
<title>8&#45;&gt;17</title>
<path fill="none" stroke="grey" stroke-width="2" d="M1019.65,-1655.81C1034.42,-1594.11 1083.5,-1383.8 1083.5,-1315 1083.5,-1315 1083.5,-1315 1083.5,-1169 1083.5,-1128.55 1088.3,-1112.7 1064.5,-1080 1055.16,-1067.16 1041.69,-1056.97 1027.92,-1049.08"/>
<polygon fill="grey" stroke="grey" stroke-width="2" points="1029.34,-1045.87 1018.88,-1044.23 1026.04,-1052.04 1029.34,-1045.87"/>
</g>
<!-- 27 -->
<g id="node28" class="node">
<title>27</title>
<path fill="none" stroke="#d85656" stroke-width="2" d="M860.5,-1332C860.5,-1332 764.5,-1332 764.5,-1332 758.5,-1332 752.5,-1326 752.5,-1320 752.5,-1320 752.5,-1308 752.5,-1308 752.5,-1302 758.5,-1296 764.5,-1296 764.5,-1296 860.5,-1296 860.5,-1296 866.5,-1296 872.5,-1302 872.5,-1308 872.5,-1308 872.5,-1320 872.5,-1320 872.5,-1326 866.5,-1332 860.5,-1332"/>
<text text-anchor="middle" x="812.5" y="-1311.5" font-family="sans" font-size="10.00">call_haplotypes_diploid</text>
</g>
<!-- 8&#45;&gt;27 -->
<g id="edge49" class="edge">
<title>8&#45;&gt;27</title>
<path fill="none" stroke="grey" stroke-width="2" d="M1015.9,-1655.6C1016.61,-1626.07 1018.24,-1564.25 1020.5,-1512 1022.58,-1463.97 1025.17,-1452.06 1026.5,-1404 1026.94,-1388.01 1036.36,-1380.6 1026.5,-1368 1008.76,-1345.33 938.01,-1331.01 882.66,-1323.05"/>
<polygon fill="grey" stroke="grey" stroke-width="2" points="882.9,-1319.55 872.51,-1321.63 881.94,-1326.48 882.9,-1319.55"/>
</g>
<!-- 29 -->
<g id="node30" class="node">
<title>29</title>
<path fill="none" stroke="#56c9d8" stroke-width="2" d="M836,-1548C836,-1548 793,-1548 793,-1548 787,-1548 781,-1542 781,-1536 781,-1536 781,-1524 781,-1524 781,-1518 787,-1512 793,-1512 793,-1512 836,-1512 836,-1512 842,-1512 848,-1518 848,-1524 848,-1524 848,-1536 848,-1536 848,-1542 842,-1548 836,-1548"/>
<text text-anchor="middle" x="814.5" y="-1527.5" font-family="sans" font-size="10.00">map_reads</text>
</g>
<!-- 8&#45;&gt;29 -->
<g id="edge53" class="edge">
<title>8&#45;&gt;29</title>
<path fill="none" stroke="grey" stroke-width="2" d="M991.91,-1655.9C977.97,-1645.67 960.06,-1632.31 944.5,-1620 924.95,-1604.54 921.76,-1598.52 901.5,-1584 886.36,-1573.14 868.95,-1562.25 853.7,-1553.19"/>
<polygon fill="grey" stroke="grey" stroke-width="2" points="855.4,-1550.13 845.01,-1548.07 851.86,-1556.16 855.4,-1550.13"/>
</g>
<!-- 30 -->
<g id="node31" class="node">
<title>30</title>
<path fill="none" stroke="#d89556" stroke-width="2" d="M880.5,-1620C880.5,-1620 750.5,-1620 750.5,-1620 744.5,-1620 738.5,-1614 738.5,-1608 738.5,-1608 738.5,-1596 738.5,-1596 738.5,-1590 744.5,-1584 750.5,-1584 750.5,-1584 880.5,-1584 880.5,-1584 886.5,-1584 892.5,-1590 892.5,-1596 892.5,-1596 892.5,-1608 892.5,-1608 892.5,-1614 886.5,-1620 880.5,-1620"/>
<text text-anchor="middle" x="815.5" y="-1599.5" font-family="sans" font-size="10.00">index_reference_genome_bwa</text>
</g>
<!-- 8&#45;&gt;30 -->
<g id="edge55" class="edge">
<title>8&#45;&gt;30</title>
<path fill="none" stroke="grey" stroke-width="2" d="M966.83,-1655.97C938.89,-1646.19 903.6,-1633.84 874.14,-1623.52"/>
<polygon fill="grey" stroke="grey" stroke-width="2" points="874.98,-1620.11 864.39,-1620.11 872.67,-1626.72 874.98,-1620.11"/>
</g>
<!-- 33 -->
<g id="node34" class="node">
<title>33</title>
<path fill="none" stroke="#56d8c1" stroke-width="2" d="M708.5,-1620C708.5,-1620 578.5,-1620 578.5,-1620 572.5,-1620 566.5,-1614 566.5,-1608 566.5,-1608 566.5,-1596 566.5,-1596 566.5,-1590 572.5,-1584 578.5,-1584 578.5,-1584 708.5,-1584 708.5,-1584 714.5,-1584 720.5,-1590 720.5,-1596 720.5,-1596 720.5,-1608 720.5,-1608 720.5,-1614 714.5,-1620 708.5,-1620"/>
<text text-anchor="middle" x="643.5" y="-1599.5" font-family="sans" font-size="10.00">index_reference_genome_gatk</text>
</g>
<!-- 8&#45;&gt;33 -->
<g id="edge58" class="edge">
<title>8&#45;&gt;33</title>
<path fill="none" stroke="grey" stroke-width="2" d="M942.87,-1659.79C887.41,-1649.64 808.8,-1635.14 730.84,-1620.25"/>
<polygon fill="grey" stroke="grey" stroke-width="2" points="731.33,-1616.78 720.85,-1618.33 730.01,-1623.65 731.33,-1616.78"/>
</g>
<!-- 34 -->
<g id="node35" class="node">
<title>34</title>
<path fill="none" stroke="#5692d8" stroke-width="2" d="M1005,-1404C1005,-1404 854,-1404 854,-1404 848,-1404 842,-1398 842,-1392 842,-1392 842,-1380 842,-1380 842,-1374 848,-1368 854,-1368 854,-1368 1005,-1368 1005,-1368 1011,-1368 1017,-1374 1017,-1380 1017,-1380 1017,-1392 1017,-1392 1017,-1398 1011,-1404 1005,-1404"/>
<text text-anchor="middle" x="929.5" y="-1383.5" font-family="sans" font-size="10.00">index_reference_genome_samtools</text>
</g>
<!-- 8&#45;&gt;34 -->
<g id="edge59" class="edge">
<title>8&#45;&gt;34</title>
<path fill="none" stroke="grey" stroke-width="2" d="M1002.63,-1655.65C995.77,-1645.67 987.7,-1632.63 982.5,-1620 953.27,-1548.94 938.59,-1458.73 932.71,-1414.28"/>
<polygon fill="grey" stroke="grey" stroke-width="2" points="936.17,-1413.74 931.43,-1404.26 929.22,-1414.62 936.17,-1413.74"/>
</g>
<!-- 9 -->
<g id="node10" class="node">
<title>9</title>
<path fill="none" stroke="#56d8a2" stroke-width="2" d="M364,-1476C364,-1476 267,-1476 267,-1476 261,-1476 255,-1470 255,-1464 255,-1464 255,-1452 255,-1452 255,-1446 261,-1440 267,-1440 267,-1440 364,-1440 364,-1440 370,-1440 376,-1446 376,-1452 376,-1452 376,-1464 376,-1464 376,-1470 370,-1476 364,-1476"/>
<text text-anchor="middle" x="315.5" y="-1455.5" font-family="sans" font-size="10.00">sort_and_compress_gff</text>
</g>
<!-- 9&#45;&gt;4 -->
<g id="edge6" class="edge">
<title>9&#45;&gt;4</title>
<path fill="none" stroke="grey" stroke-width="2" d="M292.31,-1439.61C262.77,-1415.28 215.5,-1368.07 215.5,-1315 215.5,-1315 215.5,-1315 215.5,-305 215.5,-261.81 227.75,-249.91 254.5,-216 263.54,-204.54 275.61,-194.24 287.18,-185.83"/>
<polygon fill="grey" stroke="grey" stroke-width="2" points="289.26,-188.64 295.47,-180.05 285.26,-182.9 289.26,-188.64"/>
</g>
<!-- 9&#45;&gt;6 -->
<g id="edge10" class="edge">
<title>9&#45;&gt;6</title>
<path fill="none" stroke="grey" stroke-width="2" d="M302.35,-1439.69C284.15,-1413.95 253.5,-1363.42 253.5,-1315 253.5,-1315 253.5,-1315 253.5,-449 253.5,-406.5 264.88,-395.34 288.5,-360 295.58,-349.41 305.1,-339.3 314.22,-330.8"/>
<polygon fill="grey" stroke="grey" stroke-width="2" points="316.62,-333.35 321.73,-324.07 311.95,-328.14 316.62,-333.35"/>
</g>
<!-- 9&#45;&gt;7 -->
<g id="edge15" class="edge">
<title>9&#45;&gt;7</title>
<path fill="none" stroke="grey" stroke-width="2" d="M318.6,-1439.73C329.79,-1375.74 367.5,-1146.01 367.5,-955 367.5,-955 367.5,-955 367.5,-521 367.5,-481 367.5,-434.65 367.5,-406.08"/>
<polygon fill="grey" stroke="grey" stroke-width="2" points="371,-406.05 367.5,-396.05 364,-406.05 371,-406.05"/>
</g>
<!-- 12 -->
<g id="node13" class="node">
<title>12</title>
<path fill="none" stroke="#d8bc56" stroke-width="2" d="M327,-1044C327,-1044 294,-1044 294,-1044 288,-1044 282,-1038 282,-1032 282,-1032 282,-1020 282,-1020 282,-1014 288,-1008 294,-1008 294,-1008 327,-1008 327,-1008 333,-1008 339,-1014 339,-1020 339,-1020 339,-1032 339,-1032 339,-1038 333,-1044 327,-1044"/>
<text text-anchor="middle" x="310.5" y="-1023.5" font-family="sans" font-size="10.00">index_gff</text>
</g>
<!-- 9&#45;&gt;12 -->
<g id="edge18" class="edge">
<title>9&#45;&gt;12</title>
<path fill="none" stroke="grey" stroke-width="2" d="M310.64,-1439.67C303.63,-1413.08 291.5,-1360.5 291.5,-1315 291.5,-1315 291.5,-1315 291.5,-1169 291.5,-1128.86 299.05,-1082.9 304.63,-1054.4"/>
<polygon fill="grey" stroke="grey" stroke-width="2" points="308.11,-1054.88 306.66,-1044.39 301.24,-1053.5 308.11,-1054.88"/>
</g>
<!-- 36 -->
<g id="node37" class="node">
<title>36</title>
<path fill="none" stroke="#d88556" stroke-width="2" d="M603.5,-1404C603.5,-1404 445.5,-1404 445.5,-1404 439.5,-1404 433.5,-1398 433.5,-1392 433.5,-1392 433.5,-1380 433.5,-1380 433.5,-1374 439.5,-1368 445.5,-1368 445.5,-1368 603.5,-1368 603.5,-1368 609.5,-1368 615.5,-1374 615.5,-1380 615.5,-1380 615.5,-1392 615.5,-1392 615.5,-1398 609.5,-1404 603.5,-1404"/>
<text text-anchor="middle" x="524.5" y="-1383.5" font-family="sans" font-size="10.00">generate_intervals_haplotype_calling</text>
</g>
<!-- 9&#45;&gt;36 -->
<g id="edge61" class="edge">
<title>9&#45;&gt;36</title>
<path fill="none" stroke="grey" stroke-width="2" d="M366.36,-1439.97C395.69,-1430.14 432.75,-1417.73 463.62,-1407.39"/>
<polygon fill="grey" stroke="grey" stroke-width="2" points="465.04,-1410.61 473.41,-1404.11 462.82,-1403.97 465.04,-1410.61"/>
</g>
<!-- 39 -->
<g id="node40" class="node">
<title>39</title>
<path fill="none" stroke="#566bd8" stroke-width="2" d="M738.5,-1188C738.5,-1188 620.5,-1188 620.5,-1188 614.5,-1188 608.5,-1182 608.5,-1176 608.5,-1176 608.5,-1164 608.5,-1164 608.5,-1158 614.5,-1152 620.5,-1152 620.5,-1152 738.5,-1152 738.5,-1152 744.5,-1152 750.5,-1158 750.5,-1164 750.5,-1164 750.5,-1176 750.5,-1176 750.5,-1182 744.5,-1188 738.5,-1188"/>
<text text-anchor="middle" x="679.5" y="-1167.5" font-family="sans" font-size="10.00">generate_genomic_intervals</text>
</g>
<!-- 9&#45;&gt;39 -->
<g id="edge63" class="edge">
<title>9&#45;&gt;39</title>
<path fill="none" stroke="grey" stroke-width="2" d="M325.05,-1439.73C350.11,-1396.13 422.27,-1281.03 515.5,-1224 540.73,-1208.57 570.93,-1197.15 598.49,-1188.95"/>
<polygon fill="grey" stroke="grey" stroke-width="2" points="599.48,-1192.31 608.12,-1186.18 597.54,-1185.58 599.48,-1192.31"/>
</g>
<!-- 10 -->
<g id="node11" class="node">
<title>10</title>
<path fill="none" stroke="#567bd8" stroke-width="2" d="M364.5,-1548C364.5,-1548 266.5,-1548 266.5,-1548 260.5,-1548 254.5,-1542 254.5,-1536 254.5,-1536 254.5,-1524 254.5,-1524 254.5,-1518 260.5,-1512 266.5,-1512 266.5,-1512 364.5,-1512 364.5,-1512 370.5,-1512 376.5,-1518 376.5,-1524 376.5,-1524 376.5,-1536 376.5,-1536 376.5,-1542 370.5,-1548 364.5,-1548"/>
<text text-anchor="middle" x="315.5" y="-1527.5" font-family="sans" font-size="10.00">cleanup_annotation_file</text>
</g>
<!-- 10&#45;&gt;9 -->
<g id="edge16" class="edge">
<title>10&#45;&gt;9</title>
<path fill="none" stroke="grey" stroke-width="2" d="M315.5,-1511.7C315.5,-1503.98 315.5,-1494.71 315.5,-1486.11"/>
<polygon fill="grey" stroke="grey" stroke-width="2" points="319,-1486.1 315.5,-1476.1 312,-1486.1 319,-1486.1"/>
</g>
<!-- 11 -->
<g id="node12" class="node">
<title>11</title>
<path fill="none" stroke="#c6d856" stroke-width="2" d="M366.5,-1620C366.5,-1620 264.5,-1620 264.5,-1620 258.5,-1620 252.5,-1614 252.5,-1608 252.5,-1608 252.5,-1596 252.5,-1596 252.5,-1590 258.5,-1584 264.5,-1584 264.5,-1584 366.5,-1584 366.5,-1584 372.5,-1584 378.5,-1590 378.5,-1596 378.5,-1596 378.5,-1608 378.5,-1608 378.5,-1614 372.5,-1620 366.5,-1620"/>
<text text-anchor="middle" x="315.5" y="-1599.5" font-family="sans" font-size="10.00">resource_annotation_file</text>
</g>
<!-- 11&#45;&gt;10 -->
<g id="edge17" class="edge">
<title>11&#45;&gt;10</title>
<path fill="none" stroke="grey" stroke-width="2" d="M315.5,-1583.7C315.5,-1575.98 315.5,-1566.71 315.5,-1558.11"/>
<polygon fill="grey" stroke="grey" stroke-width="2" points="319,-1558.1 315.5,-1548.1 312,-1558.1 319,-1558.1"/>
</g>
<!-- 12&#45;&gt;7 -->
<g id="edge13" class="edge">
<title>12&#45;&gt;7</title>
<path fill="none" stroke="grey" stroke-width="2" d="M312.48,-1007.98C315.39,-981.36 320.5,-928.23 320.5,-883 320.5,-883 320.5,-883 320.5,-521 320.5,-478.96 339.3,-433.29 353.12,-405.41"/>
<polygon fill="grey" stroke="grey" stroke-width="2" points="356.33,-406.82 357.76,-396.32 350.1,-403.63 356.33,-406.82"/>
</g>
<!-- 13 -->
<g id="node14" class="node">
<title>13</title>
<path fill="none" stroke="#d86e56" stroke-width="2" d="M779.5,-468C779.5,-468 645.5,-468 645.5,-468 639.5,-468 633.5,-462 633.5,-456 633.5,-456 633.5,-444 633.5,-444 633.5,-438 639.5,-432 645.5,-432 645.5,-432 779.5,-432 779.5,-432 785.5,-432 791.5,-438 791.5,-444 791.5,-444 791.5,-456 791.5,-456 791.5,-462 785.5,-468 779.5,-468"/>
<text text-anchor="middle" x="712.5" y="-447.5" font-family="sans" font-size="10.00">compress_ancestral_alleles_vcf</text>
</g>
<!-- 13&#45;&gt;7 -->
<g id="edge14" class="edge">
<title>13&#45;&gt;7</title>
<path fill="none" stroke="grey" stroke-width="2" d="M633.35,-432.94C577.52,-421.61 503.02,-406.5 447.09,-395.15"/>
<polygon fill="grey" stroke="grey" stroke-width="2" points="447.72,-391.71 437.22,-393.15 446.33,-398.57 447.72,-391.71"/>
</g>
<!-- 14 -->
<g id="node15" class="node">
<title>14</title>
<path fill="none" stroke="#59d856" stroke-width="2" d="M1028,-540C1028,-540 907,-540 907,-540 901,-540 895,-534 895,-528 895,-528 895,-516 895,-516 895,-510 901,-504 907,-504 907,-504 1028,-504 1028,-504 1034,-504 1040,-510 1040,-516 1040,-516 1040,-528 1040,-528 1040,-534 1034,-540 1028,-540"/>
<text text-anchor="middle" x="967.5" y="-519.5" font-family="sans" font-size="10.00">recode_ancestral_alleles_vcf</text>
</g>
<!-- 14&#45;&gt;13 -->
<g id="edge19" class="edge">
<title>14&#45;&gt;13</title>
<path fill="none" stroke="grey" stroke-width="2" d="M905.45,-503.97C869.04,-493.97 822.87,-481.3 784.82,-470.85"/>
<polygon fill="grey" stroke="grey" stroke-width="2" points="785.4,-467.38 774.83,-468.11 783.55,-474.13 785.4,-467.38"/>
</g>
<!-- 15 -->
<g id="node16" class="node">
<title>15</title>
<path fill="none" stroke="#61d856" stroke-width="2" d="M1004.5,-900C1004.5,-900 966.5,-900 966.5,-900 960.5,-900 954.5,-894 954.5,-888 954.5,-888 954.5,-876 954.5,-876 954.5,-870 960.5,-864 966.5,-864 966.5,-864 1004.5,-864 1004.5,-864 1010.5,-864 1016.5,-870 1016.5,-876 1016.5,-876 1016.5,-888 1016.5,-888 1016.5,-894 1010.5,-900 1004.5,-900"/>
<text text-anchor="middle" x="985.5" y="-879.5" font-family="sans" font-size="10.00">filter_snps</text>
</g>
<!-- 15&#45;&gt;14 -->
<g id="edge22" class="edge">
<title>15&#45;&gt;14</title>
<path fill="none" stroke="grey" stroke-width="2" d="M973.9,-863.93C957.49,-838.09 929.5,-786.97 929.5,-739 929.5,-739 929.5,-739 929.5,-665 929.5,-623.63 944.73,-577.72 955.91,-549.61"/>
<polygon fill="grey" stroke="grey" stroke-width="2" points="959.26,-550.67 959.81,-540.09 952.78,-548.02 959.26,-550.67"/>
</g>
<!-- 43 -->
<g id="node44" class="node">
<title>43</title>
<path fill="none" stroke="#565bd8" stroke-width="2" d="M1186,-828C1186,-828 1095,-828 1095,-828 1089,-828 1083,-822 1083,-816 1083,-816 1083,-804 1083,-804 1083,-798 1089,-792 1095,-792 1095,-792 1186,-792 1186,-792 1192,-792 1198,-798 1198,-804 1198,-804 1198,-816 1198,-816 1198,-822 1192,-828 1186,-828"/>
<text text-anchor="middle" x="1140.5" y="-807.5" font-family="sans" font-size="10.00">prepare_input_est_sfs</text>
</g>
<!-- 15&#45;&gt;43 -->
<g id="edge72" class="edge">
<title>15&#45;&gt;43</title>
<path fill="none" stroke="grey" stroke-width="2" d="M1016.87,-866.83C1038.83,-856.92 1068.56,-843.49 1093.37,-832.29"/>
<polygon fill="grey" stroke="grey" stroke-width="2" points="1094.93,-835.42 1102.61,-828.11 1092.05,-829.04 1094.93,-835.42"/>
</g>
<!-- 16&#45;&gt;15 -->
<g id="edge24" class="edge">
<title>16&#45;&gt;15</title>
<path fill="none" stroke="grey" stroke-width="2" d="M985.5,-935.7C985.5,-927.98 985.5,-918.71 985.5,-910.11"/>
<polygon fill="grey" stroke="grey" stroke-width="2" points="989,-910.1 985.5,-900.1 982,-910.1 989,-910.1"/>
</g>
<!-- 17&#45;&gt;16 -->
<g id="edge26" class="edge">
<title>17&#45;&gt;16</title>
<path fill="none" stroke="grey" stroke-width="2" d="M975.71,-1007.7C977.15,-999.98 978.87,-990.71 980.46,-982.11"/>
<polygon fill="grey" stroke="grey" stroke-width="2" points="983.94,-982.58 982.32,-972.1 977.06,-981.3 983.94,-982.58"/>
</g>
<!-- 18 -->
<g id="node19" class="node">
<title>18</title>
<path fill="none" stroke="#70d856" stroke-width="2" d="M1043.5,-1116C1043.5,-1116 901.5,-1116 901.5,-1116 895.5,-1116 889.5,-1110 889.5,-1104 889.5,-1104 889.5,-1092 889.5,-1092 889.5,-1086 895.5,-1080 901.5,-1080 901.5,-1080 1043.5,-1080 1043.5,-1080 1049.5,-1080 1055.5,-1086 1055.5,-1092 1055.5,-1092 1055.5,-1104 1055.5,-1104 1055.5,-1110 1049.5,-1116 1043.5,-1116"/>
<text text-anchor="middle" x="972.5" y="-1095.5" font-family="sans" font-size="10.00">import_variants_tetraploid_diploid</text>
</g>
<!-- 18&#45;&gt;17 -->
<g id="edge29" class="edge">
<title>18&#45;&gt;17</title>
<path fill="none" stroke="grey" stroke-width="2" d="M972.5,-1079.7C972.5,-1071.98 972.5,-1062.71 972.5,-1054.11"/>
<polygon fill="grey" stroke="grey" stroke-width="2" points="976,-1054.1 972.5,-1044.1 969,-1054.1 976,-1054.1"/>
</g>
<!-- 19 -->
<g id="node20" class="node">
<title>19</title>
<path fill="none" stroke="#d87d56" stroke-width="2" d="M1041,-1188C1041,-1188 910,-1188 910,-1188 904,-1188 898,-1182 898,-1176 898,-1176 898,-1164 898,-1164 898,-1158 904,-1152 910,-1152 910,-1152 1041,-1152 1041,-1152 1047,-1152 1053,-1158 1053,-1164 1053,-1164 1053,-1176 1053,-1176 1053,-1182 1047,-1188 1041,-1188"/>
<text text-anchor="middle" x="975.5" y="-1167.5" font-family="sans" font-size="10.00">create_sample_set_pubescens</text>
</g>
<!-- 19&#45;&gt;18 -->
<g id="edge31" class="edge">
<title>19&#45;&gt;18</title>
<path fill="none" stroke="grey" stroke-width="2" d="M974.76,-1151.7C974.43,-1143.98 974.03,-1134.71 973.66,-1126.11"/>
<polygon fill="grey" stroke="grey" stroke-width="2" points="977.16,-1125.95 973.23,-1116.1 970.16,-1126.25 977.16,-1125.95"/>
</g>
<!-- 20 -->
<g id="node21" class="node">
<title>20</title>
<path fill="none" stroke="#5682d8" stroke-width="2" d="M1257,-1260C1257,-1260 1126,-1260 1126,-1260 1120,-1260 1114,-1254 1114,-1248 1114,-1248 1114,-1236 1114,-1236 1114,-1230 1120,-1224 1126,-1224 1126,-1224 1257,-1224 1257,-1224 1263,-1224 1269,-1230 1269,-1236 1269,-1236 1269,-1248 1269,-1248 1269,-1254 1263,-1260 1257,-1260"/>
<text text-anchor="middle" x="1191.5" y="-1239.5" font-family="sans" font-size="10.00">create_sample_set_left_cluster</text>
</g>
<!-- 20&#45;&gt;19 -->
<g id="edge33" class="edge">
<title>20&#45;&gt;19</title>
<path fill="none" stroke="grey" stroke-width="2" d="M1138.94,-1223.97C1108.49,-1214.1 1069.99,-1201.62 1038,-1191.25"/>
<polygon fill="grey" stroke="grey" stroke-width="2" points="1038.89,-1187.86 1028.3,-1188.11 1036.73,-1194.52 1038.89,-1187.86"/>
</g>
<!-- 21 -->
<g id="node22" class="node">
<title>21</title>
<path fill="none" stroke="#56d892" stroke-width="2" d="M1248.5,-1332C1248.5,-1332 1140.5,-1332 1140.5,-1332 1134.5,-1332 1128.5,-1326 1128.5,-1320 1128.5,-1320 1128.5,-1308 1128.5,-1308 1128.5,-1302 1134.5,-1296 1140.5,-1296 1140.5,-1296 1248.5,-1296 1248.5,-1296 1254.5,-1296 1260.5,-1302 1260.5,-1308 1260.5,-1308 1260.5,-1320 1260.5,-1320 1260.5,-1326 1254.5,-1332 1248.5,-1332"/>
<text text-anchor="middle" x="1194.5" y="-1311.5" font-family="sans" font-size="10.00">convert_plink_sample_set</text>
</g>
<!-- 21&#45;&gt;20 -->
<g id="edge34" class="edge">
<title>21&#45;&gt;20</title>
<path fill="none" stroke="grey" stroke-width="2" d="M1193.76,-1295.7C1193.43,-1287.98 1193.03,-1278.71 1192.66,-1270.11"/>
<polygon fill="grey" stroke="grey" stroke-width="2" points="1196.16,-1269.95 1192.23,-1260.1 1189.16,-1270.25 1196.16,-1269.95"/>
</g>
<!-- 22 -->
<g id="node23" class="node">
<title>22</title>
<path fill="none" stroke="#56d8d8" stroke-width="2" d="M1269,-1404C1269,-1404 1124,-1404 1124,-1404 1118,-1404 1112,-1398 1112,-1392 1112,-1392 1112,-1380 1112,-1380 1112,-1374 1118,-1368 1124,-1368 1124,-1368 1269,-1368 1269,-1368 1275,-1368 1281,-1374 1281,-1380 1281,-1380 1281,-1392 1281,-1392 1281,-1398 1275,-1404 1269,-1404"/>
<text text-anchor="middle" x="1196.5" y="-1383.5" font-family="sans" font-size="10.00">generate_vcf_sample_set_biallelic</text>
</g>
<!-- 22&#45;&gt;21 -->
<g id="edge35" class="edge">
<title>22&#45;&gt;21</title>
<path fill="none" stroke="grey" stroke-width="2" d="M1196.01,-1367.7C1195.79,-1359.98 1195.52,-1350.71 1195.27,-1342.11"/>
<polygon fill="grey" stroke="grey" stroke-width="2" points="1198.77,-1342 1194.99,-1332.1 1191.78,-1342.2 1198.77,-1342"/>
</g>
<!-- 23&#45;&gt;22 -->
<g id="edge36" class="edge">
<title>23&#45;&gt;22</title>
<path fill="none" stroke="grey" stroke-width="2" d="M1155.85,-1439.7C1162.26,-1431.39 1170.06,-1421.28 1177.11,-1412.14"/>
<polygon fill="grey" stroke="grey" stroke-width="2" points="1179.97,-1414.16 1183.31,-1404.1 1174.43,-1409.88 1179.97,-1414.16"/>
</g>
<!-- 24 -->
<g id="node25" class="node">
<title>24</title>
<path fill="none" stroke="#d8b456" stroke-width="2" d="M859,-1116C859,-1116 764,-1116 764,-1116 758,-1116 752,-1110 752,-1104 752,-1104 752,-1092 752,-1092 752,-1086 758,-1080 764,-1080 764,-1080 859,-1080 859,-1080 865,-1080 871,-1086 871,-1092 871,-1092 871,-1104 871,-1104 871,-1110 865,-1116 859,-1116"/>
<text text-anchor="middle" x="811.5" y="-1095.5" font-family="sans" font-size="10.00">import_variants_diploid</text>
</g>
<!-- 24&#45;&gt;17 -->
<g id="edge30" class="edge">
<title>24&#45;&gt;17</title>
<path fill="none" stroke="grey" stroke-width="2" d="M850.89,-1079.88C872.89,-1070.31 900.51,-1058.3 923.86,-1048.15"/>
<polygon fill="grey" stroke="grey" stroke-width="2" points="925.47,-1051.27 933.24,-1044.07 922.68,-1044.85 925.47,-1051.27"/>
</g>
<!-- 25 -->
<g id="node26" class="node">
<title>25</title>
<path fill="none" stroke="#56d8c9" stroke-width="2" d="M844,-1188C844,-1188 781,-1188 781,-1188 775,-1188 769,-1182 769,-1176 769,-1176 769,-1164 769,-1164 769,-1158 775,-1152 781,-1152 781,-1152 844,-1152 844,-1152 850,-1152 856,-1158 856,-1164 856,-1164 856,-1176 856,-1176 856,-1182 850,-1188 844,-1188"/>
<text text-anchor="middle" x="812.5" y="-1167.5" font-family="sans" font-size="10.00">sort_haplotypes</text>
</g>
<!-- 25&#45;&gt;24 -->
<g id="edge41" class="edge">
<title>25&#45;&gt;24</title>
<path fill="none" stroke="grey" stroke-width="2" d="M812.25,-1151.7C812.14,-1143.98 812.01,-1134.71 811.89,-1126.11"/>
<polygon fill="grey" stroke="grey" stroke-width="2" points="815.39,-1126.05 811.74,-1116.1 808.39,-1126.15 815.39,-1126.05"/>
</g>
<!-- 26 -->
<g id="node27" class="node">
<title>26</title>
<path fill="none" stroke="#56d87b" stroke-width="2" d="M850,-1260C850,-1260 775,-1260 775,-1260 769,-1260 763,-1254 763,-1248 763,-1248 763,-1236 763,-1236 763,-1230 769,-1224 775,-1224 775,-1224 850,-1224 850,-1224 856,-1224 862,-1230 862,-1236 862,-1236 862,-1248 862,-1248 862,-1254 856,-1260 850,-1260"/>
<text text-anchor="middle" x="812.5" y="-1239.5" font-family="sans" font-size="10.00">gather_haplotypes</text>
</g>
<!-- 26&#45;&gt;25 -->
<g id="edge43" class="edge">
<title>26&#45;&gt;25</title>
<path fill="none" stroke="grey" stroke-width="2" d="M812.5,-1223.7C812.5,-1215.98 812.5,-1206.71 812.5,-1198.11"/>
<polygon fill="grey" stroke="grey" stroke-width="2" points="816,-1198.1 812.5,-1188.1 809,-1198.1 816,-1198.1"/>
</g>
<!-- 27&#45;&gt;26 -->
<g id="edge44" class="edge">
<title>27&#45;&gt;26</title>
<path fill="none" stroke="grey" stroke-width="2" d="M812.5,-1295.7C812.5,-1287.98 812.5,-1278.71 812.5,-1270.11"/>
<polygon fill="grey" stroke="grey" stroke-width="2" points="816,-1270.1 812.5,-1260.1 809,-1270.1 816,-1270.1"/>
</g>
<!-- 28 -->
<g id="node29" class="node">
<title>28</title>
<path fill="none" stroke="#d85e56" stroke-width="2" d="M846,-1476C846,-1476 781,-1476 781,-1476 775,-1476 769,-1470 769,-1464 769,-1464 769,-1452 769,-1452 769,-1446 775,-1440 781,-1440 781,-1440 846,-1440 846,-1440 852,-1440 858,-1446 858,-1452 858,-1452 858,-1464 858,-1464 858,-1470 852,-1476 846,-1476"/>
<text text-anchor="middle" x="813.5" y="-1455.5" font-family="sans" font-size="10.00">mark_duplicates</text>
</g>
<!-- 28&#45;&gt;27 -->
<g id="edge47" class="edge">
<title>28&#45;&gt;27</title>
<path fill="none" stroke="grey" stroke-width="2" d="M813.38,-1439.87C813.21,-1415.67 812.9,-1371.21 812.69,-1342.39"/>
<polygon fill="grey" stroke="grey" stroke-width="2" points="816.19,-1342.16 812.62,-1332.19 809.19,-1342.21 816.19,-1342.16"/>
</g>
<!-- 35 -->
<g id="node36" class="node">
<title>35</title>
<path fill="none" stroke="#d8d356" stroke-width="2" d="M773,-1404C773,-1404 684,-1404 684,-1404 678,-1404 672,-1398 672,-1392 672,-1392 672,-1380 672,-1380 672,-1374 678,-1368 684,-1368 684,-1368 773,-1368 773,-1368 779,-1368 785,-1374 785,-1380 785,-1380 785,-1392 785,-1392 785,-1398 779,-1404 773,-1404"/>
<text text-anchor="middle" x="728.5" y="-1383.5" font-family="sans" font-size="10.00">index_mapped_reads</text>
</g>
<!-- 28&#45;&gt;35 -->
<g id="edge60" class="edge">
<title>28&#45;&gt;35</title>
<path fill="none" stroke="grey" stroke-width="2" d="M792.49,-1439.7C781.78,-1430.88 768.61,-1420.03 757,-1410.47"/>
<polygon fill="grey" stroke="grey" stroke-width="2" points="759.21,-1407.76 749.27,-1404.1 754.76,-1413.16 759.21,-1407.76"/>
</g>
<!-- 29&#45;&gt;28 -->
<g id="edge51" class="edge">
<title>29&#45;&gt;28</title>
<path fill="none" stroke="grey" stroke-width="2" d="M814.25,-1511.7C814.14,-1503.98 814.01,-1494.71 813.89,-1486.11"/>
<polygon fill="grey" stroke="grey" stroke-width="2" points="817.39,-1486.05 813.74,-1476.1 810.39,-1486.15 817.39,-1486.05"/>
</g>
<!-- 30&#45;&gt;29 -->
<g id="edge52" class="edge">
<title>30&#45;&gt;29</title>
<path fill="none" stroke="grey" stroke-width="2" d="M815.25,-1583.7C815.14,-1575.98 815.01,-1566.71 814.89,-1558.11"/>
<polygon fill="grey" stroke="grey" stroke-width="2" points="818.39,-1558.05 814.74,-1548.1 811.39,-1558.15 818.39,-1558.05"/>
</g>
<!-- 31 -->
<g id="node32" class="node">
<title>31</title>
<path fill="none" stroke="#56d8d8" stroke-width="2" d="M536.5,-1620C536.5,-1620 496.5,-1620 496.5,-1620 490.5,-1620 484.5,-1614 484.5,-1608 484.5,-1608 484.5,-1596 484.5,-1596 484.5,-1590 490.5,-1584 496.5,-1584 496.5,-1584 536.5,-1584 536.5,-1584 542.5,-1584 548.5,-1590 548.5,-1596 548.5,-1596 548.5,-1608 548.5,-1608 548.5,-1614 542.5,-1620 536.5,-1620"/>
<text text-anchor="middle" x="516.5" y="-1599.5" font-family="sans" font-size="10.00">trim_reads</text>
</g>
<!-- 31&#45;&gt;29 -->
<g id="edge54" class="edge">
<title>31&#45;&gt;29</title>
<path fill="none" stroke="grey" stroke-width="2" d="M548.52,-1587.05C551.53,-1585.94 554.55,-1584.91 557.5,-1584 630.83,-1561.46 718.89,-1545.64 770.57,-1537.45"/>
<polygon fill="grey" stroke="grey" stroke-width="2" points="771.38,-1540.87 780.72,-1535.87 770.3,-1533.95 771.38,-1540.87"/>
</g>
<!-- 32 -->
<g id="node33" class="node">
<title>32</title>
<path fill="none" stroke="#97d856" stroke-width="2" d="M491,-1692C491,-1692 402,-1692 402,-1692 396,-1692 390,-1686 390,-1680 390,-1680 390,-1668 390,-1668 390,-1662 396,-1656 402,-1656 402,-1656 491,-1656 491,-1656 497,-1656 503,-1662 503,-1668 503,-1668 503,-1680 503,-1680 503,-1686 497,-1692 491,-1692"/>
<text text-anchor="middle" x="446.5" y="-1671.5" font-family="sans" font-size="10.00">resource_reads_birch</text>
</g>
<!-- 32&#45;&gt;31 -->
<g id="edge56" class="edge">
<title>32&#45;&gt;31</title>
<path fill="none" stroke="grey" stroke-width="2" d="M463.8,-1655.7C472.36,-1647.14 482.84,-1636.66 492.2,-1627.3"/>
<polygon fill="grey" stroke="grey" stroke-width="2" points="494.8,-1629.65 499.4,-1620.1 489.85,-1624.7 494.8,-1629.65"/>
</g>
<!-- 33&#45;&gt;27 -->
<g id="edge46" class="edge">
<title>33&#45;&gt;27</title>
<path fill="none" stroke="grey" stroke-width="2" d="M639.21,-1583.88C629.82,-1542.07 612.11,-1433.44 662.5,-1368 681.58,-1343.23 713.11,-1330 742.36,-1322.95"/>
<polygon fill="grey" stroke="grey" stroke-width="2" points="743.16,-1326.36 752.17,-1320.79 741.65,-1319.52 743.16,-1326.36"/>
</g>
<!-- 34&#45;&gt;27 -->
<g id="edge48" class="edge">
<title>34&#45;&gt;27</title>
<path fill="none" stroke="grey" stroke-width="2" d="M900.88,-1367.88C885.58,-1358.72 866.56,-1347.34 850.08,-1337.48"/>
<polygon fill="grey" stroke="grey" stroke-width="2" points="851.61,-1334.32 841.23,-1332.19 848.02,-1340.33 851.61,-1334.32"/>
</g>
<!-- 35&#45;&gt;27 -->
<g id="edge45" class="edge">
<title>35&#45;&gt;27</title>
<path fill="none" stroke="grey" stroke-width="2" d="M749.26,-1367.7C759.74,-1358.97 772.61,-1348.24 784,-1338.75"/>
<polygon fill="grey" stroke="grey" stroke-width="2" points="786.53,-1341.19 791.97,-1332.1 782.05,-1335.82 786.53,-1341.19"/>
</g>
<!-- 36&#45;&gt;27 -->
<g id="edge50" class="edge">
<title>36&#45;&gt;27</title>
<path fill="none" stroke="grey" stroke-width="2" d="M594.58,-1367.97C639.47,-1357.05 697.51,-1342.95 742.41,-1332.04"/>
<polygon fill="grey" stroke="grey" stroke-width="2" points="743.46,-1335.38 752.35,-1329.62 741.81,-1328.58 743.46,-1335.38"/>
</g>
<!-- 37 -->
<g id="node38" class="node">
<title>37</title>
<path fill="none" stroke="#bed856" stroke-width="2" d="M552.5,-1476C552.5,-1476 446.5,-1476 446.5,-1476 440.5,-1476 434.5,-1470 434.5,-1464 434.5,-1464 434.5,-1452 434.5,-1452 434.5,-1446 440.5,-1440 446.5,-1440 446.5,-1440 552.5,-1440 552.5,-1440 558.5,-1440 564.5,-1446 564.5,-1452 564.5,-1452 564.5,-1464 564.5,-1464 564.5,-1470 558.5,-1476 552.5,-1476"/>
<text text-anchor="middle" x="499.5" y="-1455.5" font-family="sans" font-size="10.00">resource_targeted_genes</text>
</g>
<!-- 37&#45;&gt;36 -->
<g id="edge62" class="edge">
<title>37&#45;&gt;36</title>
<path fill="none" stroke="grey" stroke-width="2" d="M505.68,-1439.7C508.5,-1431.81 511.89,-1422.3 515.02,-1413.55"/>
<polygon fill="grey" stroke="grey" stroke-width="2" points="518.32,-1414.7 518.39,-1404.1 511.73,-1412.34 518.32,-1414.7"/>
</g>
<!-- 37&#45;&gt;39 -->
<g id="edge64" class="edge">
<title>37&#45;&gt;39</title>
<path fill="none" stroke="grey" stroke-width="2" d="M461.62,-1439.91C447.27,-1431.33 432.49,-1419.43 424.5,-1404 417.14,-1389.79 417.45,-1382.36 424.5,-1368 467.07,-1281.31 568.19,-1221.95 629.53,-1192.49"/>
<polygon fill="grey" stroke="grey" stroke-width="2" points="631.1,-1195.62 638.65,-1188.19 628.12,-1189.29 631.1,-1195.62"/>
</g>
<!-- 38 -->
<g id="node39" class="node">
<title>38</title>
<path fill="none" stroke="#56d8d0" stroke-width="2" d="M640,-1692C640,-1692 533,-1692 533,-1692 527,-1692 521,-1686 521,-1680 521,-1680 521,-1668 521,-1668 521,-1662 527,-1656 533,-1656 533,-1656 640,-1656 640,-1656 646,-1656 652,-1662 652,-1668 652,-1668 652,-1680 652,-1680 652,-1686 646,-1692 640,-1692"/>
<text text-anchor="middle" x="586.5" y="-1671.5" font-family="sans" font-size="10.00">resource_reads_outgroup</text>
</g>
<!-- 38&#45;&gt;31 -->
<g id="edge57" class="edge">
<title>38&#45;&gt;31</title>
<path fill="none" stroke="grey" stroke-width="2" d="M569.2,-1655.7C560.64,-1647.14 550.16,-1636.66 540.8,-1627.3"/>
<polygon fill="grey" stroke="grey" stroke-width="2" points="543.15,-1624.7 533.6,-1620.1 538.2,-1629.65 543.15,-1624.7"/>
</g>
<!-- 39&#45;&gt;17 -->
<g id="edge28" class="edge">
<title>39&#45;&gt;17</title>
<path fill="none" stroke="grey" stroke-width="2" d="M687,-1151.68C696.76,-1131.29 715.77,-1097.92 742.5,-1080 790.32,-1047.94 854.93,-1035.1 903.5,-1030.05"/>
<polygon fill="grey" stroke="grey" stroke-width="2" points="903.99,-1033.52 913.61,-1029.09 903.32,-1026.55 903.99,-1033.52"/>
</g>
<!-- 39&#45;&gt;18 -->
<g id="edge32" class="edge">
<title>39&#45;&gt;18</title>
<path fill="none" stroke="grey" stroke-width="2" d="M750.8,-1151.97C793.24,-1141.83 847.24,-1128.93 891.31,-1118.4"/>
<polygon fill="grey" stroke="grey" stroke-width="2" points="892.22,-1121.78 901.13,-1116.05 890.59,-1114.97 892.22,-1121.78"/>
</g>
<!-- 39&#45;&gt;24 -->
<g id="edge42" class="edge">
<title>39&#45;&gt;24</title>
<path fill="none" stroke="grey" stroke-width="2" d="M711.79,-1151.88C729.37,-1142.55 751.31,-1130.92 770.13,-1120.94"/>
<polygon fill="grey" stroke="grey" stroke-width="2" points="771.89,-1123.97 779.09,-1116.19 768.61,-1117.78 771.89,-1123.97"/>
</g>
<!-- 40 -->
<g id="node41" class="node">
<title>40</title>
<path fill="none" stroke="#56d8a9" stroke-width="2" d="M1145,-612C1145,-612 1052,-612 1052,-612 1046,-612 1040,-606 1040,-600 1040,-600 1040,-588 1040,-588 1040,-582 1046,-576 1052,-576 1052,-576 1145,-576 1145,-576 1151,-576 1157,-582 1157,-588 1157,-588 1157,-600 1157,-600 1157,-606 1151,-612 1145,-612"/>
<text text-anchor="middle" x="1098.5" y="-591.5" font-family="sans" font-size="10.00">scatter_output_est_sfs</text>
</g>
<!-- 40&#45;&gt;14 -->
<g id="edge20" class="edge">
<title>40&#45;&gt;14</title>
<path fill="none" stroke="grey" stroke-width="2" d="M1066.45,-575.88C1049.01,-566.55 1027.23,-554.92 1008.56,-544.94"/>
<polygon fill="grey" stroke="grey" stroke-width="2" points="1010.14,-541.82 999.67,-540.19 1006.84,-547.99 1010.14,-541.82"/>
</g>
<!-- 41 -->
<g id="node42" class="node">
<title>41</title>
<path fill="none" stroke="#d85e56" stroke-width="2" d="M1148.5,-684C1148.5,-684 1048.5,-684 1048.5,-684 1042.5,-684 1036.5,-678 1036.5,-672 1036.5,-672 1036.5,-660 1036.5,-660 1036.5,-654 1042.5,-648 1048.5,-648 1048.5,-648 1148.5,-648 1148.5,-648 1154.5,-648 1160.5,-654 1160.5,-660 1160.5,-660 1160.5,-672 1160.5,-672 1160.5,-678 1154.5,-684 1148.5,-684"/>
<text text-anchor="middle" x="1098.5" y="-663.5" font-family="sans" font-size="10.00">derive_ancestral_alleles</text>
</g>
<!-- 41&#45;&gt;40 -->
<g id="edge65" class="edge">
<title>41&#45;&gt;40</title>
<path fill="none" stroke="grey" stroke-width="2" d="M1098.5,-647.7C1098.5,-639.98 1098.5,-630.71 1098.5,-622.11"/>
<polygon fill="grey" stroke="grey" stroke-width="2" points="1102,-622.1 1098.5,-612.1 1095,-622.1 1102,-622.1"/>
</g>
<!-- 42 -->
<g id="node43" class="node">
<title>42</title>
<path fill="none" stroke="#5673d8" stroke-width="2" d="M1189,-756C1189,-756 1104,-756 1104,-756 1098,-756 1092,-750 1092,-744 1092,-744 1092,-732 1092,-732 1092,-726 1098,-720 1104,-720 1104,-720 1189,-720 1189,-720 1195,-720 1201,-726 1201,-732 1201,-732 1201,-744 1201,-744 1201,-750 1195,-756 1189,-756"/>
<text text-anchor="middle" x="1146.5" y="-735.5" font-family="sans" font-size="10.00">gather_input_est_sfs</text>
</g>
<!-- 42&#45;&gt;41 -->
<g id="edge68" class="edge">
<title>42&#45;&gt;41</title>
<path fill="none" stroke="grey" stroke-width="2" d="M1134.63,-719.7C1129,-711.47 1122.15,-701.48 1115.93,-692.42"/>
<polygon fill="grey" stroke="grey" stroke-width="2" points="1118.77,-690.37 1110.23,-684.1 1113,-694.33 1118.77,-690.37"/>
</g>
<!-- 43&#45;&gt;14 -->
<g id="edge23" class="edge">
<title>43&#45;&gt;14</title>
<path fill="none" stroke="grey" stroke-width="2" d="M1082.84,-804.42C1049.32,-798.55 1009.31,-785.37 986.5,-756 939.4,-695.36 951.54,-597.09 961.08,-549.93"/>
<polygon fill="grey" stroke="grey" stroke-width="2" points="964.51,-550.66 963.18,-540.15 957.66,-549.19 964.51,-550.66"/>
</g>
<!-- 43&#45;&gt;40 -->
<g id="edge66" class="edge">
<title>43&#45;&gt;40</title>
<path fill="none" stroke="grey" stroke-width="2" d="M1175.18,-791.83C1188.81,-783.13 1202.97,-771.15 1210.5,-756 1217.62,-741.67 1214.6,-735.47 1210.5,-720 1201.07,-684.4 1193.88,-675.6 1169.5,-648 1159.58,-636.78 1146.94,-626.42 1135.08,-617.9"/>
<polygon fill="grey" stroke="grey" stroke-width="2" points="1136.84,-614.86 1126.63,-612.03 1132.85,-620.61 1136.84,-614.86"/>
</g>
<!-- 43&#45;&gt;42 -->
<g id="edge69" class="edge">
<title>43&#45;&gt;42</title>
<path fill="none" stroke="grey" stroke-width="2" d="M1141.98,-791.7C1142.64,-783.98 1143.44,-774.71 1144.18,-766.11"/>
<polygon fill="grey" stroke="grey" stroke-width="2" points="1147.67,-766.37 1145.03,-756.1 1140.69,-765.77 1147.67,-766.37"/>
</g>
<!-- 44 -->
<g id="node45" class="node">
<title>44</title>
<path fill="none" stroke="#d8bc56" stroke-width="2" d="M1361,-900C1361,-900 1240,-900 1240,-900 1234,-900 1228,-894 1228,-888 1228,-888 1228,-876 1228,-876 1228,-870 1234,-864 1240,-864 1240,-864 1361,-864 1361,-864 1367,-864 1373,-870 1373,-876 1373,-876 1373,-888 1373,-888 1373,-894 1367,-900 1361,-900"/>
<text text-anchor="middle" x="1300.5" y="-879.5" font-family="sans" font-size="10.00">create_sample_set_ingroups</text>
</g>
<!-- 44&#45;&gt;14 -->
<g id="edge21" class="edge">
<title>44&#45;&gt;14</title>
<path fill="none" stroke="grey" stroke-width="2" d="M1298.33,-863.98C1295.12,-837.37 1289.5,-784.25 1289.5,-739 1289.5,-739 1289.5,-739 1289.5,-665 1289.5,-560.51 1145.8,-532.26 1050.39,-525.01"/>
<polygon fill="grey" stroke="grey" stroke-width="2" points="1050.38,-521.5 1040.16,-524.3 1049.9,-528.49 1050.38,-521.5"/>
</g>
<!-- 44&#45;&gt;43 -->
<g id="edge71" class="edge">
<title>44&#45;&gt;43</title>
<path fill="none" stroke="grey" stroke-width="2" d="M1261.36,-863.88C1239.49,-854.31 1212.04,-842.3 1188.84,-832.15"/>
<polygon fill="grey" stroke="grey" stroke-width="2" points="1190.08,-828.87 1179.51,-828.07 1187.27,-835.28 1190.08,-828.87"/>
</g>
<!-- 45 -->
<g id="node46" class="node">
<title>45</title>
<path fill="none" stroke="#b6d856" stroke-width="2" d="M1314,-1620C1314,-1620 1201,-1620 1201,-1620 1195,-1620 1189,-1614 1189,-1608 1189,-1608 1189,-1596 1189,-1596 1189,-1590 1195,-1584 1201,-1584 1201,-1584 1314,-1584 1314,-1584 1320,-1584 1326,-1590 1326,-1596 1326,-1596 1326,-1608 1326,-1608 1326,-1614 1320,-1620 1314,-1620"/>
<text text-anchor="middle" x="1257.5" y="-1599.5" font-family="sans" font-size="10.00">resource_ingroup_samples</text>
</g>
<!-- 45&#45;&gt;44 -->
<g id="edge73" class="edge">
<title>45&#45;&gt;44</title>
<path fill="none" stroke="grey" stroke-width="2" d="M1281.46,-1583.88C1292.84,-1574.53 1305.64,-1562.01 1313.5,-1548 1333.3,-1512.73 1332.5,-1499.45 1332.5,-1459 1332.5,-1459 1332.5,-1459 1332.5,-1025 1332.5,-984.04 1319.67,-938.02 1310.26,-909.77"/>
<polygon fill="grey" stroke="grey" stroke-width="2" points="1313.53,-908.53 1306.98,-900.21 1306.91,-910.8 1313.53,-908.53"/>
</g>
<!-- 50 -->
<g id="node51" class="node">
<title>50</title>
<path fill="none" stroke="#80d856" stroke-width="2" d="M1292.5,-1548C1292.5,-1548 1188.5,-1548 1188.5,-1548 1182.5,-1548 1176.5,-1542 1176.5,-1536 1176.5,-1536 1176.5,-1524 1176.5,-1524 1176.5,-1518 1182.5,-1512 1188.5,-1512 1188.5,-1512 1292.5,-1512 1292.5,-1512 1298.5,-1512 1304.5,-1518 1304.5,-1524 1304.5,-1524 1304.5,-1536 1304.5,-1536 1304.5,-1542 1298.5,-1548 1292.5,-1548"/>
<text text-anchor="middle" x="1240.5" y="-1527.5" font-family="sans" font-size="10.00">create_sample_set_birch</text>
</g>
<!-- 45&#45;&gt;50 -->
<g id="edge75" class="edge">
<title>45&#45;&gt;50</title>
<path fill="none" stroke="grey" stroke-width="2" d="M1253.3,-1583.7C1251.4,-1575.9 1249.12,-1566.51 1247.02,-1557.83"/>
<polygon fill="grey" stroke="grey" stroke-width="2" points="1250.42,-1557 1244.65,-1548.1 1243.61,-1558.65 1250.42,-1557"/>
</g>
<!-- 46 -->
<g id="node47" class="node">
<title>46</title>
<path fill="none" stroke="#56a2d8" stroke-width="2" d="M1198,-900C1198,-900 1071,-900 1071,-900 1065,-900 1059,-894 1059,-888 1059,-888 1059,-876 1059,-876 1059,-870 1065,-864 1071,-864 1071,-864 1198,-864 1198,-864 1204,-864 1210,-870 1210,-876 1210,-876 1210,-888 1210,-888 1210,-894 1204,-900 1198,-900"/>
<text text-anchor="middle" x="1134.5" y="-879.5" font-family="sans" font-size="10.00">create_sample_set_outgroups</text>
</g>
<!-- 46&#45;&gt;43 -->
<g id="edge70" class="edge">
<title>46&#45;&gt;43</title>
<path fill="none" stroke="grey" stroke-width="2" d="M1135.98,-863.7C1136.64,-855.98 1137.44,-846.71 1138.18,-838.11"/>
<polygon fill="grey" stroke="grey" stroke-width="2" points="1141.67,-838.37 1139.03,-828.1 1134.69,-837.77 1141.67,-838.37"/>
</g>
<!-- 47 -->
<g id="node48" class="node">
<title>47</title>
<path fill="none" stroke="#d87556" stroke-width="2" d="M1194,-972C1194,-972 1075,-972 1075,-972 1069,-972 1063,-966 1063,-960 1063,-960 1063,-948 1063,-948 1063,-942 1069,-936 1075,-936 1075,-936 1194,-936 1194,-936 1200,-936 1206,-942 1206,-948 1206,-948 1206,-960 1206,-960 1206,-966 1200,-972 1194,-972"/>
<text text-anchor="middle" x="1134.5" y="-951.5" font-family="sans" font-size="10.00">resource_outgroup_samples</text>
</g>
<!-- 47&#45;&gt;46 -->
<g id="edge74" class="edge">
<title>47&#45;&gt;46</title>
<path fill="none" stroke="grey" stroke-width="2" d="M1134.5,-935.7C1134.5,-927.98 1134.5,-918.71 1134.5,-910.11"/>
<polygon fill="grey" stroke="grey" stroke-width="2" points="1138,-910.1 1134.5,-900.1 1131,-910.1 1138,-910.1"/>
</g>
<!-- 48 -->
<g id="node49" class="node">
<title>48</title>
<path fill="none" stroke="#56d873" stroke-width="2" d="M1061.5,-756C1061.5,-756 1007.5,-756 1007.5,-756 1001.5,-756 995.5,-750 995.5,-744 995.5,-744 995.5,-732 995.5,-732 995.5,-726 1001.5,-720 1007.5,-720 1007.5,-720 1061.5,-720 1061.5,-720 1067.5,-720 1073.5,-726 1073.5,-732 1073.5,-732 1073.5,-744 1073.5,-744 1073.5,-750 1067.5,-756 1061.5,-756"/>
<text text-anchor="middle" x="1034.5" y="-735.5" font-family="sans" font-size="10.00">setup_est_sfs</text>
</g>
<!-- 48&#45;&gt;41 -->
<g id="edge67" class="edge">
<title>48&#45;&gt;41</title>
<path fill="none" stroke="grey" stroke-width="2" d="M1050.32,-719.7C1058.07,-711.22 1067.54,-700.86 1076.02,-691.58"/>
<polygon fill="grey" stroke="grey" stroke-width="2" points="1078.7,-693.85 1082.86,-684.1 1073.53,-689.12 1078.7,-693.85"/>
</g>
<!-- 49 -->
<g id="node50" class="node">
<title>49</title>
<path fill="none" stroke="#8fd856" stroke-width="2" d="M1146,-1548C1146,-1548 1075,-1548 1075,-1548 1069,-1548 1063,-1542 1063,-1536 1063,-1536 1063,-1524 1063,-1524 1063,-1518 1069,-1512 1075,-1512 1075,-1512 1146,-1512 1146,-1512 1152,-1512 1158,-1518 1158,-1524 1158,-1524 1158,-1536 1158,-1536 1158,-1542 1152,-1548 1146,-1548"/>
<text text-anchor="middle" x="1110.5" y="-1527.5" font-family="sans" font-size="10.00">resource_raw_vcf</text>
</g>
<!-- 49&#45;&gt;23 -->
<g id="edge38" class="edge">
<title>49&#45;&gt;23</title>
<path fill="none" stroke="grey" stroke-width="2" d="M1118.41,-1511.7C1122.05,-1503.73 1126.45,-1494.1 1130.49,-1485.26"/>
<polygon fill="grey" stroke="grey" stroke-width="2" points="1133.71,-1486.65 1134.68,-1476.1 1127.34,-1483.74 1133.71,-1486.65"/>
</g>
<!-- 50&#45;&gt;22 -->
<g id="edge37" class="edge">
<title>50&#45;&gt;22</title>
<path fill="none" stroke="grey" stroke-width="2" d="M1236.71,-1511.76C1232.59,-1493.69 1225.51,-1464.58 1217.5,-1440 1214.68,-1431.34 1211.17,-1422.06 1207.84,-1413.73"/>
<polygon fill="grey" stroke="grey" stroke-width="2" points="1211.08,-1412.4 1204.06,-1404.47 1204.6,-1415.05 1211.08,-1412.4"/>
</g>
<!-- 50&#45;&gt;23 -->
<g id="edge40" class="edge">
<title>50&#45;&gt;23</title>
<path fill="none" stroke="grey" stroke-width="2" d="M1216.53,-1511.88C1203.95,-1502.89 1188.37,-1491.76 1174.75,-1482.03"/>
<polygon fill="grey" stroke="grey" stroke-width="2" points="1176.74,-1479.15 1166.57,-1476.19 1172.67,-1484.85 1176.74,-1479.15"/>
</g>
</g>
</svg>
