<?xml version="1.0" encoding="UTF-8" standalone="no"?>
<!DOCTYPE svg PUBLIC "-//W3C//DTD SVG 1.1//EN"
 "http://www.w3.org/Graphics/SVG/1.1/DTD/svg11.dtd">
<!-- Generated by graphviz version 2.50.0 (0)
 -->
<!-- Title: snakemake_dag Pages: 1 -->
<svg width="1496pt" height="1844pt"
 viewBox="0.00 0.00 1495.50 1844.00" xmlns="http://www.w3.org/2000/svg" xmlns:xlink="http://www.w3.org/1999/xlink">
<g id="graph0" class="graph" transform="scale(1 1) rotate(0) translate(4 1840)">
<title>snakemake_dag</title>
<polygon fill="white" stroke="transparent" points="-4,4 -4,-1840 1491.5,-1840 1491.5,4 -4,4"/>
<!-- 0 -->
<g id="node1" class="node">
<title>0</title>
<path fill="none" stroke="#d8a456" stroke-width="2" d="M524,-36C524,-36 446,-36 446,-36 440,-36 434,-30 434,-24 434,-24 434,-12 434,-12 434,-6 440,0 446,0 446,0 524,0 524,0 530,0 536,-6 536,-12 536,-12 536,-24 536,-24 536,-30 530,-36 524,-36"/>
<text text-anchor="middle" x="485" y="-15.5" font-family="sans" font-size="10.00">run_all_snp_calling</text>
</g>
<!-- 1 -->
<g id="node2" class="node">
<title>1</title>
<path fill="none" stroke="#d89c56" stroke-width="2" d="M156,-1764C156,-1764 116,-1764 116,-1764 110,-1764 104,-1758 104,-1752 104,-1752 104,-1740 104,-1740 104,-1734 110,-1728 116,-1728 116,-1728 156,-1728 156,-1728 162,-1728 168,-1734 168,-1740 168,-1740 168,-1752 168,-1752 168,-1758 162,-1764 156,-1764"/>
<text text-anchor="middle" x="136" y="-1743.5" font-family="sans" font-size="10.00">trim_reads</text>
</g>
<!-- 1&#45;&gt;0 -->
<g id="edge8" class="edge">
<title>1&#45;&gt;0</title>
<path fill="none" stroke="grey" stroke-width="2" d="M103.77,-1729.29C63.55,-1707.16 0,-1662.74 0,-1603 0,-1603 0,-1603 0,-161 0,-116.27 10.15,-97.36 47,-72 106.77,-30.87 317.93,-21.59 423.69,-19.54"/>
<polygon fill="grey" stroke="grey" stroke-width="2" points="423.96,-23.04 433.9,-19.36 423.84,-16.04 423.96,-23.04"/>
</g>
<!-- 4 -->
<g id="node5" class="node">
<title>4</title>
<path fill="none" stroke="#b6d856" stroke-width="2" d="M198.5,-180C198.5,-180 73.5,-180 73.5,-180 67.5,-180 61.5,-174 61.5,-168 61.5,-168 61.5,-156 61.5,-156 61.5,-150 67.5,-144 73.5,-144 73.5,-144 198.5,-144 198.5,-144 204.5,-144 210.5,-150 210.5,-156 210.5,-156 210.5,-168 210.5,-168 210.5,-174 204.5,-180 198.5,-180"/>
<text text-anchor="middle" x="136" y="-159.5" font-family="sans" font-size="10.00">quality_check_trimmed_reads</text>
</g>
<!-- 1&#45;&gt;4 -->
<g id="edge19" class="edge">
<title>1&#45;&gt;4</title>
<path fill="none" stroke="grey" stroke-width="2" d="M136,-1727.95C136,-1701.29 136,-1648.11 136,-1603 136,-1603 136,-1603 136,-305 136,-265 136,-218.65 136,-190.08"/>
<polygon fill="grey" stroke="grey" stroke-width="2" points="139.5,-190.05 136,-180.05 132.5,-190.05 139.5,-190.05"/>
</g>
<!-- 6 -->
<g id="node7" class="node">
<title>6</title>
<path fill="none" stroke="#bed856" stroke-width="2" d="M438.5,-1692C438.5,-1692 395.5,-1692 395.5,-1692 389.5,-1692 383.5,-1686 383.5,-1680 383.5,-1680 383.5,-1668 383.5,-1668 383.5,-1662 389.5,-1656 395.5,-1656 395.5,-1656 438.5,-1656 438.5,-1656 444.5,-1656 450.5,-1662 450.5,-1668 450.5,-1668 450.5,-1680 450.5,-1680 450.5,-1686 444.5,-1692 438.5,-1692"/>
<text text-anchor="middle" x="417" y="-1671.5" font-family="sans" font-size="10.00">map_reads</text>
</g>
<!-- 1&#45;&gt;6 -->
<g id="edge23" class="edge">
<title>1&#45;&gt;6</title>
<path fill="none" stroke="grey" stroke-width="2" d="M168.23,-1736.97C218.82,-1724.37 316.93,-1699.93 373.65,-1685.8"/>
<polygon fill="grey" stroke="grey" stroke-width="2" points="374.54,-1689.18 383.4,-1683.37 372.85,-1682.39 374.54,-1689.18"/>
</g>
<!-- 2 -->
<g id="node3" class="node">
<title>2</title>
<path fill="none" stroke="#70d856" stroke-width="2" d="M110.5,-1836C110.5,-1836 21.5,-1836 21.5,-1836 15.5,-1836 9.5,-1830 9.5,-1824 9.5,-1824 9.5,-1812 9.5,-1812 9.5,-1806 15.5,-1800 21.5,-1800 21.5,-1800 110.5,-1800 110.5,-1800 116.5,-1800 122.5,-1806 122.5,-1812 122.5,-1812 122.5,-1824 122.5,-1824 122.5,-1830 116.5,-1836 110.5,-1836"/>
<text text-anchor="middle" x="66" y="-1815.5" font-family="sans" font-size="10.00">resource_reads_birch</text>
</g>
<!-- 2&#45;&gt;1 -->
<g id="edge17" class="edge">
<title>2&#45;&gt;1</title>
<path fill="none" stroke="grey" stroke-width="2" d="M83.3,-1799.7C91.86,-1791.14 102.34,-1780.66 111.7,-1771.3"/>
<polygon fill="grey" stroke="grey" stroke-width="2" points="114.3,-1773.65 118.9,-1764.1 109.35,-1768.7 114.3,-1773.65"/>
</g>
<!-- 3 -->
<g id="node4" class="node">
<title>3</title>
<path fill="none" stroke="#d6d856" stroke-width="2" d="M259.5,-1836C259.5,-1836 152.5,-1836 152.5,-1836 146.5,-1836 140.5,-1830 140.5,-1824 140.5,-1824 140.5,-1812 140.5,-1812 140.5,-1806 146.5,-1800 152.5,-1800 152.5,-1800 259.5,-1800 259.5,-1800 265.5,-1800 271.5,-1806 271.5,-1812 271.5,-1812 271.5,-1824 271.5,-1824 271.5,-1830 265.5,-1836 259.5,-1836"/>
<text text-anchor="middle" x="206" y="-1815.5" font-family="sans" font-size="10.00">resource_reads_outgroup</text>
</g>
<!-- 3&#45;&gt;1 -->
<g id="edge18" class="edge">
<title>3&#45;&gt;1</title>
<path fill="none" stroke="grey" stroke-width="2" d="M188.7,-1799.7C180.14,-1791.14 169.66,-1780.66 160.3,-1771.3"/>
<polygon fill="grey" stroke="grey" stroke-width="2" points="162.65,-1768.7 153.1,-1764.1 157.7,-1773.65 162.65,-1768.7"/>
</g>
<!-- 4&#45;&gt;0 -->
<g id="edge2" class="edge">
<title>4&#45;&gt;0</title>
<path fill="none" stroke="grey" stroke-width="2" d="M95.32,-143.88C80.48,-135.41 65.32,-123.59 57,-108 49.47,-93.88 46.4,-83.99 57,-72 80.86,-45 310.82,-28.64 423.45,-22.18"/>
<polygon fill="grey" stroke="grey" stroke-width="2" points="423.86,-25.67 433.65,-21.61 423.47,-18.68 423.86,-25.67"/>
</g>
<!-- 5 -->
<g id="node6" class="node">
<title>5</title>
<path fill="none" stroke="#56b1d8" stroke-width="2" d="M259.5,-108C259.5,-108 78.5,-108 78.5,-108 72.5,-108 66.5,-102 66.5,-96 66.5,-96 66.5,-84 66.5,-84 66.5,-78 72.5,-72 78.5,-72 78.5,-72 259.5,-72 259.5,-72 265.5,-72 271.5,-78 271.5,-84 271.5,-84 271.5,-96 271.5,-96 271.5,-102 265.5,-108 259.5,-108"/>
<text text-anchor="middle" x="169" y="-87.5" font-family="sans" font-size="10.00">aggregate_quality_checks_trimmed_reads</text>
</g>
<!-- 4&#45;&gt;5 -->
<g id="edge20" class="edge">
<title>4&#45;&gt;5</title>
<path fill="none" stroke="grey" stroke-width="2" d="M144.16,-143.7C147.91,-135.73 152.45,-126.1 156.62,-117.26"/>
<polygon fill="grey" stroke="grey" stroke-width="2" points="159.84,-118.64 160.94,-108.1 153.51,-115.66 159.84,-118.64"/>
</g>
<!-- 5&#45;&gt;0 -->
<g id="edge7" class="edge">
<title>5&#45;&gt;0</title>
<path fill="none" stroke="grey" stroke-width="2" d="M245.9,-71.97C300.53,-59.86 372.92,-43.83 423.68,-32.58"/>
<polygon fill="grey" stroke="grey" stroke-width="2" points="424.53,-35.98 433.53,-30.4 423.01,-29.15 424.53,-35.98"/>
</g>
<!-- 6&#45;&gt;0 -->
<g id="edge1" class="edge">
<title>6&#45;&gt;0</title>
<path fill="none" stroke="grey" stroke-width="2" d="M388.98,-1655.94C354.36,-1632.47 300,-1586.74 300,-1531 300,-1531 300,-1531 300,-161 300,-114.96 318.02,-101.93 353,-72 373.28,-54.64 399.98,-42.49 424.05,-34.25"/>
<polygon fill="grey" stroke="grey" stroke-width="2" points="425.4,-37.49 433.82,-31.06 423.23,-30.84 425.4,-37.49"/>
</g>
<!-- 9 -->
<g id="node10" class="node">
<title>9</title>
<path fill="none" stroke="#56d863" stroke-width="2" d="M450.5,-1620C450.5,-1620 385.5,-1620 385.5,-1620 379.5,-1620 373.5,-1614 373.5,-1608 373.5,-1608 373.5,-1596 373.5,-1596 373.5,-1590 379.5,-1584 385.5,-1584 385.5,-1584 450.5,-1584 450.5,-1584 456.5,-1584 462.5,-1590 462.5,-1596 462.5,-1596 462.5,-1608 462.5,-1608 462.5,-1614 456.5,-1620 450.5,-1620"/>
<text text-anchor="middle" x="418" y="-1599.5" font-family="sans" font-size="10.00">mark_duplicates</text>
</g>
<!-- 6&#45;&gt;9 -->
<g id="edge25" class="edge">
<title>6&#45;&gt;9</title>
<path fill="none" stroke="grey" stroke-width="2" d="M417.25,-1655.7C417.36,-1647.98 417.49,-1638.71 417.61,-1630.11"/>
<polygon fill="grey" stroke="grey" stroke-width="2" points="421.11,-1630.15 417.76,-1620.1 414.11,-1630.05 421.11,-1630.15"/>
</g>
<!-- 11 -->
<g id="node12" class="node">
<title>11</title>
<path fill="none" stroke="#afd856" stroke-width="2" d="M505.5,-1476C505.5,-1476 426.5,-1476 426.5,-1476 420.5,-1476 414.5,-1470 414.5,-1464 414.5,-1464 414.5,-1452 414.5,-1452 414.5,-1446 420.5,-1440 426.5,-1440 426.5,-1440 505.5,-1440 505.5,-1440 511.5,-1440 517.5,-1446 517.5,-1452 517.5,-1452 517.5,-1464 517.5,-1464 517.5,-1470 511.5,-1476 505.5,-1476"/>
<text text-anchor="middle" x="466" y="-1455.5" font-family="sans" font-size="10.00">calculate_coverage</text>
</g>
<!-- 6&#45;&gt;11 -->
<g id="edge27" class="edge">
<title>6&#45;&gt;11</title>
<path fill="none" stroke="grey" stroke-width="2" d="M439.7,-1655.88C450.7,-1646.44 463.19,-1633.85 471,-1620 494.86,-1577.67 497.5,-1559.65 488,-1512 486.21,-1503.01 482.86,-1493.64 479.31,-1485.32"/>
<polygon fill="grey" stroke="grey" stroke-width="2" points="482.46,-1483.77 475.13,-1476.12 476.08,-1486.67 482.46,-1483.77"/>
</g>
<!-- 12 -->
<g id="node13" class="node">
<title>12</title>
<path fill="none" stroke="#5692d8" stroke-width="2" d="M594.5,-1404C594.5,-1404 465.5,-1404 465.5,-1404 459.5,-1404 453.5,-1398 453.5,-1392 453.5,-1392 453.5,-1380 453.5,-1380 453.5,-1374 459.5,-1368 465.5,-1368 465.5,-1368 594.5,-1368 594.5,-1368 600.5,-1368 606.5,-1374 606.5,-1380 606.5,-1380 606.5,-1392 606.5,-1392 606.5,-1398 600.5,-1404 594.5,-1404"/>
<text text-anchor="middle" x="530" y="-1383.5" font-family="sans" font-size="10.00">calculate_aggregate_coverage</text>
</g>
<!-- 6&#45;&gt;12 -->
<g id="edge28" class="edge">
<title>6&#45;&gt;12</title>
<path fill="none" stroke="grey" stroke-width="2" d="M450.62,-1657.21C466.04,-1648.34 483.24,-1635.84 494,-1620 537.11,-1556.52 536.39,-1461.06 532.91,-1414.5"/>
<polygon fill="grey" stroke="grey" stroke-width="2" points="536.38,-1413.96 532.04,-1404.29 529.4,-1414.55 536.38,-1413.96"/>
</g>
<!-- 7 -->
<g id="node8" class="node">
<title>7</title>
<path fill="none" stroke="#d8c356" stroke-width="2" d="M1035.5,-1836C1035.5,-1836 914.5,-1836 914.5,-1836 908.5,-1836 902.5,-1830 902.5,-1824 902.5,-1824 902.5,-1812 902.5,-1812 902.5,-1806 908.5,-1800 914.5,-1800 914.5,-1800 1035.5,-1800 1035.5,-1800 1041.5,-1800 1047.5,-1806 1047.5,-1812 1047.5,-1812 1047.5,-1824 1047.5,-1824 1047.5,-1830 1041.5,-1836 1035.5,-1836"/>
<text text-anchor="middle" x="975" y="-1815.5" font-family="sans" font-size="10.00">resource_reference_genome</text>
</g>
<!-- 7&#45;&gt;6 -->
<g id="edge22" class="edge">
<title>7&#45;&gt;6</title>
<path fill="none" stroke="grey" stroke-width="2" d="M902.39,-1816.44C742.09,-1814.43 369.07,-1805.33 331,-1764 320.16,-1752.23 323.2,-1741.97 331,-1728 340.38,-1711.2 357.51,-1699.07 374.03,-1690.69"/>
<polygon fill="grey" stroke="grey" stroke-width="2" points="375.54,-1693.85 383.09,-1686.41 372.55,-1687.52 375.54,-1693.85"/>
</g>
<!-- 8 -->
<g id="node9" class="node">
<title>8</title>
<path fill="none" stroke="#59d856" stroke-width="2" d="M482,-1764C482,-1764 352,-1764 352,-1764 346,-1764 340,-1758 340,-1752 340,-1752 340,-1740 340,-1740 340,-1734 346,-1728 352,-1728 352,-1728 482,-1728 482,-1728 488,-1728 494,-1734 494,-1740 494,-1740 494,-1752 494,-1752 494,-1758 488,-1764 482,-1764"/>
<text text-anchor="middle" x="417" y="-1743.5" font-family="sans" font-size="10.00">index_reference_genome_bwa</text>
</g>
<!-- 7&#45;&gt;8 -->
<g id="edge24" class="edge">
<title>7&#45;&gt;8</title>
<path fill="none" stroke="grey" stroke-width="2" d="M902.39,-1810.39C810.37,-1801.63 647,-1784.84 508,-1764 506.89,-1763.83 505.77,-1763.66 504.64,-1763.49"/>
<polygon fill="grey" stroke="grey" stroke-width="2" points="504.81,-1759.97 494.38,-1761.85 503.7,-1766.88 504.81,-1759.97"/>
</g>
<!-- 15 -->
<g id="node16" class="node">
<title>15</title>
<path fill="none" stroke="#9fd856" stroke-width="2" d="M708,-1476C708,-1476 612,-1476 612,-1476 606,-1476 600,-1470 600,-1464 600,-1464 600,-1452 600,-1452 600,-1446 606,-1440 612,-1440 612,-1440 708,-1440 708,-1440 714,-1440 720,-1446 720,-1452 720,-1452 720,-1464 720,-1464 720,-1470 714,-1476 708,-1476"/>
<text text-anchor="middle" x="660" y="-1455.5" font-family="sans" font-size="10.00">call_haplotypes_diploid</text>
</g>
<!-- 7&#45;&gt;15 -->
<g id="edge32" class="edge">
<title>7&#45;&gt;15</title>
<path fill="none" stroke="grey" stroke-width="2" d="M902.22,-1806.94C790,-1789.74 583.21,-1750.74 541,-1692 490.41,-1621.6 581.41,-1526.65 630.99,-1482.9"/>
<polygon fill="grey" stroke="grey" stroke-width="2" points="633.59,-1485.27 638.85,-1476.08 629.01,-1479.99 633.59,-1485.27"/>
</g>
<!-- 16 -->
<g id="node17" class="node">
<title>16</title>
<path fill="none" stroke="#56d882" stroke-width="2" d="M692,-1692C692,-1692 562,-1692 562,-1692 556,-1692 550,-1686 550,-1680 550,-1680 550,-1668 550,-1668 550,-1662 556,-1656 562,-1656 562,-1656 692,-1656 692,-1656 698,-1656 704,-1662 704,-1668 704,-1668 704,-1680 704,-1680 704,-1686 698,-1692 692,-1692"/>
<text text-anchor="middle" x="627" y="-1671.5" font-family="sans" font-size="10.00">index_reference_genome_gatk</text>
</g>
<!-- 7&#45;&gt;16 -->
<g id="edge37" class="edge">
<title>7&#45;&gt;16</title>
<path fill="none" stroke="grey" stroke-width="2" d="M933.02,-1799.87C869.05,-1773.77 747.33,-1724.1 678.24,-1695.91"/>
<polygon fill="grey" stroke="grey" stroke-width="2" points="679.44,-1692.62 668.85,-1692.08 676.79,-1699.1 679.44,-1692.62"/>
</g>
<!-- 17 -->
<g id="node18" class="node">
<title>17</title>
<path fill="none" stroke="#56d87b" stroke-width="2" d="M885.5,-1692C885.5,-1692 734.5,-1692 734.5,-1692 728.5,-1692 722.5,-1686 722.5,-1680 722.5,-1680 722.5,-1668 722.5,-1668 722.5,-1662 728.5,-1656 734.5,-1656 734.5,-1656 885.5,-1656 885.5,-1656 891.5,-1656 897.5,-1662 897.5,-1668 897.5,-1668 897.5,-1680 897.5,-1680 897.5,-1686 891.5,-1692 885.5,-1692"/>
<text text-anchor="middle" x="810" y="-1671.5" font-family="sans" font-size="10.00">index_reference_genome_samtools</text>
</g>
<!-- 7&#45;&gt;17 -->
<g id="edge38" class="edge">
<title>7&#45;&gt;17</title>
<path fill="none" stroke="grey" stroke-width="2" d="M950.07,-1799.85C935.93,-1789.83 918.09,-1776.68 903,-1764 878.45,-1743.37 852.2,-1717.9 833.87,-1699.5"/>
<polygon fill="grey" stroke="grey" stroke-width="2" points="836.05,-1696.73 826.53,-1692.08 831.08,-1701.65 836.05,-1696.73"/>
</g>
<!-- 25 -->
<g id="node26" class="node">
<title>25</title>
<path fill="none" stroke="#56d0d8" stroke-width="2" d="M778.5,-1188C778.5,-1188 685.5,-1188 685.5,-1188 679.5,-1188 673.5,-1182 673.5,-1176 673.5,-1176 673.5,-1164 673.5,-1164 673.5,-1158 679.5,-1152 685.5,-1152 685.5,-1152 778.5,-1152 778.5,-1152 784.5,-1152 790.5,-1158 790.5,-1164 790.5,-1164 790.5,-1176 790.5,-1176 790.5,-1182 784.5,-1188 778.5,-1188"/>
<text text-anchor="middle" x="732" y="-1167.5" font-family="sans" font-size="10.00">call_imported_variants</text>
</g>
<!-- 7&#45;&gt;25 -->
<g id="edge47" class="edge">
<title>7&#45;&gt;25</title>
<path fill="none" stroke="grey" stroke-width="2" d="M1008.02,-1799.89C1022.08,-1791 1037.4,-1778.87 1047,-1764 1068.94,-1730.02 1066,-1715.45 1066,-1675 1066,-1675 1066,-1675 1066,-1313 1066,-1198.74 898.42,-1175.1 800.67,-1171.03"/>
<polygon fill="grey" stroke="grey" stroke-width="2" points="800.68,-1167.53 790.56,-1170.67 800.43,-1174.53 800.68,-1167.53"/>
</g>
<!-- 26 -->
<g id="node27" class="node">
<title>26</title>
<path fill="none" stroke="#56d89a" stroke-width="2" d="M772.5,-1116C772.5,-1116 691.5,-1116 691.5,-1116 685.5,-1116 679.5,-1110 679.5,-1104 679.5,-1104 679.5,-1092 679.5,-1092 679.5,-1086 685.5,-1080 691.5,-1080 691.5,-1080 772.5,-1080 772.5,-1080 778.5,-1080 784.5,-1086 784.5,-1092 784.5,-1092 784.5,-1104 784.5,-1104 784.5,-1110 778.5,-1116 772.5,-1116"/>
<text text-anchor="middle" x="732" y="-1095.5" font-family="sans" font-size="10.00">quality_tag_variants</text>
</g>
<!-- 7&#45;&gt;26 -->
<g id="edge51" class="edge">
<title>7&#45;&gt;26</title>
<path fill="none" stroke="grey" stroke-width="2" d="M1019.13,-1799.88C1036.56,-1791.3 1055.6,-1779.41 1069,-1764 1096.9,-1731.93 1104,-1717.5 1104,-1675 1104,-1675 1104,-1675 1104,-1241 1104,-1208.27 900.4,-1146.25 794.45,-1116.19"/>
<polygon fill="grey" stroke="grey" stroke-width="2" points="795.08,-1112.73 784.51,-1113.38 793.18,-1119.47 795.08,-1112.73"/>
</g>
<!-- 42 -->
<g id="node43" class="node">
<title>42</title>
<path fill="none" stroke="#78d856" stroke-width="2" d="M1216,-324C1216,-324 1128,-324 1128,-324 1122,-324 1116,-318 1116,-312 1116,-312 1116,-300 1116,-300 1116,-294 1122,-288 1128,-288 1128,-288 1216,-288 1216,-288 1222,-288 1228,-294 1228,-300 1228,-300 1228,-312 1228,-312 1228,-318 1222,-324 1216,-324"/>
<text text-anchor="middle" x="1172" y="-303.5" font-family="sans" font-size="10.00">determine_synonymy</text>
</g>
<!-- 7&#45;&gt;42 -->
<g id="edge72" class="edge">
<title>7&#45;&gt;42</title>
<path fill="none" stroke="grey" stroke-width="2" d="M1033.97,-1799.98C1055.07,-1791.7 1077.84,-1780 1095,-1764 1127.72,-1733.5 1142,-1719.73 1142,-1675 1142,-1675 1142,-1675 1142,-449 1142,-408.16 1154.03,-362.11 1162.85,-333.82"/>
<polygon fill="grey" stroke="grey" stroke-width="2" points="1166.2,-334.83 1165.93,-324.24 1159.54,-332.69 1166.2,-334.83"/>
</g>
<!-- 44 -->
<g id="node45" class="node">
<title>44</title>
<path fill="none" stroke="#56d8b9" stroke-width="2" d="M1362.5,-468C1362.5,-468 1267.5,-468 1267.5,-468 1261.5,-468 1255.5,-462 1255.5,-456 1255.5,-456 1255.5,-444 1255.5,-444 1255.5,-438 1261.5,-432 1267.5,-432 1267.5,-432 1362.5,-432 1362.5,-432 1368.5,-432 1374.5,-438 1374.5,-444 1374.5,-444 1374.5,-456 1374.5,-456 1374.5,-462 1368.5,-468 1362.5,-468"/>
<text text-anchor="middle" x="1315" y="-447.5" font-family="sans" font-size="10.00">determine_degeneracy</text>
</g>
<!-- 7&#45;&gt;44 -->
<g id="edge76" class="edge">
<title>7&#45;&gt;44</title>
<path fill="none" stroke="grey" stroke-width="2" d="M1047.52,-1804.42C1082.02,-1796.33 1122.87,-1783.56 1156,-1764 1234.21,-1717.82 1266.1,-1703.85 1301,-1620 1307.15,-1605.23 1302.21,-1599.95 1301,-1584 1296.77,-1527.97 1282,-1515.19 1282,-1459 1282,-1459 1282,-1459 1282,-593 1282,-551.97 1295.23,-505.97 1304.94,-477.74"/>
<polygon fill="grey" stroke="grey" stroke-width="2" points="1308.28,-478.78 1308.32,-468.19 1301.68,-476.45 1308.28,-478.78"/>
</g>
<!-- 45 -->
<g id="node46" class="node">
<title>45</title>
<path fill="none" stroke="#569ad8" stroke-width="2" d="M1475.5,-540C1475.5,-540 1360.5,-540 1360.5,-540 1354.5,-540 1348.5,-534 1348.5,-528 1348.5,-528 1348.5,-516 1348.5,-516 1348.5,-510 1354.5,-504 1360.5,-504 1360.5,-504 1475.5,-504 1475.5,-504 1481.5,-504 1487.5,-510 1487.5,-516 1487.5,-516 1487.5,-528 1487.5,-528 1487.5,-534 1481.5,-540 1475.5,-540"/>
<text text-anchor="middle" x="1418" y="-519.5" font-family="sans" font-size="10.00">predict_variant_effects_vep</text>
</g>
<!-- 7&#45;&gt;45 -->
<g id="edge79" class="edge">
<title>7&#45;&gt;45</title>
<path fill="none" stroke="grey" stroke-width="2" d="M1047.71,-1815.44C1140.17,-1811.95 1292.81,-1800.64 1334,-1764 1364.61,-1736.77 1358,-1715.97 1358,-1675 1358,-1675 1358,-1675 1358,-665 1358,-621.72 1381.94,-576.45 1399.58,-548.98"/>
<polygon fill="grey" stroke="grey" stroke-width="2" points="1402.68,-550.65 1405.28,-540.38 1396.84,-546.78 1402.68,-550.65"/>
</g>
<!-- 8&#45;&gt;6 -->
<g id="edge21" class="edge">
<title>8&#45;&gt;6</title>
<path fill="none" stroke="grey" stroke-width="2" d="M417,-1727.7C417,-1719.98 417,-1710.71 417,-1702.11"/>
<polygon fill="grey" stroke="grey" stroke-width="2" points="420.5,-1702.1 417,-1692.1 413.5,-1702.1 420.5,-1702.1"/>
</g>
<!-- 9&#45;&gt;0 -->
<g id="edge14" class="edge">
<title>9&#45;&gt;0</title>
<path fill="none" stroke="grey" stroke-width="2" d="M391.26,-1583.83C379.03,-1574.63 365.41,-1562.26 357,-1548 336.45,-1513.16 338,-1499.45 338,-1459 338,-1459 338,-1459 338,-161 338,-104.85 394.17,-63.86 437.07,-40.74"/>
<polygon fill="grey" stroke="grey" stroke-width="2" points="438.75,-43.81 445.99,-36.08 435.51,-37.61 438.75,-43.81"/>
</g>
<!-- 10 -->
<g id="node11" class="node">
<title>10</title>
<path fill="none" stroke="#56d873" stroke-width="2" d="M467.5,-1548C467.5,-1548 378.5,-1548 378.5,-1548 372.5,-1548 366.5,-1542 366.5,-1536 366.5,-1536 366.5,-1524 366.5,-1524 366.5,-1518 372.5,-1512 378.5,-1512 378.5,-1512 467.5,-1512 467.5,-1512 473.5,-1512 479.5,-1518 479.5,-1524 479.5,-1524 479.5,-1536 479.5,-1536 479.5,-1542 473.5,-1548 467.5,-1548"/>
<text text-anchor="middle" x="423" y="-1527.5" font-family="sans" font-size="10.00">index_mapped_reads</text>
</g>
<!-- 9&#45;&gt;10 -->
<g id="edge26" class="edge">
<title>9&#45;&gt;10</title>
<path fill="none" stroke="grey" stroke-width="2" d="M419.24,-1583.7C419.79,-1575.98 420.45,-1566.71 421.06,-1558.11"/>
<polygon fill="grey" stroke="grey" stroke-width="2" points="424.56,-1558.33 421.78,-1548.1 417.57,-1557.83 424.56,-1558.33"/>
</g>
<!-- 9&#45;&gt;15 -->
<g id="edge34" class="edge">
<title>9&#45;&gt;15</title>
<path fill="none" stroke="grey" stroke-width="2" d="M447.19,-1583.87C490.89,-1558.23 573.34,-1509.85 621.78,-1481.43"/>
<polygon fill="grey" stroke="grey" stroke-width="2" points="623.85,-1484.27 630.71,-1476.19 620.31,-1478.23 623.85,-1484.27"/>
</g>
<!-- 10&#45;&gt;0 -->
<g id="edge15" class="edge">
<title>10&#45;&gt;0</title>
<path fill="none" stroke="grey" stroke-width="2" d="M415.51,-1511.89C404.7,-1485.58 386,-1433.37 386,-1387 386,-1387 386,-1387 386,-161 386,-112.38 425.54,-68.5 454.65,-42.78"/>
<polygon fill="grey" stroke="grey" stroke-width="2" points="457.22,-45.19 462.54,-36.03 452.66,-39.87 457.22,-45.19"/>
</g>
<!-- 10&#45;&gt;15 -->
<g id="edge33" class="edge">
<title>10&#45;&gt;15</title>
<path fill="none" stroke="grey" stroke-width="2" d="M479.77,-1512.23C513.56,-1502.25 556.66,-1489.52 592.23,-1479.02"/>
<polygon fill="grey" stroke="grey" stroke-width="2" points="593.45,-1482.31 602.05,-1476.12 591.47,-1475.59 593.45,-1482.31"/>
</g>
<!-- 11&#45;&gt;0 -->
<g id="edge3" class="edge">
<title>11&#45;&gt;0</title>
<path fill="none" stroke="grey" stroke-width="2" d="M457.7,-1439.97C445.72,-1413.77 425,-1361.7 425,-1315 425,-1315 425,-1315 425,-161 425,-117.72 448.94,-72.45 466.58,-44.98"/>
<polygon fill="grey" stroke="grey" stroke-width="2" points="469.68,-46.65 472.28,-36.38 463.84,-42.78 469.68,-46.65"/>
</g>
<!-- 12&#45;&gt;0 -->
<g id="edge9" class="edge">
<title>12&#45;&gt;0</title>
<path fill="none" stroke="grey" stroke-width="2" d="M516.43,-1367.76C497.64,-1342.1 466,-1291.67 466,-1243 466,-1243 466,-1243 466,-161 466,-120.86 473.55,-74.9 479.13,-46.4"/>
<polygon fill="grey" stroke="grey" stroke-width="2" points="482.61,-46.88 481.16,-36.39 475.74,-45.5 482.61,-46.88"/>
</g>
<!-- 13 -->
<g id="node14" class="node">
<title>13</title>
<path fill="none" stroke="#d88d56" stroke-width="2" d="M668.5,-1332C668.5,-1332 605.5,-1332 605.5,-1332 599.5,-1332 593.5,-1326 593.5,-1320 593.5,-1320 593.5,-1308 593.5,-1308 593.5,-1302 599.5,-1296 605.5,-1296 605.5,-1296 668.5,-1296 668.5,-1296 674.5,-1296 680.5,-1302 680.5,-1308 680.5,-1308 680.5,-1320 680.5,-1320 680.5,-1326 674.5,-1332 668.5,-1332"/>
<text text-anchor="middle" x="637" y="-1311.5" font-family="sans" font-size="10.00">sort_haplotypes</text>
</g>
<!-- 13&#45;&gt;0 -->
<g id="edge6" class="edge">
<title>13&#45;&gt;0</title>
<path fill="none" stroke="grey" stroke-width="2" d="M593.48,-1301.4C570.93,-1293.28 544.69,-1280.19 528,-1260 501.9,-1228.42 504,-1211.97 504,-1171 504,-1171 504,-1171 504,-161 504,-120.86 496.45,-74.9 490.87,-46.4"/>
<polygon fill="grey" stroke="grey" stroke-width="2" points="494.26,-45.5 488.84,-36.39 487.39,-46.88 494.26,-45.5"/>
</g>
<!-- 24 -->
<g id="node25" class="node">
<title>24</title>
<path fill="none" stroke="#56d892" stroke-width="2" d="M696.5,-1260C696.5,-1260 601.5,-1260 601.5,-1260 595.5,-1260 589.5,-1254 589.5,-1248 589.5,-1248 589.5,-1236 589.5,-1236 589.5,-1230 595.5,-1224 601.5,-1224 601.5,-1224 696.5,-1224 696.5,-1224 702.5,-1224 708.5,-1230 708.5,-1236 708.5,-1236 708.5,-1248 708.5,-1248 708.5,-1254 702.5,-1260 696.5,-1260"/>
<text text-anchor="middle" x="649" y="-1239.5" font-family="sans" font-size="10.00">import_variants_diploid</text>
</g>
<!-- 13&#45;&gt;24 -->
<g id="edge45" class="edge">
<title>13&#45;&gt;24</title>
<path fill="none" stroke="grey" stroke-width="2" d="M639.97,-1295.7C641.29,-1287.98 642.88,-1278.71 644.35,-1270.11"/>
<polygon fill="grey" stroke="grey" stroke-width="2" points="647.83,-1270.55 646.07,-1260.1 640.93,-1269.37 647.83,-1270.55"/>
</g>
<!-- 14 -->
<g id="node15" class="node">
<title>14</title>
<path fill="none" stroke="#d85e56" stroke-width="2" d="M711.5,-1404C711.5,-1404 636.5,-1404 636.5,-1404 630.5,-1404 624.5,-1398 624.5,-1392 624.5,-1392 624.5,-1380 624.5,-1380 624.5,-1374 630.5,-1368 636.5,-1368 636.5,-1368 711.5,-1368 711.5,-1368 717.5,-1368 723.5,-1374 723.5,-1380 723.5,-1380 723.5,-1392 723.5,-1392 723.5,-1398 717.5,-1404 711.5,-1404"/>
<text text-anchor="middle" x="674" y="-1383.5" font-family="sans" font-size="10.00">gather_haplotypes</text>
</g>
<!-- 14&#45;&gt;13 -->
<g id="edge29" class="edge">
<title>14&#45;&gt;13</title>
<path fill="none" stroke="grey" stroke-width="2" d="M664.85,-1367.7C660.6,-1359.64 655.44,-1349.89 650.73,-1340.98"/>
<polygon fill="grey" stroke="grey" stroke-width="2" points="653.81,-1339.31 646.04,-1332.1 647.62,-1342.58 653.81,-1339.31"/>
</g>
<!-- 15&#45;&gt;14 -->
<g id="edge30" class="edge">
<title>15&#45;&gt;14</title>
<path fill="none" stroke="grey" stroke-width="2" d="M663.46,-1439.7C665,-1431.98 666.86,-1422.71 668.58,-1414.11"/>
<polygon fill="grey" stroke="grey" stroke-width="2" points="672.05,-1414.6 670.58,-1404.1 665.19,-1413.22 672.05,-1414.6"/>
</g>
<!-- 16&#45;&gt;15 -->
<g id="edge35" class="edge">
<title>16&#45;&gt;15</title>
<path fill="none" stroke="grey" stroke-width="2" d="M629.64,-1655.85C635.35,-1618.83 648.87,-1531.18 655.78,-1486.39"/>
<polygon fill="grey" stroke="grey" stroke-width="2" points="659.28,-1486.65 657.34,-1476.23 652.36,-1485.58 659.28,-1486.65"/>
</g>
<!-- 17&#45;&gt;15 -->
<g id="edge36" class="edge">
<title>17&#45;&gt;15</title>
<path fill="none" stroke="grey" stroke-width="2" d="M796.67,-1655.89C778.26,-1632.07 744.22,-1587.39 717,-1548 702.61,-1527.18 687.18,-1502.95 676,-1485.04"/>
<polygon fill="grey" stroke="grey" stroke-width="2" points="678.83,-1482.94 670.58,-1476.3 672.88,-1486.64 678.83,-1482.94"/>
</g>
<!-- 18 -->
<g id="node19" class="node">
<title>18</title>
<path fill="none" stroke="#56b9d8" stroke-width="2" d="M896,-1548C896,-1548 738,-1548 738,-1548 732,-1548 726,-1542 726,-1536 726,-1536 726,-1524 726,-1524 726,-1518 732,-1512 738,-1512 738,-1512 896,-1512 896,-1512 902,-1512 908,-1518 908,-1524 908,-1524 908,-1536 908,-1536 908,-1542 902,-1548 896,-1548"/>
<text text-anchor="middle" x="817" y="-1527.5" font-family="sans" font-size="10.00">generate_intervals_haplotype_calling</text>
</g>
<!-- 18&#45;&gt;15 -->
<g id="edge31" class="edge">
<title>18&#45;&gt;15</title>
<path fill="none" stroke="grey" stroke-width="2" d="M778.59,-1511.88C757.13,-1502.31 730.2,-1490.3 707.43,-1480.15"/>
<polygon fill="grey" stroke="grey" stroke-width="2" points="708.84,-1476.94 698.28,-1476.07 705.99,-1483.34 708.84,-1476.94"/>
</g>
<!-- 19 -->
<g id="node20" class="node">
<title>19</title>
<path fill="none" stroke="#56d8c9" stroke-width="2" d="M930,-1620C930,-1620 824,-1620 824,-1620 818,-1620 812,-1614 812,-1608 812,-1608 812,-1596 812,-1596 812,-1590 818,-1584 824,-1584 824,-1584 930,-1584 930,-1584 936,-1584 942,-1590 942,-1596 942,-1596 942,-1608 942,-1608 942,-1614 936,-1620 930,-1620"/>
<text text-anchor="middle" x="877" y="-1599.5" font-family="sans" font-size="10.00">resource_targeted_genes</text>
</g>
<!-- 19&#45;&gt;18 -->
<g id="edge40" class="edge">
<title>19&#45;&gt;18</title>
<path fill="none" stroke="grey" stroke-width="2" d="M862.17,-1583.7C854.98,-1575.3 846.2,-1565.07 838.31,-1555.86"/>
<polygon fill="grey" stroke="grey" stroke-width="2" points="840.83,-1553.42 831.66,-1548.1 835.51,-1557.97 840.83,-1553.42"/>
</g>
<!-- 23 -->
<g id="node24" class="node">
<title>23</title>
<path fill="none" stroke="#5682d8" stroke-width="2" d="M829,-1332C829,-1332 711,-1332 711,-1332 705,-1332 699,-1326 699,-1320 699,-1320 699,-1308 699,-1308 699,-1302 705,-1296 711,-1296 711,-1296 829,-1296 829,-1296 835,-1296 841,-1302 841,-1308 841,-1308 841,-1320 841,-1320 841,-1326 835,-1332 829,-1332"/>
<text text-anchor="middle" x="770" y="-1311.5" font-family="sans" font-size="10.00">generate_genomic_intervals</text>
</g>
<!-- 19&#45;&gt;23 -->
<g id="edge44" class="edge">
<title>19&#45;&gt;23</title>
<path fill="none" stroke="grey" stroke-width="2" d="M894.73,-1583.6C903.24,-1574 912.53,-1561.34 917,-1548 922.08,-1532.83 922.04,-1527.19 917,-1512 893.25,-1440.46 832.29,-1373.85 796.77,-1339.43"/>
<polygon fill="grey" stroke="grey" stroke-width="2" points="798.83,-1336.56 789.18,-1332.19 794,-1341.62 798.83,-1336.56"/>
</g>
<!-- 20 -->
<g id="node21" class="node">
<title>20</title>
<path fill="none" stroke="#56d8a9" stroke-width="2" d="M1279.5,-1620C1279.5,-1620 1182.5,-1620 1182.5,-1620 1176.5,-1620 1170.5,-1614 1170.5,-1608 1170.5,-1608 1170.5,-1596 1170.5,-1596 1170.5,-1590 1176.5,-1584 1182.5,-1584 1182.5,-1584 1279.5,-1584 1279.5,-1584 1285.5,-1584 1291.5,-1590 1291.5,-1596 1291.5,-1596 1291.5,-1608 1291.5,-1608 1291.5,-1614 1285.5,-1620 1279.5,-1620"/>
<text text-anchor="middle" x="1231" y="-1599.5" font-family="sans" font-size="10.00">sort_and_compress_gff</text>
</g>
<!-- 20&#45;&gt;18 -->
<g id="edge39" class="edge">
<title>20&#45;&gt;18</title>
<path fill="none" stroke="grey" stroke-width="2" d="M1170.36,-1590.75C1104.13,-1579.55 996.97,-1561.43 918,-1548.08"/>
<polygon fill="grey" stroke="grey" stroke-width="2" points="918.47,-1544.61 908.03,-1546.39 917.31,-1551.51 918.47,-1544.61"/>
</g>
<!-- 20&#45;&gt;23 -->
<g id="edge43" class="edge">
<title>20&#45;&gt;23</title>
<path fill="none" stroke="grey" stroke-width="2" d="M1203.54,-1583.97C1124.37,-1534.85 895.58,-1392.91 806.3,-1337.52"/>
<polygon fill="grey" stroke="grey" stroke-width="2" points="807.95,-1334.42 797.6,-1332.13 804.26,-1340.37 807.95,-1334.42"/>
</g>
<!-- 20&#45;&gt;42 -->
<g id="edge73" class="edge">
<title>20&#45;&gt;42</title>
<path fill="none" stroke="grey" stroke-width="2" d="M1225.13,-1583.74C1216.66,-1557.25 1202,-1504.79 1202,-1459 1202,-1459 1202,-1459 1202,-449 1202,-408.16 1189.97,-362.11 1181.15,-333.82"/>
<polygon fill="grey" stroke="grey" stroke-width="2" points="1184.46,-332.69 1178.07,-324.24 1177.8,-334.83 1184.46,-332.69"/>
</g>
<!-- 20&#45;&gt;44 -->
<g id="edge75" class="edge">
<title>20&#45;&gt;44</title>
<path fill="none" stroke="grey" stroke-width="2" d="M1250.75,-1583.91C1276.97,-1559.21 1320,-1510.79 1320,-1459 1320,-1459 1320,-1459 1320,-593 1320,-552.97 1317.99,-506.63 1316.52,-478.07"/>
<polygon fill="grey" stroke="grey" stroke-width="2" points="1320.01,-477.84 1315.99,-468.04 1313.02,-478.21 1320.01,-477.84"/>
</g>
<!-- 20&#45;&gt;45 -->
<g id="edge78" class="edge">
<title>20&#45;&gt;45</title>
<path fill="none" stroke="grey" stroke-width="2" d="M1277.84,-1583.95C1326.62,-1562.82 1396,-1521.74 1396,-1459 1396,-1459 1396,-1459 1396,-665 1396,-624.74 1404.74,-578.81 1411.21,-550.36"/>
<polygon fill="grey" stroke="grey" stroke-width="2" points="1414.68,-550.89 1413.55,-540.35 1407.86,-549.29 1414.68,-550.89"/>
</g>
<!-- 46 -->
<g id="node47" class="node">
<title>46</title>
<path fill="none" stroke="#56a9d8" stroke-width="2" d="M1469.5,-1260C1469.5,-1260 1436.5,-1260 1436.5,-1260 1430.5,-1260 1424.5,-1254 1424.5,-1248 1424.5,-1248 1424.5,-1236 1424.5,-1236 1424.5,-1230 1430.5,-1224 1436.5,-1224 1436.5,-1224 1469.5,-1224 1469.5,-1224 1475.5,-1224 1481.5,-1230 1481.5,-1236 1481.5,-1236 1481.5,-1248 1481.5,-1248 1481.5,-1254 1475.5,-1260 1469.5,-1260"/>
<text text-anchor="middle" x="1453" y="-1239.5" font-family="sans" font-size="10.00">index_gff</text>
</g>
<!-- 20&#45;&gt;46 -->
<g id="edge82" class="edge">
<title>20&#45;&gt;46</title>
<path fill="none" stroke="grey" stroke-width="2" d="M1291.75,-1596.7C1330.01,-1590.99 1378.04,-1577.88 1410,-1548 1440.82,-1519.19 1443,-1501.19 1443,-1459 1443,-1459 1443,-1459 1443,-1385 1443,-1344.9 1447.02,-1298.58 1449.96,-1270.04"/>
<polygon fill="grey" stroke="grey" stroke-width="2" points="1453.45,-1270.34 1451.02,-1260.02 1446.49,-1269.6 1453.45,-1270.34"/>
</g>
<!-- 21 -->
<g id="node22" class="node">
<title>21</title>
<path fill="none" stroke="#97d856" stroke-width="2" d="M1026,-1692C1026,-1692 928,-1692 928,-1692 922,-1692 916,-1686 916,-1680 916,-1680 916,-1668 916,-1668 916,-1662 922,-1656 928,-1656 928,-1656 1026,-1656 1026,-1656 1032,-1656 1038,-1662 1038,-1668 1038,-1668 1038,-1680 1038,-1680 1038,-1686 1032,-1692 1026,-1692"/>
<text text-anchor="middle" x="977" y="-1671.5" font-family="sans" font-size="10.00">cleanup_annotation_file</text>
</g>
<!-- 21&#45;&gt;20 -->
<g id="edge41" class="edge">
<title>21&#45;&gt;20</title>
<path fill="none" stroke="grey" stroke-width="2" d="M1038.16,-1656.14C1074.95,-1646.01 1121.92,-1633.06 1160.3,-1622.48"/>
<polygon fill="grey" stroke="grey" stroke-width="2" points="1161.66,-1625.74 1170.37,-1619.71 1159.8,-1618.99 1161.66,-1625.74"/>
</g>
<!-- 22 -->
<g id="node23" class="node">
<title>22</title>
<path fill="none" stroke="#5663d8" stroke-width="2" d="M1026,-1764C1026,-1764 924,-1764 924,-1764 918,-1764 912,-1758 912,-1752 912,-1752 912,-1740 912,-1740 912,-1734 918,-1728 924,-1728 924,-1728 1026,-1728 1026,-1728 1032,-1728 1038,-1734 1038,-1740 1038,-1740 1038,-1752 1038,-1752 1038,-1758 1032,-1764 1026,-1764"/>
<text text-anchor="middle" x="975" y="-1743.5" font-family="sans" font-size="10.00">resource_annotation_file</text>
</g>
<!-- 22&#45;&gt;21 -->
<g id="edge42" class="edge">
<title>22&#45;&gt;21</title>
<path fill="none" stroke="grey" stroke-width="2" d="M975.49,-1727.7C975.71,-1719.98 975.98,-1710.71 976.23,-1702.11"/>
<polygon fill="grey" stroke="grey" stroke-width="2" points="979.72,-1702.2 976.51,-1692.1 972.73,-1702 979.72,-1702.2"/>
</g>
<!-- 23&#45;&gt;0 -->
<g id="edge11" class="edge">
<title>23&#45;&gt;0</title>
<path fill="none" stroke="grey" stroke-width="2" d="M698.96,-1296.19C649.31,-1283.92 590.29,-1268.08 581,-1260 548.41,-1231.67 542,-1214.19 542,-1171 542,-1171 542,-1171 542,-161 542,-117.8 519,-72.19 502.22,-44.66"/>
<polygon fill="grey" stroke="grey" stroke-width="2" points="505.09,-42.65 496.81,-36.04 499.17,-46.37 505.09,-42.65"/>
</g>
<!-- 23&#45;&gt;24 -->
<g id="edge46" class="edge">
<title>23&#45;&gt;24</title>
<path fill="none" stroke="grey" stroke-width="2" d="M740.4,-1295.88C724.43,-1286.64 704.54,-1275.13 687.39,-1265.21"/>
<polygon fill="grey" stroke="grey" stroke-width="2" points="689.12,-1262.17 678.71,-1260.19 685.62,-1268.23 689.12,-1262.17"/>
</g>
<!-- 23&#45;&gt;25 -->
<g id="edge48" class="edge">
<title>23&#45;&gt;25</title>
<path fill="none" stroke="grey" stroke-width="2" d="M765.42,-1295.87C758.91,-1271.56 746.94,-1226.82 739.23,-1198.01"/>
<polygon fill="grey" stroke="grey" stroke-width="2" points="742.57,-1196.94 736.6,-1188.19 735.8,-1198.75 742.57,-1196.94"/>
</g>
<!-- 24&#45;&gt;0 -->
<g id="edge16" class="edge">
<title>24&#45;&gt;0</title>
<path fill="none" stroke="grey" stroke-width="2" d="M634.37,-1223.93C614.11,-1198.5 580,-1148.34 580,-1099 580,-1099 580,-1099 580,-161 580,-120.03 579.01,-105.89 556,-72 548.08,-60.34 536.73,-50.23 525.43,-42.07"/>
<polygon fill="grey" stroke="grey" stroke-width="2" points="527.08,-38.96 516.85,-36.2 523.13,-44.74 527.08,-38.96"/>
</g>
<!-- 24&#45;&gt;25 -->
<g id="edge49" class="edge">
<title>24&#45;&gt;25</title>
<path fill="none" stroke="grey" stroke-width="2" d="M669.52,-1223.7C679.87,-1214.97 692.59,-1204.24 703.84,-1194.75"/>
<polygon fill="grey" stroke="grey" stroke-width="2" points="706.33,-1197.23 711.72,-1188.1 701.82,-1191.88 706.33,-1197.23"/>
</g>
<!-- 25&#45;&gt;0 -->
<g id="edge13" class="edge">
<title>25&#45;&gt;0</title>
<path fill="none" stroke="grey" stroke-width="2" d="M704.98,-1151.96C671.27,-1128.37 618,-1082.33 618,-1027 618,-1027 618,-1027 618,-161 618,-120.03 620.1,-103.58 594,-72 581.38,-56.74 563.32,-45.54 545.51,-37.47"/>
<polygon fill="grey" stroke="grey" stroke-width="2" points="546.82,-34.23 536.25,-33.53 544.08,-40.67 546.82,-34.23"/>
</g>
<!-- 25&#45;&gt;26 -->
<g id="edge50" class="edge">
<title>25&#45;&gt;26</title>
<path fill="none" stroke="grey" stroke-width="2" d="M732,-1151.7C732,-1143.98 732,-1134.71 732,-1126.11"/>
<polygon fill="grey" stroke="grey" stroke-width="2" points="735.5,-1126.1 732,-1116.1 728.5,-1126.1 735.5,-1126.1"/>
</g>
<!-- 26&#45;&gt;0 -->
<g id="edge12" class="edge">
<title>26&#45;&gt;0</title>
<path fill="none" stroke="grey" stroke-width="2" d="M715.51,-1079.77C693.16,-1054.53 656,-1005.05 656,-955 656,-955 656,-955 656,-161 656,-120.03 659.75,-102.14 632,-72 609.8,-47.88 575.8,-34.72 546.09,-27.55"/>
<polygon fill="grey" stroke="grey" stroke-width="2" points="546.73,-24.11 536.21,-25.34 545.2,-30.94 546.73,-24.11"/>
</g>
<!-- 27 -->
<g id="node28" class="node">
<title>27</title>
<path fill="none" stroke="#56c9d8" stroke-width="2" d="M751,-1044C751,-1044 713,-1044 713,-1044 707,-1044 701,-1038 701,-1032 701,-1032 701,-1020 701,-1020 701,-1014 707,-1008 713,-1008 713,-1008 751,-1008 751,-1008 757,-1008 763,-1014 763,-1020 763,-1020 763,-1032 763,-1032 763,-1038 757,-1044 751,-1044"/>
<text text-anchor="middle" x="732" y="-1023.5" font-family="sans" font-size="10.00">filter_snps</text>
</g>
<!-- 26&#45;&gt;27 -->
<g id="edge52" class="edge">
<title>26&#45;&gt;27</title>
<path fill="none" stroke="grey" stroke-width="2" d="M732,-1079.7C732,-1071.98 732,-1062.71 732,-1054.11"/>
<polygon fill="grey" stroke="grey" stroke-width="2" points="735.5,-1054.1 732,-1044.1 728.5,-1054.1 735.5,-1054.1"/>
</g>
<!-- 27&#45;&gt;0 -->
<g id="edge4" class="edge">
<title>27&#45;&gt;0</title>
<path fill="none" stroke="grey" stroke-width="2" d="M724.31,-1007.91C713.21,-981.62 694,-929.45 694,-883 694,-883 694,-883 694,-161 694,-120.03 698.74,-101.19 670,-72 637.7,-39.19 586.56,-26.34 546.22,-21.48"/>
<polygon fill="grey" stroke="grey" stroke-width="2" points="546.54,-17.99 536.22,-20.41 545.79,-24.95 546.54,-17.99"/>
</g>
<!-- 29 -->
<g id="node30" class="node">
<title>29</title>
<path fill="none" stroke="#d8bc56" stroke-width="2" d="M1049.5,-684C1049.5,-684 928.5,-684 928.5,-684 922.5,-684 916.5,-678 916.5,-672 916.5,-672 916.5,-660 916.5,-660 916.5,-654 922.5,-648 928.5,-648 928.5,-648 1049.5,-648 1049.5,-648 1055.5,-648 1061.5,-654 1061.5,-660 1061.5,-660 1061.5,-672 1061.5,-672 1061.5,-678 1055.5,-684 1049.5,-684"/>
<text text-anchor="middle" x="989" y="-663.5" font-family="sans" font-size="10.00">recode_ancestral_alleles_vcf</text>
</g>
<!-- 27&#45;&gt;29 -->
<g id="edge54" class="edge">
<title>27&#45;&gt;29</title>
<path fill="none" stroke="grey" stroke-width="2" d="M732,-1007.95C732,-981.29 732,-928.11 732,-883 732,-883 732,-883 732,-809 732,-727.89 831.27,-692.75 906.42,-677.77"/>
<polygon fill="grey" stroke="grey" stroke-width="2" points="907.22,-681.18 916.38,-675.87 905.91,-674.31 907.22,-681.18"/>
</g>
<!-- 33 -->
<g id="node34" class="node">
<title>33</title>
<path fill="none" stroke="#56d8a2" stroke-width="2" d="M973.5,-972C973.5,-972 882.5,-972 882.5,-972 876.5,-972 870.5,-966 870.5,-960 870.5,-960 870.5,-948 870.5,-948 870.5,-942 876.5,-936 882.5,-936 882.5,-936 973.5,-936 973.5,-936 979.5,-936 985.5,-942 985.5,-948 985.5,-948 985.5,-960 985.5,-960 985.5,-966 979.5,-972 973.5,-972"/>
<text text-anchor="middle" x="928" y="-951.5" font-family="sans" font-size="10.00">prepare_input_est_sfs</text>
</g>
<!-- 27&#45;&gt;33 -->
<g id="edge65" class="edge">
<title>27&#45;&gt;33</title>
<path fill="none" stroke="grey" stroke-width="2" d="M763.06,-1013.91C791.87,-1003.62 835.46,-988.05 870.6,-975.5"/>
<polygon fill="grey" stroke="grey" stroke-width="2" points="872.03,-978.71 880.27,-972.05 869.67,-972.11 872.03,-978.71"/>
</g>
<!-- 28 -->
<g id="node29" class="node">
<title>28</title>
<path fill="none" stroke="#5673d8" stroke-width="2" d="M1056,-612C1056,-612 922,-612 922,-612 916,-612 910,-606 910,-600 910,-600 910,-588 910,-588 910,-582 916,-576 922,-576 922,-576 1056,-576 1056,-576 1062,-576 1068,-582 1068,-588 1068,-588 1068,-600 1068,-600 1068,-606 1062,-612 1056,-612"/>
<text text-anchor="middle" x="989" y="-591.5" font-family="sans" font-size="10.00">compress_ancestral_alleles_vcf</text>
</g>
<!-- 28&#45;&gt;0 -->
<g id="edge5" class="edge">
<title>28&#45;&gt;0</title>
<path fill="none" stroke="grey" stroke-width="2" d="M940.12,-575.9C890.21,-554.94 820,-514.23 820,-451 820,-451 820,-451 820,-161 820,-43.52 643.21,-21.79 546.49,-18.69"/>
<polygon fill="grey" stroke="grey" stroke-width="2" points="546.33,-15.19 536.24,-18.42 546.15,-22.18 546.33,-15.19"/>
</g>
<!-- 28&#45;&gt;45 -->
<g id="edge81" class="edge">
<title>28&#45;&gt;45</title>
<path fill="none" stroke="grey" stroke-width="2" d="M1068.19,-580.08C1145.11,-567.53 1261.28,-548.57 1338.36,-536"/>
<polygon fill="grey" stroke="grey" stroke-width="2" points="1339.19,-539.41 1348.5,-534.34 1338.06,-532.5 1339.19,-539.41"/>
</g>
<!-- 29&#45;&gt;28 -->
<g id="edge53" class="edge">
<title>29&#45;&gt;28</title>
<path fill="none" stroke="grey" stroke-width="2" d="M989,-647.7C989,-639.98 989,-630.71 989,-622.11"/>
<polygon fill="grey" stroke="grey" stroke-width="2" points="992.5,-622.1 989,-612.1 985.5,-622.1 992.5,-622.1"/>
</g>
<!-- 30 -->
<g id="node31" class="node">
<title>30</title>
<path fill="none" stroke="#d8b456" stroke-width="2" d="M991.5,-756C991.5,-756 898.5,-756 898.5,-756 892.5,-756 886.5,-750 886.5,-744 886.5,-744 886.5,-732 886.5,-732 886.5,-726 892.5,-720 898.5,-720 898.5,-720 991.5,-720 991.5,-720 997.5,-720 1003.5,-726 1003.5,-732 1003.5,-732 1003.5,-744 1003.5,-744 1003.5,-750 997.5,-756 991.5,-756"/>
<text text-anchor="middle" x="945" y="-735.5" font-family="sans" font-size="10.00">scatter_output_est_sfs</text>
</g>
<!-- 30&#45;&gt;29 -->
<g id="edge55" class="edge">
<title>30&#45;&gt;29</title>
<path fill="none" stroke="grey" stroke-width="2" d="M955.88,-719.7C960.99,-711.56 967.2,-701.69 972.84,-692.7"/>
<polygon fill="grey" stroke="grey" stroke-width="2" points="975.89,-694.43 978.25,-684.1 969.96,-690.71 975.89,-694.43"/>
</g>
<!-- 31 -->
<g id="node32" class="node">
<title>31</title>
<path fill="none" stroke="#d85656" stroke-width="2" d="M954,-828C954,-828 854,-828 854,-828 848,-828 842,-822 842,-816 842,-816 842,-804 842,-804 842,-798 848,-792 854,-792 854,-792 954,-792 954,-792 960,-792 966,-798 966,-804 966,-804 966,-816 966,-816 966,-822 960,-828 954,-828"/>
<text text-anchor="middle" x="904" y="-807.5" font-family="sans" font-size="10.00">derive_ancestral_alleles</text>
</g>
<!-- 31&#45;&gt;30 -->
<g id="edge58" class="edge">
<title>31&#45;&gt;30</title>
<path fill="none" stroke="grey" stroke-width="2" d="M914.13,-791.7C918.85,-783.64 924.56,-773.89 929.78,-764.98"/>
<polygon fill="grey" stroke="grey" stroke-width="2" points="932.95,-766.5 934.98,-756.1 926.91,-762.96 932.95,-766.5"/>
</g>
<!-- 32 -->
<g id="node33" class="node">
<title>32</title>
<path fill="none" stroke="#d8d356" stroke-width="2" d="M857.5,-900C857.5,-900 772.5,-900 772.5,-900 766.5,-900 760.5,-894 760.5,-888 760.5,-888 760.5,-876 760.5,-876 760.5,-870 766.5,-864 772.5,-864 772.5,-864 857.5,-864 857.5,-864 863.5,-864 869.5,-870 869.5,-876 869.5,-876 869.5,-888 869.5,-888 869.5,-894 863.5,-900 857.5,-900"/>
<text text-anchor="middle" x="815" y="-879.5" font-family="sans" font-size="10.00">gather_input_est_sfs</text>
</g>
<!-- 32&#45;&gt;31 -->
<g id="edge61" class="edge">
<title>32&#45;&gt;31</title>
<path fill="none" stroke="grey" stroke-width="2" d="M837,-863.7C848.21,-854.88 862,-844.03 874.15,-834.47"/>
<polygon fill="grey" stroke="grey" stroke-width="2" points="876.56,-837.04 882.25,-828.1 872.23,-831.54 876.56,-837.04"/>
</g>
<!-- 33&#45;&gt;29 -->
<g id="edge57" class="edge">
<title>33&#45;&gt;29</title>
<path fill="none" stroke="grey" stroke-width="2" d="M958.47,-935.88C971.55,-926.92 985.71,-914.73 994,-900 1033.46,-829.9 1029.97,-798.63 1013,-720 1011.04,-710.92 1007.39,-701.52 1003.51,-693.2"/>
<polygon fill="grey" stroke="grey" stroke-width="2" points="1006.54,-691.42 998.95,-684.02 1000.27,-694.53 1006.54,-691.42"/>
</g>
<!-- 33&#45;&gt;30 -->
<g id="edge59" class="edge">
<title>33&#45;&gt;30</title>
<path fill="none" stroke="grey" stroke-width="2" d="M949.27,-935.7C959.11,-926.31 969.76,-913.8 975,-900 992.03,-855.12 987.23,-838.42 975,-792 972.51,-782.54 967.9,-772.99 963.03,-764.66"/>
<polygon fill="grey" stroke="grey" stroke-width="2" points="965.99,-762.79 957.73,-756.15 960.05,-766.49 965.99,-762.79"/>
</g>
<!-- 33&#45;&gt;32 -->
<g id="edge62" class="edge">
<title>33&#45;&gt;32</title>
<path fill="none" stroke="grey" stroke-width="2" d="M900.36,-935.88C885.58,-926.72 867.21,-915.34 851.3,-905.48"/>
<polygon fill="grey" stroke="grey" stroke-width="2" points="853.09,-902.48 842.75,-900.19 849.41,-908.43 853.09,-902.48"/>
</g>
<!-- 34 -->
<g id="node35" class="node">
<title>34</title>
<path fill="none" stroke="#d87556" stroke-width="2" d="M932.5,-1044C932.5,-1044 811.5,-1044 811.5,-1044 805.5,-1044 799.5,-1038 799.5,-1032 799.5,-1032 799.5,-1020 799.5,-1020 799.5,-1014 805.5,-1008 811.5,-1008 811.5,-1008 932.5,-1008 932.5,-1008 938.5,-1008 944.5,-1014 944.5,-1020 944.5,-1020 944.5,-1032 944.5,-1032 944.5,-1038 938.5,-1044 932.5,-1044"/>
<text text-anchor="middle" x="872" y="-1023.5" font-family="sans" font-size="10.00">create_sample_set_ingroups</text>
</g>
<!-- 34&#45;&gt;29 -->
<g id="edge56" class="edge">
<title>34&#45;&gt;29</title>
<path fill="none" stroke="grey" stroke-width="2" d="M936.56,-1007.98C994.34,-988.38 1070,-949.94 1070,-883 1070,-883 1070,-883 1070,-809 1070,-762.96 1037.48,-718.25 1013.65,-691.67"/>
<polygon fill="grey" stroke="grey" stroke-width="2" points="1015.93,-688.99 1006.58,-684.02 1010.79,-693.74 1015.93,-688.99"/>
</g>
<!-- 34&#45;&gt;33 -->
<g id="edge64" class="edge">
<title>34&#45;&gt;33</title>
<path fill="none" stroke="grey" stroke-width="2" d="M885.84,-1007.7C892.49,-999.39 900.58,-989.28 907.89,-980.14"/>
<polygon fill="grey" stroke="grey" stroke-width="2" points="910.8,-982.1 914.32,-972.1 905.34,-977.73 910.8,-982.1"/>
</g>
<!-- 35 -->
<g id="node36" class="node">
<title>35</title>
<path fill="none" stroke="#8fd856" stroke-width="2" d="M928.5,-1116C928.5,-1116 815.5,-1116 815.5,-1116 809.5,-1116 803.5,-1110 803.5,-1104 803.5,-1104 803.5,-1092 803.5,-1092 803.5,-1086 809.5,-1080 815.5,-1080 815.5,-1080 928.5,-1080 928.5,-1080 934.5,-1080 940.5,-1086 940.5,-1092 940.5,-1092 940.5,-1104 940.5,-1104 940.5,-1110 934.5,-1116 928.5,-1116"/>
<text text-anchor="middle" x="872" y="-1095.5" font-family="sans" font-size="10.00">resource_ingroup_samples</text>
</g>
<!-- 35&#45;&gt;34 -->
<g id="edge66" class="edge">
<title>35&#45;&gt;34</title>
<path fill="none" stroke="grey" stroke-width="2" d="M872,-1079.7C872,-1071.98 872,-1062.71 872,-1054.11"/>
<polygon fill="grey" stroke="grey" stroke-width="2" points="875.5,-1054.1 872,-1044.1 868.5,-1054.1 875.5,-1054.1"/>
</g>
<!-- 36 -->
<g id="node37" class="node">
<title>36</title>
<path fill="none" stroke="#56d85b" stroke-width="2" d="M1101.5,-1044C1101.5,-1044 974.5,-1044 974.5,-1044 968.5,-1044 962.5,-1038 962.5,-1032 962.5,-1032 962.5,-1020 962.5,-1020 962.5,-1014 968.5,-1008 974.5,-1008 974.5,-1008 1101.5,-1008 1101.5,-1008 1107.5,-1008 1113.5,-1014 1113.5,-1020 1113.5,-1020 1113.5,-1032 1113.5,-1032 1113.5,-1038 1107.5,-1044 1101.5,-1044"/>
<text text-anchor="middle" x="1038" y="-1023.5" font-family="sans" font-size="10.00">create_sample_set_outgroups</text>
</g>
<!-- 36&#45;&gt;33 -->
<g id="edge63" class="edge">
<title>36&#45;&gt;33</title>
<path fill="none" stroke="grey" stroke-width="2" d="M1011.09,-1007.88C996.84,-998.81 979.15,-987.55 963.76,-977.76"/>
<polygon fill="grey" stroke="grey" stroke-width="2" points="965.33,-974.61 955.01,-972.19 961.57,-980.51 965.33,-974.61"/>
</g>
<!-- 37 -->
<g id="node38" class="node">
<title>37</title>
<path fill="none" stroke="#d89556" stroke-width="2" d="M1097.5,-1116C1097.5,-1116 978.5,-1116 978.5,-1116 972.5,-1116 966.5,-1110 966.5,-1104 966.5,-1104 966.5,-1092 966.5,-1092 966.5,-1086 972.5,-1080 978.5,-1080 978.5,-1080 1097.5,-1080 1097.5,-1080 1103.5,-1080 1109.5,-1086 1109.5,-1092 1109.5,-1092 1109.5,-1104 1109.5,-1104 1109.5,-1110 1103.5,-1116 1097.5,-1116"/>
<text text-anchor="middle" x="1038" y="-1095.5" font-family="sans" font-size="10.00">resource_outgroup_samples</text>
</g>
<!-- 37&#45;&gt;36 -->
<g id="edge67" class="edge">
<title>37&#45;&gt;36</title>
<path fill="none" stroke="grey" stroke-width="2" d="M1038,-1079.7C1038,-1071.98 1038,-1062.71 1038,-1054.11"/>
<polygon fill="grey" stroke="grey" stroke-width="2" points="1041.5,-1054.1 1038,-1044.1 1034.5,-1054.1 1041.5,-1054.1"/>
</g>
<!-- 38 -->
<g id="node39" class="node">
<title>38</title>
<path fill="none" stroke="#566bd8" stroke-width="2" d="M954,-900C954,-900 900,-900 900,-900 894,-900 888,-894 888,-888 888,-888 888,-876 888,-876 888,-870 894,-864 900,-864 900,-864 954,-864 954,-864 960,-864 966,-870 966,-876 966,-876 966,-888 966,-888 966,-894 960,-900 954,-900"/>
<text text-anchor="middle" x="927" y="-879.5" font-family="sans" font-size="10.00">setup_est_sfs</text>
</g>
<!-- 38&#45;&gt;31 -->
<g id="edge60" class="edge">
<title>38&#45;&gt;31</title>
<path fill="none" stroke="grey" stroke-width="2" d="M921.31,-863.7C918.75,-855.9 915.67,-846.51 912.82,-837.83"/>
<polygon fill="grey" stroke="grey" stroke-width="2" points="916.07,-836.51 909.62,-828.1 909.42,-838.7 916.07,-836.51"/>
</g>
<!-- 39 -->
<g id="node40" class="node">
<title>39</title>
<path fill="none" stroke="#88d856" stroke-width="2" d="M935.5,-108C935.5,-108 870.5,-108 870.5,-108 864.5,-108 858.5,-102 858.5,-96 858.5,-96 858.5,-84 858.5,-84 858.5,-78 864.5,-72 870.5,-72 870.5,-72 935.5,-72 935.5,-72 941.5,-72 947.5,-78 947.5,-84 947.5,-84 947.5,-96 947.5,-96 947.5,-102 941.5,-108 935.5,-108"/>
<text text-anchor="middle" x="903" y="-87.5" font-family="sans" font-size="10.00">sort_variants_all</text>
</g>
<!-- 39&#45;&gt;0 -->
<g id="edge10" class="edge">
<title>39&#45;&gt;0</title>
<path fill="none" stroke="grey" stroke-width="2" d="M858.22,-77.34C850.19,-75.43 841.87,-73.56 834,-72 733.74,-52.08 615.97,-35.62 546.07,-26.56"/>
<polygon fill="grey" stroke="grey" stroke-width="2" points="546.48,-23.09 536.11,-25.28 545.59,-30.03 546.48,-23.09"/>
</g>
<!-- 40 -->
<g id="node41" class="node">
<title>40</title>
<path fill="none" stroke="#56d8c1" stroke-width="2" d="M1026.5,-180C1026.5,-180 965.5,-180 965.5,-180 959.5,-180 953.5,-174 953.5,-168 953.5,-168 953.5,-156 953.5,-156 953.5,-150 959.5,-144 965.5,-144 965.5,-144 1026.5,-144 1026.5,-144 1032.5,-144 1038.5,-150 1038.5,-156 1038.5,-156 1038.5,-168 1038.5,-168 1038.5,-174 1032.5,-180 1026.5,-180"/>
<text text-anchor="middle" x="996" y="-159.5" font-family="sans" font-size="10.00">gather_variants</text>
</g>
<!-- 40&#45;&gt;39 -->
<g id="edge68" class="edge">
<title>40&#45;&gt;39</title>
<path fill="none" stroke="grey" stroke-width="2" d="M973.01,-143.7C961.19,-134.8 946.61,-123.82 933.82,-114.2"/>
<polygon fill="grey" stroke="grey" stroke-width="2" points="935.82,-111.32 925.72,-108.1 931.61,-116.91 935.82,-111.32"/>
</g>
<!-- 41 -->
<g id="node42" class="node">
<title>41</title>
<path fill="none" stroke="#568ad8" stroke-width="2" d="M1142.5,-252C1142.5,-252 1037.5,-252 1037.5,-252 1031.5,-252 1025.5,-246 1025.5,-240 1025.5,-240 1025.5,-228 1025.5,-228 1025.5,-222 1031.5,-216 1037.5,-216 1037.5,-216 1142.5,-216 1142.5,-216 1148.5,-216 1154.5,-222 1154.5,-228 1154.5,-228 1154.5,-240 1154.5,-240 1154.5,-246 1148.5,-252 1142.5,-252"/>
<text text-anchor="middle" x="1090" y="-231.5" font-family="sans" font-size="10.00">compress_synonymy_vcf</text>
</g>
<!-- 41&#45;&gt;40 -->
<g id="edge69" class="edge">
<title>41&#45;&gt;40</title>
<path fill="none" stroke="grey" stroke-width="2" d="M1066.76,-215.7C1054.81,-206.8 1040.08,-195.82 1027.15,-186.2"/>
<polygon fill="grey" stroke="grey" stroke-width="2" points="1029.08,-183.27 1018.97,-180.1 1024.9,-188.88 1029.08,-183.27"/>
</g>
<!-- 42&#45;&gt;41 -->
<g id="edge70" class="edge">
<title>42&#45;&gt;41</title>
<path fill="none" stroke="grey" stroke-width="2" d="M1151.73,-287.7C1141.5,-278.97 1128.94,-268.24 1117.82,-258.75"/>
<polygon fill="grey" stroke="grey" stroke-width="2" points="1119.91,-255.94 1110.04,-252.1 1115.37,-261.26 1119.91,-255.94"/>
</g>
<!-- 43 -->
<g id="node44" class="node">
<title>43</title>
<path fill="none" stroke="#d87d56" stroke-width="2" d="M1360,-396C1360,-396 1248,-396 1248,-396 1242,-396 1236,-390 1236,-384 1236,-384 1236,-372 1236,-372 1236,-366 1242,-360 1248,-360 1248,-360 1360,-360 1360,-360 1366,-360 1372,-366 1372,-372 1372,-372 1372,-384 1372,-384 1372,-390 1366,-396 1360,-396"/>
<text text-anchor="middle" x="1304" y="-375.5" font-family="sans" font-size="10.00">compress_degeneracy_vcf</text>
</g>
<!-- 43&#45;&gt;42 -->
<g id="edge71" class="edge">
<title>43&#45;&gt;42</title>
<path fill="none" stroke="grey" stroke-width="2" d="M1271.71,-359.88C1254.13,-350.55 1232.19,-338.92 1213.37,-328.94"/>
<polygon fill="grey" stroke="grey" stroke-width="2" points="1214.89,-325.78 1204.41,-324.19 1211.61,-331.97 1214.89,-325.78"/>
</g>
<!-- 44&#45;&gt;43 -->
<g id="edge74" class="edge">
<title>44&#45;&gt;43</title>
<path fill="none" stroke="grey" stroke-width="2" d="M1312.28,-431.7C1311.07,-423.98 1309.61,-414.71 1308.26,-406.11"/>
<polygon fill="grey" stroke="grey" stroke-width="2" points="1311.7,-405.44 1306.69,-396.1 1304.78,-406.53 1311.7,-405.44"/>
</g>
<!-- 45&#45;&gt;44 -->
<g id="edge77" class="edge">
<title>45&#45;&gt;44</title>
<path fill="none" stroke="grey" stroke-width="2" d="M1392.8,-503.88C1379.59,-494.89 1363.21,-483.76 1348.89,-474.03"/>
<polygon fill="grey" stroke="grey" stroke-width="2" points="1350.53,-470.92 1340.29,-468.19 1346.6,-476.71 1350.53,-470.92"/>
</g>
<!-- 46&#45;&gt;45 -->
<g id="edge80" class="edge">
<title>46&#45;&gt;45</title>
<path fill="none" stroke="grey" stroke-width="2" d="M1451.02,-1223.98C1448.11,-1197.36 1443,-1144.23 1443,-1099 1443,-1099 1443,-1099 1443,-665 1443,-624.6 1433.06,-578.71 1425.72,-550.3"/>
<polygon fill="grey" stroke="grey" stroke-width="2" points="1429.02,-549.08 1423.06,-540.32 1422.25,-550.88 1429.02,-549.08"/>
</g>
</g>
</svg>
