<?xml version="1.0" encoding="UTF-8" standalone="no"?>
<!DOCTYPE svg PUBLIC "-//W3C//DTD SVG 1.1//EN"
 "http://www.w3.org/Graphics/SVG/1.1/DTD/svg11.dtd">
<!-- Generated by graphviz version 2.50.0 (0)
 -->
<!-- Title: snakemake_dag Pages: 1 -->
<svg width="885pt" height="404pt"
 viewBox="0.00 0.00 885.00 404.00" xmlns="http://www.w3.org/2000/svg" xmlns:xlink="http://www.w3.org/1999/xlink">
<g id="graph0" class="graph" transform="scale(1 1) rotate(0) translate(4 400)">
<title>snakemake_dag</title>
<polygon fill="white" stroke="transparent" points="-4,4 -4,-400 881,-400 881,4 -4,4"/>
<!-- 0 -->
<g id="node1" class="node">
<title>0</title>
<path fill="none" stroke="#56d892" stroke-width="2" d="M525.5,-36C525.5,-36 429.5,-36 429.5,-36 423.5,-36 417.5,-30 417.5,-24 417.5,-24 417.5,-12 417.5,-12 417.5,-6 423.5,0 429.5,0 429.5,0 525.5,0 525.5,0 531.5,0 537.5,-6 537.5,-12 537.5,-12 537.5,-24 537.5,-24 537.5,-30 531.5,-36 525.5,-36"/>
<text text-anchor="middle" x="477.5" y="-15.5" font-family="sans" font-size="10.00">run_all_summary_stats</text>
</g>
<!-- 1 -->
<g id="node2" class="node">
<title>1</title>
<path fill="none" stroke="#8fd856" stroke-width="2" d="M519,-108C519,-108 436,-108 436,-108 430,-108 424,-102 424,-96 424,-96 424,-84 424,-84 424,-78 430,-72 436,-72 436,-72 519,-72 519,-72 525,-72 531,-78 531,-84 531,-84 531,-96 531,-96 531,-102 525,-108 519,-108"/>
<text text-anchor="middle" x="477.5" y="-87.5" font-family="sans" font-size="10.00">convert_svg_to_png</text>
</g>
<!-- 1&#45;&gt;0 -->
<g id="edge1" class="edge">
<title>1&#45;&gt;0</title>
<path fill="none" stroke="grey" stroke-width="2" d="M477.5,-71.7C477.5,-63.98 477.5,-54.71 477.5,-46.11"/>
<polygon fill="grey" stroke="grey" stroke-width="2" points="481,-46.1 477.5,-36.1 474,-46.1 481,-46.1"/>
</g>
<!-- 2 -->
<g id="node3" class="node">
<title>2</title>
<path fill="none" stroke="#d89556" stroke-width="2" d="M693.5,-180C693.5,-180 663.5,-180 663.5,-180 657.5,-180 651.5,-174 651.5,-168 651.5,-168 651.5,-156 651.5,-156 651.5,-150 657.5,-144 663.5,-144 663.5,-144 693.5,-144 693.5,-144 699.5,-144 705.5,-150 705.5,-156 705.5,-156 705.5,-168 705.5,-168 705.5,-174 699.5,-180 693.5,-180"/>
<text text-anchor="middle" x="678.5" y="-159.5" font-family="sans" font-size="10.00">plot_pi</text>
</g>
<!-- 2&#45;&gt;1 -->
<g id="edge6" class="edge">
<title>2&#45;&gt;1</title>
<path fill="none" stroke="grey" stroke-width="2" d="M651.14,-147.63C648.25,-146.35 645.33,-145.12 642.5,-144 609.55,-130.99 572,-118.74 541.05,-109.29"/>
<polygon fill="grey" stroke="grey" stroke-width="2" points="541.84,-105.87 531.25,-106.33 539.81,-112.57 541.84,-105.87"/>
</g>
<!-- 3 -->
<g id="node4" class="node">
<title>3</title>
<path fill="none" stroke="#56d8a9" stroke-width="2" d="M561,-324C561,-324 516,-324 516,-324 510,-324 504,-318 504,-312 504,-312 504,-300 504,-300 504,-294 510,-288 516,-288 516,-288 561,-288 561,-288 567,-288 573,-294 573,-300 573,-300 573,-312 573,-312 573,-318 567,-324 561,-324"/>
<text text-anchor="middle" x="538.5" y="-303.5" font-family="sans" font-size="10.00">calculate_pi</text>
</g>
<!-- 3&#45;&gt;2 -->
<g id="edge11" class="edge">
<title>3&#45;&gt;2</title>
<path fill="none" stroke="grey" stroke-width="2" d="M549.01,-287.69C560.99,-268.8 581.87,-238.26 604.5,-216 615.94,-204.75 629.95,-194.08 642.69,-185.31"/>
<polygon fill="grey" stroke="grey" stroke-width="2" points="644.91,-188.03 651.26,-179.55 641.01,-182.22 644.91,-188.03"/>
</g>
<!-- 4 -->
<g id="node5" class="node">
<title>4</title>
<path fill="none" stroke="#59d856" stroke-width="2" d="M619,-396C619,-396 458,-396 458,-396 452,-396 446,-390 446,-384 446,-384 446,-372 446,-372 446,-366 452,-360 458,-360 458,-360 619,-360 619,-360 625,-360 631,-366 631,-372 631,-372 631,-384 631,-384 631,-390 625,-396 619,-396"/>
<text text-anchor="middle" x="538.5" y="-375.5" font-family="sans" font-size="10.00">resource_vcfs_feems_summary_stats</text>
</g>
<!-- 4&#45;&gt;3 -->
<g id="edge12" class="edge">
<title>4&#45;&gt;3</title>
<path fill="none" stroke="grey" stroke-width="2" d="M538.5,-359.7C538.5,-351.98 538.5,-342.71 538.5,-334.11"/>
<polygon fill="grey" stroke="grey" stroke-width="2" points="542,-334.1 538.5,-324.1 535,-334.1 542,-334.1"/>
</g>
<!-- 6 -->
<g id="node7" class="node">
<title>6</title>
<path fill="none" stroke="#80d856" stroke-width="2" d="M243.5,-324C243.5,-324 159.5,-324 159.5,-324 153.5,-324 147.5,-318 147.5,-312 147.5,-312 147.5,-300 147.5,-300 147.5,-294 153.5,-288 159.5,-288 159.5,-288 243.5,-288 243.5,-288 249.5,-288 255.5,-294 255.5,-300 255.5,-300 255.5,-312 255.5,-312 255.5,-318 249.5,-324 243.5,-324"/>
<text text-anchor="middle" x="201.5" y="-303.5" font-family="sans" font-size="10.00">calculate_Tajimas_D</text>
</g>
<!-- 4&#45;&gt;6 -->
<g id="edge14" class="edge">
<title>4&#45;&gt;6</title>
<path fill="none" stroke="grey" stroke-width="2" d="M456.49,-359.97C397.71,-347.76 319.65,-331.54 265.46,-320.28"/>
<polygon fill="grey" stroke="grey" stroke-width="2" points="266.13,-316.85 255.62,-318.24 264.7,-323.7 266.13,-316.85"/>
</g>
<!-- 8 -->
<g id="node9" class="node">
<title>8</title>
<path fill="none" stroke="#56d8b9" stroke-width="2" d="M797,-324C797,-324 746,-324 746,-324 740,-324 734,-318 734,-312 734,-312 734,-300 734,-300 734,-294 740,-288 746,-288 746,-288 797,-288 797,-288 803,-288 809,-294 809,-300 809,-300 809,-312 809,-312 809,-318 803,-324 797,-324"/>
<text text-anchor="middle" x="771.5" y="-303.5" font-family="sans" font-size="10.00">calculate_Fst</text>
</g>
<!-- 4&#45;&gt;8 -->
<g id="edge16" class="edge">
<title>4&#45;&gt;8</title>
<path fill="none" stroke="grey" stroke-width="2" d="M603.35,-359.95C637.11,-350.77 679.21,-338.84 724.27,-324.3"/>
<polygon fill="grey" stroke="grey" stroke-width="2" points="725.5,-327.58 733.93,-321.16 723.34,-320.92 725.5,-327.58"/>
</g>
<!-- 11 -->
<g id="node12" class="node">
<title>11</title>
<path fill="none" stroke="#566bd8" stroke-width="2" d="M704,-324C704,-324 603,-324 603,-324 597,-324 591,-318 591,-312 591,-312 591,-300 591,-300 591,-294 597,-288 603,-288 603,-288 704,-288 704,-288 710,-288 716,-294 716,-300 716,-300 716,-312 716,-312 716,-318 710,-324 704,-324"/>
<text text-anchor="middle" x="653.5" y="-303.5" font-family="sans" font-size="10.00">calculate_Fst_windowed</text>
</g>
<!-- 4&#45;&gt;11 -->
<g id="edge19" class="edge">
<title>4&#45;&gt;11</title>
<path fill="none" stroke="grey" stroke-width="2" d="M566.63,-359.88C581.67,-350.72 600.37,-339.34 616.56,-329.48"/>
<polygon fill="grey" stroke="grey" stroke-width="2" points="618.54,-332.38 625.26,-324.19 614.9,-326.4 618.54,-332.38"/>
</g>
<!-- 14 -->
<g id="node15" class="node">
<title>14</title>
<path fill="none" stroke="#d8bc56" stroke-width="2" d="M446.5,-324C446.5,-324 338.5,-324 338.5,-324 332.5,-324 326.5,-318 326.5,-312 326.5,-312 326.5,-300 326.5,-300 326.5,-294 332.5,-288 338.5,-288 338.5,-288 446.5,-288 446.5,-288 452.5,-288 458.5,-294 458.5,-300 458.5,-300 458.5,-312 458.5,-312 458.5,-318 452.5,-324 446.5,-324"/>
<text text-anchor="middle" x="392.5" y="-303.5" font-family="sans" font-size="10.00">convert_plink_sample_set</text>
</g>
<!-- 4&#45;&gt;14 -->
<g id="edge23" class="edge">
<title>4&#45;&gt;14</title>
<path fill="none" stroke="grey" stroke-width="2" d="M502.78,-359.88C483,-350.39 458.23,-338.51 437.17,-328.42"/>
<polygon fill="grey" stroke="grey" stroke-width="2" points="438.63,-325.24 428.1,-324.07 435.6,-331.55 438.63,-325.24"/>
</g>
<!-- 5 -->
<g id="node6" class="node">
<title>5</title>
<path fill="none" stroke="#56d8d0" stroke-width="2" d="M73,-252C73,-252 12,-252 12,-252 6,-252 0,-246 0,-240 0,-240 0,-228 0,-228 0,-222 6,-216 12,-216 12,-216 73,-216 73,-216 79,-216 85,-222 85,-228 85,-228 85,-240 85,-240 85,-246 79,-252 73,-252"/>
<text text-anchor="middle" x="42.5" y="-231.5" font-family="sans" font-size="10.00">plot_Tajimas_D</text>
</g>
<!-- 5&#45;&gt;1 -->
<g id="edge9" class="edge">
<title>5&#45;&gt;1</title>
<path fill="none" stroke="grey" stroke-width="2" d="M33.5,-215.97C24.42,-196.16 14.03,-163.67 31.5,-144 56.44,-115.92 296.51,-100.08 413.73,-93.97"/>
<polygon fill="grey" stroke="grey" stroke-width="2" points="414.19,-97.45 424,-93.44 413.83,-90.46 414.19,-97.45"/>
</g>
<!-- 6&#45;&gt;5 -->
<g id="edge13" class="edge">
<title>6&#45;&gt;5</title>
<path fill="none" stroke="grey" stroke-width="2" d="M162.6,-287.88C140.87,-278.31 113.6,-266.3 90.54,-256.15"/>
<polygon fill="grey" stroke="grey" stroke-width="2" points="91.83,-252.89 81.27,-252.07 89.01,-259.3 91.83,-252.89"/>
</g>
<!-- 7 -->
<g id="node8" class="node">
<title>7</title>
<path fill="none" stroke="#d8a456" stroke-width="2" d="M786.5,-252C786.5,-252 756.5,-252 756.5,-252 750.5,-252 744.5,-246 744.5,-240 744.5,-240 744.5,-228 744.5,-228 744.5,-222 750.5,-216 756.5,-216 756.5,-216 786.5,-216 786.5,-216 792.5,-216 798.5,-222 798.5,-228 798.5,-228 798.5,-240 798.5,-240 798.5,-246 792.5,-252 786.5,-252"/>
<text text-anchor="middle" x="771.5" y="-231.5" font-family="sans" font-size="10.00">plot_Fst</text>
</g>
<!-- 7&#45;&gt;1 -->
<g id="edge7" class="edge">
<title>7&#45;&gt;1</title>
<path fill="none" stroke="grey" stroke-width="2" d="M768.59,-215.72C764.22,-195.37 753.95,-162.04 731.5,-144 702.76,-120.89 606.87,-105.66 541.49,-97.69"/>
<polygon fill="grey" stroke="grey" stroke-width="2" points="541.62,-94.18 531.27,-96.47 540.79,-101.13 541.62,-94.18"/>
</g>
<!-- 8&#45;&gt;7 -->
<g id="edge15" class="edge">
<title>8&#45;&gt;7</title>
<path fill="none" stroke="grey" stroke-width="2" d="M771.5,-287.7C771.5,-279.98 771.5,-270.71 771.5,-262.11"/>
<polygon fill="grey" stroke="grey" stroke-width="2" points="775,-262.1 771.5,-252.1 768,-262.1 775,-262.1"/>
</g>
<!-- 9 -->
<g id="node10" class="node">
<title>9</title>
<path fill="none" stroke="#68d856" stroke-width="2" d="M865,-396C865,-396 666,-396 666,-396 660,-396 654,-390 654,-384 654,-384 654,-372 654,-372 654,-366 660,-360 666,-360 666,-360 865,-360 865,-360 871,-360 877,-366 877,-372 877,-372 877,-384 877,-384 877,-390 871,-396 865,-396"/>
<text text-anchor="middle" x="765.5" y="-375.5" font-family="sans" font-size="10.00">resource_sample_sets_feems_summary_stats</text>
</g>
<!-- 9&#45;&gt;8 -->
<g id="edge17" class="edge">
<title>9&#45;&gt;8</title>
<path fill="none" stroke="grey" stroke-width="2" d="M766.98,-359.7C767.64,-351.98 768.44,-342.71 769.18,-334.11"/>
<polygon fill="grey" stroke="grey" stroke-width="2" points="772.67,-334.37 770.03,-324.1 765.69,-333.77 772.67,-334.37"/>
</g>
<!-- 9&#45;&gt;11 -->
<g id="edge20" class="edge">
<title>9&#45;&gt;11</title>
<path fill="none" stroke="grey" stroke-width="2" d="M738.1,-359.88C723.59,-350.81 705.58,-339.55 689.91,-329.76"/>
<polygon fill="grey" stroke="grey" stroke-width="2" points="691.34,-326.52 681,-324.19 687.63,-332.46 691.34,-326.52"/>
</g>
<!-- 10 -->
<g id="node11" class="node">
<title>10</title>
<path fill="none" stroke="#56d86b" stroke-width="2" d="M703.5,-252C703.5,-252 625.5,-252 625.5,-252 619.5,-252 613.5,-246 613.5,-240 613.5,-240 613.5,-228 613.5,-228 613.5,-222 619.5,-216 625.5,-216 625.5,-216 703.5,-216 703.5,-216 709.5,-216 715.5,-222 715.5,-228 715.5,-228 715.5,-240 715.5,-240 715.5,-246 709.5,-252 703.5,-252"/>
<text text-anchor="middle" x="664.5" y="-231.5" font-family="sans" font-size="10.00">plot_Fst_windowed</text>
</g>
<!-- 10&#45;&gt;1 -->
<g id="edge4" class="edge">
<title>10&#45;&gt;1</title>
<path fill="none" stroke="grey" stroke-width="2" d="M685.89,-215.91C706.73,-197.2 732.78,-166.82 714.5,-144 693.15,-117.35 603.93,-103.21 541.28,-96.41"/>
<polygon fill="grey" stroke="grey" stroke-width="2" points="541.39,-92.9 531.08,-95.34 540.66,-99.87 541.39,-92.9"/>
</g>
<!-- 11&#45;&gt;10 -->
<g id="edge18" class="edge">
<title>11&#45;&gt;10</title>
<path fill="none" stroke="grey" stroke-width="2" d="M656.22,-287.7C657.43,-279.98 658.89,-270.71 660.24,-262.11"/>
<polygon fill="grey" stroke="grey" stroke-width="2" points="663.72,-262.53 661.81,-252.1 656.8,-261.44 663.72,-262.53"/>
</g>
<!-- 12 -->
<g id="node13" class="node">
<title>12</title>
<path fill="none" stroke="#d86e56" stroke-width="2" d="M413,-180C413,-180 318,-180 318,-180 312,-180 306,-174 306,-168 306,-168 306,-156 306,-156 306,-150 312,-144 318,-144 318,-144 413,-144 413,-144 419,-144 425,-150 425,-156 425,-156 425,-168 425,-168 425,-174 419,-180 413,-180"/>
<text text-anchor="middle" x="365.5" y="-159.5" font-family="sans" font-size="10.00">plot_missingness_sites</text>
</g>
<!-- 12&#45;&gt;1 -->
<g id="edge5" class="edge">
<title>12&#45;&gt;1</title>
<path fill="none" stroke="grey" stroke-width="2" d="M392.9,-143.88C407.41,-134.81 425.42,-123.55 441.09,-113.76"/>
<polygon fill="grey" stroke="grey" stroke-width="2" points="443.37,-116.46 450,-108.19 439.66,-110.52 443.37,-116.46"/>
</g>
<!-- 13 -->
<g id="node14" class="node">
<title>13</title>
<path fill="none" stroke="#a7d856" stroke-width="2" d="M407,-252C407,-252 314,-252 314,-252 308,-252 302,-246 302,-240 302,-240 302,-228 302,-228 302,-222 308,-216 314,-216 314,-216 407,-216 407,-216 413,-216 419,-222 419,-228 419,-228 419,-240 419,-240 419,-246 413,-252 407,-252"/>
<text text-anchor="middle" x="360.5" y="-231.5" font-family="sans" font-size="10.00">calculate_missingness</text>
</g>
<!-- 13&#45;&gt;12 -->
<g id="edge21" class="edge">
<title>13&#45;&gt;12</title>
<path fill="none" stroke="grey" stroke-width="2" d="M361.74,-215.7C362.29,-207.98 362.95,-198.71 363.56,-190.11"/>
<polygon fill="grey" stroke="grey" stroke-width="2" points="367.06,-190.33 364.28,-180.1 360.07,-189.83 367.06,-190.33"/>
</g>
<!-- 15 -->
<g id="node16" class="node">
<title>15</title>
<path fill="none" stroke="#56a9d8" stroke-width="2" d="M276,-180C276,-180 155,-180 155,-180 149,-180 143,-174 143,-168 143,-168 143,-156 143,-156 143,-150 149,-144 155,-144 155,-144 276,-144 276,-144 282,-144 288,-150 288,-156 288,-156 288,-168 288,-168 288,-174 282,-180 276,-180"/>
<text text-anchor="middle" x="215.5" y="-159.5" font-family="sans" font-size="10.00">plot_missingness_individuals</text>
</g>
<!-- 13&#45;&gt;15 -->
<g id="edge24" class="edge">
<title>13&#45;&gt;15</title>
<path fill="none" stroke="grey" stroke-width="2" d="M325.03,-215.88C305.38,-206.39 280.78,-194.51 259.87,-184.42"/>
<polygon fill="grey" stroke="grey" stroke-width="2" points="261.38,-181.26 250.86,-180.07 258.34,-187.57 261.38,-181.26"/>
</g>
<!-- 14&#45;&gt;13 -->
<g id="edge22" class="edge">
<title>14&#45;&gt;13</title>
<path fill="none" stroke="grey" stroke-width="2" d="M384.59,-287.7C380.95,-279.73 376.55,-270.1 372.51,-261.26"/>
<polygon fill="grey" stroke="grey" stroke-width="2" points="375.66,-259.74 368.32,-252.1 369.29,-262.65 375.66,-259.74"/>
</g>
<!-- 17 -->
<g id="node18" class="node">
<title>17</title>
<path fill="none" stroke="#d85656" stroke-width="2" d="M516,-252C516,-252 449,-252 449,-252 443,-252 437,-246 437,-240 437,-240 437,-228 437,-228 437,-222 443,-216 449,-216 449,-216 516,-216 516,-216 522,-216 528,-222 528,-228 528,-228 528,-240 528,-240 528,-246 522,-252 516,-252"/>
<text text-anchor="middle" x="482.5" y="-231.5" font-family="sans" font-size="10.00">calculate_hwe_p</text>
</g>
<!-- 14&#45;&gt;17 -->
<g id="edge26" class="edge">
<title>14&#45;&gt;17</title>
<path fill="none" stroke="grey" stroke-width="2" d="M414.75,-287.7C426.08,-278.88 440.03,-268.03 452.32,-258.47"/>
<polygon fill="grey" stroke="grey" stroke-width="2" points="454.76,-261.01 460.51,-252.1 450.47,-255.48 454.76,-261.01"/>
</g>
<!-- 19 -->
<g id="node20" class="node">
<title>19</title>
<path fill="none" stroke="#d87d56" stroke-width="2" d="M247,-252C247,-252 164,-252 164,-252 158,-252 152,-246 152,-240 152,-240 152,-228 152,-228 152,-222 158,-216 164,-216 164,-216 247,-216 247,-216 253,-216 259,-222 259,-228 259,-228 259,-240 259,-240 259,-246 253,-252 247,-252"/>
<text text-anchor="middle" x="205.5" y="-231.5" font-family="sans" font-size="10.00">calculate_hwe_midp</text>
</g>
<!-- 14&#45;&gt;19 -->
<g id="edge28" class="edge">
<title>14&#45;&gt;19</title>
<path fill="none" stroke="grey" stroke-width="2" d="M346.75,-287.88C320.74,-278.14 287.97,-265.87 260.55,-255.61"/>
<polygon fill="grey" stroke="grey" stroke-width="2" points="261.69,-252.3 251.1,-252.07 259.24,-258.85 261.69,-252.3"/>
</g>
<!-- 15&#45;&gt;1 -->
<g id="edge10" class="edge">
<title>15&#45;&gt;1</title>
<path fill="none" stroke="grey" stroke-width="2" d="M279.26,-143.97C320.12,-133.05 372.95,-118.93 413.8,-108.02"/>
<polygon fill="grey" stroke="grey" stroke-width="2" points="414.89,-111.35 423.65,-105.39 413.08,-104.59 414.89,-111.35"/>
</g>
<!-- 16 -->
<g id="node17" class="node">
<title>16</title>
<path fill="none" stroke="#56b9d8" stroke-width="2" d="M499.5,-180C499.5,-180 455.5,-180 455.5,-180 449.5,-180 443.5,-174 443.5,-168 443.5,-168 443.5,-156 443.5,-156 443.5,-150 449.5,-144 455.5,-144 455.5,-144 499.5,-144 499.5,-144 505.5,-144 511.5,-150 511.5,-156 511.5,-156 511.5,-168 511.5,-168 511.5,-174 505.5,-180 499.5,-180"/>
<text text-anchor="middle" x="477.5" y="-159.5" font-family="sans" font-size="10.00">plot_hwe_p</text>
</g>
<!-- 16&#45;&gt;1 -->
<g id="edge8" class="edge">
<title>16&#45;&gt;1</title>
<path fill="none" stroke="grey" stroke-width="2" d="M477.5,-143.7C477.5,-135.98 477.5,-126.71 477.5,-118.11"/>
<polygon fill="grey" stroke="grey" stroke-width="2" points="481,-118.1 477.5,-108.1 474,-118.1 481,-118.1"/>
</g>
<!-- 17&#45;&gt;16 -->
<g id="edge25" class="edge">
<title>17&#45;&gt;16</title>
<path fill="none" stroke="grey" stroke-width="2" d="M481.26,-215.7C480.71,-207.98 480.05,-198.71 479.44,-190.11"/>
<polygon fill="grey" stroke="grey" stroke-width="2" points="482.93,-189.83 478.72,-180.1 475.94,-190.33 482.93,-189.83"/>
</g>
<!-- 20 -->
<g id="node21" class="node">
<title>20</title>
<path fill="none" stroke="#b6d856" stroke-width="2" d="M621,-180C621,-180 542,-180 542,-180 536,-180 530,-174 530,-168 530,-168 530,-156 530,-156 530,-150 536,-144 542,-144 542,-144 621,-144 621,-144 627,-144 633,-150 633,-156 633,-156 633,-168 633,-168 633,-174 627,-180 621,-180"/>
<text text-anchor="middle" x="581.5" y="-159.5" font-family="sans" font-size="10.00">plot_heterozygosity</text>
</g>
<!-- 17&#45;&gt;20 -->
<g id="edge29" class="edge">
<title>17&#45;&gt;20</title>
<path fill="none" stroke="grey" stroke-width="2" d="M506.72,-215.88C519.42,-206.89 535.16,-195.76 548.92,-186.03"/>
<polygon fill="grey" stroke="grey" stroke-width="2" points="551.04,-188.82 557.19,-180.19 547,-183.11 551.04,-188.82"/>
</g>
<!-- 18 -->
<g id="node19" class="node">
<title>18</title>
<path fill="none" stroke="#5692d8" stroke-width="2" d="M112.5,-180C112.5,-180 52.5,-180 52.5,-180 46.5,-180 40.5,-174 40.5,-168 40.5,-168 40.5,-156 40.5,-156 40.5,-150 46.5,-144 52.5,-144 52.5,-144 112.5,-144 112.5,-144 118.5,-144 124.5,-150 124.5,-156 124.5,-156 124.5,-168 124.5,-168 124.5,-174 118.5,-180 112.5,-180"/>
<text text-anchor="middle" x="82.5" y="-159.5" font-family="sans" font-size="10.00">plot_hwe_midp</text>
</g>
<!-- 18&#45;&gt;1 -->
<g id="edge3" class="edge">
<title>18&#45;&gt;1</title>
<path fill="none" stroke="grey" stroke-width="2" d="M124.64,-146.34C127.62,-145.49 130.6,-144.7 133.5,-144 229.87,-120.69 344.02,-105.49 413.57,-97.58"/>
<polygon fill="grey" stroke="grey" stroke-width="2" points="414.37,-101.01 423.92,-96.42 413.59,-94.05 414.37,-101.01"/>
</g>
<!-- 19&#45;&gt;18 -->
<g id="edge27" class="edge">
<title>19&#45;&gt;18</title>
<path fill="none" stroke="grey" stroke-width="2" d="M175.41,-215.88C159.18,-206.64 138.96,-195.13 121.53,-185.21"/>
<polygon fill="grey" stroke="grey" stroke-width="2" points="123.13,-182.09 112.7,-180.19 119.66,-188.18 123.13,-182.09"/>
</g>
<!-- 20&#45;&gt;1 -->
<g id="edge2" class="edge">
<title>20&#45;&gt;1</title>
<path fill="none" stroke="grey" stroke-width="2" d="M556.06,-143.88C542.71,-134.89 526.18,-123.76 511.72,-114.03"/>
<polygon fill="grey" stroke="grey" stroke-width="2" points="513.29,-110.87 503.04,-108.19 509.38,-116.68 513.29,-110.87"/>
</g>
</g>
</svg>
