<?xml version="1.0" encoding="UTF-8" standalone="no"?>
<!DOCTYPE svg PUBLIC "-//W3C//DTD SVG 1.1//EN"
 "http://www.w3.org/Graphics/SVG/1.1/DTD/svg11.dtd">
<!-- Generated by graphviz version 2.50.0 (0)
 -->
<!-- Title: snakemake_dag Pages: 1 -->
<svg width="306pt" height="332pt"
 viewBox="0.00 0.00 306.00 332.00" xmlns="http://www.w3.org/2000/svg" xmlns:xlink="http://www.w3.org/1999/xlink">
<g id="graph0" class="graph" transform="scale(1 1) rotate(0) translate(4 328)">
<title>snakemake_dag</title>
<polygon fill="white" stroke="transparent" points="-4,4 -4,-328 302,-328 302,4 -4,4"/>
<!-- 0 -->
<g id="node1" class="node">
<title>0</title>
<path fill="none" stroke="#56d8c1" stroke-width="2" d="M163,-36C163,-36 125,-36 125,-36 119,-36 113,-30 113,-24 113,-24 113,-12 113,-12 113,-6 119,0 125,0 125,0 163,0 163,0 169,0 175,-6 175,-12 175,-12 175,-24 175,-24 175,-30 169,-36 163,-36"/>
<text text-anchor="middle" x="144" y="-15.5" font-family="sans" font-size="10.00">run_umap</text>
</g>
<!-- 1 -->
<g id="node2" class="node">
<title>1</title>
<path fill="none" stroke="#56c1d8" stroke-width="2" d="M185.5,-108C185.5,-108 102.5,-108 102.5,-108 96.5,-108 90.5,-102 90.5,-96 90.5,-96 90.5,-84 90.5,-84 90.5,-78 96.5,-72 102.5,-72 102.5,-72 185.5,-72 185.5,-72 191.5,-72 197.5,-78 197.5,-84 197.5,-84 197.5,-96 197.5,-96 197.5,-102 191.5,-108 185.5,-108"/>
<text text-anchor="middle" x="144" y="-87.5" font-family="sans" font-size="10.00">convert_svg_to_png</text>
</g>
<!-- 1&#45;&gt;0 -->
<g id="edge1" class="edge">
<title>1&#45;&gt;0</title>
<path fill="none" stroke="grey" stroke-width="2" d="M144,-71.7C144,-63.98 144,-54.71 144,-46.11"/>
<polygon fill="grey" stroke="grey" stroke-width="2" points="147.5,-46.1 144,-36.1 140.5,-46.1 147.5,-46.1"/>
</g>
<!-- 2 -->
<g id="node3" class="node">
<title>2</title>
<path fill="none" stroke="#59d856" stroke-width="2" d="M113.5,-180C113.5,-180 74.5,-180 74.5,-180 68.5,-180 62.5,-174 62.5,-168 62.5,-168 62.5,-156 62.5,-156 62.5,-150 68.5,-144 74.5,-144 74.5,-144 113.5,-144 113.5,-144 119.5,-144 125.5,-150 125.5,-156 125.5,-156 125.5,-168 125.5,-168 125.5,-174 119.5,-180 113.5,-180"/>
<text text-anchor="middle" x="94" y="-159.5" font-family="sans" font-size="10.00">plot_umap</text>
</g>
<!-- 2&#45;&gt;1 -->
<g id="edge3" class="edge">
<title>2&#45;&gt;1</title>
<path fill="none" stroke="grey" stroke-width="2" d="M106.36,-143.7C112.23,-135.47 119.37,-125.48 125.84,-116.42"/>
<polygon fill="grey" stroke="grey" stroke-width="2" points="128.82,-118.28 131.78,-108.1 123.12,-114.21 128.82,-118.28"/>
</g>
<!-- 3 -->
<g id="node4" class="node">
<title>3</title>
<path fill="none" stroke="#88d856" stroke-width="2" d="M120,-252C120,-252 12,-252 12,-252 6,-252 0,-246 0,-240 0,-240 0,-228 0,-228 0,-222 6,-216 12,-216 12,-216 120,-216 120,-216 126,-216 132,-222 132,-228 132,-228 132,-240 132,-240 132,-246 126,-252 120,-252"/>
<text text-anchor="middle" x="66" y="-231.5" font-family="sans" font-size="10.00">convert_plink_sample_set</text>
</g>
<!-- 3&#45;&gt;2 -->
<g id="edge4" class="edge">
<title>3&#45;&gt;2</title>
<path fill="none" stroke="grey" stroke-width="2" d="M72.92,-215.7C76.07,-207.81 79.88,-198.3 83.38,-189.55"/>
<polygon fill="grey" stroke="grey" stroke-width="2" points="86.69,-190.69 87.16,-180.1 80.19,-188.09 86.69,-190.69"/>
</g>
<!-- 6 -->
<g id="node7" class="node">
<title>6</title>
<path fill="none" stroke="#d8bc56" stroke-width="2" d="M234,-180C234,-180 156,-180 156,-180 150,-180 144,-174 144,-168 144,-168 144,-156 144,-156 144,-150 150,-144 156,-144 156,-144 234,-144 234,-144 240,-144 246,-150 246,-156 246,-156 246,-168 246,-168 246,-174 240,-180 234,-180"/>
<text text-anchor="middle" x="195" y="-159.5" font-family="sans" font-size="10.00">plot_umap_marked</text>
</g>
<!-- 3&#45;&gt;6 -->
<g id="edge7" class="edge">
<title>3&#45;&gt;6</title>
<path fill="none" stroke="grey" stroke-width="2" d="M97.56,-215.88C114.66,-206.6 135.98,-195.03 154.32,-185.08"/>
<polygon fill="grey" stroke="grey" stroke-width="2" points="156.2,-188.04 163.32,-180.19 152.86,-181.88 156.2,-188.04"/>
</g>
<!-- 4 -->
<g id="node5" class="node">
<title>4</title>
<path fill="none" stroke="#568ad8" stroke-width="2" d="M108.5,-324C108.5,-324 23.5,-324 23.5,-324 17.5,-324 11.5,-318 11.5,-312 11.5,-312 11.5,-300 11.5,-300 11.5,-294 17.5,-288 23.5,-288 23.5,-288 108.5,-288 108.5,-288 114.5,-288 120.5,-294 120.5,-300 120.5,-300 120.5,-312 120.5,-312 120.5,-318 114.5,-324 108.5,-324"/>
<text text-anchor="middle" x="66" y="-303.5" font-family="sans" font-size="10.00">resource_vcfs_umap</text>
</g>
<!-- 4&#45;&gt;3 -->
<g id="edge6" class="edge">
<title>4&#45;&gt;3</title>
<path fill="none" stroke="grey" stroke-width="2" d="M66,-287.7C66,-279.98 66,-270.71 66,-262.11"/>
<polygon fill="grey" stroke="grey" stroke-width="2" points="69.5,-262.1 66,-252.1 62.5,-262.1 69.5,-262.1"/>
</g>
<!-- 5 -->
<g id="node6" class="node">
<title>5</title>
<path fill="none" stroke="#bed856" stroke-width="2" d="M286,-252C286,-252 162,-252 162,-252 156,-252 150,-246 150,-240 150,-240 150,-228 150,-228 150,-222 156,-216 162,-216 162,-216 286,-216 286,-216 292,-216 298,-222 298,-228 298,-228 298,-240 298,-240 298,-246 292,-252 286,-252"/>
<text text-anchor="middle" x="224" y="-231.5" font-family="sans" font-size="10.00">resource_sample_sets_umap</text>
</g>
<!-- 5&#45;&gt;2 -->
<g id="edge5" class="edge">
<title>5&#45;&gt;2</title>
<path fill="none" stroke="grey" stroke-width="2" d="M192.2,-215.88C174.89,-206.55 153.28,-194.92 134.74,-184.94"/>
<polygon fill="grey" stroke="grey" stroke-width="2" points="136.39,-181.85 125.92,-180.19 133.07,-188.01 136.39,-181.85"/>
</g>
<!-- 5&#45;&gt;6 -->
<g id="edge8" class="edge">
<title>5&#45;&gt;6</title>
<path fill="none" stroke="grey" stroke-width="2" d="M216.83,-215.7C213.57,-207.81 209.63,-198.3 206,-189.55"/>
<polygon fill="grey" stroke="grey" stroke-width="2" points="209.15,-188 202.09,-180.1 202.68,-190.68 209.15,-188"/>
</g>
<!-- 6&#45;&gt;1 -->
<g id="edge2" class="edge">
<title>6&#45;&gt;1</title>
<path fill="none" stroke="grey" stroke-width="2" d="M182.39,-143.7C176.4,-135.47 169.12,-125.48 162.52,-116.42"/>
<polygon fill="grey" stroke="grey" stroke-width="2" points="165.18,-114.13 156.46,-108.1 159.52,-118.25 165.18,-114.13"/>
</g>
</g>
</svg>
