<?xml version="1.0" encoding="UTF-8" standalone="no"?>
<!DOCTYPE svg PUBLIC "-//W3C//DTD SVG 1.1//EN"
 "http://www.w3.org/Graphics/SVG/1.1/DTD/svg11.dtd">
<!-- Generated by graphviz version 2.50.0 (0)
 -->
<!-- Title: snakemake_dag Pages: 1 -->
<svg width="3123pt" height="764pt"
 viewBox="0.00 0.00 3123.46 764.00" xmlns="http://www.w3.org/2000/svg" xmlns:xlink="http://www.w3.org/1999/xlink">
<g id="graph0" class="graph" transform="scale(1 1) rotate(0) translate(4 760)">
<title>snakemake_dag</title>
<polygon fill="white" stroke="transparent" points="-4,4 -4,-760 3119.46,-760 3119.46,4 -4,4"/>
<!-- 0 -->
<g id="node1" class="node">
<title>0</title>
<path fill="none" stroke="#d89c56" stroke-width="2" d="M774.96,-36C774.96,-36 695.96,-36 695.96,-36 689.96,-36 683.96,-30 683.96,-24 683.96,-24 683.96,-12 683.96,-12 683.96,-6 689.96,0 695.96,0 695.96,0 774.96,0 774.96,0 780.96,0 786.96,-6 786.96,-12 786.96,-12 786.96,-24 786.96,-24 786.96,-30 780.96,-36 774.96,-36"/>
<text text-anchor="middle" x="735.46" y="-15.5" font-family="sans" font-size="10.00">run_all_vcf_filtering</text>
</g>
<!-- 1 -->
<g id="node2" class="node">
<title>1</title>
<path fill="none" stroke="#78d856" stroke-width="2" d="M1755.96,-612C1755.96,-612 1648.96,-612 1648.96,-612 1642.96,-612 1636.96,-606 1636.96,-600 1636.96,-600 1636.96,-588 1636.96,-588 1636.96,-582 1642.96,-576 1648.96,-576 1648.96,-576 1755.96,-576 1755.96,-576 1761.96,-576 1767.96,-582 1767.96,-588 1767.96,-588 1767.96,-600 1767.96,-600 1767.96,-606 1761.96,-612 1755.96,-612"/>
<text text-anchor="middle" x="1702.46" y="-591.5" font-family="sans" font-size="10.00">generate_vcf_sample_set</text>
</g>
<!-- 1&#45;&gt;0 -->
<g id="edge6" class="edge">
<title>1&#45;&gt;0</title>
<path fill="none" stroke="grey" stroke-width="2" d="M1768.28,-592.05C1983.04,-588.63 2654.76,-575.19 2745.46,-540 2944.14,-462.92 3115.46,-448.11 3115.46,-235 3115.46,-235 3115.46,-235 3115.46,-161 3115.46,-41.27 1170.96,-21.97 797.19,-19.37"/>
<polygon fill="grey" stroke="grey" stroke-width="2" points="797.13,-15.86 787.1,-19.3 797.08,-22.86 797.13,-15.86"/>
</g>
<!-- 6 -->
<g id="node7" class="node">
<title>6</title>
<path fill="none" stroke="#5663d8" stroke-width="2" d="M1361.96,-540C1361.96,-540 1216.96,-540 1216.96,-540 1210.96,-540 1204.96,-534 1204.96,-528 1204.96,-528 1204.96,-516 1204.96,-516 1204.96,-510 1210.96,-504 1216.96,-504 1216.96,-504 1361.96,-504 1361.96,-504 1367.96,-504 1373.96,-510 1373.96,-516 1373.96,-516 1373.96,-528 1373.96,-528 1373.96,-534 1367.96,-540 1361.96,-540"/>
<text text-anchor="middle" x="1289.46" y="-519.5" font-family="sans" font-size="10.00">generate_vcf_sample_set_biallelic</text>
</g>
<!-- 1&#45;&gt;6 -->
<g id="edge38" class="edge">
<title>1&#45;&gt;6</title>
<path fill="none" stroke="grey" stroke-width="2" d="M1636.9,-581.99C1573.37,-571.31 1474.3,-554.61 1388.46,-540 1386.98,-539.75 1385.49,-539.49 1383.99,-539.24"/>
<polygon fill="grey" stroke="grey" stroke-width="2" points="1384.42,-535.76 1373.98,-537.53 1383.25,-542.66 1384.42,-535.76"/>
</g>
<!-- 7 -->
<g id="node8" class="node">
<title>7</title>
<path fill="none" stroke="#d8cb56" stroke-width="2" d="M2493.96,-180C2493.96,-180 2330.96,-180 2330.96,-180 2324.96,-180 2318.96,-174 2318.96,-168 2318.96,-168 2318.96,-156 2318.96,-156 2318.96,-150 2324.96,-144 2330.96,-144 2330.96,-144 2493.96,-144 2493.96,-144 2499.96,-144 2505.96,-150 2505.96,-156 2505.96,-156 2505.96,-168 2505.96,-168 2505.96,-174 2499.96,-180 2493.96,-180"/>
<text text-anchor="middle" x="2412.46" y="-159.5" font-family="sans" font-size="10.00">generate_vcf_sample_set_no_missing</text>
</g>
<!-- 1&#45;&gt;7 -->
<g id="edge51" class="edge">
<title>1&#45;&gt;7</title>
<path fill="none" stroke="grey" stroke-width="2" d="M1768.07,-593.35C1906.44,-593.14 2223.23,-587.31 2318.46,-540 2472.89,-463.27 2516.55,-412.95 2578.46,-252 2584.2,-237.07 2587.9,-228.92 2578.46,-216 2568.92,-202.94 2538.38,-191.54 2506.05,-182.7"/>
<polygon fill="grey" stroke="grey" stroke-width="2" points="2506.55,-179.21 2495.99,-180.03 2504.76,-185.97 2506.55,-179.21"/>
</g>
<!-- 12 -->
<g id="node13" class="node">
<title>12</title>
<path fill="none" stroke="#56d8c9" stroke-width="2" d="M3068.96,-180C3068.96,-180 3003.96,-180 3003.96,-180 2997.96,-180 2991.96,-174 2991.96,-168 2991.96,-168 2991.96,-156 2991.96,-156 2991.96,-150 2997.96,-144 3003.96,-144 3003.96,-144 3068.96,-144 3068.96,-144 3074.96,-144 3080.96,-150 3080.96,-156 3080.96,-156 3080.96,-168 3080.96,-168 3080.96,-174 3074.96,-180 3068.96,-180"/>
<text text-anchor="middle" x="3036.46" y="-159.5" font-family="sans" font-size="10.00">filter_nfold_sites</text>
</g>
<!-- 1&#45;&gt;12 -->
<g id="edge87" class="edge">
<title>1&#45;&gt;12</title>
<path fill="none" stroke="grey" stroke-width="2" d="M1768.28,-592.66C1979,-591.13 2628.02,-582.95 2711.46,-540 2766.01,-511.92 2756.59,-477.77 2797.46,-432 2872.82,-347.61 2905.84,-339.59 2977.46,-252 2993.92,-231.87 3010.06,-207.07 3021.28,-188.77"/>
<polygon fill="grey" stroke="grey" stroke-width="2" points="3024.35,-190.47 3026.53,-180.1 3018.36,-186.84 3024.35,-190.47"/>
</g>
<!-- 28 -->
<g id="node29" class="node">
<title>28</title>
<path fill="none" stroke="#c6d856" stroke-width="2" d="M96.46,-180C96.46,-180 30.46,-180 30.46,-180 24.46,-180 18.46,-174 18.46,-168 18.46,-168 18.46,-156 18.46,-156 18.46,-150 24.46,-144 30.46,-144 30.46,-144 96.46,-144 96.46,-144 102.46,-144 108.46,-150 108.46,-156 108.46,-156 108.46,-168 108.46,-168 108.46,-174 102.46,-180 96.46,-180"/>
<text text-anchor="middle" x="63.46" y="-159.5" font-family="sans" font-size="10.00">plot_degeneracy</text>
</g>
<!-- 1&#45;&gt;28 -->
<g id="edge104" class="edge">
<title>1&#45;&gt;28</title>
<path fill="none" stroke="grey" stroke-width="2" d="M1636.8,-590.63C1515.52,-585.65 1248.38,-571.79 1025.46,-540 561.66,-473.86 286.68,-631.13 11.46,-252 -3.76,-231.03 14.86,-205.32 33.92,-186.93"/>
<polygon fill="grey" stroke="grey" stroke-width="2" points="36.45,-189.36 41.46,-180.02 31.72,-184.2 36.45,-189.36"/>
</g>
<!-- 29 -->
<g id="node30" class="node">
<title>29</title>
<path fill="none" stroke="#d85656" stroke-width="2" d="M1134.96,-108C1134.96,-108 1089.96,-108 1089.96,-108 1083.96,-108 1077.96,-102 1077.96,-96 1077.96,-96 1077.96,-84 1077.96,-84 1077.96,-78 1083.96,-72 1089.96,-72 1089.96,-72 1134.96,-72 1134.96,-72 1140.96,-72 1146.96,-78 1146.96,-84 1146.96,-84 1146.96,-96 1146.96,-96 1146.96,-102 1140.96,-108 1134.96,-108"/>
<text text-anchor="middle" x="1112.46" y="-87.5" font-family="sans" font-size="10.00">plot_sfs_1D</text>
</g>
<!-- 1&#45;&gt;29 -->
<g id="edge107" class="edge">
<title>1&#45;&gt;29</title>
<path fill="none" stroke="grey" stroke-width="2" d="M1768.18,-590.37C1912.54,-584.17 2253.36,-567.09 2365.46,-540 2527.36,-500.88 2572.1,-487.24 2711.46,-396 2794.24,-341.8 2897.69,-298.09 2842.46,-216 2795.05,-145.54 2748.51,-161.72 2665.46,-144 2514.76,-111.84 1396.02,-94.87 1157.22,-91.59"/>
<polygon fill="grey" stroke="grey" stroke-width="2" points="1157.21,-88.09 1147.16,-91.45 1157.11,-95.09 1157.21,-88.09"/>
</g>
<!-- 31 -->
<g id="node32" class="node">
<title>31</title>
<path fill="none" stroke="#56d8a2" stroke-width="2" d="M929.96,-108C929.96,-108 884.96,-108 884.96,-108 878.96,-108 872.96,-102 872.96,-96 872.96,-96 872.96,-84 872.96,-84 872.96,-78 878.96,-72 884.96,-72 884.96,-72 929.96,-72 929.96,-72 935.96,-72 941.96,-78 941.96,-84 941.96,-84 941.96,-96 941.96,-96 941.96,-102 935.96,-108 929.96,-108"/>
<text text-anchor="middle" x="907.46" y="-87.5" font-family="sans" font-size="10.00">plot_sfs_2D</text>
</g>
<!-- 1&#45;&gt;31 -->
<g id="edge130" class="edge">
<title>1&#45;&gt;31</title>
<path fill="none" stroke="grey" stroke-width="2" d="M1636.7,-589.07C1508.21,-580.96 1233.02,-561.34 1195.46,-540 1108.62,-490.67 967.73,-270.94 926.46,-180 917.55,-160.37 912.74,-136.38 910.19,-118.25"/>
<polygon fill="grey" stroke="grey" stroke-width="2" points="913.63,-117.56 908.91,-108.08 906.69,-118.44 913.63,-117.56"/>
</g>
<!-- 2 -->
<g id="node3" class="node">
<title>2</title>
<path fill="none" stroke="#8fd856" stroke-width="2" d="M1570.96,-684C1570.96,-684 1499.96,-684 1499.96,-684 1493.96,-684 1487.96,-678 1487.96,-672 1487.96,-672 1487.96,-660 1487.96,-660 1487.96,-654 1493.96,-648 1499.96,-648 1499.96,-648 1570.96,-648 1570.96,-648 1576.96,-648 1582.96,-654 1582.96,-660 1582.96,-660 1582.96,-672 1582.96,-672 1582.96,-678 1576.96,-684 1570.96,-684"/>
<text text-anchor="middle" x="1535.46" y="-663.5" font-family="sans" font-size="10.00">resource_raw_vcf</text>
</g>
<!-- 2&#45;&gt;1 -->
<g id="edge23" class="edge">
<title>2&#45;&gt;1</title>
<path fill="none" stroke="grey" stroke-width="2" d="M1576.31,-647.88C1599.24,-638.26 1628.04,-626.19 1652.33,-616.01"/>
<polygon fill="grey" stroke="grey" stroke-width="2" points="1653.87,-619.16 1661.74,-612.07 1651.16,-612.71 1653.87,-619.16"/>
</g>
<!-- 3 -->
<g id="node4" class="node">
<title>3</title>
<path fill="none" stroke="#56d87b" stroke-width="2" d="M1265.96,-684C1265.96,-684 1172.96,-684 1172.96,-684 1166.96,-684 1160.96,-678 1160.96,-672 1160.96,-672 1160.96,-660 1160.96,-660 1160.96,-654 1166.96,-648 1172.96,-648 1172.96,-648 1265.96,-648 1265.96,-648 1271.96,-648 1277.96,-654 1277.96,-660 1277.96,-660 1277.96,-672 1277.96,-672 1277.96,-678 1271.96,-684 1265.96,-684"/>
<text text-anchor="middle" x="1219.46" y="-663.5" font-family="sans" font-size="10.00">create_sample_set_all</text>
</g>
<!-- 3&#45;&gt;1 -->
<g id="edge29" class="edge">
<title>3&#45;&gt;1</title>
<path fill="none" stroke="grey" stroke-width="2" d="M1278.19,-649.67C1280.98,-649.07 1283.75,-648.51 1286.46,-648 1404.39,-625.61 1542.97,-610.08 1626.68,-601.86"/>
<polygon fill="grey" stroke="grey" stroke-width="2" points="1627.25,-605.32 1636.86,-600.86 1626.57,-598.35 1627.25,-605.32"/>
</g>
<!-- 3&#45;&gt;6 -->
<g id="edge44" class="edge">
<title>3&#45;&gt;6</title>
<path fill="none" stroke="grey" stroke-width="2" d="M1221.75,-647.76C1224.75,-629.18 1231.13,-599.17 1243.46,-576 1248.89,-565.79 1256.62,-555.86 1264.2,-547.41"/>
<polygon fill="grey" stroke="grey" stroke-width="2" points="1266.76,-549.8 1271.04,-540.1 1261.65,-545.01 1266.76,-549.8"/>
</g>
<!-- 3&#45;&gt;7 -->
<g id="edge57" class="edge">
<title>3&#45;&gt;7</title>
<path fill="none" stroke="grey" stroke-width="2" d="M1278.15,-649.38C1280.95,-648.86 1283.73,-648.4 1286.46,-648 1670.28,-592 1772.9,-654.46 2158.46,-612 2338.01,-592.23 2434.21,-671.11 2558.46,-540 2658.12,-434.83 2681.41,-331.89 2594.46,-216 2584.03,-202.1 2551.25,-190.66 2516.33,-182"/>
<polygon fill="grey" stroke="grey" stroke-width="2" points="2516.98,-178.56 2506.44,-179.63 2515.35,-185.36 2516.98,-178.56"/>
</g>
<!-- 10 -->
<g id="node11" class="node">
<title>10</title>
<path fill="none" stroke="#569ad8" stroke-width="2" d="M1557.46,-180C1557.46,-180 1385.46,-180 1385.46,-180 1379.46,-180 1373.46,-174 1373.46,-168 1373.46,-168 1373.46,-156 1373.46,-156 1373.46,-150 1379.46,-144 1385.46,-144 1385.46,-144 1557.46,-144 1557.46,-144 1563.46,-144 1569.46,-150 1569.46,-156 1569.46,-156 1569.46,-168 1569.46,-168 1569.46,-174 1563.46,-180 1557.46,-180"/>
<text text-anchor="middle" x="1471.46" y="-159.5" font-family="sans" font-size="10.00">generate_vcf_sample_set_no_low_freqs</text>
</g>
<!-- 3&#45;&gt;10 -->
<g id="edge71" class="edge">
<title>3&#45;&gt;10</title>
<path fill="none" stroke="grey" stroke-width="2" d="M1160.93,-661.88C1050.69,-655.4 821.12,-638.82 797.46,-612 765.7,-576.01 777.63,-547.71 797.46,-504 877.74,-327.03 950.28,-298.02 1126.46,-216 1147.79,-206.07 1270.26,-188.67 1363.28,-176.53"/>
<polygon fill="grey" stroke="grey" stroke-width="2" points="1363.86,-179.99 1373.32,-175.23 1362.96,-173.04 1363.86,-179.99"/>
</g>
<!-- 11 -->
<g id="node12" class="node">
<title>11</title>
<path fill="none" stroke="#d87d56" stroke-width="2" d="M2238.96,-180C2238.96,-180 2041.96,-180 2041.96,-180 2035.96,-180 2029.96,-174 2029.96,-168 2029.96,-168 2029.96,-156 2029.96,-156 2029.96,-150 2035.96,-144 2041.96,-144 2041.96,-144 2238.96,-144 2238.96,-144 2244.96,-144 2250.96,-150 2250.96,-156 2250.96,-156 2250.96,-168 2250.96,-168 2250.96,-174 2244.96,-180 2238.96,-180"/>
<text text-anchor="middle" x="2140.46" y="-159.5" font-family="sans" font-size="10.00">generate_vcf_sample_set_no_very_low_freqs</text>
</g>
<!-- 3&#45;&gt;11 -->
<g id="edge84" class="edge">
<title>3&#45;&gt;11</title>
<path fill="none" stroke="grey" stroke-width="2" d="M1278.16,-649.49C1280.96,-648.94 1283.73,-648.44 1286.46,-648 1502,-613.01 1559.06,-632.56 1776.46,-612 1947.72,-595.81 2545.46,-695.03 2545.46,-523 2545.46,-523 2545.46,-523 2545.46,-377 2545.46,-304.37 2569.64,-266.52 2517.46,-216 2508.13,-206.97 2368.13,-189.05 2261.45,-176.56"/>
<polygon fill="grey" stroke="grey" stroke-width="2" points="2261.57,-173.05 2251.23,-175.37 2260.76,-180 2261.57,-173.05"/>
</g>
<!-- 30 -->
<g id="node31" class="node">
<title>30</title>
<path fill="none" stroke="#56a9d8" stroke-width="2" d="M1092.96,-180C1092.96,-180 947.96,-180 947.96,-180 941.96,-180 935.96,-174 935.96,-168 935.96,-168 935.96,-156 935.96,-156 935.96,-150 941.96,-144 947.96,-144 947.96,-144 1092.96,-144 1092.96,-144 1098.96,-144 1104.96,-150 1104.96,-156 1104.96,-156 1104.96,-168 1104.96,-168 1104.96,-174 1098.96,-180 1092.96,-180"/>
<text text-anchor="middle" x="1020.46" y="-159.5" font-family="sans" font-size="10.00">create_subpopulation_files_1_pop</text>
</g>
<!-- 3&#45;&gt;30 -->
<g id="edge127" class="edge">
<title>3&#45;&gt;30</title>
<path fill="none" stroke="grey" stroke-width="2" d="M1160.77,-663.03C1006.3,-657.48 596.58,-640.24 542.46,-612 497.1,-588.33 469.46,-574.16 469.46,-523 469.46,-523 469.46,-523 469.46,-305 469.46,-256.79 489.99,-240.58 531.46,-216 535.67,-213.5 785.01,-187.36 925.96,-172.75"/>
<polygon fill="grey" stroke="grey" stroke-width="2" points="926.33,-176.23 935.92,-171.72 925.61,-169.27 926.33,-176.23"/>
</g>
<!-- 32 -->
<g id="node33" class="node">
<title>32</title>
<path fill="none" stroke="#d8c356" stroke-width="2" d="M1285.46,-180C1285.46,-180 1135.46,-180 1135.46,-180 1129.46,-180 1123.46,-174 1123.46,-168 1123.46,-168 1123.46,-156 1123.46,-156 1123.46,-150 1129.46,-144 1135.46,-144 1135.46,-144 1285.46,-144 1285.46,-144 1291.46,-144 1297.46,-150 1297.46,-156 1297.46,-156 1297.46,-168 1297.46,-168 1297.46,-174 1291.46,-180 1285.46,-180"/>
<text text-anchor="middle" x="1210.46" y="-159.5" font-family="sans" font-size="10.00">create_subpopulation_files_2_pops</text>
</g>
<!-- 3&#45;&gt;32 -->
<g id="edge150" class="edge">
<title>3&#45;&gt;32</title>
<path fill="none" stroke="grey" stroke-width="2" d="M1160.71,-664.01C1009.28,-660.94 614.35,-649.38 569.46,-612 537.98,-585.78 545.46,-563.97 545.46,-523 545.46,-523 545.46,-523 545.46,-377 545.46,-300.32 545.82,-261.61 607.46,-216 650.86,-183.88 1024.16,-186.57 1113.25,-179.68"/>
<polygon fill="grey" stroke="grey" stroke-width="2" points="1113.65,-183.16 1123.27,-178.71 1112.98,-176.19 1113.65,-183.16"/>
</g>
<!-- 4 -->
<g id="node5" class="node">
<title>4</title>
<path fill="none" stroke="#d6d856" stroke-width="2" d="M1755.96,-756C1755.96,-756 1642.96,-756 1642.96,-756 1636.96,-756 1630.96,-750 1630.96,-744 1630.96,-744 1630.96,-732 1630.96,-732 1630.96,-726 1636.96,-720 1642.96,-720 1642.96,-720 1755.96,-720 1755.96,-720 1761.96,-720 1767.96,-726 1767.96,-732 1767.96,-732 1767.96,-744 1767.96,-744 1767.96,-750 1761.96,-756 1755.96,-756"/>
<text text-anchor="middle" x="1699.46" y="-735.5" font-family="sans" font-size="10.00">resource_ingroup_samples</text>
</g>
<!-- 4&#45;&gt;3 -->
<g id="edge32" class="edge">
<title>4&#45;&gt;3</title>
<path fill="none" stroke="grey" stroke-width="2" d="M1630.73,-730.75C1550.61,-722.88 1414.09,-707.7 1288.38,-684.25"/>
<polygon fill="grey" stroke="grey" stroke-width="2" points="1288.67,-680.75 1278.19,-682.33 1287.37,-687.62 1288.67,-680.75"/>
</g>
<!-- 15 -->
<g id="node16" class="node">
<title>15</title>
<path fill="none" stroke="#56d0d8" stroke-width="2" d="M1931.46,-684C1931.46,-684 1827.46,-684 1827.46,-684 1821.46,-684 1815.46,-678 1815.46,-672 1815.46,-672 1815.46,-660 1815.46,-660 1815.46,-654 1821.46,-648 1827.46,-648 1827.46,-648 1931.46,-648 1931.46,-648 1937.46,-648 1943.46,-654 1943.46,-660 1943.46,-660 1943.46,-672 1943.46,-672 1943.46,-678 1937.46,-684 1931.46,-684"/>
<text text-anchor="middle" x="1879.46" y="-663.5" font-family="sans" font-size="10.00">create_sample_set_birch</text>
</g>
<!-- 4&#45;&gt;15 -->
<g id="edge90" class="edge">
<title>4&#45;&gt;15</title>
<path fill="none" stroke="grey" stroke-width="2" d="M1743.49,-719.88C1768.43,-710.18 1799.8,-697.98 1826.12,-687.74"/>
<polygon fill="grey" stroke="grey" stroke-width="2" points="1827.52,-690.95 1835.57,-684.07 1824.98,-684.43 1827.52,-690.95"/>
</g>
<!-- 21 -->
<g id="node22" class="node">
<title>21</title>
<path fill="none" stroke="#568ad8" stroke-width="2" d="M1785.46,-684C1785.46,-684 1613.46,-684 1613.46,-684 1607.46,-684 1601.46,-678 1601.46,-672 1601.46,-672 1601.46,-660 1601.46,-660 1601.46,-654 1607.46,-648 1613.46,-648 1613.46,-648 1785.46,-648 1785.46,-648 1791.46,-648 1797.46,-654 1797.46,-660 1797.46,-660 1797.46,-672 1797.46,-672 1797.46,-678 1791.46,-684 1785.46,-684"/>
<text text-anchor="middle" x="1699.46" y="-663.5" font-family="sans" font-size="10.00">create_sample_set_pendula_pubescens</text>
</g>
<!-- 4&#45;&gt;21 -->
<g id="edge96" class="edge">
<title>4&#45;&gt;21</title>
<path fill="none" stroke="grey" stroke-width="2" d="M1699.46,-719.7C1699.46,-711.98 1699.46,-702.71 1699.46,-694.11"/>
<polygon fill="grey" stroke="grey" stroke-width="2" points="1702.96,-694.1 1699.46,-684.1 1695.96,-694.1 1702.96,-694.1"/>
</g>
<!-- 5 -->
<g id="node6" class="node">
<title>5</title>
<path fill="none" stroke="#88d856" stroke-width="2" d="M1278.96,-756C1278.96,-756 1159.96,-756 1159.96,-756 1153.96,-756 1147.96,-750 1147.96,-744 1147.96,-744 1147.96,-732 1147.96,-732 1147.96,-726 1153.96,-720 1159.96,-720 1159.96,-720 1278.96,-720 1278.96,-720 1284.96,-720 1290.96,-726 1290.96,-732 1290.96,-732 1290.96,-744 1290.96,-744 1290.96,-750 1284.96,-756 1278.96,-756"/>
<text text-anchor="middle" x="1219.46" y="-735.5" font-family="sans" font-size="10.00">resource_outgroup_samples</text>
</g>
<!-- 5&#45;&gt;3 -->
<g id="edge31" class="edge">
<title>5&#45;&gt;3</title>
<path fill="none" stroke="grey" stroke-width="2" d="M1219.46,-719.7C1219.46,-711.98 1219.46,-702.71 1219.46,-694.11"/>
<polygon fill="grey" stroke="grey" stroke-width="2" points="1222.96,-694.1 1219.46,-684.1 1215.96,-694.1 1222.96,-694.1"/>
</g>
<!-- 6&#45;&gt;0 -->
<g id="edge17" class="edge">
<title>6&#45;&gt;0</title>
<path fill="none" stroke="grey" stroke-width="2" d="M1204.52,-514.35C1093.96,-500.4 906.47,-457.26 835.46,-324 782.74,-225.08 883,-168.19 825.46,-72 817.74,-59.1 805.59,-49 792.68,-41.24"/>
<polygon fill="grey" stroke="grey" stroke-width="2" points="794.11,-38.03 783.67,-36.23 790.71,-44.15 794.11,-38.03"/>
</g>
<!-- 8 -->
<g id="node9" class="node">
<title>8</title>
<path fill="none" stroke="#56d8a9" stroke-width="2" d="M201.96,-252C201.96,-252 32.96,-252 32.96,-252 26.96,-252 20.96,-246 20.96,-240 20.96,-240 20.96,-228 20.96,-228 20.96,-222 26.96,-216 32.96,-216 32.96,-216 201.96,-216 201.96,-216 207.96,-216 213.96,-222 213.96,-228 213.96,-228 213.96,-240 213.96,-240 213.96,-246 207.96,-252 201.96,-252"/>
<text text-anchor="middle" x="117.46" y="-231.5" font-family="sans" font-size="10.00">generate_vcf_sample_set_synonymous</text>
</g>
<!-- 6&#45;&gt;8 -->
<g id="edge59" class="edge">
<title>6&#45;&gt;8</title>
<path fill="none" stroke="grey" stroke-width="2" d="M1204.79,-516.53C1111.12,-510.39 956.13,-496.65 825.46,-468 573.12,-412.68 283.78,-301.94 168.61,-255.86"/>
<polygon fill="grey" stroke="grey" stroke-width="2" points="169.9,-252.61 159.31,-252.13 167.29,-259.11 169.9,-252.61"/>
</g>
<!-- 9 -->
<g id="node10" class="node">
<title>9</title>
<path fill="none" stroke="#567bd8" stroke-width="2" d="M428.96,-252C428.96,-252 243.96,-252 243.96,-252 237.96,-252 231.96,-246 231.96,-240 231.96,-240 231.96,-228 231.96,-228 231.96,-222 237.96,-216 243.96,-216 243.96,-216 428.96,-216 428.96,-216 434.96,-216 440.96,-222 440.96,-228 440.96,-228 440.96,-240 440.96,-240 440.96,-246 434.96,-252 428.96,-252"/>
<text text-anchor="middle" x="336.46" y="-231.5" font-family="sans" font-size="10.00">generate_vcf_sample_set_nonsynonymous</text>
</g>
<!-- 6&#45;&gt;9 -->
<g id="edge60" class="edge">
<title>6&#45;&gt;9</title>
<path fill="none" stroke="grey" stroke-width="2" d="M1204.87,-515.39C1127.43,-508.79 1010.19,-495.1 911.46,-468 871.5,-457.03 863.79,-447.74 825.46,-432 666.78,-366.83 478.34,-291.49 388.77,-255.81"/>
<polygon fill="grey" stroke="grey" stroke-width="2" points="389.97,-252.52 379.38,-252.07 387.38,-259.02 389.97,-252.52"/>
</g>
<!-- 6&#45;&gt;10 -->
<g id="edge73" class="edge">
<title>6&#45;&gt;10</title>
<path fill="none" stroke="grey" stroke-width="2" d="M1254.79,-503.93C1214.49,-481.38 1153.46,-437.54 1153.46,-379 1153.46,-379 1153.46,-379 1153.46,-305 1153.46,-250.3 1190.88,-242.99 1238.46,-216 1276.29,-194.54 1322.22,-181.76 1363.27,-174.16"/>
<polygon fill="grey" stroke="grey" stroke-width="2" points="1364.08,-177.58 1373.32,-172.39 1362.86,-170.68 1364.08,-177.58"/>
</g>
<!-- 6&#45;&gt;11 -->
<g id="edge86" class="edge">
<title>6&#45;&gt;11</title>
<path fill="none" stroke="grey" stroke-width="2" d="M1374.04,-519.38C1486.82,-515.82 1692.15,-504.42 1863.46,-468 2155.87,-405.83 2326.29,-494.97 2500.46,-252 2509.78,-239 2510.92,-228.11 2500.46,-216 2492.48,-206.76 2362.84,-189.35 2261.4,-177.01"/>
<polygon fill="grey" stroke="grey" stroke-width="2" points="2261.71,-173.52 2251.36,-175.79 2260.87,-180.47 2261.71,-173.52"/>
</g>
<!-- 17 -->
<g id="node18" class="node">
<title>17</title>
<path fill="none" stroke="#56d85b" stroke-width="2" d="M1589.46,-468C1589.46,-468 1481.46,-468 1481.46,-468 1475.46,-468 1469.46,-462 1469.46,-456 1469.46,-456 1469.46,-444 1469.46,-444 1469.46,-438 1475.46,-432 1481.46,-432 1481.46,-432 1589.46,-432 1589.46,-432 1595.46,-432 1601.46,-438 1601.46,-444 1601.46,-444 1601.46,-456 1601.46,-456 1601.46,-462 1595.46,-468 1589.46,-468"/>
<text text-anchor="middle" x="1535.46" y="-447.5" font-family="sans" font-size="10.00">convert_plink_sample_set</text>
</g>
<!-- 6&#45;&gt;17 -->
<g id="edge92" class="edge">
<title>6&#45;&gt;17</title>
<path fill="none" stroke="grey" stroke-width="2" d="M1349.32,-503.97C1384.44,-493.97 1428.98,-481.3 1465.69,-470.85"/>
<polygon fill="grey" stroke="grey" stroke-width="2" points="1466.67,-474.21 1475.33,-468.11 1464.75,-467.48 1466.67,-474.21"/>
</g>
<!-- 6&#45;&gt;29 -->
<g id="edge116" class="edge">
<title>6&#45;&gt;29</title>
<path fill="none" stroke="grey" stroke-width="2" d="M1374.13,-518.63C1513.73,-513.91 1800.74,-500.82 2041.46,-468 2359.62,-424.62 2464.56,-472.14 2749.46,-324 2770.1,-313.27 2816.27,-273.37 2825.46,-252 2831.78,-237.3 2835.41,-228.53 2825.46,-216 2737.48,-105.25 2655.65,-162.75 2515.46,-144 2243.7,-107.65 1366.13,-94.26 1157.34,-91.55"/>
<polygon fill="grey" stroke="grey" stroke-width="2" points="1157.11,-88.04 1147.06,-91.41 1157.02,-95.04 1157.11,-88.04"/>
</g>
<!-- 6&#45;&gt;31 -->
<g id="edge139" class="edge">
<title>6&#45;&gt;31</title>
<path fill="none" stroke="grey" stroke-width="2" d="M1211.59,-503.93C1122.86,-480.03 981.15,-427.4 911.46,-324 868.87,-260.82 886.78,-164.5 899.22,-117.99"/>
<polygon fill="grey" stroke="grey" stroke-width="2" points="902.67,-118.64 902,-108.07 895.93,-116.75 902.67,-118.64"/>
</g>
<!-- 7&#45;&gt;0 -->
<g id="edge12" class="edge">
<title>7&#45;&gt;0</title>
<path fill="none" stroke="grey" stroke-width="2" d="M2318.84,-150.19C2299.54,-148.06 2279.35,-145.9 2260.46,-144 1901.73,-107.96 1811.8,-101.29 1452.46,-72 1210.15,-52.25 921.5,-31.87 797.3,-23.26"/>
<polygon fill="grey" stroke="grey" stroke-width="2" points="797.43,-19.76 787.22,-22.56 796.95,-26.74 797.43,-19.76"/>
</g>
<!-- 7&#45;&gt;29 -->
<g id="edge111" class="edge">
<title>7&#45;&gt;29</title>
<path fill="none" stroke="grey" stroke-width="2" d="M2318.9,-149.57C2299.6,-147.48 2279.38,-145.49 2260.46,-144 1831.74,-110.17 1311.11,-95.73 1157.28,-92.02"/>
<polygon fill="grey" stroke="grey" stroke-width="2" points="1157.34,-88.52 1147.26,-91.78 1157.18,-95.52 1157.34,-88.52"/>
</g>
<!-- 7&#45;&gt;31 -->
<g id="edge134" class="edge">
<title>7&#45;&gt;31</title>
<path fill="none" stroke="grey" stroke-width="2" d="M2318.92,-149.33C2299.61,-147.26 2279.4,-145.34 2260.46,-144 1731.77,-106.51 1597.26,-143.85 1068.46,-108 1029.11,-105.33 984.53,-100.48 952.27,-96.64"/>
<polygon fill="grey" stroke="grey" stroke-width="2" points="952.6,-93.16 942.25,-95.44 951.76,-100.11 952.6,-93.16"/>
</g>
<!-- 8&#45;&gt;0 -->
<g id="edge10" class="edge">
<title>8&#45;&gt;0</title>
<path fill="none" stroke="grey" stroke-width="2" d="M54.36,-215.95C36.79,-207.99 19.73,-196.49 9.46,-180 -36.91,-105.59 104.97,-75.72 115.46,-72 217.17,-35.91 537.76,-23.87 673.63,-20.32"/>
<polygon fill="grey" stroke="grey" stroke-width="2" points="673.96,-23.82 683.87,-20.06 673.78,-16.82 673.96,-23.82"/>
</g>
<!-- 14 -->
<g id="node15" class="node">
<title>14</title>
<path fill="none" stroke="#56d8d8" stroke-width="2" d="M475.96,-180C475.96,-180 354.96,-180 354.96,-180 348.96,-180 342.96,-174 342.96,-168 342.96,-168 342.96,-156 342.96,-156 342.96,-150 348.96,-144 354.96,-144 354.96,-144 475.96,-144 475.96,-144 481.96,-144 487.96,-150 487.96,-156 487.96,-156 487.96,-168 487.96,-168 487.96,-174 481.96,-180 475.96,-180"/>
<text text-anchor="middle" x="415.46" y="-159.5" font-family="sans" font-size="10.00">filter_4fold_degenerate_sites</text>
</g>
<!-- 8&#45;&gt;14 -->
<g id="edge89" class="edge">
<title>8&#45;&gt;14</title>
<path fill="none" stroke="grey" stroke-width="2" d="M189.98,-215.97C233.14,-205.83 288.06,-192.93 332.88,-182.4"/>
<polygon fill="grey" stroke="grey" stroke-width="2" points="333.94,-185.74 342.87,-180.05 332.34,-178.93 333.94,-185.74"/>
</g>
<!-- 27 -->
<g id="node28" class="node">
<title>27</title>
<path fill="none" stroke="#b6d856" stroke-width="2" d="M197.96,-180C197.96,-180 138.96,-180 138.96,-180 132.96,-180 126.96,-174 126.96,-168 126.96,-168 126.96,-156 126.96,-156 126.96,-150 132.96,-144 138.96,-144 138.96,-144 197.96,-144 197.96,-144 203.96,-144 209.96,-150 209.96,-156 209.96,-156 209.96,-168 209.96,-168 209.96,-174 203.96,-180 197.96,-180"/>
<text text-anchor="middle" x="168.46" y="-159.5" font-family="sans" font-size="10.00">plot_synonymy</text>
</g>
<!-- 8&#45;&gt;27 -->
<g id="edge101" class="edge">
<title>8&#45;&gt;27</title>
<path fill="none" stroke="grey" stroke-width="2" d="M130.06,-215.7C136.06,-207.47 143.33,-197.48 149.94,-188.42"/>
<polygon fill="grey" stroke="grey" stroke-width="2" points="152.94,-190.25 156,-180.1 147.28,-186.13 152.94,-190.25"/>
</g>
<!-- 8&#45;&gt;28 -->
<g id="edge103" class="edge">
<title>8&#45;&gt;28</title>
<path fill="none" stroke="grey" stroke-width="2" d="M104.11,-215.7C97.7,-207.39 89.9,-197.28 82.85,-188.14"/>
<polygon fill="grey" stroke="grey" stroke-width="2" points="85.53,-185.88 76.65,-180.1 79.99,-190.16 85.53,-185.88"/>
</g>
<!-- 8&#45;&gt;29 -->
<g id="edge110" class="edge">
<title>8&#45;&gt;29</title>
<path fill="none" stroke="grey" stroke-width="2" d="M214.11,-217.04C216.92,-216.67 219.71,-216.33 222.46,-216 431.82,-191.13 495.57,-247.05 695.46,-180 723.51,-170.59 723.75,-154.38 751.46,-144 808.63,-122.58 984.37,-103.37 1067.71,-95.18"/>
<polygon fill="grey" stroke="grey" stroke-width="2" points="1068.27,-98.65 1077.88,-94.19 1067.59,-91.68 1068.27,-98.65"/>
</g>
<!-- 8&#45;&gt;31 -->
<g id="edge132" class="edge">
<title>8&#45;&gt;31</title>
<path fill="none" stroke="grey" stroke-width="2" d="M214.11,-217.06C216.92,-216.69 219.71,-216.34 222.46,-216 319.18,-204.2 569.11,-216.5 659.46,-180 682.89,-170.54 680.93,-155.44 703.46,-144 731.14,-129.94 811.75,-111.23 862.97,-100.22"/>
<polygon fill="grey" stroke="grey" stroke-width="2" points="863.74,-103.63 872.79,-98.12 862.28,-96.78 863.74,-103.63"/>
</g>
<!-- 33 -->
<g id="node34" class="node">
<title>33</title>
<path fill="none" stroke="#68d856" stroke-width="2" d="M423.96,-108C423.96,-108 256.96,-108 256.96,-108 250.96,-108 244.96,-102 244.96,-96 244.96,-96 244.96,-84 244.96,-84 244.96,-78 250.96,-72 256.96,-72 256.96,-72 423.96,-72 423.96,-72 429.96,-72 435.96,-78 435.96,-84 435.96,-84 435.96,-96 435.96,-96 435.96,-102 429.96,-108 423.96,-108"/>
<text text-anchor="middle" x="340.46" y="-87.5" font-family="sans" font-size="10.00">plot_sfs_synonymous_nonsynonymous</text>
</g>
<!-- 8&#45;&gt;33 -->
<g id="edge152" class="edge">
<title>8&#45;&gt;33</title>
<path fill="none" stroke="grey" stroke-width="2" d="M153.22,-215.84C172.87,-206.02 197.44,-193.08 218.46,-180 251.31,-159.55 286.83,-133.1 311.03,-114.36"/>
<polygon fill="grey" stroke="grey" stroke-width="2" points="313.36,-116.98 319.09,-108.08 309.05,-111.46 313.36,-116.98"/>
</g>
<!-- 9&#45;&gt;0 -->
<g id="edge13" class="edge">
<title>9&#45;&gt;0</title>
<path fill="none" stroke="grey" stroke-width="2" d="M311.75,-215.95C269.87,-185.07 193.42,-118.73 235.46,-72 264.28,-39.97 546.08,-25.82 673.48,-21.02"/>
<polygon fill="grey" stroke="grey" stroke-width="2" points="673.98,-24.51 683.85,-20.64 673.73,-17.51 673.98,-24.51"/>
</g>
<!-- 13 -->
<g id="node14" class="node">
<title>13</title>
<path fill="none" stroke="#56d86b" stroke-width="2" d="M638.96,-180C638.96,-180 517.96,-180 517.96,-180 511.96,-180 505.96,-174 505.96,-168 505.96,-168 505.96,-156 505.96,-156 505.96,-150 511.96,-144 517.96,-144 517.96,-144 638.96,-144 638.96,-144 644.96,-144 650.96,-150 650.96,-156 650.96,-156 650.96,-168 650.96,-168 650.96,-174 644.96,-180 638.96,-180"/>
<text text-anchor="middle" x="578.46" y="-159.5" font-family="sans" font-size="10.00">filter_0fold_degenerate_sites</text>
</g>
<!-- 9&#45;&gt;13 -->
<g id="edge88" class="edge">
<title>9&#45;&gt;13</title>
<path fill="none" stroke="grey" stroke-width="2" d="M395.35,-215.97C429.75,-206.01 473.34,-193.41 509.36,-182.99"/>
<polygon fill="grey" stroke="grey" stroke-width="2" points="510.67,-186.25 519.3,-180.11 508.72,-179.53 510.67,-186.25"/>
</g>
<!-- 9&#45;&gt;27 -->
<g id="edge102" class="edge">
<title>9&#45;&gt;27</title>
<path fill="none" stroke="grey" stroke-width="2" d="M295.36,-215.88C272.29,-206.26 243.32,-194.19 218.89,-184.01"/>
<polygon fill="grey" stroke="grey" stroke-width="2" points="220,-180.68 209.42,-180.07 217.31,-187.15 220,-180.68"/>
</g>
<!-- 9&#45;&gt;28 -->
<g id="edge105" class="edge">
<title>9&#45;&gt;28</title>
<path fill="none" stroke="grey" stroke-width="2" d="M260.62,-215.98C220.79,-206.72 170.99,-194.66 118.34,-180.16"/>
<polygon fill="grey" stroke="grey" stroke-width="2" points="119.04,-176.72 108.47,-177.42 117.17,-183.47 119.04,-176.72"/>
</g>
<!-- 9&#45;&gt;29 -->
<g id="edge112" class="edge">
<title>9&#45;&gt;29</title>
<path fill="none" stroke="grey" stroke-width="2" d="M441.24,-217.9C446.05,-217.25 450.8,-216.61 455.46,-216 588.6,-198.5 623.38,-204.29 755.46,-180 869.29,-159.07 1000.83,-123.18 1067.99,-103.99"/>
<polygon fill="grey" stroke="grey" stroke-width="2" points="1069.16,-107.3 1077.81,-101.17 1067.23,-100.57 1069.16,-107.3"/>
</g>
<!-- 9&#45;&gt;31 -->
<g id="edge135" class="edge">
<title>9&#45;&gt;31</title>
<path fill="none" stroke="grey" stroke-width="2" d="M441.13,-217.77C544.26,-202.73 687.31,-181.71 693.46,-180 754.92,-162.94 822.31,-132.89 864.73,-112.47"/>
<polygon fill="grey" stroke="grey" stroke-width="2" points="866.44,-115.53 873.91,-108.01 863.39,-109.23 866.44,-115.53"/>
</g>
<!-- 9&#45;&gt;33 -->
<g id="edge154" class="edge">
<title>9&#45;&gt;33</title>
<path fill="none" stroke="grey" stroke-width="2" d="M334.88,-215.92C333.45,-197.99 331.81,-168.99 333.46,-144 334.01,-135.53 335.07,-126.36 336.19,-118.06"/>
<polygon fill="grey" stroke="grey" stroke-width="2" points="339.66,-118.53 337.62,-108.13 332.73,-117.53 339.66,-118.53"/>
</g>
<!-- 10&#45;&gt;0 -->
<g id="edge8" class="edge">
<title>10&#45;&gt;0</title>
<path fill="none" stroke="grey" stroke-width="2" d="M1420.03,-143.96C1357.97,-123.99 1250.14,-91.2 1155.46,-72 1029.57,-46.48 879.81,-31.1 797.45,-23.91"/>
<polygon fill="grey" stroke="grey" stroke-width="2" points="797.52,-20.41 787.26,-23.04 796.92,-27.38 797.52,-20.41"/>
</g>
<!-- 10&#45;&gt;29 -->
<g id="edge109" class="edge">
<title>10&#45;&gt;29</title>
<path fill="none" stroke="grey" stroke-width="2" d="M1384.1,-143.97C1312.39,-129.98 1213.77,-110.75 1157.21,-99.73"/>
<polygon fill="grey" stroke="grey" stroke-width="2" points="1157.63,-96.24 1147.15,-97.76 1156.29,-103.11 1157.63,-96.24"/>
</g>
<!-- 10&#45;&gt;31 -->
<g id="edge131" class="edge">
<title>10&#45;&gt;31</title>
<path fill="none" stroke="grey" stroke-width="2" d="M1373.22,-148.81C1249.66,-133.47 1042.73,-107.79 952.18,-96.55"/>
<polygon fill="grey" stroke="grey" stroke-width="2" points="952.34,-93.04 941.98,-95.28 951.47,-99.99 952.34,-93.04"/>
</g>
<!-- 11&#45;&gt;0 -->
<g id="edge4" class="edge">
<title>11&#45;&gt;0</title>
<path fill="none" stroke="grey" stroke-width="2" d="M2029.92,-149.83C1749.02,-121.44 1014.67,-47.22 797.07,-25.23"/>
<polygon fill="grey" stroke="grey" stroke-width="2" points="797.41,-21.74 787.11,-24.22 796.7,-28.71 797.41,-21.74"/>
</g>
<!-- 11&#45;&gt;29 -->
<g id="edge106" class="edge">
<title>11&#45;&gt;29</title>
<path fill="none" stroke="grey" stroke-width="2" d="M2029.96,-153.48C1806.63,-138.27 1309.85,-104.44 1157.66,-94.08"/>
<polygon fill="grey" stroke="grey" stroke-width="2" points="1157.52,-90.56 1147.3,-93.37 1157.04,-97.54 1157.52,-90.56"/>
</g>
<!-- 11&#45;&gt;31 -->
<g id="edge129" class="edge">
<title>11&#45;&gt;31</title>
<path fill="none" stroke="grey" stroke-width="2" d="M2029.6,-157.56C1834.9,-151.06 1418.89,-135.14 1068.46,-108 1029.14,-104.95 984.55,-100.14 952.29,-96.41"/>
<polygon fill="grey" stroke="grey" stroke-width="2" points="952.61,-92.92 942.27,-95.24 951.79,-99.88 952.61,-92.92"/>
</g>
<!-- 12&#45;&gt;0 -->
<g id="edge14" class="edge">
<title>12&#45;&gt;0</title>
<path fill="none" stroke="grey" stroke-width="2" d="M2991.92,-147.03C2987.08,-145.85 2982.19,-144.8 2977.46,-144 2540.9,-69.91 1113.67,-28.88 797.75,-20.58"/>
<polygon fill="grey" stroke="grey" stroke-width="2" points="797.5,-17.07 787.42,-20.31 797.32,-24.07 797.5,-17.07"/>
</g>
<!-- 12&#45;&gt;29 -->
<g id="edge113" class="edge">
<title>12&#45;&gt;29</title>
<path fill="none" stroke="grey" stroke-width="2" d="M2991.95,-146.9C2987.09,-145.74 2982.2,-144.74 2977.46,-144 2610.66,-86.88 1405.63,-89.56 1157.41,-90.74"/>
<polygon fill="grey" stroke="grey" stroke-width="2" points="1157.3,-87.24 1147.31,-90.79 1157.33,-94.24 1157.3,-87.24"/>
</g>
<!-- 12&#45;&gt;31 -->
<g id="edge136" class="edge">
<title>12&#45;&gt;31</title>
<path fill="none" stroke="grey" stroke-width="2" d="M2991.86,-159.43C2901.82,-156.28 2691.86,-149.07 2515.46,-144 1872.41,-125.51 1710.41,-149.81 1068.46,-108 1029.1,-105.44 984.52,-100.58 952.27,-96.71"/>
<polygon fill="grey" stroke="grey" stroke-width="2" points="952.6,-93.22 942.25,-95.49 951.75,-100.17 952.6,-93.22"/>
</g>
<!-- 13&#45;&gt;0 -->
<g id="edge15" class="edge">
<title>13&#45;&gt;0</title>
<path fill="none" stroke="grey" stroke-width="2" d="M554.48,-143.96C531.52,-125.56 502.91,-95.7 521.46,-72 540.08,-48.2 617.16,-33.59 673.49,-25.9"/>
<polygon fill="grey" stroke="grey" stroke-width="2" points="674.3,-29.32 683.75,-24.54 673.38,-22.38 674.3,-29.32"/>
</g>
<!-- 13&#45;&gt;29 -->
<g id="edge114" class="edge">
<title>13&#45;&gt;29</title>
<path fill="none" stroke="grey" stroke-width="2" d="M651.16,-151.03C668.3,-148.71 686.52,-146.25 703.46,-144 835.82,-126.42 992.37,-106.33 1067.63,-96.71"/>
<polygon fill="grey" stroke="grey" stroke-width="2" points="1068.23,-100.17 1077.7,-95.43 1067.34,-93.22 1068.23,-100.17"/>
</g>
<!-- 13&#45;&gt;31 -->
<g id="edge137" class="edge">
<title>13&#45;&gt;31</title>
<path fill="none" stroke="grey" stroke-width="2" d="M651.07,-145.55C715.78,-131.78 808.42,-112.07 862.82,-100.5"/>
<polygon fill="grey" stroke="grey" stroke-width="2" points="863.79,-103.87 872.84,-98.37 862.33,-97.02 863.79,-103.87"/>
</g>
<!-- 34 -->
<g id="node35" class="node">
<title>34</title>
<path fill="none" stroke="#56c1d8" stroke-width="2" d="M623.96,-108C623.96,-108 542.96,-108 542.96,-108 536.96,-108 530.96,-102 530.96,-96 530.96,-96 530.96,-84 530.96,-84 530.96,-78 536.96,-72 542.96,-72 542.96,-72 623.96,-72 623.96,-72 629.96,-72 635.96,-78 635.96,-84 635.96,-84 635.96,-96 635.96,-96 635.96,-102 629.96,-108 623.96,-108"/>
<text text-anchor="middle" x="583.46" y="-87.5" font-family="sans" font-size="10.00">plot_sfs_0fold_4fold</text>
</g>
<!-- 13&#45;&gt;34 -->
<g id="edge157" class="edge">
<title>13&#45;&gt;34</title>
<path fill="none" stroke="grey" stroke-width="2" d="M579.69,-143.7C580.24,-135.98 580.91,-126.71 581.52,-118.11"/>
<polygon fill="grey" stroke="grey" stroke-width="2" points="585.01,-118.33 582.24,-108.1 578.03,-117.83 585.01,-118.33"/>
</g>
<!-- 35 -->
<g id="node36" class="node">
<title>35</title>
<path fill="none" stroke="#61d856" stroke-width="2" d="M804.46,-108C804.46,-108 666.46,-108 666.46,-108 660.46,-108 654.46,-102 654.46,-96 654.46,-96 654.46,-84 654.46,-84 654.46,-78 660.46,-72 666.46,-72 666.46,-72 804.46,-72 804.46,-72 810.46,-72 816.46,-78 816.46,-84 816.46,-84 816.46,-96 816.46,-96 816.46,-102 810.46,-108 804.46,-108"/>
<text text-anchor="middle" x="735.46" y="-87.5" font-family="sans" font-size="10.00">plot_sfs_0fold_4fold_tight_layout</text>
</g>
<!-- 13&#45;&gt;35 -->
<g id="edge160" class="edge">
<title>13&#45;&gt;35</title>
<path fill="none" stroke="grey" stroke-width="2" d="M616.86,-143.88C638.33,-134.31 665.26,-122.3 688.03,-112.15"/>
<polygon fill="grey" stroke="grey" stroke-width="2" points="689.47,-115.34 697.18,-108.07 686.62,-108.94 689.47,-115.34"/>
</g>
<!-- 14&#45;&gt;0 -->
<g id="edge16" class="edge">
<title>14&#45;&gt;0</title>
<path fill="none" stroke="grey" stroke-width="2" d="M429.32,-143.78C446.62,-123.48 478.14,-90.21 512.46,-72 563.05,-45.15 627.25,-31.74 673.76,-25.14"/>
<polygon fill="grey" stroke="grey" stroke-width="2" points="674.26,-28.61 683.7,-23.8 673.32,-21.67 674.26,-28.61"/>
</g>
<!-- 14&#45;&gt;29 -->
<g id="edge115" class="edge">
<title>14&#45;&gt;29</title>
<path fill="none" stroke="grey" stroke-width="2" d="M488.24,-145.27C491.01,-144.81 493.76,-144.39 496.46,-144 696.8,-115.15 748.9,-126.56 950.46,-108 990.1,-104.35 1035.13,-99.57 1067.63,-96.01"/>
<polygon fill="grey" stroke="grey" stroke-width="2" points="1068.16,-99.48 1077.72,-94.9 1067.4,-92.52 1068.16,-99.48"/>
</g>
<!-- 14&#45;&gt;31 -->
<g id="edge138" class="edge">
<title>14&#45;&gt;31</title>
<path fill="none" stroke="grey" stroke-width="2" d="M488.25,-145.37C491.02,-144.89 493.76,-144.43 496.46,-144 641.72,-120.87 680.17,-130.96 825.46,-108 837.69,-106.07 850.85,-103.54 862.98,-101.03"/>
<polygon fill="grey" stroke="grey" stroke-width="2" points="863.82,-104.43 872.88,-98.93 862.37,-97.58 863.82,-104.43"/>
</g>
<!-- 14&#45;&gt;34 -->
<g id="edge155" class="edge">
<title>14&#45;&gt;34</title>
<path fill="none" stroke="grey" stroke-width="2" d="M456.56,-143.88C479.62,-134.26 508.59,-122.19 533.03,-112.01"/>
<polygon fill="grey" stroke="grey" stroke-width="2" points="534.61,-115.15 542.49,-108.07 531.92,-108.68 534.61,-115.15"/>
</g>
<!-- 14&#45;&gt;35 -->
<g id="edge158" class="edge">
<title>14&#45;&gt;35</title>
<path fill="none" stroke="grey" stroke-width="2" d="M488.07,-145.12C535.44,-134.75 597.55,-121.17 647.68,-110.2"/>
<polygon fill="grey" stroke="grey" stroke-width="2" points="648.52,-113.6 657.54,-108.04 647.02,-106.76 648.52,-113.6"/>
</g>
<!-- 15&#45;&gt;1 -->
<g id="edge30" class="edge">
<title>15&#45;&gt;1</title>
<path fill="none" stroke="grey" stroke-width="2" d="M1836.16,-647.88C1811.75,-638.22 1781.06,-626.09 1755.25,-615.88"/>
<polygon fill="grey" stroke="grey" stroke-width="2" points="1756.2,-612.49 1745.62,-612.07 1753.63,-619 1756.2,-612.49"/>
</g>
<!-- 15&#45;&gt;6 -->
<g id="edge45" class="edge">
<title>15&#45;&gt;6</title>
<path fill="none" stroke="grey" stroke-width="2" d="M1815.39,-649.96C1812.37,-649.29 1809.38,-648.63 1806.46,-648 1727.15,-630.8 1706.51,-630.34 1627.46,-612 1534.36,-590.4 1427.87,-561.69 1359.71,-542.79"/>
<polygon fill="grey" stroke="grey" stroke-width="2" points="1360.51,-539.38 1349.94,-540.08 1358.64,-546.13 1360.51,-539.38"/>
</g>
<!-- 15&#45;&gt;7 -->
<g id="edge58" class="edge">
<title>15&#45;&gt;7</title>
<path fill="none" stroke="grey" stroke-width="2" d="M1943.66,-663.58C2157.22,-658.59 2835.51,-640.64 2929.46,-612 3002.88,-589.62 3077.46,-599.76 3077.46,-523 3077.46,-523 3077.46,-523 3077.46,-305 3077.46,-256.79 3057.17,-240.16 3015.46,-216 2973.44,-191.66 2677.81,-174.84 2516.65,-167.37"/>
<polygon fill="grey" stroke="grey" stroke-width="2" points="2516.38,-163.85 2506.23,-166.89 2516.06,-170.85 2516.38,-163.85"/>
</g>
<!-- 15&#45;&gt;10 -->
<g id="edge72" class="edge">
<title>15&#45;&gt;10</title>
<path fill="none" stroke="grey" stroke-width="2" d="M1943.65,-665.24C2114.12,-665.21 2568.31,-660.52 2613.46,-612 2623.4,-601.32 2610.51,-532.33 2604.46,-504 2567.74,-332.12 2498.85,-275.46 2333.46,-216 2264.32,-191.14 1795.7,-173.28 1579.88,-166.27"/>
<polygon fill="grey" stroke="grey" stroke-width="2" points="1579.9,-162.77 1569.79,-165.95 1579.68,-169.77 1579.9,-162.77"/>
</g>
<!-- 15&#45;&gt;11 -->
<g id="edge85" class="edge">
<title>15&#45;&gt;11</title>
<path fill="none" stroke="grey" stroke-width="2" d="M1943.51,-665.31C2154.83,-665.85 2820.98,-663.41 2901.46,-612 2931.95,-592.52 2930.76,-575.12 2939.46,-540 2966.69,-430.06 2983.26,-366.34 2901.46,-288 2847.47,-236.3 2821.66,-235.37 2749.46,-216 2560.38,-165.28 2505.42,-197.74 2310.46,-180 2294.56,-178.55 2277.83,-176.96 2261.32,-175.35"/>
<polygon fill="grey" stroke="grey" stroke-width="2" points="2261.37,-171.84 2251.08,-174.35 2260.69,-178.81 2261.37,-171.84"/>
</g>
<!-- 15&#45;&gt;30 -->
<g id="edge128" class="edge">
<title>15&#45;&gt;30</title>
<path fill="none" stroke="grey" stroke-width="2" d="M1815.08,-649.38C1812.18,-648.88 1809.29,-648.41 1806.46,-648 1537.24,-609.01 1461.81,-667.28 1195.46,-612 1104.18,-593.06 1084.71,-575.35 998.46,-540 927.05,-510.73 897.7,-519.76 840.46,-468 756.67,-392.24 728.07,-296.35 807.46,-216 824.5,-198.76 877.21,-185.56 925.93,-176.65"/>
<polygon fill="grey" stroke="grey" stroke-width="2" points="926.7,-180.07 935.93,-174.87 925.48,-173.18 926.7,-180.07"/>
</g>
<!-- 15&#45;&gt;32 -->
<g id="edge151" class="edge">
<title>15&#45;&gt;32</title>
<path fill="none" stroke="grey" stroke-width="2" d="M1815.45,-649.65C1812.42,-649.06 1809.41,-648.51 1806.46,-648 1763.29,-640.59 1054.5,-572.79 1025.46,-540 972.39,-480.09 995.49,-436.04 1020.46,-360 1045.25,-284.5 1068.29,-270.14 1126.46,-216 1139,-204.33 1154.46,-193.73 1168.69,-185.13"/>
<polygon fill="grey" stroke="grey" stroke-width="2" points="1170.5,-188.13 1177.35,-180.04 1166.95,-182.09 1170.5,-188.13"/>
</g>
<!-- 16 -->
<g id="node17" class="node">
<title>16</title>
<path fill="none" stroke="#d88d56" stroke-width="2" d="M1506.96,-396C1506.96,-396 1375.96,-396 1375.96,-396 1369.96,-396 1363.96,-390 1363.96,-384 1363.96,-384 1363.96,-372 1363.96,-372 1363.96,-366 1369.96,-360 1375.96,-360 1375.96,-360 1506.96,-360 1506.96,-360 1512.96,-360 1518.96,-366 1518.96,-372 1518.96,-372 1518.96,-384 1518.96,-384 1518.96,-390 1512.96,-396 1506.96,-396"/>
<text text-anchor="middle" x="1441.46" y="-375.5" font-family="sans" font-size="10.00">create_sample_set_left_cluster</text>
</g>
<!-- 16&#45;&gt;1 -->
<g id="edge22" class="edge">
<title>16&#45;&gt;1</title>
<path fill="none" stroke="grey" stroke-width="2" d="M1440.94,-396.19C1441.24,-415.54 1444.44,-447.03 1460.46,-468 1501.61,-521.89 1572.59,-554.63 1627.06,-573"/>
<polygon fill="grey" stroke="grey" stroke-width="2" points="1626.1,-576.37 1636.69,-576.16 1628.28,-569.71 1626.1,-576.37"/>
</g>
<!-- 16&#45;&gt;6 -->
<g id="edge37" class="edge">
<title>16&#45;&gt;6</title>
<path fill="none" stroke="grey" stroke-width="2" d="M1423.06,-396.19C1396.09,-421.39 1345.71,-468.45 1315.12,-497.03"/>
<polygon fill="grey" stroke="grey" stroke-width="2" points="1312.71,-494.49 1307.79,-503.87 1317.49,-499.6 1312.71,-494.49"/>
</g>
<!-- 16&#45;&gt;7 -->
<g id="edge50" class="edge">
<title>16&#45;&gt;7</title>
<path fill="none" stroke="grey" stroke-width="2" d="M1519.33,-368.15C1546.27,-365.28 1576.67,-362.26 1604.46,-360 1740.69,-348.91 2090,-370.68 2218.46,-324 2293.8,-296.62 2360.63,-226.01 2392.57,-188.04"/>
<polygon fill="grey" stroke="grey" stroke-width="2" points="2395.53,-189.96 2399.21,-180.02 2390.14,-185.5 2395.53,-189.96"/>
</g>
<!-- 16&#45;&gt;10 -->
<g id="edge65" class="edge">
<title>16&#45;&gt;10</title>
<path fill="none" stroke="grey" stroke-width="2" d="M1443.86,-359.85C1449.05,-322.83 1461.34,-235.18 1467.62,-190.39"/>
<polygon fill="grey" stroke="grey" stroke-width="2" points="1471.12,-190.62 1469.04,-180.23 1464.19,-189.65 1471.12,-190.62"/>
</g>
<!-- 16&#45;&gt;11 -->
<g id="edge78" class="edge">
<title>16&#45;&gt;11</title>
<path fill="none" stroke="grey" stroke-width="2" d="M1518.96,-368.69C1546,-365.85 1576.56,-362.71 1604.46,-360 1759.81,-344.91 2202.11,-374.79 2298.46,-252 2323.82,-219.68 2282.26,-197.18 2235.42,-182.89"/>
<polygon fill="grey" stroke="grey" stroke-width="2" points="2236.26,-179.49 2225.68,-180.05 2234.31,-186.21 2236.26,-179.49"/>
</g>
<!-- 20 -->
<g id="node21" class="node">
<title>20</title>
<path fill="none" stroke="#d86e56" stroke-width="2" d="M1419.96,-324C1419.96,-324 1288.96,-324 1288.96,-324 1282.96,-324 1276.96,-318 1276.96,-312 1276.96,-312 1276.96,-300 1276.96,-300 1276.96,-294 1282.96,-288 1288.96,-288 1288.96,-288 1419.96,-288 1419.96,-288 1425.96,-288 1431.96,-294 1431.96,-300 1431.96,-300 1431.96,-312 1431.96,-312 1431.96,-318 1425.96,-324 1419.96,-324"/>
<text text-anchor="middle" x="1354.46" y="-303.5" font-family="sans" font-size="10.00">create_sample_set_pubescens</text>
</g>
<!-- 16&#45;&gt;20 -->
<g id="edge95" class="edge">
<title>16&#45;&gt;20</title>
<path fill="none" stroke="grey" stroke-width="2" d="M1419.95,-359.7C1409,-350.88 1395.51,-340.03 1383.63,-330.47"/>
<polygon fill="grey" stroke="grey" stroke-width="2" points="1385.7,-327.65 1375.72,-324.1 1381.31,-333.1 1385.7,-327.65"/>
</g>
<!-- 16&#45;&gt;30 -->
<g id="edge121" class="edge">
<title>16&#45;&gt;30</title>
<path fill="none" stroke="grey" stroke-width="2" d="M1363.52,-375.5C1258.53,-372.08 1078.64,-360.85 1025.46,-324 983.63,-295.02 973.47,-264.92 987.46,-216 990.17,-206.51 995.13,-197.06 1000.39,-188.83"/>
<polygon fill="grey" stroke="grey" stroke-width="2" points="1003.38,-190.67 1006.13,-180.43 997.6,-186.72 1003.38,-190.67"/>
</g>
<!-- 16&#45;&gt;32 -->
<g id="edge144" class="edge">
<title>16&#45;&gt;32</title>
<path fill="none" stroke="grey" stroke-width="2" d="M1363.71,-364.78C1331.71,-356.97 1295.63,-344.33 1267.46,-324 1235.66,-301.05 1229.6,-288.95 1216.46,-252 1209.42,-232.21 1208.15,-208.41 1208.52,-190.4"/>
<polygon fill="grey" stroke="grey" stroke-width="2" points="1212.02,-190.41 1208.91,-180.29 1205.03,-190.15 1212.02,-190.41"/>
</g>
<!-- 17&#45;&gt;16 -->
<g id="edge91" class="edge">
<title>17&#45;&gt;16</title>
<path fill="none" stroke="grey" stroke-width="2" d="M1512.22,-431.7C1500.27,-422.8 1485.53,-411.82 1472.61,-402.2"/>
<polygon fill="grey" stroke="grey" stroke-width="2" points="1474.54,-399.27 1464.43,-396.1 1470.36,-404.88 1474.54,-399.27"/>
</g>
<!-- 18 -->
<g id="node19" class="node">
<title>18</title>
<path fill="none" stroke="#56d8b9" stroke-width="2" d="M1762.96,-396C1762.96,-396 1625.96,-396 1625.96,-396 1619.96,-396 1613.96,-390 1613.96,-384 1613.96,-384 1613.96,-372 1613.96,-372 1613.96,-366 1619.96,-360 1625.96,-360 1625.96,-360 1762.96,-360 1762.96,-360 1768.96,-360 1774.96,-366 1774.96,-372 1774.96,-372 1774.96,-384 1774.96,-384 1774.96,-390 1768.96,-396 1762.96,-396"/>
<text text-anchor="middle" x="1694.46" y="-375.5" font-family="sans" font-size="10.00">create_sample_set_right_cluster</text>
</g>
<!-- 17&#45;&gt;18 -->
<g id="edge93" class="edge">
<title>17&#45;&gt;18</title>
<path fill="none" stroke="grey" stroke-width="2" d="M1574.35,-431.88C1596.09,-422.31 1623.36,-410.3 1646.42,-400.15"/>
<polygon fill="grey" stroke="grey" stroke-width="2" points="1647.95,-403.3 1655.69,-396.07 1645.13,-396.89 1647.95,-403.3"/>
</g>
<!-- 18&#45;&gt;1 -->
<g id="edge27" class="edge">
<title>18&#45;&gt;1</title>
<path fill="none" stroke="grey" stroke-width="2" d="M1695.1,-396.23C1696.49,-433.32 1699.77,-520.98 1701.44,-565.71"/>
<polygon fill="grey" stroke="grey" stroke-width="2" points="1697.95,-565.99 1701.82,-575.85 1704.94,-565.73 1697.95,-565.99"/>
</g>
<!-- 18&#45;&gt;6 -->
<g id="edge42" class="edge">
<title>18&#45;&gt;6</title>
<path fill="none" stroke="grey" stroke-width="2" d="M1683.43,-396.28C1669.24,-416.96 1642.53,-450.93 1610.46,-468 1572.2,-488.35 1464.49,-503.35 1384.32,-512.1"/>
<polygon fill="grey" stroke="grey" stroke-width="2" points="1383.76,-508.64 1374.19,-513.18 1384.51,-515.6 1383.76,-508.64"/>
</g>
<!-- 18&#45;&gt;7 -->
<g id="edge55" class="edge">
<title>18&#45;&gt;7</title>
<path fill="none" stroke="grey" stroke-width="2" d="M1774.97,-376.26C1942.42,-373.93 2322.81,-364.22 2445.46,-324 2511.78,-302.25 2599.58,-273.11 2559.46,-216 2548.67,-200.64 2532.97,-189.71 2515.81,-181.94"/>
<polygon fill="grey" stroke="grey" stroke-width="2" points="2516.73,-178.53 2506.15,-177.94 2514.05,-185 2516.73,-178.53"/>
</g>
<!-- 18&#45;&gt;10 -->
<g id="edge69" class="edge">
<title>18&#45;&gt;10</title>
<path fill="none" stroke="grey" stroke-width="2" d="M1706.43,-359.82C1727.12,-327.84 1764.17,-258.56 1729.46,-216 1710.26,-192.46 1641.5,-179.08 1579.8,-171.65"/>
<polygon fill="grey" stroke="grey" stroke-width="2" points="1579.9,-168.14 1569.57,-170.47 1579.1,-175.09 1579.9,-168.14"/>
</g>
<!-- 18&#45;&gt;11 -->
<g id="edge82" class="edge">
<title>18&#45;&gt;11</title>
<path fill="none" stroke="grey" stroke-width="2" d="M1775.14,-377.64C1959.05,-377.11 2399.86,-363.96 2483.46,-252 2493.03,-239.18 2493.87,-228.15 2483.46,-216 2476.02,-207.33 2357.06,-190.34 2261.29,-177.92"/>
<polygon fill="grey" stroke="grey" stroke-width="2" points="2261.58,-174.43 2251.22,-176.62 2260.69,-181.37 2261.58,-174.43"/>
</g>
<!-- 19 -->
<g id="node20" class="node">
<title>19</title>
<path fill="none" stroke="#56b1d8" stroke-width="2" d="M1983.46,-324C1983.46,-324 1865.46,-324 1865.46,-324 1859.46,-324 1853.46,-318 1853.46,-312 1853.46,-312 1853.46,-300 1853.46,-300 1853.46,-294 1859.46,-288 1865.46,-288 1865.46,-288 1983.46,-288 1983.46,-288 1989.46,-288 1995.46,-294 1995.46,-300 1995.46,-300 1995.46,-312 1995.46,-312 1995.46,-318 1989.46,-324 1983.46,-324"/>
<text text-anchor="middle" x="1924.46" y="-303.5" font-family="sans" font-size="10.00">create_sample_set_pendula</text>
</g>
<!-- 18&#45;&gt;19 -->
<g id="edge94" class="edge">
<title>18&#45;&gt;19</title>
<path fill="none" stroke="grey" stroke-width="2" d="M1750.43,-359.97C1782.98,-350.06 1824.2,-337.51 1858.35,-327.12"/>
<polygon fill="grey" stroke="grey" stroke-width="2" points="1859.69,-330.37 1868.24,-324.11 1857.65,-323.67 1859.69,-330.37"/>
</g>
<!-- 18&#45;&gt;30 -->
<g id="edge125" class="edge">
<title>18&#45;&gt;30</title>
<path fill="none" stroke="grey" stroke-width="2" d="M1613.75,-368.97C1508.82,-358.18 1331.44,-338.67 1267.46,-324 1170.47,-301.76 1127.46,-320.68 1055.46,-252 1038.25,-235.58 1029.34,-209.67 1024.83,-190.03"/>
<polygon fill="grey" stroke="grey" stroke-width="2" points="1028.24,-189.23 1022.8,-180.14 1021.38,-190.64 1028.24,-189.23"/>
</g>
<!-- 18&#45;&gt;32 -->
<g id="edge148" class="edge">
<title>18&#45;&gt;32</title>
<path fill="none" stroke="grey" stroke-width="2" d="M1679.27,-359.97C1661.5,-340.75 1630.55,-309.4 1599.46,-288 1591.93,-282.82 1460.09,-219 1451.46,-216 1405.19,-199.91 1352.17,-187.62 1307.66,-178.95"/>
<polygon fill="grey" stroke="grey" stroke-width="2" points="1308.19,-175.48 1297.71,-177.04 1306.88,-182.36 1308.19,-175.48"/>
</g>
<!-- 19&#45;&gt;1 -->
<g id="edge21" class="edge">
<title>19&#45;&gt;1</title>
<path fill="none" stroke="grey" stroke-width="2" d="M1924.43,-324.23C1923.43,-366.76 1914.91,-477.77 1855.46,-540 1835.14,-561.27 1805.86,-574.01 1778.35,-581.63"/>
<polygon fill="grey" stroke="grey" stroke-width="2" points="1777.12,-578.33 1768.31,-584.22 1778.87,-585.11 1777.12,-578.33"/>
</g>
<!-- 19&#45;&gt;6 -->
<g id="edge36" class="edge">
<title>19&#45;&gt;6</title>
<path fill="none" stroke="grey" stroke-width="2" d="M1898.85,-324.03C1870.88,-342.42 1824.58,-372.27 1783.46,-396 1723.88,-430.38 1711.85,-446.65 1646.46,-468 1560.27,-496.14 1457.46,-509.4 1384.36,-515.62"/>
<polygon fill="grey" stroke="grey" stroke-width="2" points="1383.92,-512.14 1374.24,-516.45 1384.5,-519.12 1383.92,-512.14"/>
</g>
<!-- 19&#45;&gt;7 -->
<g id="edge49" class="edge">
<title>19&#45;&gt;7</title>
<path fill="none" stroke="grey" stroke-width="2" d="M1995.7,-302.18C2123.18,-296.43 2379.67,-281.31 2407.46,-252 2422.71,-235.91 2422.46,-209.96 2419.28,-190.22"/>
<polygon fill="grey" stroke="grey" stroke-width="2" points="2422.69,-189.43 2417.35,-180.27 2415.82,-190.76 2422.69,-189.43"/>
</g>
<!-- 19&#45;&gt;10 -->
<g id="edge64" class="edge">
<title>19&#45;&gt;10</title>
<path fill="none" stroke="grey" stroke-width="2" d="M1906.55,-287.79C1883.99,-267.17 1843.1,-233.25 1801.46,-216 1730.97,-186.79 1645.82,-173.61 1579.68,-167.69"/>
<polygon fill="grey" stroke="grey" stroke-width="2" points="1579.9,-164.2 1569.64,-166.83 1579.31,-171.17 1579.9,-164.2"/>
</g>
<!-- 19&#45;&gt;11 -->
<g id="edge77" class="edge">
<title>19&#45;&gt;11</title>
<path fill="none" stroke="grey" stroke-width="2" d="M1995.54,-288.61C2021.37,-280.41 2049.76,-268.59 2072.46,-252 2095.36,-235.26 2114.25,-208.69 2126.25,-188.94"/>
<polygon fill="grey" stroke="grey" stroke-width="2" points="2129.38,-190.53 2131.43,-180.13 2123.34,-186.98 2129.38,-190.53"/>
</g>
<!-- 22 -->
<g id="node23" class="node">
<title>22</title>
<path fill="none" stroke="#56d882" stroke-width="2" d="M2051.46,-252C2051.46,-252 1903.46,-252 1903.46,-252 1897.46,-252 1891.46,-246 1891.46,-240 1891.46,-240 1891.46,-228 1891.46,-228 1891.46,-222 1897.46,-216 1903.46,-216 1903.46,-216 2051.46,-216 2051.46,-216 2057.46,-216 2063.46,-222 2063.46,-228 2063.46,-228 2063.46,-240 2063.46,-240 2063.46,-246 2057.46,-252 2051.46,-252"/>
<text text-anchor="middle" x="1977.46" y="-231.5" font-family="sans" font-size="10.00">create_sample_set_pendula_south</text>
</g>
<!-- 19&#45;&gt;22 -->
<g id="edge97" class="edge">
<title>19&#45;&gt;22</title>
<path fill="none" stroke="grey" stroke-width="2" d="M1937.56,-287.7C1943.85,-279.39 1951.51,-269.28 1958.42,-260.14"/>
<polygon fill="grey" stroke="grey" stroke-width="2" points="1961.26,-262.19 1964.51,-252.1 1955.68,-257.96 1961.26,-262.19"/>
</g>
<!-- 23 -->
<g id="node24" class="node">
<title>23</title>
<path fill="none" stroke="#d86656" stroke-width="2" d="M2277.46,-252C2277.46,-252 2131.46,-252 2131.46,-252 2125.46,-252 2119.46,-246 2119.46,-240 2119.46,-240 2119.46,-228 2119.46,-228 2119.46,-222 2125.46,-216 2131.46,-216 2131.46,-216 2277.46,-216 2277.46,-216 2283.46,-216 2289.46,-222 2289.46,-228 2289.46,-228 2289.46,-240 2289.46,-240 2289.46,-246 2283.46,-252 2277.46,-252"/>
<text text-anchor="middle" x="2204.46" y="-231.5" font-family="sans" font-size="10.00">create_sample_set_pendula_north</text>
</g>
<!-- 19&#45;&gt;23 -->
<g id="edge98" class="edge">
<title>19&#45;&gt;23</title>
<path fill="none" stroke="grey" stroke-width="2" d="M1992.6,-287.97C2032.91,-277.89 2084.13,-265.08 2126.11,-254.59"/>
<polygon fill="grey" stroke="grey" stroke-width="2" points="2127.16,-257.93 2136.01,-252.11 2125.46,-251.14 2127.16,-257.93"/>
</g>
<!-- 19&#45;&gt;30 -->
<g id="edge120" class="edge">
<title>19&#45;&gt;30</title>
<path fill="none" stroke="grey" stroke-width="2" d="M1853.29,-302.07C1703.89,-295.48 1361.99,-278.01 1248.46,-252 1181.75,-236.72 1108.75,-205.44 1063.76,-184.34"/>
<polygon fill="grey" stroke="grey" stroke-width="2" points="1065.14,-181.12 1054.6,-180 1062.14,-187.45 1065.14,-181.12"/>
</g>
<!-- 19&#45;&gt;32 -->
<g id="edge143" class="edge">
<title>19&#45;&gt;32</title>
<path fill="none" stroke="grey" stroke-width="2" d="M1880.82,-287.94C1856.12,-278 1824.79,-264.9 1797.46,-252 1766.54,-237.4 1762.2,-225.86 1729.46,-216 1573.38,-168.98 1526.58,-196.94 1364.46,-180 1346.09,-178.08 1326.5,-175.97 1307.66,-173.9"/>
<polygon fill="grey" stroke="grey" stroke-width="2" points="1307.91,-170.41 1297.58,-172.8 1307.14,-177.37 1307.91,-170.41"/>
</g>
<!-- 20&#45;&gt;1 -->
<g id="edge20" class="edge">
<title>20&#45;&gt;1</title>
<path fill="none" stroke="grey" stroke-width="2" d="M1350.78,-324.12C1347.64,-342.59 1344.97,-372.5 1354.46,-396 1387.77,-478.48 1416.52,-495.36 1493.46,-540 1534.14,-563.6 1585.23,-576.8 1626.71,-584.13"/>
<polygon fill="grey" stroke="grey" stroke-width="2" points="1626.33,-587.61 1636.77,-585.82 1627.49,-580.71 1626.33,-587.61"/>
</g>
<!-- 20&#45;&gt;6 -->
<g id="edge35" class="edge">
<title>20&#45;&gt;6</title>
<path fill="none" stroke="grey" stroke-width="2" d="M1341.46,-324.3C1334.55,-334.26 1326.48,-347.3 1321.46,-360 1303.66,-405 1295.4,-461.14 1291.85,-493.84"/>
<polygon fill="grey" stroke="grey" stroke-width="2" points="1288.34,-493.68 1290.82,-503.98 1295.31,-494.39 1288.34,-493.68"/>
</g>
<!-- 20&#45;&gt;7 -->
<g id="edge48" class="edge">
<title>20&#45;&gt;7</title>
<path fill="none" stroke="grey" stroke-width="2" d="M1432.21,-301.9C1650.91,-293.02 2258.2,-267.13 2298.46,-252 2334.67,-238.39 2368.59,-208.92 2389.86,-187.62"/>
<polygon fill="grey" stroke="grey" stroke-width="2" points="2392.63,-189.79 2397.1,-180.18 2387.62,-184.9 2392.63,-189.79"/>
</g>
<!-- 20&#45;&gt;10 -->
<g id="edge63" class="edge">
<title>20&#45;&gt;10</title>
<path fill="none" stroke="grey" stroke-width="2" d="M1293.05,-287.95C1275.62,-279.97 1258.63,-268.45 1248.46,-252 1240.05,-238.39 1238.54,-228.55 1248.46,-216 1263.37,-197.12 1313.95,-184.25 1363.17,-175.93"/>
<polygon fill="grey" stroke="grey" stroke-width="2" points="1364.01,-179.34 1373.32,-174.27 1362.88,-172.43 1364.01,-179.34"/>
</g>
<!-- 20&#45;&gt;11 -->
<g id="edge76" class="edge">
<title>20&#45;&gt;11</title>
<path fill="none" stroke="grey" stroke-width="2" d="M1432,-296.12C1508.07,-286.93 1627.2,-271.22 1729.46,-252 1798.11,-239.1 1814.24,-231.03 1882.46,-216 1935.93,-204.22 1995.83,-191.86 2044.45,-182.05"/>
<polygon fill="grey" stroke="grey" stroke-width="2" points="2045.22,-185.46 2054.33,-180.06 2043.83,-178.6 2045.22,-185.46"/>
</g>
<!-- 24 -->
<g id="node25" class="node">
<title>24</title>
<path fill="none" stroke="#d8b456" stroke-width="2" d="M1430.96,-252C1430.96,-252 1269.96,-252 1269.96,-252 1263.96,-252 1257.96,-246 1257.96,-240 1257.96,-240 1257.96,-228 1257.96,-228 1257.96,-222 1263.96,-216 1269.96,-216 1269.96,-216 1430.96,-216 1430.96,-216 1436.96,-216 1442.96,-222 1442.96,-228 1442.96,-228 1442.96,-240 1442.96,-240 1442.96,-246 1436.96,-252 1430.96,-252"/>
<text text-anchor="middle" x="1350.46" y="-231.5" font-family="sans" font-size="10.00">create_sample_set_pubescens_south</text>
</g>
<!-- 20&#45;&gt;24 -->
<g id="edge99" class="edge">
<title>20&#45;&gt;24</title>
<path fill="none" stroke="grey" stroke-width="2" d="M1353.47,-287.7C1353.03,-279.98 1352.5,-270.71 1352.01,-262.11"/>
<polygon fill="grey" stroke="grey" stroke-width="2" points="1355.5,-261.89 1351.44,-252.1 1348.51,-262.29 1355.5,-261.89"/>
</g>
<!-- 25 -->
<g id="node26" class="node">
<title>25</title>
<path fill="none" stroke="#5673d8" stroke-width="2" d="M1708.96,-252C1708.96,-252 1549.96,-252 1549.96,-252 1543.96,-252 1537.96,-246 1537.96,-240 1537.96,-240 1537.96,-228 1537.96,-228 1537.96,-222 1543.96,-216 1549.96,-216 1549.96,-216 1708.96,-216 1708.96,-216 1714.96,-216 1720.96,-222 1720.96,-228 1720.96,-228 1720.96,-240 1720.96,-240 1720.96,-246 1714.96,-252 1708.96,-252"/>
<text text-anchor="middle" x="1629.46" y="-231.5" font-family="sans" font-size="10.00">create_sample_set_pubescens_north</text>
</g>
<!-- 20&#45;&gt;25 -->
<g id="edge100" class="edge">
<title>20&#45;&gt;25</title>
<path fill="none" stroke="grey" stroke-width="2" d="M1421.38,-287.97C1460.97,-277.89 1511.28,-265.08 1552.51,-254.59"/>
<polygon fill="grey" stroke="grey" stroke-width="2" points="1553.41,-257.97 1562.24,-252.11 1551.68,-251.19 1553.41,-257.97"/>
</g>
<!-- 20&#45;&gt;30 -->
<g id="edge119" class="edge">
<title>20&#45;&gt;30</title>
<path fill="none" stroke="grey" stroke-width="2" d="M1276.73,-301.16C1224.29,-295.7 1155.12,-282.69 1101.46,-252 1074.32,-236.48 1051.24,-208.7 1036.74,-188.29"/>
<polygon fill="grey" stroke="grey" stroke-width="2" points="1039.62,-186.3 1031.06,-180.05 1033.85,-190.27 1039.62,-186.3"/>
</g>
<!-- 20&#45;&gt;32 -->
<g id="edge142" class="edge">
<title>20&#45;&gt;32</title>
<path fill="none" stroke="grey" stroke-width="2" d="M1292.86,-287.94C1273.19,-279.84 1252.82,-268.26 1238.46,-252 1223.26,-234.79 1216.31,-209.35 1213.13,-190.07"/>
<polygon fill="grey" stroke="grey" stroke-width="2" points="1216.58,-189.5 1211.72,-180.09 1209.65,-190.48 1216.58,-189.5"/>
</g>
<!-- 21&#45;&gt;1 -->
<g id="edge25" class="edge">
<title>21&#45;&gt;1</title>
<path fill="none" stroke="grey" stroke-width="2" d="M1700.2,-647.7C1700.53,-639.98 1700.93,-630.71 1701.3,-622.11"/>
<polygon fill="grey" stroke="grey" stroke-width="2" points="1704.79,-622.25 1701.72,-612.1 1697.8,-621.95 1704.79,-622.25"/>
</g>
<!-- 21&#45;&gt;6 -->
<g id="edge40" class="edge">
<title>21&#45;&gt;6</title>
<path fill="none" stroke="grey" stroke-width="2" d="M1602.19,-648C1560.38,-639.33 1511.37,-627.35 1468.46,-612 1417.76,-593.87 1362.77,-565.03 1327.31,-545.12"/>
<polygon fill="grey" stroke="grey" stroke-width="2" points="1328.72,-541.89 1318.29,-540.01 1325.27,-547.98 1328.72,-541.89"/>
</g>
<!-- 21&#45;&gt;7 -->
<g id="edge53" class="edge">
<title>21&#45;&gt;7</title>
<path fill="none" stroke="grey" stroke-width="2" d="M1797.65,-648.94C1800.61,-648.6 1803.56,-648.29 1806.46,-648 2011.84,-627.77 2534.49,-663.02 2734.46,-612 2887.07,-573.06 3001.46,-536.5 3001.46,-379 3001.46,-379 3001.46,-379 3001.46,-305 3001.46,-256.79 2981.02,-240.42 2939.46,-216 2870.06,-175.22 2649.13,-165.43 2516.37,-163.31"/>
<polygon fill="grey" stroke="grey" stroke-width="2" points="2516.23,-159.81 2506.18,-163.16 2516.12,-166.81 2516.23,-159.81"/>
</g>
<!-- 21&#45;&gt;10 -->
<g id="edge67" class="edge">
<title>21&#45;&gt;10</title>
<path fill="none" stroke="grey" stroke-width="2" d="M1797.65,-648.96C1800.62,-648.62 1803.56,-648.3 1806.46,-648 1850.22,-643.54 2567.07,-643.8 2597.46,-612 2608.51,-600.43 2599.52,-591.87 2597.46,-576 2588.94,-510.36 2595.14,-487.75 2559.46,-432 2491.73,-326.17 2438.07,-332.33 2341.46,-252 2322.29,-236.07 2321.6,-225.26 2298.46,-216 2233.44,-189.99 1789.02,-172.89 1579.86,-166.19"/>
<polygon fill="grey" stroke="grey" stroke-width="2" points="1579.89,-162.69 1569.78,-165.87 1579.66,-169.68 1579.89,-162.69"/>
</g>
<!-- 21&#45;&gt;11 -->
<g id="edge80" class="edge">
<title>21&#45;&gt;11</title>
<path fill="none" stroke="grey" stroke-width="2" d="M1797.65,-648.96C1800.62,-648.62 1803.56,-648.29 1806.46,-648 2163.65,-611.77 2259.16,-670.08 2613.46,-612 2727.56,-593.29 2793.93,-632.38 2863.46,-540 2873.08,-527.22 2867.3,-519.53 2863.46,-504 2846.06,-433.76 2771.7,-256.1 2711.46,-216 2636.98,-166.42 2399.53,-188.45 2310.46,-180 2294.56,-178.49 2277.84,-176.87 2261.33,-175.24"/>
<polygon fill="grey" stroke="grey" stroke-width="2" points="2261.39,-171.73 2251.09,-174.23 2260.7,-178.69 2261.39,-171.73"/>
</g>
<!-- 21&#45;&gt;30 -->
<g id="edge123" class="edge">
<title>21&#45;&gt;30</title>
<path fill="none" stroke="grey" stroke-width="2" d="M1601.22,-649.05C1597.93,-648.67 1594.67,-648.32 1591.46,-648 1543.32,-643.23 759.19,-642.27 721.46,-612 637.87,-544.95 659.46,-486.16 659.46,-379 659.46,-379 659.46,-379 659.46,-305 659.46,-256.79 680.84,-241.97 721.46,-216 754.65,-194.78 851.01,-180.27 925.46,-171.87"/>
<polygon fill="grey" stroke="grey" stroke-width="2" points="926.26,-175.3 935.81,-170.72 925.49,-168.34 926.26,-175.3"/>
</g>
<!-- 21&#45;&gt;32 -->
<g id="edge146" class="edge">
<title>21&#45;&gt;32</title>
<path fill="none" stroke="grey" stroke-width="2" d="M1601.11,-649.23C1404.74,-617.61 981.64,-548.72 968.46,-540 838.63,-454.13 732.7,-332.92 835.46,-216 874.73,-171.31 1036.4,-187.7 1113.01,-179.77"/>
<polygon fill="grey" stroke="grey" stroke-width="2" points="1113.76,-183.2 1123.24,-178.48 1112.88,-176.25 1113.76,-183.2"/>
</g>
<!-- 22&#45;&gt;1 -->
<g id="edge18" class="edge">
<title>22&#45;&gt;1</title>
<path fill="none" stroke="grey" stroke-width="2" d="M2063.48,-250.87C2170.83,-273.17 2340.46,-317.79 2340.46,-377 2340.46,-451 2340.46,-451 2340.46,-451 2340.46,-565.05 1947.08,-587.55 1778.1,-591.95"/>
<polygon fill="grey" stroke="grey" stroke-width="2" points="1777.95,-588.45 1768.03,-592.19 1778.12,-595.45 1777.95,-588.45"/>
</g>
<!-- 22&#45;&gt;6 -->
<g id="edge33" class="edge">
<title>22&#45;&gt;6</title>
<path fill="none" stroke="grey" stroke-width="2" d="M1990.67,-252.21C2003.37,-271.02 2018.7,-301.49 2004.46,-324 1924.51,-450.33 1843.92,-425.92 1700.46,-468 1594.81,-498.99 1468.61,-511.87 1384.17,-517.21"/>
<polygon fill="grey" stroke="grey" stroke-width="2" points="1383.86,-513.73 1374.09,-517.83 1384.28,-520.71 1383.86,-513.73"/>
</g>
<!-- 22&#45;&gt;7 -->
<g id="edge46" class="edge">
<title>22&#45;&gt;7</title>
<path fill="none" stroke="grey" stroke-width="2" d="M2063.66,-219.13C2134.18,-207.78 2234.13,-191.7 2308.97,-179.65"/>
<polygon fill="grey" stroke="grey" stroke-width="2" points="2309.58,-183.1 2318.89,-178.06 2308.47,-176.19 2309.58,-183.1"/>
</g>
<!-- 22&#45;&gt;10 -->
<g id="edge61" class="edge">
<title>22&#45;&gt;10</title>
<path fill="none" stroke="grey" stroke-width="2" d="M1891.31,-218.14C1886.63,-217.4 1881.99,-216.68 1877.46,-216 1776.74,-200.87 1661.59,-186.08 1579.71,-175.98"/>
<polygon fill="grey" stroke="grey" stroke-width="2" points="1579.99,-172.49 1569.64,-174.74 1579.14,-179.44 1579.99,-172.49"/>
</g>
<!-- 22&#45;&gt;11 -->
<g id="edge74" class="edge">
<title>22&#45;&gt;11</title>
<path fill="none" stroke="grey" stroke-width="2" d="M2017.33,-215.88C2039.62,-206.31 2067.57,-194.3 2091.21,-184.15"/>
<polygon fill="grey" stroke="grey" stroke-width="2" points="2092.91,-187.23 2100.71,-180.07 2090.14,-180.8 2092.91,-187.23"/>
</g>
<!-- 22&#45;&gt;30 -->
<g id="edge117" class="edge">
<title>22&#45;&gt;30</title>
<path fill="none" stroke="grey" stroke-width="2" d="M1891.39,-226.89C1843.68,-223.55 1783.3,-219.42 1729.46,-216 1459.54,-198.85 1388.07,-212.09 1115.39,-180.02"/>
<polygon fill="grey" stroke="grey" stroke-width="2" points="1115.53,-176.51 1105.19,-178.81 1114.71,-183.46 1115.53,-176.51"/>
</g>
<!-- 22&#45;&gt;32 -->
<g id="edge140" class="edge">
<title>22&#45;&gt;32</title>
<path fill="none" stroke="grey" stroke-width="2" d="M1891.36,-226.2C1772.69,-216.69 1552.22,-198.48 1364.46,-180 1346.08,-178.19 1326.48,-176.13 1307.64,-174.08"/>
<polygon fill="grey" stroke="grey" stroke-width="2" points="1307.89,-170.59 1297.56,-172.98 1307.12,-177.55 1307.89,-170.59"/>
</g>
<!-- 23&#45;&gt;1 -->
<g id="edge19" class="edge">
<title>23&#45;&gt;1</title>
<path fill="none" stroke="grey" stroke-width="2" d="M2239.18,-252.14C2275.61,-272.29 2330.81,-309.5 2354.46,-360 2391.29,-438.64 2357.33,-503.66 2278.46,-540 2191.4,-580.11 1913.88,-589.87 1778.37,-592.24"/>
<polygon fill="grey" stroke="grey" stroke-width="2" points="1778.01,-588.75 1768.07,-592.41 1778.13,-595.75 1778.01,-588.75"/>
</g>
<!-- 23&#45;&gt;6 -->
<g id="edge34" class="edge">
<title>23&#45;&gt;6</title>
<path fill="none" stroke="grey" stroke-width="2" d="M2183.54,-252.03C2144.22,-283.48 2055.81,-351.48 1973.46,-396 1898.02,-436.78 1877.68,-447.33 1794.46,-468 1654.32,-502.81 1486.78,-514.77 1384.26,-518.87"/>
<polygon fill="grey" stroke="grey" stroke-width="2" points="1384.1,-515.38 1374.24,-519.26 1384.37,-522.37 1384.1,-515.38"/>
</g>
<!-- 23&#45;&gt;7 -->
<g id="edge47" class="edge">
<title>23&#45;&gt;7</title>
<path fill="none" stroke="grey" stroke-width="2" d="M2255.07,-215.97C2284.26,-206.14 2321.15,-193.73 2351.87,-183.39"/>
<polygon fill="grey" stroke="grey" stroke-width="2" points="2353.25,-186.62 2361.61,-180.11 2351.02,-179.98 2353.25,-186.62"/>
</g>
<!-- 23&#45;&gt;10 -->
<g id="edge62" class="edge">
<title>23&#45;&gt;10</title>
<path fill="none" stroke="grey" stroke-width="2" d="M2119.31,-221.52C2103.74,-219.57 2087.62,-217.64 2072.46,-216 1900.57,-197.36 1700.48,-180.72 1580.02,-171.26"/>
<polygon fill="grey" stroke="grey" stroke-width="2" points="1579.93,-167.74 1569.69,-170.45 1579.39,-174.72 1579.93,-167.74"/>
</g>
<!-- 23&#45;&gt;11 -->
<g id="edge75" class="edge">
<title>23&#45;&gt;11</title>
<path fill="none" stroke="grey" stroke-width="2" d="M2188.64,-215.7C2180.89,-207.22 2171.42,-196.86 2162.93,-187.58"/>
<polygon fill="grey" stroke="grey" stroke-width="2" points="2165.43,-185.12 2156.1,-180.1 2160.26,-189.85 2165.43,-185.12"/>
</g>
<!-- 23&#45;&gt;30 -->
<g id="edge118" class="edge">
<title>23&#45;&gt;30</title>
<path fill="none" stroke="grey" stroke-width="2" d="M2119.37,-220.89C2103.79,-219 2087.66,-217.26 2072.46,-216 1651.16,-181.03 1539.78,-225.33 1115.27,-179.98"/>
<polygon fill="grey" stroke="grey" stroke-width="2" points="1115.5,-176.48 1105.18,-178.89 1114.75,-183.44 1115.5,-176.48"/>
</g>
<!-- 23&#45;&gt;32 -->
<g id="edge141" class="edge">
<title>23&#45;&gt;32</title>
<path fill="none" stroke="grey" stroke-width="2" d="M2119.36,-221.06C2103.78,-219.15 2087.65,-217.36 2072.46,-216 1758.64,-187.86 1678.51,-205.3 1364.46,-180 1346.05,-178.52 1326.44,-176.61 1307.59,-174.61"/>
<polygon fill="grey" stroke="grey" stroke-width="2" points="1307.83,-171.11 1297.52,-173.52 1307.08,-178.07 1307.83,-171.11"/>
</g>
<!-- 24&#45;&gt;1 -->
<g id="edge26" class="edge">
<title>24&#45;&gt;1</title>
<path fill="none" stroke="grey" stroke-width="2" d="M1381.86,-252.14C1434.91,-282.41 1543.06,-349.95 1610.46,-432 1645.8,-475.02 1675.37,-533.38 1690.85,-566.73"/>
<polygon fill="grey" stroke="grey" stroke-width="2" points="1687.67,-568.2 1695.01,-575.84 1694.03,-565.29 1687.67,-568.2"/>
</g>
<!-- 24&#45;&gt;6 -->
<g id="edge41" class="edge">
<title>24&#45;&gt;6</title>
<path fill="none" stroke="grey" stroke-width="2" d="M1306.9,-252.13C1291.6,-260.51 1276.08,-272.26 1267.46,-288 1230.79,-354.92 1259.76,-449.04 1277.8,-494.45"/>
<polygon fill="grey" stroke="grey" stroke-width="2" points="1274.63,-495.96 1281.67,-503.88 1281.11,-493.3 1274.63,-495.96"/>
</g>
<!-- 24&#45;&gt;7 -->
<g id="edge54" class="edge">
<title>24&#45;&gt;7</title>
<path fill="none" stroke="grey" stroke-width="2" d="M1443.23,-223.32C1470.65,-220.68 1500.75,-218 1528.46,-216 1853.34,-192.51 1935.78,-206.11 2260.46,-180 2276.13,-178.74 2292.68,-177.15 2308.87,-175.46"/>
<polygon fill="grey" stroke="grey" stroke-width="2" points="2309.32,-178.93 2318.89,-174.39 2308.58,-171.97 2309.32,-178.93"/>
</g>
<!-- 24&#45;&gt;10 -->
<g id="edge68" class="edge">
<title>24&#45;&gt;10</title>
<path fill="none" stroke="grey" stroke-width="2" d="M1380.06,-215.88C1396.03,-206.64 1415.92,-195.13 1433.06,-185.21"/>
<polygon fill="grey" stroke="grey" stroke-width="2" points="1434.84,-188.23 1441.74,-180.19 1431.34,-182.17 1434.84,-188.23"/>
</g>
<!-- 24&#45;&gt;11 -->
<g id="edge81" class="edge">
<title>24&#45;&gt;11</title>
<path fill="none" stroke="grey" stroke-width="2" d="M1443.29,-223.98C1470.71,-221.35 1500.79,-218.52 1528.46,-216 1698.91,-200.48 1896.17,-183.59 2019.64,-173.15"/>
<polygon fill="grey" stroke="grey" stroke-width="2" points="2020.2,-176.61 2029.87,-172.28 2019.61,-169.64 2020.2,-176.61"/>
</g>
<!-- 24&#45;&gt;30 -->
<g id="edge124" class="edge">
<title>24&#45;&gt;30</title>
<path fill="none" stroke="grey" stroke-width="2" d="M1270.15,-215.97C1221.95,-205.74 1160.52,-192.71 1110.65,-182.13"/>
<polygon fill="grey" stroke="grey" stroke-width="2" points="1111.35,-178.7 1100.84,-180.05 1109.89,-185.55 1111.35,-178.7"/>
</g>
<!-- 24&#45;&gt;32 -->
<g id="edge147" class="edge">
<title>24&#45;&gt;32</title>
<path fill="none" stroke="grey" stroke-width="2" d="M1316.21,-215.88C1297.4,-206.47 1273.87,-194.71 1253.79,-184.67"/>
<polygon fill="grey" stroke="grey" stroke-width="2" points="1255.35,-181.53 1244.84,-180.19 1252.22,-187.79 1255.35,-181.53"/>
</g>
<!-- 25&#45;&gt;1 -->
<g id="edge28" class="edge">
<title>25&#45;&gt;1</title>
<path fill="none" stroke="grey" stroke-width="2" d="M1665.42,-252.07C1702.8,-272.05 1759.17,-309.01 1783.46,-360 1818.07,-432.68 1758.19,-524.24 1723.91,-567.78"/>
<polygon fill="grey" stroke="grey" stroke-width="2" points="1720.98,-565.84 1717.43,-575.83 1726.43,-570.23 1720.98,-565.84"/>
</g>
<!-- 25&#45;&gt;6 -->
<g id="edge43" class="edge">
<title>25&#45;&gt;6</title>
<path fill="none" stroke="grey" stroke-width="2" d="M1622.28,-252.08C1608.19,-283.91 1574.16,-352.94 1527.46,-396 1525.45,-397.85 1399.12,-463.83 1331.36,-499.17"/>
<polygon fill="grey" stroke="grey" stroke-width="2" points="1329.45,-496.21 1322.2,-503.94 1332.69,-502.42 1329.45,-496.21"/>
</g>
<!-- 25&#45;&gt;7 -->
<g id="edge56" class="edge">
<title>25&#45;&gt;7</title>
<path fill="none" stroke="grey" stroke-width="2" d="M1720.96,-226.11C1843.79,-216.68 2068.71,-198.77 2260.46,-180 2276.11,-178.47 2292.65,-176.74 2308.83,-174.98"/>
<polygon fill="grey" stroke="grey" stroke-width="2" points="2309.29,-178.45 2318.85,-173.88 2308.53,-171.49 2309.29,-178.45"/>
</g>
<!-- 25&#45;&gt;10 -->
<g id="edge70" class="edge">
<title>25&#45;&gt;10</title>
<path fill="none" stroke="grey" stroke-width="2" d="M1590.81,-215.88C1569.21,-206.31 1542.11,-194.3 1519.19,-184.15"/>
<polygon fill="grey" stroke="grey" stroke-width="2" points="1520.54,-180.92 1509.98,-180.07 1517.71,-187.32 1520.54,-180.92"/>
</g>
<!-- 25&#45;&gt;11 -->
<g id="edge83" class="edge">
<title>25&#45;&gt;11</title>
<path fill="none" stroke="grey" stroke-width="2" d="M1721.11,-220.45C1804.44,-209.03 1927.98,-192.11 2019.4,-179.58"/>
<polygon fill="grey" stroke="grey" stroke-width="2" points="2020.11,-183.02 2029.55,-178.19 2019.16,-176.08 2020.11,-183.02"/>
</g>
<!-- 25&#45;&gt;30 -->
<g id="edge126" class="edge">
<title>25&#45;&gt;30</title>
<path fill="none" stroke="grey" stroke-width="2" d="M1537.92,-223.96C1408.66,-211.15 1181.78,-188.43 1114.91,-179.93"/>
<polygon fill="grey" stroke="grey" stroke-width="2" points="1115.34,-176.45 1104.96,-178.6 1114.41,-183.39 1115.34,-176.45"/>
</g>
<!-- 25&#45;&gt;32 -->
<g id="edge149" class="edge">
<title>25&#45;&gt;32</title>
<path fill="none" stroke="grey" stroke-width="2" d="M1537.77,-217.68C1469.7,-206.31 1377.06,-190.83 1307.71,-179.25"/>
<polygon fill="grey" stroke="grey" stroke-width="2" points="1308.09,-175.76 1297.65,-177.57 1306.93,-182.67 1308.09,-175.76"/>
</g>
<!-- 26 -->
<g id="node27" class="node">
<title>26</title>
<path fill="none" stroke="#d8a456" stroke-width="2" d="M1446.96,-684C1446.96,-684 1307.96,-684 1307.96,-684 1301.96,-684 1295.96,-678 1295.96,-672 1295.96,-672 1295.96,-660 1295.96,-660 1295.96,-654 1301.96,-648 1307.96,-648 1307.96,-648 1446.96,-648 1446.96,-648 1452.96,-648 1458.96,-654 1458.96,-660 1458.96,-660 1458.96,-672 1458.96,-672 1458.96,-678 1452.96,-684 1446.96,-684"/>
<text text-anchor="middle" x="1377.46" y="-663.5" font-family="sans" font-size="10.00">create_sample_set_pendula_luis</text>
</g>
<!-- 26&#45;&gt;1 -->
<g id="edge24" class="edge">
<title>26&#45;&gt;1</title>
<path fill="none" stroke="grey" stroke-width="2" d="M1456.55,-647.97C1508.33,-636.81 1575.63,-622.32 1626.73,-611.31"/>
<polygon fill="grey" stroke="grey" stroke-width="2" points="1627.68,-614.69 1636.72,-609.16 1626.21,-607.84 1627.68,-614.69"/>
</g>
<!-- 26&#45;&gt;6 -->
<g id="edge39" class="edge">
<title>26&#45;&gt;6</title>
<path fill="none" stroke="grey" stroke-width="2" d="M1324.23,-647.96C1307.56,-639.84 1291.04,-628.23 1281.46,-612 1270.41,-593.29 1273.85,-568.41 1279.23,-549.71"/>
<polygon fill="grey" stroke="grey" stroke-width="2" points="1282.61,-550.63 1282.33,-540.04 1275.94,-548.49 1282.61,-550.63"/>
</g>
<!-- 26&#45;&gt;7 -->
<g id="edge52" class="edge">
<title>26&#45;&gt;7</title>
<path fill="none" stroke="grey" stroke-width="2" d="M1459.19,-650.28C1465.69,-649.4 1472.18,-648.62 1478.46,-648 1606.23,-635.32 2510.84,-650.1 2633.46,-612 2689.97,-594.44 2702.31,-580.5 2745.46,-540 2853.6,-438.49 2923.44,-327.36 2825.46,-216 2805.29,-193.08 2631.96,-177.34 2516.34,-169.27"/>
<polygon fill="grey" stroke="grey" stroke-width="2" points="2516.26,-165.76 2506.04,-168.56 2515.78,-172.74 2516.26,-165.76"/>
</g>
<!-- 26&#45;&gt;10 -->
<g id="edge66" class="edge">
<title>26&#45;&gt;10</title>
<path fill="none" stroke="grey" stroke-width="2" d="M1298.21,-647.98C1204.61,-626.09 1057.53,-585.43 1025.46,-540 1016.23,-526.93 1021.72,-519.56 1025.46,-504 1059.06,-364.27 1056.94,-301.49 1172.46,-216 1188,-204.5 1283.95,-188.77 1363.03,-177.44"/>
<polygon fill="grey" stroke="grey" stroke-width="2" points="1363.66,-180.88 1373.07,-176.01 1362.68,-173.95 1363.66,-180.88"/>
</g>
<!-- 26&#45;&gt;11 -->
<g id="edge79" class="edge">
<title>26&#45;&gt;11</title>
<path fill="none" stroke="grey" stroke-width="2" d="M1459.19,-650.29C1465.7,-649.41 1472.18,-648.63 1478.46,-648 1540.35,-641.82 2546.08,-647.06 2597.46,-612 2690.54,-548.48 2697.46,-491.69 2697.46,-379 2697.46,-379 2697.46,-379 2697.46,-305 2697.46,-256.79 2676.94,-240.56 2635.46,-216 2631.43,-213.62 2406.55,-190.23 2261.31,-175.33"/>
<polygon fill="grey" stroke="grey" stroke-width="2" points="2261.3,-171.81 2250.99,-174.27 2260.58,-178.77 2261.3,-171.81"/>
</g>
<!-- 26&#45;&gt;30 -->
<g id="edge122" class="edge">
<title>26&#45;&gt;30</title>
<path fill="none" stroke="grey" stroke-width="2" d="M1295.68,-649.21C1292.57,-648.77 1289.49,-648.37 1286.46,-648 1215.42,-639.41 705.67,-647.35 643.46,-612 601.98,-588.43 583.46,-570.7 583.46,-523 583.46,-523 583.46,-523 583.46,-377 583.46,-301.53 577.68,-262.08 637.46,-216 648.82,-207.24 815.72,-186.56 925.42,-173.77"/>
<polygon fill="grey" stroke="grey" stroke-width="2" points="925.99,-177.23 935.52,-172.6 925.18,-170.27 925.99,-177.23"/>
</g>
<!-- 26&#45;&gt;32 -->
<g id="edge145" class="edge">
<title>26&#45;&gt;32</title>
<path fill="none" stroke="grey" stroke-width="2" d="M1295.68,-649.22C1292.57,-648.78 1289.49,-648.37 1286.46,-648 1219.84,-639.82 737.64,-651.62 683.46,-612 621.56,-566.74 621.46,-527.68 621.46,-451 621.46,-451 621.46,-451 621.46,-305 621.46,-138.89 956.5,-196.99 1113.2,-179.83"/>
<polygon fill="grey" stroke="grey" stroke-width="2" points="1113.76,-183.29 1123.26,-178.59 1112.9,-176.34 1113.76,-183.29"/>
</g>
<!-- 27&#45;&gt;0 -->
<g id="edge11" class="edge">
<title>27&#45;&gt;0</title>
<path fill="none" stroke="grey" stroke-width="2" d="M169.78,-143.76C172.36,-123.11 179.98,-89.17 202.46,-72 239.23,-43.9 541.09,-27.45 673.55,-21.53"/>
<polygon fill="grey" stroke="grey" stroke-width="2" points="673.71,-25.03 683.55,-21.09 673.4,-18.03 673.71,-25.03"/>
</g>
<!-- 28&#45;&gt;0 -->
<g id="edge1" class="edge">
<title>28&#45;&gt;0</title>
<path fill="none" stroke="grey" stroke-width="2" d="M78.75,-143.7C98.51,-122.65 135.08,-87.96 174.46,-72 263.64,-35.86 547.03,-23.97 673.49,-20.4"/>
<polygon fill="grey" stroke="grey" stroke-width="2" points="673.88,-23.89 683.78,-20.11 673.68,-16.89 673.88,-23.89"/>
</g>
<!-- 29&#45;&gt;0 -->
<g id="edge2" class="edge">
<title>29&#45;&gt;0</title>
<path fill="none" stroke="grey" stroke-width="2" d="M1077.67,-82.54C1013.77,-70.68 876.98,-45.28 797.05,-30.44"/>
<polygon fill="grey" stroke="grey" stroke-width="2" points="797.58,-26.98 787.11,-28.59 796.31,-33.86 797.58,-26.98"/>
</g>
<!-- 30&#45;&gt;29 -->
<g id="edge108" class="edge">
<title>30&#45;&gt;29</title>
<path fill="none" stroke="grey" stroke-width="2" d="M1043.2,-143.7C1054.9,-134.8 1069.32,-123.82 1081.97,-114.2"/>
<polygon fill="grey" stroke="grey" stroke-width="2" points="1084.14,-116.94 1089.98,-108.1 1079.9,-111.37 1084.14,-116.94"/>
</g>
<!-- 30&#45;&gt;33 -->
<g id="edge153" class="edge">
<title>30&#45;&gt;33</title>
<path fill="none" stroke="grey" stroke-width="2" d="M935.71,-152.28C811.84,-139.52 581.43,-115.81 446.49,-101.92"/>
<polygon fill="grey" stroke="grey" stroke-width="2" points="446.45,-98.39 436.14,-100.85 445.73,-105.36 446.45,-98.39"/>
</g>
<!-- 30&#45;&gt;34 -->
<g id="edge156" class="edge">
<title>30&#45;&gt;34</title>
<path fill="none" stroke="grey" stroke-width="2" d="M935.78,-152.15C861.74,-143.69 751.23,-129.35 645.96,-107.95"/>
<polygon fill="grey" stroke="grey" stroke-width="2" points="646.61,-104.51 636.11,-105.93 645.2,-111.37 646.61,-104.51"/>
</g>
<!-- 30&#45;&gt;35 -->
<g id="edge159" class="edge">
<title>30&#45;&gt;35</title>
<path fill="none" stroke="grey" stroke-width="2" d="M951.1,-143.97C909.98,-133.87 857.72,-121.03 814.94,-110.52"/>
<polygon fill="grey" stroke="grey" stroke-width="2" points="815.67,-107.1 805.12,-108.11 814,-113.9 815.67,-107.1"/>
</g>
<!-- 31&#45;&gt;0 -->
<g id="edge9" class="edge">
<title>31&#45;&gt;0</title>
<path fill="none" stroke="grey" stroke-width="2" d="M872.65,-74.83C848.06,-64.83 814.7,-51.25 787.03,-39.99"/>
<polygon fill="grey" stroke="grey" stroke-width="2" points="788.09,-36.64 777.51,-36.11 785.45,-43.12 788.09,-36.64"/>
</g>
<!-- 32&#45;&gt;31 -->
<g id="edge133" class="edge">
<title>32&#45;&gt;31</title>
<path fill="none" stroke="grey" stroke-width="2" d="M1136.72,-143.97C1078.99,-130.63 1000.59,-112.52 952.05,-101.3"/>
<polygon fill="grey" stroke="grey" stroke-width="2" points="952.7,-97.86 942.17,-99.02 951.12,-104.68 952.7,-97.86"/>
</g>
<!-- 33&#45;&gt;0 -->
<g id="edge5" class="edge">
<title>33&#45;&gt;0</title>
<path fill="none" stroke="grey" stroke-width="2" d="M436.08,-72.05C510.09,-58.94 610.39,-41.16 674.02,-29.89"/>
<polygon fill="grey" stroke="grey" stroke-width="2" points="674.67,-33.33 683.91,-28.13 673.45,-26.43 674.67,-33.33"/>
</g>
<!-- 34&#45;&gt;0 -->
<g id="edge3" class="edge">
<title>34&#45;&gt;0</title>
<path fill="none" stroke="grey" stroke-width="2" d="M620.64,-71.88C641.33,-62.35 667.26,-50.41 689.24,-40.28"/>
<polygon fill="grey" stroke="grey" stroke-width="2" points="690.78,-43.43 698.4,-36.07 687.85,-37.07 690.78,-43.43"/>
</g>
<!-- 35&#45;&gt;0 -->
<g id="edge7" class="edge">
<title>35&#45;&gt;0</title>
<path fill="none" stroke="grey" stroke-width="2" d="M735.46,-71.7C735.46,-63.98 735.46,-54.71 735.46,-46.11"/>
<polygon fill="grey" stroke="grey" stroke-width="2" points="738.96,-46.1 735.46,-36.1 731.96,-46.1 738.96,-46.1"/>
</g>
</g>
</svg>
