<?xml version="1.0" encoding="utf-8" standalone="no"?>
<!DOCTYPE svg PUBLIC "-//W3C//DTD SVG 1.1//EN"
  "http://www.w3.org/Graphics/SVG/1.1/DTD/svg11.dtd">
<svg height="323.598125pt" version="1.1" viewBox="0 0 438.511194 323.598125" width="438.511194pt" xmlns="http://www.w3.org/2000/svg" xmlns:xlink="http://www.w3.org/1999/xlink">
 <metadata>
  <rdf:RDF xmlns:cc="http://creativecommons.org/ns#" xmlns:dc="http://purl.org/dc/elements/1.1/" xmlns:rdf="http://www.w3.org/1999/02/22-rdf-syntax-ns#">
   <cc:Work>
    <dc:type rdf:resource="http://purl.org/dc/dcmitype/StillImage"/>
    <dc:date>2022-01-12T14:44:11.365775</dc:date>
    <dc:format>image/svg+xml</dc:format>
    <dc:creator>
     <cc:Agent>
      <dc:title>Matplotlib v3.4.3, https://matplotlib.org/</dc:title>
     </cc:Agent>
    </dc:creator>
   </cc:Work>
  </rdf:RDF>
 </metadata>
 <defs>
  <style type="text/css">*{stroke-linecap:butt;stroke-linejoin:round;}</style>
 </defs>
 <g id="figure_1">
  <g id="patch_1">
   <path d="M 0 323.598125 
L 438.511194 323.598125 
L 438.511194 0 
L 0 0 
z
" style="fill:#ffffff;"/>
  </g>
  <g id="axes_1">
   <g id="patch_2">
    <path d="M 58.853125 306.92 
L 432.950323 306.92 
L 432.950323 0 
L 58.853125 0 
z
" style="fill:#ffffff;"/>
   </g>
   <g id="patch_3">
    <path clip-path="url(#p3dff20f46f)" d="M 75.857543 306.92 
L 82.65931 306.92 
L 82.65931 247.341748 
L 75.857543 247.341748 
z
" style="fill:#a6cee3;stroke:#b9c8d0;stroke-linejoin:miter;"/>
   </g>
   <g id="patch_4">
    <path clip-path="url(#p3dff20f46f)" d="M 82.65931 306.92 
L 89.461078 306.92 
L 89.461078 301.778529 
L 82.65931 301.778529 
z
" style="fill:#a6cee3;stroke:#b9c8d0;stroke-linejoin:miter;"/>
   </g>
   <g id="patch_5">
    <path clip-path="url(#p3dff20f46f)" d="M 89.461078 306.92 
L 96.262845 306.92 
L 96.262845 303.566524 
L 89.461078 303.566524 
z
" style="fill:#a6cee3;stroke:#b9c8d0;stroke-linejoin:miter;"/>
   </g>
   <g id="patch_6">
    <path clip-path="url(#p3dff20f46f)" d="M 96.262845 306.92 
L 103.064612 306.92 
L 103.064612 303.62807 
L 96.262845 303.62807 
z
" style="fill:#a6cee3;stroke:#b9c8d0;stroke-linejoin:miter;"/>
   </g>
   <g id="patch_7">
    <path clip-path="url(#p3dff20f46f)" d="M 103.064612 306.92 
L 109.866379 306.92 
L 109.866379 305.622797 
L 103.064612 305.622797 
z
" style="fill:#a6cee3;stroke:#b9c8d0;stroke-linejoin:miter;"/>
   </g>
   <g id="patch_8">
    <path clip-path="url(#p3dff20f46f)" d="M 109.866379 306.92 
L 116.668147 306.92 
L 116.668147 304.551262 
L 109.866379 304.551262 
z
" style="fill:#a6cee3;stroke:#b9c8d0;stroke-linejoin:miter;"/>
   </g>
   <g id="patch_9">
    <path clip-path="url(#p3dff20f46f)" d="M 116.668147 306.92 
L 123.469914 306.92 
L 123.469914 305.61964 
L 116.668147 305.61964 
z
" style="fill:#a6cee3;stroke:#b9c8d0;stroke-linejoin:miter;"/>
   </g>
   <g id="patch_10">
    <path clip-path="url(#p3dff20f46f)" d="M 123.469914 306.92 
L 130.271681 306.92 
L 130.271681 306.26982 
L 123.469914 306.26982 
z
" style="fill:#a6cee3;stroke:#b9c8d0;stroke-linejoin:miter;"/>
   </g>
   <g id="patch_11">
    <path clip-path="url(#p3dff20f46f)" d="M 130.271681 306.92 
L 137.073448 306.92 
L 137.073448 305.130427 
L 130.271681 305.130427 
z
" style="fill:#a6cee3;stroke:#b9c8d0;stroke-linejoin:miter;"/>
   </g>
   <g id="patch_12">
    <path clip-path="url(#p3dff20f46f)" d="M 137.073448 306.92 
L 143.875216 306.92 
L 143.875216 305.379768 
L 137.073448 305.379768 
z
" style="fill:#a6cee3;stroke:#b9c8d0;stroke-linejoin:miter;"/>
   </g>
   <g id="patch_13">
    <path clip-path="url(#p3dff20f46f)" d="M 143.875216 306.92 
L 150.676983 306.92 
L 150.676983 306.034682 
L 143.875216 306.034682 
z
" style="fill:#a6cee3;stroke:#b9c8d0;stroke-linejoin:miter;"/>
   </g>
   <g id="patch_14">
    <path clip-path="url(#p3dff20f46f)" d="M 150.676983 306.92 
L 157.47875 306.92 
L 157.47875 306.378709 
L 150.676983 306.378709 
z
" style="fill:#a6cee3;stroke:#b9c8d0;stroke-linejoin:miter;"/>
   </g>
   <g id="patch_15">
    <path clip-path="url(#p3dff20f46f)" d="M 157.47875 306.92 
L 164.280517 306.92 
L 164.280517 306.36135 
L 157.47875 306.36135 
z
" style="fill:#a6cee3;stroke:#b9c8d0;stroke-linejoin:miter;"/>
   </g>
   <g id="patch_16">
    <path clip-path="url(#p3dff20f46f)" d="M 164.280517 306.92 
L 171.082284 306.92 
L 171.082284 305.315066 
L 164.280517 305.315066 
z
" style="fill:#a6cee3;stroke:#b9c8d0;stroke-linejoin:miter;"/>
   </g>
   <g id="patch_17">
    <path clip-path="url(#p3dff20f46f)" d="M 171.082284 306.92 
L 177.884052 306.92 
L 177.884052 305.221957 
L 171.082284 305.221957 
z
" style="fill:#a6cee3;stroke:#b9c8d0;stroke-linejoin:miter;"/>
   </g>
   <g id="patch_18">
    <path clip-path="url(#p3dff20f46f)" d="M 177.884052 306.92 
L 184.685819 306.92 
L 184.685819 305.67014 
L 177.884052 305.67014 
z
" style="fill:#a6cee3;stroke:#b9c8d0;stroke-linejoin:miter;"/>
   </g>
   <g id="patch_19">
    <path clip-path="url(#p3dff20f46f)" d="M 184.685819 306.92 
L 191.487586 306.92 
L 191.487586 306.072557 
L 184.685819 306.072557 
z
" style="fill:#a6cee3;stroke:#b9c8d0;stroke-linejoin:miter;"/>
   </g>
   <g id="patch_20">
    <path clip-path="url(#p3dff20f46f)" d="M 191.487586 306.92 
L 198.289353 306.92 
L 198.289353 306.552301 
L 191.487586 306.552301 
z
" style="fill:#a6cee3;stroke:#b9c8d0;stroke-linejoin:miter;"/>
   </g>
   <g id="patch_21">
    <path clip-path="url(#p3dff20f46f)" d="M 198.289353 306.92 
L 205.091121 306.92 
L 205.091121 306.624894 
L 198.289353 306.624894 
z
" style="fill:#a6cee3;stroke:#b9c8d0;stroke-linejoin:miter;"/>
   </g>
   <g id="patch_22">
    <path clip-path="url(#p3dff20f46f)" d="M 205.091121 306.92 
L 211.892888 306.92 
L 211.892888 306.650144 
L 205.091121 306.650144 
z
" style="fill:#a6cee3;stroke:#b9c8d0;stroke-linejoin:miter;"/>
   </g>
   <g id="patch_23">
    <path clip-path="url(#p3dff20f46f)" d="M 211.892888 306.92 
L 218.694655 306.92 
L 218.694655 306.497067 
L 211.892888 306.497067 
z
" style="fill:#a6cee3;stroke:#b9c8d0;stroke-linejoin:miter;"/>
   </g>
   <g id="patch_24">
    <path clip-path="url(#p3dff20f46f)" d="M 218.694655 306.92 
L 225.496422 306.92 
L 225.496422 306.632785 
L 218.694655 306.632785 
z
" style="fill:#a6cee3;stroke:#b9c8d0;stroke-linejoin:miter;"/>
   </g>
   <g id="patch_25">
    <path clip-path="url(#p3dff20f46f)" d="M 225.496422 306.92 
L 232.29819 306.92 
L 232.29819 305.100443 
L 225.496422 305.100443 
z
" style="fill:#a6cee3;stroke:#b9c8d0;stroke-linejoin:miter;"/>
   </g>
   <g id="patch_26">
    <path clip-path="url(#p3dff20f46f)" d="M 232.29819 306.92 
L 239.099957 306.92 
L 239.099957 305.363987 
L 232.29819 305.363987 
z
" style="fill:#a6cee3;stroke:#b9c8d0;stroke-linejoin:miter;"/>
   </g>
   <g id="patch_27">
    <path clip-path="url(#p3dff20f46f)" d="M 239.099957 306.92 
L 245.901724 306.92 
L 245.901724 306.039417 
L 239.099957 306.039417 
z
" style="fill:#a6cee3;stroke:#b9c8d0;stroke-linejoin:miter;"/>
   </g>
   <g id="patch_28">
    <path clip-path="url(#p3dff20f46f)" d="M 245.901724 306.92 
L 252.703491 306.92 
L 252.703491 305.556516 
L 245.901724 305.556516 
z
" style="fill:#a6cee3;stroke:#b9c8d0;stroke-linejoin:miter;"/>
   </g>
   <g id="patch_29">
    <path clip-path="url(#p3dff20f46f)" d="M 252.703491 306.92 
L 259.505259 306.92 
L 259.505259 14.615238 
L 252.703491 14.615238 
z
" style="fill:#a6cee3;stroke:#b9c8d0;stroke-linejoin:miter;"/>
   </g>
   <g id="patch_30">
    <path clip-path="url(#p3dff20f46f)" d="M 259.505259 306.92 
L 266.307026 306.92 
L 266.307026 279.206873 
L 259.505259 279.206873 
z
" style="fill:#a6cee3;stroke:#b9c8d0;stroke-linejoin:miter;"/>
   </g>
   <g id="patch_31">
    <path clip-path="url(#p3dff20f46f)" d="M 266.307026 306.92 
L 273.108793 306.92 
L 273.108793 297.897966 
L 266.307026 297.897966 
z
" style="fill:#a6cee3;stroke:#b9c8d0;stroke-linejoin:miter;"/>
   </g>
   <g id="patch_32">
    <path clip-path="url(#p3dff20f46f)" d="M 273.108793 306.92 
L 279.91056 306.92 
L 279.91056 299.491853 
L 273.108793 299.491853 
z
" style="fill:#a6cee3;stroke:#b9c8d0;stroke-linejoin:miter;"/>
   </g>
   <g id="patch_33">
    <path clip-path="url(#p3dff20f46f)" d="M 279.91056 306.92 
L 286.712328 306.92 
L 286.712328 301.01946 
L 279.91056 301.01946 
z
" style="fill:#a6cee3;stroke:#b9c8d0;stroke-linejoin:miter;"/>
   </g>
   <g id="patch_34">
    <path clip-path="url(#p3dff20f46f)" d="M 286.712328 306.92 
L 293.514095 306.92 
L 293.514095 301.816404 
L 286.712328 301.816404 
z
" style="fill:#a6cee3;stroke:#b9c8d0;stroke-linejoin:miter;"/>
   </g>
   <g id="patch_35">
    <path clip-path="url(#p3dff20f46f)" d="M 293.514095 306.92 
L 300.315862 306.92 
L 300.315862 302.842173 
L 293.514095 302.842173 
z
" style="fill:#a6cee3;stroke:#b9c8d0;stroke-linejoin:miter;"/>
   </g>
   <g id="patch_36">
    <path clip-path="url(#p3dff20f46f)" d="M 300.315862 306.92 
L 307.117629 306.92 
L 307.117629 303.350323 
L 300.315862 303.350323 
z
" style="fill:#a6cee3;stroke:#b9c8d0;stroke-linejoin:miter;"/>
   </g>
   <g id="patch_37">
    <path clip-path="url(#p3dff20f46f)" d="M 307.117629 306.92 
L 313.919397 306.92 
L 313.919397 303.972097 
L 307.117629 303.972097 
z
" style="fill:#a6cee3;stroke:#b9c8d0;stroke-linejoin:miter;"/>
   </g>
   <g id="patch_38">
    <path clip-path="url(#p3dff20f46f)" d="M 313.919397 306.92 
L 320.721164 306.92 
L 320.721164 305.338737 
L 313.919397 305.338737 
z
" style="fill:#a6cee3;stroke:#b9c8d0;stroke-linejoin:miter;"/>
   </g>
   <g id="patch_39">
    <path clip-path="url(#p3dff20f46f)" d="M 320.721164 306.92 
L 327.522931 306.92 
L 327.522931 304.28614 
L 320.721164 304.28614 
z
" style="fill:#a6cee3;stroke:#b9c8d0;stroke-linejoin:miter;"/>
   </g>
   <g id="patch_40">
    <path clip-path="url(#p3dff20f46f)" d="M 327.522931 306.92 
L 334.324698 306.92 
L 334.324698 304.759572 
L 327.522931 304.759572 
z
" style="fill:#a6cee3;stroke:#b9c8d0;stroke-linejoin:miter;"/>
   </g>
   <g id="patch_41">
    <path clip-path="url(#p3dff20f46f)" d="M 334.324698 306.92 
L 341.126465 306.92 
L 341.126465 305.723795 
L 334.324698 305.723795 
z
" style="fill:#a6cee3;stroke:#b9c8d0;stroke-linejoin:miter;"/>
   </g>
   <g id="patch_42">
    <path clip-path="url(#p3dff20f46f)" d="M 341.126465 306.92 
L 347.928233 306.92 
L 347.928233 305.065725 
L 341.126465 305.065725 
z
" style="fill:#a6cee3;stroke:#b9c8d0;stroke-linejoin:miter;"/>
   </g>
   <g id="patch_43">
    <path clip-path="url(#p3dff20f46f)" d="M 347.928233 306.92 
L 354.73 306.92 
L 354.73 305.128849 
L 347.928233 305.128849 
z
" style="fill:#a6cee3;stroke:#b9c8d0;stroke-linejoin:miter;"/>
   </g>
   <g id="patch_44">
    <path clip-path="url(#p3dff20f46f)" d="M 354.73 306.92 
L 361.531767 306.92 
L 361.531767 305.419221 
L 354.73 305.419221 
z
" style="fill:#a6cee3;stroke:#b9c8d0;stroke-linejoin:miter;"/>
   </g>
   <g id="patch_45">
    <path clip-path="url(#p3dff20f46f)" d="M 361.531767 306.92 
L 368.333534 306.92 
L 368.333534 305.946308 
L 361.531767 305.946308 
z
" style="fill:#a6cee3;stroke:#b9c8d0;stroke-linejoin:miter;"/>
   </g>
   <g id="patch_46">
    <path clip-path="url(#p3dff20f46f)" d="M 368.333534 306.92 
L 375.135302 306.92 
L 375.135302 306.579129 
L 368.333534 306.579129 
z
" style="fill:#a6cee3;stroke:#b9c8d0;stroke-linejoin:miter;"/>
   </g>
   <g id="patch_47">
    <path clip-path="url(#p3dff20f46f)" d="M 375.135302 306.92 
L 381.937069 306.92 
L 381.937069 306.486021 
L 375.135302 306.486021 
z
" style="fill:#a6cee3;stroke:#b9c8d0;stroke-linejoin:miter;"/>
   </g>
   <g id="patch_48">
    <path clip-path="url(#p3dff20f46f)" d="M 381.937069 306.92 
L 388.738836 306.92 
L 388.738836 306.585441 
L 381.937069 306.585441 
z
" style="fill:#a6cee3;stroke:#b9c8d0;stroke-linejoin:miter;"/>
   </g>
   <g id="patch_49">
    <path clip-path="url(#p3dff20f46f)" d="M 388.738836 306.92 
L 395.540603 306.92 
L 395.540603 306.700643 
L 388.738836 306.700643 
z
" style="fill:#a6cee3;stroke:#b9c8d0;stroke-linejoin:miter;"/>
   </g>
   <g id="patch_50">
    <path clip-path="url(#p3dff20f46f)" d="M 395.540603 306.92 
L 402.342371 306.92 
L 402.342371 306.752721 
L 395.540603 306.752721 
z
" style="fill:#a6cee3;stroke:#b9c8d0;stroke-linejoin:miter;"/>
   </g>
   <g id="patch_51">
    <path clip-path="url(#p3dff20f46f)" d="M 402.342371 306.92 
L 409.144138 306.92 
L 409.144138 306.793751 
L 402.342371 306.793751 
z
" style="fill:#a6cee3;stroke:#b9c8d0;stroke-linejoin:miter;"/>
   </g>
   <g id="patch_52">
    <path clip-path="url(#p3dff20f46f)" d="M 409.144138 306.92 
L 415.945905 306.92 
L 415.945905 306.732205 
L 409.144138 306.732205 
z
" style="fill:#a6cee3;stroke:#b9c8d0;stroke-linejoin:miter;"/>
   </g>
   <g id="matplotlib.axis_1">
    <g id="xtick_1">
     <g id="line2d_1">
      <defs>
       <path d="M 0 0 
L 0 3.5 
" id="m70cb974721" style="stroke:#000000;stroke-width:0.8;"/>
      </defs>
      <g>
       <use style="stroke:#000000;stroke-width:0.8;" x="75.857543" xlink:href="#m70cb974721" y="306.92"/>
      </g>
     </g>
     <g id="text_1">
      <!-- 0.0 -->
      <g transform="translate(67.905981 321.518437)scale(0.1 -0.1)">
       <defs>
        <path d="M 2034 4250 
Q 1547 4250 1301 3770 
Q 1056 3291 1056 2328 
Q 1056 1369 1301 889 
Q 1547 409 2034 409 
Q 2525 409 2770 889 
Q 3016 1369 3016 2328 
Q 3016 3291 2770 3770 
Q 2525 4250 2034 4250 
z
M 2034 4750 
Q 2819 4750 3233 4129 
Q 3647 3509 3647 2328 
Q 3647 1150 3233 529 
Q 2819 -91 2034 -91 
Q 1250 -91 836 529 
Q 422 1150 422 2328 
Q 422 3509 836 4129 
Q 1250 4750 2034 4750 
z
" id="DejaVuSans-30" transform="scale(0.015625)"/>
        <path d="M 684 794 
L 1344 794 
L 1344 0 
L 684 0 
L 684 794 
z
" id="DejaVuSans-2e" transform="scale(0.015625)"/>
       </defs>
       <use xlink:href="#DejaVuSans-30"/>
       <use x="63.623047" xlink:href="#DejaVuSans-2e"/>
       <use x="95.410156" xlink:href="#DejaVuSans-30"/>
      </g>
     </g>
    </g>
    <g id="xtick_2">
     <g id="line2d_2">
      <g>
       <use style="stroke:#000000;stroke-width:0.8;" x="146.797961" xlink:href="#m70cb974721" y="306.92"/>
      </g>
     </g>
     <g id="text_2">
      <!-- 0.2 -->
      <g transform="translate(138.846398 321.518437)scale(0.1 -0.1)">
       <defs>
        <path d="M 1228 531 
L 3431 531 
L 3431 0 
L 469 0 
L 469 531 
Q 828 903 1448 1529 
Q 2069 2156 2228 2338 
Q 2531 2678 2651 2914 
Q 2772 3150 2772 3378 
Q 2772 3750 2511 3984 
Q 2250 4219 1831 4219 
Q 1534 4219 1204 4116 
Q 875 4013 500 3803 
L 500 4441 
Q 881 4594 1212 4672 
Q 1544 4750 1819 4750 
Q 2544 4750 2975 4387 
Q 3406 4025 3406 3419 
Q 3406 3131 3298 2873 
Q 3191 2616 2906 2266 
Q 2828 2175 2409 1742 
Q 1991 1309 1228 531 
z
" id="DejaVuSans-32" transform="scale(0.015625)"/>
       </defs>
       <use xlink:href="#DejaVuSans-30"/>
       <use x="63.623047" xlink:href="#DejaVuSans-2e"/>
       <use x="95.410156" xlink:href="#DejaVuSans-32"/>
      </g>
     </g>
    </g>
    <g id="xtick_3">
     <g id="line2d_3">
      <g>
       <use style="stroke:#000000;stroke-width:0.8;" x="217.738378" xlink:href="#m70cb974721" y="306.92"/>
      </g>
     </g>
     <g id="text_3">
      <!-- 0.4 -->
      <g transform="translate(209.786816 321.518437)scale(0.1 -0.1)">
       <defs>
        <path d="M 2419 4116 
L 825 1625 
L 2419 1625 
L 2419 4116 
z
M 2253 4666 
L 3047 4666 
L 3047 1625 
L 3713 1625 
L 3713 1100 
L 3047 1100 
L 3047 0 
L 2419 0 
L 2419 1100 
L 313 1100 
L 313 1709 
L 2253 4666 
z
" id="DejaVuSans-34" transform="scale(0.015625)"/>
       </defs>
       <use xlink:href="#DejaVuSans-30"/>
       <use x="63.623047" xlink:href="#DejaVuSans-2e"/>
       <use x="95.410156" xlink:href="#DejaVuSans-34"/>
      </g>
     </g>
    </g>
    <g id="xtick_4">
     <g id="line2d_4">
      <g>
       <use style="stroke:#000000;stroke-width:0.8;" x="288.678796" xlink:href="#m70cb974721" y="306.92"/>
      </g>
     </g>
     <g id="text_4">
      <!-- 0.6 -->
      <g transform="translate(280.727233 321.518437)scale(0.1 -0.1)">
       <defs>
        <path d="M 2113 2584 
Q 1688 2584 1439 2293 
Q 1191 2003 1191 1497 
Q 1191 994 1439 701 
Q 1688 409 2113 409 
Q 2538 409 2786 701 
Q 3034 994 3034 1497 
Q 3034 2003 2786 2293 
Q 2538 2584 2113 2584 
z
M 3366 4563 
L 3366 3988 
Q 3128 4100 2886 4159 
Q 2644 4219 2406 4219 
Q 1781 4219 1451 3797 
Q 1122 3375 1075 2522 
Q 1259 2794 1537 2939 
Q 1816 3084 2150 3084 
Q 2853 3084 3261 2657 
Q 3669 2231 3669 1497 
Q 3669 778 3244 343 
Q 2819 -91 2113 -91 
Q 1303 -91 875 529 
Q 447 1150 447 2328 
Q 447 3434 972 4092 
Q 1497 4750 2381 4750 
Q 2619 4750 2861 4703 
Q 3103 4656 3366 4563 
z
" id="DejaVuSans-36" transform="scale(0.015625)"/>
       </defs>
       <use xlink:href="#DejaVuSans-30"/>
       <use x="63.623047" xlink:href="#DejaVuSans-2e"/>
       <use x="95.410156" xlink:href="#DejaVuSans-36"/>
      </g>
     </g>
    </g>
    <g id="xtick_5">
     <g id="line2d_5">
      <g>
       <use style="stroke:#000000;stroke-width:0.8;" x="359.619214" xlink:href="#m70cb974721" y="306.92"/>
      </g>
     </g>
     <g id="text_5">
      <!-- 0.8 -->
      <g transform="translate(351.667651 321.518437)scale(0.1 -0.1)">
       <defs>
        <path d="M 2034 2216 
Q 1584 2216 1326 1975 
Q 1069 1734 1069 1313 
Q 1069 891 1326 650 
Q 1584 409 2034 409 
Q 2484 409 2743 651 
Q 3003 894 3003 1313 
Q 3003 1734 2745 1975 
Q 2488 2216 2034 2216 
z
M 1403 2484 
Q 997 2584 770 2862 
Q 544 3141 544 3541 
Q 544 4100 942 4425 
Q 1341 4750 2034 4750 
Q 2731 4750 3128 4425 
Q 3525 4100 3525 3541 
Q 3525 3141 3298 2862 
Q 3072 2584 2669 2484 
Q 3125 2378 3379 2068 
Q 3634 1759 3634 1313 
Q 3634 634 3220 271 
Q 2806 -91 2034 -91 
Q 1263 -91 848 271 
Q 434 634 434 1313 
Q 434 1759 690 2068 
Q 947 2378 1403 2484 
z
M 1172 3481 
Q 1172 3119 1398 2916 
Q 1625 2713 2034 2713 
Q 2441 2713 2670 2916 
Q 2900 3119 2900 3481 
Q 2900 3844 2670 4047 
Q 2441 4250 2034 4250 
Q 1625 4250 1398 4047 
Q 1172 3844 1172 3481 
z
" id="DejaVuSans-38" transform="scale(0.015625)"/>
       </defs>
       <use xlink:href="#DejaVuSans-30"/>
       <use x="63.623047" xlink:href="#DejaVuSans-2e"/>
       <use x="95.410156" xlink:href="#DejaVuSans-38"/>
      </g>
     </g>
    </g>
    <g id="xtick_6">
     <g id="line2d_6">
      <g>
       <use style="stroke:#000000;stroke-width:0.8;" x="430.559631" xlink:href="#m70cb974721" y="306.92"/>
      </g>
     </g>
     <g id="text_6">
      <!-- 1.0 -->
      <g transform="translate(422.608069 321.518437)scale(0.1 -0.1)">
       <defs>
        <path d="M 794 531 
L 1825 531 
L 1825 4091 
L 703 3866 
L 703 4441 
L 1819 4666 
L 2450 4666 
L 2450 531 
L 3481 531 
L 3481 0 
L 794 0 
L 794 531 
z
" id="DejaVuSans-31" transform="scale(0.015625)"/>
       </defs>
       <use xlink:href="#DejaVuSans-31"/>
       <use x="63.623047" xlink:href="#DejaVuSans-2e"/>
       <use x="95.410156" xlink:href="#DejaVuSans-30"/>
      </g>
     </g>
    </g>
   </g>
   <g id="matplotlib.axis_2">
    <g id="ytick_1">
     <g id="line2d_7">
      <defs>
       <path d="M 0 0 
L -3.5 0 
" id="mc5708eb0b8" style="stroke:#000000;stroke-width:0.8;"/>
      </defs>
      <g>
       <use style="stroke:#000000;stroke-width:0.8;" x="58.853125" xlink:href="#mc5708eb0b8" y="306.92"/>
      </g>
     </g>
     <g id="text_7">
      <!-- 0 -->
      <g transform="translate(45.490625 310.719219)scale(0.1 -0.1)">
       <use xlink:href="#DejaVuSans-30"/>
      </g>
     </g>
    </g>
    <g id="ytick_2">
     <g id="line2d_8">
      <g>
       <use style="stroke:#000000;stroke-width:0.8;" x="58.853125" xlink:href="#mc5708eb0b8" y="267.467339"/>
      </g>
     </g>
     <g id="text_8">
      <!-- 25000 -->
      <g transform="translate(20.040625 271.266558)scale(0.1 -0.1)">
       <defs>
        <path d="M 691 4666 
L 3169 4666 
L 3169 4134 
L 1269 4134 
L 1269 2991 
Q 1406 3038 1543 3061 
Q 1681 3084 1819 3084 
Q 2600 3084 3056 2656 
Q 3513 2228 3513 1497 
Q 3513 744 3044 326 
Q 2575 -91 1722 -91 
Q 1428 -91 1123 -41 
Q 819 9 494 109 
L 494 744 
Q 775 591 1075 516 
Q 1375 441 1709 441 
Q 2250 441 2565 725 
Q 2881 1009 2881 1497 
Q 2881 1984 2565 2268 
Q 2250 2553 1709 2553 
Q 1456 2553 1204 2497 
Q 953 2441 691 2322 
L 691 4666 
z
" id="DejaVuSans-35" transform="scale(0.015625)"/>
       </defs>
       <use xlink:href="#DejaVuSans-32"/>
       <use x="63.623047" xlink:href="#DejaVuSans-35"/>
       <use x="127.246094" xlink:href="#DejaVuSans-30"/>
       <use x="190.869141" xlink:href="#DejaVuSans-30"/>
       <use x="254.492188" xlink:href="#DejaVuSans-30"/>
      </g>
     </g>
    </g>
    <g id="ytick_3">
     <g id="line2d_9">
      <g>
       <use style="stroke:#000000;stroke-width:0.8;" x="58.853125" xlink:href="#mc5708eb0b8" y="228.014679"/>
      </g>
     </g>
     <g id="text_9">
      <!-- 50000 -->
      <g transform="translate(20.040625 231.813898)scale(0.1 -0.1)">
       <use xlink:href="#DejaVuSans-35"/>
       <use x="63.623047" xlink:href="#DejaVuSans-30"/>
       <use x="127.246094" xlink:href="#DejaVuSans-30"/>
       <use x="190.869141" xlink:href="#DejaVuSans-30"/>
       <use x="254.492188" xlink:href="#DejaVuSans-30"/>
      </g>
     </g>
    </g>
    <g id="ytick_4">
     <g id="line2d_10">
      <g>
       <use style="stroke:#000000;stroke-width:0.8;" x="58.853125" xlink:href="#mc5708eb0b8" y="188.562018"/>
      </g>
     </g>
     <g id="text_10">
      <!-- 75000 -->
      <g transform="translate(20.040625 192.361237)scale(0.1 -0.1)">
       <defs>
        <path d="M 525 4666 
L 3525 4666 
L 3525 4397 
L 1831 0 
L 1172 0 
L 2766 4134 
L 525 4134 
L 525 4666 
z
" id="DejaVuSans-37" transform="scale(0.015625)"/>
       </defs>
       <use xlink:href="#DejaVuSans-37"/>
       <use x="63.623047" xlink:href="#DejaVuSans-35"/>
       <use x="127.246094" xlink:href="#DejaVuSans-30"/>
       <use x="190.869141" xlink:href="#DejaVuSans-30"/>
       <use x="254.492188" xlink:href="#DejaVuSans-30"/>
      </g>
     </g>
    </g>
    <g id="ytick_5">
     <g id="line2d_11">
      <g>
       <use style="stroke:#000000;stroke-width:0.8;" x="58.853125" xlink:href="#mc5708eb0b8" y="149.109358"/>
      </g>
     </g>
     <g id="text_11">
      <!-- 100000 -->
      <g transform="translate(13.678125 152.908577)scale(0.1 -0.1)">
       <use xlink:href="#DejaVuSans-31"/>
       <use x="63.623047" xlink:href="#DejaVuSans-30"/>
       <use x="127.246094" xlink:href="#DejaVuSans-30"/>
       <use x="190.869141" xlink:href="#DejaVuSans-30"/>
       <use x="254.492188" xlink:href="#DejaVuSans-30"/>
       <use x="318.115234" xlink:href="#DejaVuSans-30"/>
      </g>
     </g>
    </g>
    <g id="ytick_6">
     <g id="line2d_12">
      <g>
       <use style="stroke:#000000;stroke-width:0.8;" x="58.853125" xlink:href="#mc5708eb0b8" y="109.656697"/>
      </g>
     </g>
     <g id="text_12">
      <!-- 125000 -->
      <g transform="translate(13.678125 113.455916)scale(0.1 -0.1)">
       <use xlink:href="#DejaVuSans-31"/>
       <use x="63.623047" xlink:href="#DejaVuSans-32"/>
       <use x="127.246094" xlink:href="#DejaVuSans-35"/>
       <use x="190.869141" xlink:href="#DejaVuSans-30"/>
       <use x="254.492188" xlink:href="#DejaVuSans-30"/>
       <use x="318.115234" xlink:href="#DejaVuSans-30"/>
      </g>
     </g>
    </g>
    <g id="ytick_7">
     <g id="line2d_13">
      <g>
       <use style="stroke:#000000;stroke-width:0.8;" x="58.853125" xlink:href="#mc5708eb0b8" y="70.204037"/>
      </g>
     </g>
     <g id="text_13">
      <!-- 150000 -->
      <g transform="translate(13.678125 74.003256)scale(0.1 -0.1)">
       <use xlink:href="#DejaVuSans-31"/>
       <use x="63.623047" xlink:href="#DejaVuSans-35"/>
       <use x="127.246094" xlink:href="#DejaVuSans-30"/>
       <use x="190.869141" xlink:href="#DejaVuSans-30"/>
       <use x="254.492188" xlink:href="#DejaVuSans-30"/>
       <use x="318.115234" xlink:href="#DejaVuSans-30"/>
      </g>
     </g>
    </g>
    <g id="ytick_8">
     <g id="line2d_14">
      <g>
       <use style="stroke:#000000;stroke-width:0.8;" x="58.853125" xlink:href="#mc5708eb0b8" y="30.751376"/>
      </g>
     </g>
     <g id="text_14">
      <!-- 175000 -->
      <g transform="translate(13.678125 34.550595)scale(0.1 -0.1)">
       <use xlink:href="#DejaVuSans-31"/>
       <use x="63.623047" xlink:href="#DejaVuSans-37"/>
       <use x="127.246094" xlink:href="#DejaVuSans-35"/>
       <use x="190.869141" xlink:href="#DejaVuSans-30"/>
       <use x="254.492188" xlink:href="#DejaVuSans-30"/>
       <use x="318.115234" xlink:href="#DejaVuSans-30"/>
      </g>
     </g>
    </g>
    <g id="text_15">
     <!-- n SNPs -->
     <g transform="translate(7.598437 170.664687)rotate(-90)scale(0.1 -0.1)">
      <defs>
       <path d="M 3513 2113 
L 3513 0 
L 2938 0 
L 2938 2094 
Q 2938 2591 2744 2837 
Q 2550 3084 2163 3084 
Q 1697 3084 1428 2787 
Q 1159 2491 1159 1978 
L 1159 0 
L 581 0 
L 581 3500 
L 1159 3500 
L 1159 2956 
Q 1366 3272 1645 3428 
Q 1925 3584 2291 3584 
Q 2894 3584 3203 3211 
Q 3513 2838 3513 2113 
z
" id="DejaVuSans-6e" transform="scale(0.015625)"/>
       <path id="DejaVuSans-20" transform="scale(0.015625)"/>
       <path d="M 3425 4513 
L 3425 3897 
Q 3066 4069 2747 4153 
Q 2428 4238 2131 4238 
Q 1616 4238 1336 4038 
Q 1056 3838 1056 3469 
Q 1056 3159 1242 3001 
Q 1428 2844 1947 2747 
L 2328 2669 
Q 3034 2534 3370 2195 
Q 3706 1856 3706 1288 
Q 3706 609 3251 259 
Q 2797 -91 1919 -91 
Q 1588 -91 1214 -16 
Q 841 59 441 206 
L 441 856 
Q 825 641 1194 531 
Q 1563 422 1919 422 
Q 2459 422 2753 634 
Q 3047 847 3047 1241 
Q 3047 1584 2836 1778 
Q 2625 1972 2144 2069 
L 1759 2144 
Q 1053 2284 737 2584 
Q 422 2884 422 3419 
Q 422 4038 858 4394 
Q 1294 4750 2059 4750 
Q 2388 4750 2728 4690 
Q 3069 4631 3425 4513 
z
" id="DejaVuSans-53" transform="scale(0.015625)"/>
       <path d="M 628 4666 
L 1478 4666 
L 3547 763 
L 3547 4666 
L 4159 4666 
L 4159 0 
L 3309 0 
L 1241 3903 
L 1241 0 
L 628 0 
L 628 4666 
z
" id="DejaVuSans-4e" transform="scale(0.015625)"/>
       <path d="M 1259 4147 
L 1259 2394 
L 2053 2394 
Q 2494 2394 2734 2622 
Q 2975 2850 2975 3272 
Q 2975 3691 2734 3919 
Q 2494 4147 2053 4147 
L 1259 4147 
z
M 628 4666 
L 2053 4666 
Q 2838 4666 3239 4311 
Q 3641 3956 3641 3272 
Q 3641 2581 3239 2228 
Q 2838 1875 2053 1875 
L 1259 1875 
L 1259 0 
L 628 0 
L 628 4666 
z
" id="DejaVuSans-50" transform="scale(0.015625)"/>
       <path d="M 2834 3397 
L 2834 2853 
Q 2591 2978 2328 3040 
Q 2066 3103 1784 3103 
Q 1356 3103 1142 2972 
Q 928 2841 928 2578 
Q 928 2378 1081 2264 
Q 1234 2150 1697 2047 
L 1894 2003 
Q 2506 1872 2764 1633 
Q 3022 1394 3022 966 
Q 3022 478 2636 193 
Q 2250 -91 1575 -91 
Q 1294 -91 989 -36 
Q 684 19 347 128 
L 347 722 
Q 666 556 975 473 
Q 1284 391 1588 391 
Q 1994 391 2212 530 
Q 2431 669 2431 922 
Q 2431 1156 2273 1281 
Q 2116 1406 1581 1522 
L 1381 1569 
Q 847 1681 609 1914 
Q 372 2147 372 2553 
Q 372 3047 722 3315 
Q 1072 3584 1716 3584 
Q 2034 3584 2315 3537 
Q 2597 3491 2834 3397 
z
" id="DejaVuSans-73" transform="scale(0.015625)"/>
      </defs>
      <use xlink:href="#DejaVuSans-6e"/>
      <use x="63.378906" xlink:href="#DejaVuSans-20"/>
      <use x="95.166016" xlink:href="#DejaVuSans-53"/>
      <use x="158.642578" xlink:href="#DejaVuSans-4e"/>
      <use x="233.447266" xlink:href="#DejaVuSans-50"/>
      <use x="292" xlink:href="#DejaVuSans-73"/>
     </g>
    </g>
   </g>
   <g id="line2d_15">
    <path clip-path="url(#p3dff20f46f)" d="M 229.112735 306.92 
L 229.112735 0 
" style="fill:none;stroke:#a6cee3;stroke-dasharray:3.7,1.6;stroke-dashoffset:0;"/>
   </g>
   <g id="patch_53">
    <path d="M 58.853125 306.92 
L 58.853125 0 
" style="fill:none;stroke:#000000;stroke-linecap:square;stroke-linejoin:miter;stroke-width:0.8;"/>
   </g>
   <g id="patch_54">
    <path d="M 432.950323 306.92 
L 432.950323 0 
" style="fill:none;stroke:#000000;stroke-linecap:square;stroke-linejoin:miter;stroke-width:0.8;"/>
   </g>
   <g id="patch_55">
    <path d="M 58.853125 306.92 
L 432.950323 306.92 
" style="fill:none;stroke:#000000;stroke-linecap:square;stroke-linejoin:miter;stroke-width:0.8;"/>
   </g>
   <g id="patch_56">
    <path d="M 58.853125 0 
L 432.950323 0 
" style="fill:none;stroke:#000000;stroke-linecap:square;stroke-linejoin:miter;stroke-width:0.8;"/>
   </g>
   <g id="legend_1">
    <g id="patch_57">
     <path d="M 340.750323 22.678125 
L 425.950323 22.678125 
Q 427.950323 22.678125 427.950323 20.678125 
L 427.950323 7 
Q 427.950323 5 425.950323 5 
L 340.750323 5 
Q 338.750323 5 338.750323 7 
L 338.750323 20.678125 
Q 338.750323 22.678125 340.750323 22.678125 
z
" style="fill:#ffffff;opacity:0.8;stroke:#cccccc;stroke-linejoin:miter;"/>
    </g>
    <g id="line2d_16">
     <path d="M 342.750323 13.098438 
L 362.750323 13.098438 
" style="fill:none;stroke:#a6cee3;stroke-dasharray:3.7,1.6;stroke-dashoffset:0;"/>
    </g>
    <g id="line2d_17"/>
    <g id="text_16">
     <!-- $\bar{x}=0.4321$ -->
     <g transform="translate(370.750323 16.598438)scale(0.1 -0.1)">
      <defs>
       <path d="M -2522 4769 
L -653 4769 
L -653 4306 
L -2522 4306 
L -2522 4769 
z
" id="DejaVuSans-304" transform="scale(0.015625)"/>
       <path d="M 3841 3500 
L 2234 1784 
L 3219 0 
L 2559 0 
L 1819 1388 
L 531 0 
L -166 0 
L 1556 1844 
L 641 3500 
L 1300 3500 
L 1972 2234 
L 3144 3500 
L 3841 3500 
z
" id="DejaVuSans-Oblique-78" transform="scale(0.015625)"/>
       <path d="M 678 2906 
L 4684 2906 
L 4684 2381 
L 678 2381 
L 678 2906 
z
M 678 1631 
L 4684 1631 
L 4684 1100 
L 678 1100 
L 678 1631 
z
" id="DejaVuSans-3d" transform="scale(0.015625)"/>
       <path d="M 2597 2516 
Q 3050 2419 3304 2112 
Q 3559 1806 3559 1356 
Q 3559 666 3084 287 
Q 2609 -91 1734 -91 
Q 1441 -91 1130 -33 
Q 819 25 488 141 
L 488 750 
Q 750 597 1062 519 
Q 1375 441 1716 441 
Q 2309 441 2620 675 
Q 2931 909 2931 1356 
Q 2931 1769 2642 2001 
Q 2353 2234 1838 2234 
L 1294 2234 
L 1294 2753 
L 1863 2753 
Q 2328 2753 2575 2939 
Q 2822 3125 2822 3475 
Q 2822 3834 2567 4026 
Q 2313 4219 1838 4219 
Q 1578 4219 1281 4162 
Q 984 4106 628 3988 
L 628 4550 
Q 988 4650 1302 4700 
Q 1616 4750 1894 4750 
Q 2613 4750 3031 4423 
Q 3450 4097 3450 3541 
Q 3450 3153 3228 2886 
Q 3006 2619 2597 2516 
z
" id="DejaVuSans-33" transform="scale(0.015625)"/>
      </defs>
      <use transform="translate(62.201172 0.484375)" xlink:href="#DejaVuSans-304"/>
      <use transform="translate(0 0.578125)" xlink:href="#DejaVuSans-Oblique-78"/>
      <use transform="translate(78.662109 0.578125)" xlink:href="#DejaVuSans-3d"/>
      <use transform="translate(181.933594 0.578125)" xlink:href="#DejaVuSans-30"/>
      <use transform="translate(245.556641 0.578125)" xlink:href="#DejaVuSans-2e"/>
      <use transform="translate(277.34375 0.578125)" xlink:href="#DejaVuSans-34"/>
      <use transform="translate(340.966797 0.578125)" xlink:href="#DejaVuSans-33"/>
      <use transform="translate(404.589844 0.578125)" xlink:href="#DejaVuSans-32"/>
      <use transform="translate(468.212891 0.578125)" xlink:href="#DejaVuSans-31"/>
     </g>
    </g>
   </g>
  </g>
 </g>
 <defs>
  <clipPath id="p3dff20f46f">
   <rect height="306.92" width="374.097198" x="58.853125" y="0"/>
  </clipPath>
 </defs>
</svg>
