<?xml version="1.0" encoding="utf-8" standalone="no"?>
<!DOCTYPE svg PUBLIC "-//W3C//DTD SVG 1.1//EN"
  "http://www.w3.org/Graphics/SVG/1.1/DTD/svg11.dtd">
<svg height="323.598125pt" version="1.1" viewBox="0 0 438.688125 323.598125" width="438.688125pt" xmlns="http://www.w3.org/2000/svg" xmlns:xlink="http://www.w3.org/1999/xlink">
 <metadata>
  <rdf:RDF xmlns:cc="http://creativecommons.org/ns#" xmlns:dc="http://purl.org/dc/elements/1.1/" xmlns:rdf="http://www.w3.org/1999/02/22-rdf-syntax-ns#">
   <cc:Work>
    <dc:type rdf:resource="http://purl.org/dc/dcmitype/StillImage"/>
    <dc:date>2022-01-12T14:43:45.018866</dc:date>
    <dc:format>image/svg+xml</dc:format>
    <dc:creator>
     <cc:Agent>
      <dc:title>Matplotlib v3.4.3, https://matplotlib.org/</dc:title>
     </cc:Agent>
    </dc:creator>
   </cc:Work>
  </rdf:RDF>
 </metadata>
 <defs>
  <style type="text/css">*{stroke-linecap:butt;stroke-linejoin:round;}</style>
 </defs>
 <g id="figure_1">
  <g id="patch_1">
   <path d="M 0 323.598125 
L 438.688125 323.598125 
L 438.688125 0 
L 0 0 
z
" style="fill:#ffffff;"/>
  </g>
  <g id="axes_1">
   <g id="patch_2">
    <path d="M 46.128125 306.92 
L 438.688125 306.92 
L 438.688125 0 
L 46.128125 0 
z
" style="fill:#ffffff;"/>
   </g>
   <g id="patch_3">
    <path clip-path="url(#pb2a47655e7)" d="M 63.971761 306.92 
L 71.109216 306.92 
L 71.109216 294.231436 
L 63.971761 294.231436 
z
" style="fill:#e7ba52;stroke:#b0a489;stroke-linejoin:miter;"/>
   </g>
   <g id="patch_4">
    <path clip-path="url(#pb2a47655e7)" d="M 71.109216 306.92 
L 78.24667 306.92 
L 78.24667 276.865059 
L 71.109216 276.865059 
z
" style="fill:#e7ba52;stroke:#b0a489;stroke-linejoin:miter;"/>
   </g>
   <g id="patch_5">
    <path clip-path="url(#pb2a47655e7)" d="M 78.24667 306.92 
L 85.384125 306.92 
L 85.384125 213.24682 
L 78.24667 213.24682 
z
" style="fill:#e7ba52;stroke:#b0a489;stroke-linejoin:miter;"/>
   </g>
   <g id="patch_6">
    <path clip-path="url(#pb2a47655e7)" d="M 85.384125 306.92 
L 92.52158 306.92 
L 92.52158 163.252707 
L 85.384125 163.252707 
z
" style="fill:#e7ba52;stroke:#b0a489;stroke-linejoin:miter;"/>
   </g>
   <g id="patch_7">
    <path clip-path="url(#pb2a47655e7)" d="M 92.52158 306.92 
L 99.659034 306.92 
L 99.659034 88.115355 
L 92.52158 88.115355 
z
" style="fill:#e7ba52;stroke:#b0a489;stroke-linejoin:miter;"/>
   </g>
   <g id="patch_8">
    <path clip-path="url(#pb2a47655e7)" d="M 99.659034 306.92 
L 106.796489 306.92 
L 106.796489 52.914822 
L 99.659034 52.914822 
z
" style="fill:#e7ba52;stroke:#b0a489;stroke-linejoin:miter;"/>
   </g>
   <g id="patch_9">
    <path clip-path="url(#pb2a47655e7)" d="M 106.796489 306.92 
L 113.933943 306.92 
L 113.933943 38.06277 
L 106.796489 38.06277 
z
" style="fill:#e7ba52;stroke:#b0a489;stroke-linejoin:miter;"/>
   </g>
   <g id="patch_10">
    <path clip-path="url(#pb2a47655e7)" d="M 113.933943 306.92 
L 121.071398 306.92 
L 121.071398 25.841986 
L 113.933943 25.841986 
z
" style="fill:#e7ba52;stroke:#b0a489;stroke-linejoin:miter;"/>
   </g>
   <g id="patch_11">
    <path clip-path="url(#pb2a47655e7)" d="M 121.071398 306.92 
L 128.208852 306.92 
L 128.208852 14.615238 
L 121.071398 14.615238 
z
" style="fill:#e7ba52;stroke:#b0a489;stroke-linejoin:miter;"/>
   </g>
   <g id="patch_12">
    <path clip-path="url(#pb2a47655e7)" d="M 128.208852 306.92 
L 135.346307 306.92 
L 135.346307 64.960187 
L 128.208852 64.960187 
z
" style="fill:#e7ba52;stroke:#b0a489;stroke-linejoin:miter;"/>
   </g>
   <g id="patch_13">
    <path clip-path="url(#pb2a47655e7)" d="M 135.346307 306.92 
L 142.483761 306.92 
L 142.483761 53.967329 
L 135.346307 53.967329 
z
" style="fill:#e7ba52;stroke:#b0a489;stroke-linejoin:miter;"/>
   </g>
   <g id="patch_14">
    <path clip-path="url(#pb2a47655e7)" d="M 142.483761 306.92 
L 149.621216 306.92 
L 149.621216 89.928007 
L 142.483761 89.928007 
z
" style="fill:#e7ba52;stroke:#b0a489;stroke-linejoin:miter;"/>
   </g>
   <g id="patch_15">
    <path clip-path="url(#pb2a47655e7)" d="M 149.621216 306.92 
L 156.75867 306.92 
L 156.75867 134.133328 
L 149.621216 134.133328 
z
" style="fill:#e7ba52;stroke:#b0a489;stroke-linejoin:miter;"/>
   </g>
   <g id="patch_16">
    <path clip-path="url(#pb2a47655e7)" d="M 156.75867 306.92 
L 163.896125 306.92 
L 163.896125 110.10107 
L 156.75867 110.10107 
z
" style="fill:#e7ba52;stroke:#b0a489;stroke-linejoin:miter;"/>
   </g>
   <g id="patch_17">
    <path clip-path="url(#pb2a47655e7)" d="M 163.896125 306.92 
L 171.03358 306.92 
L 171.03358 120.801565 
L 163.896125 120.801565 
z
" style="fill:#e7ba52;stroke:#b0a489;stroke-linejoin:miter;"/>
   </g>
   <g id="patch_18">
    <path clip-path="url(#pb2a47655e7)" d="M 171.03358 306.92 
L 178.171034 306.92 
L 178.171034 139.863648 
L 171.03358 139.863648 
z
" style="fill:#e7ba52;stroke:#b0a489;stroke-linejoin:miter;"/>
   </g>
   <g id="patch_19">
    <path clip-path="url(#pb2a47655e7)" d="M 178.171034 306.92 
L 185.308489 306.92 
L 185.308489 190.150124 
L 178.171034 190.150124 
z
" style="fill:#e7ba52;stroke:#b0a489;stroke-linejoin:miter;"/>
   </g>
   <g id="patch_20">
    <path clip-path="url(#pb2a47655e7)" d="M 185.308489 306.92 
L 192.445943 306.92 
L 192.445943 187.811218 
L 185.308489 187.811218 
z
" style="fill:#e7ba52;stroke:#b0a489;stroke-linejoin:miter;"/>
   </g>
   <g id="patch_21">
    <path clip-path="url(#pb2a47655e7)" d="M 192.445943 306.92 
L 199.583398 306.92 
L 199.583398 212.545148 
L 192.445943 212.545148 
z
" style="fill:#e7ba52;stroke:#b0a489;stroke-linejoin:miter;"/>
   </g>
   <g id="patch_22">
    <path clip-path="url(#pb2a47655e7)" d="M 199.583398 306.92 
L 206.720852 306.92 
L 206.720852 220.380483 
L 199.583398 220.380483 
z
" style="fill:#e7ba52;stroke:#b0a489;stroke-linejoin:miter;"/>
   </g>
   <g id="patch_23">
    <path clip-path="url(#pb2a47655e7)" d="M 206.720852 306.92 
L 213.858307 306.92 
L 213.858307 252.248075 
L 206.720852 252.248075 
z
" style="fill:#e7ba52;stroke:#b0a489;stroke-linejoin:miter;"/>
   </g>
   <g id="patch_24">
    <path clip-path="url(#pb2a47655e7)" d="M 213.858307 306.92 
L 220.995761 306.92 
L 220.995761 239.09173 
L 213.858307 239.09173 
z
" style="fill:#e7ba52;stroke:#b0a489;stroke-linejoin:miter;"/>
   </g>
   <g id="patch_25">
    <path clip-path="url(#pb2a47655e7)" d="M 220.995761 306.92 
L 228.133216 306.92 
L 228.133216 249.733751 
L 220.995761 249.733751 
z
" style="fill:#e7ba52;stroke:#b0a489;stroke-linejoin:miter;"/>
   </g>
   <g id="patch_26">
    <path clip-path="url(#pb2a47655e7)" d="M 228.133216 306.92 
L 235.27067 306.92 
L 235.27067 269.497506 
L 228.133216 269.497506 
z
" style="fill:#e7ba52;stroke:#b0a489;stroke-linejoin:miter;"/>
   </g>
   <g id="patch_27">
    <path clip-path="url(#pb2a47655e7)" d="M 235.27067 306.92 
L 242.408125 306.92 
L 242.408125 264.819694 
L 235.27067 264.819694 
z
" style="fill:#e7ba52;stroke:#b0a489;stroke-linejoin:miter;"/>
   </g>
   <g id="patch_28">
    <path clip-path="url(#pb2a47655e7)" d="M 242.408125 306.92 
L 249.54558 306.92 
L 249.54558 269.965287 
L 242.408125 269.965287 
z
" style="fill:#e7ba52;stroke:#b0a489;stroke-linejoin:miter;"/>
   </g>
   <g id="patch_29">
    <path clip-path="url(#pb2a47655e7)" d="M 249.54558 306.92 
L 256.683034 306.92 
L 256.683034 275.929497 
L 249.54558 275.929497 
z
" style="fill:#e7ba52;stroke:#b0a489;stroke-linejoin:miter;"/>
   </g>
   <g id="patch_30">
    <path clip-path="url(#pb2a47655e7)" d="M 256.683034 306.92 
L 263.820489 306.92 
L 263.820489 280.841199 
L 256.683034 280.841199 
z
" style="fill:#e7ba52;stroke:#b0a489;stroke-linejoin:miter;"/>
   </g>
   <g id="patch_31">
    <path clip-path="url(#pb2a47655e7)" d="M 263.820489 306.92 
L 270.957943 306.92 
L 270.957943 288.033335 
L 263.820489 288.033335 
z
" style="fill:#e7ba52;stroke:#b0a489;stroke-linejoin:miter;"/>
   </g>
   <g id="patch_32">
    <path clip-path="url(#pb2a47655e7)" d="M 270.957943 306.92 
L 278.095398 306.92 
L 278.095398 295.400889 
L 270.957943 295.400889 
z
" style="fill:#e7ba52;stroke:#b0a489;stroke-linejoin:miter;"/>
   </g>
   <g id="patch_33">
    <path clip-path="url(#pb2a47655e7)" d="M 278.095398 306.92 
L 285.232852 306.92 
L 285.232852 290.840022 
L 278.095398 290.840022 
z
" style="fill:#e7ba52;stroke:#b0a489;stroke-linejoin:miter;"/>
   </g>
   <g id="patch_34">
    <path clip-path="url(#pb2a47655e7)" d="M 285.232852 306.92 
L 292.370307 306.92 
L 292.370307 295.634779 
L 285.232852 295.634779 
z
" style="fill:#e7ba52;stroke:#b0a489;stroke-linejoin:miter;"/>
   </g>
   <g id="patch_35">
    <path clip-path="url(#pb2a47655e7)" d="M 292.370307 306.92 
L 299.507761 306.92 
L 299.507761 299.961755 
L 292.370307 299.961755 
z
" style="fill:#e7ba52;stroke:#b0a489;stroke-linejoin:miter;"/>
   </g>
   <g id="patch_36">
    <path clip-path="url(#pb2a47655e7)" d="M 299.507761 306.92 
L 306.645216 306.92 
L 306.645216 300.254118 
L 299.507761 300.254118 
z
" style="fill:#e7ba52;stroke:#b0a489;stroke-linejoin:miter;"/>
   </g>
   <g id="patch_37">
    <path clip-path="url(#pb2a47655e7)" d="M 306.645216 306.92 
L 313.78267 306.92 
L 313.78267 305.458184 
L 306.645216 305.458184 
z
" style="fill:#e7ba52;stroke:#b0a489;stroke-linejoin:miter;"/>
   </g>
   <g id="patch_38">
    <path clip-path="url(#pb2a47655e7)" d="M 313.78267 306.92 
L 320.920125 306.92 
L 320.920125 299.903282 
L 313.78267 299.903282 
z
" style="fill:#e7ba52;stroke:#b0a489;stroke-linejoin:miter;"/>
   </g>
   <g id="patch_39">
    <path clip-path="url(#pb2a47655e7)" d="M 320.920125 306.92 
L 328.05758 306.92 
L 328.05758 303.470114 
L 320.920125 303.470114 
z
" style="fill:#e7ba52;stroke:#b0a489;stroke-linejoin:miter;"/>
   </g>
   <g id="patch_40">
    <path clip-path="url(#pb2a47655e7)" d="M 328.05758 306.92 
L 335.195034 306.92 
L 335.195034 306.92 
L 328.05758 306.92 
z
" style="fill:#e7ba52;stroke:#b0a489;stroke-linejoin:miter;"/>
   </g>
   <g id="patch_41">
    <path clip-path="url(#pb2a47655e7)" d="M 335.195034 306.92 
L 342.332489 306.92 
L 342.332489 306.510691 
L 335.195034 306.510691 
z
" style="fill:#e7ba52;stroke:#b0a489;stroke-linejoin:miter;"/>
   </g>
   <g id="patch_42">
    <path clip-path="url(#pb2a47655e7)" d="M 342.332489 306.92 
L 349.469943 306.92 
L 349.469943 303.937895 
L 342.332489 303.937895 
z
" style="fill:#e7ba52;stroke:#b0a489;stroke-linejoin:miter;"/>
   </g>
   <g id="patch_43">
    <path clip-path="url(#pb2a47655e7)" d="M 349.469943 306.92 
L 356.607398 306.92 
L 356.607398 306.92 
L 349.469943 306.92 
z
" style="fill:#e7ba52;stroke:#b0a489;stroke-linejoin:miter;"/>
   </g>
   <g id="patch_44">
    <path clip-path="url(#pb2a47655e7)" d="M 356.607398 306.92 
L 363.744852 306.92 
L 363.744852 306.92 
L 356.607398 306.92 
z
" style="fill:#e7ba52;stroke:#b0a489;stroke-linejoin:miter;"/>
   </g>
   <g id="patch_45">
    <path clip-path="url(#pb2a47655e7)" d="M 363.744852 306.92 
L 370.882307 306.92 
L 370.882307 306.92 
L 363.744852 306.92 
z
" style="fill:#e7ba52;stroke:#b0a489;stroke-linejoin:miter;"/>
   </g>
   <g id="patch_46">
    <path clip-path="url(#pb2a47655e7)" d="M 370.882307 306.92 
L 378.019761 306.92 
L 378.019761 306.92 
L 370.882307 306.92 
z
" style="fill:#e7ba52;stroke:#b0a489;stroke-linejoin:miter;"/>
   </g>
   <g id="patch_47">
    <path clip-path="url(#pb2a47655e7)" d="M 378.019761 306.92 
L 385.157216 306.92 
L 385.157216 306.92 
L 378.019761 306.92 
z
" style="fill:#e7ba52;stroke:#b0a489;stroke-linejoin:miter;"/>
   </g>
   <g id="patch_48">
    <path clip-path="url(#pb2a47655e7)" d="M 385.157216 306.92 
L 392.29467 306.92 
L 392.29467 306.92 
L 385.157216 306.92 
z
" style="fill:#e7ba52;stroke:#b0a489;stroke-linejoin:miter;"/>
   </g>
   <g id="patch_49">
    <path clip-path="url(#pb2a47655e7)" d="M 392.29467 306.92 
L 399.432125 306.92 
L 399.432125 305.282766 
L 392.29467 305.282766 
z
" style="fill:#e7ba52;stroke:#b0a489;stroke-linejoin:miter;"/>
   </g>
   <g id="patch_50">
    <path clip-path="url(#pb2a47655e7)" d="M 399.432125 306.92 
L 406.56958 306.92 
L 406.56958 306.92 
L 399.432125 306.92 
z
" style="fill:#e7ba52;stroke:#b0a489;stroke-linejoin:miter;"/>
   </g>
   <g id="patch_51">
    <path clip-path="url(#pb2a47655e7)" d="M 406.56958 306.92 
L 413.707034 306.92 
L 413.707034 306.92 
L 406.56958 306.92 
z
" style="fill:#e7ba52;stroke:#b0a489;stroke-linejoin:miter;"/>
   </g>
   <g id="patch_52">
    <path clip-path="url(#pb2a47655e7)" d="M 413.707034 306.92 
L 420.844489 306.92 
L 420.844489 306.510691 
L 413.707034 306.510691 
z
" style="fill:#e7ba52;stroke:#b0a489;stroke-linejoin:miter;"/>
   </g>
   <g id="matplotlib.axis_1">
    <g id="xtick_1">
     <g id="line2d_1">
      <defs>
       <path d="M 0 0 
L 0 3.5 
" id="m9570224d9c" style="stroke:#000000;stroke-width:0.8;"/>
      </defs>
      <g>
       <use style="stroke:#000000;stroke-width:0.8;" x="91.065069" xlink:href="#m9570224d9c" y="306.92"/>
      </g>
     </g>
     <g id="text_1">
      <!-- −2 -->
      <g transform="translate(83.693975 321.518437)scale(0.1 -0.1)">
       <defs>
        <path d="M 678 2272 
L 4684 2272 
L 4684 1741 
L 678 1741 
L 678 2272 
z
" id="DejaVuSans-2212" transform="scale(0.015625)"/>
        <path d="M 1228 531 
L 3431 531 
L 3431 0 
L 469 0 
L 469 531 
Q 828 903 1448 1529 
Q 2069 2156 2228 2338 
Q 2531 2678 2651 2914 
Q 2772 3150 2772 3378 
Q 2772 3750 2511 3984 
Q 2250 4219 1831 4219 
Q 1534 4219 1204 4116 
Q 875 4013 500 3803 
L 500 4441 
Q 881 4594 1212 4672 
Q 1544 4750 1819 4750 
Q 2544 4750 2975 4387 
Q 3406 4025 3406 3419 
Q 3406 3131 3298 2873 
Q 3191 2616 2906 2266 
Q 2828 2175 2409 1742 
Q 1991 1309 1228 531 
z
" id="DejaVuSans-32" transform="scale(0.015625)"/>
       </defs>
       <use xlink:href="#DejaVuSans-2212"/>
       <use x="83.789062" xlink:href="#DejaVuSans-32"/>
      </g>
     </g>
    </g>
    <g id="xtick_2">
     <g id="line2d_2">
      <g>
       <use style="stroke:#000000;stroke-width:0.8;" x="145.06592" xlink:href="#m9570224d9c" y="306.92"/>
      </g>
     </g>
     <g id="text_2">
      <!-- −1 -->
      <g transform="translate(137.694826 321.518437)scale(0.1 -0.1)">
       <defs>
        <path d="M 794 531 
L 1825 531 
L 1825 4091 
L 703 3866 
L 703 4441 
L 1819 4666 
L 2450 4666 
L 2450 531 
L 3481 531 
L 3481 0 
L 794 0 
L 794 531 
z
" id="DejaVuSans-31" transform="scale(0.015625)"/>
       </defs>
       <use xlink:href="#DejaVuSans-2212"/>
       <use x="83.789062" xlink:href="#DejaVuSans-31"/>
      </g>
     </g>
    </g>
    <g id="xtick_3">
     <g id="line2d_3">
      <g>
       <use style="stroke:#000000;stroke-width:0.8;" x="199.066772" xlink:href="#m9570224d9c" y="306.92"/>
      </g>
     </g>
     <g id="text_3">
      <!-- 0 -->
      <g transform="translate(195.885522 321.518437)scale(0.1 -0.1)">
       <defs>
        <path d="M 2034 4250 
Q 1547 4250 1301 3770 
Q 1056 3291 1056 2328 
Q 1056 1369 1301 889 
Q 1547 409 2034 409 
Q 2525 409 2770 889 
Q 3016 1369 3016 2328 
Q 3016 3291 2770 3770 
Q 2525 4250 2034 4250 
z
M 2034 4750 
Q 2819 4750 3233 4129 
Q 3647 3509 3647 2328 
Q 3647 1150 3233 529 
Q 2819 -91 2034 -91 
Q 1250 -91 836 529 
Q 422 1150 422 2328 
Q 422 3509 836 4129 
Q 1250 4750 2034 4750 
z
" id="DejaVuSans-30" transform="scale(0.015625)"/>
       </defs>
       <use xlink:href="#DejaVuSans-30"/>
      </g>
     </g>
    </g>
    <g id="xtick_4">
     <g id="line2d_4">
      <g>
       <use style="stroke:#000000;stroke-width:0.8;" x="253.067623" xlink:href="#m9570224d9c" y="306.92"/>
      </g>
     </g>
     <g id="text_4">
      <!-- 1 -->
      <g transform="translate(249.886373 321.518437)scale(0.1 -0.1)">
       <use xlink:href="#DejaVuSans-31"/>
      </g>
     </g>
    </g>
    <g id="xtick_5">
     <g id="line2d_5">
      <g>
       <use style="stroke:#000000;stroke-width:0.8;" x="307.068475" xlink:href="#m9570224d9c" y="306.92"/>
      </g>
     </g>
     <g id="text_5">
      <!-- 2 -->
      <g transform="translate(303.887225 321.518437)scale(0.1 -0.1)">
       <use xlink:href="#DejaVuSans-32"/>
      </g>
     </g>
    </g>
    <g id="xtick_6">
     <g id="line2d_6">
      <g>
       <use style="stroke:#000000;stroke-width:0.8;" x="361.069326" xlink:href="#m9570224d9c" y="306.92"/>
      </g>
     </g>
     <g id="text_6">
      <!-- 3 -->
      <g transform="translate(357.888076 321.518437)scale(0.1 -0.1)">
       <defs>
        <path d="M 2597 2516 
Q 3050 2419 3304 2112 
Q 3559 1806 3559 1356 
Q 3559 666 3084 287 
Q 2609 -91 1734 -91 
Q 1441 -91 1130 -33 
Q 819 25 488 141 
L 488 750 
Q 750 597 1062 519 
Q 1375 441 1716 441 
Q 2309 441 2620 675 
Q 2931 909 2931 1356 
Q 2931 1769 2642 2001 
Q 2353 2234 1838 2234 
L 1294 2234 
L 1294 2753 
L 1863 2753 
Q 2328 2753 2575 2939 
Q 2822 3125 2822 3475 
Q 2822 3834 2567 4026 
Q 2313 4219 1838 4219 
Q 1578 4219 1281 4162 
Q 984 4106 628 3988 
L 628 4550 
Q 988 4650 1302 4700 
Q 1616 4750 1894 4750 
Q 2613 4750 3031 4423 
Q 3450 4097 3450 3541 
Q 3450 3153 3228 2886 
Q 3006 2619 2597 2516 
z
" id="DejaVuSans-33" transform="scale(0.015625)"/>
       </defs>
       <use xlink:href="#DejaVuSans-33"/>
      </g>
     </g>
    </g>
    <g id="xtick_7">
     <g id="line2d_7">
      <g>
       <use style="stroke:#000000;stroke-width:0.8;" x="415.070178" xlink:href="#m9570224d9c" y="306.92"/>
      </g>
     </g>
     <g id="text_7">
      <!-- 4 -->
      <g transform="translate(411.888928 321.518437)scale(0.1 -0.1)">
       <defs>
        <path d="M 2419 4116 
L 825 1625 
L 2419 1625 
L 2419 4116 
z
M 2253 4666 
L 3047 4666 
L 3047 1625 
L 3713 1625 
L 3713 1100 
L 3047 1100 
L 3047 0 
L 2419 0 
L 2419 1100 
L 313 1100 
L 313 1709 
L 2253 4666 
z
" id="DejaVuSans-34" transform="scale(0.015625)"/>
       </defs>
       <use xlink:href="#DejaVuSans-34"/>
      </g>
     </g>
    </g>
   </g>
   <g id="matplotlib.axis_2">
    <g id="ytick_1">
     <g id="line2d_8">
      <defs>
       <path d="M 0 0 
L -3.5 0 
" id="m3e1f6d2b9c" style="stroke:#000000;stroke-width:0.8;"/>
      </defs>
      <g>
       <use style="stroke:#000000;stroke-width:0.8;" x="46.128125" xlink:href="#m3e1f6d2b9c" y="306.92"/>
      </g>
     </g>
     <g id="text_8">
      <!-- 0 -->
      <g transform="translate(32.765625 310.719219)scale(0.1 -0.1)">
       <use xlink:href="#DejaVuSans-30"/>
      </g>
     </g>
    </g>
    <g id="ytick_2">
     <g id="line2d_9">
      <g>
       <use style="stroke:#000000;stroke-width:0.8;" x="46.128125" xlink:href="#m3e1f6d2b9c" y="248.447353"/>
      </g>
     </g>
     <g id="text_9">
      <!-- 1000 -->
      <g transform="translate(13.678125 252.246572)scale(0.1 -0.1)">
       <use xlink:href="#DejaVuSans-31"/>
       <use x="63.623047" xlink:href="#DejaVuSans-30"/>
       <use x="127.246094" xlink:href="#DejaVuSans-30"/>
       <use x="190.869141" xlink:href="#DejaVuSans-30"/>
      </g>
     </g>
    </g>
    <g id="ytick_3">
     <g id="line2d_10">
      <g>
       <use style="stroke:#000000;stroke-width:0.8;" x="46.128125" xlink:href="#m3e1f6d2b9c" y="189.974706"/>
      </g>
     </g>
     <g id="text_10">
      <!-- 2000 -->
      <g transform="translate(13.678125 193.773925)scale(0.1 -0.1)">
       <use xlink:href="#DejaVuSans-32"/>
       <use x="63.623047" xlink:href="#DejaVuSans-30"/>
       <use x="127.246094" xlink:href="#DejaVuSans-30"/>
       <use x="190.869141" xlink:href="#DejaVuSans-30"/>
      </g>
     </g>
    </g>
    <g id="ytick_4">
     <g id="line2d_11">
      <g>
       <use style="stroke:#000000;stroke-width:0.8;" x="46.128125" xlink:href="#m3e1f6d2b9c" y="131.502059"/>
      </g>
     </g>
     <g id="text_11">
      <!-- 3000 -->
      <g transform="translate(13.678125 135.301278)scale(0.1 -0.1)">
       <use xlink:href="#DejaVuSans-33"/>
       <use x="63.623047" xlink:href="#DejaVuSans-30"/>
       <use x="127.246094" xlink:href="#DejaVuSans-30"/>
       <use x="190.869141" xlink:href="#DejaVuSans-30"/>
      </g>
     </g>
    </g>
    <g id="ytick_5">
     <g id="line2d_12">
      <g>
       <use style="stroke:#000000;stroke-width:0.8;" x="46.128125" xlink:href="#m3e1f6d2b9c" y="73.029412"/>
      </g>
     </g>
     <g id="text_12">
      <!-- 4000 -->
      <g transform="translate(13.678125 76.828631)scale(0.1 -0.1)">
       <use xlink:href="#DejaVuSans-34"/>
       <use x="63.623047" xlink:href="#DejaVuSans-30"/>
       <use x="127.246094" xlink:href="#DejaVuSans-30"/>
       <use x="190.869141" xlink:href="#DejaVuSans-30"/>
      </g>
     </g>
    </g>
    <g id="ytick_6">
     <g id="line2d_13">
      <g>
       <use style="stroke:#000000;stroke-width:0.8;" x="46.128125" xlink:href="#m3e1f6d2b9c" y="14.556765"/>
      </g>
     </g>
     <g id="text_13">
      <!-- 5000 -->
      <g transform="translate(13.678125 18.355984)scale(0.1 -0.1)">
       <defs>
        <path d="M 691 4666 
L 3169 4666 
L 3169 4134 
L 1269 4134 
L 1269 2991 
Q 1406 3038 1543 3061 
Q 1681 3084 1819 3084 
Q 2600 3084 3056 2656 
Q 3513 2228 3513 1497 
Q 3513 744 3044 326 
Q 2575 -91 1722 -91 
Q 1428 -91 1123 -41 
Q 819 9 494 109 
L 494 744 
Q 775 591 1075 516 
Q 1375 441 1709 441 
Q 2250 441 2565 725 
Q 2881 1009 2881 1497 
Q 2881 1984 2565 2268 
Q 2250 2553 1709 2553 
Q 1456 2553 1204 2497 
Q 953 2441 691 2322 
L 691 4666 
z
" id="DejaVuSans-35" transform="scale(0.015625)"/>
       </defs>
       <use xlink:href="#DejaVuSans-35"/>
       <use x="63.623047" xlink:href="#DejaVuSans-30"/>
       <use x="127.246094" xlink:href="#DejaVuSans-30"/>
       <use x="190.869141" xlink:href="#DejaVuSans-30"/>
      </g>
     </g>
    </g>
    <g id="text_14">
     <!-- n windows -->
     <g transform="translate(7.598438 179.792031)rotate(-90)scale(0.1 -0.1)">
      <defs>
       <path d="M 3513 2113 
L 3513 0 
L 2938 0 
L 2938 2094 
Q 2938 2591 2744 2837 
Q 2550 3084 2163 3084 
Q 1697 3084 1428 2787 
Q 1159 2491 1159 1978 
L 1159 0 
L 581 0 
L 581 3500 
L 1159 3500 
L 1159 2956 
Q 1366 3272 1645 3428 
Q 1925 3584 2291 3584 
Q 2894 3584 3203 3211 
Q 3513 2838 3513 2113 
z
" id="DejaVuSans-6e" transform="scale(0.015625)"/>
       <path id="DejaVuSans-20" transform="scale(0.015625)"/>
       <path d="M 269 3500 
L 844 3500 
L 1563 769 
L 2278 3500 
L 2956 3500 
L 3675 769 
L 4391 3500 
L 4966 3500 
L 4050 0 
L 3372 0 
L 2619 2869 
L 1863 0 
L 1184 0 
L 269 3500 
z
" id="DejaVuSans-77" transform="scale(0.015625)"/>
       <path d="M 603 3500 
L 1178 3500 
L 1178 0 
L 603 0 
L 603 3500 
z
M 603 4863 
L 1178 4863 
L 1178 4134 
L 603 4134 
L 603 4863 
z
" id="DejaVuSans-69" transform="scale(0.015625)"/>
       <path d="M 2906 2969 
L 2906 4863 
L 3481 4863 
L 3481 0 
L 2906 0 
L 2906 525 
Q 2725 213 2448 61 
Q 2172 -91 1784 -91 
Q 1150 -91 751 415 
Q 353 922 353 1747 
Q 353 2572 751 3078 
Q 1150 3584 1784 3584 
Q 2172 3584 2448 3432 
Q 2725 3281 2906 2969 
z
M 947 1747 
Q 947 1113 1208 752 
Q 1469 391 1925 391 
Q 2381 391 2643 752 
Q 2906 1113 2906 1747 
Q 2906 2381 2643 2742 
Q 2381 3103 1925 3103 
Q 1469 3103 1208 2742 
Q 947 2381 947 1747 
z
" id="DejaVuSans-64" transform="scale(0.015625)"/>
       <path d="M 1959 3097 
Q 1497 3097 1228 2736 
Q 959 2375 959 1747 
Q 959 1119 1226 758 
Q 1494 397 1959 397 
Q 2419 397 2687 759 
Q 2956 1122 2956 1747 
Q 2956 2369 2687 2733 
Q 2419 3097 1959 3097 
z
M 1959 3584 
Q 2709 3584 3137 3096 
Q 3566 2609 3566 1747 
Q 3566 888 3137 398 
Q 2709 -91 1959 -91 
Q 1206 -91 779 398 
Q 353 888 353 1747 
Q 353 2609 779 3096 
Q 1206 3584 1959 3584 
z
" id="DejaVuSans-6f" transform="scale(0.015625)"/>
       <path d="M 2834 3397 
L 2834 2853 
Q 2591 2978 2328 3040 
Q 2066 3103 1784 3103 
Q 1356 3103 1142 2972 
Q 928 2841 928 2578 
Q 928 2378 1081 2264 
Q 1234 2150 1697 2047 
L 1894 2003 
Q 2506 1872 2764 1633 
Q 3022 1394 3022 966 
Q 3022 478 2636 193 
Q 2250 -91 1575 -91 
Q 1294 -91 989 -36 
Q 684 19 347 128 
L 347 722 
Q 666 556 975 473 
Q 1284 391 1588 391 
Q 1994 391 2212 530 
Q 2431 669 2431 922 
Q 2431 1156 2273 1281 
Q 2116 1406 1581 1522 
L 1381 1569 
Q 847 1681 609 1914 
Q 372 2147 372 2553 
Q 372 3047 722 3315 
Q 1072 3584 1716 3584 
Q 2034 3584 2315 3537 
Q 2597 3491 2834 3397 
z
" id="DejaVuSans-73" transform="scale(0.015625)"/>
      </defs>
      <use xlink:href="#DejaVuSans-6e"/>
      <use x="63.378906" xlink:href="#DejaVuSans-20"/>
      <use x="95.166016" xlink:href="#DejaVuSans-77"/>
      <use x="176.953125" xlink:href="#DejaVuSans-69"/>
      <use x="204.736328" xlink:href="#DejaVuSans-6e"/>
      <use x="268.115234" xlink:href="#DejaVuSans-64"/>
      <use x="331.591797" xlink:href="#DejaVuSans-6f"/>
      <use x="392.773438" xlink:href="#DejaVuSans-77"/>
      <use x="474.560547" xlink:href="#DejaVuSans-73"/>
     </g>
    </g>
   </g>
   <g id="line2d_14">
    <path clip-path="url(#pb2a47655e7)" d="M 147.676268 306.92 
L 147.676268 0 
" style="fill:none;stroke:#e7ba52;stroke-dasharray:3.7,1.6;stroke-dashoffset:0;"/>
   </g>
   <g id="patch_53">
    <path d="M 46.128125 306.92 
L 46.128125 0 
" style="fill:none;stroke:#000000;stroke-linecap:square;stroke-linejoin:miter;stroke-width:0.8;"/>
   </g>
   <g id="patch_54">
    <path d="M 438.688125 306.92 
L 438.688125 0 
" style="fill:none;stroke:#000000;stroke-linecap:square;stroke-linejoin:miter;stroke-width:0.8;"/>
   </g>
   <g id="patch_55">
    <path d="M 46.128125 306.92 
L 438.688125 306.92 
" style="fill:none;stroke:#000000;stroke-linecap:square;stroke-linejoin:miter;stroke-width:0.8;"/>
   </g>
   <g id="patch_56">
    <path d="M 46.128125 0 
L 438.688125 0 
" style="fill:none;stroke:#000000;stroke-linecap:square;stroke-linejoin:miter;stroke-width:0.8;"/>
   </g>
   <g id="legend_1">
    <g id="patch_57">
     <path d="M 334.188125 22.678125 
L 431.688125 22.678125 
Q 433.688125 22.678125 433.688125 20.678125 
L 433.688125 7 
Q 433.688125 5 431.688125 5 
L 334.188125 5 
Q 332.188125 5 332.188125 7 
L 332.188125 20.678125 
Q 332.188125 22.678125 334.188125 22.678125 
z
" style="fill:#ffffff;opacity:0.8;stroke:#cccccc;stroke-linejoin:miter;"/>
    </g>
    <g id="line2d_15">
     <path d="M 336.188125 13.098438 
L 356.188125 13.098438 
" style="fill:none;stroke:#e7ba52;stroke-dasharray:3.7,1.6;stroke-dashoffset:0;"/>
    </g>
    <g id="line2d_16"/>
    <g id="text_15">
     <!-- $\bar{x}=-0.9517$ -->
     <g transform="translate(364.188125 16.598438)scale(0.1 -0.1)">
      <defs>
       <path d="M -2522 4769 
L -653 4769 
L -653 4306 
L -2522 4306 
L -2522 4769 
z
" id="DejaVuSans-304" transform="scale(0.015625)"/>
       <path d="M 3841 3500 
L 2234 1784 
L 3219 0 
L 2559 0 
L 1819 1388 
L 531 0 
L -166 0 
L 1556 1844 
L 641 3500 
L 1300 3500 
L 1972 2234 
L 3144 3500 
L 3841 3500 
z
" id="DejaVuSans-Oblique-78" transform="scale(0.015625)"/>
       <path d="M 678 2906 
L 4684 2906 
L 4684 2381 
L 678 2381 
L 678 2906 
z
M 678 1631 
L 4684 1631 
L 4684 1100 
L 678 1100 
L 678 1631 
z
" id="DejaVuSans-3d" transform="scale(0.015625)"/>
       <path d="M 684 794 
L 1344 794 
L 1344 0 
L 684 0 
L 684 794 
z
" id="DejaVuSans-2e" transform="scale(0.015625)"/>
       <path d="M 703 97 
L 703 672 
Q 941 559 1184 500 
Q 1428 441 1663 441 
Q 2288 441 2617 861 
Q 2947 1281 2994 2138 
Q 2813 1869 2534 1725 
Q 2256 1581 1919 1581 
Q 1219 1581 811 2004 
Q 403 2428 403 3163 
Q 403 3881 828 4315 
Q 1253 4750 1959 4750 
Q 2769 4750 3195 4129 
Q 3622 3509 3622 2328 
Q 3622 1225 3098 567 
Q 2575 -91 1691 -91 
Q 1453 -91 1209 -44 
Q 966 3 703 97 
z
M 1959 2075 
Q 2384 2075 2632 2365 
Q 2881 2656 2881 3163 
Q 2881 3666 2632 3958 
Q 2384 4250 1959 4250 
Q 1534 4250 1286 3958 
Q 1038 3666 1038 3163 
Q 1038 2656 1286 2365 
Q 1534 2075 1959 2075 
z
" id="DejaVuSans-39" transform="scale(0.015625)"/>
       <path d="M 525 4666 
L 3525 4666 
L 3525 4397 
L 1831 0 
L 1172 0 
L 2766 4134 
L 525 4134 
L 525 4666 
z
" id="DejaVuSans-37" transform="scale(0.015625)"/>
      </defs>
      <use transform="translate(62.201172 0.484375)" xlink:href="#DejaVuSans-304"/>
      <use transform="translate(0 0.578125)" xlink:href="#DejaVuSans-Oblique-78"/>
      <use transform="translate(78.662109 0.578125)" xlink:href="#DejaVuSans-3d"/>
      <use transform="translate(201.416016 0.578125)" xlink:href="#DejaVuSans-2212"/>
      <use transform="translate(304.6875 0.578125)" xlink:href="#DejaVuSans-30"/>
      <use transform="translate(368.310547 0.578125)" xlink:href="#DejaVuSans-2e"/>
      <use transform="translate(400.097656 0.578125)" xlink:href="#DejaVuSans-39"/>
      <use transform="translate(463.720703 0.578125)" xlink:href="#DejaVuSans-35"/>
      <use transform="translate(527.34375 0.578125)" xlink:href="#DejaVuSans-31"/>
      <use transform="translate(590.966797 0.578125)" xlink:href="#DejaVuSans-37"/>
     </g>
    </g>
   </g>
  </g>
 </g>
 <defs>
  <clipPath id="pb2a47655e7">
   <rect height="306.92" width="392.56" x="46.128125" y="0"/>
  </clipPath>
 </defs>
</svg>
