<?xml version="1.0" encoding="utf-8" standalone="no"?>
<!DOCTYPE svg PUBLIC "-//W3C//DTD SVG 1.1//EN"
  "http://www.w3.org/Graphics/SVG/1.1/DTD/svg11.dtd">
<svg height="266.112pt" version="1.1" viewBox="0 0 409.956975 266.112" width="409.956975pt" xmlns="http://www.w3.org/2000/svg" xmlns:xlink="http://www.w3.org/1999/xlink">
 <metadata>
  <rdf:RDF xmlns:cc="http://creativecommons.org/ns#" xmlns:dc="http://purl.org/dc/elements/1.1/" xmlns:rdf="http://www.w3.org/1999/02/22-rdf-syntax-ns#">
   <cc:Work>
    <dc:type rdf:resource="http://purl.org/dc/dcmitype/StillImage"/>
    <dc:date>2021-12-05T09:37:02.478541</dc:date>
    <dc:format>image/svg+xml</dc:format>
    <dc:creator>
     <cc:Agent>
      <dc:title>Matplotlib v3.4.3, https://matplotlib.org/</dc:title>
     </cc:Agent>
    </dc:creator>
   </cc:Work>
  </rdf:RDF>
 </metadata>
 <defs>
  <style type="text/css">*{stroke-linecap:butt;stroke-linejoin:round;}</style>
 </defs>
 <g id="figure_1">
  <g id="patch_1">
   <path d="M 0 266.112 
L 409.956975 266.112 
L 409.956975 0 
L 0 0 
z
" style="fill:#ffffff;"/>
  </g>
  <g id="axes_1">
   <g id="patch_2">
    <path d="M 193.777706 12.096 
C 165.383629 12.096 137.884911 22.1404 116.175653 40.441541 
C 94.466395 58.742682 79.915728 84.146373 75.113314 112.131377 
C 70.310901 140.116381 75.559613 168.917778 89.925309 193.409622 
C 104.291005 217.901466 126.867687 236.539139 153.637259 246.005589 
L 169.693438 200.601345 
C 153.631695 194.921475 140.085685 183.738871 131.466268 169.043765 
C 122.84685 154.348659 119.697623 137.06782 122.579071 120.276818 
C 125.460519 103.485815 134.19092 88.243601 147.216474 77.262916 
C 160.242029 66.282231 176.74126 60.255592 193.777706 60.255592 
L 193.777706 12.096 
z
" style="fill:#3182bd;stroke:#ffffff;stroke-linejoin:miter;"/>
   </g>
   <g id="patch_3">
    <path d="M 153.637259 246.005589 
C 170.168062 251.851332 187.778055 254.016 205.23249 252.347814 
C 222.686925 250.679629 239.568093 245.218512 254.692349 236.347376 
C 269.816605 227.476241 282.822004 215.407387 292.796655 200.987037 
C 302.771306 186.566687 309.476501 170.139941 312.442098 152.858581 
C 315.407695 135.577221 314.562721 117.854816 309.966425 100.933994 
C 305.370128 84.013172 297.132504 68.298873 285.831144 54.892926 
C 274.529785 41.486979 260.435147 30.710207 244.535495 23.318237 
C 228.635842 15.926267 211.311677 12.096 193.777706 12.096 
L 193.777706 60.255592 
C 204.298089 60.255592 214.692588 62.553752 224.232379 66.988934 
C 233.77217 71.424116 242.228953 77.890179 249.009769 85.933747 
C 255.790585 93.977316 260.733159 103.405895 263.490937 113.558388 
C 266.248715 123.710881 266.755699 134.344324 264.976341 144.71314 
C 263.196983 155.081956 259.173866 164.938004 253.189075 173.590214 
C 247.204285 182.242424 239.401046 189.483736 230.326492 194.806417 
C 221.251938 200.129099 211.123238 203.405769 200.650576 204.40668 
C 190.177915 205.407592 179.611919 204.108791 169.693438 200.601345 
L 153.637259 246.005589 
z
" style="fill:#fd8d3c;stroke:#ffffff;stroke-linejoin:miter;"/>
   </g>
   <g id="patch_4">
    <path d="M 193.777706 60.255592 
C 179.545932 60.255592 165.626581 64.461262 153.775923 72.341954 
C 141.925265 80.222645 132.663603 91.432357 127.159526 104.556705 
L 149.365586 113.869463 
C 153.034971 105.119898 159.209412 97.646757 167.109851 92.392962 
C 175.010289 87.139168 184.289857 84.335387 193.777706 84.335387 
L 193.777706 60.255592 
z
" style="fill:#6baed6;stroke:#ffffff;stroke-linejoin:miter;"/>
   </g>
   <g id="patch_5">
    <path d="M 127.159526 104.556705 
C 123.356216 113.625611 121.444517 123.376365 121.541857 133.210019 
C 121.639198 143.043673 123.743542 152.754673 127.72563 161.746514 
C 131.707717 170.738356 137.48431 178.82308 144.700577 185.504077 
C 151.916843 192.185075 160.421941 197.322691 169.693438 200.601345 
L 177.721527 177.899223 
C 171.540529 175.713454 165.870464 172.288376 161.05962 167.834378 
C 156.248775 163.380379 152.397714 157.990563 149.742988 151.996003 
C 147.088263 146.001442 145.685367 139.527442 145.620474 132.971672 
C 145.55558 126.415903 146.830046 119.915401 149.365586 113.869463 
L 127.159526 104.556705 
z
" style="fill:#9ecae1;stroke:#ffffff;stroke-linejoin:miter;"/>
   </g>
   <g id="patch_6">
    <path d="M 169.693438 200.601345 
C 187.21887 206.798816 206.47749 205.99868 223.42844 198.368821 
C 240.37939 190.738962 253.747963 176.853145 260.729155 159.624901 
C 267.710347 142.396656 267.779174 123.121545 260.921196 105.843884 
C 254.063217 88.566223 240.794151 74.585287 223.898123 66.834568 
L 213.857984 88.721372 
C 225.122003 93.888518 233.968047 103.209141 238.540033 114.727582 
C 243.112018 126.246023 243.066133 139.096097 238.412005 150.581593 
C 233.757877 162.06709 224.845495 171.324301 213.544862 176.410874 
C 202.244229 181.497446 189.405149 182.030871 177.721527 177.899223 
L 169.693438 200.601345 
z
" style="fill:#fdae6b;stroke:#ffffff;stroke-linejoin:miter;"/>
   </g>
   <g id="patch_7">
    <path d="M 223.898123 66.834568 
C 219.186942 64.673407 214.256817 63.025554 209.192976 61.919498 
C 204.129136 60.813441 198.96093 60.255591 193.777703 60.255592 
L 193.777704 84.335387 
C 197.233188 84.335387 200.678659 84.707287 204.054553 85.444658 
C 207.430446 86.182029 210.717197 87.280598 213.857984 88.721372 
L 223.898123 66.834568 
z
" style="fill:#fdd0a2;stroke:#ffffff;stroke-linejoin:miter;"/>
   </g>
   <g id="matplotlib.axis_1"/>
   <g id="matplotlib.axis_2"/>
   <g id="text_1">
    <!-- synonymous -->
    <g transform="translate(0 112.854392)scale(0.1 -0.1)">
     <defs>
      <path d="M 2834 3397 
L 2834 2853 
Q 2591 2978 2328 3040 
Q 2066 3103 1784 3103 
Q 1356 3103 1142 2972 
Q 928 2841 928 2578 
Q 928 2378 1081 2264 
Q 1234 2150 1697 2047 
L 1894 2003 
Q 2506 1872 2764 1633 
Q 3022 1394 3022 966 
Q 3022 478 2636 193 
Q 2250 -91 1575 -91 
Q 1294 -91 989 -36 
Q 684 19 347 128 
L 347 722 
Q 666 556 975 473 
Q 1284 391 1588 391 
Q 1994 391 2212 530 
Q 2431 669 2431 922 
Q 2431 1156 2273 1281 
Q 2116 1406 1581 1522 
L 1381 1569 
Q 847 1681 609 1914 
Q 372 2147 372 2553 
Q 372 3047 722 3315 
Q 1072 3584 1716 3584 
Q 2034 3584 2315 3537 
Q 2597 3491 2834 3397 
z
" id="DejaVuSans-73" transform="scale(0.015625)"/>
      <path d="M 2059 -325 
Q 1816 -950 1584 -1140 
Q 1353 -1331 966 -1331 
L 506 -1331 
L 506 -850 
L 844 -850 
Q 1081 -850 1212 -737 
Q 1344 -625 1503 -206 
L 1606 56 
L 191 3500 
L 800 3500 
L 1894 763 
L 2988 3500 
L 3597 3500 
L 2059 -325 
z
" id="DejaVuSans-79" transform="scale(0.015625)"/>
      <path d="M 3513 2113 
L 3513 0 
L 2938 0 
L 2938 2094 
Q 2938 2591 2744 2837 
Q 2550 3084 2163 3084 
Q 1697 3084 1428 2787 
Q 1159 2491 1159 1978 
L 1159 0 
L 581 0 
L 581 3500 
L 1159 3500 
L 1159 2956 
Q 1366 3272 1645 3428 
Q 1925 3584 2291 3584 
Q 2894 3584 3203 3211 
Q 3513 2838 3513 2113 
z
" id="DejaVuSans-6e" transform="scale(0.015625)"/>
      <path d="M 1959 3097 
Q 1497 3097 1228 2736 
Q 959 2375 959 1747 
Q 959 1119 1226 758 
Q 1494 397 1959 397 
Q 2419 397 2687 759 
Q 2956 1122 2956 1747 
Q 2956 2369 2687 2733 
Q 2419 3097 1959 3097 
z
M 1959 3584 
Q 2709 3584 3137 3096 
Q 3566 2609 3566 1747 
Q 3566 888 3137 398 
Q 2709 -91 1959 -91 
Q 1206 -91 779 398 
Q 353 888 353 1747 
Q 353 2609 779 3096 
Q 1206 3584 1959 3584 
z
" id="DejaVuSans-6f" transform="scale(0.015625)"/>
      <path d="M 3328 2828 
Q 3544 3216 3844 3400 
Q 4144 3584 4550 3584 
Q 5097 3584 5394 3201 
Q 5691 2819 5691 2113 
L 5691 0 
L 5113 0 
L 5113 2094 
Q 5113 2597 4934 2840 
Q 4756 3084 4391 3084 
Q 3944 3084 3684 2787 
Q 3425 2491 3425 1978 
L 3425 0 
L 2847 0 
L 2847 2094 
Q 2847 2600 2669 2842 
Q 2491 3084 2119 3084 
Q 1678 3084 1418 2786 
Q 1159 2488 1159 1978 
L 1159 0 
L 581 0 
L 581 3500 
L 1159 3500 
L 1159 2956 
Q 1356 3278 1631 3431 
Q 1906 3584 2284 3584 
Q 2666 3584 2933 3390 
Q 3200 3197 3328 2828 
z
" id="DejaVuSans-6d" transform="scale(0.015625)"/>
      <path d="M 544 1381 
L 544 3500 
L 1119 3500 
L 1119 1403 
Q 1119 906 1312 657 
Q 1506 409 1894 409 
Q 2359 409 2629 706 
Q 2900 1003 2900 1516 
L 2900 3500 
L 3475 3500 
L 3475 0 
L 2900 0 
L 2900 538 
Q 2691 219 2414 64 
Q 2138 -91 1772 -91 
Q 1169 -91 856 284 
Q 544 659 544 1381 
z
M 1991 3584 
L 1991 3584 
z
" id="DejaVuSans-75" transform="scale(0.015625)"/>
     </defs>
     <use xlink:href="#DejaVuSans-73"/>
     <use x="52.099609" xlink:href="#DejaVuSans-79"/>
     <use x="111.279297" xlink:href="#DejaVuSans-6e"/>
     <use x="174.658203" xlink:href="#DejaVuSans-6f"/>
     <use x="235.839844" xlink:href="#DejaVuSans-6e"/>
     <use x="299.21875" xlink:href="#DejaVuSans-79"/>
     <use x="358.398438" xlink:href="#DejaVuSans-6d"/>
     <use x="455.810547" xlink:href="#DejaVuSans-6f"/>
     <use x="516.992188" xlink:href="#DejaVuSans-75"/>
     <use x="580.371094" xlink:href="#DejaVuSans-73"/>
    </g>
   </g>
   <g id="text_2">
    <!-- 54628 -->
    <g transform="translate(82.939943 113.364566)scale(0.1 -0.1)">
     <defs>
      <path d="M 691 4666 
L 3169 4666 
L 3169 4134 
L 1269 4134 
L 1269 2991 
Q 1406 3038 1543 3061 
Q 1681 3084 1819 3084 
Q 2600 3084 3056 2656 
Q 3513 2228 3513 1497 
Q 3513 744 3044 326 
Q 2575 -91 1722 -91 
Q 1428 -91 1123 -41 
Q 819 9 494 109 
L 494 744 
Q 775 591 1075 516 
Q 1375 441 1709 441 
Q 2250 441 2565 725 
Q 2881 1009 2881 1497 
Q 2881 1984 2565 2268 
Q 2250 2553 1709 2553 
Q 1456 2553 1204 2497 
Q 953 2441 691 2322 
L 691 4666 
z
" id="DejaVuSans-35" transform="scale(0.015625)"/>
      <path d="M 2419 4116 
L 825 1625 
L 2419 1625 
L 2419 4116 
z
M 2253 4666 
L 3047 4666 
L 3047 1625 
L 3713 1625 
L 3713 1100 
L 3047 1100 
L 3047 0 
L 2419 0 
L 2419 1100 
L 313 1100 
L 313 1709 
L 2253 4666 
z
" id="DejaVuSans-34" transform="scale(0.015625)"/>
      <path d="M 2113 2584 
Q 1688 2584 1439 2293 
Q 1191 2003 1191 1497 
Q 1191 994 1439 701 
Q 1688 409 2113 409 
Q 2538 409 2786 701 
Q 3034 994 3034 1497 
Q 3034 2003 2786 2293 
Q 2538 2584 2113 2584 
z
M 3366 4563 
L 3366 3988 
Q 3128 4100 2886 4159 
Q 2644 4219 2406 4219 
Q 1781 4219 1451 3797 
Q 1122 3375 1075 2522 
Q 1259 2794 1537 2939 
Q 1816 3084 2150 3084 
Q 2853 3084 3261 2657 
Q 3669 2231 3669 1497 
Q 3669 778 3244 343 
Q 2819 -91 2113 -91 
Q 1303 -91 875 529 
Q 447 1150 447 2328 
Q 447 3434 972 4092 
Q 1497 4750 2381 4750 
Q 2619 4750 2861 4703 
Q 3103 4656 3366 4563 
z
" id="DejaVuSans-36" transform="scale(0.015625)"/>
      <path d="M 1228 531 
L 3431 531 
L 3431 0 
L 469 0 
L 469 531 
Q 828 903 1448 1529 
Q 2069 2156 2228 2338 
Q 2531 2678 2651 2914 
Q 2772 3150 2772 3378 
Q 2772 3750 2511 3984 
Q 2250 4219 1831 4219 
Q 1534 4219 1204 4116 
Q 875 4013 500 3803 
L 500 4441 
Q 881 4594 1212 4672 
Q 1544 4750 1819 4750 
Q 2544 4750 2975 4387 
Q 3406 4025 3406 3419 
Q 3406 3131 3298 2873 
Q 3191 2616 2906 2266 
Q 2828 2175 2409 1742 
Q 1991 1309 1228 531 
z
" id="DejaVuSans-32" transform="scale(0.015625)"/>
      <path d="M 2034 2216 
Q 1584 2216 1326 1975 
Q 1069 1734 1069 1313 
Q 1069 891 1326 650 
Q 1584 409 2034 409 
Q 2484 409 2743 651 
Q 3003 894 3003 1313 
Q 3003 1734 2745 1975 
Q 2488 2216 2034 2216 
z
M 1403 2484 
Q 997 2584 770 2862 
Q 544 3141 544 3541 
Q 544 4100 942 4425 
Q 1341 4750 2034 4750 
Q 2731 4750 3128 4425 
Q 3525 4100 3525 3541 
Q 3525 3141 3298 2862 
Q 3072 2584 2669 2484 
Q 3125 2378 3379 2068 
Q 3634 1759 3634 1313 
Q 3634 634 3220 271 
Q 2806 -91 2034 -91 
Q 1263 -91 848 271 
Q 434 634 434 1313 
Q 434 1759 690 2068 
Q 947 2378 1403 2484 
z
M 1172 3481 
Q 1172 3119 1398 2916 
Q 1625 2713 2034 2713 
Q 2441 2713 2670 2916 
Q 2900 3119 2900 3481 
Q 2900 3844 2670 4047 
Q 2441 4250 2034 4250 
Q 1625 4250 1398 4047 
Q 1172 3844 1172 3481 
z
" id="DejaVuSans-38" transform="scale(0.015625)"/>
     </defs>
     <use xlink:href="#DejaVuSans-35"/>
     <use x="63.623047" xlink:href="#DejaVuSans-34"/>
     <use x="127.246094" xlink:href="#DejaVuSans-36"/>
     <use x="190.869141" xlink:href="#DejaVuSans-32"/>
     <use x="254.492188" xlink:href="#DejaVuSans-38"/>
    </g>
    <!-- 44.6% -->
    <g transform="translate(82.962599 124.562379)scale(0.1 -0.1)">
     <defs>
      <path d="M 684 794 
L 1344 794 
L 1344 0 
L 684 0 
L 684 794 
z
" id="DejaVuSans-2e" transform="scale(0.015625)"/>
      <path d="M 4653 2053 
Q 4381 2053 4226 1822 
Q 4072 1591 4072 1178 
Q 4072 772 4226 539 
Q 4381 306 4653 306 
Q 4919 306 5073 539 
Q 5228 772 5228 1178 
Q 5228 1588 5073 1820 
Q 4919 2053 4653 2053 
z
M 4653 2450 
Q 5147 2450 5437 2106 
Q 5728 1763 5728 1178 
Q 5728 594 5436 251 
Q 5144 -91 4653 -91 
Q 4153 -91 3862 251 
Q 3572 594 3572 1178 
Q 3572 1766 3864 2108 
Q 4156 2450 4653 2450 
z
M 1428 4353 
Q 1159 4353 1004 4120 
Q 850 3888 850 3481 
Q 850 3069 1003 2837 
Q 1156 2606 1428 2606 
Q 1700 2606 1854 2837 
Q 2009 3069 2009 3481 
Q 2009 3884 1853 4118 
Q 1697 4353 1428 4353 
z
M 4250 4750 
L 4750 4750 
L 1831 -91 
L 1331 -91 
L 4250 4750 
z
M 1428 4750 
Q 1922 4750 2215 4408 
Q 2509 4066 2509 3481 
Q 2509 2891 2217 2550 
Q 1925 2209 1428 2209 
Q 931 2209 642 2551 
Q 353 2894 353 3481 
Q 353 4063 643 4406 
Q 934 4750 1428 4750 
z
" id="DejaVuSans-25" transform="scale(0.015625)"/>
     </defs>
     <use xlink:href="#DejaVuSans-34"/>
     <use x="63.623047" xlink:href="#DejaVuSans-34"/>
     <use x="127.246094" xlink:href="#DejaVuSans-2e"/>
     <use x="159.033203" xlink:href="#DejaVuSans-36"/>
     <use x="222.65625" xlink:href="#DejaVuSans-25"/>
    </g>
   </g>
   <g id="text_3">
    <!-- non-synonymous -->
    <g transform="translate(324.308537 157.654316)scale(0.1 -0.1)">
     <defs>
      <path d="M 313 2009 
L 1997 2009 
L 1997 1497 
L 313 1497 
L 313 2009 
z
" id="DejaVuSans-2d" transform="scale(0.015625)"/>
     </defs>
     <use xlink:href="#DejaVuSans-6e"/>
     <use x="63.378906" xlink:href="#DejaVuSans-6f"/>
     <use x="124.560547" xlink:href="#DejaVuSans-6e"/>
     <use x="187.939453" xlink:href="#DejaVuSans-2d"/>
     <use x="224.023438" xlink:href="#DejaVuSans-73"/>
     <use x="276.123047" xlink:href="#DejaVuSans-79"/>
     <use x="335.302734" xlink:href="#DejaVuSans-6e"/>
     <use x="398.681641" xlink:href="#DejaVuSans-6f"/>
     <use x="459.863281" xlink:href="#DejaVuSans-6e"/>
     <use x="523.242188" xlink:href="#DejaVuSans-79"/>
     <use x="582.421875" xlink:href="#DejaVuSans-6d"/>
     <use x="679.833984" xlink:href="#DejaVuSans-6f"/>
     <use x="741.015625" xlink:href="#DejaVuSans-75"/>
     <use x="804.394531" xlink:href="#DejaVuSans-73"/>
    </g>
   </g>
   <g id="text_4">
    <!-- 67883 -->
    <g transform="translate(272.80297 145.946329)scale(0.1 -0.1)">
     <defs>
      <path d="M 525 4666 
L 3525 4666 
L 3525 4397 
L 1831 0 
L 1172 0 
L 2766 4134 
L 525 4134 
L 525 4666 
z
" id="DejaVuSans-37" transform="scale(0.015625)"/>
      <path d="M 2597 2516 
Q 3050 2419 3304 2112 
Q 3559 1806 3559 1356 
Q 3559 666 3084 287 
Q 2609 -91 1734 -91 
Q 1441 -91 1130 -33 
Q 819 25 488 141 
L 488 750 
Q 750 597 1062 519 
Q 1375 441 1716 441 
Q 2309 441 2620 675 
Q 2931 909 2931 1356 
Q 2931 1769 2642 2001 
Q 2353 2234 1838 2234 
L 1294 2234 
L 1294 2753 
L 1863 2753 
Q 2328 2753 2575 2939 
Q 2822 3125 2822 3475 
Q 2822 3834 2567 4026 
Q 2313 4219 1838 4219 
Q 1578 4219 1281 4162 
Q 984 4106 628 3988 
L 628 4550 
Q 988 4650 1302 4700 
Q 1616 4750 1894 4750 
Q 2613 4750 3031 4423 
Q 3450 4097 3450 3541 
Q 3450 3153 3228 2886 
Q 3006 2619 2597 2516 
z
" id="DejaVuSans-33" transform="scale(0.015625)"/>
     </defs>
     <use xlink:href="#DejaVuSans-36"/>
     <use x="63.623047" xlink:href="#DejaVuSans-37"/>
     <use x="127.246094" xlink:href="#DejaVuSans-38"/>
     <use x="190.869141" xlink:href="#DejaVuSans-38"/>
     <use x="254.492188" xlink:href="#DejaVuSans-33"/>
    </g>
    <!-- 55.4% -->
    <g transform="translate(272.825626 157.144142)scale(0.1 -0.1)">
     <use xlink:href="#DejaVuSans-35"/>
     <use x="63.623047" xlink:href="#DejaVuSans-35"/>
     <use x="127.246094" xlink:href="#DejaVuSans-2e"/>
     <use x="159.033203" xlink:href="#DejaVuSans-34"/>
     <use x="222.65625" xlink:href="#DejaVuSans-25"/>
    </g>
   </g>
   <g id="text_5">
    <!-- 2-fold -->
    <g transform="translate(155.041323 120.216098)scale(0.1 -0.1)">
     <defs>
      <path d="M 2375 4863 
L 2375 4384 
L 1825 4384 
Q 1516 4384 1395 4259 
Q 1275 4134 1275 3809 
L 1275 3500 
L 2222 3500 
L 2222 3053 
L 1275 3053 
L 1275 0 
L 697 0 
L 697 3053 
L 147 3053 
L 147 3500 
L 697 3500 
L 697 3744 
Q 697 4328 969 4595 
Q 1241 4863 1831 4863 
L 2375 4863 
z
" id="DejaVuSans-66" transform="scale(0.015625)"/>
      <path d="M 603 4863 
L 1178 4863 
L 1178 0 
L 603 0 
L 603 4863 
z
" id="DejaVuSans-6c" transform="scale(0.015625)"/>
      <path d="M 2906 2969 
L 2906 4863 
L 3481 4863 
L 3481 0 
L 2906 0 
L 2906 525 
Q 2725 213 2448 61 
Q 2172 -91 1784 -91 
Q 1150 -91 751 415 
Q 353 922 353 1747 
Q 353 2572 751 3078 
Q 1150 3584 1784 3584 
Q 2172 3584 2448 3432 
Q 2725 3281 2906 2969 
z
M 947 1747 
Q 947 1113 1208 752 
Q 1469 391 1925 391 
Q 2381 391 2643 752 
Q 2906 1113 2906 1747 
Q 2906 2381 2643 2742 
Q 2381 3103 1925 3103 
Q 1469 3103 1208 2742 
Q 947 2381 947 1747 
z
" id="DejaVuSans-64" transform="scale(0.015625)"/>
     </defs>
     <use xlink:href="#DejaVuSans-32"/>
     <use x="63.623047" xlink:href="#DejaVuSans-2d"/>
     <use x="99.707031" xlink:href="#DejaVuSans-66"/>
     <use x="134.912109" xlink:href="#DejaVuSans-6f"/>
     <use x="196.09375" xlink:href="#DejaVuSans-6c"/>
     <use x="223.876953" xlink:href="#DejaVuSans-64"/>
    </g>
   </g>
   <g id="text_6">
    <!-- 4-fold -->
    <g transform="translate(148.528749 142.567238)scale(0.1 -0.1)">
     <use xlink:href="#DejaVuSans-34"/>
     <use x="63.623047" xlink:href="#DejaVuSans-2d"/>
     <use x="99.707031" xlink:href="#DejaVuSans-66"/>
     <use x="134.912109" xlink:href="#DejaVuSans-6f"/>
     <use x="196.09375" xlink:href="#DejaVuSans-6c"/>
     <use x="223.876953" xlink:href="#DejaVuSans-64"/>
    </g>
   </g>
   <g id="text_7">
    <!-- 0-fold -->
    <g transform="translate(210.515568 142.036835)scale(0.1 -0.1)">
     <defs>
      <path d="M 2034 4250 
Q 1547 4250 1301 3770 
Q 1056 3291 1056 2328 
Q 1056 1369 1301 889 
Q 1547 409 2034 409 
Q 2525 409 2770 889 
Q 3016 1369 3016 2328 
Q 3016 3291 2770 3770 
Q 2525 4250 2034 4250 
z
M 2034 4750 
Q 2819 4750 3233 4129 
Q 3647 3509 3647 2328 
Q 3647 1150 3233 529 
Q 2819 -91 2034 -91 
Q 1250 -91 836 529 
Q 422 1150 422 2328 
Q 422 3509 836 4129 
Q 1250 4750 2034 4750 
z
" id="DejaVuSans-30" transform="scale(0.015625)"/>
     </defs>
     <use xlink:href="#DejaVuSans-30"/>
     <use x="63.623047" xlink:href="#DejaVuSans-2d"/>
     <use x="99.707031" xlink:href="#DejaVuSans-66"/>
     <use x="134.912109" xlink:href="#DejaVuSans-6f"/>
     <use x="196.09375" xlink:href="#DejaVuSans-6c"/>
     <use x="223.876953" xlink:href="#DejaVuSans-64"/>
    </g>
   </g>
   <g id="text_8">
    <!-- 2-fold -->
    <g transform="translate(197.631524 117.610484)scale(0.1 -0.1)">
     <use xlink:href="#DejaVuSans-32"/>
     <use x="63.623047" xlink:href="#DejaVuSans-2d"/>
     <use x="99.707031" xlink:href="#DejaVuSans-66"/>
     <use x="134.912109" xlink:href="#DejaVuSans-6f"/>
     <use x="196.09375" xlink:href="#DejaVuSans-6c"/>
     <use x="223.876953" xlink:href="#DejaVuSans-64"/>
    </g>
   </g>
  </g>
 </g>
</svg>
