<?xml version="1.0" encoding="utf-8" standalone="no"?>
<!DOCTYPE svg PUBLIC "-//W3C//DTD SVG 1.1//EN"
  "http://www.w3.org/Graphics/SVG/1.1/DTD/svg11.dtd">
<svg height="267.201925pt" version="1.1" viewBox="0 0 366.491419 267.201925" width="366.491419pt" xmlns="http://www.w3.org/2000/svg" xmlns:xlink="http://www.w3.org/1999/xlink">
 <metadata>
  <rdf:RDF xmlns:cc="http://creativecommons.org/ns#" xmlns:dc="http://purl.org/dc/elements/1.1/" xmlns:rdf="http://www.w3.org/1999/02/22-rdf-syntax-ns#">
   <cc:Work>
    <dc:type rdf:resource="http://purl.org/dc/dcmitype/StillImage"/>
    <dc:date>2021-12-16T17:28:11.668035</dc:date>
    <dc:format>image/svg+xml</dc:format>
    <dc:creator>
     <cc:Agent>
      <dc:title>Matplotlib v3.4.3, https://matplotlib.org/</dc:title>
     </cc:Agent>
    </dc:creator>
   </cc:Work>
  </rdf:RDF>
 </metadata>
 <defs>
  <style type="text/css">*{stroke-linecap:butt;stroke-linejoin:round;}</style>
 </defs>
 <g id="figure_1">
  <g id="patch_1">
   <path d="M 0 267.201925 
L 366.491419 267.201925 
L 366.491419 0 
L 0 0 
z
" style="fill:#ffffff;"/>
  </g>
  <g id="axes_1">
   <g id="patch_2">
    <path d="M 187.890342 13.185925 
C 157.061118 13.185925 127.383346 25.046269 105.045441 46.293835 
C 82.707536 67.541402 69.378112 96.589023 67.836622 127.379686 
C 66.295132 158.170348 76.656725 188.404026 96.760798 211.776388 
C 116.864872 235.14875 145.209676 249.91391 175.884749 252.993033 
L 181.887546 193.191517 
C 166.550009 191.651955 152.377607 184.269375 142.32557 172.583194 
C 132.273534 160.897013 127.092737 145.780174 127.863482 130.384843 
C 128.634227 114.989512 135.298939 100.465701 146.467892 89.841918 
C 157.636844 79.218135 172.47573 73.287963 187.890342 73.287963 
L 187.890342 13.185925 
z
" style="fill:#3182bd;stroke:#ffffff;stroke-linejoin:miter;"/>
   </g>
   <g id="patch_3">
    <path d="M 175.884749 252.993033 
C 196.933967 255.105925 218.172623 251.625092 237.446186 242.903643 
C 256.719749 234.182194 273.35368 220.525363 285.66057 203.318551 
C 297.96746 186.11174 305.51659 165.957153 307.542148 144.899351 
C 309.567705 123.84155 305.9988 102.617515 297.197475 83.380297 
L 242.543909 108.385149 
C 246.944571 118.003758 248.729024 128.615775 247.716245 139.144676 
C 246.703466 149.673577 242.928901 159.75087 236.775456 168.354276 
C 230.622011 176.957682 222.305046 183.786097 212.668264 188.146822 
C 203.031483 192.507546 192.412155 194.247963 181.887546 193.191517 
L 175.884749 252.993033 
z
" style="fill:#e6550d;stroke:#ffffff;stroke-linejoin:miter;"/>
   </g>
   <g id="patch_4">
    <path d="M 297.197475 83.380297 
C 291.607033 71.161165 284.007044 59.965484 274.714145 50.259699 
C 265.421245 40.553914 254.56631 32.474713 242.601587 26.358699 
L 215.245965 79.87435 
C 221.228326 82.932357 226.655794 86.971957 231.302243 91.82485 
C 235.948693 96.677742 239.748688 102.275582 242.543909 108.385149 
L 297.197475 83.380297 
z
" style="fill:#31a354;stroke:#ffffff;stroke-linejoin:miter;"/>
   </g>
   <g id="patch_5">
    <path d="M 242.601587 26.358699 
C 234.162296 22.044783 225.242325 18.744108 216.027699 16.525511 
C 206.813074 14.306914 197.368301 13.185926 187.890354 13.185925 
L 187.890348 73.287963 
C 192.629322 73.287963 197.351708 73.848457 201.959021 74.957756 
C 206.566334 76.067054 211.026319 77.717392 215.245965 79.87435 
L 242.601587 26.358699 
z
" style="fill:#756bb1;stroke:#ffffff;stroke-linejoin:miter;"/>
   </g>
   <g id="patch_6">
    <path d="M 187.890342 73.287963 
C 172.47573 73.287963 157.636844 79.218135 146.467892 89.841918 
C 135.298939 100.465701 128.634227 114.989512 127.863482 130.384843 
C 127.092737 145.780174 132.273534 160.897013 142.32557 172.583194 
C 152.377607 184.269375 166.550009 191.651955 181.887546 193.191517 
L 183.088105 181.231213 
C 170.818076 179.999564 159.480154 174.0935 151.438525 164.744556 
C 143.396895 155.395611 139.252258 143.302139 139.868854 130.985875 
C 140.48545 118.66961 145.81722 107.050561 154.752382 98.551534 
C 163.687544 90.052508 175.558653 85.30837 187.890342 85.30837 
L 187.890342 73.287963 
z
" style="fill:#6baed6;stroke:#ffffff;stroke-linejoin:miter;"/>
   </g>
   <g id="patch_7">
    <path d="M 181.887546 193.191517 
C 182.166088 193.219476 182.444823 193.24549 182.723729 193.269555 
C 183.002635 193.29362 183.281706 193.315736 183.560921 193.335901 
L 184.426805 181.346721 
C 184.203433 181.330589 183.980177 181.312896 183.757052 181.293644 
C 183.533927 181.274392 183.310939 181.253581 183.088105 181.231213 
L 181.887546 193.191517 
z
" style="fill:#fd8d3c;stroke:#ffffff;stroke-linejoin:miter;"/>
   </g>
   <g id="patch_8">
    <path d="M 183.560921 193.335901 
C 193.968986 194.087594 204.395578 192.115846 213.81044 187.615488 
C 223.225302 183.115129 231.307779 176.239435 237.259237 167.667795 
C 243.210695 159.096155 246.828436 149.120508 247.754991 138.72655 
C 248.681546 128.332592 246.885356 117.874328 242.543905 108.385141 
L 231.613193 113.386113 
C 235.086354 120.977462 236.523305 129.344074 235.782061 137.65924 
C 235.040817 145.974406 232.146624 153.954924 227.385458 160.812236 
C 222.624291 167.669548 216.15831 173.170103 208.62642 176.77039 
C 201.094531 180.370677 192.753257 181.948075 184.426805 181.346721 
L 183.560921 193.335901 
z
" style="fill:#fdae6b;stroke:#ffffff;stroke-linejoin:miter;"/>
   </g>
   <g id="patch_9">
    <path d="M 242.543905 108.385141 
C 242.527467 108.349213 242.510994 108.3133 242.494485 108.277404 
C 242.477977 108.241508 242.461433 108.205629 242.444853 108.169765 
L 231.533951 113.213812 
C 231.547215 113.242503 231.56045 113.271207 231.573657 113.299924 
C 231.586864 113.32864 231.600042 113.35737 231.613193 113.386113 
L 242.543905 108.385141 
z
" style="fill:#74c476;stroke:#ffffff;stroke-linejoin:miter;"/>
   </g>
   <g id="patch_10">
    <path d="M 242.444853 108.169765 
C 242.390038 108.051192 242.334836 107.932798 242.279248 107.814585 
C 242.22366 107.696372 242.167687 107.57834 242.11133 107.460492 
L 231.267133 112.646394 
C 231.312218 112.740672 231.356997 112.835098 231.401467 112.929668 
C 231.445937 113.024239 231.490099 113.118954 231.533951 113.213812 
L 242.444853 108.169765 
z
" style="fill:#a1d99b;stroke:#ffffff;stroke-linejoin:miter;"/>
   </g>
   <g id="patch_11">
    <path d="M 242.11133 107.460492 
C 239.286646 101.553817 235.515665 96.148207 230.94768 91.457667 
C 226.379695 86.767128 221.075794 82.854386 215.245956 79.874346 
L 209.774833 90.577477 
C 214.438704 92.961509 218.681825 96.091702 222.336213 99.844134 
C 225.990601 103.596566 229.007385 107.921054 231.267133 112.646394 
L 242.11133 107.460492 
z
" style="fill:#c7e9c0;stroke:#ffffff;stroke-linejoin:miter;"/>
   </g>
   <g id="patch_12">
    <path d="M 215.245956 79.874346 
C 215.081749 79.790408 214.917157 79.707226 214.752184 79.624804 
C 214.587211 79.542381 214.42186 79.460718 214.256136 79.379817 
L 208.982977 90.181854 
C 209.115557 90.246575 209.247837 90.311905 209.379816 90.377843 
C 209.511794 90.443781 209.643468 90.510326 209.774833 90.577477 
L 215.245956 79.874346 
z
" style="fill:#9e9ac8;stroke:#ffffff;stroke-linejoin:miter;"/>
   </g>
   <g id="patch_13">
    <path d="M 214.256136 79.379817 
C 210.163776 77.382078 205.85759 75.855912 201.420546 74.830727 
C 196.983501 73.805542 192.44428 73.287963 187.89034 73.287963 
L 187.890341 85.30837 
C 191.533492 85.30837 195.16487 85.722433 198.714505 86.542582 
C 202.264141 87.36273 205.70909 88.583662 208.982977 90.181854 
L 214.256136 79.379817 
z
" style="fill:#bcbddc;stroke:#ffffff;stroke-linejoin:miter;"/>
   </g>
   <g id="matplotlib.axis_1"/>
   <g id="matplotlib.axis_2"/>
   <g id="text_1">
    <!-- non-coding -->
    <g transform="translate(0 129.538029)scale(0.1 -0.1)">
     <defs>
      <path d="M 3513 2113 
L 3513 0 
L 2938 0 
L 2938 2094 
Q 2938 2591 2744 2837 
Q 2550 3084 2163 3084 
Q 1697 3084 1428 2787 
Q 1159 2491 1159 1978 
L 1159 0 
L 581 0 
L 581 3500 
L 1159 3500 
L 1159 2956 
Q 1366 3272 1645 3428 
Q 1925 3584 2291 3584 
Q 2894 3584 3203 3211 
Q 3513 2838 3513 2113 
z
" id="DejaVuSans-6e" transform="scale(0.015625)"/>
      <path d="M 1959 3097 
Q 1497 3097 1228 2736 
Q 959 2375 959 1747 
Q 959 1119 1226 758 
Q 1494 397 1959 397 
Q 2419 397 2687 759 
Q 2956 1122 2956 1747 
Q 2956 2369 2687 2733 
Q 2419 3097 1959 3097 
z
M 1959 3584 
Q 2709 3584 3137 3096 
Q 3566 2609 3566 1747 
Q 3566 888 3137 398 
Q 2709 -91 1959 -91 
Q 1206 -91 779 398 
Q 353 888 353 1747 
Q 353 2609 779 3096 
Q 1206 3584 1959 3584 
z
" id="DejaVuSans-6f" transform="scale(0.015625)"/>
      <path d="M 313 2009 
L 1997 2009 
L 1997 1497 
L 313 1497 
L 313 2009 
z
" id="DejaVuSans-2d" transform="scale(0.015625)"/>
      <path d="M 3122 3366 
L 3122 2828 
Q 2878 2963 2633 3030 
Q 2388 3097 2138 3097 
Q 1578 3097 1268 2742 
Q 959 2388 959 1747 
Q 959 1106 1268 751 
Q 1578 397 2138 397 
Q 2388 397 2633 464 
Q 2878 531 3122 666 
L 3122 134 
Q 2881 22 2623 -34 
Q 2366 -91 2075 -91 
Q 1284 -91 818 406 
Q 353 903 353 1747 
Q 353 2603 823 3093 
Q 1294 3584 2113 3584 
Q 2378 3584 2631 3529 
Q 2884 3475 3122 3366 
z
" id="DejaVuSans-63" transform="scale(0.015625)"/>
      <path d="M 2906 2969 
L 2906 4863 
L 3481 4863 
L 3481 0 
L 2906 0 
L 2906 525 
Q 2725 213 2448 61 
Q 2172 -91 1784 -91 
Q 1150 -91 751 415 
Q 353 922 353 1747 
Q 353 2572 751 3078 
Q 1150 3584 1784 3584 
Q 2172 3584 2448 3432 
Q 2725 3281 2906 2969 
z
M 947 1747 
Q 947 1113 1208 752 
Q 1469 391 1925 391 
Q 2381 391 2643 752 
Q 2906 1113 2906 1747 
Q 2906 2381 2643 2742 
Q 2381 3103 1925 3103 
Q 1469 3103 1208 2742 
Q 947 2381 947 1747 
z
" id="DejaVuSans-64" transform="scale(0.015625)"/>
      <path d="M 603 3500 
L 1178 3500 
L 1178 0 
L 603 0 
L 603 3500 
z
M 603 4863 
L 1178 4863 
L 1178 4134 
L 603 4134 
L 603 4863 
z
" id="DejaVuSans-69" transform="scale(0.015625)"/>
      <path d="M 2906 1791 
Q 2906 2416 2648 2759 
Q 2391 3103 1925 3103 
Q 1463 3103 1205 2759 
Q 947 2416 947 1791 
Q 947 1169 1205 825 
Q 1463 481 1925 481 
Q 2391 481 2648 825 
Q 2906 1169 2906 1791 
z
M 3481 434 
Q 3481 -459 3084 -895 
Q 2688 -1331 1869 -1331 
Q 1566 -1331 1297 -1286 
Q 1028 -1241 775 -1147 
L 775 -588 
Q 1028 -725 1275 -790 
Q 1522 -856 1778 -856 
Q 2344 -856 2625 -561 
Q 2906 -266 2906 331 
L 2906 616 
Q 2728 306 2450 153 
Q 2172 0 1784 0 
Q 1141 0 747 490 
Q 353 981 353 1791 
Q 353 2603 747 3093 
Q 1141 3584 1784 3584 
Q 2172 3584 2450 3431 
Q 2728 3278 2906 2969 
L 2906 3500 
L 3481 3500 
L 3481 434 
z
" id="DejaVuSans-67" transform="scale(0.015625)"/>
     </defs>
     <use xlink:href="#DejaVuSans-6e"/>
     <use x="63.378906" xlink:href="#DejaVuSans-6f"/>
     <use x="124.560547" xlink:href="#DejaVuSans-6e"/>
     <use x="187.939453" xlink:href="#DejaVuSans-2d"/>
     <use x="224.023438" xlink:href="#DejaVuSans-63"/>
     <use x="279.003906" xlink:href="#DejaVuSans-6f"/>
     <use x="340.185547" xlink:href="#DejaVuSans-64"/>
     <use x="403.662109" xlink:href="#DejaVuSans-69"/>
     <use x="431.445312" xlink:href="#DejaVuSans-6e"/>
     <use x="494.824219" xlink:href="#DejaVuSans-67"/>
    </g>
   </g>
   <g id="text_2">
    <!-- 1148202 -->
    <g transform="translate(75.581302 126.042733)scale(0.1 -0.1)">
     <defs>
      <path d="M 794 531 
L 1825 531 
L 1825 4091 
L 703 3866 
L 703 4441 
L 1819 4666 
L 2450 4666 
L 2450 531 
L 3481 531 
L 3481 0 
L 794 0 
L 794 531 
z
" id="DejaVuSans-31" transform="scale(0.015625)"/>
      <path d="M 2419 4116 
L 825 1625 
L 2419 1625 
L 2419 4116 
z
M 2253 4666 
L 3047 4666 
L 3047 1625 
L 3713 1625 
L 3713 1100 
L 3047 1100 
L 3047 0 
L 2419 0 
L 2419 1100 
L 313 1100 
L 313 1709 
L 2253 4666 
z
" id="DejaVuSans-34" transform="scale(0.015625)"/>
      <path d="M 2034 2216 
Q 1584 2216 1326 1975 
Q 1069 1734 1069 1313 
Q 1069 891 1326 650 
Q 1584 409 2034 409 
Q 2484 409 2743 651 
Q 3003 894 3003 1313 
Q 3003 1734 2745 1975 
Q 2488 2216 2034 2216 
z
M 1403 2484 
Q 997 2584 770 2862 
Q 544 3141 544 3541 
Q 544 4100 942 4425 
Q 1341 4750 2034 4750 
Q 2731 4750 3128 4425 
Q 3525 4100 3525 3541 
Q 3525 3141 3298 2862 
Q 3072 2584 2669 2484 
Q 3125 2378 3379 2068 
Q 3634 1759 3634 1313 
Q 3634 634 3220 271 
Q 2806 -91 2034 -91 
Q 1263 -91 848 271 
Q 434 634 434 1313 
Q 434 1759 690 2068 
Q 947 2378 1403 2484 
z
M 1172 3481 
Q 1172 3119 1398 2916 
Q 1625 2713 2034 2713 
Q 2441 2713 2670 2916 
Q 2900 3119 2900 3481 
Q 2900 3844 2670 4047 
Q 2441 4250 2034 4250 
Q 1625 4250 1398 4047 
Q 1172 3844 1172 3481 
z
" id="DejaVuSans-38" transform="scale(0.015625)"/>
      <path d="M 1228 531 
L 3431 531 
L 3431 0 
L 469 0 
L 469 531 
Q 828 903 1448 1529 
Q 2069 2156 2228 2338 
Q 2531 2678 2651 2914 
Q 2772 3150 2772 3378 
Q 2772 3750 2511 3984 
Q 2250 4219 1831 4219 
Q 1534 4219 1204 4116 
Q 875 4013 500 3803 
L 500 4441 
Q 881 4594 1212 4672 
Q 1544 4750 1819 4750 
Q 2544 4750 2975 4387 
Q 3406 4025 3406 3419 
Q 3406 3131 3298 2873 
Q 3191 2616 2906 2266 
Q 2828 2175 2409 1742 
Q 1991 1309 1228 531 
z
" id="DejaVuSans-32" transform="scale(0.015625)"/>
      <path d="M 2034 4250 
Q 1547 4250 1301 3770 
Q 1056 3291 1056 2328 
Q 1056 1369 1301 889 
Q 1547 409 2034 409 
Q 2525 409 2770 889 
Q 3016 1369 3016 2328 
Q 3016 3291 2770 3770 
Q 2525 4250 2034 4250 
z
M 2034 4750 
Q 2819 4750 3233 4129 
Q 3647 3509 3647 2328 
Q 3647 1150 3233 529 
Q 2819 -91 2034 -91 
Q 1250 -91 836 529 
Q 422 1150 422 2328 
Q 422 3509 836 4129 
Q 1250 4750 2034 4750 
z
" id="DejaVuSans-30" transform="scale(0.015625)"/>
     </defs>
     <use xlink:href="#DejaVuSans-31"/>
     <use x="63.623047" xlink:href="#DejaVuSans-31"/>
     <use x="127.246094" xlink:href="#DejaVuSans-34"/>
     <use x="190.869141" xlink:href="#DejaVuSans-38"/>
     <use x="254.492188" xlink:href="#DejaVuSans-32"/>
     <use x="318.115234" xlink:href="#DejaVuSans-30"/>
     <use x="381.738281" xlink:href="#DejaVuSans-32"/>
    </g>
    <!-- 48.4% -->
    <g transform="translate(81.966458 137.240546)scale(0.1 -0.1)">
     <defs>
      <path d="M 684 794 
L 1344 794 
L 1344 0 
L 684 0 
L 684 794 
z
" id="DejaVuSans-2e" transform="scale(0.015625)"/>
      <path d="M 4653 2053 
Q 4381 2053 4226 1822 
Q 4072 1591 4072 1178 
Q 4072 772 4226 539 
Q 4381 306 4653 306 
Q 4919 306 5073 539 
Q 5228 772 5228 1178 
Q 5228 1588 5073 1820 
Q 4919 2053 4653 2053 
z
M 4653 2450 
Q 5147 2450 5437 2106 
Q 5728 1763 5728 1178 
Q 5728 594 5436 251 
Q 5144 -91 4653 -91 
Q 4153 -91 3862 251 
Q 3572 594 3572 1178 
Q 3572 1766 3864 2108 
Q 4156 2450 4653 2450 
z
M 1428 4353 
Q 1159 4353 1004 4120 
Q 850 3888 850 3481 
Q 850 3069 1003 2837 
Q 1156 2606 1428 2606 
Q 1700 2606 1854 2837 
Q 2009 3069 2009 3481 
Q 2009 3884 1853 4118 
Q 1697 4353 1428 4353 
z
M 4250 4750 
L 4750 4750 
L 1831 -91 
L 1331 -91 
L 4250 4750 
z
M 1428 4750 
Q 1922 4750 2215 4408 
Q 2509 4066 2509 3481 
Q 2509 2891 2217 2550 
Q 1925 2209 1428 2209 
Q 931 2209 642 2551 
Q 353 2894 353 3481 
Q 353 4063 643 4406 
Q 934 4750 1428 4750 
z
" id="DejaVuSans-25" transform="scale(0.015625)"/>
     </defs>
     <use xlink:href="#DejaVuSans-34"/>
     <use x="63.623047" xlink:href="#DejaVuSans-38"/>
     <use x="127.246094" xlink:href="#DejaVuSans-2e"/>
     <use x="159.033203" xlink:href="#DejaVuSans-34"/>
     <use x="222.65625" xlink:href="#DejaVuSans-25"/>
    </g>
   </g>
   <g id="text_3">
    <!-- 0-fold -->
    <g transform="translate(295.437593 213.070781)scale(0.1 -0.1)">
     <defs>
      <path d="M 2375 4863 
L 2375 4384 
L 1825 4384 
Q 1516 4384 1395 4259 
Q 1275 4134 1275 3809 
L 1275 3500 
L 2222 3500 
L 2222 3053 
L 1275 3053 
L 1275 0 
L 697 0 
L 697 3053 
L 147 3053 
L 147 3500 
L 697 3500 
L 697 3744 
Q 697 4328 969 4595 
Q 1241 4863 1831 4863 
L 2375 4863 
z
" id="DejaVuSans-66" transform="scale(0.015625)"/>
      <path d="M 603 4863 
L 1178 4863 
L 1178 0 
L 603 0 
L 603 4863 
z
" id="DejaVuSans-6c" transform="scale(0.015625)"/>
     </defs>
     <use xlink:href="#DejaVuSans-30"/>
     <use x="63.623047" xlink:href="#DejaVuSans-2d"/>
     <use x="99.707031" xlink:href="#DejaVuSans-66"/>
     <use x="134.912109" xlink:href="#DejaVuSans-6f"/>
     <use x="196.09375" xlink:href="#DejaVuSans-6c"/>
     <use x="223.876953" xlink:href="#DejaVuSans-64"/>
    </g>
   </g>
   <g id="text_4">
    <!-- 792734 -->
    <g transform="translate(242.130513 182.996882)scale(0.1 -0.1)">
     <defs>
      <path d="M 525 4666 
L 3525 4666 
L 3525 4397 
L 1831 0 
L 1172 0 
L 2766 4134 
L 525 4134 
L 525 4666 
z
" id="DejaVuSans-37" transform="scale(0.015625)"/>
      <path d="M 703 97 
L 703 672 
Q 941 559 1184 500 
Q 1428 441 1663 441 
Q 2288 441 2617 861 
Q 2947 1281 2994 2138 
Q 2813 1869 2534 1725 
Q 2256 1581 1919 1581 
Q 1219 1581 811 2004 
Q 403 2428 403 3163 
Q 403 3881 828 4315 
Q 1253 4750 1959 4750 
Q 2769 4750 3195 4129 
Q 3622 3509 3622 2328 
Q 3622 1225 3098 567 
Q 2575 -91 1691 -91 
Q 1453 -91 1209 -44 
Q 966 3 703 97 
z
M 1959 2075 
Q 2384 2075 2632 2365 
Q 2881 2656 2881 3163 
Q 2881 3666 2632 3958 
Q 2384 4250 1959 4250 
Q 1534 4250 1286 3958 
Q 1038 3666 1038 3163 
Q 1038 2656 1286 2365 
Q 1534 2075 1959 2075 
z
" id="DejaVuSans-39" transform="scale(0.015625)"/>
      <path d="M 2597 2516 
Q 3050 2419 3304 2112 
Q 3559 1806 3559 1356 
Q 3559 666 3084 287 
Q 2609 -91 1734 -91 
Q 1441 -91 1130 -33 
Q 819 25 488 141 
L 488 750 
Q 750 597 1062 519 
Q 1375 441 1716 441 
Q 2309 441 2620 675 
Q 2931 909 2931 1356 
Q 2931 1769 2642 2001 
Q 2353 2234 1838 2234 
L 1294 2234 
L 1294 2753 
L 1863 2753 
Q 2328 2753 2575 2939 
Q 2822 3125 2822 3475 
Q 2822 3834 2567 4026 
Q 2313 4219 1838 4219 
Q 1578 4219 1281 4162 
Q 984 4106 628 3988 
L 628 4550 
Q 988 4650 1302 4700 
Q 1616 4750 1894 4750 
Q 2613 4750 3031 4423 
Q 3450 4097 3450 3541 
Q 3450 3153 3228 2886 
Q 3006 2619 2597 2516 
z
" id="DejaVuSans-33" transform="scale(0.015625)"/>
     </defs>
     <use xlink:href="#DejaVuSans-37"/>
     <use x="63.623047" xlink:href="#DejaVuSans-39"/>
     <use x="127.246094" xlink:href="#DejaVuSans-32"/>
     <use x="190.869141" xlink:href="#DejaVuSans-37"/>
     <use x="254.492188" xlink:href="#DejaVuSans-33"/>
     <use x="318.115234" xlink:href="#DejaVuSans-34"/>
    </g>
    <!-- 33.4% -->
    <g transform="translate(245.334419 194.194695)scale(0.1 -0.1)">
     <use xlink:href="#DejaVuSans-33"/>
     <use x="63.623047" xlink:href="#DejaVuSans-33"/>
     <use x="127.246094" xlink:href="#DejaVuSans-2e"/>
     <use x="159.033203" xlink:href="#DejaVuSans-34"/>
     <use x="222.65625" xlink:href="#DejaVuSans-25"/>
    </g>
   </g>
   <g id="text_5">
    <!-- 2-fold -->
    <g transform="translate(283.396525 44.706044)scale(0.1 -0.1)">
     <use xlink:href="#DejaVuSans-32"/>
     <use x="63.623047" xlink:href="#DejaVuSans-2d"/>
     <use x="99.707031" xlink:href="#DejaVuSans-66"/>
     <use x="134.912109" xlink:href="#DejaVuSans-6f"/>
     <use x="196.09375" xlink:href="#DejaVuSans-6c"/>
     <use x="223.876953" xlink:href="#DejaVuSans-64"/>
    </g>
   </g>
   <g id="text_6">
    <!-- 252614 -->
    <g transform="translate(233.920694 68.202743)scale(0.1 -0.1)">
     <defs>
      <path d="M 691 4666 
L 3169 4666 
L 3169 4134 
L 1269 4134 
L 1269 2991 
Q 1406 3038 1543 3061 
Q 1681 3084 1819 3084 
Q 2600 3084 3056 2656 
Q 3513 2228 3513 1497 
Q 3513 744 3044 326 
Q 2575 -91 1722 -91 
Q 1428 -91 1123 -41 
Q 819 9 494 109 
L 494 744 
Q 775 591 1075 516 
Q 1375 441 1709 441 
Q 2250 441 2565 725 
Q 2881 1009 2881 1497 
Q 2881 1984 2565 2268 
Q 2250 2553 1709 2553 
Q 1456 2553 1204 2497 
Q 953 2441 691 2322 
L 691 4666 
z
" id="DejaVuSans-35" transform="scale(0.015625)"/>
      <path d="M 2113 2584 
Q 1688 2584 1439 2293 
Q 1191 2003 1191 1497 
Q 1191 994 1439 701 
Q 1688 409 2113 409 
Q 2538 409 2786 701 
Q 3034 994 3034 1497 
Q 3034 2003 2786 2293 
Q 2538 2584 2113 2584 
z
M 3366 4563 
L 3366 3988 
Q 3128 4100 2886 4159 
Q 2644 4219 2406 4219 
Q 1781 4219 1451 3797 
Q 1122 3375 1075 2522 
Q 1259 2794 1537 2939 
Q 1816 3084 2150 3084 
Q 2853 3084 3261 2657 
Q 3669 2231 3669 1497 
Q 3669 778 3244 343 
Q 2819 -91 2113 -91 
Q 1303 -91 875 529 
Q 447 1150 447 2328 
Q 447 3434 972 4092 
Q 1497 4750 2381 4750 
Q 2619 4750 2861 4703 
Q 3103 4656 3366 4563 
z
" id="DejaVuSans-36" transform="scale(0.015625)"/>
     </defs>
     <use xlink:href="#DejaVuSans-32"/>
     <use x="63.623047" xlink:href="#DejaVuSans-35"/>
     <use x="127.246094" xlink:href="#DejaVuSans-32"/>
     <use x="190.869141" xlink:href="#DejaVuSans-36"/>
     <use x="254.492188" xlink:href="#DejaVuSans-31"/>
     <use x="318.115234" xlink:href="#DejaVuSans-34"/>
    </g>
    <!-- 10.7% -->
    <g transform="translate(237.1246 79.400555)scale(0.1 -0.1)">
     <use xlink:href="#DejaVuSans-31"/>
     <use x="63.623047" xlink:href="#DejaVuSans-30"/>
     <use x="127.246094" xlink:href="#DejaVuSans-2e"/>
     <use x="159.033203" xlink:href="#DejaVuSans-37"/>
     <use x="222.65625" xlink:href="#DejaVuSans-25"/>
    </g>
   </g>
   <g id="text_7">
    <!-- 4-fold -->
    <g transform="translate(218.841435 7.598437)scale(0.1 -0.1)">
     <use xlink:href="#DejaVuSans-34"/>
     <use x="63.623047" xlink:href="#DejaVuSans-2d"/>
     <use x="99.707031" xlink:href="#DejaVuSans-66"/>
     <use x="134.912109" xlink:href="#DejaVuSans-6f"/>
     <use x="196.09375" xlink:href="#DejaVuSans-6c"/>
     <use x="223.876953" xlink:href="#DejaVuSans-64"/>
    </g>
   </g>
   <g id="text_8">
    <!-- 178388 -->
    <g transform="translate(189.90586 42.902102)scale(0.1 -0.1)">
     <use xlink:href="#DejaVuSans-31"/>
     <use x="63.623047" xlink:href="#DejaVuSans-37"/>
     <use x="127.246094" xlink:href="#DejaVuSans-38"/>
     <use x="190.869141" xlink:href="#DejaVuSans-33"/>
     <use x="254.492188" xlink:href="#DejaVuSans-38"/>
     <use x="318.115234" xlink:href="#DejaVuSans-38"/>
    </g>
    <!-- 7.5% -->
    <g transform="translate(196.291016 54.099915)scale(0.1 -0.1)">
     <use xlink:href="#DejaVuSans-37"/>
     <use x="63.623047" xlink:href="#DejaVuSans-2e"/>
     <use x="95.410156" xlink:href="#DejaVuSans-35"/>
     <use x="159.033203" xlink:href="#DejaVuSans-25"/>
    </g>
   </g>
   <g id="legend_1">
    <g id="patch_14">
     <path d="M 16.371419 67.802425 
L 134.019856 67.802425 
Q 136.019856 67.802425 136.019856 65.802425 
L 136.019856 8.089925 
Q 136.019856 6.089925 134.019856 6.089925 
L 16.371419 6.089925 
Q 14.371419 6.089925 14.371419 8.089925 
L 14.371419 65.802425 
Q 14.371419 67.802425 16.371419 67.802425 
z
" style="fill:#ffffff;opacity:0.8;stroke:#cccccc;stroke-linejoin:miter;"/>
    </g>
    <g id="patch_15">
     <path d="M 18.371419 17.688363 
L 38.371419 17.688363 
L 38.371419 10.688363 
L 18.371419 10.688363 
z
" style="fill:#fd8d3c;stroke:#ffffff;stroke-linejoin:miter;"/>
    </g>
    <g id="text_9">
     <!-- non-synonymous -->
     <g transform="translate(46.371419 17.688363)scale(0.1 -0.1)">
      <defs>
       <path d="M 2834 3397 
L 2834 2853 
Q 2591 2978 2328 3040 
Q 2066 3103 1784 3103 
Q 1356 3103 1142 2972 
Q 928 2841 928 2578 
Q 928 2378 1081 2264 
Q 1234 2150 1697 2047 
L 1894 2003 
Q 2506 1872 2764 1633 
Q 3022 1394 3022 966 
Q 3022 478 2636 193 
Q 2250 -91 1575 -91 
Q 1294 -91 989 -36 
Q 684 19 347 128 
L 347 722 
Q 666 556 975 473 
Q 1284 391 1588 391 
Q 1994 391 2212 530 
Q 2431 669 2431 922 
Q 2431 1156 2273 1281 
Q 2116 1406 1581 1522 
L 1381 1569 
Q 847 1681 609 1914 
Q 372 2147 372 2553 
Q 372 3047 722 3315 
Q 1072 3584 1716 3584 
Q 2034 3584 2315 3537 
Q 2597 3491 2834 3397 
z
" id="DejaVuSans-73" transform="scale(0.015625)"/>
       <path d="M 2059 -325 
Q 1816 -950 1584 -1140 
Q 1353 -1331 966 -1331 
L 506 -1331 
L 506 -850 
L 844 -850 
Q 1081 -850 1212 -737 
Q 1344 -625 1503 -206 
L 1606 56 
L 191 3500 
L 800 3500 
L 1894 763 
L 2988 3500 
L 3597 3500 
L 2059 -325 
z
" id="DejaVuSans-79" transform="scale(0.015625)"/>
       <path d="M 3328 2828 
Q 3544 3216 3844 3400 
Q 4144 3584 4550 3584 
Q 5097 3584 5394 3201 
Q 5691 2819 5691 2113 
L 5691 0 
L 5113 0 
L 5113 2094 
Q 5113 2597 4934 2840 
Q 4756 3084 4391 3084 
Q 3944 3084 3684 2787 
Q 3425 2491 3425 1978 
L 3425 0 
L 2847 0 
L 2847 2094 
Q 2847 2600 2669 2842 
Q 2491 3084 2119 3084 
Q 1678 3084 1418 2786 
Q 1159 2488 1159 1978 
L 1159 0 
L 581 0 
L 581 3500 
L 1159 3500 
L 1159 2956 
Q 1356 3278 1631 3431 
Q 1906 3584 2284 3584 
Q 2666 3584 2933 3390 
Q 3200 3197 3328 2828 
z
" id="DejaVuSans-6d" transform="scale(0.015625)"/>
       <path d="M 544 1381 
L 544 3500 
L 1119 3500 
L 1119 1403 
Q 1119 906 1312 657 
Q 1506 409 1894 409 
Q 2359 409 2629 706 
Q 2900 1003 2900 1516 
L 2900 3500 
L 3475 3500 
L 3475 0 
L 2900 0 
L 2900 538 
Q 2691 219 2414 64 
Q 2138 -91 1772 -91 
Q 1169 -91 856 284 
Q 544 659 544 1381 
z
M 1991 3584 
L 1991 3584 
z
" id="DejaVuSans-75" transform="scale(0.015625)"/>
      </defs>
      <use xlink:href="#DejaVuSans-6e"/>
      <use x="63.378906" xlink:href="#DejaVuSans-6f"/>
      <use x="124.560547" xlink:href="#DejaVuSans-6e"/>
      <use x="187.939453" xlink:href="#DejaVuSans-2d"/>
      <use x="224.023438" xlink:href="#DejaVuSans-73"/>
      <use x="276.123047" xlink:href="#DejaVuSans-79"/>
      <use x="335.302734" xlink:href="#DejaVuSans-6e"/>
      <use x="398.681641" xlink:href="#DejaVuSans-6f"/>
      <use x="459.863281" xlink:href="#DejaVuSans-6e"/>
      <use x="523.242188" xlink:href="#DejaVuSans-79"/>
      <use x="582.421875" xlink:href="#DejaVuSans-6d"/>
      <use x="679.833984" xlink:href="#DejaVuSans-6f"/>
      <use x="741.015625" xlink:href="#DejaVuSans-75"/>
      <use x="804.394531" xlink:href="#DejaVuSans-73"/>
     </g>
    </g>
    <g id="patch_16">
     <path d="M 18.371419 32.366488 
L 38.371419 32.366488 
L 38.371419 25.366488 
L 18.371419 25.366488 
z
" style="fill:#74c476;stroke:#ffffff;stroke-linejoin:miter;"/>
    </g>
    <g id="text_10">
     <!-- non-synonymous -->
     <g transform="translate(46.371419 32.366488)scale(0.1 -0.1)">
      <use xlink:href="#DejaVuSans-6e"/>
      <use x="63.378906" xlink:href="#DejaVuSans-6f"/>
      <use x="124.560547" xlink:href="#DejaVuSans-6e"/>
      <use x="187.939453" xlink:href="#DejaVuSans-2d"/>
      <use x="224.023438" xlink:href="#DejaVuSans-73"/>
      <use x="276.123047" xlink:href="#DejaVuSans-79"/>
      <use x="335.302734" xlink:href="#DejaVuSans-6e"/>
      <use x="398.681641" xlink:href="#DejaVuSans-6f"/>
      <use x="459.863281" xlink:href="#DejaVuSans-6e"/>
      <use x="523.242188" xlink:href="#DejaVuSans-79"/>
      <use x="582.421875" xlink:href="#DejaVuSans-6d"/>
      <use x="679.833984" xlink:href="#DejaVuSans-6f"/>
      <use x="741.015625" xlink:href="#DejaVuSans-75"/>
      <use x="804.394531" xlink:href="#DejaVuSans-73"/>
     </g>
    </g>
    <g id="patch_17">
     <path d="M 18.371419 47.044613 
L 38.371419 47.044613 
L 38.371419 40.044613 
L 18.371419 40.044613 
z
" style="fill:#a1d99b;stroke:#ffffff;stroke-linejoin:miter;"/>
    </g>
    <g id="text_11">
     <!-- synonymous -->
     <g transform="translate(46.371419 47.044613)scale(0.1 -0.1)">
      <use xlink:href="#DejaVuSans-73"/>
      <use x="52.099609" xlink:href="#DejaVuSans-79"/>
      <use x="111.279297" xlink:href="#DejaVuSans-6e"/>
      <use x="174.658203" xlink:href="#DejaVuSans-6f"/>
      <use x="235.839844" xlink:href="#DejaVuSans-6e"/>
      <use x="299.21875" xlink:href="#DejaVuSans-79"/>
      <use x="358.398438" xlink:href="#DejaVuSans-6d"/>
      <use x="455.810547" xlink:href="#DejaVuSans-6f"/>
      <use x="516.992188" xlink:href="#DejaVuSans-75"/>
      <use x="580.371094" xlink:href="#DejaVuSans-73"/>
     </g>
    </g>
    <g id="patch_18">
     <path d="M 18.371419 61.722738 
L 38.371419 61.722738 
L 38.371419 54.722738 
L 18.371419 54.722738 
z
" style="fill:#9e9ac8;stroke:#ffffff;stroke-linejoin:miter;"/>
    </g>
    <g id="text_12">
     <!-- synonymous -->
     <g transform="translate(46.371419 61.722738)scale(0.1 -0.1)">
      <use xlink:href="#DejaVuSans-73"/>
      <use x="52.099609" xlink:href="#DejaVuSans-79"/>
      <use x="111.279297" xlink:href="#DejaVuSans-6e"/>
      <use x="174.658203" xlink:href="#DejaVuSans-6f"/>
      <use x="235.839844" xlink:href="#DejaVuSans-6e"/>
      <use x="299.21875" xlink:href="#DejaVuSans-79"/>
      <use x="358.398438" xlink:href="#DejaVuSans-6d"/>
      <use x="455.810547" xlink:href="#DejaVuSans-6f"/>
      <use x="516.992188" xlink:href="#DejaVuSans-75"/>
      <use x="580.371094" xlink:href="#DejaVuSans-73"/>
     </g>
    </g>
   </g>
  </g>
 </g>
</svg>
