<?xml version="1.0" encoding="utf-8" standalone="no"?>
<!DOCTYPE svg PUBLIC "-//W3C//DTD SVG 1.1//EN"
  "http://www.w3.org/Graphics/SVG/1.1/DTD/svg11.dtd">
<svg height="323.598125pt" version="1.1" viewBox="0 0 438.660625 323.598125" width="438.660625pt" xmlns="http://www.w3.org/2000/svg" xmlns:xlink="http://www.w3.org/1999/xlink">
 <metadata>
  <rdf:RDF xmlns:cc="http://creativecommons.org/ns#" xmlns:dc="http://purl.org/dc/elements/1.1/" xmlns:rdf="http://www.w3.org/1999/02/22-rdf-syntax-ns#">
   <cc:Work>
    <dc:type rdf:resource="http://purl.org/dc/dcmitype/StillImage"/>
    <dc:date>2022-01-12T14:44:46.611465</dc:date>
    <dc:format>image/svg+xml</dc:format>
    <dc:creator>
     <cc:Agent>
      <dc:title>Matplotlib v3.4.3, https://matplotlib.org/</dc:title>
     </cc:Agent>
    </dc:creator>
   </cc:Work>
  </rdf:RDF>
 </metadata>
 <defs>
  <style type="text/css">*{stroke-linecap:butt;stroke-linejoin:round;}</style>
 </defs>
 <g id="figure_1">
  <g id="patch_1">
   <path d="M 0 323.598125 
L 438.660625 323.598125 
L 438.660625 0 
L 0 0 
z
" style="fill:#ffffff;"/>
  </g>
  <g id="axes_1">
   <g id="patch_2">
    <path d="M 52.490625 306.92 
L 438.660625 306.92 
L 438.660625 0 
L 52.490625 0 
z
" style="fill:#ffffff;"/>
   </g>
   <g id="patch_3">
    <path clip-path="url(#p952e704732)" d="M 70.043807 306.92 
L 77.06508 306.92 
L 77.06508 290.266246 
L 70.043807 290.266246 
z
" style="fill:#e7ba52;stroke:#b0a489;stroke-linejoin:miter;"/>
   </g>
   <g id="patch_4">
    <path clip-path="url(#p952e704732)" d="M 77.06508 306.92 
L 84.086352 306.92 
L 84.086352 247.526437 
L 77.06508 247.526437 
z
" style="fill:#e7ba52;stroke:#b0a489;stroke-linejoin:miter;"/>
   </g>
   <g id="patch_5">
    <path clip-path="url(#p952e704732)" d="M 84.086352 306.92 
L 91.107625 306.92 
L 91.107625 169.818572 
L 84.086352 169.818572 
z
" style="fill:#e7ba52;stroke:#b0a489;stroke-linejoin:miter;"/>
   </g>
   <g id="patch_6">
    <path clip-path="url(#p952e704732)" d="M 91.107625 306.92 
L 98.128898 306.92 
L 98.128898 111.902125 
L 91.107625 111.902125 
z
" style="fill:#e7ba52;stroke:#b0a489;stroke-linejoin:miter;"/>
   </g>
   <g id="patch_7">
    <path clip-path="url(#p952e704732)" d="M 98.128898 306.92 
L 105.15017 306.92 
L 105.15017 77.706417 
L 98.128898 77.706417 
z
" style="fill:#e7ba52;stroke:#b0a489;stroke-linejoin:miter;"/>
   </g>
   <g id="patch_8">
    <path clip-path="url(#p952e704732)" d="M 105.15017 306.92 
L 112.171443 306.92 
L 112.171443 32.871614 
L 105.15017 32.871614 
z
" style="fill:#e7ba52;stroke:#b0a489;stroke-linejoin:miter;"/>
   </g>
   <g id="patch_9">
    <path clip-path="url(#p952e704732)" d="M 112.171443 306.92 
L 119.192716 306.92 
L 119.192716 14.615238 
L 112.171443 14.615238 
z
" style="fill:#e7ba52;stroke:#b0a489;stroke-linejoin:miter;"/>
   </g>
   <g id="patch_10">
    <path clip-path="url(#p952e704732)" d="M 119.192716 306.92 
L 126.213989 306.92 
L 126.213989 50.094975 
L 119.192716 50.094975 
z
" style="fill:#e7ba52;stroke:#b0a489;stroke-linejoin:miter;"/>
   </g>
   <g id="patch_11">
    <path clip-path="url(#p952e704732)" d="M 126.213989 306.92 
L 133.235261 306.92 
L 133.235261 55.385559 
L 126.213989 55.385559 
z
" style="fill:#e7ba52;stroke:#b0a489;stroke-linejoin:miter;"/>
   </g>
   <g id="patch_12">
    <path clip-path="url(#p952e704732)" d="M 133.235261 306.92 
L 140.256534 306.92 
L 140.256534 100.645153 
L 133.235261 100.645153 
z
" style="fill:#e7ba52;stroke:#b0a489;stroke-linejoin:miter;"/>
   </g>
   <g id="patch_13">
    <path clip-path="url(#p952e704732)" d="M 140.256534 306.92 
L 147.277807 306.92 
L 147.277807 131.249443 
L 140.256534 131.249443 
z
" style="fill:#e7ba52;stroke:#b0a489;stroke-linejoin:miter;"/>
   </g>
   <g id="patch_14">
    <path clip-path="url(#p952e704732)" d="M 147.277807 306.92 
L 154.29908 306.92 
L 154.29908 146.059216 
L 147.277807 146.059216 
z
" style="fill:#e7ba52;stroke:#b0a489;stroke-linejoin:miter;"/>
   </g>
   <g id="patch_15">
    <path clip-path="url(#p952e704732)" d="M 154.29908 306.92 
L 161.320352 306.92 
L 161.320352 185.622744 
L 154.29908 185.622744 
z
" style="fill:#e7ba52;stroke:#b0a489;stroke-linejoin:miter;"/>
   </g>
   <g id="patch_16">
    <path clip-path="url(#p952e704732)" d="M 161.320352 306.92 
L 168.341625 306.92 
L 168.341625 203.792231 
L 161.320352 203.792231 
z
" style="fill:#e7ba52;stroke:#b0a489;stroke-linejoin:miter;"/>
   </g>
   <g id="patch_17">
    <path clip-path="url(#p952e704732)" d="M 168.341625 306.92 
L 175.362898 306.92 
L 175.362898 222.212731 
L 168.341625 222.212731 
z
" style="fill:#e7ba52;stroke:#b0a489;stroke-linejoin:miter;"/>
   </g>
   <g id="patch_18">
    <path clip-path="url(#p952e704732)" d="M 175.362898 306.92 
L 182.38417 306.92 
L 182.38417 252.257069 
L 175.362898 252.257069 
z
" style="fill:#e7ba52;stroke:#b0a489;stroke-linejoin:miter;"/>
   </g>
   <g id="patch_19">
    <path clip-path="url(#p952e704732)" d="M 182.38417 306.92 
L 189.405443 306.92 
L 189.405443 251.523338 
L 182.38417 251.523338 
z
" style="fill:#e7ba52;stroke:#b0a489;stroke-linejoin:miter;"/>
   </g>
   <g id="patch_20">
    <path clip-path="url(#p952e704732)" d="M 189.405443 306.92 
L 196.426716 306.92 
L 196.426716 266.922027 
L 189.405443 266.922027 
z
" style="fill:#e7ba52;stroke:#b0a489;stroke-linejoin:miter;"/>
   </g>
   <g id="patch_21">
    <path clip-path="url(#p952e704732)" d="M 196.426716 306.92 
L 203.447989 306.92 
L 203.447989 271.382337 
L 196.426716 271.382337 
z
" style="fill:#e7ba52;stroke:#b0a489;stroke-linejoin:miter;"/>
   </g>
   <g id="patch_22">
    <path clip-path="url(#p952e704732)" d="M 203.447989 306.92 
L 210.469261 306.92 
L 210.469261 290.420715 
L 203.447989 290.420715 
z
" style="fill:#e7ba52;stroke:#b0a489;stroke-linejoin:miter;"/>
   </g>
   <g id="patch_23">
    <path clip-path="url(#p952e704732)" d="M 210.469261 306.92 
L 217.490534 306.92 
L 217.490534 287.727152 
L 210.469261 287.727152 
z
" style="fill:#e7ba52;stroke:#b0a489;stroke-linejoin:miter;"/>
   </g>
   <g id="patch_24">
    <path clip-path="url(#p952e704732)" d="M 217.490534 306.92 
L 224.511807 306.92 
L 224.511807 289.822146 
L 217.490534 289.822146 
z
" style="fill:#e7ba52;stroke:#b0a489;stroke-linejoin:miter;"/>
   </g>
   <g id="patch_25">
    <path clip-path="url(#p952e704732)" d="M 224.511807 306.92 
L 231.53308 306.92 
L 231.53308 293.259094 
L 224.511807 293.259094 
z
" style="fill:#e7ba52;stroke:#b0a489;stroke-linejoin:miter;"/>
   </g>
   <g id="patch_26">
    <path clip-path="url(#p952e704732)" d="M 231.53308 306.92 
L 238.554352 306.92 
L 238.554352 295.189964 
L 231.53308 295.189964 
z
" style="fill:#e7ba52;stroke:#b0a489;stroke-linejoin:miter;"/>
   </g>
   <g id="patch_27">
    <path clip-path="url(#p952e704732)" d="M 238.554352 306.92 
L 245.575625 306.92 
L 245.575625 297.574589 
L 238.554352 297.574589 
z
" style="fill:#e7ba52;stroke:#b0a489;stroke-linejoin:miter;"/>
   </g>
   <g id="patch_28">
    <path clip-path="url(#p952e704732)" d="M 245.575625 306.92 
L 252.596898 306.92 
L 252.596898 297.284958 
L 245.575625 297.284958 
z
" style="fill:#e7ba52;stroke:#b0a489;stroke-linejoin:miter;"/>
   </g>
   <g id="patch_29">
    <path clip-path="url(#p952e704732)" d="M 252.596898 306.92 
L 259.61817 306.92 
L 259.61817 303.975423 
L 252.596898 303.975423 
z
" style="fill:#e7ba52;stroke:#b0a489;stroke-linejoin:miter;"/>
   </g>
   <g id="patch_30">
    <path clip-path="url(#p952e704732)" d="M 259.61817 306.92 
L 266.639443 306.92 
L 266.639443 303.193421 
L 259.61817 303.193421 
z
" style="fill:#e7ba52;stroke:#b0a489;stroke-linejoin:miter;"/>
   </g>
   <g id="patch_31">
    <path clip-path="url(#p952e704732)" d="M 266.639443 306.92 
L 273.660716 306.92 
L 273.660716 305.162908 
L 266.639443 305.162908 
z
" style="fill:#e7ba52;stroke:#b0a489;stroke-linejoin:miter;"/>
   </g>
   <g id="patch_32">
    <path clip-path="url(#p952e704732)" d="M 273.660716 306.92 
L 280.681989 306.92 
L 280.681989 304.371252 
L 273.660716 304.371252 
z
" style="fill:#e7ba52;stroke:#b0a489;stroke-linejoin:miter;"/>
   </g>
   <g id="patch_33">
    <path clip-path="url(#p952e704732)" d="M 280.681989 306.92 
L 287.703261 306.92 
L 287.703261 304.525721 
L 280.681989 304.525721 
z
" style="fill:#e7ba52;stroke:#b0a489;stroke-linejoin:miter;"/>
   </g>
   <g id="patch_34">
    <path clip-path="url(#p952e704732)" d="M 287.703261 306.92 
L 294.724534 306.92 
L 294.724534 305.578045 
L 287.703261 305.578045 
z
" style="fill:#e7ba52;stroke:#b0a489;stroke-linejoin:miter;"/>
   </g>
   <g id="patch_35">
    <path clip-path="url(#p952e704732)" d="M 294.724534 306.92 
L 301.745807 306.92 
L 301.745807 306.833111 
L 294.724534 306.833111 
z
" style="fill:#e7ba52;stroke:#b0a489;stroke-linejoin:miter;"/>
   </g>
   <g id="patch_36">
    <path clip-path="url(#p952e704732)" d="M 301.745807 306.92 
L 308.76708 306.92 
L 308.76708 305.829058 
L 301.745807 305.829058 
z
" style="fill:#e7ba52;stroke:#b0a489;stroke-linejoin:miter;"/>
   </g>
   <g id="patch_37">
    <path clip-path="url(#p952e704732)" d="M 308.76708 306.92 
L 315.788352 306.92 
L 315.788352 306.92 
L 308.76708 306.92 
z
" style="fill:#e7ba52;stroke:#b0a489;stroke-linejoin:miter;"/>
   </g>
   <g id="patch_38">
    <path clip-path="url(#p952e704732)" d="M 315.788352 306.92 
L 322.809625 306.92 
L 322.809625 306.92 
L 315.788352 306.92 
z
" style="fill:#e7ba52;stroke:#b0a489;stroke-linejoin:miter;"/>
   </g>
   <g id="patch_39">
    <path clip-path="url(#p952e704732)" d="M 322.809625 306.92 
L 329.830898 306.92 
L 329.830898 306.92 
L 322.809625 306.92 
z
" style="fill:#e7ba52;stroke:#b0a489;stroke-linejoin:miter;"/>
   </g>
   <g id="patch_40">
    <path clip-path="url(#p952e704732)" d="M 329.830898 306.92 
L 336.85217 306.92 
L 336.85217 305.471847 
L 329.830898 305.471847 
z
" style="fill:#e7ba52;stroke:#b0a489;stroke-linejoin:miter;"/>
   </g>
   <g id="patch_41">
    <path clip-path="url(#p952e704732)" d="M 336.85217 306.92 
L 343.873443 306.92 
L 343.873443 306.92 
L 336.85217 306.92 
z
" style="fill:#e7ba52;stroke:#b0a489;stroke-linejoin:miter;"/>
   </g>
   <g id="patch_42">
    <path clip-path="url(#p952e704732)" d="M 343.873443 306.92 
L 350.894716 306.92 
L 350.894716 306.910346 
L 343.873443 306.910346 
z
" style="fill:#e7ba52;stroke:#b0a489;stroke-linejoin:miter;"/>
   </g>
   <g id="patch_43">
    <path clip-path="url(#p952e704732)" d="M 350.894716 306.92 
L 357.915989 306.92 
L 357.915989 306.456591 
L 350.894716 306.456591 
z
" style="fill:#e7ba52;stroke:#b0a489;stroke-linejoin:miter;"/>
   </g>
   <g id="patch_44">
    <path clip-path="url(#p952e704732)" d="M 357.915989 306.92 
L 364.937261 306.92 
L 364.937261 306.784839 
L 357.915989 306.784839 
z
" style="fill:#e7ba52;stroke:#b0a489;stroke-linejoin:miter;"/>
   </g>
   <g id="patch_45">
    <path clip-path="url(#p952e704732)" d="M 364.937261 306.92 
L 371.958534 306.92 
L 371.958534 305.886985 
L 364.937261 305.886985 
z
" style="fill:#e7ba52;stroke:#b0a489;stroke-linejoin:miter;"/>
   </g>
   <g id="patch_46">
    <path clip-path="url(#p952e704732)" d="M 371.958534 306.92 
L 378.979807 306.92 
L 378.979807 306.92 
L 371.958534 306.92 
z
" style="fill:#e7ba52;stroke:#b0a489;stroke-linejoin:miter;"/>
   </g>
   <g id="patch_47">
    <path clip-path="url(#p952e704732)" d="M 378.979807 306.92 
L 386.00108 306.92 
L 386.00108 306.92 
L 378.979807 306.92 
z
" style="fill:#e7ba52;stroke:#b0a489;stroke-linejoin:miter;"/>
   </g>
   <g id="patch_48">
    <path clip-path="url(#p952e704732)" d="M 386.00108 306.92 
L 393.022352 306.92 
L 393.022352 306.900691 
L 386.00108 306.900691 
z
" style="fill:#e7ba52;stroke:#b0a489;stroke-linejoin:miter;"/>
   </g>
   <g id="patch_49">
    <path clip-path="url(#p952e704732)" d="M 393.022352 306.92 
L 400.043625 306.92 
L 400.043625 306.92 
L 393.022352 306.92 
z
" style="fill:#e7ba52;stroke:#b0a489;stroke-linejoin:miter;"/>
   </g>
   <g id="patch_50">
    <path clip-path="url(#p952e704732)" d="M 400.043625 306.92 
L 407.064898 306.92 
L 407.064898 306.76553 
L 400.043625 306.76553 
z
" style="fill:#e7ba52;stroke:#b0a489;stroke-linejoin:miter;"/>
   </g>
   <g id="patch_51">
    <path clip-path="url(#p952e704732)" d="M 407.064898 306.92 
L 414.08617 306.92 
L 414.08617 306.92 
L 407.064898 306.92 
z
" style="fill:#e7ba52;stroke:#b0a489;stroke-linejoin:miter;"/>
   </g>
   <g id="patch_52">
    <path clip-path="url(#p952e704732)" d="M 414.08617 306.92 
L 421.107443 306.92 
L 421.107443 306.784839 
L 414.08617 306.784839 
z
" style="fill:#e7ba52;stroke:#b0a489;stroke-linejoin:miter;"/>
   </g>
   <g id="matplotlib.axis_1">
    <g id="xtick_1">
     <g id="line2d_1">
      <defs>
       <path d="M 0 0 
L 0 3.5 
" id="m37252bacad" style="stroke:#000000;stroke-width:0.8;"/>
      </defs>
      <g>
       <use style="stroke:#000000;stroke-width:0.8;" x="111.675517" xlink:href="#m37252bacad" y="306.92"/>
      </g>
     </g>
     <g id="text_1">
      <!-- −2 -->
      <g transform="translate(104.304424 321.518437)scale(0.1 -0.1)">
       <defs>
        <path d="M 678 2272 
L 4684 2272 
L 4684 1741 
L 678 1741 
L 678 2272 
z
" id="DejaVuSans-2212" transform="scale(0.015625)"/>
        <path d="M 1228 531 
L 3431 531 
L 3431 0 
L 469 0 
L 469 531 
Q 828 903 1448 1529 
Q 2069 2156 2228 2338 
Q 2531 2678 2651 2914 
Q 2772 3150 2772 3378 
Q 2772 3750 2511 3984 
Q 2250 4219 1831 4219 
Q 1534 4219 1204 4116 
Q 875 4013 500 3803 
L 500 4441 
Q 881 4594 1212 4672 
Q 1544 4750 1819 4750 
Q 2544 4750 2975 4387 
Q 3406 4025 3406 3419 
Q 3406 3131 3298 2873 
Q 3191 2616 2906 2266 
Q 2828 2175 2409 1742 
Q 1991 1309 1228 531 
z
" id="DejaVuSans-32" transform="scale(0.015625)"/>
       </defs>
       <use xlink:href="#DejaVuSans-2212"/>
       <use x="83.789062" xlink:href="#DejaVuSans-32"/>
      </g>
     </g>
    </g>
    <g id="xtick_2">
     <g id="line2d_2">
      <g>
       <use style="stroke:#000000;stroke-width:0.8;" x="185.778347" xlink:href="#m37252bacad" y="306.92"/>
      </g>
     </g>
     <g id="text_2">
      <!-- −1 -->
      <g transform="translate(178.407253 321.518437)scale(0.1 -0.1)">
       <defs>
        <path d="M 794 531 
L 1825 531 
L 1825 4091 
L 703 3866 
L 703 4441 
L 1819 4666 
L 2450 4666 
L 2450 531 
L 3481 531 
L 3481 0 
L 794 0 
L 794 531 
z
" id="DejaVuSans-31" transform="scale(0.015625)"/>
       </defs>
       <use xlink:href="#DejaVuSans-2212"/>
       <use x="83.789062" xlink:href="#DejaVuSans-31"/>
      </g>
     </g>
    </g>
    <g id="xtick_3">
     <g id="line2d_3">
      <g>
       <use style="stroke:#000000;stroke-width:0.8;" x="259.881176" xlink:href="#m37252bacad" y="306.92"/>
      </g>
     </g>
     <g id="text_3">
      <!-- 0 -->
      <g transform="translate(256.699926 321.518437)scale(0.1 -0.1)">
       <defs>
        <path d="M 2034 4250 
Q 1547 4250 1301 3770 
Q 1056 3291 1056 2328 
Q 1056 1369 1301 889 
Q 1547 409 2034 409 
Q 2525 409 2770 889 
Q 3016 1369 3016 2328 
Q 3016 3291 2770 3770 
Q 2525 4250 2034 4250 
z
M 2034 4750 
Q 2819 4750 3233 4129 
Q 3647 3509 3647 2328 
Q 3647 1150 3233 529 
Q 2819 -91 2034 -91 
Q 1250 -91 836 529 
Q 422 1150 422 2328 
Q 422 3509 836 4129 
Q 1250 4750 2034 4750 
z
" id="DejaVuSans-30" transform="scale(0.015625)"/>
       </defs>
       <use xlink:href="#DejaVuSans-30"/>
      </g>
     </g>
    </g>
    <g id="xtick_4">
     <g id="line2d_4">
      <g>
       <use style="stroke:#000000;stroke-width:0.8;" x="333.984006" xlink:href="#m37252bacad" y="306.92"/>
      </g>
     </g>
     <g id="text_4">
      <!-- 1 -->
      <g transform="translate(330.802756 321.518437)scale(0.1 -0.1)">
       <use xlink:href="#DejaVuSans-31"/>
      </g>
     </g>
    </g>
    <g id="xtick_5">
     <g id="line2d_5">
      <g>
       <use style="stroke:#000000;stroke-width:0.8;" x="408.086835" xlink:href="#m37252bacad" y="306.92"/>
      </g>
     </g>
     <g id="text_5">
      <!-- 2 -->
      <g transform="translate(404.905585 321.518437)scale(0.1 -0.1)">
       <use xlink:href="#DejaVuSans-32"/>
      </g>
     </g>
    </g>
   </g>
   <g id="matplotlib.axis_2">
    <g id="ytick_1">
     <g id="line2d_6">
      <defs>
       <path d="M 0 0 
L -3.5 0 
" id="m62c3593519" style="stroke:#000000;stroke-width:0.8;"/>
      </defs>
      <g>
       <use style="stroke:#000000;stroke-width:0.8;" x="52.490625" xlink:href="#m62c3593519" y="306.92"/>
      </g>
     </g>
     <g id="text_6">
      <!-- 0 -->
      <g transform="translate(39.128125 310.719219)scale(0.1 -0.1)">
       <use xlink:href="#DejaVuSans-30"/>
      </g>
     </g>
    </g>
    <g id="ytick_2">
     <g id="line2d_7">
      <g>
       <use style="stroke:#000000;stroke-width:0.8;" x="52.490625" xlink:href="#m62c3593519" y="258.648249"/>
      </g>
     </g>
     <g id="text_7">
      <!-- 5000 -->
      <g transform="translate(20.040625 262.447468)scale(0.1 -0.1)">
       <defs>
        <path d="M 691 4666 
L 3169 4666 
L 3169 4134 
L 1269 4134 
L 1269 2991 
Q 1406 3038 1543 3061 
Q 1681 3084 1819 3084 
Q 2600 3084 3056 2656 
Q 3513 2228 3513 1497 
Q 3513 744 3044 326 
Q 2575 -91 1722 -91 
Q 1428 -91 1123 -41 
Q 819 9 494 109 
L 494 744 
Q 775 591 1075 516 
Q 1375 441 1709 441 
Q 2250 441 2565 725 
Q 2881 1009 2881 1497 
Q 2881 1984 2565 2268 
Q 2250 2553 1709 2553 
Q 1456 2553 1204 2497 
Q 953 2441 691 2322 
L 691 4666 
z
" id="DejaVuSans-35" transform="scale(0.015625)"/>
       </defs>
       <use xlink:href="#DejaVuSans-35"/>
       <use x="63.623047" xlink:href="#DejaVuSans-30"/>
       <use x="127.246094" xlink:href="#DejaVuSans-30"/>
       <use x="190.869141" xlink:href="#DejaVuSans-30"/>
      </g>
     </g>
    </g>
    <g id="ytick_3">
     <g id="line2d_8">
      <g>
       <use style="stroke:#000000;stroke-width:0.8;" x="52.490625" xlink:href="#m62c3593519" y="210.376498"/>
      </g>
     </g>
     <g id="text_8">
      <!-- 10000 -->
      <g transform="translate(13.678125 214.175716)scale(0.1 -0.1)">
       <use xlink:href="#DejaVuSans-31"/>
       <use x="63.623047" xlink:href="#DejaVuSans-30"/>
       <use x="127.246094" xlink:href="#DejaVuSans-30"/>
       <use x="190.869141" xlink:href="#DejaVuSans-30"/>
       <use x="254.492188" xlink:href="#DejaVuSans-30"/>
      </g>
     </g>
    </g>
    <g id="ytick_4">
     <g id="line2d_9">
      <g>
       <use style="stroke:#000000;stroke-width:0.8;" x="52.490625" xlink:href="#m62c3593519" y="162.104747"/>
      </g>
     </g>
     <g id="text_9">
      <!-- 15000 -->
      <g transform="translate(13.678125 165.903965)scale(0.1 -0.1)">
       <use xlink:href="#DejaVuSans-31"/>
       <use x="63.623047" xlink:href="#DejaVuSans-35"/>
       <use x="127.246094" xlink:href="#DejaVuSans-30"/>
       <use x="190.869141" xlink:href="#DejaVuSans-30"/>
       <use x="254.492188" xlink:href="#DejaVuSans-30"/>
      </g>
     </g>
    </g>
    <g id="ytick_5">
     <g id="line2d_10">
      <g>
       <use style="stroke:#000000;stroke-width:0.8;" x="52.490625" xlink:href="#m62c3593519" y="113.832995"/>
      </g>
     </g>
     <g id="text_10">
      <!-- 20000 -->
      <g transform="translate(13.678125 117.632214)scale(0.1 -0.1)">
       <use xlink:href="#DejaVuSans-32"/>
       <use x="63.623047" xlink:href="#DejaVuSans-30"/>
       <use x="127.246094" xlink:href="#DejaVuSans-30"/>
       <use x="190.869141" xlink:href="#DejaVuSans-30"/>
       <use x="254.492188" xlink:href="#DejaVuSans-30"/>
      </g>
     </g>
    </g>
    <g id="ytick_6">
     <g id="line2d_11">
      <g>
       <use style="stroke:#000000;stroke-width:0.8;" x="52.490625" xlink:href="#m62c3593519" y="65.561244"/>
      </g>
     </g>
     <g id="text_11">
      <!-- 25000 -->
      <g transform="translate(13.678125 69.360463)scale(0.1 -0.1)">
       <use xlink:href="#DejaVuSans-32"/>
       <use x="63.623047" xlink:href="#DejaVuSans-35"/>
       <use x="127.246094" xlink:href="#DejaVuSans-30"/>
       <use x="190.869141" xlink:href="#DejaVuSans-30"/>
       <use x="254.492188" xlink:href="#DejaVuSans-30"/>
      </g>
     </g>
    </g>
    <g id="ytick_7">
     <g id="line2d_12">
      <g>
       <use style="stroke:#000000;stroke-width:0.8;" x="52.490625" xlink:href="#m62c3593519" y="17.289493"/>
      </g>
     </g>
     <g id="text_12">
      <!-- 30000 -->
      <g transform="translate(13.678125 21.088712)scale(0.1 -0.1)">
       <defs>
        <path d="M 2597 2516 
Q 3050 2419 3304 2112 
Q 3559 1806 3559 1356 
Q 3559 666 3084 287 
Q 2609 -91 1734 -91 
Q 1441 -91 1130 -33 
Q 819 25 488 141 
L 488 750 
Q 750 597 1062 519 
Q 1375 441 1716 441 
Q 2309 441 2620 675 
Q 2931 909 2931 1356 
Q 2931 1769 2642 2001 
Q 2353 2234 1838 2234 
L 1294 2234 
L 1294 2753 
L 1863 2753 
Q 2328 2753 2575 2939 
Q 2822 3125 2822 3475 
Q 2822 3834 2567 4026 
Q 2313 4219 1838 4219 
Q 1578 4219 1281 4162 
Q 984 4106 628 3988 
L 628 4550 
Q 988 4650 1302 4700 
Q 1616 4750 1894 4750 
Q 2613 4750 3031 4423 
Q 3450 4097 3450 3541 
Q 3450 3153 3228 2886 
Q 3006 2619 2597 2516 
z
" id="DejaVuSans-33" transform="scale(0.015625)"/>
       </defs>
       <use xlink:href="#DejaVuSans-33"/>
       <use x="63.623047" xlink:href="#DejaVuSans-30"/>
       <use x="127.246094" xlink:href="#DejaVuSans-30"/>
       <use x="190.869141" xlink:href="#DejaVuSans-30"/>
       <use x="254.492188" xlink:href="#DejaVuSans-30"/>
      </g>
     </g>
    </g>
    <g id="text_13">
     <!-- n windows -->
     <g transform="translate(7.598438 179.792031)rotate(-90)scale(0.1 -0.1)">
      <defs>
       <path d="M 3513 2113 
L 3513 0 
L 2938 0 
L 2938 2094 
Q 2938 2591 2744 2837 
Q 2550 3084 2163 3084 
Q 1697 3084 1428 2787 
Q 1159 2491 1159 1978 
L 1159 0 
L 581 0 
L 581 3500 
L 1159 3500 
L 1159 2956 
Q 1366 3272 1645 3428 
Q 1925 3584 2291 3584 
Q 2894 3584 3203 3211 
Q 3513 2838 3513 2113 
z
" id="DejaVuSans-6e" transform="scale(0.015625)"/>
       <path id="DejaVuSans-20" transform="scale(0.015625)"/>
       <path d="M 269 3500 
L 844 3500 
L 1563 769 
L 2278 3500 
L 2956 3500 
L 3675 769 
L 4391 3500 
L 4966 3500 
L 4050 0 
L 3372 0 
L 2619 2869 
L 1863 0 
L 1184 0 
L 269 3500 
z
" id="DejaVuSans-77" transform="scale(0.015625)"/>
       <path d="M 603 3500 
L 1178 3500 
L 1178 0 
L 603 0 
L 603 3500 
z
M 603 4863 
L 1178 4863 
L 1178 4134 
L 603 4134 
L 603 4863 
z
" id="DejaVuSans-69" transform="scale(0.015625)"/>
       <path d="M 2906 2969 
L 2906 4863 
L 3481 4863 
L 3481 0 
L 2906 0 
L 2906 525 
Q 2725 213 2448 61 
Q 2172 -91 1784 -91 
Q 1150 -91 751 415 
Q 353 922 353 1747 
Q 353 2572 751 3078 
Q 1150 3584 1784 3584 
Q 2172 3584 2448 3432 
Q 2725 3281 2906 2969 
z
M 947 1747 
Q 947 1113 1208 752 
Q 1469 391 1925 391 
Q 2381 391 2643 752 
Q 2906 1113 2906 1747 
Q 2906 2381 2643 2742 
Q 2381 3103 1925 3103 
Q 1469 3103 1208 2742 
Q 947 2381 947 1747 
z
" id="DejaVuSans-64" transform="scale(0.015625)"/>
       <path d="M 1959 3097 
Q 1497 3097 1228 2736 
Q 959 2375 959 1747 
Q 959 1119 1226 758 
Q 1494 397 1959 397 
Q 2419 397 2687 759 
Q 2956 1122 2956 1747 
Q 2956 2369 2687 2733 
Q 2419 3097 1959 3097 
z
M 1959 3584 
Q 2709 3584 3137 3096 
Q 3566 2609 3566 1747 
Q 3566 888 3137 398 
Q 2709 -91 1959 -91 
Q 1206 -91 779 398 
Q 353 888 353 1747 
Q 353 2609 779 3096 
Q 1206 3584 1959 3584 
z
" id="DejaVuSans-6f" transform="scale(0.015625)"/>
       <path d="M 2834 3397 
L 2834 2853 
Q 2591 2978 2328 3040 
Q 2066 3103 1784 3103 
Q 1356 3103 1142 2972 
Q 928 2841 928 2578 
Q 928 2378 1081 2264 
Q 1234 2150 1697 2047 
L 1894 2003 
Q 2506 1872 2764 1633 
Q 3022 1394 3022 966 
Q 3022 478 2636 193 
Q 2250 -91 1575 -91 
Q 1294 -91 989 -36 
Q 684 19 347 128 
L 347 722 
Q 666 556 975 473 
Q 1284 391 1588 391 
Q 1994 391 2212 530 
Q 2431 669 2431 922 
Q 2431 1156 2273 1281 
Q 2116 1406 1581 1522 
L 1381 1569 
Q 847 1681 609 1914 
Q 372 2147 372 2553 
Q 372 3047 722 3315 
Q 1072 3584 1716 3584 
Q 2034 3584 2315 3537 
Q 2597 3491 2834 3397 
z
" id="DejaVuSans-73" transform="scale(0.015625)"/>
      </defs>
      <use xlink:href="#DejaVuSans-6e"/>
      <use x="63.378906" xlink:href="#DejaVuSans-20"/>
      <use x="95.166016" xlink:href="#DejaVuSans-77"/>
      <use x="176.953125" xlink:href="#DejaVuSans-69"/>
      <use x="204.736328" xlink:href="#DejaVuSans-6e"/>
      <use x="268.115234" xlink:href="#DejaVuSans-64"/>
      <use x="331.591797" xlink:href="#DejaVuSans-6f"/>
      <use x="392.773438" xlink:href="#DejaVuSans-77"/>
      <use x="474.560547" xlink:href="#DejaVuSans-73"/>
     </g>
    </g>
   </g>
   <g id="line2d_13">
    <path clip-path="url(#p952e704732)" d="M 131.95728 306.92 
L 131.95728 0 
" style="fill:none;stroke:#e7ba52;stroke-dasharray:3.7,1.6;stroke-dashoffset:0;"/>
   </g>
   <g id="patch_53">
    <path d="M 52.490625 306.92 
L 52.490625 0 
" style="fill:none;stroke:#000000;stroke-linecap:square;stroke-linejoin:miter;stroke-width:0.8;"/>
   </g>
   <g id="patch_54">
    <path d="M 438.660625 306.92 
L 438.660625 0 
" style="fill:none;stroke:#000000;stroke-linecap:square;stroke-linejoin:miter;stroke-width:0.8;"/>
   </g>
   <g id="patch_55">
    <path d="M 52.490625 306.92 
L 438.660625 306.92 
" style="fill:none;stroke:#000000;stroke-linecap:square;stroke-linejoin:miter;stroke-width:0.8;"/>
   </g>
   <g id="patch_56">
    <path d="M 52.490625 0 
L 438.660625 0 
" style="fill:none;stroke:#000000;stroke-linecap:square;stroke-linejoin:miter;stroke-width:0.8;"/>
   </g>
   <g id="legend_1">
    <g id="patch_57">
     <path d="M 334.960625 22.678125 
L 431.660625 22.678125 
Q 433.660625 22.678125 433.660625 20.678125 
L 433.660625 7 
Q 433.660625 5 431.660625 5 
L 334.960625 5 
Q 332.960625 5 332.960625 7 
L 332.960625 20.678125 
Q 332.960625 22.678125 334.960625 22.678125 
z
" style="fill:#ffffff;opacity:0.8;stroke:#cccccc;stroke-linejoin:miter;"/>
    </g>
    <g id="line2d_14">
     <path d="M 336.960625 13.098438 
L 356.960625 13.098438 
" style="fill:none;stroke:#e7ba52;stroke-dasharray:3.7,1.6;stroke-dashoffset:0;"/>
    </g>
    <g id="line2d_15"/>
    <g id="text_14">
     <!-- $\bar{x}=-1.7263$ -->
     <g transform="translate(364.960625 16.598438)scale(0.1 -0.1)">
      <defs>
       <path d="M -2522 4769 
L -653 4769 
L -653 4306 
L -2522 4306 
L -2522 4769 
z
" id="DejaVuSans-304" transform="scale(0.015625)"/>
       <path d="M 3841 3500 
L 2234 1784 
L 3219 0 
L 2559 0 
L 1819 1388 
L 531 0 
L -166 0 
L 1556 1844 
L 641 3500 
L 1300 3500 
L 1972 2234 
L 3144 3500 
L 3841 3500 
z
" id="DejaVuSans-Oblique-78" transform="scale(0.015625)"/>
       <path d="M 678 2906 
L 4684 2906 
L 4684 2381 
L 678 2381 
L 678 2906 
z
M 678 1631 
L 4684 1631 
L 4684 1100 
L 678 1100 
L 678 1631 
z
" id="DejaVuSans-3d" transform="scale(0.015625)"/>
       <path d="M 684 794 
L 1344 794 
L 1344 0 
L 684 0 
L 684 794 
z
" id="DejaVuSans-2e" transform="scale(0.015625)"/>
       <path d="M 525 4666 
L 3525 4666 
L 3525 4397 
L 1831 0 
L 1172 0 
L 2766 4134 
L 525 4134 
L 525 4666 
z
" id="DejaVuSans-37" transform="scale(0.015625)"/>
       <path d="M 2113 2584 
Q 1688 2584 1439 2293 
Q 1191 2003 1191 1497 
Q 1191 994 1439 701 
Q 1688 409 2113 409 
Q 2538 409 2786 701 
Q 3034 994 3034 1497 
Q 3034 2003 2786 2293 
Q 2538 2584 2113 2584 
z
M 3366 4563 
L 3366 3988 
Q 3128 4100 2886 4159 
Q 2644 4219 2406 4219 
Q 1781 4219 1451 3797 
Q 1122 3375 1075 2522 
Q 1259 2794 1537 2939 
Q 1816 3084 2150 3084 
Q 2853 3084 3261 2657 
Q 3669 2231 3669 1497 
Q 3669 778 3244 343 
Q 2819 -91 2113 -91 
Q 1303 -91 875 529 
Q 447 1150 447 2328 
Q 447 3434 972 4092 
Q 1497 4750 2381 4750 
Q 2619 4750 2861 4703 
Q 3103 4656 3366 4563 
z
" id="DejaVuSans-36" transform="scale(0.015625)"/>
      </defs>
      <use transform="translate(62.201172 0.484375)" xlink:href="#DejaVuSans-304"/>
      <use transform="translate(0 0.578125)" xlink:href="#DejaVuSans-Oblique-78"/>
      <use transform="translate(78.662109 0.578125)" xlink:href="#DejaVuSans-3d"/>
      <use transform="translate(201.416016 0.578125)" xlink:href="#DejaVuSans-2212"/>
      <use transform="translate(304.6875 0.578125)" xlink:href="#DejaVuSans-31"/>
      <use transform="translate(368.310547 0.578125)" xlink:href="#DejaVuSans-2e"/>
      <use transform="translate(392.347656 0.578125)" xlink:href="#DejaVuSans-37"/>
      <use transform="translate(455.970703 0.578125)" xlink:href="#DejaVuSans-32"/>
      <use transform="translate(519.59375 0.578125)" xlink:href="#DejaVuSans-36"/>
      <use transform="translate(583.216797 0.578125)" xlink:href="#DejaVuSans-33"/>
     </g>
    </g>
   </g>
  </g>
 </g>
 <defs>
  <clipPath id="p952e704732">
   <rect height="306.92" width="386.17" x="52.490625" y="0"/>
  </clipPath>
 </defs>
</svg>
