<?xml version="1.0" encoding="utf-8" standalone="no"?>
<!DOCTYPE svg PUBLIC "-//W3C//DTD SVG 1.1//EN"
  "http://www.w3.org/Graphics/SVG/1.1/DTD/svg11.dtd">
<svg height="323.598125pt" version="1.1" viewBox="0 0 437.824035 323.598125" width="437.824035pt" xmlns="http://www.w3.org/2000/svg" xmlns:xlink="http://www.w3.org/1999/xlink">
 <metadata>
  <rdf:RDF xmlns:cc="http://creativecommons.org/ns#" xmlns:dc="http://purl.org/dc/elements/1.1/" xmlns:rdf="http://www.w3.org/1999/02/22-rdf-syntax-ns#">
   <cc:Work>
    <dc:type rdf:resource="http://purl.org/dc/dcmitype/StillImage"/>
    <dc:date>2022-01-12T14:44:58.431508</dc:date>
    <dc:format>image/svg+xml</dc:format>
    <dc:creator>
     <cc:Agent>
      <dc:title>Matplotlib v3.4.3, https://matplotlib.org/</dc:title>
     </cc:Agent>
    </dc:creator>
   </cc:Work>
  </rdf:RDF>
 </metadata>
 <defs>
  <style type="text/css">*{stroke-linecap:butt;stroke-linejoin:round;}</style>
 </defs>
 <g id="figure_1">
  <g id="patch_1">
   <path d="M 0 323.598125 
L 437.824035 323.598125 
L 437.824035 0 
L 0 0 
z
" style="fill:#ffffff;"/>
  </g>
  <g id="axes_1">
   <g id="patch_2">
    <path d="M 33.403125 306.92 
L 434.780101 306.92 
L 434.780101 0 
L 33.403125 0 
z
" style="fill:#ffffff;"/>
   </g>
   <g id="patch_3">
    <path clip-path="url(#p0fbca8b468)" d="M 51.647533 306.92 
L 58.945296 306.92 
L 58.945296 233.84381 
L 51.647533 233.84381 
z
" style="fill:#e5d8bd;stroke:#dad4c8;stroke-linejoin:miter;"/>
   </g>
   <g id="patch_4">
    <path clip-path="url(#p0fbca8b468)" d="M 58.945296 306.92 
L 66.243059 306.92 
L 66.243059 202.525442 
L 58.945296 202.525442 
z
" style="fill:#e5d8bd;stroke:#dad4c8;stroke-linejoin:miter;"/>
   </g>
   <g id="patch_5">
    <path clip-path="url(#p0fbca8b468)" d="M 66.243059 306.92 
L 73.540823 306.92 
L 73.540823 119.009796 
L 66.243059 119.009796 
z
" style="fill:#e5d8bd;stroke:#dad4c8;stroke-linejoin:miter;"/>
   </g>
   <g id="patch_6">
    <path clip-path="url(#p0fbca8b468)" d="M 73.540823 306.92 
L 80.838586 306.92 
L 80.838586 129.449252 
L 73.540823 129.449252 
z
" style="fill:#e5d8bd;stroke:#dad4c8;stroke-linejoin:miter;"/>
   </g>
   <g id="patch_7">
    <path clip-path="url(#p0fbca8b468)" d="M 80.838586 306.92 
L 88.136349 306.92 
L 88.136349 14.615238 
L 80.838586 14.615238 
z
" style="fill:#e5d8bd;stroke:#dad4c8;stroke-linejoin:miter;"/>
   </g>
   <g id="patch_8">
    <path clip-path="url(#p0fbca8b468)" d="M 88.136349 306.92 
L 95.434112 306.92 
L 95.434112 129.449252 
L 88.136349 129.449252 
z
" style="fill:#e5d8bd;stroke:#dad4c8;stroke-linejoin:miter;"/>
   </g>
   <g id="patch_9">
    <path clip-path="url(#p0fbca8b468)" d="M 95.434112 306.92 
L 102.731875 306.92 
L 102.731875 202.525442 
L 95.434112 202.525442 
z
" style="fill:#e5d8bd;stroke:#dad4c8;stroke-linejoin:miter;"/>
   </g>
   <g id="patch_10">
    <path clip-path="url(#p0fbca8b468)" d="M 102.731875 306.92 
L 110.029639 306.92 
L 110.029639 233.84381 
L 102.731875 233.84381 
z
" style="fill:#e5d8bd;stroke:#dad4c8;stroke-linejoin:miter;"/>
   </g>
   <g id="patch_11">
    <path clip-path="url(#p0fbca8b468)" d="M 110.029639 306.92 
L 117.327402 306.92 
L 117.327402 223.404354 
L 110.029639 223.404354 
z
" style="fill:#e5d8bd;stroke:#dad4c8;stroke-linejoin:miter;"/>
   </g>
   <g id="patch_12">
    <path clip-path="url(#p0fbca8b468)" d="M 117.327402 306.92 
L 124.625165 306.92 
L 124.625165 212.964898 
L 117.327402 212.964898 
z
" style="fill:#e5d8bd;stroke:#dad4c8;stroke-linejoin:miter;"/>
   </g>
   <g id="patch_13">
    <path clip-path="url(#p0fbca8b468)" d="M 124.625165 306.92 
L 131.922928 306.92 
L 131.922928 233.84381 
L 124.625165 233.84381 
z
" style="fill:#e5d8bd;stroke:#dad4c8;stroke-linejoin:miter;"/>
   </g>
   <g id="patch_14">
    <path clip-path="url(#p0fbca8b468)" d="M 131.922928 306.92 
L 139.220691 306.92 
L 139.220691 265.162177 
L 131.922928 265.162177 
z
" style="fill:#e5d8bd;stroke:#dad4c8;stroke-linejoin:miter;"/>
   </g>
   <g id="patch_15">
    <path clip-path="url(#p0fbca8b468)" d="M 139.220691 306.92 
L 146.518455 306.92 
L 146.518455 286.041088 
L 139.220691 286.041088 
z
" style="fill:#e5d8bd;stroke:#dad4c8;stroke-linejoin:miter;"/>
   </g>
   <g id="patch_16">
    <path clip-path="url(#p0fbca8b468)" d="M 146.518455 306.92 
L 153.816218 306.92 
L 153.816218 296.480544 
L 146.518455 296.480544 
z
" style="fill:#e5d8bd;stroke:#dad4c8;stroke-linejoin:miter;"/>
   </g>
   <g id="patch_17">
    <path clip-path="url(#p0fbca8b468)" d="M 153.816218 306.92 
L 161.113981 306.92 
L 161.113981 286.041088 
L 153.816218 286.041088 
z
" style="fill:#e5d8bd;stroke:#dad4c8;stroke-linejoin:miter;"/>
   </g>
   <g id="patch_18">
    <path clip-path="url(#p0fbca8b468)" d="M 161.113981 306.92 
L 168.411744 306.92 
L 168.411744 296.480544 
L 161.113981 296.480544 
z
" style="fill:#e5d8bd;stroke:#dad4c8;stroke-linejoin:miter;"/>
   </g>
   <g id="patch_19">
    <path clip-path="url(#p0fbca8b468)" d="M 168.411744 306.92 
L 175.709507 306.92 
L 175.709507 306.92 
L 168.411744 306.92 
z
" style="fill:#e5d8bd;stroke:#dad4c8;stroke-linejoin:miter;"/>
   </g>
   <g id="patch_20">
    <path clip-path="url(#p0fbca8b468)" d="M 175.709507 306.92 
L 183.007271 306.92 
L 183.007271 306.92 
L 175.709507 306.92 
z
" style="fill:#e5d8bd;stroke:#dad4c8;stroke-linejoin:miter;"/>
   </g>
   <g id="patch_21">
    <path clip-path="url(#p0fbca8b468)" d="M 183.007271 306.92 
L 190.305034 306.92 
L 190.305034 286.041088 
L 183.007271 286.041088 
z
" style="fill:#e5d8bd;stroke:#dad4c8;stroke-linejoin:miter;"/>
   </g>
   <g id="patch_22">
    <path clip-path="url(#p0fbca8b468)" d="M 190.305034 306.92 
L 197.602797 306.92 
L 197.602797 296.480544 
L 190.305034 296.480544 
z
" style="fill:#e5d8bd;stroke:#dad4c8;stroke-linejoin:miter;"/>
   </g>
   <g id="patch_23">
    <path clip-path="url(#p0fbca8b468)" d="M 197.602797 306.92 
L 204.90056 306.92 
L 204.90056 306.92 
L 197.602797 306.92 
z
" style="fill:#e5d8bd;stroke:#dad4c8;stroke-linejoin:miter;"/>
   </g>
   <g id="patch_24">
    <path clip-path="url(#p0fbca8b468)" d="M 204.90056 306.92 
L 212.198323 306.92 
L 212.198323 306.92 
L 204.90056 306.92 
z
" style="fill:#e5d8bd;stroke:#dad4c8;stroke-linejoin:miter;"/>
   </g>
   <g id="patch_25">
    <path clip-path="url(#p0fbca8b468)" d="M 212.198323 306.92 
L 219.496087 306.92 
L 219.496087 306.92 
L 212.198323 306.92 
z
" style="fill:#e5d8bd;stroke:#dad4c8;stroke-linejoin:miter;"/>
   </g>
   <g id="patch_26">
    <path clip-path="url(#p0fbca8b468)" d="M 219.496087 306.92 
L 226.79385 306.92 
L 226.79385 306.92 
L 219.496087 306.92 
z
" style="fill:#e5d8bd;stroke:#dad4c8;stroke-linejoin:miter;"/>
   </g>
   <g id="patch_27">
    <path clip-path="url(#p0fbca8b468)" d="M 226.79385 306.92 
L 234.091613 306.92 
L 234.091613 306.92 
L 226.79385 306.92 
z
" style="fill:#e5d8bd;stroke:#dad4c8;stroke-linejoin:miter;"/>
   </g>
   <g id="patch_28">
    <path clip-path="url(#p0fbca8b468)" d="M 234.091613 306.92 
L 241.389376 306.92 
L 241.389376 306.92 
L 234.091613 306.92 
z
" style="fill:#e5d8bd;stroke:#dad4c8;stroke-linejoin:miter;"/>
   </g>
   <g id="patch_29">
    <path clip-path="url(#p0fbca8b468)" d="M 241.389376 306.92 
L 248.687139 306.92 
L 248.687139 306.92 
L 241.389376 306.92 
z
" style="fill:#e5d8bd;stroke:#dad4c8;stroke-linejoin:miter;"/>
   </g>
   <g id="patch_30">
    <path clip-path="url(#p0fbca8b468)" d="M 248.687139 306.92 
L 255.984903 306.92 
L 255.984903 306.92 
L 248.687139 306.92 
z
" style="fill:#e5d8bd;stroke:#dad4c8;stroke-linejoin:miter;"/>
   </g>
   <g id="patch_31">
    <path clip-path="url(#p0fbca8b468)" d="M 255.984903 306.92 
L 263.282666 306.92 
L 263.282666 306.92 
L 255.984903 306.92 
z
" style="fill:#e5d8bd;stroke:#dad4c8;stroke-linejoin:miter;"/>
   </g>
   <g id="patch_32">
    <path clip-path="url(#p0fbca8b468)" d="M 263.282666 306.92 
L 270.580429 306.92 
L 270.580429 306.92 
L 263.282666 306.92 
z
" style="fill:#e5d8bd;stroke:#dad4c8;stroke-linejoin:miter;"/>
   </g>
   <g id="patch_33">
    <path clip-path="url(#p0fbca8b468)" d="M 270.580429 306.92 
L 277.878192 306.92 
L 277.878192 306.92 
L 270.580429 306.92 
z
" style="fill:#e5d8bd;stroke:#dad4c8;stroke-linejoin:miter;"/>
   </g>
   <g id="patch_34">
    <path clip-path="url(#p0fbca8b468)" d="M 277.878192 306.92 
L 285.175955 306.92 
L 285.175955 306.92 
L 277.878192 306.92 
z
" style="fill:#e5d8bd;stroke:#dad4c8;stroke-linejoin:miter;"/>
   </g>
   <g id="patch_35">
    <path clip-path="url(#p0fbca8b468)" d="M 285.175955 306.92 
L 292.473719 306.92 
L 292.473719 306.92 
L 285.175955 306.92 
z
" style="fill:#e5d8bd;stroke:#dad4c8;stroke-linejoin:miter;"/>
   </g>
   <g id="patch_36">
    <path clip-path="url(#p0fbca8b468)" d="M 292.473719 306.92 
L 299.771482 306.92 
L 299.771482 306.92 
L 292.473719 306.92 
z
" style="fill:#e5d8bd;stroke:#dad4c8;stroke-linejoin:miter;"/>
   </g>
   <g id="patch_37">
    <path clip-path="url(#p0fbca8b468)" d="M 299.771482 306.92 
L 307.069245 306.92 
L 307.069245 306.92 
L 299.771482 306.92 
z
" style="fill:#e5d8bd;stroke:#dad4c8;stroke-linejoin:miter;"/>
   </g>
   <g id="patch_38">
    <path clip-path="url(#p0fbca8b468)" d="M 307.069245 306.92 
L 314.367008 306.92 
L 314.367008 306.92 
L 307.069245 306.92 
z
" style="fill:#e5d8bd;stroke:#dad4c8;stroke-linejoin:miter;"/>
   </g>
   <g id="patch_39">
    <path clip-path="url(#p0fbca8b468)" d="M 314.367008 306.92 
L 321.664771 306.92 
L 321.664771 306.92 
L 314.367008 306.92 
z
" style="fill:#e5d8bd;stroke:#dad4c8;stroke-linejoin:miter;"/>
   </g>
   <g id="patch_40">
    <path clip-path="url(#p0fbca8b468)" d="M 321.664771 306.92 
L 328.962535 306.92 
L 328.962535 306.92 
L 321.664771 306.92 
z
" style="fill:#e5d8bd;stroke:#dad4c8;stroke-linejoin:miter;"/>
   </g>
   <g id="patch_41">
    <path clip-path="url(#p0fbca8b468)" d="M 328.962535 306.92 
L 336.260298 306.92 
L 336.260298 306.92 
L 328.962535 306.92 
z
" style="fill:#e5d8bd;stroke:#dad4c8;stroke-linejoin:miter;"/>
   </g>
   <g id="patch_42">
    <path clip-path="url(#p0fbca8b468)" d="M 336.260298 306.92 
L 343.558061 306.92 
L 343.558061 306.92 
L 336.260298 306.92 
z
" style="fill:#e5d8bd;stroke:#dad4c8;stroke-linejoin:miter;"/>
   </g>
   <g id="patch_43">
    <path clip-path="url(#p0fbca8b468)" d="M 343.558061 306.92 
L 350.855824 306.92 
L 350.855824 306.92 
L 343.558061 306.92 
z
" style="fill:#e5d8bd;stroke:#dad4c8;stroke-linejoin:miter;"/>
   </g>
   <g id="patch_44">
    <path clip-path="url(#p0fbca8b468)" d="M 350.855824 306.92 
L 358.153587 306.92 
L 358.153587 306.92 
L 350.855824 306.92 
z
" style="fill:#e5d8bd;stroke:#dad4c8;stroke-linejoin:miter;"/>
   </g>
   <g id="patch_45">
    <path clip-path="url(#p0fbca8b468)" d="M 358.153587 306.92 
L 365.451351 306.92 
L 365.451351 306.92 
L 358.153587 306.92 
z
" style="fill:#e5d8bd;stroke:#dad4c8;stroke-linejoin:miter;"/>
   </g>
   <g id="patch_46">
    <path clip-path="url(#p0fbca8b468)" d="M 365.451351 306.92 
L 372.749114 306.92 
L 372.749114 306.92 
L 365.451351 306.92 
z
" style="fill:#e5d8bd;stroke:#dad4c8;stroke-linejoin:miter;"/>
   </g>
   <g id="patch_47">
    <path clip-path="url(#p0fbca8b468)" d="M 372.749114 306.92 
L 380.046877 306.92 
L 380.046877 306.92 
L 372.749114 306.92 
z
" style="fill:#e5d8bd;stroke:#dad4c8;stroke-linejoin:miter;"/>
   </g>
   <g id="patch_48">
    <path clip-path="url(#p0fbca8b468)" d="M 380.046877 306.92 
L 387.34464 306.92 
L 387.34464 306.92 
L 380.046877 306.92 
z
" style="fill:#e5d8bd;stroke:#dad4c8;stroke-linejoin:miter;"/>
   </g>
   <g id="patch_49">
    <path clip-path="url(#p0fbca8b468)" d="M 387.34464 306.92 
L 394.642403 306.92 
L 394.642403 286.041088 
L 387.34464 286.041088 
z
" style="fill:#e5d8bd;stroke:#dad4c8;stroke-linejoin:miter;"/>
   </g>
   <g id="patch_50">
    <path clip-path="url(#p0fbca8b468)" d="M 394.642403 306.92 
L 401.940167 306.92 
L 401.940167 296.480544 
L 394.642403 296.480544 
z
" style="fill:#e5d8bd;stroke:#dad4c8;stroke-linejoin:miter;"/>
   </g>
   <g id="patch_51">
    <path clip-path="url(#p0fbca8b468)" d="M 401.940167 306.92 
L 409.23793 306.92 
L 409.23793 306.92 
L 401.940167 306.92 
z
" style="fill:#e5d8bd;stroke:#dad4c8;stroke-linejoin:miter;"/>
   </g>
   <g id="patch_52">
    <path clip-path="url(#p0fbca8b468)" d="M 409.23793 306.92 
L 416.535693 306.92 
L 416.535693 296.480544 
L 409.23793 296.480544 
z
" style="fill:#e5d8bd;stroke:#dad4c8;stroke-linejoin:miter;"/>
   </g>
   <g id="matplotlib.axis_1">
    <g id="xtick_1">
     <g id="line2d_1">
      <defs>
       <path d="M 0 0 
L 0 3.5 
" id="m2d757afe8a" style="stroke:#000000;stroke-width:0.8;"/>
      </defs>
      <g>
       <use style="stroke:#000000;stroke-width:0.8;" x="39.813924" xlink:href="#m2d757afe8a" y="306.92"/>
      </g>
     </g>
     <g id="text_1">
      <!-- 0.00 -->
      <g transform="translate(28.681111 321.518437)scale(0.1 -0.1)">
       <defs>
        <path d="M 2034 4250 
Q 1547 4250 1301 3770 
Q 1056 3291 1056 2328 
Q 1056 1369 1301 889 
Q 1547 409 2034 409 
Q 2525 409 2770 889 
Q 3016 1369 3016 2328 
Q 3016 3291 2770 3770 
Q 2525 4250 2034 4250 
z
M 2034 4750 
Q 2819 4750 3233 4129 
Q 3647 3509 3647 2328 
Q 3647 1150 3233 529 
Q 2819 -91 2034 -91 
Q 1250 -91 836 529 
Q 422 1150 422 2328 
Q 422 3509 836 4129 
Q 1250 4750 2034 4750 
z
" id="DejaVuSans-30" transform="scale(0.015625)"/>
        <path d="M 684 794 
L 1344 794 
L 1344 0 
L 684 0 
L 684 794 
z
" id="DejaVuSans-2e" transform="scale(0.015625)"/>
       </defs>
       <use xlink:href="#DejaVuSans-30"/>
       <use x="63.623047" xlink:href="#DejaVuSans-2e"/>
       <use x="95.410156" xlink:href="#DejaVuSans-30"/>
       <use x="159.033203" xlink:href="#DejaVuSans-30"/>
      </g>
     </g>
    </g>
    <g id="xtick_2">
     <g id="line2d_2">
      <g>
       <use style="stroke:#000000;stroke-width:0.8;" x="88.173586" xlink:href="#m2d757afe8a" y="306.92"/>
      </g>
     </g>
     <g id="text_2">
      <!-- 0.02 -->
      <g transform="translate(77.040773 321.518437)scale(0.1 -0.1)">
       <defs>
        <path d="M 1228 531 
L 3431 531 
L 3431 0 
L 469 0 
L 469 531 
Q 828 903 1448 1529 
Q 2069 2156 2228 2338 
Q 2531 2678 2651 2914 
Q 2772 3150 2772 3378 
Q 2772 3750 2511 3984 
Q 2250 4219 1831 4219 
Q 1534 4219 1204 4116 
Q 875 4013 500 3803 
L 500 4441 
Q 881 4594 1212 4672 
Q 1544 4750 1819 4750 
Q 2544 4750 2975 4387 
Q 3406 4025 3406 3419 
Q 3406 3131 3298 2873 
Q 3191 2616 2906 2266 
Q 2828 2175 2409 1742 
Q 1991 1309 1228 531 
z
" id="DejaVuSans-32" transform="scale(0.015625)"/>
       </defs>
       <use xlink:href="#DejaVuSans-30"/>
       <use x="63.623047" xlink:href="#DejaVuSans-2e"/>
       <use x="95.410156" xlink:href="#DejaVuSans-30"/>
       <use x="159.033203" xlink:href="#DejaVuSans-32"/>
      </g>
     </g>
    </g>
    <g id="xtick_3">
     <g id="line2d_3">
      <g>
       <use style="stroke:#000000;stroke-width:0.8;" x="136.533248" xlink:href="#m2d757afe8a" y="306.92"/>
      </g>
     </g>
     <g id="text_3">
      <!-- 0.04 -->
      <g transform="translate(125.400436 321.518437)scale(0.1 -0.1)">
       <defs>
        <path d="M 2419 4116 
L 825 1625 
L 2419 1625 
L 2419 4116 
z
M 2253 4666 
L 3047 4666 
L 3047 1625 
L 3713 1625 
L 3713 1100 
L 3047 1100 
L 3047 0 
L 2419 0 
L 2419 1100 
L 313 1100 
L 313 1709 
L 2253 4666 
z
" id="DejaVuSans-34" transform="scale(0.015625)"/>
       </defs>
       <use xlink:href="#DejaVuSans-30"/>
       <use x="63.623047" xlink:href="#DejaVuSans-2e"/>
       <use x="95.410156" xlink:href="#DejaVuSans-30"/>
       <use x="159.033203" xlink:href="#DejaVuSans-34"/>
      </g>
     </g>
    </g>
    <g id="xtick_4">
     <g id="line2d_4">
      <g>
       <use style="stroke:#000000;stroke-width:0.8;" x="184.892911" xlink:href="#m2d757afe8a" y="306.92"/>
      </g>
     </g>
     <g id="text_4">
      <!-- 0.06 -->
      <g transform="translate(173.760098 321.518437)scale(0.1 -0.1)">
       <defs>
        <path d="M 2113 2584 
Q 1688 2584 1439 2293 
Q 1191 2003 1191 1497 
Q 1191 994 1439 701 
Q 1688 409 2113 409 
Q 2538 409 2786 701 
Q 3034 994 3034 1497 
Q 3034 2003 2786 2293 
Q 2538 2584 2113 2584 
z
M 3366 4563 
L 3366 3988 
Q 3128 4100 2886 4159 
Q 2644 4219 2406 4219 
Q 1781 4219 1451 3797 
Q 1122 3375 1075 2522 
Q 1259 2794 1537 2939 
Q 1816 3084 2150 3084 
Q 2853 3084 3261 2657 
Q 3669 2231 3669 1497 
Q 3669 778 3244 343 
Q 2819 -91 2113 -91 
Q 1303 -91 875 529 
Q 447 1150 447 2328 
Q 447 3434 972 4092 
Q 1497 4750 2381 4750 
Q 2619 4750 2861 4703 
Q 3103 4656 3366 4563 
z
" id="DejaVuSans-36" transform="scale(0.015625)"/>
       </defs>
       <use xlink:href="#DejaVuSans-30"/>
       <use x="63.623047" xlink:href="#DejaVuSans-2e"/>
       <use x="95.410156" xlink:href="#DejaVuSans-30"/>
       <use x="159.033203" xlink:href="#DejaVuSans-36"/>
      </g>
     </g>
    </g>
    <g id="xtick_5">
     <g id="line2d_5">
      <g>
       <use style="stroke:#000000;stroke-width:0.8;" x="233.252573" xlink:href="#m2d757afe8a" y="306.92"/>
      </g>
     </g>
     <g id="text_5">
      <!-- 0.08 -->
      <g transform="translate(222.11976 321.518437)scale(0.1 -0.1)">
       <defs>
        <path d="M 2034 2216 
Q 1584 2216 1326 1975 
Q 1069 1734 1069 1313 
Q 1069 891 1326 650 
Q 1584 409 2034 409 
Q 2484 409 2743 651 
Q 3003 894 3003 1313 
Q 3003 1734 2745 1975 
Q 2488 2216 2034 2216 
z
M 1403 2484 
Q 997 2584 770 2862 
Q 544 3141 544 3541 
Q 544 4100 942 4425 
Q 1341 4750 2034 4750 
Q 2731 4750 3128 4425 
Q 3525 4100 3525 3541 
Q 3525 3141 3298 2862 
Q 3072 2584 2669 2484 
Q 3125 2378 3379 2068 
Q 3634 1759 3634 1313 
Q 3634 634 3220 271 
Q 2806 -91 2034 -91 
Q 1263 -91 848 271 
Q 434 634 434 1313 
Q 434 1759 690 2068 
Q 947 2378 1403 2484 
z
M 1172 3481 
Q 1172 3119 1398 2916 
Q 1625 2713 2034 2713 
Q 2441 2713 2670 2916 
Q 2900 3119 2900 3481 
Q 2900 3844 2670 4047 
Q 2441 4250 2034 4250 
Q 1625 4250 1398 4047 
Q 1172 3844 1172 3481 
z
" id="DejaVuSans-38" transform="scale(0.015625)"/>
       </defs>
       <use xlink:href="#DejaVuSans-30"/>
       <use x="63.623047" xlink:href="#DejaVuSans-2e"/>
       <use x="95.410156" xlink:href="#DejaVuSans-30"/>
       <use x="159.033203" xlink:href="#DejaVuSans-38"/>
      </g>
     </g>
    </g>
    <g id="xtick_6">
     <g id="line2d_6">
      <g>
       <use style="stroke:#000000;stroke-width:0.8;" x="281.612235" xlink:href="#m2d757afe8a" y="306.92"/>
      </g>
     </g>
     <g id="text_6">
      <!-- 0.10 -->
      <g transform="translate(270.479423 321.518437)scale(0.1 -0.1)">
       <defs>
        <path d="M 794 531 
L 1825 531 
L 1825 4091 
L 703 3866 
L 703 4441 
L 1819 4666 
L 2450 4666 
L 2450 531 
L 3481 531 
L 3481 0 
L 794 0 
L 794 531 
z
" id="DejaVuSans-31" transform="scale(0.015625)"/>
       </defs>
       <use xlink:href="#DejaVuSans-30"/>
       <use x="63.623047" xlink:href="#DejaVuSans-2e"/>
       <use x="95.410156" xlink:href="#DejaVuSans-31"/>
       <use x="159.033203" xlink:href="#DejaVuSans-30"/>
      </g>
     </g>
    </g>
    <g id="xtick_7">
     <g id="line2d_7">
      <g>
       <use style="stroke:#000000;stroke-width:0.8;" x="329.971897" xlink:href="#m2d757afe8a" y="306.92"/>
      </g>
     </g>
     <g id="text_7">
      <!-- 0.12 -->
      <g transform="translate(318.839085 321.518437)scale(0.1 -0.1)">
       <use xlink:href="#DejaVuSans-30"/>
       <use x="63.623047" xlink:href="#DejaVuSans-2e"/>
       <use x="95.410156" xlink:href="#DejaVuSans-31"/>
       <use x="159.033203" xlink:href="#DejaVuSans-32"/>
      </g>
     </g>
    </g>
    <g id="xtick_8">
     <g id="line2d_8">
      <g>
       <use style="stroke:#000000;stroke-width:0.8;" x="378.33156" xlink:href="#m2d757afe8a" y="306.92"/>
      </g>
     </g>
     <g id="text_8">
      <!-- 0.14 -->
      <g transform="translate(367.198747 321.518437)scale(0.1 -0.1)">
       <use xlink:href="#DejaVuSans-30"/>
       <use x="63.623047" xlink:href="#DejaVuSans-2e"/>
       <use x="95.410156" xlink:href="#DejaVuSans-31"/>
       <use x="159.033203" xlink:href="#DejaVuSans-34"/>
      </g>
     </g>
    </g>
    <g id="xtick_9">
     <g id="line2d_9">
      <g>
       <use style="stroke:#000000;stroke-width:0.8;" x="426.691222" xlink:href="#m2d757afe8a" y="306.92"/>
      </g>
     </g>
     <g id="text_9">
      <!-- 0.16 -->
      <g transform="translate(415.55841 321.518437)scale(0.1 -0.1)">
       <use xlink:href="#DejaVuSans-30"/>
       <use x="63.623047" xlink:href="#DejaVuSans-2e"/>
       <use x="95.410156" xlink:href="#DejaVuSans-31"/>
       <use x="159.033203" xlink:href="#DejaVuSans-36"/>
      </g>
     </g>
    </g>
   </g>
   <g id="matplotlib.axis_2">
    <g id="ytick_1">
     <g id="line2d_10">
      <defs>
       <path d="M 0 0 
L -3.5 0 
" id="m36e8a20c63" style="stroke:#000000;stroke-width:0.8;"/>
      </defs>
      <g>
       <use style="stroke:#000000;stroke-width:0.8;" x="33.403125" xlink:href="#m36e8a20c63" y="306.92"/>
      </g>
     </g>
     <g id="text_10">
      <!-- 0 -->
      <g transform="translate(20.040625 310.719219)scale(0.1 -0.1)">
       <use xlink:href="#DejaVuSans-30"/>
      </g>
     </g>
    </g>
    <g id="ytick_2">
     <g id="line2d_11">
      <g>
       <use style="stroke:#000000;stroke-width:0.8;" x="33.403125" xlink:href="#m36e8a20c63" y="254.722721"/>
      </g>
     </g>
     <g id="text_11">
      <!-- 5 -->
      <g transform="translate(20.040625 258.52194)scale(0.1 -0.1)">
       <defs>
        <path d="M 691 4666 
L 3169 4666 
L 3169 4134 
L 1269 4134 
L 1269 2991 
Q 1406 3038 1543 3061 
Q 1681 3084 1819 3084 
Q 2600 3084 3056 2656 
Q 3513 2228 3513 1497 
Q 3513 744 3044 326 
Q 2575 -91 1722 -91 
Q 1428 -91 1123 -41 
Q 819 9 494 109 
L 494 744 
Q 775 591 1075 516 
Q 1375 441 1709 441 
Q 2250 441 2565 725 
Q 2881 1009 2881 1497 
Q 2881 1984 2565 2268 
Q 2250 2553 1709 2553 
Q 1456 2553 1204 2497 
Q 953 2441 691 2322 
L 691 4666 
z
" id="DejaVuSans-35" transform="scale(0.015625)"/>
       </defs>
       <use xlink:href="#DejaVuSans-35"/>
      </g>
     </g>
    </g>
    <g id="ytick_3">
     <g id="line2d_12">
      <g>
       <use style="stroke:#000000;stroke-width:0.8;" x="33.403125" xlink:href="#m36e8a20c63" y="202.525442"/>
      </g>
     </g>
     <g id="text_12">
      <!-- 10 -->
      <g transform="translate(13.678125 206.324661)scale(0.1 -0.1)">
       <use xlink:href="#DejaVuSans-31"/>
       <use x="63.623047" xlink:href="#DejaVuSans-30"/>
      </g>
     </g>
    </g>
    <g id="ytick_4">
     <g id="line2d_13">
      <g>
       <use style="stroke:#000000;stroke-width:0.8;" x="33.403125" xlink:href="#m36e8a20c63" y="150.328163"/>
      </g>
     </g>
     <g id="text_13">
      <!-- 15 -->
      <g transform="translate(13.678125 154.127382)scale(0.1 -0.1)">
       <use xlink:href="#DejaVuSans-31"/>
       <use x="63.623047" xlink:href="#DejaVuSans-35"/>
      </g>
     </g>
    </g>
    <g id="ytick_5">
     <g id="line2d_14">
      <g>
       <use style="stroke:#000000;stroke-width:0.8;" x="33.403125" xlink:href="#m36e8a20c63" y="98.130884"/>
      </g>
     </g>
     <g id="text_14">
      <!-- 20 -->
      <g transform="translate(13.678125 101.930103)scale(0.1 -0.1)">
       <use xlink:href="#DejaVuSans-32"/>
       <use x="63.623047" xlink:href="#DejaVuSans-30"/>
      </g>
     </g>
    </g>
    <g id="ytick_6">
     <g id="line2d_15">
      <g>
       <use style="stroke:#000000;stroke-width:0.8;" x="33.403125" xlink:href="#m36e8a20c63" y="45.933605"/>
      </g>
     </g>
     <g id="text_15">
      <!-- 25 -->
      <g transform="translate(13.678125 49.732824)scale(0.1 -0.1)">
       <use xlink:href="#DejaVuSans-32"/>
       <use x="63.623047" xlink:href="#DejaVuSans-35"/>
      </g>
     </g>
    </g>
    <g id="text_16">
     <!-- n individuals -->
     <g transform="translate(7.598437 185.088125)rotate(-90)scale(0.1 -0.1)">
      <defs>
       <path d="M 3513 2113 
L 3513 0 
L 2938 0 
L 2938 2094 
Q 2938 2591 2744 2837 
Q 2550 3084 2163 3084 
Q 1697 3084 1428 2787 
Q 1159 2491 1159 1978 
L 1159 0 
L 581 0 
L 581 3500 
L 1159 3500 
L 1159 2956 
Q 1366 3272 1645 3428 
Q 1925 3584 2291 3584 
Q 2894 3584 3203 3211 
Q 3513 2838 3513 2113 
z
" id="DejaVuSans-6e" transform="scale(0.015625)"/>
       <path id="DejaVuSans-20" transform="scale(0.015625)"/>
       <path d="M 603 3500 
L 1178 3500 
L 1178 0 
L 603 0 
L 603 3500 
z
M 603 4863 
L 1178 4863 
L 1178 4134 
L 603 4134 
L 603 4863 
z
" id="DejaVuSans-69" transform="scale(0.015625)"/>
       <path d="M 2906 2969 
L 2906 4863 
L 3481 4863 
L 3481 0 
L 2906 0 
L 2906 525 
Q 2725 213 2448 61 
Q 2172 -91 1784 -91 
Q 1150 -91 751 415 
Q 353 922 353 1747 
Q 353 2572 751 3078 
Q 1150 3584 1784 3584 
Q 2172 3584 2448 3432 
Q 2725 3281 2906 2969 
z
M 947 1747 
Q 947 1113 1208 752 
Q 1469 391 1925 391 
Q 2381 391 2643 752 
Q 2906 1113 2906 1747 
Q 2906 2381 2643 2742 
Q 2381 3103 1925 3103 
Q 1469 3103 1208 2742 
Q 947 2381 947 1747 
z
" id="DejaVuSans-64" transform="scale(0.015625)"/>
       <path d="M 191 3500 
L 800 3500 
L 1894 563 
L 2988 3500 
L 3597 3500 
L 2284 0 
L 1503 0 
L 191 3500 
z
" id="DejaVuSans-76" transform="scale(0.015625)"/>
       <path d="M 544 1381 
L 544 3500 
L 1119 3500 
L 1119 1403 
Q 1119 906 1312 657 
Q 1506 409 1894 409 
Q 2359 409 2629 706 
Q 2900 1003 2900 1516 
L 2900 3500 
L 3475 3500 
L 3475 0 
L 2900 0 
L 2900 538 
Q 2691 219 2414 64 
Q 2138 -91 1772 -91 
Q 1169 -91 856 284 
Q 544 659 544 1381 
z
M 1991 3584 
L 1991 3584 
z
" id="DejaVuSans-75" transform="scale(0.015625)"/>
       <path d="M 2194 1759 
Q 1497 1759 1228 1600 
Q 959 1441 959 1056 
Q 959 750 1161 570 
Q 1363 391 1709 391 
Q 2188 391 2477 730 
Q 2766 1069 2766 1631 
L 2766 1759 
L 2194 1759 
z
M 3341 1997 
L 3341 0 
L 2766 0 
L 2766 531 
Q 2569 213 2275 61 
Q 1981 -91 1556 -91 
Q 1019 -91 701 211 
Q 384 513 384 1019 
Q 384 1609 779 1909 
Q 1175 2209 1959 2209 
L 2766 2209 
L 2766 2266 
Q 2766 2663 2505 2880 
Q 2244 3097 1772 3097 
Q 1472 3097 1187 3025 
Q 903 2953 641 2809 
L 641 3341 
Q 956 3463 1253 3523 
Q 1550 3584 1831 3584 
Q 2591 3584 2966 3190 
Q 3341 2797 3341 1997 
z
" id="DejaVuSans-61" transform="scale(0.015625)"/>
       <path d="M 603 4863 
L 1178 4863 
L 1178 0 
L 603 0 
L 603 4863 
z
" id="DejaVuSans-6c" transform="scale(0.015625)"/>
       <path d="M 2834 3397 
L 2834 2853 
Q 2591 2978 2328 3040 
Q 2066 3103 1784 3103 
Q 1356 3103 1142 2972 
Q 928 2841 928 2578 
Q 928 2378 1081 2264 
Q 1234 2150 1697 2047 
L 1894 2003 
Q 2506 1872 2764 1633 
Q 3022 1394 3022 966 
Q 3022 478 2636 193 
Q 2250 -91 1575 -91 
Q 1294 -91 989 -36 
Q 684 19 347 128 
L 347 722 
Q 666 556 975 473 
Q 1284 391 1588 391 
Q 1994 391 2212 530 
Q 2431 669 2431 922 
Q 2431 1156 2273 1281 
Q 2116 1406 1581 1522 
L 1381 1569 
Q 847 1681 609 1914 
Q 372 2147 372 2553 
Q 372 3047 722 3315 
Q 1072 3584 1716 3584 
Q 2034 3584 2315 3537 
Q 2597 3491 2834 3397 
z
" id="DejaVuSans-73" transform="scale(0.015625)"/>
      </defs>
      <use xlink:href="#DejaVuSans-6e"/>
      <use x="63.378906" xlink:href="#DejaVuSans-20"/>
      <use x="95.166016" xlink:href="#DejaVuSans-69"/>
      <use x="122.949219" xlink:href="#DejaVuSans-6e"/>
      <use x="186.328125" xlink:href="#DejaVuSans-64"/>
      <use x="249.804688" xlink:href="#DejaVuSans-69"/>
      <use x="277.587891" xlink:href="#DejaVuSans-76"/>
      <use x="336.767578" xlink:href="#DejaVuSans-69"/>
      <use x="364.550781" xlink:href="#DejaVuSans-64"/>
      <use x="428.027344" xlink:href="#DejaVuSans-75"/>
      <use x="491.40625" xlink:href="#DejaVuSans-61"/>
      <use x="552.685547" xlink:href="#DejaVuSans-6c"/>
      <use x="580.46875" xlink:href="#DejaVuSans-73"/>
     </g>
    </g>
   </g>
   <g id="line2d_16">
    <path clip-path="url(#p0fbca8b468)" d="M 101.49622 306.92 
L 101.49622 0 
" style="fill:none;stroke:#e5d8bd;stroke-dasharray:3.7,1.6;stroke-dashoffset:0;"/>
   </g>
   <g id="patch_53">
    <path d="M 33.403125 306.92 
L 33.403125 0 
" style="fill:none;stroke:#000000;stroke-linecap:square;stroke-linejoin:miter;stroke-width:0.8;"/>
   </g>
   <g id="patch_54">
    <path d="M 434.780101 306.92 
L 434.780101 0 
" style="fill:none;stroke:#000000;stroke-linecap:square;stroke-linejoin:miter;stroke-width:0.8;"/>
   </g>
   <g id="patch_55">
    <path d="M 33.403125 306.92 
L 434.780101 306.92 
" style="fill:none;stroke:#000000;stroke-linecap:square;stroke-linejoin:miter;stroke-width:0.8;"/>
   </g>
   <g id="patch_56">
    <path d="M 33.403125 0 
L 434.780101 0 
" style="fill:none;stroke:#000000;stroke-linecap:square;stroke-linejoin:miter;stroke-width:0.8;"/>
   </g>
   <g id="legend_1">
    <g id="patch_57">
     <path d="M 342.580101 22.678125 
L 427.780101 22.678125 
Q 429.780101 22.678125 429.780101 20.678125 
L 429.780101 7 
Q 429.780101 5 427.780101 5 
L 342.580101 5 
Q 340.580101 5 340.580101 7 
L 340.580101 20.678125 
Q 340.580101 22.678125 342.580101 22.678125 
z
" style="fill:#ffffff;opacity:0.8;stroke:#cccccc;stroke-linejoin:miter;"/>
    </g>
    <g id="line2d_17">
     <path d="M 344.580101 13.098438 
L 364.580101 13.098438 
" style="fill:none;stroke:#e5d8bd;stroke-dasharray:3.7,1.6;stroke-dashoffset:0;"/>
    </g>
    <g id="line2d_18"/>
    <g id="text_17">
     <!-- $\bar{x}=0.0255$ -->
     <g transform="translate(372.580101 16.598438)scale(0.1 -0.1)">
      <defs>
       <path d="M -2522 4769 
L -653 4769 
L -653 4306 
L -2522 4306 
L -2522 4769 
z
" id="DejaVuSans-304" transform="scale(0.015625)"/>
       <path d="M 3841 3500 
L 2234 1784 
L 3219 0 
L 2559 0 
L 1819 1388 
L 531 0 
L -166 0 
L 1556 1844 
L 641 3500 
L 1300 3500 
L 1972 2234 
L 3144 3500 
L 3841 3500 
z
" id="DejaVuSans-Oblique-78" transform="scale(0.015625)"/>
       <path d="M 678 2906 
L 4684 2906 
L 4684 2381 
L 678 2381 
L 678 2906 
z
M 678 1631 
L 4684 1631 
L 4684 1100 
L 678 1100 
L 678 1631 
z
" id="DejaVuSans-3d" transform="scale(0.015625)"/>
      </defs>
      <use transform="translate(62.201172 0.484375)" xlink:href="#DejaVuSans-304"/>
      <use transform="translate(0 0.578125)" xlink:href="#DejaVuSans-Oblique-78"/>
      <use transform="translate(78.662109 0.578125)" xlink:href="#DejaVuSans-3d"/>
      <use transform="translate(181.933594 0.578125)" xlink:href="#DejaVuSans-30"/>
      <use transform="translate(245.556641 0.578125)" xlink:href="#DejaVuSans-2e"/>
      <use transform="translate(277.34375 0.578125)" xlink:href="#DejaVuSans-30"/>
      <use transform="translate(340.966797 0.578125)" xlink:href="#DejaVuSans-32"/>
      <use transform="translate(404.589844 0.578125)" xlink:href="#DejaVuSans-35"/>
      <use transform="translate(468.212891 0.578125)" xlink:href="#DejaVuSans-35"/>
     </g>
    </g>
   </g>
  </g>
 </g>
 <defs>
  <clipPath id="p0fbca8b468">
   <rect height="306.92" width="401.376976" x="33.403125" y="0"/>
  </clipPath>
 </defs>
</svg>
