<?xml version="1.0" encoding="utf-8" standalone="no"?>
<!DOCTYPE svg PUBLIC "-//W3C//DTD SVG 1.1//EN"
  "http://www.w3.org/Graphics/SVG/1.1/DTD/svg11.dtd">
<svg height="323.146397pt" version="1.1" viewBox="0 0 438.633125 323.146397" width="438.633125pt" xmlns="http://www.w3.org/2000/svg" xmlns:xlink="http://www.w3.org/1999/xlink">
 <metadata>
  <rdf:RDF xmlns:cc="http://creativecommons.org/ns#" xmlns:dc="http://purl.org/dc/elements/1.1/" xmlns:rdf="http://www.w3.org/1999/02/22-rdf-syntax-ns#">
   <cc:Work>
    <dc:type rdf:resource="http://purl.org/dc/dcmitype/StillImage"/>
    <dc:date>2022-01-12T14:44:26.696046</dc:date>
    <dc:format>image/svg+xml</dc:format>
    <dc:creator>
     <cc:Agent>
      <dc:title>Matplotlib v3.4.3, https://matplotlib.org/</dc:title>
     </cc:Agent>
    </dc:creator>
   </cc:Work>
  </rdf:RDF>
 </metadata>
 <defs>
  <style type="text/css">*{stroke-linecap:butt;stroke-linejoin:round;}</style>
 </defs>
 <g id="figure_1">
  <g id="patch_1">
   <path d="M 0 323.146397 
L 438.633125 323.146397 
L 438.633125 0 
L 0 0 
z
" style="fill:#ffffff;"/>
  </g>
  <g id="axes_1">
   <g id="patch_2">
    <path d="M 58.853125 306.468272 
L 438.633125 306.468272 
L 438.633125 1.514919 
L 58.853125 1.514919 
z
" style="fill:#ffffff;"/>
   </g>
   <g id="patch_3">
    <path clip-path="url(#p7bde37b918)" d="M 76.115852 306.468272 
L 83.020943 306.468272 
L 83.020943 16.036507 
L 76.115852 16.036507 
z
" style="fill:#ce6dbd;stroke:#b18aaa;stroke-linejoin:miter;"/>
   </g>
   <g id="patch_4">
    <path clip-path="url(#p7bde37b918)" d="M 83.020943 306.468272 
L 89.926034 306.468272 
L 89.926034 245.418032 
L 83.020943 245.418032 
z
" style="fill:#ce6dbd;stroke:#b18aaa;stroke-linejoin:miter;"/>
   </g>
   <g id="patch_5">
    <path clip-path="url(#p7bde37b918)" d="M 89.926034 306.468272 
L 96.831125 306.468272 
L 96.831125 273.138734 
L 89.926034 273.138734 
z
" style="fill:#ce6dbd;stroke:#b18aaa;stroke-linejoin:miter;"/>
   </g>
   <g id="patch_6">
    <path clip-path="url(#p7bde37b918)" d="M 96.831125 306.468272 
L 103.736216 306.468272 
L 103.736216 289.278561 
L 96.831125 289.278561 
z
" style="fill:#ce6dbd;stroke:#b18aaa;stroke-linejoin:miter;"/>
   </g>
   <g id="patch_7">
    <path clip-path="url(#p7bde37b918)" d="M 103.736216 306.468272 
L 110.641307 306.468272 
L 110.641307 294.60932 
L 103.736216 294.60932 
z
" style="fill:#ce6dbd;stroke:#b18aaa;stroke-linejoin:miter;"/>
   </g>
   <g id="patch_8">
    <path clip-path="url(#p7bde37b918)" d="M 110.641307 306.468272 
L 117.546398 306.468272 
L 117.546398 296.007272 
L 110.641307 296.007272 
z
" style="fill:#ce6dbd;stroke:#b18aaa;stroke-linejoin:miter;"/>
   </g>
   <g id="patch_9">
    <path clip-path="url(#p7bde37b918)" d="M 117.546398 306.468272 
L 124.451489 306.468272 
L 124.451489 299.535259 
L 117.546398 299.535259 
z
" style="fill:#ce6dbd;stroke:#b18aaa;stroke-linejoin:miter;"/>
   </g>
   <g id="patch_10">
    <path clip-path="url(#p7bde37b918)" d="M 124.451489 306.468272 
L 131.35658 306.468272 
L 131.35658 300.861327 
L 124.451489 300.861327 
z
" style="fill:#ce6dbd;stroke:#b18aaa;stroke-linejoin:miter;"/>
   </g>
   <g id="patch_11">
    <path clip-path="url(#p7bde37b918)" d="M 131.35658 306.468272 
L 138.26167 306.468272 
L 138.26167 300.60595 
L 131.35658 300.60595 
z
" style="fill:#ce6dbd;stroke:#b18aaa;stroke-linejoin:miter;"/>
   </g>
   <g id="patch_12">
    <path clip-path="url(#p7bde37b918)" d="M 138.26167 306.468272 
L 145.166761 306.468272 
L 145.166761 302.007686 
L 138.26167 302.007686 
z
" style="fill:#ce6dbd;stroke:#b18aaa;stroke-linejoin:miter;"/>
   </g>
   <g id="patch_13">
    <path clip-path="url(#p7bde37b918)" d="M 145.166761 306.468272 
L 152.071852 306.468272 
L 152.071852 302.374673 
L 145.166761 302.374673 
z
" style="fill:#ce6dbd;stroke:#b18aaa;stroke-linejoin:miter;"/>
   </g>
   <g id="patch_14">
    <path clip-path="url(#p7bde37b918)" d="M 152.071852 306.468272 
L 158.976943 306.468272 
L 158.976943 302.09092 
L 152.071852 302.09092 
z
" style="fill:#ce6dbd;stroke:#b18aaa;stroke-linejoin:miter;"/>
   </g>
   <g id="patch_15">
    <path clip-path="url(#p7bde37b918)" d="M 158.976943 306.468272 
L 165.882034 306.468272 
L 165.882034 303.273221 
L 158.976943 303.273221 
z
" style="fill:#ce6dbd;stroke:#b18aaa;stroke-linejoin:miter;"/>
   </g>
   <g id="patch_16">
    <path clip-path="url(#p7bde37b918)" d="M 165.882034 306.468272 
L 172.787125 306.468272 
L 172.787125 303.53049 
L 165.882034 303.53049 
z
" style="fill:#ce6dbd;stroke:#b18aaa;stroke-linejoin:miter;"/>
   </g>
   <g id="patch_17">
    <path clip-path="url(#p7bde37b918)" d="M 172.787125 306.468272 
L 179.692216 306.468272 
L 179.692216 303.7102 
L 172.787125 303.7102 
z
" style="fill:#ce6dbd;stroke:#b18aaa;stroke-linejoin:miter;"/>
   </g>
   <g id="patch_18">
    <path clip-path="url(#p7bde37b918)" d="M 179.692216 306.468272 
L 186.597307 306.468272 
L 186.597307 304.177445 
L 179.692216 304.177445 
z
" style="fill:#ce6dbd;stroke:#b18aaa;stroke-linejoin:miter;"/>
   </g>
   <g id="patch_19">
    <path clip-path="url(#p7bde37b918)" d="M 186.597307 306.468272 
L 193.502398 306.468272 
L 193.502398 303.833159 
L 186.597307 303.833159 
z
" style="fill:#ce6dbd;stroke:#b18aaa;stroke-linejoin:miter;"/>
   </g>
   <g id="patch_20">
    <path clip-path="url(#p7bde37b918)" d="M 193.502398 306.468272 
L 200.407489 306.468272 
L 200.407489 304.270138 
L 193.502398 304.270138 
z
" style="fill:#ce6dbd;stroke:#b18aaa;stroke-linejoin:miter;"/>
   </g>
   <g id="patch_21">
    <path clip-path="url(#p7bde37b918)" d="M 200.407489 306.468272 
L 207.31258 306.468272 
L 207.31258 304.474439 
L 200.407489 304.474439 
z
" style="fill:#ce6dbd;stroke:#b18aaa;stroke-linejoin:miter;"/>
   </g>
   <g id="patch_22">
    <path clip-path="url(#p7bde37b918)" d="M 207.31258 306.468272 
L 214.21767 306.468272 
L 214.21767 304.173662 
L 207.31258 304.173662 
z
" style="fill:#ce6dbd;stroke:#b18aaa;stroke-linejoin:miter;"/>
   </g>
   <g id="patch_23">
    <path clip-path="url(#p7bde37b918)" d="M 214.21767 306.468272 
L 221.122761 306.468272 
L 221.122761 304.640907 
L 214.21767 304.640907 
z
" style="fill:#ce6dbd;stroke:#b18aaa;stroke-linejoin:miter;"/>
   </g>
   <g id="patch_24">
    <path clip-path="url(#p7bde37b918)" d="M 221.122761 306.468272 
L 228.027852 306.468272 
L 228.027852 304.724141 
L 221.122761 304.724141 
z
" style="fill:#ce6dbd;stroke:#b18aaa;stroke-linejoin:miter;"/>
   </g>
   <g id="patch_25">
    <path clip-path="url(#p7bde37b918)" d="M 228.027852 306.468272 
L 234.932943 306.468272 
L 234.932943 304.500923 
L 228.027852 304.500923 
z
" style="fill:#ce6dbd;stroke:#b18aaa;stroke-linejoin:miter;"/>
   </g>
   <g id="patch_26">
    <path clip-path="url(#p7bde37b918)" d="M 234.932943 306.468272 
L 241.838034 306.468272 
L 241.838034 304.864126 
L 234.932943 304.864126 
z
" style="fill:#ce6dbd;stroke:#b18aaa;stroke-linejoin:miter;"/>
   </g>
   <g id="patch_27">
    <path clip-path="url(#p7bde37b918)" d="M 241.838034 306.468272 
L 248.743125 306.468272 
L 248.743125 304.873584 
L 241.838034 304.873584 
z
" style="fill:#ce6dbd;stroke:#b18aaa;stroke-linejoin:miter;"/>
   </g>
   <g id="patch_28">
    <path clip-path="url(#p7bde37b918)" d="M 248.743125 306.468272 
L 255.648216 306.468272 
L 255.648216 304.678741 
L 248.743125 304.678741 
z
" style="fill:#ce6dbd;stroke:#b18aaa;stroke-linejoin:miter;"/>
   </g>
   <g id="patch_29">
    <path clip-path="url(#p7bde37b918)" d="M 255.648216 306.468272 
L 262.553307 306.468272 
L 262.553307 305.134636 
L 255.648216 305.134636 
z
" style="fill:#ce6dbd;stroke:#b18aaa;stroke-linejoin:miter;"/>
   </g>
   <g id="patch_30">
    <path clip-path="url(#p7bde37b918)" d="M 262.553307 306.468272 
L 269.458398 306.468272 
L 269.458398 304.826292 
L 262.553307 304.826292 
z
" style="fill:#ce6dbd;stroke:#b18aaa;stroke-linejoin:miter;"/>
   </g>
   <g id="patch_31">
    <path clip-path="url(#p7bde37b918)" d="M 269.458398 306.468272 
L 276.363489 306.468272 
L 276.363489 304.939793 
L 269.458398 304.939793 
z
" style="fill:#ce6dbd;stroke:#b18aaa;stroke-linejoin:miter;"/>
   </g>
   <g id="patch_32">
    <path clip-path="url(#p7bde37b918)" d="M 276.363489 306.468272 
L 283.26858 306.468272 
L 283.26858 305.134636 
L 276.363489 305.134636 
z
" style="fill:#ce6dbd;stroke:#b18aaa;stroke-linejoin:miter;"/>
   </g>
   <g id="patch_33">
    <path clip-path="url(#p7bde37b918)" d="M 283.26858 306.468272 
L 290.17367 306.468272 
L 290.17367 304.915201 
L 283.26858 304.915201 
z
" style="fill:#ce6dbd;stroke:#b18aaa;stroke-linejoin:miter;"/>
   </g>
   <g id="patch_34">
    <path clip-path="url(#p7bde37b918)" d="M 290.17367 306.468272 
L 297.078761 306.468272 
L 297.078761 305.204628 
L 290.17367 305.204628 
z
" style="fill:#ce6dbd;stroke:#b18aaa;stroke-linejoin:miter;"/>
   </g>
   <g id="patch_35">
    <path clip-path="url(#p7bde37b918)" d="M 297.078761 306.468272 
L 303.983852 306.468272 
L 303.983852 305.127069 
L 297.078761 305.127069 
z
" style="fill:#ce6dbd;stroke:#b18aaa;stroke-linejoin:miter;"/>
   </g>
   <g id="patch_36">
    <path clip-path="url(#p7bde37b918)" d="M 303.983852 306.468272 
L 310.888943 306.468272 
L 310.888943 304.954926 
L 303.983852 304.954926 
z
" style="fill:#ce6dbd;stroke:#b18aaa;stroke-linejoin:miter;"/>
   </g>
   <g id="patch_37">
    <path clip-path="url(#p7bde37b918)" d="M 310.888943 306.468272 
L 317.794034 306.468272 
L 317.794034 305.185711 
L 310.888943 305.185711 
z
" style="fill:#ce6dbd;stroke:#b18aaa;stroke-linejoin:miter;"/>
   </g>
   <g id="patch_38">
    <path clip-path="url(#p7bde37b918)" d="M 317.794034 306.468272 
L 324.699125 306.468272 
L 324.699125 305.115719 
L 317.794034 305.115719 
z
" style="fill:#ce6dbd;stroke:#b18aaa;stroke-linejoin:miter;"/>
   </g>
   <g id="patch_39">
    <path clip-path="url(#p7bde37b918)" d="M 324.699125 306.468272 
L 331.604216 306.468272 
L 331.604216 304.996543 
L 324.699125 304.996543 
z
" style="fill:#ce6dbd;stroke:#b18aaa;stroke-linejoin:miter;"/>
   </g>
   <g id="patch_40">
    <path clip-path="url(#p7bde37b918)" d="M 331.604216 306.468272 
L 338.509307 306.468272 
L 338.509307 305.210303 
L 331.604216 305.210303 
z
" style="fill:#ce6dbd;stroke:#b18aaa;stroke-linejoin:miter;"/>
   </g>
   <g id="patch_41">
    <path clip-path="url(#p7bde37b918)" d="M 338.509307 306.468272 
L 345.414398 306.468272 
L 345.414398 304.892501 
L 338.509307 304.892501 
z
" style="fill:#ce6dbd;stroke:#b18aaa;stroke-linejoin:miter;"/>
   </g>
   <g id="patch_42">
    <path clip-path="url(#p7bde37b918)" d="M 345.414398 306.468272 
L 352.319489 306.468272 
L 352.319489 305.168686 
L 345.414398 305.168686 
z
" style="fill:#ce6dbd;stroke:#b18aaa;stroke-linejoin:miter;"/>
   </g>
   <g id="patch_43">
    <path clip-path="url(#p7bde37b918)" d="M 352.319489 306.468272 
L 359.22458 306.468272 
L 359.22458 305.075994 
L 352.319489 305.075994 
z
" style="fill:#ce6dbd;stroke:#b18aaa;stroke-linejoin:miter;"/>
   </g>
   <g id="patch_44">
    <path clip-path="url(#p7bde37b918)" d="M 359.22458 306.468272 
L 366.12967 306.468272 
L 366.12967 304.659824 
L 359.22458 304.659824 
z
" style="fill:#ce6dbd;stroke:#b18aaa;stroke-linejoin:miter;"/>
   </g>
   <g id="patch_45">
    <path clip-path="url(#p7bde37b918)" d="M 366.12967 306.468272 
L 373.034761 306.468272 
L 373.034761 304.996543 
L 366.12967 304.996543 
z
" style="fill:#ce6dbd;stroke:#b18aaa;stroke-linejoin:miter;"/>
   </g>
   <g id="patch_46">
    <path clip-path="url(#p7bde37b918)" d="M 373.034761 306.468272 
L 379.939852 306.468272 
L 379.939852 305.219762 
L 373.034761 305.219762 
z
" style="fill:#ce6dbd;stroke:#b18aaa;stroke-linejoin:miter;"/>
   </g>
   <g id="patch_47">
    <path clip-path="url(#p7bde37b918)" d="M 379.939852 306.468272 
L 386.844943 306.468272 
L 386.844943 305.734299 
L 379.939852 305.734299 
z
" style="fill:#ce6dbd;stroke:#b18aaa;stroke-linejoin:miter;"/>
   </g>
   <g id="patch_48">
    <path clip-path="url(#p7bde37b918)" d="M 386.844943 306.468272 
L 393.750034 306.468272 
L 393.750034 306.250728 
L 386.844943 306.250728 
z
" style="fill:#ce6dbd;stroke:#b18aaa;stroke-linejoin:miter;"/>
   </g>
   <g id="patch_49">
    <path clip-path="url(#p7bde37b918)" d="M 393.750034 306.468272 
L 400.655125 306.468272 
L 400.655125 306.358554 
L 393.750034 306.358554 
z
" style="fill:#ce6dbd;stroke:#b18aaa;stroke-linejoin:miter;"/>
   </g>
   <g id="patch_50">
    <path clip-path="url(#p7bde37b918)" d="M 400.655125 306.468272 
L 407.560216 306.468272 
L 407.560216 306.375579 
L 400.655125 306.375579 
z
" style="fill:#ce6dbd;stroke:#b18aaa;stroke-linejoin:miter;"/>
   </g>
   <g id="patch_51">
    <path clip-path="url(#p7bde37b918)" d="M 407.560216 306.468272 
L 414.465307 306.468272 
L 414.465307 306.398279 
L 407.560216 306.398279 
z
" style="fill:#ce6dbd;stroke:#b18aaa;stroke-linejoin:miter;"/>
   </g>
   <g id="patch_52">
    <path clip-path="url(#p7bde37b918)" d="M 414.465307 306.468272 
L 421.370398 306.468272 
L 421.370398 306.350987 
L 414.465307 306.350987 
z
" style="fill:#ce6dbd;stroke:#b18aaa;stroke-linejoin:miter;"/>
   </g>
   <g id="matplotlib.axis_1">
    <g id="xtick_1">
     <g id="line2d_1">
      <defs>
       <path d="M 0 0 
L 0 3.5 
" id="md90f40b936" style="stroke:#000000;stroke-width:0.8;"/>
      </defs>
      <g>
       <use style="stroke:#000000;stroke-width:0.8;" x="76.115852" xlink:href="#md90f40b936" y="306.468272"/>
      </g>
     </g>
     <g id="text_1">
      <!-- 0.0 -->
      <g transform="translate(68.16429 321.066709)scale(0.1 -0.1)">
       <defs>
        <path d="M 2034 4250 
Q 1547 4250 1301 3770 
Q 1056 3291 1056 2328 
Q 1056 1369 1301 889 
Q 1547 409 2034 409 
Q 2525 409 2770 889 
Q 3016 1369 3016 2328 
Q 3016 3291 2770 3770 
Q 2525 4250 2034 4250 
z
M 2034 4750 
Q 2819 4750 3233 4129 
Q 3647 3509 3647 2328 
Q 3647 1150 3233 529 
Q 2819 -91 2034 -91 
Q 1250 -91 836 529 
Q 422 1150 422 2328 
Q 422 3509 836 4129 
Q 1250 4750 2034 4750 
z
" id="DejaVuSans-30" transform="scale(0.015625)"/>
        <path d="M 684 794 
L 1344 794 
L 1344 0 
L 684 0 
L 684 794 
z
" id="DejaVuSans-2e" transform="scale(0.015625)"/>
       </defs>
       <use xlink:href="#DejaVuSans-30"/>
       <use x="63.623047" xlink:href="#DejaVuSans-2e"/>
       <use x="95.410156" xlink:href="#DejaVuSans-30"/>
      </g>
     </g>
    </g>
    <g id="xtick_2">
     <g id="line2d_2">
      <g>
       <use style="stroke:#000000;stroke-width:0.8;" x="145.166761" xlink:href="#md90f40b936" y="306.468272"/>
      </g>
     </g>
     <g id="text_2">
      <!-- 0.2 -->
      <g transform="translate(137.215199 321.066709)scale(0.1 -0.1)">
       <defs>
        <path d="M 1228 531 
L 3431 531 
L 3431 0 
L 469 0 
L 469 531 
Q 828 903 1448 1529 
Q 2069 2156 2228 2338 
Q 2531 2678 2651 2914 
Q 2772 3150 2772 3378 
Q 2772 3750 2511 3984 
Q 2250 4219 1831 4219 
Q 1534 4219 1204 4116 
Q 875 4013 500 3803 
L 500 4441 
Q 881 4594 1212 4672 
Q 1544 4750 1819 4750 
Q 2544 4750 2975 4387 
Q 3406 4025 3406 3419 
Q 3406 3131 3298 2873 
Q 3191 2616 2906 2266 
Q 2828 2175 2409 1742 
Q 1991 1309 1228 531 
z
" id="DejaVuSans-32" transform="scale(0.015625)"/>
       </defs>
       <use xlink:href="#DejaVuSans-30"/>
       <use x="63.623047" xlink:href="#DejaVuSans-2e"/>
       <use x="95.410156" xlink:href="#DejaVuSans-32"/>
      </g>
     </g>
    </g>
    <g id="xtick_3">
     <g id="line2d_3">
      <g>
       <use style="stroke:#000000;stroke-width:0.8;" x="214.21767" xlink:href="#md90f40b936" y="306.468272"/>
      </g>
     </g>
     <g id="text_3">
      <!-- 0.4 -->
      <g transform="translate(206.266108 321.066709)scale(0.1 -0.1)">
       <defs>
        <path d="M 2419 4116 
L 825 1625 
L 2419 1625 
L 2419 4116 
z
M 2253 4666 
L 3047 4666 
L 3047 1625 
L 3713 1625 
L 3713 1100 
L 3047 1100 
L 3047 0 
L 2419 0 
L 2419 1100 
L 313 1100 
L 313 1709 
L 2253 4666 
z
" id="DejaVuSans-34" transform="scale(0.015625)"/>
       </defs>
       <use xlink:href="#DejaVuSans-30"/>
       <use x="63.623047" xlink:href="#DejaVuSans-2e"/>
       <use x="95.410156" xlink:href="#DejaVuSans-34"/>
      </g>
     </g>
    </g>
    <g id="xtick_4">
     <g id="line2d_4">
      <g>
       <use style="stroke:#000000;stroke-width:0.8;" x="283.26858" xlink:href="#md90f40b936" y="306.468272"/>
      </g>
     </g>
     <g id="text_4">
      <!-- 0.6 -->
      <g transform="translate(275.317017 321.066709)scale(0.1 -0.1)">
       <defs>
        <path d="M 2113 2584 
Q 1688 2584 1439 2293 
Q 1191 2003 1191 1497 
Q 1191 994 1439 701 
Q 1688 409 2113 409 
Q 2538 409 2786 701 
Q 3034 994 3034 1497 
Q 3034 2003 2786 2293 
Q 2538 2584 2113 2584 
z
M 3366 4563 
L 3366 3988 
Q 3128 4100 2886 4159 
Q 2644 4219 2406 4219 
Q 1781 4219 1451 3797 
Q 1122 3375 1075 2522 
Q 1259 2794 1537 2939 
Q 1816 3084 2150 3084 
Q 2853 3084 3261 2657 
Q 3669 2231 3669 1497 
Q 3669 778 3244 343 
Q 2819 -91 2113 -91 
Q 1303 -91 875 529 
Q 447 1150 447 2328 
Q 447 3434 972 4092 
Q 1497 4750 2381 4750 
Q 2619 4750 2861 4703 
Q 3103 4656 3366 4563 
z
" id="DejaVuSans-36" transform="scale(0.015625)"/>
       </defs>
       <use xlink:href="#DejaVuSans-30"/>
       <use x="63.623047" xlink:href="#DejaVuSans-2e"/>
       <use x="95.410156" xlink:href="#DejaVuSans-36"/>
      </g>
     </g>
    </g>
    <g id="xtick_5">
     <g id="line2d_5">
      <g>
       <use style="stroke:#000000;stroke-width:0.8;" x="352.319489" xlink:href="#md90f40b936" y="306.468272"/>
      </g>
     </g>
     <g id="text_5">
      <!-- 0.8 -->
      <g transform="translate(344.367926 321.066709)scale(0.1 -0.1)">
       <defs>
        <path d="M 2034 2216 
Q 1584 2216 1326 1975 
Q 1069 1734 1069 1313 
Q 1069 891 1326 650 
Q 1584 409 2034 409 
Q 2484 409 2743 651 
Q 3003 894 3003 1313 
Q 3003 1734 2745 1975 
Q 2488 2216 2034 2216 
z
M 1403 2484 
Q 997 2584 770 2862 
Q 544 3141 544 3541 
Q 544 4100 942 4425 
Q 1341 4750 2034 4750 
Q 2731 4750 3128 4425 
Q 3525 4100 3525 3541 
Q 3525 3141 3298 2862 
Q 3072 2584 2669 2484 
Q 3125 2378 3379 2068 
Q 3634 1759 3634 1313 
Q 3634 634 3220 271 
Q 2806 -91 2034 -91 
Q 1263 -91 848 271 
Q 434 634 434 1313 
Q 434 1759 690 2068 
Q 947 2378 1403 2484 
z
M 1172 3481 
Q 1172 3119 1398 2916 
Q 1625 2713 2034 2713 
Q 2441 2713 2670 2916 
Q 2900 3119 2900 3481 
Q 2900 3844 2670 4047 
Q 2441 4250 2034 4250 
Q 1625 4250 1398 4047 
Q 1172 3844 1172 3481 
z
" id="DejaVuSans-38" transform="scale(0.015625)"/>
       </defs>
       <use xlink:href="#DejaVuSans-30"/>
       <use x="63.623047" xlink:href="#DejaVuSans-2e"/>
       <use x="95.410156" xlink:href="#DejaVuSans-38"/>
      </g>
     </g>
    </g>
    <g id="xtick_6">
     <g id="line2d_6">
      <g>
       <use style="stroke:#000000;stroke-width:0.8;" x="421.370398" xlink:href="#md90f40b936" y="306.468272"/>
      </g>
     </g>
     <g id="text_6">
      <!-- 1.0 -->
      <g transform="translate(413.418835 321.066709)scale(0.1 -0.1)">
       <defs>
        <path d="M 794 531 
L 1825 531 
L 1825 4091 
L 703 3866 
L 703 4441 
L 1819 4666 
L 2450 4666 
L 2450 531 
L 3481 531 
L 3481 0 
L 794 0 
L 794 531 
z
" id="DejaVuSans-31" transform="scale(0.015625)"/>
       </defs>
       <use xlink:href="#DejaVuSans-31"/>
       <use x="63.623047" xlink:href="#DejaVuSans-2e"/>
       <use x="95.410156" xlink:href="#DejaVuSans-30"/>
      </g>
     </g>
    </g>
   </g>
   <g id="matplotlib.axis_2">
    <g id="ytick_1">
     <g id="line2d_7">
      <defs>
       <path d="M 0 0 
L -3.5 0 
" id="m403cfd65a1" style="stroke:#000000;stroke-width:0.8;"/>
      </defs>
      <g>
       <use style="stroke:#000000;stroke-width:0.8;" x="58.853125" xlink:href="#m403cfd65a1" y="306.468272"/>
      </g>
     </g>
     <g id="text_7">
      <!-- 0 -->
      <g transform="translate(45.490625 310.26749)scale(0.1 -0.1)">
       <use xlink:href="#DejaVuSans-30"/>
      </g>
     </g>
    </g>
    <g id="ytick_2">
     <g id="line2d_8">
      <g>
       <use style="stroke:#000000;stroke-width:0.8;" x="58.853125" xlink:href="#m403cfd65a1" y="268.63464"/>
      </g>
     </g>
     <g id="text_8">
      <!-- 20000 -->
      <g transform="translate(20.040625 272.433859)scale(0.1 -0.1)">
       <use xlink:href="#DejaVuSans-32"/>
       <use x="63.623047" xlink:href="#DejaVuSans-30"/>
       <use x="127.246094" xlink:href="#DejaVuSans-30"/>
       <use x="190.869141" xlink:href="#DejaVuSans-30"/>
       <use x="254.492188" xlink:href="#DejaVuSans-30"/>
      </g>
     </g>
    </g>
    <g id="ytick_3">
     <g id="line2d_9">
      <g>
       <use style="stroke:#000000;stroke-width:0.8;" x="58.853125" xlink:href="#m403cfd65a1" y="230.801008"/>
      </g>
     </g>
     <g id="text_9">
      <!-- 40000 -->
      <g transform="translate(20.040625 234.600227)scale(0.1 -0.1)">
       <use xlink:href="#DejaVuSans-34"/>
       <use x="63.623047" xlink:href="#DejaVuSans-30"/>
       <use x="127.246094" xlink:href="#DejaVuSans-30"/>
       <use x="190.869141" xlink:href="#DejaVuSans-30"/>
       <use x="254.492188" xlink:href="#DejaVuSans-30"/>
      </g>
     </g>
    </g>
    <g id="ytick_4">
     <g id="line2d_10">
      <g>
       <use style="stroke:#000000;stroke-width:0.8;" x="58.853125" xlink:href="#m403cfd65a1" y="192.967377"/>
      </g>
     </g>
     <g id="text_10">
      <!-- 60000 -->
      <g transform="translate(20.040625 196.766596)scale(0.1 -0.1)">
       <use xlink:href="#DejaVuSans-36"/>
       <use x="63.623047" xlink:href="#DejaVuSans-30"/>
       <use x="127.246094" xlink:href="#DejaVuSans-30"/>
       <use x="190.869141" xlink:href="#DejaVuSans-30"/>
       <use x="254.492188" xlink:href="#DejaVuSans-30"/>
      </g>
     </g>
    </g>
    <g id="ytick_5">
     <g id="line2d_11">
      <g>
       <use style="stroke:#000000;stroke-width:0.8;" x="58.853125" xlink:href="#m403cfd65a1" y="155.133745"/>
      </g>
     </g>
     <g id="text_11">
      <!-- 80000 -->
      <g transform="translate(20.040625 158.932964)scale(0.1 -0.1)">
       <use xlink:href="#DejaVuSans-38"/>
       <use x="63.623047" xlink:href="#DejaVuSans-30"/>
       <use x="127.246094" xlink:href="#DejaVuSans-30"/>
       <use x="190.869141" xlink:href="#DejaVuSans-30"/>
       <use x="254.492188" xlink:href="#DejaVuSans-30"/>
      </g>
     </g>
    </g>
    <g id="ytick_6">
     <g id="line2d_12">
      <g>
       <use style="stroke:#000000;stroke-width:0.8;" x="58.853125" xlink:href="#m403cfd65a1" y="117.300114"/>
      </g>
     </g>
     <g id="text_12">
      <!-- 100000 -->
      <g transform="translate(13.678125 121.099332)scale(0.1 -0.1)">
       <use xlink:href="#DejaVuSans-31"/>
       <use x="63.623047" xlink:href="#DejaVuSans-30"/>
       <use x="127.246094" xlink:href="#DejaVuSans-30"/>
       <use x="190.869141" xlink:href="#DejaVuSans-30"/>
       <use x="254.492188" xlink:href="#DejaVuSans-30"/>
       <use x="318.115234" xlink:href="#DejaVuSans-30"/>
      </g>
     </g>
    </g>
    <g id="ytick_7">
     <g id="line2d_13">
      <g>
       <use style="stroke:#000000;stroke-width:0.8;" x="58.853125" xlink:href="#m403cfd65a1" y="79.466482"/>
      </g>
     </g>
     <g id="text_13">
      <!-- 120000 -->
      <g transform="translate(13.678125 83.265701)scale(0.1 -0.1)">
       <use xlink:href="#DejaVuSans-31"/>
       <use x="63.623047" xlink:href="#DejaVuSans-32"/>
       <use x="127.246094" xlink:href="#DejaVuSans-30"/>
       <use x="190.869141" xlink:href="#DejaVuSans-30"/>
       <use x="254.492188" xlink:href="#DejaVuSans-30"/>
       <use x="318.115234" xlink:href="#DejaVuSans-30"/>
      </g>
     </g>
    </g>
    <g id="ytick_8">
     <g id="line2d_14">
      <g>
       <use style="stroke:#000000;stroke-width:0.8;" x="58.853125" xlink:href="#m403cfd65a1" y="41.63285"/>
      </g>
     </g>
     <g id="text_14">
      <!-- 140000 -->
      <g transform="translate(13.678125 45.432069)scale(0.1 -0.1)">
       <use xlink:href="#DejaVuSans-31"/>
       <use x="63.623047" xlink:href="#DejaVuSans-34"/>
       <use x="127.246094" xlink:href="#DejaVuSans-30"/>
       <use x="190.869141" xlink:href="#DejaVuSans-30"/>
       <use x="254.492188" xlink:href="#DejaVuSans-30"/>
       <use x="318.115234" xlink:href="#DejaVuSans-30"/>
      </g>
     </g>
    </g>
    <g id="ytick_9">
     <g id="line2d_15">
      <g>
       <use style="stroke:#000000;stroke-width:0.8;" x="58.853125" xlink:href="#m403cfd65a1" y="3.799219"/>
      </g>
     </g>
     <g id="text_15">
      <!-- 160000 -->
      <g transform="translate(13.678125 7.598438)scale(0.1 -0.1)">
       <use xlink:href="#DejaVuSans-31"/>
       <use x="63.623047" xlink:href="#DejaVuSans-36"/>
       <use x="127.246094" xlink:href="#DejaVuSans-30"/>
       <use x="190.869141" xlink:href="#DejaVuSans-30"/>
       <use x="254.492188" xlink:href="#DejaVuSans-30"/>
       <use x="318.115234" xlink:href="#DejaVuSans-30"/>
      </g>
     </g>
    </g>
    <g id="text_16">
     <!-- n SNPs -->
     <g transform="translate(7.598437 171.196283)rotate(-90)scale(0.1 -0.1)">
      <defs>
       <path d="M 3513 2113 
L 3513 0 
L 2938 0 
L 2938 2094 
Q 2938 2591 2744 2837 
Q 2550 3084 2163 3084 
Q 1697 3084 1428 2787 
Q 1159 2491 1159 1978 
L 1159 0 
L 581 0 
L 581 3500 
L 1159 3500 
L 1159 2956 
Q 1366 3272 1645 3428 
Q 1925 3584 2291 3584 
Q 2894 3584 3203 3211 
Q 3513 2838 3513 2113 
z
" id="DejaVuSans-6e" transform="scale(0.015625)"/>
       <path id="DejaVuSans-20" transform="scale(0.015625)"/>
       <path d="M 3425 4513 
L 3425 3897 
Q 3066 4069 2747 4153 
Q 2428 4238 2131 4238 
Q 1616 4238 1336 4038 
Q 1056 3838 1056 3469 
Q 1056 3159 1242 3001 
Q 1428 2844 1947 2747 
L 2328 2669 
Q 3034 2534 3370 2195 
Q 3706 1856 3706 1288 
Q 3706 609 3251 259 
Q 2797 -91 1919 -91 
Q 1588 -91 1214 -16 
Q 841 59 441 206 
L 441 856 
Q 825 641 1194 531 
Q 1563 422 1919 422 
Q 2459 422 2753 634 
Q 3047 847 3047 1241 
Q 3047 1584 2836 1778 
Q 2625 1972 2144 2069 
L 1759 2144 
Q 1053 2284 737 2584 
Q 422 2884 422 3419 
Q 422 4038 858 4394 
Q 1294 4750 2059 4750 
Q 2388 4750 2728 4690 
Q 3069 4631 3425 4513 
z
" id="DejaVuSans-53" transform="scale(0.015625)"/>
       <path d="M 628 4666 
L 1478 4666 
L 3547 763 
L 3547 4666 
L 4159 4666 
L 4159 0 
L 3309 0 
L 1241 3903 
L 1241 0 
L 628 0 
L 628 4666 
z
" id="DejaVuSans-4e" transform="scale(0.015625)"/>
       <path d="M 1259 4147 
L 1259 2394 
L 2053 2394 
Q 2494 2394 2734 2622 
Q 2975 2850 2975 3272 
Q 2975 3691 2734 3919 
Q 2494 4147 2053 4147 
L 1259 4147 
z
M 628 4666 
L 2053 4666 
Q 2838 4666 3239 4311 
Q 3641 3956 3641 3272 
Q 3641 2581 3239 2228 
Q 2838 1875 2053 1875 
L 1259 1875 
L 1259 0 
L 628 0 
L 628 4666 
z
" id="DejaVuSans-50" transform="scale(0.015625)"/>
       <path d="M 2834 3397 
L 2834 2853 
Q 2591 2978 2328 3040 
Q 2066 3103 1784 3103 
Q 1356 3103 1142 2972 
Q 928 2841 928 2578 
Q 928 2378 1081 2264 
Q 1234 2150 1697 2047 
L 1894 2003 
Q 2506 1872 2764 1633 
Q 3022 1394 3022 966 
Q 3022 478 2636 193 
Q 2250 -91 1575 -91 
Q 1294 -91 989 -36 
Q 684 19 347 128 
L 347 722 
Q 666 556 975 473 
Q 1284 391 1588 391 
Q 1994 391 2212 530 
Q 2431 669 2431 922 
Q 2431 1156 2273 1281 
Q 2116 1406 1581 1522 
L 1381 1569 
Q 847 1681 609 1914 
Q 372 2147 372 2553 
Q 372 3047 722 3315 
Q 1072 3584 1716 3584 
Q 2034 3584 2315 3537 
Q 2597 3491 2834 3397 
z
" id="DejaVuSans-73" transform="scale(0.015625)"/>
      </defs>
      <use xlink:href="#DejaVuSans-6e"/>
      <use x="63.378906" xlink:href="#DejaVuSans-20"/>
      <use x="95.166016" xlink:href="#DejaVuSans-53"/>
      <use x="158.642578" xlink:href="#DejaVuSans-4e"/>
      <use x="233.447266" xlink:href="#DejaVuSans-50"/>
      <use x="292" xlink:href="#DejaVuSans-73"/>
     </g>
    </g>
   </g>
   <g id="line2d_16">
    <path clip-path="url(#p7bde37b918)" d="M 106.362161 306.468272 
L 106.362161 1.514919 
" style="fill:none;stroke:#ce6dbd;stroke-dasharray:3.7,1.6;stroke-dashoffset:0;"/>
   </g>
   <g id="patch_53">
    <path d="M 58.853125 306.468272 
L 58.853125 1.514919 
" style="fill:none;stroke:#000000;stroke-linecap:square;stroke-linejoin:miter;stroke-width:0.8;"/>
   </g>
   <g id="patch_54">
    <path d="M 438.633125 306.468272 
L 438.633125 1.514919 
" style="fill:none;stroke:#000000;stroke-linecap:square;stroke-linejoin:miter;stroke-width:0.8;"/>
   </g>
   <g id="patch_55">
    <path d="M 58.853125 306.468272 
L 438.633125 306.468272 
" style="fill:none;stroke:#000000;stroke-linecap:square;stroke-linejoin:miter;stroke-width:0.8;"/>
   </g>
   <g id="patch_56">
    <path d="M 58.853125 1.514919 
L 438.633125 1.514919 
" style="fill:none;stroke:#000000;stroke-linecap:square;stroke-linejoin:miter;stroke-width:0.8;"/>
   </g>
   <g id="legend_1">
    <g id="patch_57">
     <path d="M 346.433125 24.193044 
L 431.633125 24.193044 
Q 433.633125 24.193044 433.633125 22.193044 
L 433.633125 8.514919 
Q 433.633125 6.514919 431.633125 6.514919 
L 346.433125 6.514919 
Q 344.433125 6.514919 344.433125 8.514919 
L 344.433125 22.193044 
Q 344.433125 24.193044 346.433125 24.193044 
z
" style="fill:#ffffff;opacity:0.8;stroke:#cccccc;stroke-linejoin:miter;"/>
    </g>
    <g id="line2d_17">
     <path d="M 348.433125 14.613356 
L 368.433125 14.613356 
" style="fill:none;stroke:#ce6dbd;stroke-dasharray:3.7,1.6;stroke-dashoffset:0;"/>
    </g>
    <g id="line2d_18"/>
    <g id="text_17">
     <!-- $\bar{x}=0.0876$ -->
     <g transform="translate(376.433125 18.113356)scale(0.1 -0.1)">
      <defs>
       <path d="M -2522 4769 
L -653 4769 
L -653 4306 
L -2522 4306 
L -2522 4769 
z
" id="DejaVuSans-304" transform="scale(0.015625)"/>
       <path d="M 3841 3500 
L 2234 1784 
L 3219 0 
L 2559 0 
L 1819 1388 
L 531 0 
L -166 0 
L 1556 1844 
L 641 3500 
L 1300 3500 
L 1972 2234 
L 3144 3500 
L 3841 3500 
z
" id="DejaVuSans-Oblique-78" transform="scale(0.015625)"/>
       <path d="M 678 2906 
L 4684 2906 
L 4684 2381 
L 678 2381 
L 678 2906 
z
M 678 1631 
L 4684 1631 
L 4684 1100 
L 678 1100 
L 678 1631 
z
" id="DejaVuSans-3d" transform="scale(0.015625)"/>
       <path d="M 525 4666 
L 3525 4666 
L 3525 4397 
L 1831 0 
L 1172 0 
L 2766 4134 
L 525 4134 
L 525 4666 
z
" id="DejaVuSans-37" transform="scale(0.015625)"/>
      </defs>
      <use transform="translate(62.201172 0.484375)" xlink:href="#DejaVuSans-304"/>
      <use transform="translate(0 0.578125)" xlink:href="#DejaVuSans-Oblique-78"/>
      <use transform="translate(78.662109 0.578125)" xlink:href="#DejaVuSans-3d"/>
      <use transform="translate(181.933594 0.578125)" xlink:href="#DejaVuSans-30"/>
      <use transform="translate(245.556641 0.578125)" xlink:href="#DejaVuSans-2e"/>
      <use transform="translate(277.34375 0.578125)" xlink:href="#DejaVuSans-30"/>
      <use transform="translate(340.966797 0.578125)" xlink:href="#DejaVuSans-38"/>
      <use transform="translate(404.589844 0.578125)" xlink:href="#DejaVuSans-37"/>
      <use transform="translate(468.212891 0.578125)" xlink:href="#DejaVuSans-36"/>
     </g>
    </g>
   </g>
  </g>
 </g>
 <defs>
  <clipPath id="p7bde37b918">
   <rect height="304.953353" width="379.78" x="58.853125" y="1.514919"/>
  </clipPath>
 </defs>
</svg>
