<?xml version="1.0" encoding="utf-8" standalone="no"?>
<!DOCTYPE svg PUBLIC "-//W3C//DTD SVG 1.1//EN"
  "http://www.w3.org/Graphics/SVG/1.1/DTD/svg11.dtd">
<svg height="282.790125pt" version="1.1" viewBox="0 0 285.837 282.790125" width="285.837pt" xmlns="http://www.w3.org/2000/svg" xmlns:xlink="http://www.w3.org/1999/xlink">
 <metadata>
  <rdf:RDF xmlns:cc="http://creativecommons.org/ns#" xmlns:dc="http://purl.org/dc/elements/1.1/" xmlns:rdf="http://www.w3.org/1999/02/22-rdf-syntax-ns#">
   <cc:Work>
    <dc:type rdf:resource="http://purl.org/dc/dcmitype/StillImage"/>
    <dc:date>2022-01-31T15:01:44.818635</dc:date>
    <dc:format>image/svg+xml</dc:format>
    <dc:creator>
     <cc:Agent>
      <dc:title>Matplotlib v3.4.3, https://matplotlib.org/</dc:title>
     </cc:Agent>
    </dc:creator>
   </cc:Work>
  </rdf:RDF>
 </metadata>
 <defs>
  <style type="text/css">*{stroke-linecap:butt;stroke-linejoin:round;}</style>
 </defs>
 <g id="figure_1">
  <g id="patch_1">
   <path d="M 0 282.790125 
L 285.837 282.790125 
L 285.837 0 
L 0 0 
z
" style="fill:#ffffff;"/>
  </g>
  <g id="axes_1">
   <g id="patch_2">
    <path d="M 19.725 266.112 
L 285.837 266.112 
L 285.837 0 
L 19.725 0 
z
" style="fill:#ffffff;"/>
   </g>
   <g id="PathCollection_1">
    <defs>
     <path d="M 0 3 
C 0.795609 3 1.55874 2.683901 2.12132 2.12132 
C 2.683901 1.55874 3 0.795609 3 -0 
C 3 -0.795609 2.683901 -1.55874 2.12132 -2.12132 
C 1.55874 -2.683901 0.795609 -3 0 -3 
C -0.795609 -3 -1.55874 -2.683901 -2.12132 -2.12132 
C -2.683901 -1.55874 -3 -0.795609 -3 0 
C -3 0.795609 -2.683901 1.55874 -2.12132 2.12132 
C -1.55874 2.683901 -0.795609 3 0 3 
z
" id="C0_0_6f2b246e2a"/>
    </defs>
    <g clip-path="url(#pec4d544ee6)">
     <use style="fill:#440154;stroke:#440154;" x="104.4331" xlink:href="#C0_0_6f2b246e2a" y="154.244847"/>
    </g>
    <g clip-path="url(#pec4d544ee6)">
     <use style="fill:#440154;stroke:#440154;" x="116.321126" xlink:href="#C0_0_6f2b246e2a" y="163.302382"/>
    </g>
    <g clip-path="url(#pec4d544ee6)">
     <use style="fill:#440154;stroke:#440154;" x="101.667463" xlink:href="#C0_0_6f2b246e2a" y="159.460066"/>
    </g>
    <g clip-path="url(#pec4d544ee6)">
     <use style="fill:#440154;stroke:#440154;" x="101.218953" xlink:href="#C0_0_6f2b246e2a" y="151.07818"/>
    </g>
    <g clip-path="url(#pec4d544ee6)">
     <use style="fill:#440154;stroke:#440154;" x="105.931681" xlink:href="#C0_0_6f2b246e2a" y="153.557473"/>
    </g>
    <g clip-path="url(#pec4d544ee6)">
     <use style="fill:#440154;stroke:#440154;" x="105.531815" xlink:href="#C0_0_6f2b246e2a" y="172.449834"/>
    </g>
    <g clip-path="url(#pec4d544ee6)">
     <use style="fill:#440154;stroke:#440154;" x="121.653104" xlink:href="#C0_0_6f2b246e2a" y="159.650326"/>
    </g>
    <g clip-path="url(#pec4d544ee6)">
     <use style="fill:#440154;stroke:#440154;" x="115.144253" xlink:href="#C0_0_6f2b246e2a" y="166.964951"/>
    </g>
    <g clip-path="url(#pec4d544ee6)">
     <use style="fill:#440154;stroke:#440154;" x="109.420636" xlink:href="#C0_0_6f2b246e2a" y="166.645268"/>
    </g>
    <g clip-path="url(#pec4d544ee6)">
     <use style="fill:#440154;stroke:#440154;" x="100.701181" xlink:href="#C0_0_6f2b246e2a" y="163.233042"/>
    </g>
    <g clip-path="url(#pec4d544ee6)">
     <use style="fill:#440154;stroke:#440154;" x="114.446571" xlink:href="#C0_0_6f2b246e2a" y="165.003215"/>
    </g>
    <g clip-path="url(#pec4d544ee6)">
     <use style="fill:#440154;stroke:#440154;" x="102.196852" xlink:href="#C0_0_6f2b246e2a" y="156.302067"/>
    </g>
    <g clip-path="url(#pec4d544ee6)">
     <use style="fill:#440154;stroke:#440154;" x="98.580495" xlink:href="#C0_0_6f2b246e2a" y="160.905799"/>
    </g>
    <g clip-path="url(#pec4d544ee6)">
     <use style="fill:#440154;stroke:#440154;" x="116.728839" xlink:href="#C0_0_6f2b246e2a" y="165.151763"/>
    </g>
    <g clip-path="url(#pec4d544ee6)">
     <use style="fill:#440154;stroke:#440154;" x="110.944008" xlink:href="#C0_0_6f2b246e2a" y="163.012133"/>
    </g>
    <g clip-path="url(#pec4d544ee6)">
     <use style="fill:#440154;stroke:#440154;" x="114.954575" xlink:href="#C0_0_6f2b246e2a" y="163.74389"/>
    </g>
    <g clip-path="url(#pec4d544ee6)">
     <use style="fill:#440154;stroke:#440154;" x="110.955863" xlink:href="#C0_0_6f2b246e2a" y="156.037721"/>
    </g>
    <g clip-path="url(#pec4d544ee6)">
     <use style="fill:#440154;stroke:#440154;" x="114.529368" xlink:href="#C0_0_6f2b246e2a" y="167.32224"/>
    </g>
    <g clip-path="url(#pec4d544ee6)">
     <use style="fill:#440154;stroke:#440154;" x="104.515798" xlink:href="#C0_0_6f2b246e2a" y="163.880737"/>
    </g>
    <g clip-path="url(#pec4d544ee6)">
     <use style="fill:#440154;stroke:#440154;" x="101.970878" xlink:href="#C0_0_6f2b246e2a" y="171.63179"/>
    </g>
    <g clip-path="url(#pec4d544ee6)">
     <use style="fill:#440154;stroke:#440154;" x="113.365637" xlink:href="#C0_0_6f2b246e2a" y="182.914029"/>
    </g>
    <g clip-path="url(#pec4d544ee6)">
     <use style="fill:#440154;stroke:#440154;" x="103.503826" xlink:href="#C0_0_6f2b246e2a" y="161.619162"/>
    </g>
    <g clip-path="url(#pec4d544ee6)">
     <use style="fill:#440154;stroke:#440154;" x="104.259961" xlink:href="#C0_0_6f2b246e2a" y="160.219137"/>
    </g>
    <g clip-path="url(#pec4d544ee6)">
     <use style="fill:#440154;stroke:#440154;" x="105.814054" xlink:href="#C0_0_6f2b246e2a" y="170.888465"/>
    </g>
    <g clip-path="url(#pec4d544ee6)">
     <use style="fill:#440154;stroke:#440154;" x="174.700514" xlink:href="#C0_0_6f2b246e2a" y="52.822091"/>
    </g>
    <g clip-path="url(#pec4d544ee6)">
     <use style="fill:#440154;stroke:#440154;" x="172.233587" xlink:href="#C0_0_6f2b246e2a" y="77.553719"/>
    </g>
    <g clip-path="url(#pec4d544ee6)">
     <use style="fill:#440154;stroke:#440154;" x="165.453479" xlink:href="#C0_0_6f2b246e2a" y="67.591497"/>
    </g>
    <g clip-path="url(#pec4d544ee6)">
     <use style="fill:#440154;stroke:#440154;" x="170.310211" xlink:href="#C0_0_6f2b246e2a" y="69.138451"/>
    </g>
    <g clip-path="url(#pec4d544ee6)">
     <use style="fill:#440154;stroke:#440154;" x="159.818968" xlink:href="#C0_0_6f2b246e2a" y="57.716294"/>
    </g>
    <g clip-path="url(#pec4d544ee6)">
     <use style="fill:#440154;stroke:#440154;" x="178.736556" xlink:href="#C0_0_6f2b246e2a" y="58.137465"/>
    </g>
    <g clip-path="url(#pec4d544ee6)">
     <use style="fill:#440154;stroke:#440154;" x="163.945281" xlink:href="#C0_0_6f2b246e2a" y="66.86638"/>
    </g>
    <g clip-path="url(#pec4d544ee6)">
     <use style="fill:#440154;stroke:#440154;" x="167.250302" xlink:href="#C0_0_6f2b246e2a" y="65.384024"/>
    </g>
    <g clip-path="url(#pec4d544ee6)">
     <use style="fill:#440154;stroke:#440154;" x="174.930861" xlink:href="#C0_0_6f2b246e2a" y="73.7911"/>
    </g>
    <g clip-path="url(#pec4d544ee6)">
     <use style="fill:#fde725;stroke:#fde725;" x="194.023132" xlink:href="#C0_0_6f2b246e2a" y="67.325118"/>
    </g>
    <g clip-path="url(#pec4d544ee6)">
     <use style="fill:#fde725;stroke:#fde725;" x="209.181573" xlink:href="#C0_0_6f2b246e2a" y="56.481245"/>
    </g>
    <g clip-path="url(#pec4d544ee6)">
     <use style="fill:#fde725;stroke:#fde725;" x="190.348745" xlink:href="#C0_0_6f2b246e2a" y="53.132481"/>
    </g>
    <g clip-path="url(#pec4d544ee6)">
     <use style="fill:#fde725;stroke:#fde725;" x="200.707985" xlink:href="#C0_0_6f2b246e2a" y="46.000508"/>
    </g>
    <g clip-path="url(#pec4d544ee6)">
     <use style="fill:#fde725;stroke:#fde725;" x="198.673644" xlink:href="#C0_0_6f2b246e2a" y="46.185862"/>
    </g>
    <g clip-path="url(#pec4d544ee6)">
     <use style="fill:#fde725;stroke:#fde725;" x="191.17729" xlink:href="#C0_0_6f2b246e2a" y="56.742995"/>
    </g>
    <g clip-path="url(#pec4d544ee6)">
     <use style="fill:#fde725;stroke:#fde725;" x="202.409563" xlink:href="#C0_0_6f2b246e2a" y="56.178356"/>
    </g>
    <g clip-path="url(#pec4d544ee6)">
     <use style="fill:#fde725;stroke:#fde725;" x="197.795291" xlink:href="#C0_0_6f2b246e2a" y="61.134152"/>
    </g>
    <g clip-path="url(#pec4d544ee6)">
     <use style="fill:#fde725;stroke:#fde725;" x="204.059927" xlink:href="#C0_0_6f2b246e2a" y="63.601026"/>
    </g>
    <g clip-path="url(#pec4d544ee6)">
     <use style="fill:#fde725;stroke:#fde725;" x="204.403354" xlink:href="#C0_0_6f2b246e2a" y="65.502007"/>
    </g>
    <g clip-path="url(#pec4d544ee6)">
     <use style="fill:#fde725;stroke:#fde725;" x="213.300421" xlink:href="#C0_0_6f2b246e2a" y="41.215818"/>
    </g>
    <g clip-path="url(#pec4d544ee6)">
     <use style="fill:#fde725;stroke:#fde725;" x="207.810309" xlink:href="#C0_0_6f2b246e2a" y="57.555349"/>
    </g>
    <g clip-path="url(#pec4d544ee6)">
     <use style="fill:#fde725;stroke:#fde725;" x="196.482808" xlink:href="#C0_0_6f2b246e2a" y="57.080005"/>
    </g>
    <g clip-path="url(#pec4d544ee6)">
     <use style="fill:#440154;stroke:#440154;" x="38.183825" xlink:href="#C0_0_6f2b246e2a" y="250.871604"/>
    </g>
    <g clip-path="url(#pec4d544ee6)">
     <use style="fill:#440154;stroke:#440154;" x="47.07629" xlink:href="#C0_0_6f2b246e2a" y="237.388615"/>
    </g>
    <g clip-path="url(#pec4d544ee6)">
     <use style="fill:#440154;stroke:#440154;" x="44.125088" xlink:href="#C0_0_6f2b246e2a" y="253.269661"/>
    </g>
    <g clip-path="url(#pec4d544ee6)">
     <use style="fill:#440154;stroke:#440154;" x="44.024596" xlink:href="#C0_0_6f2b246e2a" y="243.964669"/>
    </g>
    <g clip-path="url(#pec4d544ee6)">
     <use style="fill:#440154;stroke:#440154;" x="29.035432" xlink:href="#C0_0_6f2b246e2a" y="248.498608"/>
    </g>
    <g clip-path="url(#pec4d544ee6)">
     <use style="fill:#440154;stroke:#440154;" x="39.611978" xlink:href="#C0_0_6f2b246e2a" y="239.982482"/>
    </g>
    <g clip-path="url(#pec4d544ee6)">
     <use style="fill:#440154;stroke:#440154;" x="34.872313" xlink:href="#C0_0_6f2b246e2a" y="245.944097"/>
    </g>
    <g clip-path="url(#pec4d544ee6)">
     <use style="fill:#440154;stroke:#440154;" x="41.632486" xlink:href="#C0_0_6f2b246e2a" y="250.392373"/>
    </g>
    <g clip-path="url(#pec4d544ee6)">
     <use style="fill:#440154;stroke:#440154;" x="39.121716" xlink:href="#C0_0_6f2b246e2a" y="242.739032"/>
    </g>
    <g clip-path="url(#pec4d544ee6)">
     <use style="fill:#440154;stroke:#440154;" x="45.817962" xlink:href="#C0_0_6f2b246e2a" y="239.707353"/>
    </g>
    <g clip-path="url(#pec4d544ee6)">
     <use style="fill:#440154;stroke:#440154;" x="41.88015" xlink:href="#C0_0_6f2b246e2a" y="242.110139"/>
    </g>
    <g clip-path="url(#pec4d544ee6)">
     <use style="fill:#440154;stroke:#440154;" x="44.995476" xlink:href="#C0_0_6f2b246e2a" y="240.54318"/>
    </g>
    <g clip-path="url(#pec4d544ee6)">
     <use style="fill:#440154;stroke:#440154;" x="36.676069" xlink:href="#C0_0_6f2b246e2a" y="246.764365"/>
    </g>
    <g clip-path="url(#pec4d544ee6)">
     <use style="fill:#440154;stroke:#440154;" x="33.501523" xlink:href="#C0_0_6f2b246e2a" y="244.960815"/>
    </g>
    <g clip-path="url(#pec4d544ee6)">
     <use style="fill:#440154;stroke:#440154;" x="37.050414" xlink:href="#C0_0_6f2b246e2a" y="247.017639"/>
    </g>
    <g clip-path="url(#pec4d544ee6)">
     <use style="fill:#440154;stroke:#440154;" x="39.660495" xlink:href="#C0_0_6f2b246e2a" y="244.939643"/>
    </g>
    <g clip-path="url(#pec4d544ee6)">
     <use style="fill:#440154;stroke:#440154;" x="42.291447" xlink:href="#C0_0_6f2b246e2a" y="247.951924"/>
    </g>
    <g clip-path="url(#pec4d544ee6)">
     <use style="fill:#440154;stroke:#440154;" x="54.777442" xlink:href="#C0_0_6f2b246e2a" y="254.016"/>
    </g>
    <g clip-path="url(#pec4d544ee6)">
     <use style="fill:#440154;stroke:#440154;" x="139.549601" xlink:href="#C0_0_6f2b246e2a" y="83.983523"/>
    </g>
    <g clip-path="url(#pec4d544ee6)">
     <use style="fill:#440154;stroke:#440154;" x="133.481863" xlink:href="#C0_0_6f2b246e2a" y="87.829997"/>
    </g>
    <g clip-path="url(#pec4d544ee6)">
     <use style="fill:#440154;stroke:#440154;" x="137.532587" xlink:href="#C0_0_6f2b246e2a" y="95.987833"/>
    </g>
    <g clip-path="url(#pec4d544ee6)">
     <use style="fill:#440154;stroke:#440154;" x="136.751519" xlink:href="#C0_0_6f2b246e2a" y="82.088492"/>
    </g>
    <g clip-path="url(#pec4d544ee6)">
     <use style="fill:#440154;stroke:#440154;" x="119.784453" xlink:href="#C0_0_6f2b246e2a" y="112.659449"/>
    </g>
    <g clip-path="url(#pec4d544ee6)">
     <use style="fill:#440154;stroke:#440154;" x="106.35464" xlink:href="#C0_0_6f2b246e2a" y="106.289177"/>
    </g>
    <g clip-path="url(#pec4d544ee6)">
     <use style="fill:#440154;stroke:#440154;" x="117.007086" xlink:href="#C0_0_6f2b246e2a" y="101.792303"/>
    </g>
    <g clip-path="url(#pec4d544ee6)">
     <use style="fill:#440154;stroke:#440154;" x="117.626317" xlink:href="#C0_0_6f2b246e2a" y="105.777576"/>
    </g>
    <g clip-path="url(#pec4d544ee6)">
     <use style="fill:#440154;stroke:#440154;" x="118.128866" xlink:href="#C0_0_6f2b246e2a" y="99.067461"/>
    </g>
    <g clip-path="url(#pec4d544ee6)">
     <use style="fill:#440154;stroke:#440154;" x="112.620232" xlink:href="#C0_0_6f2b246e2a" y="114.834537"/>
    </g>
    <g clip-path="url(#pec4d544ee6)">
     <use style="fill:#fde725;stroke:#fde725;" x="186.286278" xlink:href="#C0_0_6f2b246e2a" y="12.096"/>
    </g>
    <g clip-path="url(#pec4d544ee6)">
     <use style="fill:#fde725;stroke:#fde725;" x="178.409209" xlink:href="#C0_0_6f2b246e2a" y="19.3157"/>
    </g>
    <g clip-path="url(#pec4d544ee6)">
     <use style="fill:#fde725;stroke:#fde725;" x="184.590196" xlink:href="#C0_0_6f2b246e2a" y="20.550828"/>
    </g>
    <g clip-path="url(#pec4d544ee6)">
     <use style="fill:#fde725;stroke:#fde725;" x="184.261194" xlink:href="#C0_0_6f2b246e2a" y="18.612024"/>
    </g>
    <g clip-path="url(#pec4d544ee6)">
     <use style="fill:#fde725;stroke:#fde725;" x="190.629259" xlink:href="#C0_0_6f2b246e2a" y="16.836922"/>
    </g>
    <g clip-path="url(#pec4d544ee6)">
     <use style="fill:#fde725;stroke:#fde725;" x="180.188171" xlink:href="#C0_0_6f2b246e2a" y="14.394933"/>
    </g>
    <g clip-path="url(#pec4d544ee6)">
     <use style="fill:#fde725;stroke:#fde725;" x="193.054183" xlink:href="#C0_0_6f2b246e2a" y="22.505604"/>
    </g>
    <g clip-path="url(#pec4d544ee6)">
     <use style="fill:#440154;stroke:#440154;" x="111.01623" xlink:href="#C0_0_6f2b246e2a" y="125.665992"/>
    </g>
    <g clip-path="url(#pec4d544ee6)">
     <use style="fill:#440154;stroke:#440154;" x="87.344832" xlink:href="#C0_0_6f2b246e2a" y="128.555886"/>
    </g>
    <g clip-path="url(#pec4d544ee6)">
     <use style="fill:#440154;stroke:#440154;" x="103.922216" xlink:href="#C0_0_6f2b246e2a" y="141.850408"/>
    </g>
    <g clip-path="url(#pec4d544ee6)">
     <use style="fill:#440154;stroke:#440154;" x="105.586761" xlink:href="#C0_0_6f2b246e2a" y="121.764938"/>
    </g>
    <g clip-path="url(#pec4d544ee6)">
     <use style="fill:#440154;stroke:#440154;" x="96.858285" xlink:href="#C0_0_6f2b246e2a" y="119.057848"/>
    </g>
    <g clip-path="url(#pec4d544ee6)">
     <use style="fill:#440154;stroke:#440154;" x="98.453206" xlink:href="#C0_0_6f2b246e2a" y="123.820124"/>
    </g>
    <g clip-path="url(#pec4d544ee6)">
     <use style="fill:#440154;stroke:#440154;" x="100.20901" xlink:href="#C0_0_6f2b246e2a" y="132.843187"/>
    </g>
    <g clip-path="url(#pec4d544ee6)">
     <use style="fill:#440154;stroke:#440154;" x="99.113852" xlink:href="#C0_0_6f2b246e2a" y="138.759113"/>
    </g>
    <g clip-path="url(#pec4d544ee6)">
     <use style="fill:#440154;stroke:#440154;" x="99.482055" xlink:href="#C0_0_6f2b246e2a" y="145.232665"/>
    </g>
    <g clip-path="url(#pec4d544ee6)">
     <use style="fill:#440154;stroke:#440154;" x="90.403963" xlink:href="#C0_0_6f2b246e2a" y="154.912677"/>
    </g>
    <g clip-path="url(#pec4d544ee6)">
     <use style="fill:#440154;stroke:#440154;" x="109.186744" xlink:href="#C0_0_6f2b246e2a" y="144.117032"/>
    </g>
    <g clip-path="url(#pec4d544ee6)">
     <use style="fill:#440154;stroke:#440154;" x="108.703863" xlink:href="#C0_0_6f2b246e2a" y="150.852066"/>
    </g>
    <g clip-path="url(#pec4d544ee6)">
     <use style="fill:#440154;stroke:#440154;" x="96.132693" xlink:href="#C0_0_6f2b246e2a" y="145.749413"/>
    </g>
    <g clip-path="url(#pec4d544ee6)">
     <use style="fill:#440154;stroke:#440154;" x="91.795766" xlink:href="#C0_0_6f2b246e2a" y="149.868601"/>
    </g>
    <g clip-path="url(#pec4d544ee6)">
     <use style="fill:#440154;stroke:#440154;" x="104.994546" xlink:href="#C0_0_6f2b246e2a" y="147.542902"/>
    </g>
    <g clip-path="url(#pec4d544ee6)">
     <use style="fill:#440154;stroke:#440154;" x="97.710421" xlink:href="#C0_0_6f2b246e2a" y="152.165476"/>
    </g>
    <g clip-path="url(#pec4d544ee6)">
     <use style="fill:#440154;stroke:#440154;" x="102.476891" xlink:href="#C0_0_6f2b246e2a" y="140.375363"/>
    </g>
    <g clip-path="url(#pec4d544ee6)">
     <use style="fill:#440154;stroke:#440154;" x="99.413551" xlink:href="#C0_0_6f2b246e2a" y="151.392392"/>
    </g>
    <g clip-path="url(#pec4d544ee6)">
     <use style="fill:#440154;stroke:#440154;" x="106.126651" xlink:href="#C0_0_6f2b246e2a" y="149.565623"/>
    </g>
    <g clip-path="url(#pec4d544ee6)">
     <use style="fill:#440154;stroke:#440154;" x="106.147971" xlink:href="#C0_0_6f2b246e2a" y="139.729331"/>
    </g>
    <g clip-path="url(#pec4d544ee6)">
     <use style="fill:#440154;stroke:#440154;" x="96.715547" xlink:href="#C0_0_6f2b246e2a" y="161.185582"/>
    </g>
    <g clip-path="url(#pec4d544ee6)">
     <use style="fill:#440154;stroke:#440154;" x="92.347364" xlink:href="#C0_0_6f2b246e2a" y="160.67241"/>
    </g>
    <g clip-path="url(#pec4d544ee6)">
     <use style="fill:#440154;stroke:#440154;" x="91.022004" xlink:href="#C0_0_6f2b246e2a" y="145.797509"/>
    </g>
    <g clip-path="url(#pec4d544ee6)">
     <use style="fill:#440154;stroke:#440154;" x="105.587677" xlink:href="#C0_0_6f2b246e2a" y="160.025839"/>
    </g>
    <g clip-path="url(#pec4d544ee6)">
     <use style="fill:#440154;stroke:#440154;" x="93.639056" xlink:href="#C0_0_6f2b246e2a" y="139.327751"/>
    </g>
    <g clip-path="url(#pec4d544ee6)">
     <use style="fill:#440154;stroke:#440154;" x="98.168457" xlink:href="#C0_0_6f2b246e2a" y="154.982022"/>
    </g>
    <g clip-path="url(#pec4d544ee6)">
     <use style="fill:#fde725;stroke:#fde725;" x="198.294904" xlink:href="#C0_0_6f2b246e2a" y="37.662235"/>
    </g>
    <g clip-path="url(#pec4d544ee6)">
     <use style="fill:#fde725;stroke:#fde725;" x="201.905889" xlink:href="#C0_0_6f2b246e2a" y="19.928312"/>
    </g>
    <g clip-path="url(#pec4d544ee6)">
     <use style="fill:#fde725;stroke:#fde725;" x="189.396283" xlink:href="#C0_0_6f2b246e2a" y="22.866441"/>
    </g>
    <g clip-path="url(#pec4d544ee6)">
     <use style="fill:#fde725;stroke:#fde725;" x="203.50865" xlink:href="#C0_0_6f2b246e2a" y="20.296107"/>
    </g>
    <g clip-path="url(#pec4d544ee6)">
     <use style="fill:#fde725;stroke:#fde725;" x="205.734109" xlink:href="#C0_0_6f2b246e2a" y="26.681458"/>
    </g>
    <g clip-path="url(#pec4d544ee6)">
     <use style="fill:#fde725;stroke:#fde725;" x="202.84219" xlink:href="#C0_0_6f2b246e2a" y="38.417779"/>
    </g>
    <g clip-path="url(#pec4d544ee6)">
     <use style="fill:#fde725;stroke:#fde725;" x="200.190411" xlink:href="#C0_0_6f2b246e2a" y="20.013828"/>
    </g>
    <g clip-path="url(#pec4d544ee6)">
     <use style="fill:#fde725;stroke:#fde725;" x="202.901812" xlink:href="#C0_0_6f2b246e2a" y="34.478231"/>
    </g>
    <g clip-path="url(#pec4d544ee6)">
     <use style="fill:#fde725;stroke:#fde725;" x="204.905024" xlink:href="#C0_0_6f2b246e2a" y="27.36938"/>
    </g>
    <g clip-path="url(#pec4d544ee6)">
     <use style="fill:#fde725;stroke:#fde725;" x="183.842386" xlink:href="#C0_0_6f2b246e2a" y="26.407803"/>
    </g>
    <g clip-path="url(#pec4d544ee6)">
     <use style="fill:#fde725;stroke:#fde725;" x="215.244064" xlink:href="#C0_0_6f2b246e2a" y="33.72785"/>
    </g>
    <g clip-path="url(#pec4d544ee6)">
     <use style="fill:#fde725;stroke:#fde725;" x="204.845568" xlink:href="#C0_0_6f2b246e2a" y="28.620379"/>
    </g>
    <g clip-path="url(#pec4d544ee6)">
     <use style="fill:#fde725;stroke:#fde725;" x="197.922384" xlink:href="#C0_0_6f2b246e2a" y="26.574127"/>
    </g>
    <g clip-path="url(#pec4d544ee6)">
     <use style="fill:#440154;stroke:#440154;" x="52.008645" xlink:href="#C0_0_6f2b246e2a" y="223.892459"/>
    </g>
    <g clip-path="url(#pec4d544ee6)">
     <use style="fill:#440154;stroke:#440154;" x="57.883845" xlink:href="#C0_0_6f2b246e2a" y="233.693321"/>
    </g>
    <g clip-path="url(#pec4d544ee6)">
     <use style="fill:#440154;stroke:#440154;" x="53.833902" xlink:href="#C0_0_6f2b246e2a" y="224.411696"/>
    </g>
    <g clip-path="url(#pec4d544ee6)">
     <use style="fill:#440154;stroke:#440154;" x="41.119303" xlink:href="#C0_0_6f2b246e2a" y="217.583837"/>
    </g>
    <g clip-path="url(#pec4d544ee6)">
     <use style="fill:#440154;stroke:#440154;" x="68.315096" xlink:href="#C0_0_6f2b246e2a" y="231.004853"/>
    </g>
    <g clip-path="url(#pec4d544ee6)">
     <use style="fill:#440154;stroke:#440154;" x="53.870847" xlink:href="#C0_0_6f2b246e2a" y="227.385988"/>
    </g>
    <g clip-path="url(#pec4d544ee6)">
     <use style="fill:#440154;stroke:#440154;" x="61.379837" xlink:href="#C0_0_6f2b246e2a" y="229.2821"/>
    </g>
    <g clip-path="url(#pec4d544ee6)">
     <use style="fill:#440154;stroke:#440154;" x="50.009084" xlink:href="#C0_0_6f2b246e2a" y="214.111441"/>
    </g>
    <g clip-path="url(#pec4d544ee6)">
     <use style="fill:#440154;stroke:#440154;" x="64.807915" xlink:href="#C0_0_6f2b246e2a" y="221.927612"/>
    </g>
    <g clip-path="url(#pec4d544ee6)">
     <use style="fill:#440154;stroke:#440154;" x="56.506529" xlink:href="#C0_0_6f2b246e2a" y="223.686349"/>
    </g>
    <g clip-path="url(#pec4d544ee6)">
     <use style="fill:#440154;stroke:#440154;" x="58.64823" xlink:href="#C0_0_6f2b246e2a" y="231.505235"/>
    </g>
    <g clip-path="url(#pec4d544ee6)">
     <use style="fill:#440154;stroke:#440154;" x="47.663484" xlink:href="#C0_0_6f2b246e2a" y="222.811158"/>
    </g>
    <g clip-path="url(#pec4d544ee6)">
     <use style="fill:#440154;stroke:#440154;" x="62.648073" xlink:href="#C0_0_6f2b246e2a" y="230.870472"/>
    </g>
    <g clip-path="url(#pec4d544ee6)">
     <use style="fill:#440154;stroke:#440154;" x="59.185975" xlink:href="#C0_0_6f2b246e2a" y="226.180891"/>
    </g>
    <g clip-path="url(#pec4d544ee6)">
     <use style="fill:#440154;stroke:#440154;" x="75.425453" xlink:href="#C0_0_6f2b246e2a" y="193.868398"/>
    </g>
    <g clip-path="url(#pec4d544ee6)">
     <use style="fill:#440154;stroke:#440154;" x="62.608895" xlink:href="#C0_0_6f2b246e2a" y="185.15364"/>
    </g>
    <g clip-path="url(#pec4d544ee6)">
     <use style="fill:#440154;stroke:#440154;" x="63.585513" xlink:href="#C0_0_6f2b246e2a" y="185.816687"/>
    </g>
    <g clip-path="url(#pec4d544ee6)">
     <use style="fill:#440154;stroke:#440154;" x="82.080134" xlink:href="#C0_0_6f2b246e2a" y="191.029085"/>
    </g>
    <g clip-path="url(#pec4d544ee6)">
     <use style="fill:#440154;stroke:#440154;" x="59.740488" xlink:href="#C0_0_6f2b246e2a" y="187.015934"/>
    </g>
    <g clip-path="url(#pec4d544ee6)">
     <use style="fill:#440154;stroke:#440154;" x="65.877148" xlink:href="#C0_0_6f2b246e2a" y="196.904734"/>
    </g>
    <g clip-path="url(#pec4d544ee6)">
     <use style="fill:#440154;stroke:#440154;" x="74.329999" xlink:href="#C0_0_6f2b246e2a" y="199.549127"/>
    </g>
    <g clip-path="url(#pec4d544ee6)">
     <use style="fill:#440154;stroke:#440154;" x="67.428966" xlink:href="#C0_0_6f2b246e2a" y="186.727817"/>
    </g>
    <g clip-path="url(#pec4d544ee6)">
     <use style="fill:#440154;stroke:#440154;" x="70.651336" xlink:href="#C0_0_6f2b246e2a" y="188.53892"/>
    </g>
    <g clip-path="url(#pec4d544ee6)">
     <use style="fill:#440154;stroke:#440154;" x="64.127267" xlink:href="#C0_0_6f2b246e2a" y="185.428587"/>
    </g>
    <g clip-path="url(#pec4d544ee6)">
     <use style="fill:#440154;stroke:#440154;" x="69.237497" xlink:href="#C0_0_6f2b246e2a" y="173.819486"/>
    </g>
    <g clip-path="url(#pec4d544ee6)">
     <use style="fill:#440154;stroke:#440154;" x="58.103426" xlink:href="#C0_0_6f2b246e2a" y="183.373564"/>
    </g>
    <g clip-path="url(#pec4d544ee6)">
     <use style="fill:#440154;stroke:#440154;" x="77.791513" xlink:href="#C0_0_6f2b246e2a" y="195.707777"/>
    </g>
    <g clip-path="url(#pec4d544ee6)">
     <use style="fill:#440154;stroke:#440154;" x="65.995262" xlink:href="#C0_0_6f2b246e2a" y="182.227759"/>
    </g>
    <g clip-path="url(#pec4d544ee6)">
     <use style="fill:#440154;stroke:#440154;" x="62.262964" xlink:href="#C0_0_6f2b246e2a" y="198.384638"/>
    </g>
    <g clip-path="url(#pec4d544ee6)">
     <use style="fill:#440154;stroke:#440154;" x="71.205385" xlink:href="#C0_0_6f2b246e2a" y="192.711139"/>
    </g>
    <g clip-path="url(#pec4d544ee6)">
     <use style="fill:#440154;stroke:#440154;" x="63.720372" xlink:href="#C0_0_6f2b246e2a" y="190.098975"/>
    </g>
    <g clip-path="url(#pec4d544ee6)">
     <use style="fill:#440154;stroke:#440154;" x="57.919262" xlink:href="#C0_0_6f2b246e2a" y="178.267596"/>
    </g>
    <g clip-path="url(#pec4d544ee6)">
     <use style="fill:#440154;stroke:#440154;" x="57.836522" xlink:href="#C0_0_6f2b246e2a" y="194.591653"/>
    </g>
    <g clip-path="url(#pec4d544ee6)">
     <use style="fill:#440154;stroke:#440154;" x="71.387281" xlink:href="#C0_0_6f2b246e2a" y="195.134109"/>
    </g>
    <g clip-path="url(#pec4d544ee6)">
     <use style="fill:#440154;stroke:#440154;" x="65.720265" xlink:href="#C0_0_6f2b246e2a" y="190.299604"/>
    </g>
   </g>
   <g id="matplotlib.axis_1">
    <g id="xtick_1">
     <g id="line2d_1">
      <defs>
       <path d="M 0 0 
L 0 3.5 
" id="mc3ae2143b2" style="stroke:#000000;stroke-width:0.8;"/>
      </defs>
      <g>
       <use style="stroke:#000000;stroke-width:0.8;" x="42.429899" xlink:href="#mc3ae2143b2" y="266.112"/>
      </g>
     </g>
     <g id="text_1">
      <!-- 14 -->
      <g transform="translate(36.067399 280.710438)scale(0.1 -0.1)">
       <defs>
        <path d="M 794 531 
L 1825 531 
L 1825 4091 
L 703 3866 
L 703 4441 
L 1819 4666 
L 2450 4666 
L 2450 531 
L 3481 531 
L 3481 0 
L 794 0 
L 794 531 
z
" id="DejaVuSans-31" transform="scale(0.015625)"/>
        <path d="M 2419 4116 
L 825 1625 
L 2419 1625 
L 2419 4116 
z
M 2253 4666 
L 3047 4666 
L 3047 1625 
L 3713 1625 
L 3713 1100 
L 3047 1100 
L 3047 0 
L 2419 0 
L 2419 1100 
L 313 1100 
L 313 1709 
L 2253 4666 
z
" id="DejaVuSans-34" transform="scale(0.015625)"/>
       </defs>
       <use xlink:href="#DejaVuSans-31"/>
       <use x="63.623047" xlink:href="#DejaVuSans-34"/>
      </g>
     </g>
    </g>
    <g id="xtick_2">
     <g id="line2d_2">
      <g>
       <use style="stroke:#000000;stroke-width:0.8;" x="86.702776" xlink:href="#mc3ae2143b2" y="266.112"/>
      </g>
     </g>
     <g id="text_2">
      <!-- 16 -->
      <g transform="translate(80.340276 280.710438)scale(0.1 -0.1)">
       <defs>
        <path d="M 2113 2584 
Q 1688 2584 1439 2293 
Q 1191 2003 1191 1497 
Q 1191 994 1439 701 
Q 1688 409 2113 409 
Q 2538 409 2786 701 
Q 3034 994 3034 1497 
Q 3034 2003 2786 2293 
Q 2538 2584 2113 2584 
z
M 3366 4563 
L 3366 3988 
Q 3128 4100 2886 4159 
Q 2644 4219 2406 4219 
Q 1781 4219 1451 3797 
Q 1122 3375 1075 2522 
Q 1259 2794 1537 2939 
Q 1816 3084 2150 3084 
Q 2853 3084 3261 2657 
Q 3669 2231 3669 1497 
Q 3669 778 3244 343 
Q 2819 -91 2113 -91 
Q 1303 -91 875 529 
Q 447 1150 447 2328 
Q 447 3434 972 4092 
Q 1497 4750 2381 4750 
Q 2619 4750 2861 4703 
Q 3103 4656 3366 4563 
z
" id="DejaVuSans-36" transform="scale(0.015625)"/>
       </defs>
       <use xlink:href="#DejaVuSans-31"/>
       <use x="63.623047" xlink:href="#DejaVuSans-36"/>
      </g>
     </g>
    </g>
    <g id="xtick_3">
     <g id="line2d_3">
      <g>
       <use style="stroke:#000000;stroke-width:0.8;" x="130.975653" xlink:href="#mc3ae2143b2" y="266.112"/>
      </g>
     </g>
     <g id="text_3">
      <!-- 18 -->
      <g transform="translate(124.613153 280.710438)scale(0.1 -0.1)">
       <defs>
        <path d="M 2034 2216 
Q 1584 2216 1326 1975 
Q 1069 1734 1069 1313 
Q 1069 891 1326 650 
Q 1584 409 2034 409 
Q 2484 409 2743 651 
Q 3003 894 3003 1313 
Q 3003 1734 2745 1975 
Q 2488 2216 2034 2216 
z
M 1403 2484 
Q 997 2584 770 2862 
Q 544 3141 544 3541 
Q 544 4100 942 4425 
Q 1341 4750 2034 4750 
Q 2731 4750 3128 4425 
Q 3525 4100 3525 3541 
Q 3525 3141 3298 2862 
Q 3072 2584 2669 2484 
Q 3125 2378 3379 2068 
Q 3634 1759 3634 1313 
Q 3634 634 3220 271 
Q 2806 -91 2034 -91 
Q 1263 -91 848 271 
Q 434 634 434 1313 
Q 434 1759 690 2068 
Q 947 2378 1403 2484 
z
M 1172 3481 
Q 1172 3119 1398 2916 
Q 1625 2713 2034 2713 
Q 2441 2713 2670 2916 
Q 2900 3119 2900 3481 
Q 2900 3844 2670 4047 
Q 2441 4250 2034 4250 
Q 1625 4250 1398 4047 
Q 1172 3844 1172 3481 
z
" id="DejaVuSans-38" transform="scale(0.015625)"/>
       </defs>
       <use xlink:href="#DejaVuSans-31"/>
       <use x="63.623047" xlink:href="#DejaVuSans-38"/>
      </g>
     </g>
    </g>
    <g id="xtick_4">
     <g id="line2d_4">
      <g>
       <use style="stroke:#000000;stroke-width:0.8;" x="175.24853" xlink:href="#mc3ae2143b2" y="266.112"/>
      </g>
     </g>
     <g id="text_4">
      <!-- 20 -->
      <g transform="translate(168.88603 280.710438)scale(0.1 -0.1)">
       <defs>
        <path d="M 1228 531 
L 3431 531 
L 3431 0 
L 469 0 
L 469 531 
Q 828 903 1448 1529 
Q 2069 2156 2228 2338 
Q 2531 2678 2651 2914 
Q 2772 3150 2772 3378 
Q 2772 3750 2511 3984 
Q 2250 4219 1831 4219 
Q 1534 4219 1204 4116 
Q 875 4013 500 3803 
L 500 4441 
Q 881 4594 1212 4672 
Q 1544 4750 1819 4750 
Q 2544 4750 2975 4387 
Q 3406 4025 3406 3419 
Q 3406 3131 3298 2873 
Q 3191 2616 2906 2266 
Q 2828 2175 2409 1742 
Q 1991 1309 1228 531 
z
" id="DejaVuSans-32" transform="scale(0.015625)"/>
        <path d="M 2034 4250 
Q 1547 4250 1301 3770 
Q 1056 3291 1056 2328 
Q 1056 1369 1301 889 
Q 1547 409 2034 409 
Q 2525 409 2770 889 
Q 3016 1369 3016 2328 
Q 3016 3291 2770 3770 
Q 2525 4250 2034 4250 
z
M 2034 4750 
Q 2819 4750 3233 4129 
Q 3647 3509 3647 2328 
Q 3647 1150 3233 529 
Q 2819 -91 2034 -91 
Q 1250 -91 836 529 
Q 422 1150 422 2328 
Q 422 3509 836 4129 
Q 1250 4750 2034 4750 
z
" id="DejaVuSans-30" transform="scale(0.015625)"/>
       </defs>
       <use xlink:href="#DejaVuSans-32"/>
       <use x="63.623047" xlink:href="#DejaVuSans-30"/>
      </g>
     </g>
    </g>
    <g id="xtick_5">
     <g id="line2d_5">
      <g>
       <use style="stroke:#000000;stroke-width:0.8;" x="219.521407" xlink:href="#mc3ae2143b2" y="266.112"/>
      </g>
     </g>
     <g id="text_5">
      <!-- 22 -->
      <g transform="translate(213.158907 280.710438)scale(0.1 -0.1)">
       <use xlink:href="#DejaVuSans-32"/>
       <use x="63.623047" xlink:href="#DejaVuSans-32"/>
      </g>
     </g>
    </g>
    <g id="xtick_6">
     <g id="line2d_6">
      <g>
       <use style="stroke:#000000;stroke-width:0.8;" x="263.794284" xlink:href="#mc3ae2143b2" y="266.112"/>
      </g>
     </g>
     <g id="text_6">
      <!-- 24 -->
      <g transform="translate(257.431784 280.710438)scale(0.1 -0.1)">
       <use xlink:href="#DejaVuSans-32"/>
       <use x="63.623047" xlink:href="#DejaVuSans-34"/>
      </g>
     </g>
    </g>
   </g>
   <g id="matplotlib.axis_2">
    <g id="ytick_1">
     <g id="line2d_7">
      <defs>
       <path d="M 0 0 
L -3.5 0 
" id="macd7e6eaae" style="stroke:#000000;stroke-width:0.8;"/>
      </defs>
      <g>
       <use style="stroke:#000000;stroke-width:0.8;" x="19.725" xlink:href="#macd7e6eaae" y="242.994604"/>
      </g>
     </g>
     <g id="text_7">
      <!-- 56 -->
      <g transform="translate(-0 246.793823)scale(0.1 -0.1)">
       <defs>
        <path d="M 691 4666 
L 3169 4666 
L 3169 4134 
L 1269 4134 
L 1269 2991 
Q 1406 3038 1543 3061 
Q 1681 3084 1819 3084 
Q 2600 3084 3056 2656 
Q 3513 2228 3513 1497 
Q 3513 744 3044 326 
Q 2575 -91 1722 -91 
Q 1428 -91 1123 -41 
Q 819 9 494 109 
L 494 744 
Q 775 591 1075 516 
Q 1375 441 1709 441 
Q 2250 441 2565 725 
Q 2881 1009 2881 1497 
Q 2881 1984 2565 2268 
Q 2250 2553 1709 2553 
Q 1456 2553 1204 2497 
Q 953 2441 691 2322 
L 691 4666 
z
" id="DejaVuSans-35" transform="scale(0.015625)"/>
       </defs>
       <use xlink:href="#DejaVuSans-35"/>
       <use x="63.623047" xlink:href="#DejaVuSans-36"/>
      </g>
     </g>
    </g>
    <g id="ytick_2">
     <g id="line2d_8">
      <g>
       <use style="stroke:#000000;stroke-width:0.8;" x="19.725" xlink:href="#macd7e6eaae" y="198.721727"/>
      </g>
     </g>
     <g id="text_8">
      <!-- 58 -->
      <g transform="translate(-0 202.520946)scale(0.1 -0.1)">
       <use xlink:href="#DejaVuSans-35"/>
       <use x="63.623047" xlink:href="#DejaVuSans-38"/>
      </g>
     </g>
    </g>
    <g id="ytick_3">
     <g id="line2d_9">
      <g>
       <use style="stroke:#000000;stroke-width:0.8;" x="19.725" xlink:href="#macd7e6eaae" y="154.44885"/>
      </g>
     </g>
     <g id="text_9">
      <!-- 60 -->
      <g transform="translate(-0 158.248069)scale(0.1 -0.1)">
       <use xlink:href="#DejaVuSans-36"/>
       <use x="63.623047" xlink:href="#DejaVuSans-30"/>
      </g>
     </g>
    </g>
    <g id="ytick_4">
     <g id="line2d_10">
      <g>
       <use style="stroke:#000000;stroke-width:0.8;" x="19.725" xlink:href="#macd7e6eaae" y="110.175973"/>
      </g>
     </g>
     <g id="text_10">
      <!-- 62 -->
      <g transform="translate(-0 113.975192)scale(0.1 -0.1)">
       <use xlink:href="#DejaVuSans-36"/>
       <use x="63.623047" xlink:href="#DejaVuSans-32"/>
      </g>
     </g>
    </g>
    <g id="ytick_5">
     <g id="line2d_11">
      <g>
       <use style="stroke:#000000;stroke-width:0.8;" x="19.725" xlink:href="#macd7e6eaae" y="65.903096"/>
      </g>
     </g>
     <g id="text_11">
      <!-- 64 -->
      <g transform="translate(-0 69.702315)scale(0.1 -0.1)">
       <use xlink:href="#DejaVuSans-36"/>
       <use x="63.623047" xlink:href="#DejaVuSans-34"/>
      </g>
     </g>
    </g>
    <g id="ytick_6">
     <g id="line2d_12">
      <g>
       <use style="stroke:#000000;stroke-width:0.8;" x="19.725" xlink:href="#macd7e6eaae" y="21.630219"/>
      </g>
     </g>
     <g id="text_12">
      <!-- 66 -->
      <g transform="translate(-0 25.429438)scale(0.1 -0.1)">
       <use xlink:href="#DejaVuSans-36"/>
       <use x="63.623047" xlink:href="#DejaVuSans-36"/>
      </g>
     </g>
    </g>
   </g>
   <g id="patch_3">
    <path d="M 19.725 266.112 
L 19.725 0 
" style="fill:none;stroke:#000000;stroke-linecap:square;stroke-linejoin:miter;stroke-width:0.8;"/>
   </g>
   <g id="patch_4">
    <path d="M 285.837 266.112 
L 285.837 0 
" style="fill:none;stroke:#000000;stroke-linecap:square;stroke-linejoin:miter;stroke-width:0.8;"/>
   </g>
   <g id="patch_5">
    <path d="M 19.725 266.112 
L 285.837 266.112 
" style="fill:none;stroke:#000000;stroke-linecap:square;stroke-linejoin:miter;stroke-width:0.8;"/>
   </g>
   <g id="patch_6">
    <path d="M 19.725 0 
L 285.837 0 
" style="fill:none;stroke:#000000;stroke-linecap:square;stroke-linejoin:miter;stroke-width:0.8;"/>
   </g>
   <g id="legend_1">
    <g id="patch_7">
     <path d="M 26.725 37.35625 
L 143.475 37.35625 
Q 145.475 37.35625 145.475 35.35625 
L 145.475 7 
Q 145.475 5 143.475 5 
L 26.725 5 
Q 24.725 5 24.725 7 
L 24.725 35.35625 
Q 24.725 37.35625 26.725 37.35625 
z
" style="fill:#ffffff;opacity:0.8;stroke:#cccccc;stroke-linejoin:miter;"/>
    </g>
    <g id="line2d_13"/>
    <g id="line2d_14">
     <defs>
      <path d="M 0 3 
C 0.795609 3 1.55874 2.683901 2.12132 2.12132 
C 2.683901 1.55874 3 0.795609 3 0 
C 3 -0.795609 2.683901 -1.55874 2.12132 -2.12132 
C 1.55874 -2.683901 0.795609 -3 0 -3 
C -0.795609 -3 -1.55874 -2.683901 -2.12132 -2.12132 
C -2.683901 -1.55874 -3 -0.795609 -3 0 
C -3 0.795609 -2.683901 1.55874 -2.12132 2.12132 
C -1.55874 2.683901 -0.795609 3 0 3 
z
" id="m4170d4a77b" style="stroke:#440154;"/>
     </defs>
     <g>
      <use style="fill:#440154;stroke:#440154;" x="38.725" xlink:href="#m4170d4a77b" y="13.098438"/>
     </g>
    </g>
    <g id="text_13">
     <!-- B. pendula north -->
     <g transform="translate(56.725 16.598438)scale(0.1 -0.1)">
      <defs>
       <path d="M 1259 2228 
L 1259 519 
L 2272 519 
Q 2781 519 3026 730 
Q 3272 941 3272 1375 
Q 3272 1813 3026 2020 
Q 2781 2228 2272 2228 
L 1259 2228 
z
M 1259 4147 
L 1259 2741 
L 2194 2741 
Q 2656 2741 2882 2914 
Q 3109 3088 3109 3444 
Q 3109 3797 2882 3972 
Q 2656 4147 2194 4147 
L 1259 4147 
z
M 628 4666 
L 2241 4666 
Q 2963 4666 3353 4366 
Q 3744 4066 3744 3513 
Q 3744 3084 3544 2831 
Q 3344 2578 2956 2516 
Q 3422 2416 3680 2098 
Q 3938 1781 3938 1306 
Q 3938 681 3513 340 
Q 3088 0 2303 0 
L 628 0 
L 628 4666 
z
" id="DejaVuSans-42" transform="scale(0.015625)"/>
       <path d="M 684 794 
L 1344 794 
L 1344 0 
L 684 0 
L 684 794 
z
" id="DejaVuSans-2e" transform="scale(0.015625)"/>
       <path id="DejaVuSans-20" transform="scale(0.015625)"/>
       <path d="M 1159 525 
L 1159 -1331 
L 581 -1331 
L 581 3500 
L 1159 3500 
L 1159 2969 
Q 1341 3281 1617 3432 
Q 1894 3584 2278 3584 
Q 2916 3584 3314 3078 
Q 3713 2572 3713 1747 
Q 3713 922 3314 415 
Q 2916 -91 2278 -91 
Q 1894 -91 1617 61 
Q 1341 213 1159 525 
z
M 3116 1747 
Q 3116 2381 2855 2742 
Q 2594 3103 2138 3103 
Q 1681 3103 1420 2742 
Q 1159 2381 1159 1747 
Q 1159 1113 1420 752 
Q 1681 391 2138 391 
Q 2594 391 2855 752 
Q 3116 1113 3116 1747 
z
" id="DejaVuSans-70" transform="scale(0.015625)"/>
       <path d="M 3597 1894 
L 3597 1613 
L 953 1613 
Q 991 1019 1311 708 
Q 1631 397 2203 397 
Q 2534 397 2845 478 
Q 3156 559 3463 722 
L 3463 178 
Q 3153 47 2828 -22 
Q 2503 -91 2169 -91 
Q 1331 -91 842 396 
Q 353 884 353 1716 
Q 353 2575 817 3079 
Q 1281 3584 2069 3584 
Q 2775 3584 3186 3129 
Q 3597 2675 3597 1894 
z
M 3022 2063 
Q 3016 2534 2758 2815 
Q 2500 3097 2075 3097 
Q 1594 3097 1305 2825 
Q 1016 2553 972 2059 
L 3022 2063 
z
" id="DejaVuSans-65" transform="scale(0.015625)"/>
       <path d="M 3513 2113 
L 3513 0 
L 2938 0 
L 2938 2094 
Q 2938 2591 2744 2837 
Q 2550 3084 2163 3084 
Q 1697 3084 1428 2787 
Q 1159 2491 1159 1978 
L 1159 0 
L 581 0 
L 581 3500 
L 1159 3500 
L 1159 2956 
Q 1366 3272 1645 3428 
Q 1925 3584 2291 3584 
Q 2894 3584 3203 3211 
Q 3513 2838 3513 2113 
z
" id="DejaVuSans-6e" transform="scale(0.015625)"/>
       <path d="M 2906 2969 
L 2906 4863 
L 3481 4863 
L 3481 0 
L 2906 0 
L 2906 525 
Q 2725 213 2448 61 
Q 2172 -91 1784 -91 
Q 1150 -91 751 415 
Q 353 922 353 1747 
Q 353 2572 751 3078 
Q 1150 3584 1784 3584 
Q 2172 3584 2448 3432 
Q 2725 3281 2906 2969 
z
M 947 1747 
Q 947 1113 1208 752 
Q 1469 391 1925 391 
Q 2381 391 2643 752 
Q 2906 1113 2906 1747 
Q 2906 2381 2643 2742 
Q 2381 3103 1925 3103 
Q 1469 3103 1208 2742 
Q 947 2381 947 1747 
z
" id="DejaVuSans-64" transform="scale(0.015625)"/>
       <path d="M 544 1381 
L 544 3500 
L 1119 3500 
L 1119 1403 
Q 1119 906 1312 657 
Q 1506 409 1894 409 
Q 2359 409 2629 706 
Q 2900 1003 2900 1516 
L 2900 3500 
L 3475 3500 
L 3475 0 
L 2900 0 
L 2900 538 
Q 2691 219 2414 64 
Q 2138 -91 1772 -91 
Q 1169 -91 856 284 
Q 544 659 544 1381 
z
M 1991 3584 
L 1991 3584 
z
" id="DejaVuSans-75" transform="scale(0.015625)"/>
       <path d="M 603 4863 
L 1178 4863 
L 1178 0 
L 603 0 
L 603 4863 
z
" id="DejaVuSans-6c" transform="scale(0.015625)"/>
       <path d="M 2194 1759 
Q 1497 1759 1228 1600 
Q 959 1441 959 1056 
Q 959 750 1161 570 
Q 1363 391 1709 391 
Q 2188 391 2477 730 
Q 2766 1069 2766 1631 
L 2766 1759 
L 2194 1759 
z
M 3341 1997 
L 3341 0 
L 2766 0 
L 2766 531 
Q 2569 213 2275 61 
Q 1981 -91 1556 -91 
Q 1019 -91 701 211 
Q 384 513 384 1019 
Q 384 1609 779 1909 
Q 1175 2209 1959 2209 
L 2766 2209 
L 2766 2266 
Q 2766 2663 2505 2880 
Q 2244 3097 1772 3097 
Q 1472 3097 1187 3025 
Q 903 2953 641 2809 
L 641 3341 
Q 956 3463 1253 3523 
Q 1550 3584 1831 3584 
Q 2591 3584 2966 3190 
Q 3341 2797 3341 1997 
z
" id="DejaVuSans-61" transform="scale(0.015625)"/>
       <path d="M 1959 3097 
Q 1497 3097 1228 2736 
Q 959 2375 959 1747 
Q 959 1119 1226 758 
Q 1494 397 1959 397 
Q 2419 397 2687 759 
Q 2956 1122 2956 1747 
Q 2956 2369 2687 2733 
Q 2419 3097 1959 3097 
z
M 1959 3584 
Q 2709 3584 3137 3096 
Q 3566 2609 3566 1747 
Q 3566 888 3137 398 
Q 2709 -91 1959 -91 
Q 1206 -91 779 398 
Q 353 888 353 1747 
Q 353 2609 779 3096 
Q 1206 3584 1959 3584 
z
" id="DejaVuSans-6f" transform="scale(0.015625)"/>
       <path d="M 2631 2963 
Q 2534 3019 2420 3045 
Q 2306 3072 2169 3072 
Q 1681 3072 1420 2755 
Q 1159 2438 1159 1844 
L 1159 0 
L 581 0 
L 581 3500 
L 1159 3500 
L 1159 2956 
Q 1341 3275 1631 3429 
Q 1922 3584 2338 3584 
Q 2397 3584 2469 3576 
Q 2541 3569 2628 3553 
L 2631 2963 
z
" id="DejaVuSans-72" transform="scale(0.015625)"/>
       <path d="M 1172 4494 
L 1172 3500 
L 2356 3500 
L 2356 3053 
L 1172 3053 
L 1172 1153 
Q 1172 725 1289 603 
Q 1406 481 1766 481 
L 2356 481 
L 2356 0 
L 1766 0 
Q 1100 0 847 248 
Q 594 497 594 1153 
L 594 3053 
L 172 3053 
L 172 3500 
L 594 3500 
L 594 4494 
L 1172 4494 
z
" id="DejaVuSans-74" transform="scale(0.015625)"/>
       <path d="M 3513 2113 
L 3513 0 
L 2938 0 
L 2938 2094 
Q 2938 2591 2744 2837 
Q 2550 3084 2163 3084 
Q 1697 3084 1428 2787 
Q 1159 2491 1159 1978 
L 1159 0 
L 581 0 
L 581 4863 
L 1159 4863 
L 1159 2956 
Q 1366 3272 1645 3428 
Q 1925 3584 2291 3584 
Q 2894 3584 3203 3211 
Q 3513 2838 3513 2113 
z
" id="DejaVuSans-68" transform="scale(0.015625)"/>
      </defs>
      <use xlink:href="#DejaVuSans-42"/>
      <use x="68.603516" xlink:href="#DejaVuSans-2e"/>
      <use x="100.390625" xlink:href="#DejaVuSans-20"/>
      <use x="132.177734" xlink:href="#DejaVuSans-70"/>
      <use x="195.654297" xlink:href="#DejaVuSans-65"/>
      <use x="257.177734" xlink:href="#DejaVuSans-6e"/>
      <use x="320.556641" xlink:href="#DejaVuSans-64"/>
      <use x="384.033203" xlink:href="#DejaVuSans-75"/>
      <use x="447.412109" xlink:href="#DejaVuSans-6c"/>
      <use x="475.195312" xlink:href="#DejaVuSans-61"/>
      <use x="536.474609" xlink:href="#DejaVuSans-20"/>
      <use x="568.261719" xlink:href="#DejaVuSans-6e"/>
      <use x="631.640625" xlink:href="#DejaVuSans-6f"/>
      <use x="692.822266" xlink:href="#DejaVuSans-72"/>
      <use x="733.935547" xlink:href="#DejaVuSans-74"/>
      <use x="773.144531" xlink:href="#DejaVuSans-68"/>
     </g>
    </g>
    <g id="line2d_15"/>
    <g id="line2d_16">
     <defs>
      <path d="M 0 3 
C 0.795609 3 1.55874 2.683901 2.12132 2.12132 
C 2.683901 1.55874 3 0.795609 3 0 
C 3 -0.795609 2.683901 -1.55874 2.12132 -2.12132 
C 1.55874 -2.683901 0.795609 -3 0 -3 
C -0.795609 -3 -1.55874 -2.683901 -2.12132 -2.12132 
C -2.683901 -1.55874 -3 -0.795609 -3 0 
C -3 0.795609 -2.683901 1.55874 -2.12132 2.12132 
C -1.55874 2.683901 -0.795609 3 0 3 
z
" id="mcde0971330" style="stroke:#fde725;"/>
     </defs>
     <g>
      <use style="fill:#fde725;stroke:#fde725;" x="38.725" xlink:href="#mcde0971330" y="27.776563"/>
     </g>
    </g>
    <g id="text_14">
     <!-- B. pendula south -->
     <g transform="translate(56.725 31.276563)scale(0.1 -0.1)">
      <defs>
       <path d="M 2834 3397 
L 2834 2853 
Q 2591 2978 2328 3040 
Q 2066 3103 1784 3103 
Q 1356 3103 1142 2972 
Q 928 2841 928 2578 
Q 928 2378 1081 2264 
Q 1234 2150 1697 2047 
L 1894 2003 
Q 2506 1872 2764 1633 
Q 3022 1394 3022 966 
Q 3022 478 2636 193 
Q 2250 -91 1575 -91 
Q 1294 -91 989 -36 
Q 684 19 347 128 
L 347 722 
Q 666 556 975 473 
Q 1284 391 1588 391 
Q 1994 391 2212 530 
Q 2431 669 2431 922 
Q 2431 1156 2273 1281 
Q 2116 1406 1581 1522 
L 1381 1569 
Q 847 1681 609 1914 
Q 372 2147 372 2553 
Q 372 3047 722 3315 
Q 1072 3584 1716 3584 
Q 2034 3584 2315 3537 
Q 2597 3491 2834 3397 
z
" id="DejaVuSans-73" transform="scale(0.015625)"/>
      </defs>
      <use xlink:href="#DejaVuSans-42"/>
      <use x="68.603516" xlink:href="#DejaVuSans-2e"/>
      <use x="100.390625" xlink:href="#DejaVuSans-20"/>
      <use x="132.177734" xlink:href="#DejaVuSans-70"/>
      <use x="195.654297" xlink:href="#DejaVuSans-65"/>
      <use x="257.177734" xlink:href="#DejaVuSans-6e"/>
      <use x="320.556641" xlink:href="#DejaVuSans-64"/>
      <use x="384.033203" xlink:href="#DejaVuSans-75"/>
      <use x="447.412109" xlink:href="#DejaVuSans-6c"/>
      <use x="475.195312" xlink:href="#DejaVuSans-61"/>
      <use x="536.474609" xlink:href="#DejaVuSans-20"/>
      <use x="568.261719" xlink:href="#DejaVuSans-73"/>
      <use x="620.361328" xlink:href="#DejaVuSans-6f"/>
      <use x="681.542969" xlink:href="#DejaVuSans-75"/>
      <use x="744.921875" xlink:href="#DejaVuSans-74"/>
      <use x="784.130859" xlink:href="#DejaVuSans-68"/>
     </g>
    </g>
   </g>
  </g>
 </g>
 <defs>
  <clipPath id="pec4d544ee6">
   <rect height="266.112" width="266.112" x="19.725" y="0"/>
  </clipPath>
 </defs>
</svg>
