<?xml version="1.0" encoding="utf-8" standalone="no"?>
<!DOCTYPE svg PUBLIC "-//W3C//DTD SVG 1.1//EN"
  "http://www.w3.org/Graphics/SVG/1.1/DTD/svg11.dtd">
<svg height="207.76425pt" version="1.1" viewBox="0 0 212.828313 207.76425" width="212.828313pt" xmlns="http://www.w3.org/2000/svg" xmlns:xlink="http://www.w3.org/1999/xlink">
 <metadata>
  <rdf:RDF xmlns:cc="http://creativecommons.org/ns#" xmlns:dc="http://purl.org/dc/elements/1.1/" xmlns:rdf="http://www.w3.org/1999/02/22-rdf-syntax-ns#">
   <cc:Work>
    <dc:type rdf:resource="http://purl.org/dc/dcmitype/StillImage"/>
    <dc:date>2022-02-01T16:38:46.558084</dc:date>
    <dc:format>image/svg+xml</dc:format>
    <dc:creator>
     <cc:Agent>
      <dc:title>Matplotlib v3.4.3, https://matplotlib.org/</dc:title>
     </cc:Agent>
    </dc:creator>
   </cc:Work>
  </rdf:RDF>
 </metadata>
 <defs>
  <style type="text/css">*{stroke-linecap:butt;stroke-linejoin:round;}</style>
 </defs>
 <g id="figure_1">
  <g id="patch_1">
   <path d="M 0 207.76425 
L 212.828313 207.76425 
L 212.828313 0 
L 0 0 
z
" style="fill:#ffffff;"/>
  </g>
  <g id="axes_1">
   <g id="patch_2">
    <path d="M 35.420313 177.408 
L 212.828313 177.408 
L 212.828313 -0 
L 35.420313 -0 
z
" style="fill:#ffffff;"/>
   </g>
   <g id="PathCollection_1">
    <defs>
     <path d="M 0 1.581139 
C 0.419323 1.581139 0.821528 1.41454 1.118034 1.118034 
C 1.41454 0.821528 1.581139 0.419323 1.581139 -0 
C 1.581139 -0.419323 1.41454 -0.821528 1.118034 -1.118034 
C 0.821528 -1.41454 0.419323 -1.581139 0 -1.581139 
C -0.419323 -1.581139 -0.821528 -1.41454 -1.118034 -1.118034 
C -1.41454 -0.821528 -1.581139 -0.419323 -1.581139 0 
C -1.581139 0.419323 -1.41454 0.821528 -1.118034 1.118034 
C -0.821528 1.41454 -0.419323 1.581139 0 1.581139 
z
" id="C0_0_03a37cdd39"/>
    </defs>
    <g clip-path="url(#p36ad46ebfd)">
     <use style="fill:#440154;stroke:#440154;" x="122.005962" xlink:href="#C0_0_03a37cdd39" y="110.421314"/>
    </g>
    <g clip-path="url(#p36ad46ebfd)">
     <use style="fill:#440154;stroke:#440154;" x="132.637858" xlink:href="#C0_0_03a37cdd39" y="116.238654"/>
    </g>
    <g clip-path="url(#p36ad46ebfd)">
     <use style="fill:#440154;stroke:#440154;" x="109.196197" xlink:href="#C0_0_03a37cdd39" y="126.593942"/>
    </g>
    <g clip-path="url(#p36ad46ebfd)">
     <use style="fill:#440154;stroke:#440154;" x="67.309808" xlink:href="#C0_0_03a37cdd39" y="116.395125"/>
    </g>
    <g clip-path="url(#p36ad46ebfd)">
     <use style="fill:#440154;stroke:#440154;" x="146.435139" xlink:href="#C0_0_03a37cdd39" y="94.179286"/>
    </g>
    <g clip-path="url(#p36ad46ebfd)">
     <use style="fill:#fde725;stroke:#fde725;" x="86.297504" xlink:href="#C0_0_03a37cdd39" y="119.509857"/>
    </g>
    <g clip-path="url(#p36ad46ebfd)">
     <use style="fill:#fde725;stroke:#fde725;" x="86.372521" xlink:href="#C0_0_03a37cdd39" y="79.207866"/>
    </g>
    <g clip-path="url(#p36ad46ebfd)">
     <use style="fill:#440154;stroke:#440154;" x="131.162902" xlink:href="#C0_0_03a37cdd39" y="120.105203"/>
    </g>
    <g clip-path="url(#p36ad46ebfd)">
     <use style="fill:#440154;stroke:#440154;" x="162.156362" xlink:href="#C0_0_03a37cdd39" y="131.404479"/>
    </g>
    <g clip-path="url(#p36ad46ebfd)">
     <use style="fill:#440154;stroke:#440154;" x="141.870539" xlink:href="#C0_0_03a37cdd39" y="110.370227"/>
    </g>
    <g clip-path="url(#p36ad46ebfd)">
     <use style="fill:#440154;stroke:#440154;" x="91.8631" xlink:href="#C0_0_03a37cdd39" y="157.26457"/>
    </g>
    <g clip-path="url(#p36ad46ebfd)">
     <use style="fill:#440154;stroke:#440154;" x="136.788085" xlink:href="#C0_0_03a37cdd39" y="128.207974"/>
    </g>
    <g clip-path="url(#p36ad46ebfd)">
     <use style="fill:#440154;stroke:#440154;" x="127.587543" xlink:href="#C0_0_03a37cdd39" y="145.660384"/>
    </g>
    <g clip-path="url(#p36ad46ebfd)">
     <use style="fill:#440154;stroke:#440154;" x="90.557869" xlink:href="#C0_0_03a37cdd39" y="144.986336"/>
    </g>
    <g clip-path="url(#p36ad46ebfd)">
     <use style="fill:#440154;stroke:#440154;" x="89.372082" xlink:href="#C0_0_03a37cdd39" y="125.124319"/>
    </g>
    <g clip-path="url(#p36ad46ebfd)">
     <use style="fill:#440154;stroke:#440154;" x="135.803872" xlink:href="#C0_0_03a37cdd39" y="119.312296"/>
    </g>
    <g clip-path="url(#p36ad46ebfd)">
     <use style="fill:#440154;stroke:#440154;" x="122.774398" xlink:href="#C0_0_03a37cdd39" y="98.82317"/>
    </g>
    <g clip-path="url(#p36ad46ebfd)">
     <use style="fill:#440154;stroke:#440154;" x="150.524375" xlink:href="#C0_0_03a37cdd39" y="149.079036"/>
    </g>
    <g clip-path="url(#p36ad46ebfd)">
     <use style="fill:#440154;stroke:#440154;" x="94.004152" xlink:href="#C0_0_03a37cdd39" y="80.87401"/>
    </g>
    <g clip-path="url(#p36ad46ebfd)">
     <use style="fill:#440154;stroke:#440154;" x="60.236772" xlink:href="#C0_0_03a37cdd39" y="120.359278"/>
    </g>
    <g clip-path="url(#p36ad46ebfd)">
     <use style="fill:#fde725;stroke:#fde725;" x="145.144964" xlink:href="#C0_0_03a37cdd39" y="124.306632"/>
    </g>
    <g clip-path="url(#p36ad46ebfd)">
     <use style="fill:#440154;stroke:#440154;" x="103.630059" xlink:href="#C0_0_03a37cdd39" y="152.964673"/>
    </g>
    <g clip-path="url(#p36ad46ebfd)">
     <use style="fill:#440154;stroke:#440154;" x="175.709242" xlink:href="#C0_0_03a37cdd39" y="112.674289"/>
    </g>
    <g clip-path="url(#p36ad46ebfd)">
     <use style="fill:#440154;stroke:#440154;" x="173.668082" xlink:href="#C0_0_03a37cdd39" y="98.377388"/>
    </g>
    <g clip-path="url(#p36ad46ebfd)">
     <use style="fill:#fde725;stroke:#fde725;" x="149.000568" xlink:href="#C0_0_03a37cdd39" y="45.747756"/>
    </g>
    <g clip-path="url(#p36ad46ebfd)">
     <use style="fill:#fde725;stroke:#fde725;" x="133.605084" xlink:href="#C0_0_03a37cdd39" y="52.679936"/>
    </g>
    <g clip-path="url(#p36ad46ebfd)">
     <use style="fill:#fde725;stroke:#fde725;" x="135.740919" xlink:href="#C0_0_03a37cdd39" y="22.000702"/>
    </g>
    <g clip-path="url(#p36ad46ebfd)">
     <use style="fill:#fde725;stroke:#fde725;" x="103.995496" xlink:href="#C0_0_03a37cdd39" y="26.917255"/>
    </g>
    <g clip-path="url(#p36ad46ebfd)">
     <use style="fill:#fde725;stroke:#fde725;" x="129.748165" xlink:href="#C0_0_03a37cdd39" y="77.002336"/>
    </g>
    <g clip-path="url(#p36ad46ebfd)">
     <use style="fill:#fde725;stroke:#fde725;" x="106.802366" xlink:href="#C0_0_03a37cdd39" y="74.89313"/>
    </g>
    <g clip-path="url(#p36ad46ebfd)">
     <use style="fill:#440154;stroke:#440154;" x="78.235538" xlink:href="#C0_0_03a37cdd39" y="118.894506"/>
    </g>
    <g clip-path="url(#p36ad46ebfd)">
     <use style="fill:#fde725;stroke:#fde725;" x="174.701579" xlink:href="#C0_0_03a37cdd39" y="79.659124"/>
    </g>
    <g clip-path="url(#p36ad46ebfd)">
     <use style="fill:#fde725;stroke:#fde725;" x="83.616252" xlink:href="#C0_0_03a37cdd39" y="56.27685"/>
    </g>
    <g clip-path="url(#p36ad46ebfd)">
     <use style="fill:#fde725;stroke:#fde725;" x="95.379576" xlink:href="#C0_0_03a37cdd39" y="32.985557"/>
    </g>
    <g clip-path="url(#p36ad46ebfd)">
     <use style="fill:#fde725;stroke:#fde725;" x="78.710923" xlink:href="#C0_0_03a37cdd39" y="56.567203"/>
    </g>
    <g clip-path="url(#p36ad46ebfd)">
     <use style="fill:#fde725;stroke:#fde725;" x="164.499844" xlink:href="#C0_0_03a37cdd39" y="85.948211"/>
    </g>
    <g clip-path="url(#p36ad46ebfd)">
     <use style="fill:#fde725;stroke:#fde725;" x="72.152162" xlink:href="#C0_0_03a37cdd39" y="83.079283"/>
    </g>
    <g clip-path="url(#p36ad46ebfd)">
     <use style="fill:#fde725;stroke:#fde725;" x="112.805271" xlink:href="#C0_0_03a37cdd39" y="103.300599"/>
    </g>
    <g clip-path="url(#p36ad46ebfd)">
     <use style="fill:#fde725;stroke:#fde725;" x="75.005331" xlink:href="#C0_0_03a37cdd39" y="90.788247"/>
    </g>
    <g clip-path="url(#p36ad46ebfd)">
     <use style="fill:#fde725;stroke:#fde725;" x="142.095128" xlink:href="#C0_0_03a37cdd39" y="58.864457"/>
    </g>
    <g clip-path="url(#p36ad46ebfd)">
     <use style="fill:#fde725;stroke:#fde725;" x="92.949873" xlink:href="#C0_0_03a37cdd39" y="63.747059"/>
    </g>
    <g clip-path="url(#p36ad46ebfd)">
     <use style="fill:#fde725;stroke:#fde725;" x="80.909229" xlink:href="#C0_0_03a37cdd39" y="69.812325"/>
    </g>
    <g clip-path="url(#p36ad46ebfd)">
     <use style="fill:#fde725;stroke:#fde725;" x="109.748496" xlink:href="#C0_0_03a37cdd39" y="56.845805"/>
    </g>
    <g clip-path="url(#p36ad46ebfd)">
     <use style="fill:#440154;stroke:#440154;" x="46.314185" xlink:href="#C0_0_03a37cdd39" y="101.451422"/>
    </g>
    <g clip-path="url(#p36ad46ebfd)">
     <use style="fill:#440154;stroke:#440154;" x="51.049014" xlink:href="#C0_0_03a37cdd39" y="131.387865"/>
    </g>
    <g clip-path="url(#p36ad46ebfd)">
     <use style="fill:#440154;stroke:#440154;" x="57.05227" xlink:href="#C0_0_03a37cdd39" y="128.251378"/>
    </g>
    <g clip-path="url(#p36ad46ebfd)">
     <use style="fill:#440154;stroke:#440154;" x="93.211121" xlink:href="#C0_0_03a37cdd39" y="133.900372"/>
    </g>
    <g clip-path="url(#p36ad46ebfd)">
     <use style="fill:#440154;stroke:#440154;" x="127.955333" xlink:href="#C0_0_03a37cdd39" y="149.128636"/>
    </g>
    <g clip-path="url(#p36ad46ebfd)">
     <use style="fill:#440154;stroke:#440154;" x="66.948263" xlink:href="#C0_0_03a37cdd39" y="109.390378"/>
    </g>
    <g clip-path="url(#p36ad46ebfd)">
     <use style="fill:#440154;stroke:#440154;" x="89.903606" xlink:href="#C0_0_03a37cdd39" y="102.902719"/>
    </g>
    <g clip-path="url(#p36ad46ebfd)">
     <use style="fill:#440154;stroke:#440154;" x="164.971066" xlink:href="#C0_0_03a37cdd39" y="118.73639"/>
    </g>
    <g clip-path="url(#p36ad46ebfd)">
     <use style="fill:#440154;stroke:#440154;" x="122.50137" xlink:href="#C0_0_03a37cdd39" y="71.6413"/>
    </g>
    <g clip-path="url(#p36ad46ebfd)">
     <use style="fill:#440154;stroke:#440154;" x="175.867507" xlink:href="#C0_0_03a37cdd39" y="147.80818"/>
    </g>
    <g clip-path="url(#p36ad46ebfd)">
     <use style="fill:#440154;stroke:#440154;" x="123.764833" xlink:href="#C0_0_03a37cdd39" y="135.45139"/>
    </g>
    <g clip-path="url(#p36ad46ebfd)">
     <use style="fill:#440154;stroke:#440154;" x="100.522018" xlink:href="#C0_0_03a37cdd39" y="128.793538"/>
    </g>
    <g clip-path="url(#p36ad46ebfd)">
     <use style="fill:#440154;stroke:#440154;" x="110.098716" xlink:href="#C0_0_03a37cdd39" y="120.781682"/>
    </g>
    <g clip-path="url(#p36ad46ebfd)">
     <use style="fill:#440154;stroke:#440154;" x="170.519972" xlink:href="#C0_0_03a37cdd39" y="121.59323"/>
    </g>
    <g clip-path="url(#p36ad46ebfd)">
     <use style="fill:#440154;stroke:#440154;" x="181.178274" xlink:href="#C0_0_03a37cdd39" y="112.445755"/>
    </g>
    <g clip-path="url(#p36ad46ebfd)">
     <use style="fill:#440154;stroke:#440154;" x="96.445906" xlink:href="#C0_0_03a37cdd39" y="92.865938"/>
    </g>
    <g clip-path="url(#p36ad46ebfd)">
     <use style="fill:#440154;stroke:#440154;" x="111.701947" xlink:href="#C0_0_03a37cdd39" y="125.140642"/>
    </g>
    <g clip-path="url(#p36ad46ebfd)">
     <use style="fill:#440154;stroke:#440154;" x="56.318876" xlink:href="#C0_0_03a37cdd39" y="143.075011"/>
    </g>
    <g clip-path="url(#p36ad46ebfd)">
     <use style="fill:#440154;stroke:#440154;" x="117.767035" xlink:href="#C0_0_03a37cdd39" y="111.912448"/>
    </g>
    <g clip-path="url(#p36ad46ebfd)">
     <use style="fill:#440154;stroke:#440154;" x="141.752403" xlink:href="#C0_0_03a37cdd39" y="117.714238"/>
    </g>
    <g clip-path="url(#p36ad46ebfd)">
     <use style="fill:#440154;stroke:#440154;" x="189.556148" xlink:href="#C0_0_03a37cdd39" y="116.683764"/>
    </g>
    <g clip-path="url(#p36ad46ebfd)">
     <use style="fill:#fde725;stroke:#fde725;" x="86.643503" xlink:href="#C0_0_03a37cdd39" y="65.809816"/>
    </g>
    <g clip-path="url(#p36ad46ebfd)">
     <use style="fill:#fde725;stroke:#fde725;" x="90.813196" xlink:href="#C0_0_03a37cdd39" y="99.878213"/>
    </g>
    <g clip-path="url(#p36ad46ebfd)">
     <use style="fill:#fde725;stroke:#fde725;" x="96.720523" xlink:href="#C0_0_03a37cdd39" y="103.421318"/>
    </g>
    <g clip-path="url(#p36ad46ebfd)">
     <use style="fill:#fde725;stroke:#fde725;" x="141.048292" xlink:href="#C0_0_03a37cdd39" y="41.354882"/>
    </g>
    <g clip-path="url(#p36ad46ebfd)">
     <use style="fill:#440154;stroke:#440154;" x="149.021323" xlink:href="#C0_0_03a37cdd39" y="112.415265"/>
    </g>
    <g clip-path="url(#p36ad46ebfd)">
     <use style="fill:#440154;stroke:#440154;" x="115.924461" xlink:href="#C0_0_03a37cdd39" y="106.904525"/>
    </g>
    <g clip-path="url(#p36ad46ebfd)">
     <use style="fill:#fde725;stroke:#fde725;" x="109.204488" xlink:href="#C0_0_03a37cdd39" y="83.1645"/>
    </g>
    <g clip-path="url(#p36ad46ebfd)">
     <use style="fill:#fde725;stroke:#fde725;" x="118.027472" xlink:href="#C0_0_03a37cdd39" y="73.499178"/>
    </g>
    <g clip-path="url(#p36ad46ebfd)">
     <use style="fill:#440154;stroke:#440154;" x="163.222721" xlink:href="#C0_0_03a37cdd39" y="107.984562"/>
    </g>
    <g clip-path="url(#p36ad46ebfd)">
     <use style="fill:#440154;stroke:#440154;" x="195.908372" xlink:href="#C0_0_03a37cdd39" y="140.369323"/>
    </g>
    <g clip-path="url(#p36ad46ebfd)">
     <use style="fill:#fde725;stroke:#fde725;" x="105.341295" xlink:href="#C0_0_03a37cdd39" y="33.513369"/>
    </g>
    <g clip-path="url(#p36ad46ebfd)">
     <use style="fill:#fde725;stroke:#fde725;" x="155.855438" xlink:href="#C0_0_03a37cdd39" y="76.398799"/>
    </g>
    <g clip-path="url(#p36ad46ebfd)">
     <use style="fill:#fde725;stroke:#fde725;" x="61.885414" xlink:href="#C0_0_03a37cdd39" y="93.004068"/>
    </g>
    <g clip-path="url(#p36ad46ebfd)">
     <use style="fill:#fde725;stroke:#fde725;" x="108.960553" xlink:href="#C0_0_03a37cdd39" y="68.740091"/>
    </g>
    <g clip-path="url(#p36ad46ebfd)">
     <use style="fill:#fde725;stroke:#fde725;" x="113.206501" xlink:href="#C0_0_03a37cdd39" y="43.086441"/>
    </g>
    <g clip-path="url(#p36ad46ebfd)">
     <use style="fill:#fde725;stroke:#fde725;" x="151.238477" xlink:href="#C0_0_03a37cdd39" y="46.071303"/>
    </g>
    <g clip-path="url(#p36ad46ebfd)">
     <use style="fill:#fde725;stroke:#fde725;" x="128.696667" xlink:href="#C0_0_03a37cdd39" y="8.064"/>
    </g>
    <g clip-path="url(#p36ad46ebfd)">
     <use style="fill:#fde725;stroke:#fde725;" x="181.431303" xlink:href="#C0_0_03a37cdd39" y="83.308261"/>
    </g>
    <g clip-path="url(#p36ad46ebfd)">
     <use style="fill:#440154;stroke:#440154;" x="94.095311" xlink:href="#C0_0_03a37cdd39" y="94.694603"/>
    </g>
    <g clip-path="url(#p36ad46ebfd)">
     <use style="fill:#fde725;stroke:#fde725;" x="140.279658" xlink:href="#C0_0_03a37cdd39" y="96.871755"/>
    </g>
    <g clip-path="url(#p36ad46ebfd)">
     <use style="fill:#440154;stroke:#440154;" x="81.389333" xlink:href="#C0_0_03a37cdd39" y="90.3345"/>
    </g>
    <g clip-path="url(#p36ad46ebfd)">
     <use style="fill:#440154;stroke:#440154;" x="99.718541" xlink:href="#C0_0_03a37cdd39" y="109.269624"/>
    </g>
    <g clip-path="url(#p36ad46ebfd)">
     <use style="fill:#440154;stroke:#440154;" x="121.833741" xlink:href="#C0_0_03a37cdd39" y="119.149309"/>
    </g>
    <g clip-path="url(#p36ad46ebfd)">
     <use style="fill:#440154;stroke:#440154;" x="112.178464" xlink:href="#C0_0_03a37cdd39" y="108.214369"/>
    </g>
    <g clip-path="url(#p36ad46ebfd)">
     <use style="fill:#fde725;stroke:#fde725;" x="176.228452" xlink:href="#C0_0_03a37cdd39" y="86.30247"/>
    </g>
    <g clip-path="url(#p36ad46ebfd)">
     <use style="fill:#440154;stroke:#440154;" x="174.986516" xlink:href="#C0_0_03a37cdd39" y="107.990441"/>
    </g>
    <g clip-path="url(#p36ad46ebfd)">
     <use style="fill:#440154;stroke:#440154;" x="114.489494" xlink:href="#C0_0_03a37cdd39" y="149.818223"/>
    </g>
    <g clip-path="url(#p36ad46ebfd)">
     <use style="fill:#440154;stroke:#440154;" x="49.43881" xlink:href="#C0_0_03a37cdd39" y="124.916768"/>
    </g>
    <g clip-path="url(#p36ad46ebfd)">
     <use style="fill:#440154;stroke:#440154;" x="78.912286" xlink:href="#C0_0_03a37cdd39" y="127.910443"/>
    </g>
    <g clip-path="url(#p36ad46ebfd)">
     <use style="fill:#440154;stroke:#440154;" x="186.70644" xlink:href="#C0_0_03a37cdd39" y="105.35828"/>
    </g>
    <g clip-path="url(#p36ad46ebfd)">
     <use style="fill:#440154;stroke:#440154;" x="114.185552" xlink:href="#C0_0_03a37cdd39" y="120.63468"/>
    </g>
    <g clip-path="url(#p36ad46ebfd)">
     <use style="fill:#440154;stroke:#440154;" x="82.951015" xlink:href="#C0_0_03a37cdd39" y="121.63419"/>
    </g>
    <g clip-path="url(#p36ad46ebfd)">
     <use style="fill:#440154;stroke:#440154;" x="168.825606" xlink:href="#C0_0_03a37cdd39" y="152.83535"/>
    </g>
    <g clip-path="url(#p36ad46ebfd)">
     <use style="fill:#440154;stroke:#440154;" x="144.350564" xlink:href="#C0_0_03a37cdd39" y="127.823641"/>
    </g>
    <g clip-path="url(#p36ad46ebfd)">
     <use style="fill:#440154;stroke:#440154;" x="143.224689" xlink:href="#C0_0_03a37cdd39" y="132.591258"/>
    </g>
    <g clip-path="url(#p36ad46ebfd)">
     <use style="fill:#440154;stroke:#440154;" x="134.086728" xlink:href="#C0_0_03a37cdd39" y="99.944141"/>
    </g>
    <g clip-path="url(#p36ad46ebfd)">
     <use style="fill:#440154;stroke:#440154;" x="179.056301" xlink:href="#C0_0_03a37cdd39" y="124.223916"/>
    </g>
    <g clip-path="url(#p36ad46ebfd)">
     <use style="fill:#440154;stroke:#440154;" x="166.665548" xlink:href="#C0_0_03a37cdd39" y="159.541015"/>
    </g>
    <g clip-path="url(#p36ad46ebfd)">
     <use style="fill:#440154;stroke:#440154;" x="144.562346" xlink:href="#C0_0_03a37cdd39" y="111.022848"/>
    </g>
    <g clip-path="url(#p36ad46ebfd)">
     <use style="fill:#440154;stroke:#440154;" x="57.813905" xlink:href="#C0_0_03a37cdd39" y="89.199737"/>
    </g>
    <g clip-path="url(#p36ad46ebfd)">
     <use style="fill:#440154;stroke:#440154;" x="73.154341" xlink:href="#C0_0_03a37cdd39" y="131.347395"/>
    </g>
    <g clip-path="url(#p36ad46ebfd)">
     <use style="fill:#440154;stroke:#440154;" x="135.965096" xlink:href="#C0_0_03a37cdd39" y="110.499555"/>
    </g>
    <g clip-path="url(#p36ad46ebfd)">
     <use style="fill:#fde725;stroke:#fde725;" x="129.753484" xlink:href="#C0_0_03a37cdd39" y="90.032627"/>
    </g>
    <g clip-path="url(#p36ad46ebfd)">
     <use style="fill:#fde725;stroke:#fde725;" x="149.883126" xlink:href="#C0_0_03a37cdd39" y="79.851052"/>
    </g>
    <g clip-path="url(#p36ad46ebfd)">
     <use style="fill:#fde725;stroke:#fde725;" x="170.954725" xlink:href="#C0_0_03a37cdd39" y="119.183687"/>
    </g>
    <g clip-path="url(#p36ad46ebfd)">
     <use style="fill:#fde725;stroke:#fde725;" x="105.482685" xlink:href="#C0_0_03a37cdd39" y="9.191645"/>
    </g>
    <g clip-path="url(#p36ad46ebfd)">
     <use style="fill:#fde725;stroke:#fde725;" x="142.799075" xlink:href="#C0_0_03a37cdd39" y="20.623705"/>
    </g>
    <g clip-path="url(#p36ad46ebfd)">
     <use style="fill:#fde725;stroke:#fde725;" x="104.710368" xlink:href="#C0_0_03a37cdd39" y="15.620106"/>
    </g>
    <g clip-path="url(#p36ad46ebfd)">
     <use style="fill:#fde725;stroke:#fde725;" x="125.262462" xlink:href="#C0_0_03a37cdd39" y="29.994299"/>
    </g>
    <g clip-path="url(#p36ad46ebfd)">
     <use style="fill:#fde725;stroke:#fde725;" x="89.66765" xlink:href="#C0_0_03a37cdd39" y="57.786326"/>
    </g>
    <g clip-path="url(#p36ad46ebfd)">
     <use style="fill:#fde725;stroke:#fde725;" x="78.412133" xlink:href="#C0_0_03a37cdd39" y="68.491418"/>
    </g>
    <g clip-path="url(#p36ad46ebfd)">
     <use style="fill:#fde725;stroke:#fde725;" x="82.463917" xlink:href="#C0_0_03a37cdd39" y="65.652166"/>
    </g>
    <g clip-path="url(#p36ad46ebfd)">
     <use style="fill:#fde725;stroke:#fde725;" x="167.580577" xlink:href="#C0_0_03a37cdd39" y="55.033261"/>
    </g>
    <g clip-path="url(#p36ad46ebfd)">
     <use style="fill:#fde725;stroke:#fde725;" x="141.10866" xlink:href="#C0_0_03a37cdd39" y="31.036427"/>
    </g>
    <g clip-path="url(#p36ad46ebfd)">
     <use style="fill:#fde725;stroke:#fde725;" x="126.692195" xlink:href="#C0_0_03a37cdd39" y="74.623325"/>
    </g>
    <g clip-path="url(#p36ad46ebfd)">
     <use style="fill:#fde725;stroke:#fde725;" x="122.516088" xlink:href="#C0_0_03a37cdd39" y="80.152752"/>
    </g>
    <g clip-path="url(#p36ad46ebfd)">
     <use style="fill:#440154;stroke:#440154;" x="101.631619" xlink:href="#C0_0_03a37cdd39" y="92.008126"/>
    </g>
    <g clip-path="url(#p36ad46ebfd)">
     <use style="fill:#440154;stroke:#440154;" x="72.561785" xlink:href="#C0_0_03a37cdd39" y="112.103456"/>
    </g>
    <g clip-path="url(#p36ad46ebfd)">
     <use style="fill:#440154;stroke:#440154;" x="134.598115" xlink:href="#C0_0_03a37cdd39" y="122.653981"/>
    </g>
    <g clip-path="url(#p36ad46ebfd)">
     <use style="fill:#fde725;stroke:#fde725;" x="137.120891" xlink:href="#C0_0_03a37cdd39" y="85.339558"/>
    </g>
    <g clip-path="url(#p36ad46ebfd)">
     <use style="fill:#440154;stroke:#440154;" x="43.062601" xlink:href="#C0_0_03a37cdd39" y="141.890329"/>
    </g>
    <g clip-path="url(#p36ad46ebfd)">
     <use style="fill:#440154;stroke:#440154;" x="100.702987" xlink:href="#C0_0_03a37cdd39" y="155.945189"/>
    </g>
    <g clip-path="url(#p36ad46ebfd)">
     <use style="fill:#440154;stroke:#440154;" x="125.406346" xlink:href="#C0_0_03a37cdd39" y="114.551924"/>
    </g>
    <g clip-path="url(#p36ad46ebfd)">
     <use style="fill:#440154;stroke:#440154;" x="125.048422" xlink:href="#C0_0_03a37cdd39" y="129.879263"/>
    </g>
    <g clip-path="url(#p36ad46ebfd)">
     <use style="fill:#440154;stroke:#440154;" x="89.10871" xlink:href="#C0_0_03a37cdd39" y="134.510627"/>
    </g>
    <g clip-path="url(#p36ad46ebfd)">
     <use style="fill:#440154;stroke:#440154;" x="87.792889" xlink:href="#C0_0_03a37cdd39" y="136.774486"/>
    </g>
    <g clip-path="url(#p36ad46ebfd)">
     <use style="fill:#440154;stroke:#440154;" x="156.928422" xlink:href="#C0_0_03a37cdd39" y="123.620276"/>
    </g>
    <g clip-path="url(#p36ad46ebfd)">
     <use style="fill:#440154;stroke:#440154;" x="132.929917" xlink:href="#C0_0_03a37cdd39" y="116.900529"/>
    </g>
    <g clip-path="url(#p36ad46ebfd)">
     <use style="fill:#440154;stroke:#440154;" x="103.131479" xlink:href="#C0_0_03a37cdd39" y="169.344"/>
    </g>
    <g clip-path="url(#p36ad46ebfd)">
     <use style="fill:#440154;stroke:#440154;" x="113.900701" xlink:href="#C0_0_03a37cdd39" y="151.742182"/>
    </g>
    <g clip-path="url(#p36ad46ebfd)">
     <use style="fill:#440154;stroke:#440154;" x="136.559002" xlink:href="#C0_0_03a37cdd39" y="129.839755"/>
    </g>
    <g clip-path="url(#p36ad46ebfd)">
     <use style="fill:#440154;stroke:#440154;" x="75.717344" xlink:href="#C0_0_03a37cdd39" y="102.849195"/>
    </g>
    <g clip-path="url(#p36ad46ebfd)">
     <use style="fill:#440154;stroke:#440154;" x="115.784098" xlink:href="#C0_0_03a37cdd39" y="86.52508"/>
    </g>
    <g clip-path="url(#p36ad46ebfd)">
     <use style="fill:#440154;stroke:#440154;" x="115.063236" xlink:href="#C0_0_03a37cdd39" y="92.27442"/>
    </g>
    <g clip-path="url(#p36ad46ebfd)">
     <use style="fill:#440154;stroke:#440154;" x="69.766186" xlink:href="#C0_0_03a37cdd39" y="92.122691"/>
    </g>
    <g clip-path="url(#p36ad46ebfd)">
     <use style="fill:#440154;stroke:#440154;" x="98.765793" xlink:href="#C0_0_03a37cdd39" y="134.492402"/>
    </g>
    <g clip-path="url(#p36ad46ebfd)">
     <use style="fill:#440154;stroke:#440154;" x="161.819819" xlink:href="#C0_0_03a37cdd39" y="159.362558"/>
    </g>
    <g clip-path="url(#p36ad46ebfd)">
     <use style="fill:#440154;stroke:#440154;" x="115.490498" xlink:href="#C0_0_03a37cdd39" y="129.151313"/>
    </g>
    <g clip-path="url(#p36ad46ebfd)">
     <use style="fill:#440154;stroke:#440154;" x="113.490659" xlink:href="#C0_0_03a37cdd39" y="122.349946"/>
    </g>
    <g clip-path="url(#p36ad46ebfd)">
     <use style="fill:#440154;stroke:#440154;" x="134.988429" xlink:href="#C0_0_03a37cdd39" y="102.897028"/>
    </g>
    <g clip-path="url(#p36ad46ebfd)">
     <use style="fill:#440154;stroke:#440154;" x="126.296066" xlink:href="#C0_0_03a37cdd39" y="105.411831"/>
    </g>
    <g clip-path="url(#p36ad46ebfd)">
     <use style="fill:#440154;stroke:#440154;" x="90.966217" xlink:href="#C0_0_03a37cdd39" y="98.294173"/>
    </g>
    <g clip-path="url(#p36ad46ebfd)">
     <use style="fill:#440154;stroke:#440154;" x="81.480851" xlink:href="#C0_0_03a37cdd39" y="140.288436"/>
    </g>
    <g clip-path="url(#p36ad46ebfd)">
     <use style="fill:#440154;stroke:#440154;" x="64.274657" xlink:href="#C0_0_03a37cdd39" y="112.949411"/>
    </g>
    <g clip-path="url(#p36ad46ebfd)">
     <use style="fill:#440154;stroke:#440154;" x="145.774241" xlink:href="#C0_0_03a37cdd39" y="116.851145"/>
    </g>
    <g clip-path="url(#p36ad46ebfd)">
     <use style="fill:#440154;stroke:#440154;" x="101.730715" xlink:href="#C0_0_03a37cdd39" y="132.953356"/>
    </g>
    <g clip-path="url(#p36ad46ebfd)">
     <use style="fill:#440154;stroke:#440154;" x="190.548987" xlink:href="#C0_0_03a37cdd39" y="100.163322"/>
    </g>
    <g clip-path="url(#p36ad46ebfd)">
     <use style="fill:#440154;stroke:#440154;" x="149.744713" xlink:href="#C0_0_03a37cdd39" y="131.625955"/>
    </g>
    <g clip-path="url(#p36ad46ebfd)">
     <use style="fill:#440154;stroke:#440154;" x="127.499074" xlink:href="#C0_0_03a37cdd39" y="83.912811"/>
    </g>
    <g clip-path="url(#p36ad46ebfd)">
     <use style="fill:#440154;stroke:#440154;" x="75.263314" xlink:href="#C0_0_03a37cdd39" y="130.708765"/>
    </g>
    <g clip-path="url(#p36ad46ebfd)">
     <use style="fill:#440154;stroke:#440154;" x="104.663529" xlink:href="#C0_0_03a37cdd39" y="113.970861"/>
    </g>
   </g>
   <g id="matplotlib.axis_1">
    <g id="xtick_1">
     <g id="line2d_1">
      <defs>
       <path d="M 0 0 
L 0 3.5 
" id="mb96bd3b77f" style="stroke:#000000;stroke-width:0.8;"/>
      </defs>
      <g>
       <use style="stroke:#000000;stroke-width:0.8;" x="39.859882" xlink:href="#mb96bd3b77f" y="177.408"/>
      </g>
     </g>
     <g id="text_1">
      <!-- −10 -->
      <g transform="translate(29.307538 192.006437)scale(0.1 -0.1)">
       <defs>
        <path d="M 678 2272 
L 4684 2272 
L 4684 1741 
L 678 1741 
L 678 2272 
z
" id="DejaVuSans-2212" transform="scale(0.015625)"/>
        <path d="M 794 531 
L 1825 531 
L 1825 4091 
L 703 3866 
L 703 4441 
L 1819 4666 
L 2450 4666 
L 2450 531 
L 3481 531 
L 3481 0 
L 794 0 
L 794 531 
z
" id="DejaVuSans-31" transform="scale(0.015625)"/>
        <path d="M 2034 4250 
Q 1547 4250 1301 3770 
Q 1056 3291 1056 2328 
Q 1056 1369 1301 889 
Q 1547 409 2034 409 
Q 2525 409 2770 889 
Q 3016 1369 3016 2328 
Q 3016 3291 2770 3770 
Q 2525 4250 2034 4250 
z
M 2034 4750 
Q 2819 4750 3233 4129 
Q 3647 3509 3647 2328 
Q 3647 1150 3233 529 
Q 2819 -91 2034 -91 
Q 1250 -91 836 529 
Q 422 1150 422 2328 
Q 422 3509 836 4129 
Q 1250 4750 2034 4750 
z
" id="DejaVuSans-30" transform="scale(0.015625)"/>
       </defs>
       <use xlink:href="#DejaVuSans-2212"/>
       <use x="83.789062" xlink:href="#DejaVuSans-31"/>
       <use x="147.412109" xlink:href="#DejaVuSans-30"/>
      </g>
     </g>
    </g>
    <g id="xtick_2">
     <g id="line2d_2">
      <g>
       <use style="stroke:#000000;stroke-width:0.8;" x="78.973035" xlink:href="#mb96bd3b77f" y="177.408"/>
      </g>
     </g>
     <g id="text_2">
      <!-- −5 -->
      <g transform="translate(71.601941 192.006437)scale(0.1 -0.1)">
       <defs>
        <path d="M 691 4666 
L 3169 4666 
L 3169 4134 
L 1269 4134 
L 1269 2991 
Q 1406 3038 1543 3061 
Q 1681 3084 1819 3084 
Q 2600 3084 3056 2656 
Q 3513 2228 3513 1497 
Q 3513 744 3044 326 
Q 2575 -91 1722 -91 
Q 1428 -91 1123 -41 
Q 819 9 494 109 
L 494 744 
Q 775 591 1075 516 
Q 1375 441 1709 441 
Q 2250 441 2565 725 
Q 2881 1009 2881 1497 
Q 2881 1984 2565 2268 
Q 2250 2553 1709 2553 
Q 1456 2553 1204 2497 
Q 953 2441 691 2322 
L 691 4666 
z
" id="DejaVuSans-35" transform="scale(0.015625)"/>
       </defs>
       <use xlink:href="#DejaVuSans-2212"/>
       <use x="83.789062" xlink:href="#DejaVuSans-35"/>
      </g>
     </g>
    </g>
    <g id="xtick_3">
     <g id="line2d_3">
      <g>
       <use style="stroke:#000000;stroke-width:0.8;" x="118.086188" xlink:href="#mb96bd3b77f" y="177.408"/>
      </g>
     </g>
     <g id="text_3">
      <!-- 0 -->
      <g transform="translate(114.904938 192.006437)scale(0.1 -0.1)">
       <use xlink:href="#DejaVuSans-30"/>
      </g>
     </g>
    </g>
    <g id="xtick_4">
     <g id="line2d_4">
      <g>
       <use style="stroke:#000000;stroke-width:0.8;" x="157.199341" xlink:href="#mb96bd3b77f" y="177.408"/>
      </g>
     </g>
     <g id="text_4">
      <!-- 5 -->
      <g transform="translate(154.018091 192.006437)scale(0.1 -0.1)">
       <use xlink:href="#DejaVuSans-35"/>
      </g>
     </g>
    </g>
    <g id="xtick_5">
     <g id="line2d_5">
      <g>
       <use style="stroke:#000000;stroke-width:0.8;" x="196.312494" xlink:href="#mb96bd3b77f" y="177.408"/>
      </g>
     </g>
     <g id="text_5">
      <!-- 10 -->
      <g transform="translate(189.949994 192.006437)scale(0.1 -0.1)">
       <use xlink:href="#DejaVuSans-31"/>
       <use x="63.623047" xlink:href="#DejaVuSans-30"/>
      </g>
     </g>
    </g>
    <g id="text_6">
     <!-- 1.54% -->
     <g transform="translate(108.240719 205.684562)scale(0.1 -0.1)">
      <defs>
       <path d="M 684 794 
L 1344 794 
L 1344 0 
L 684 0 
L 684 794 
z
" id="DejaVuSans-2e" transform="scale(0.015625)"/>
       <path d="M 2419 4116 
L 825 1625 
L 2419 1625 
L 2419 4116 
z
M 2253 4666 
L 3047 4666 
L 3047 1625 
L 3713 1625 
L 3713 1100 
L 3047 1100 
L 3047 0 
L 2419 0 
L 2419 1100 
L 313 1100 
L 313 1709 
L 2253 4666 
z
" id="DejaVuSans-34" transform="scale(0.015625)"/>
       <path d="M 4653 2053 
Q 4381 2053 4226 1822 
Q 4072 1591 4072 1178 
Q 4072 772 4226 539 
Q 4381 306 4653 306 
Q 4919 306 5073 539 
Q 5228 772 5228 1178 
Q 5228 1588 5073 1820 
Q 4919 2053 4653 2053 
z
M 4653 2450 
Q 5147 2450 5437 2106 
Q 5728 1763 5728 1178 
Q 5728 594 5436 251 
Q 5144 -91 4653 -91 
Q 4153 -91 3862 251 
Q 3572 594 3572 1178 
Q 3572 1766 3864 2108 
Q 4156 2450 4653 2450 
z
M 1428 4353 
Q 1159 4353 1004 4120 
Q 850 3888 850 3481 
Q 850 3069 1003 2837 
Q 1156 2606 1428 2606 
Q 1700 2606 1854 2837 
Q 2009 3069 2009 3481 
Q 2009 3884 1853 4118 
Q 1697 4353 1428 4353 
z
M 4250 4750 
L 4750 4750 
L 1831 -91 
L 1331 -91 
L 4250 4750 
z
M 1428 4750 
Q 1922 4750 2215 4408 
Q 2509 4066 2509 3481 
Q 2509 2891 2217 2550 
Q 1925 2209 1428 2209 
Q 931 2209 642 2551 
Q 353 2894 353 3481 
Q 353 4063 643 4406 
Q 934 4750 1428 4750 
z
" id="DejaVuSans-25" transform="scale(0.015625)"/>
      </defs>
      <use xlink:href="#DejaVuSans-31"/>
      <use x="63.623047" xlink:href="#DejaVuSans-2e"/>
      <use x="95.410156" xlink:href="#DejaVuSans-35"/>
      <use x="159.033203" xlink:href="#DejaVuSans-34"/>
      <use x="222.65625" xlink:href="#DejaVuSans-25"/>
     </g>
    </g>
   </g>
   <g id="matplotlib.axis_2">
    <g id="ytick_1">
     <g id="line2d_6">
      <defs>
       <path d="M 0 0 
L -3.5 0 
" id="mfaadaa4885" style="stroke:#000000;stroke-width:0.8;"/>
      </defs>
      <g>
       <use style="stroke:#000000;stroke-width:0.8;" x="35.420313" xlink:href="#mfaadaa4885" y="141.385117"/>
      </g>
     </g>
     <g id="text_7">
      <!-- −5 -->
      <g transform="translate(13.678125 145.184336)scale(0.1 -0.1)">
       <use xlink:href="#DejaVuSans-2212"/>
       <use x="83.789062" xlink:href="#DejaVuSans-35"/>
      </g>
     </g>
    </g>
    <g id="ytick_2">
     <g id="line2d_7">
      <g>
       <use style="stroke:#000000;stroke-width:0.8;" x="35.420313" xlink:href="#mfaadaa4885" y="102.271964"/>
      </g>
     </g>
     <g id="text_8">
      <!-- 0 -->
      <g transform="translate(22.057813 106.071183)scale(0.1 -0.1)">
       <use xlink:href="#DejaVuSans-30"/>
      </g>
     </g>
    </g>
    <g id="ytick_3">
     <g id="line2d_8">
      <g>
       <use style="stroke:#000000;stroke-width:0.8;" x="35.420313" xlink:href="#mfaadaa4885" y="63.158811"/>
      </g>
     </g>
     <g id="text_9">
      <!-- 5 -->
      <g transform="translate(22.057813 66.95803)scale(0.1 -0.1)">
       <use xlink:href="#DejaVuSans-35"/>
      </g>
     </g>
    </g>
    <g id="ytick_4">
     <g id="line2d_9">
      <g>
       <use style="stroke:#000000;stroke-width:0.8;" x="35.420313" xlink:href="#mfaadaa4885" y="24.045658"/>
      </g>
     </g>
     <g id="text_10">
      <!-- 10 -->
      <g transform="translate(15.695312 27.844877)scale(0.1 -0.1)">
       <use xlink:href="#DejaVuSans-31"/>
       <use x="63.623047" xlink:href="#DejaVuSans-30"/>
      </g>
     </g>
    </g>
    <g id="text_11">
     <!-- 1.48% -->
     <g transform="translate(7.598437 104.587594)rotate(-90)scale(0.1 -0.1)">
      <defs>
       <path d="M 2034 2216 
Q 1584 2216 1326 1975 
Q 1069 1734 1069 1313 
Q 1069 891 1326 650 
Q 1584 409 2034 409 
Q 2484 409 2743 651 
Q 3003 894 3003 1313 
Q 3003 1734 2745 1975 
Q 2488 2216 2034 2216 
z
M 1403 2484 
Q 997 2584 770 2862 
Q 544 3141 544 3541 
Q 544 4100 942 4425 
Q 1341 4750 2034 4750 
Q 2731 4750 3128 4425 
Q 3525 4100 3525 3541 
Q 3525 3141 3298 2862 
Q 3072 2584 2669 2484 
Q 3125 2378 3379 2068 
Q 3634 1759 3634 1313 
Q 3634 634 3220 271 
Q 2806 -91 2034 -91 
Q 1263 -91 848 271 
Q 434 634 434 1313 
Q 434 1759 690 2068 
Q 947 2378 1403 2484 
z
M 1172 3481 
Q 1172 3119 1398 2916 
Q 1625 2713 2034 2713 
Q 2441 2713 2670 2916 
Q 2900 3119 2900 3481 
Q 2900 3844 2670 4047 
Q 2441 4250 2034 4250 
Q 1625 4250 1398 4047 
Q 1172 3844 1172 3481 
z
" id="DejaVuSans-38" transform="scale(0.015625)"/>
      </defs>
      <use xlink:href="#DejaVuSans-31"/>
      <use x="63.623047" xlink:href="#DejaVuSans-2e"/>
      <use x="95.410156" xlink:href="#DejaVuSans-34"/>
      <use x="159.033203" xlink:href="#DejaVuSans-38"/>
      <use x="222.65625" xlink:href="#DejaVuSans-25"/>
     </g>
    </g>
   </g>
   <g id="patch_3">
    <path d="M 35.420313 177.408 
L 35.420313 -0 
" style="fill:none;stroke:#000000;stroke-linecap:square;stroke-linejoin:miter;stroke-width:0.8;"/>
   </g>
   <g id="patch_4">
    <path d="M 212.828313 177.408 
L 212.828313 -0 
" style="fill:none;stroke:#000000;stroke-linecap:square;stroke-linejoin:miter;stroke-width:0.8;"/>
   </g>
   <g id="patch_5">
    <path d="M 35.420313 177.408 
L 212.828313 177.408 
" style="fill:none;stroke:#000000;stroke-linecap:square;stroke-linejoin:miter;stroke-width:0.8;"/>
   </g>
   <g id="patch_6">
    <path d="M 35.420313 -0 
L 212.828313 -0 
" style="fill:none;stroke:#000000;stroke-linecap:square;stroke-linejoin:miter;stroke-width:0.8;"/>
   </g>
   <g id="legend_1">
    <g id="patch_7">
     <path d="M 89.078313 37.35625 
L 205.828313 37.35625 
Q 207.828313 37.35625 207.828313 35.35625 
L 207.828313 7 
Q 207.828313 5 205.828313 5 
L 89.078313 5 
Q 87.078313 5 87.078313 7 
L 87.078313 35.35625 
Q 87.078313 37.35625 89.078313 37.35625 
z
" style="fill:#ffffff;opacity:0.8;stroke:#cccccc;stroke-linejoin:miter;"/>
    </g>
    <g id="line2d_10"/>
    <g id="line2d_11">
     <defs>
      <path d="M 0 3 
C 0.795609 3 1.55874 2.683901 2.12132 2.12132 
C 2.683901 1.55874 3 0.795609 3 0 
C 3 -0.795609 2.683901 -1.55874 2.12132 -2.12132 
C 1.55874 -2.683901 0.795609 -3 0 -3 
C -0.795609 -3 -1.55874 -2.683901 -2.12132 -2.12132 
C -2.683901 -1.55874 -3 -0.795609 -3 0 
C -3 0.795609 -2.683901 1.55874 -2.12132 2.12132 
C -1.55874 2.683901 -0.795609 3 0 3 
z
" id="m91673c0114" style="stroke:#440154;"/>
     </defs>
     <g>
      <use style="fill:#440154;stroke:#440154;" x="101.078313" xlink:href="#m91673c0114" y="13.098437"/>
     </g>
    </g>
    <g id="text_12">
     <!-- B. pendula north -->
     <g transform="translate(119.078313 16.598437)scale(0.1 -0.1)">
      <defs>
       <path d="M 1259 2228 
L 1259 519 
L 2272 519 
Q 2781 519 3026 730 
Q 3272 941 3272 1375 
Q 3272 1813 3026 2020 
Q 2781 2228 2272 2228 
L 1259 2228 
z
M 1259 4147 
L 1259 2741 
L 2194 2741 
Q 2656 2741 2882 2914 
Q 3109 3088 3109 3444 
Q 3109 3797 2882 3972 
Q 2656 4147 2194 4147 
L 1259 4147 
z
M 628 4666 
L 2241 4666 
Q 2963 4666 3353 4366 
Q 3744 4066 3744 3513 
Q 3744 3084 3544 2831 
Q 3344 2578 2956 2516 
Q 3422 2416 3680 2098 
Q 3938 1781 3938 1306 
Q 3938 681 3513 340 
Q 3088 0 2303 0 
L 628 0 
L 628 4666 
z
" id="DejaVuSans-42" transform="scale(0.015625)"/>
       <path id="DejaVuSans-20" transform="scale(0.015625)"/>
       <path d="M 1159 525 
L 1159 -1331 
L 581 -1331 
L 581 3500 
L 1159 3500 
L 1159 2969 
Q 1341 3281 1617 3432 
Q 1894 3584 2278 3584 
Q 2916 3584 3314 3078 
Q 3713 2572 3713 1747 
Q 3713 922 3314 415 
Q 2916 -91 2278 -91 
Q 1894 -91 1617 61 
Q 1341 213 1159 525 
z
M 3116 1747 
Q 3116 2381 2855 2742 
Q 2594 3103 2138 3103 
Q 1681 3103 1420 2742 
Q 1159 2381 1159 1747 
Q 1159 1113 1420 752 
Q 1681 391 2138 391 
Q 2594 391 2855 752 
Q 3116 1113 3116 1747 
z
" id="DejaVuSans-70" transform="scale(0.015625)"/>
       <path d="M 3597 1894 
L 3597 1613 
L 953 1613 
Q 991 1019 1311 708 
Q 1631 397 2203 397 
Q 2534 397 2845 478 
Q 3156 559 3463 722 
L 3463 178 
Q 3153 47 2828 -22 
Q 2503 -91 2169 -91 
Q 1331 -91 842 396 
Q 353 884 353 1716 
Q 353 2575 817 3079 
Q 1281 3584 2069 3584 
Q 2775 3584 3186 3129 
Q 3597 2675 3597 1894 
z
M 3022 2063 
Q 3016 2534 2758 2815 
Q 2500 3097 2075 3097 
Q 1594 3097 1305 2825 
Q 1016 2553 972 2059 
L 3022 2063 
z
" id="DejaVuSans-65" transform="scale(0.015625)"/>
       <path d="M 3513 2113 
L 3513 0 
L 2938 0 
L 2938 2094 
Q 2938 2591 2744 2837 
Q 2550 3084 2163 3084 
Q 1697 3084 1428 2787 
Q 1159 2491 1159 1978 
L 1159 0 
L 581 0 
L 581 3500 
L 1159 3500 
L 1159 2956 
Q 1366 3272 1645 3428 
Q 1925 3584 2291 3584 
Q 2894 3584 3203 3211 
Q 3513 2838 3513 2113 
z
" id="DejaVuSans-6e" transform="scale(0.015625)"/>
       <path d="M 2906 2969 
L 2906 4863 
L 3481 4863 
L 3481 0 
L 2906 0 
L 2906 525 
Q 2725 213 2448 61 
Q 2172 -91 1784 -91 
Q 1150 -91 751 415 
Q 353 922 353 1747 
Q 353 2572 751 3078 
Q 1150 3584 1784 3584 
Q 2172 3584 2448 3432 
Q 2725 3281 2906 2969 
z
M 947 1747 
Q 947 1113 1208 752 
Q 1469 391 1925 391 
Q 2381 391 2643 752 
Q 2906 1113 2906 1747 
Q 2906 2381 2643 2742 
Q 2381 3103 1925 3103 
Q 1469 3103 1208 2742 
Q 947 2381 947 1747 
z
" id="DejaVuSans-64" transform="scale(0.015625)"/>
       <path d="M 544 1381 
L 544 3500 
L 1119 3500 
L 1119 1403 
Q 1119 906 1312 657 
Q 1506 409 1894 409 
Q 2359 409 2629 706 
Q 2900 1003 2900 1516 
L 2900 3500 
L 3475 3500 
L 3475 0 
L 2900 0 
L 2900 538 
Q 2691 219 2414 64 
Q 2138 -91 1772 -91 
Q 1169 -91 856 284 
Q 544 659 544 1381 
z
M 1991 3584 
L 1991 3584 
z
" id="DejaVuSans-75" transform="scale(0.015625)"/>
       <path d="M 603 4863 
L 1178 4863 
L 1178 0 
L 603 0 
L 603 4863 
z
" id="DejaVuSans-6c" transform="scale(0.015625)"/>
       <path d="M 2194 1759 
Q 1497 1759 1228 1600 
Q 959 1441 959 1056 
Q 959 750 1161 570 
Q 1363 391 1709 391 
Q 2188 391 2477 730 
Q 2766 1069 2766 1631 
L 2766 1759 
L 2194 1759 
z
M 3341 1997 
L 3341 0 
L 2766 0 
L 2766 531 
Q 2569 213 2275 61 
Q 1981 -91 1556 -91 
Q 1019 -91 701 211 
Q 384 513 384 1019 
Q 384 1609 779 1909 
Q 1175 2209 1959 2209 
L 2766 2209 
L 2766 2266 
Q 2766 2663 2505 2880 
Q 2244 3097 1772 3097 
Q 1472 3097 1187 3025 
Q 903 2953 641 2809 
L 641 3341 
Q 956 3463 1253 3523 
Q 1550 3584 1831 3584 
Q 2591 3584 2966 3190 
Q 3341 2797 3341 1997 
z
" id="DejaVuSans-61" transform="scale(0.015625)"/>
       <path d="M 1959 3097 
Q 1497 3097 1228 2736 
Q 959 2375 959 1747 
Q 959 1119 1226 758 
Q 1494 397 1959 397 
Q 2419 397 2687 759 
Q 2956 1122 2956 1747 
Q 2956 2369 2687 2733 
Q 2419 3097 1959 3097 
z
M 1959 3584 
Q 2709 3584 3137 3096 
Q 3566 2609 3566 1747 
Q 3566 888 3137 398 
Q 2709 -91 1959 -91 
Q 1206 -91 779 398 
Q 353 888 353 1747 
Q 353 2609 779 3096 
Q 1206 3584 1959 3584 
z
" id="DejaVuSans-6f" transform="scale(0.015625)"/>
       <path d="M 2631 2963 
Q 2534 3019 2420 3045 
Q 2306 3072 2169 3072 
Q 1681 3072 1420 2755 
Q 1159 2438 1159 1844 
L 1159 0 
L 581 0 
L 581 3500 
L 1159 3500 
L 1159 2956 
Q 1341 3275 1631 3429 
Q 1922 3584 2338 3584 
Q 2397 3584 2469 3576 
Q 2541 3569 2628 3553 
L 2631 2963 
z
" id="DejaVuSans-72" transform="scale(0.015625)"/>
       <path d="M 1172 4494 
L 1172 3500 
L 2356 3500 
L 2356 3053 
L 1172 3053 
L 1172 1153 
Q 1172 725 1289 603 
Q 1406 481 1766 481 
L 2356 481 
L 2356 0 
L 1766 0 
Q 1100 0 847 248 
Q 594 497 594 1153 
L 594 3053 
L 172 3053 
L 172 3500 
L 594 3500 
L 594 4494 
L 1172 4494 
z
" id="DejaVuSans-74" transform="scale(0.015625)"/>
       <path d="M 3513 2113 
L 3513 0 
L 2938 0 
L 2938 2094 
Q 2938 2591 2744 2837 
Q 2550 3084 2163 3084 
Q 1697 3084 1428 2787 
Q 1159 2491 1159 1978 
L 1159 0 
L 581 0 
L 581 4863 
L 1159 4863 
L 1159 2956 
Q 1366 3272 1645 3428 
Q 1925 3584 2291 3584 
Q 2894 3584 3203 3211 
Q 3513 2838 3513 2113 
z
" id="DejaVuSans-68" transform="scale(0.015625)"/>
      </defs>
      <use xlink:href="#DejaVuSans-42"/>
      <use x="68.603516" xlink:href="#DejaVuSans-2e"/>
      <use x="100.390625" xlink:href="#DejaVuSans-20"/>
      <use x="132.177734" xlink:href="#DejaVuSans-70"/>
      <use x="195.654297" xlink:href="#DejaVuSans-65"/>
      <use x="257.177734" xlink:href="#DejaVuSans-6e"/>
      <use x="320.556641" xlink:href="#DejaVuSans-64"/>
      <use x="384.033203" xlink:href="#DejaVuSans-75"/>
      <use x="447.412109" xlink:href="#DejaVuSans-6c"/>
      <use x="475.195312" xlink:href="#DejaVuSans-61"/>
      <use x="536.474609" xlink:href="#DejaVuSans-20"/>
      <use x="568.261719" xlink:href="#DejaVuSans-6e"/>
      <use x="631.640625" xlink:href="#DejaVuSans-6f"/>
      <use x="692.822266" xlink:href="#DejaVuSans-72"/>
      <use x="733.935547" xlink:href="#DejaVuSans-74"/>
      <use x="773.144531" xlink:href="#DejaVuSans-68"/>
     </g>
    </g>
    <g id="line2d_12"/>
    <g id="line2d_13">
     <defs>
      <path d="M 0 3 
C 0.795609 3 1.55874 2.683901 2.12132 2.12132 
C 2.683901 1.55874 3 0.795609 3 0 
C 3 -0.795609 2.683901 -1.55874 2.12132 -2.12132 
C 1.55874 -2.683901 0.795609 -3 0 -3 
C -0.795609 -3 -1.55874 -2.683901 -2.12132 -2.12132 
C -2.683901 -1.55874 -3 -0.795609 -3 0 
C -3 0.795609 -2.683901 1.55874 -2.12132 2.12132 
C -1.55874 2.683901 -0.795609 3 0 3 
z
" id="m1868c45a2a" style="stroke:#fde725;"/>
     </defs>
     <g>
      <use style="fill:#fde725;stroke:#fde725;" x="101.078313" xlink:href="#m1868c45a2a" y="27.776562"/>
     </g>
    </g>
    <g id="text_13">
     <!-- B. pendula south -->
     <g transform="translate(119.078313 31.276562)scale(0.1 -0.1)">
      <defs>
       <path d="M 2834 3397 
L 2834 2853 
Q 2591 2978 2328 3040 
Q 2066 3103 1784 3103 
Q 1356 3103 1142 2972 
Q 928 2841 928 2578 
Q 928 2378 1081 2264 
Q 1234 2150 1697 2047 
L 1894 2003 
Q 2506 1872 2764 1633 
Q 3022 1394 3022 966 
Q 3022 478 2636 193 
Q 2250 -91 1575 -91 
Q 1294 -91 989 -36 
Q 684 19 347 128 
L 347 722 
Q 666 556 975 473 
Q 1284 391 1588 391 
Q 1994 391 2212 530 
Q 2431 669 2431 922 
Q 2431 1156 2273 1281 
Q 2116 1406 1581 1522 
L 1381 1569 
Q 847 1681 609 1914 
Q 372 2147 372 2553 
Q 372 3047 722 3315 
Q 1072 3584 1716 3584 
Q 2034 3584 2315 3537 
Q 2597 3491 2834 3397 
z
" id="DejaVuSans-73" transform="scale(0.015625)"/>
      </defs>
      <use xlink:href="#DejaVuSans-42"/>
      <use x="68.603516" xlink:href="#DejaVuSans-2e"/>
      <use x="100.390625" xlink:href="#DejaVuSans-20"/>
      <use x="132.177734" xlink:href="#DejaVuSans-70"/>
      <use x="195.654297" xlink:href="#DejaVuSans-65"/>
      <use x="257.177734" xlink:href="#DejaVuSans-6e"/>
      <use x="320.556641" xlink:href="#DejaVuSans-64"/>
      <use x="384.033203" xlink:href="#DejaVuSans-75"/>
      <use x="447.412109" xlink:href="#DejaVuSans-6c"/>
      <use x="475.195312" xlink:href="#DejaVuSans-61"/>
      <use x="536.474609" xlink:href="#DejaVuSans-20"/>
      <use x="568.261719" xlink:href="#DejaVuSans-73"/>
      <use x="620.361328" xlink:href="#DejaVuSans-6f"/>
      <use x="681.542969" xlink:href="#DejaVuSans-75"/>
      <use x="744.921875" xlink:href="#DejaVuSans-74"/>
      <use x="784.130859" xlink:href="#DejaVuSans-68"/>
     </g>
    </g>
   </g>
  </g>
 </g>
 <defs>
  <clipPath id="p36ad46ebfd">
   <rect height="177.408" width="177.408" x="35.420313" y="-0"/>
  </clipPath>
 </defs>
</svg>
