<?xml version="1.0" encoding="UTF-8" standalone="no"?>
<!DOCTYPE svg PUBLIC "-//W3C//DTD SVG 1.1//EN"
 "http://www.w3.org/Graphics/SVG/1.1/DTD/svg11.dtd">
<!-- Generated by graphviz version 2.49.3 (0)
 -->
<!-- Title: pipeline_schematic Pages: 1 -->
<svg width="1569pt" height="867pt"
 viewBox="0.00 0.00 1569.00 866.55" xmlns="http://www.w3.org/2000/svg" xmlns:xlink="http://www.w3.org/1999/xlink">
<g id="graph0" class="graph" transform="scale(1 1) rotate(0) translate(4 862.55)">
<title>pipeline_schematic</title>
<polygon fill="white" stroke="transparent" points="-4,4 -4,-862.55 1565,-862.55 1565,4 -4,4"/>
<!-- 1 -->
<g id="node1" class="node">
<title>1</title>
<path fill="none" stroke="#d11515" stroke-width="3" d="M446.5,-845.5C446.5,-845.5 265.5,-845.5 265.5,-845.5 259.5,-845.5 253.5,-839.5 253.5,-833.5 253.5,-833.5 253.5,-780.5 253.5,-780.5 253.5,-774.5 259.5,-768.5 265.5,-768.5 265.5,-768.5 446.5,-768.5 446.5,-768.5 452.5,-768.5 458.5,-774.5 458.5,-780.5 458.5,-780.5 458.5,-833.5 458.5,-833.5 458.5,-839.5 452.5,-845.5 446.5,-845.5"/>
<text text-anchor="middle" x="356" y="-799.5" font-family="sans" font-size="30.00">sample sets</text>
</g>
<!-- 3 -->
<g id="node2" class="node">
<title>3</title>
<path fill="none" stroke="#9915d1" stroke-width="3" d="M325,-694.5C325,-694.5 161,-694.5 161,-694.5 155,-694.5 149,-688.5 149,-682.5 149,-682.5 149,-629.5 149,-629.5 149,-623.5 155,-617.5 161,-617.5 161,-617.5 325,-617.5 325,-617.5 331,-617.5 337,-623.5 337,-629.5 337,-629.5 337,-682.5 337,-682.5 337,-688.5 331,-694.5 325,-694.5"/>
<text text-anchor="middle" x="243" y="-648.5" font-family="sans" font-size="30.00">B. pendula</text>
</g>
<!-- 1&#45;&gt;3 -->
<g id="edge1" class="edge">
<title>1&#45;&gt;3</title>
<path fill="none" stroke="grey" stroke-width="3" d="M327.49,-768.4C314.24,-750.93 298.24,-729.84 283.75,-710.73"/>
<polygon fill="grey" stroke="grey" stroke-width="3" points="289.17,-706.29 271.51,-694.59 278.01,-714.75 289.17,-706.29"/>
</g>
<!-- 6 -->
<g id="node5" class="node">
<title>6</title>
<path fill="none" stroke="#9915d1" stroke-width="3" d="M569,-694.5C569,-694.5 367,-694.5 367,-694.5 361,-694.5 355,-688.5 355,-682.5 355,-682.5 355,-629.5 355,-629.5 355,-623.5 361,-617.5 367,-617.5 367,-617.5 569,-617.5 569,-617.5 575,-617.5 581,-623.5 581,-629.5 581,-629.5 581,-682.5 581,-682.5 581,-688.5 575,-694.5 569,-694.5"/>
<text text-anchor="middle" x="468" y="-648.5" font-family="sans" font-size="30.00">B. pubescens</text>
</g>
<!-- 1&#45;&gt;6 -->
<g id="edge2" class="edge">
<title>1&#45;&gt;6</title>
<path fill="none" stroke="grey" stroke-width="3" d="M384.26,-768.4C397.39,-750.93 413.25,-729.84 427.61,-710.73"/>
<polygon fill="grey" stroke="grey" stroke-width="3" points="433.33,-714.78 439.75,-694.59 422.13,-706.37 433.33,-714.78"/>
</g>
<!-- 4 -->
<g id="node3" class="node">
<title>4</title>
<path fill="none" stroke="#9915d1" stroke-width="3" d="M144,-543.5C144,-543.5 12,-543.5 12,-543.5 6,-543.5 0,-537.5 0,-531.5 0,-531.5 0,-478.5 0,-478.5 0,-472.5 6,-466.5 12,-466.5 12,-466.5 144,-466.5 144,-466.5 150,-466.5 156,-472.5 156,-478.5 156,-478.5 156,-531.5 156,-531.5 156,-537.5 150,-543.5 144,-543.5"/>
<text text-anchor="middle" x="78" y="-497.5" font-family="sans" font-size="30.00">northern</text>
</g>
<!-- 3&#45;&gt;4 -->
<g id="edge3" class="edge">
<title>3&#45;&gt;4</title>
<path fill="none" stroke="grey" stroke-width="3" d="M201.36,-617.4C181.14,-599.14 156.53,-576.91 134.63,-557.14"/>
<polygon fill="grey" stroke="grey" stroke-width="3" points="139.16,-551.8 119.62,-543.59 129.78,-562.19 139.16,-551.8"/>
</g>
<!-- 5 -->
<g id="node4" class="node">
<title>5</title>
<path fill="none" stroke="#9915d1" stroke-width="3" d="M323.5,-543.5C323.5,-543.5 186.5,-543.5 186.5,-543.5 180.5,-543.5 174.5,-537.5 174.5,-531.5 174.5,-531.5 174.5,-478.5 174.5,-478.5 174.5,-472.5 180.5,-466.5 186.5,-466.5 186.5,-466.5 323.5,-466.5 323.5,-466.5 329.5,-466.5 335.5,-472.5 335.5,-478.5 335.5,-478.5 335.5,-531.5 335.5,-531.5 335.5,-537.5 329.5,-543.5 323.5,-543.5"/>
<text text-anchor="middle" x="255" y="-497.5" font-family="sans" font-size="30.00">southern</text>
</g>
<!-- 3&#45;&gt;5 -->
<g id="edge4" class="edge">
<title>3&#45;&gt;5</title>
<path fill="none" stroke="grey" stroke-width="3" d="M246.03,-617.4C247.34,-601.17 248.89,-581.8 250.34,-563.81"/>
<polygon fill="grey" stroke="grey" stroke-width="3" points="257.34,-564.08 251.97,-543.59 243.39,-562.96 257.34,-564.08"/>
</g>
<!-- 7 -->
<g id="node6" class="node">
<title>7</title>
<path fill="none" stroke="#9915d1" stroke-width="3" d="M522,-543.5C522,-543.5 390,-543.5 390,-543.5 384,-543.5 378,-537.5 378,-531.5 378,-531.5 378,-478.5 378,-478.5 378,-472.5 384,-466.5 390,-466.5 390,-466.5 522,-466.5 522,-466.5 528,-466.5 534,-472.5 534,-478.5 534,-478.5 534,-531.5 534,-531.5 534,-537.5 528,-543.5 522,-543.5"/>
<text text-anchor="middle" x="456" y="-497.5" font-family="sans" font-size="30.00">northern</text>
</g>
<!-- 6&#45;&gt;7 -->
<g id="edge5" class="edge">
<title>6&#45;&gt;7</title>
<path fill="none" stroke="grey" stroke-width="3" d="M464.97,-617.4C463.66,-601.17 462.11,-581.8 460.66,-563.81"/>
<polygon fill="grey" stroke="grey" stroke-width="3" points="467.61,-562.96 459.03,-543.59 453.66,-564.08 467.61,-562.96"/>
</g>
<!-- 8 -->
<g id="node7" class="node">
<title>8</title>
<path fill="none" stroke="#9915d1" stroke-width="3" d="M701.5,-543.5C701.5,-543.5 564.5,-543.5 564.5,-543.5 558.5,-543.5 552.5,-537.5 552.5,-531.5 552.5,-531.5 552.5,-478.5 552.5,-478.5 552.5,-472.5 558.5,-466.5 564.5,-466.5 564.5,-466.5 701.5,-466.5 701.5,-466.5 707.5,-466.5 713.5,-472.5 713.5,-478.5 713.5,-478.5 713.5,-531.5 713.5,-531.5 713.5,-537.5 707.5,-543.5 701.5,-543.5"/>
<text text-anchor="middle" x="633" y="-497.5" font-family="sans" font-size="30.00">southern</text>
</g>
<!-- 6&#45;&gt;8 -->
<g id="edge6" class="edge">
<title>6&#45;&gt;8</title>
<path fill="none" stroke="grey" stroke-width="3" d="M509.64,-617.4C529.86,-599.14 554.47,-576.91 576.37,-557.14"/>
<polygon fill="grey" stroke="grey" stroke-width="3" points="581.22,-562.19 591.38,-543.59 571.84,-551.8 581.22,-562.19"/>
</g>
<!-- 9 -->
<g id="node8" class="node">
<title>9</title>
<path fill="none" stroke="#d11515" stroke-width="3" d="M1132,-845.5C1132,-845.5 836,-845.5 836,-845.5 830,-845.5 824,-839.5 824,-833.5 824,-833.5 824,-780.5 824,-780.5 824,-774.5 830,-768.5 836,-768.5 836,-768.5 1132,-768.5 1132,-768.5 1138,-768.5 1144,-774.5 1144,-780.5 1144,-780.5 1144,-833.5 1144,-833.5 1144,-839.5 1138,-845.5 1132,-845.5"/>
<text text-anchor="middle" x="984" y="-799.5" font-family="sans" font-size="30.00">population scenarios</text>
</g>
<!-- 10 -->
<g id="node9" class="node">
<title>10</title>
<path fill="none" stroke="#15b5d1" stroke-width="3" d="M953.5,-694.5C953.5,-694.5 762.5,-694.5 762.5,-694.5 756.5,-694.5 750.5,-688.5 750.5,-682.5 750.5,-682.5 750.5,-629.5 750.5,-629.5 750.5,-623.5 756.5,-617.5 762.5,-617.5 762.5,-617.5 953.5,-617.5 953.5,-617.5 959.5,-617.5 965.5,-623.5 965.5,-629.5 965.5,-629.5 965.5,-682.5 965.5,-682.5 965.5,-688.5 959.5,-694.5 953.5,-694.5"/>
<text text-anchor="middle" x="858" y="-648.5" font-family="sans" font-size="30.00">variable time</text>
</g>
<!-- 9&#45;&gt;10 -->
<g id="edge7" class="edge">
<title>9&#45;&gt;10</title>
<path fill="none" stroke="grey" stroke-width="3" d="M952.2,-768.4C937.21,-750.67 919.05,-729.2 902.7,-709.86"/>
<polygon fill="grey" stroke="grey" stroke-width="3" points="908.04,-705.34 889.78,-694.59 897.35,-714.38 908.04,-705.34"/>
</g>
<!-- 11 -->
<g id="node10" class="node">
<title>11</title>
<path fill="none" stroke="#15b5d1" stroke-width="3" d="M1224.5,-694.5C1224.5,-694.5 995.5,-694.5 995.5,-694.5 989.5,-694.5 983.5,-688.5 983.5,-682.5 983.5,-682.5 983.5,-629.5 983.5,-629.5 983.5,-623.5 989.5,-617.5 995.5,-617.5 995.5,-617.5 1224.5,-617.5 1224.5,-617.5 1230.5,-617.5 1236.5,-623.5 1236.5,-629.5 1236.5,-629.5 1236.5,-682.5 1236.5,-682.5 1236.5,-688.5 1230.5,-694.5 1224.5,-694.5"/>
<text text-anchor="middle" x="1110" y="-648.5" font-family="sans" font-size="30.00">time since LGM</text>
</g>
<!-- 9&#45;&gt;11 -->
<g id="edge8" class="edge">
<title>9&#45;&gt;11</title>
<path fill="none" stroke="grey" stroke-width="3" d="M1015.8,-768.4C1030.79,-750.67 1048.95,-729.2 1065.3,-709.86"/>
<polygon fill="grey" stroke="grey" stroke-width="3" points="1070.65,-714.38 1078.22,-694.59 1059.96,-705.34 1070.65,-714.38"/>
</g>
<!-- 12 -->
<g id="node11" class="node">
<title>12</title>
<path fill="none" stroke="#15b5d1" stroke-width="3" d="M960.5,-543.5C960.5,-543.5 743.5,-543.5 743.5,-543.5 737.5,-543.5 731.5,-537.5 731.5,-531.5 731.5,-531.5 731.5,-478.5 731.5,-478.5 731.5,-472.5 737.5,-466.5 743.5,-466.5 743.5,-466.5 960.5,-466.5 960.5,-466.5 966.5,-466.5 972.5,-472.5 972.5,-478.5 972.5,-478.5 972.5,-531.5 972.5,-531.5 972.5,-537.5 966.5,-543.5 960.5,-543.5"/>
<text text-anchor="middle" x="852" y="-497.5" font-family="sans" font-size="30.00">one population</text>
</g>
<!-- 10&#45;&gt;12 -->
<g id="edge9" class="edge">
<title>10&#45;&gt;12</title>
<path fill="none" stroke="grey" stroke-width="3" d="M856.49,-617.4C855.83,-601.17 855.05,-581.8 854.33,-563.81"/>
<polygon fill="grey" stroke="grey" stroke-width="3" points="861.31,-563.29 853.51,-543.59 847.32,-563.85 861.31,-563.29"/>
</g>
<!-- 13 -->
<g id="node12" class="node">
<title>13</title>
<path fill="none" stroke="#15b5d1" stroke-width="3" d="M1231.5,-543.5C1231.5,-543.5 1002.5,-543.5 1002.5,-543.5 996.5,-543.5 990.5,-537.5 990.5,-531.5 990.5,-531.5 990.5,-478.5 990.5,-478.5 990.5,-472.5 996.5,-466.5 1002.5,-466.5 1002.5,-466.5 1231.5,-466.5 1231.5,-466.5 1237.5,-466.5 1243.5,-472.5 1243.5,-478.5 1243.5,-478.5 1243.5,-531.5 1243.5,-531.5 1243.5,-537.5 1237.5,-543.5 1231.5,-543.5"/>
<text text-anchor="middle" x="1117" y="-497.5" font-family="sans" font-size="30.00">two populations</text>
</g>
<!-- 10&#45;&gt;13 -->
<g id="edge10" class="edge">
<title>10&#45;&gt;13</title>
<path fill="none" stroke="grey" stroke-width="3" d="M923.36,-617.4C956.94,-598.08 998.23,-574.32 1034.05,-553.72"/>
<polygon fill="grey" stroke="grey" stroke-width="3" points="1037.82,-559.63 1051.66,-543.59 1030.84,-547.49 1037.82,-559.63"/>
</g>
<!-- 11&#45;&gt;12 -->
<g id="edge11" class="edge">
<title>11&#45;&gt;12</title>
<path fill="none" stroke="grey" stroke-width="3" d="M1044.9,-617.4C1011.44,-598.08 970.31,-574.32 934.63,-553.72"/>
<polygon fill="grey" stroke="grey" stroke-width="3" points="937.9,-547.53 917.08,-543.59 930.9,-559.65 937.9,-547.53"/>
</g>
<!-- 11&#45;&gt;13 -->
<g id="edge12" class="edge">
<title>11&#45;&gt;13</title>
<path fill="none" stroke="grey" stroke-width="3" d="M1111.77,-617.4C1112.53,-601.17 1113.44,-581.8 1114.28,-563.81"/>
<polygon fill="grey" stroke="grey" stroke-width="3" points="1121.29,-563.89 1115.23,-543.59 1107.3,-563.24 1121.29,-563.89"/>
</g>
<!-- 17 -->
<g id="node15" class="node">
<title>17</title>
<path fill="none" stroke="#15b5d1" stroke-width="3" d="M562.5,-392.5C562.5,-392.5 283.5,-392.5 283.5,-392.5 277.5,-392.5 271.5,-386.5 271.5,-380.5 271.5,-380.5 271.5,-327.5 271.5,-327.5 271.5,-321.5 277.5,-315.5 283.5,-315.5 283.5,-315.5 562.5,-315.5 562.5,-315.5 568.5,-315.5 574.5,-321.5 574.5,-327.5 574.5,-327.5 574.5,-380.5 574.5,-380.5 574.5,-386.5 568.5,-392.5 562.5,-392.5"/>
<text text-anchor="middle" x="423" y="-346.5" font-family="sans" font-size="30.00">n pop size changes</text>
</g>
<!-- 12&#45;&gt;17 -->
<g id="edge14" class="edge">
<title>12&#45;&gt;17</title>
<path fill="none" stroke="grey" stroke-width="3" d="M744.02,-466.5C685.1,-446.03 611.81,-420.58 550.14,-399.16"/>
<polygon fill="grey" stroke="grey" stroke-width="3" points="552.17,-392.45 530.98,-392.5 547.58,-405.68 552.17,-392.45"/>
</g>
<!-- 22 -->
<g id="node19" class="node">
<title>22</title>
<path fill="none" stroke="#15b5d1" stroke-width="3" d="M839,-392.5C839,-392.5 605,-392.5 605,-392.5 599,-392.5 593,-386.5 593,-380.5 593,-380.5 593,-327.5 593,-327.5 593,-321.5 599,-315.5 605,-315.5 605,-315.5 839,-315.5 839,-315.5 845,-315.5 851,-321.5 851,-327.5 851,-327.5 851,-380.5 851,-380.5 851,-386.5 845,-392.5 839,-392.5"/>
<text text-anchor="middle" x="722" y="-346.5" font-family="sans" font-size="30.00">exp. pop growth</text>
</g>
<!-- 12&#45;&gt;22 -->
<g id="edge18" class="edge">
<title>12&#45;&gt;22</title>
<path fill="none" stroke="grey" stroke-width="3" d="M819.2,-466.4C803.72,-448.67 784.99,-427.2 768.12,-407.86"/>
<polygon fill="grey" stroke="grey" stroke-width="3" points="773.22,-403.06 754.79,-392.59 762.67,-412.26 773.22,-403.06"/>
</g>
<!-- 23 -->
<g id="node20" class="node">
<title>23</title>
<path fill="none" stroke="#15b5d1" stroke-width="3" d="M1132.5,-392.5C1132.5,-392.5 881.5,-392.5 881.5,-392.5 875.5,-392.5 869.5,-386.5 869.5,-380.5 869.5,-380.5 869.5,-327.5 869.5,-327.5 869.5,-321.5 875.5,-315.5 881.5,-315.5 881.5,-315.5 1132.5,-315.5 1132.5,-315.5 1138.5,-315.5 1144.5,-321.5 1144.5,-327.5 1144.5,-327.5 1144.5,-380.5 1144.5,-380.5 1144.5,-386.5 1138.5,-392.5 1132.5,-392.5"/>
<text text-anchor="middle" x="1007" y="-346.5" font-family="sans" font-size="30.00">linear pop growth</text>
</g>
<!-- 12&#45;&gt;23 -->
<g id="edge19" class="edge">
<title>12&#45;&gt;23</title>
<path fill="none" stroke="grey" stroke-width="3" d="M891.11,-466.4C909.93,-448.31 932.78,-426.34 953.21,-406.71"/>
<polygon fill="grey" stroke="grey" stroke-width="3" points="958.33,-411.49 967.9,-392.59 948.63,-401.4 958.33,-411.49"/>
</g>
<!-- 15 -->
<g id="node13" class="node">
<title>15</title>
<path fill="none" stroke="#15b5d1" stroke-width="3" d="M1319,-392.5C1319,-392.5 1175,-392.5 1175,-392.5 1169,-392.5 1163,-386.5 1163,-380.5 1163,-380.5 1163,-327.5 1163,-327.5 1163,-321.5 1169,-315.5 1175,-315.5 1175,-315.5 1319,-315.5 1319,-315.5 1325,-315.5 1331,-321.5 1331,-327.5 1331,-327.5 1331,-380.5 1331,-380.5 1331,-386.5 1325,-392.5 1319,-392.5"/>
<text text-anchor="middle" x="1247" y="-346.5" font-family="sans" font-size="30.00">migration</text>
</g>
<!-- 13&#45;&gt;15 -->
<g id="edge13" class="edge">
<title>13&#45;&gt;15</title>
<path fill="none" stroke="grey" stroke-width="3" d="M1149.8,-466.4C1165.28,-448.67 1184.01,-427.2 1200.88,-407.86"/>
<polygon fill="grey" stroke="grey" stroke-width="3" points="1206.33,-412.26 1214.21,-392.59 1195.78,-403.06 1206.33,-412.26"/>
</g>
<!-- 16 -->
<g id="node14" class="node">
<title>16</title>
<path fill="none" stroke="#15b5d1" stroke-width="3" d="M1139,-241.5C1139,-241.5 997,-241.5 997,-241.5 991,-241.5 985,-235.5 985,-229.5 985,-229.5 985,-176.5 985,-176.5 985,-170.5 991,-164.5 997,-164.5 997,-164.5 1139,-164.5 1139,-164.5 1145,-164.5 1151,-170.5 1151,-176.5 1151,-176.5 1151,-229.5 1151,-229.5 1151,-235.5 1145,-241.5 1139,-241.5"/>
<text text-anchor="middle" x="1068" y="-195.5" font-family="sans" font-size="30.00">unilateral</text>
</g>
<!-- 15&#45;&gt;16 -->
<g id="edge20" class="edge">
<title>15&#45;&gt;16</title>
<path fill="none" stroke="grey" stroke-width="3" d="M1201.83,-315.4C1179.68,-296.96 1152.68,-274.48 1128.74,-254.56"/>
<polygon fill="grey" stroke="grey" stroke-width="3" points="1133,-249 1113.15,-241.59 1124.05,-259.76 1133,-249"/>
</g>
<!-- 25 -->
<g id="node22" class="node">
<title>25</title>
<path fill="none" stroke="#15b5d1" stroke-width="3" d="M1312.5,-241.5C1312.5,-241.5 1181.5,-241.5 1181.5,-241.5 1175.5,-241.5 1169.5,-235.5 1169.5,-229.5 1169.5,-229.5 1169.5,-176.5 1169.5,-176.5 1169.5,-170.5 1175.5,-164.5 1181.5,-164.5 1181.5,-164.5 1312.5,-164.5 1312.5,-164.5 1318.5,-164.5 1324.5,-170.5 1324.5,-176.5 1324.5,-176.5 1324.5,-229.5 1324.5,-229.5 1324.5,-235.5 1318.5,-241.5 1312.5,-241.5"/>
<text text-anchor="middle" x="1247" y="-195.5" font-family="sans" font-size="30.00">isolation</text>
</g>
<!-- 15&#45;&gt;25 -->
<g id="edge21" class="edge">
<title>15&#45;&gt;25</title>
<path fill="none" stroke="grey" stroke-width="3" d="M1247,-315.4C1247,-299.17 1247,-279.8 1247,-261.81"/>
<polygon fill="grey" stroke="grey" stroke-width="3" points="1254,-261.59 1247,-241.59 1240,-261.59 1254,-261.59"/>
</g>
<!-- 26 -->
<g id="node23" class="node">
<title>26</title>
<path fill="none" stroke="#15b5d1" stroke-width="3" d="M1549,-241.5C1549,-241.5 1355,-241.5 1355,-241.5 1349,-241.5 1343,-235.5 1343,-229.5 1343,-229.5 1343,-176.5 1343,-176.5 1343,-170.5 1349,-164.5 1355,-164.5 1355,-164.5 1549,-164.5 1549,-164.5 1555,-164.5 1561,-170.5 1561,-176.5 1561,-176.5 1561,-229.5 1561,-229.5 1561,-235.5 1555,-241.5 1549,-241.5"/>
<text text-anchor="middle" x="1452" y="-195.5" font-family="sans" font-size="30.00">(a)symmetric</text>
</g>
<!-- 15&#45;&gt;26 -->
<g id="edge22" class="edge">
<title>15&#45;&gt;26</title>
<path fill="none" stroke="grey" stroke-width="3" d="M1298.73,-315.4C1324.59,-296.61 1356.21,-273.62 1384,-253.42"/>
<polygon fill="grey" stroke="grey" stroke-width="3" points="1388.22,-259.01 1400.29,-241.59 1379.99,-247.68 1388.22,-259.01"/>
</g>
<!-- 18 -->
<g id="node16" class="node">
<title>18</title>
<path fill="none" stroke="#15b5d1" stroke-width="3" d="M345.5,-241.5C345.5,-241.5 274.5,-241.5 274.5,-241.5 268.5,-241.5 262.5,-235.5 262.5,-229.5 262.5,-229.5 262.5,-176.5 262.5,-176.5 262.5,-170.5 268.5,-164.5 274.5,-164.5 274.5,-164.5 345.5,-164.5 345.5,-164.5 351.5,-164.5 357.5,-170.5 357.5,-176.5 357.5,-176.5 357.5,-229.5 357.5,-229.5 357.5,-235.5 351.5,-241.5 345.5,-241.5"/>
<text text-anchor="middle" x="310" y="-195.5" font-family="sans" font-size="30.00">n=0</text>
</g>
<!-- 17&#45;&gt;18 -->
<g id="edge15" class="edge">
<title>17&#45;&gt;18</title>
<path fill="none" stroke="grey" stroke-width="3" d="M394.49,-315.4C381.24,-297.93 365.24,-276.84 350.75,-257.73"/>
<polygon fill="grey" stroke="grey" stroke-width="3" points="356.17,-253.29 338.51,-241.59 345.01,-261.75 356.17,-253.29"/>
</g>
<!-- 19 -->
<g id="node17" class="node">
<title>19</title>
<path fill="none" stroke="#15b5d1" stroke-width="3" d="M458.5,-241.5C458.5,-241.5 387.5,-241.5 387.5,-241.5 381.5,-241.5 375.5,-235.5 375.5,-229.5 375.5,-229.5 375.5,-176.5 375.5,-176.5 375.5,-170.5 381.5,-164.5 387.5,-164.5 387.5,-164.5 458.5,-164.5 458.5,-164.5 464.5,-164.5 470.5,-170.5 470.5,-176.5 470.5,-176.5 470.5,-229.5 470.5,-229.5 470.5,-235.5 464.5,-241.5 458.5,-241.5"/>
<text text-anchor="middle" x="423" y="-195.5" font-family="sans" font-size="30.00">n=1</text>
</g>
<!-- 17&#45;&gt;19 -->
<g id="edge16" class="edge">
<title>17&#45;&gt;19</title>
<path fill="none" stroke="grey" stroke-width="3" d="M423,-315.4C423,-299.17 423,-279.8 423,-261.81"/>
<polygon fill="grey" stroke="grey" stroke-width="3" points="430,-261.59 423,-241.59 416,-261.59 430,-261.59"/>
</g>
<!-- 20 -->
<g id="node18" class="node">
<title>20</title>
<path fill="none" stroke="#15b5d1" stroke-width="3" d="M571.5,-241.5C571.5,-241.5 500.5,-241.5 500.5,-241.5 494.5,-241.5 488.5,-235.5 488.5,-229.5 488.5,-229.5 488.5,-176.5 488.5,-176.5 488.5,-170.5 494.5,-164.5 500.5,-164.5 500.5,-164.5 571.5,-164.5 571.5,-164.5 577.5,-164.5 583.5,-170.5 583.5,-176.5 583.5,-176.5 583.5,-229.5 583.5,-229.5 583.5,-235.5 577.5,-241.5 571.5,-241.5"/>
<text text-anchor="middle" x="536" y="-195.5" font-family="sans" font-size="30.00">n=2</text>
</g>
<!-- 17&#45;&gt;20 -->
<g id="edge17" class="edge">
<title>17&#45;&gt;20</title>
<path fill="none" stroke="grey" stroke-width="3" d="M451.51,-315.4C464.76,-297.93 480.76,-276.84 495.25,-257.73"/>
<polygon fill="grey" stroke="grey" stroke-width="3" points="500.99,-261.75 507.49,-241.59 489.83,-253.29 500.99,-261.75"/>
</g>
<!-- 24 -->
<g id="node21" class="node">
<title>24</title>
<path fill="none" stroke="#15b5d1" stroke-width="3" d="M1481,-89.5C1481,-89.5 1217,-89.5 1217,-89.5 1211,-89.5 1205,-83.5 1205,-77.5 1205,-77.5 1205,-24.5 1205,-24.5 1205,-18.5 1211,-12.5 1217,-12.5 1217,-12.5 1481,-12.5 1481,-12.5 1487,-12.5 1493,-18.5 1493,-24.5 1493,-24.5 1493,-77.5 1493,-77.5 1493,-83.5 1487,-89.5 1481,-89.5"/>
<text text-anchor="middle" x="1349" y="-43.5" font-family="sans" font-size="30.00">1 pop size change</text>
</g>
<!-- 25&#45;&gt;24 -->
<g id="edge23" class="edge">
<title>25&#45;&gt;24</title>
<path fill="none" stroke="grey" stroke-width="3" d="M1272.74,-164.15C1284.68,-146.58 1299.1,-125.38 1312.17,-106.16"/>
<polygon fill="grey" stroke="grey" stroke-width="3" points="1317.99,-110.05 1323.45,-89.58 1306.41,-102.18 1317.99,-110.05"/>
</g>
<!-- 26&#45;&gt;24 -->
<g id="edge24" class="edge">
<title>26&#45;&gt;24</title>
<path fill="none" stroke="grey" stroke-width="3" d="M1426.01,-164.15C1413.95,-146.58 1399.39,-125.38 1386.19,-106.16"/>
<polygon fill="grey" stroke="grey" stroke-width="3" points="1391.9,-102.1 1374.8,-89.58 1380.36,-110.03 1391.9,-102.1"/>
</g>
</g>
</svg>
