<?xml version="1.0" encoding="UTF-8" standalone="no"?>
<!DOCTYPE svg PUBLIC "-//W3C//DTD SVG 1.1//EN"
 "http://www.w3.org/Graphics/SVG/1.1/DTD/svg11.dtd">
<!-- Generated by graphviz version 2.49.3 (0)
 -->
<!-- Title: pipeline_schematic Pages: 1 -->
<svg width="1254pt" height="756pt"
 viewBox="0.00 0.00 1254.00 755.60" xmlns="http://www.w3.org/2000/svg" xmlns:xlink="http://www.w3.org/1999/xlink">
<g id="graph0" class="graph" transform="scale(1 1) rotate(0) translate(4 751.6)">
<title>pipeline_schematic</title>
<polygon fill="white" stroke="transparent" points="-4,4 -4,-751.6 1250,-751.6 1250,4 -4,4"/>
<!-- 0 -->
<g id="node1" class="node">
<title>0</title>
<path fill="none" stroke="#d11515" stroke-width="3" d="M181,-741.5C181,-741.5 12,-741.5 12,-741.5 6,-741.5 0,-735.5 0,-729.5 0,-729.5 0,-676.5 0,-676.5 0,-670.5 6,-664.5 12,-664.5 12,-664.5 181,-664.5 181,-664.5 187,-664.5 193,-670.5 193,-676.5 193,-676.5 193,-729.5 193,-729.5 193,-735.5 187,-741.5 181,-741.5"/>
<text text-anchor="middle" x="96.5" y="-695.5" font-family="sans" font-size="30.00">birch reads</text>
</g>
<!-- 10 -->
<g id="node12" class="node">
<title>10</title>
<path fill="none" stroke="#9915d1" stroke-width="3" d="M440.5,-609.5C440.5,-609.5 228.5,-609.5 228.5,-609.5 222.5,-609.5 216.5,-603.5 216.5,-597.5 216.5,-597.5 216.5,-544.5 216.5,-544.5 216.5,-538.5 222.5,-532.5 228.5,-532.5 228.5,-532.5 440.5,-532.5 440.5,-532.5 446.5,-532.5 452.5,-538.5 452.5,-544.5 452.5,-544.5 452.5,-597.5 452.5,-597.5 452.5,-603.5 446.5,-609.5 440.5,-609.5"/>
<text text-anchor="middle" x="334.5" y="-563.5" font-family="sans" font-size="30.00">mapped reads</text>
</g>
<!-- 0&#45;&gt;10 -->
<g id="edge1" class="edge">
<title>0&#45;&gt;10</title>
<path fill="none" stroke="grey" stroke-width="3" d="M165.34,-664.4C191.12,-650.32 220.74,-634.14 247.92,-619.29"/>
<polygon fill="grey" stroke="grey" stroke-width="3" points="251.62,-625.25 265.82,-609.52 244.91,-612.96 251.62,-625.25"/>
</g>
<!-- 16 -->
<g id="node2" class="node">
<title>16</title>
<path fill="none" stroke="#d11515" stroke-width="3" d="M445.5,-741.5C445.5,-741.5 223.5,-741.5 223.5,-741.5 217.5,-741.5 211.5,-735.5 211.5,-729.5 211.5,-729.5 211.5,-676.5 211.5,-676.5 211.5,-670.5 217.5,-664.5 223.5,-664.5 223.5,-664.5 445.5,-664.5 445.5,-664.5 451.5,-664.5 457.5,-670.5 457.5,-676.5 457.5,-676.5 457.5,-729.5 457.5,-729.5 457.5,-735.5 451.5,-741.5 445.5,-741.5"/>
<text text-anchor="middle" x="334.5" y="-695.5" font-family="sans" font-size="30.00">outgroup reads</text>
</g>
<!-- 16&#45;&gt;10 -->
<g id="edge2" class="edge">
<title>16&#45;&gt;10</title>
<path fill="none" stroke="grey" stroke-width="3" d="M334.5,-664.4C334.5,-653.62 334.5,-641.61 334.5,-629.91"/>
<polygon fill="grey" stroke="grey" stroke-width="3" points="341.5,-629.52 334.5,-609.52 327.5,-629.52 341.5,-629.52"/>
</g>
<!-- 1 -->
<g id="node3" class="node">
<title>1</title>
<path fill="none" stroke="#d11515" stroke-width="3" d="M751.5,-741.5C751.5,-741.5 487.5,-741.5 487.5,-741.5 481.5,-741.5 475.5,-735.5 475.5,-729.5 475.5,-729.5 475.5,-676.5 475.5,-676.5 475.5,-670.5 481.5,-664.5 487.5,-664.5 487.5,-664.5 751.5,-664.5 751.5,-664.5 757.5,-664.5 763.5,-670.5 763.5,-676.5 763.5,-676.5 763.5,-729.5 763.5,-729.5 763.5,-735.5 757.5,-741.5 751.5,-741.5"/>
<text text-anchor="middle" x="619.5" y="-695.5" font-family="sans" font-size="30.00">reference genome</text>
</g>
<!-- 1&#45;&gt;10 -->
<g id="edge3" class="edge">
<title>1&#45;&gt;10</title>
<path fill="none" stroke="grey" stroke-width="3" d="M537.07,-664.4C505.31,-649.91 468.68,-633.21 435.38,-618.02"/>
<polygon fill="grey" stroke="grey" stroke-width="3" points="437.85,-611.45 416.75,-609.52 432.04,-624.19 437.85,-611.45"/>
</g>
<!-- 2 -->
<g id="node4" class="node">
<title>2</title>
<path fill="none" stroke="#9915d1" stroke-width="3" d="M555.5,-478.5C555.5,-478.5 371.5,-478.5 371.5,-478.5 365.5,-478.5 359.5,-472.5 359.5,-466.5 359.5,-466.5 359.5,-413.5 359.5,-413.5 359.5,-407.5 365.5,-401.5 371.5,-401.5 371.5,-401.5 555.5,-401.5 555.5,-401.5 561.5,-401.5 567.5,-407.5 567.5,-413.5 567.5,-413.5 567.5,-466.5 567.5,-466.5 567.5,-472.5 561.5,-478.5 555.5,-478.5"/>
<text text-anchor="middle" x="463.5" y="-432.5" font-family="sans" font-size="30.00">raw VCF file</text>
</g>
<!-- 11 -->
<g id="node13" class="node">
<title>11</title>
<path fill="none" stroke="#9915d1" stroke-width="3" d="M697,-346.5C697,-346.5 428,-346.5 428,-346.5 422,-346.5 416,-340.5 416,-334.5 416,-334.5 416,-281.5 416,-281.5 416,-275.5 422,-269.5 428,-269.5 428,-269.5 697,-269.5 697,-269.5 703,-269.5 709,-275.5 709,-281.5 709,-281.5 709,-334.5 709,-334.5 709,-340.5 703,-346.5 697,-346.5"/>
<text text-anchor="middle" x="562.5" y="-300.5" font-family="sans" font-size="30.00">annotated VCF file</text>
</g>
<!-- 2&#45;&gt;11 -->
<g id="edge11" class="edge">
<title>2&#45;&gt;11</title>
<path fill="none" stroke="grey" stroke-width="3" d="M492.13,-401.4C501.37,-389.27 511.79,-375.59 521.73,-362.54"/>
<polygon fill="grey" stroke="grey" stroke-width="3" points="527.38,-366.67 533.93,-346.52 516.24,-358.19 527.38,-366.67"/>
</g>
<!-- 3 -->
<g id="node5" class="node">
<title>3</title>
<path fill="none" stroke="#9915d1" stroke-width="3" d="M413,-214.5C413,-214.5 334,-214.5 334,-214.5 328,-214.5 322,-208.5 322,-202.5 322,-202.5 322,-149.5 322,-149.5 322,-143.5 328,-137.5 334,-137.5 334,-137.5 413,-137.5 413,-137.5 419,-137.5 425,-143.5 425,-149.5 425,-149.5 425,-202.5 425,-202.5 425,-208.5 419,-214.5 413,-214.5"/>
<text text-anchor="middle" x="373.5" y="-168.5" font-family="sans" font-size="30.00">SFS</text>
</g>
<!-- 7 -->
<g id="node9" class="node">
<title>7</title>
<path fill="none" stroke="#15b5d1" stroke-width="3" d="M338,-83.5C338,-83.5 261,-83.5 261,-83.5 255,-83.5 249,-77.5 249,-71.5 249,-71.5 249,-18.5 249,-18.5 249,-12.5 255,-6.5 261,-6.5 261,-6.5 338,-6.5 338,-6.5 344,-6.5 350,-12.5 350,-18.5 350,-18.5 350,-71.5 350,-71.5 350,-77.5 344,-83.5 338,-83.5"/>
<text text-anchor="middle" x="299.5" y="-37.5" font-family="sans" font-size="30.00">dadi</text>
</g>
<!-- 3&#45;&gt;7 -->
<g id="edge9" class="edge">
<title>3&#45;&gt;7</title>
<path fill="none" stroke="grey" stroke-width="3" d="M351.9,-137.34C345.49,-126.18 338.34,-113.71 331.43,-101.67"/>
<polygon fill="grey" stroke="grey" stroke-width="3" points="337.28,-97.79 321.26,-83.93 325.14,-104.76 337.28,-97.79"/>
</g>
<!-- 8 -->
<g id="node10" class="node">
<title>8</title>
<path fill="none" stroke="#15b5d1" stroke-width="3" d="M516.5,-83.5C516.5,-83.5 380.5,-83.5 380.5,-83.5 374.5,-83.5 368.5,-77.5 368.5,-71.5 368.5,-71.5 368.5,-18.5 368.5,-18.5 368.5,-12.5 374.5,-6.5 380.5,-6.5 380.5,-6.5 516.5,-6.5 516.5,-6.5 522.5,-6.5 528.5,-12.5 528.5,-18.5 528.5,-18.5 528.5,-71.5 528.5,-71.5 528.5,-77.5 522.5,-83.5 516.5,-83.5"/>
<text text-anchor="middle" x="448.5" y="-37.5" font-family="sans" font-size="30.00">polyDFE</text>
</g>
<!-- 3&#45;&gt;8 -->
<g id="edge10" class="edge">
<title>3&#45;&gt;8</title>
<path fill="none" stroke="grey" stroke-width="3" d="M395.39,-137.34C401.96,-126.05 409.3,-113.42 416.38,-101.24"/>
<polygon fill="grey" stroke="grey" stroke-width="3" points="422.45,-104.74 426.45,-83.93 410.34,-97.7 422.45,-104.74"/>
</g>
<!-- 4 -->
<g id="node6" class="node">
<title>4</title>
<path fill="none" stroke="#15b5d1" stroke-width="3" d="M678.5,-83.5C678.5,-83.5 596.5,-83.5 596.5,-83.5 590.5,-83.5 584.5,-77.5 584.5,-71.5 584.5,-71.5 584.5,-18.5 584.5,-18.5 584.5,-12.5 590.5,-6.5 596.5,-6.5 596.5,-6.5 678.5,-6.5 678.5,-6.5 684.5,-6.5 690.5,-12.5 690.5,-18.5 690.5,-18.5 690.5,-71.5 690.5,-71.5 690.5,-77.5 684.5,-83.5 678.5,-83.5"/>
<text text-anchor="middle" x="637.5" y="-37.5" font-family="sans" font-size="30.00">PCA</text>
</g>
<!-- 5 -->
<g id="node7" class="node">
<title>5</title>
<path fill="none" stroke="#15b5d1" stroke-width="3" d="M828,-83.5C828,-83.5 721,-83.5 721,-83.5 715,-83.5 709,-77.5 709,-71.5 709,-71.5 709,-18.5 709,-18.5 709,-12.5 715,-6.5 721,-6.5 721,-6.5 828,-6.5 828,-6.5 834,-6.5 840,-12.5 840,-18.5 840,-18.5 840,-71.5 840,-71.5 840,-77.5 834,-83.5 828,-83.5"/>
<text text-anchor="middle" x="774.5" y="-37.5" font-family="sans" font-size="30.00">UMAP</text>
</g>
<!-- 6 -->
<g id="node8" class="node">
<title>6</title>
<path fill="none" stroke="#15b5d1" stroke-width="3" d="M994.5,-83.5C994.5,-83.5 870.5,-83.5 870.5,-83.5 864.5,-83.5 858.5,-77.5 858.5,-71.5 858.5,-71.5 858.5,-18.5 858.5,-18.5 858.5,-12.5 864.5,-6.5 870.5,-6.5 870.5,-6.5 994.5,-6.5 994.5,-6.5 1000.5,-6.5 1006.5,-12.5 1006.5,-18.5 1006.5,-18.5 1006.5,-71.5 1006.5,-71.5 1006.5,-77.5 1000.5,-83.5 994.5,-83.5"/>
<text text-anchor="middle" x="932.5" y="-37.5" font-family="sans" font-size="30.00">FEEMS</text>
</g>
<!-- 9 -->
<g id="node11" class="node">
<title>9</title>
<path fill="none" stroke="#15b5d1" stroke-width="3" d="M669.5,-214.5C669.5,-214.5 455.5,-214.5 455.5,-214.5 449.5,-214.5 443.5,-208.5 443.5,-202.5 443.5,-202.5 443.5,-149.5 443.5,-149.5 443.5,-143.5 449.5,-137.5 455.5,-137.5 455.5,-137.5 669.5,-137.5 669.5,-137.5 675.5,-137.5 681.5,-143.5 681.5,-149.5 681.5,-149.5 681.5,-202.5 681.5,-202.5 681.5,-208.5 675.5,-214.5 669.5,-214.5"/>
<text text-anchor="middle" x="562.5" y="-168.5" font-family="sans" font-size="30.00">basic statistics</text>
</g>
<!-- 10&#45;&gt;2 -->
<g id="edge4" class="edge">
<title>10&#45;&gt;2</title>
<path fill="none" stroke="grey" stroke-width="3" d="M372.16,-532.34C384.37,-520.13 398.14,-506.36 411.22,-493.28"/>
<polygon fill="grey" stroke="grey" stroke-width="3" points="416.38,-498.02 425.57,-478.93 406.48,-488.12 416.38,-498.02"/>
</g>
<!-- 11&#45;&gt;3 -->
<g id="edge8" class="edge">
<title>11&#45;&gt;3</title>
<path fill="none" stroke="grey" stroke-width="3" d="M507.83,-269.4C487.17,-255.19 463.4,-238.84 441.65,-223.88"/>
<polygon fill="grey" stroke="grey" stroke-width="3" points="445.57,-218.08 425.12,-212.51 437.63,-229.61 445.57,-218.08"/>
</g>
<!-- 11&#45;&gt;9 -->
<g id="edge12" class="edge">
<title>11&#45;&gt;9</title>
<path fill="none" stroke="grey" stroke-width="3" d="M562.5,-269.4C562.5,-258.62 562.5,-246.61 562.5,-234.91"/>
<polygon fill="grey" stroke="grey" stroke-width="3" points="569.5,-234.52 562.5,-214.52 555.5,-234.52 569.5,-234.52"/>
</g>
<!-- 17 -->
<g id="node14" class="node">
<title>17</title>
<path fill="none" stroke="#9915d1" stroke-width="3" d="M913,-214.5C913,-214.5 712,-214.5 712,-214.5 706,-214.5 700,-208.5 700,-202.5 700,-202.5 700,-149.5 700,-149.5 700,-143.5 706,-137.5 712,-137.5 712,-137.5 913,-137.5 913,-137.5 919,-137.5 925,-143.5 925,-149.5 925,-149.5 925,-202.5 925,-202.5 925,-208.5 919,-214.5 913,-214.5"/>
<text text-anchor="middle" x="812.5" y="-168.5" font-family="sans" font-size="30.00">PLINK format</text>
</g>
<!-- 11&#45;&gt;17 -->
<g id="edge13" class="edge">
<title>11&#45;&gt;17</title>
<path fill="none" stroke="grey" stroke-width="3" d="M634.81,-269.4C662.15,-255.18 693.6,-238.83 722.37,-223.87"/>
<polygon fill="grey" stroke="grey" stroke-width="3" points="725.84,-229.95 740.35,-214.52 719.38,-217.53 725.84,-229.95"/>
</g>
<!-- 17&#45;&gt;4 -->
<g id="edge5" class="edge">
<title>17&#45;&gt;4</title>
<path fill="none" stroke="grey" stroke-width="3" d="M761.41,-137.34C743.7,-124.28 723.56,-109.44 704.75,-95.57"/>
<polygon fill="grey" stroke="grey" stroke-width="3" points="708.9,-89.94 688.65,-83.71 700.6,-101.21 708.9,-89.94"/>
</g>
<!-- 17&#45;&gt;5 -->
<g id="edge6" class="edge">
<title>17&#45;&gt;5</title>
<path fill="none" stroke="grey" stroke-width="3" d="M801.41,-137.34C798.27,-126.71 794.79,-114.88 791.4,-103.37"/>
<polygon fill="grey" stroke="grey" stroke-width="3" points="798.04,-101.14 785.67,-83.93 784.61,-105.09 798.04,-101.14"/>
</g>
<!-- 17&#45;&gt;6 -->
<g id="edge7" class="edge">
<title>17&#45;&gt;6</title>
<path fill="none" stroke="grey" stroke-width="3" d="M847.53,-137.34C858.77,-125.26 871.43,-111.65 883.48,-98.7"/>
<polygon fill="grey" stroke="grey" stroke-width="3" points="888.72,-103.34 897.22,-83.93 878.47,-93.81 888.72,-103.34"/>
</g>
<!-- 12 -->
<g id="node15" class="node">
<title>12</title>
<path fill="none" stroke="#15b5d1" stroke-width="3" d="M1234,-83.5C1234,-83.5 1037,-83.5 1037,-83.5 1031,-83.5 1025,-77.5 1025,-71.5 1025,-71.5 1025,-18.5 1025,-18.5 1025,-12.5 1031,-6.5 1037,-6.5 1037,-6.5 1234,-6.5 1234,-6.5 1240,-6.5 1246,-12.5 1246,-18.5 1246,-18.5 1246,-71.5 1246,-71.5 1246,-77.5 1240,-83.5 1234,-83.5"/>
<text text-anchor="middle" x="1135.5" y="-37.5" font-family="sans" font-size="30.00">ADMIXTURE</text>
</g>
<!-- 17&#45;&gt;12 -->
<g id="edge14" class="edge">
<title>17&#45;&gt;12</title>
<path fill="none" stroke="grey" stroke-width="3" d="M906.79,-137.34C943.03,-122.87 984.77,-106.2 1022.58,-91.1"/>
<polygon fill="grey" stroke="grey" stroke-width="3" points="1025.39,-97.51 1041.37,-83.59 1020.2,-84.51 1025.39,-97.51"/>
</g>
<!-- 14 -->
<g id="node16" class="node">
<title>14</title>
<path fill="none" stroke="#d11515" stroke-width="3" d="M725,-478.5C725,-478.5 598,-478.5 598,-478.5 592,-478.5 586,-472.5 586,-466.5 586,-466.5 586,-413.5 586,-413.5 586,-407.5 592,-401.5 598,-401.5 598,-401.5 725,-401.5 725,-401.5 731,-401.5 737,-407.5 737,-413.5 737,-413.5 737,-466.5 737,-466.5 737,-472.5 731,-478.5 725,-478.5"/>
<text text-anchor="middle" x="661.5" y="-432.5" font-family="sans" font-size="30.00">GFF file</text>
</g>
<!-- 14&#45;&gt;11 -->
<g id="edge15" class="edge">
<title>14&#45;&gt;11</title>
<path fill="none" stroke="grey" stroke-width="3" d="M632.87,-401.4C623.63,-389.27 613.21,-375.59 603.27,-362.54"/>
<polygon fill="grey" stroke="grey" stroke-width="3" points="608.76,-358.19 591.07,-346.52 597.62,-366.67 608.76,-358.19"/>
</g>
<!-- 15 -->
<g id="node17" class="node">
<title>15</title>
<path fill="none" stroke="#d11515" stroke-width="3" d="M704,-609.5C704,-609.5 483,-609.5 483,-609.5 477,-609.5 471,-603.5 471,-597.5 471,-597.5 471,-544.5 471,-544.5 471,-538.5 477,-532.5 483,-532.5 483,-532.5 704,-532.5 704,-532.5 710,-532.5 716,-538.5 716,-544.5 716,-544.5 716,-597.5 716,-597.5 716,-603.5 710,-609.5 704,-609.5"/>
<text text-anchor="middle" x="593.5" y="-563.5" font-family="sans" font-size="30.00">targeted genes</text>
</g>
<!-- 15&#45;&gt;2 -->
<g id="edge16" class="edge">
<title>15&#45;&gt;2</title>
<path fill="none" stroke="grey" stroke-width="3" d="M555.55,-532.34C543.24,-520.13 529.36,-506.36 516.18,-493.28"/>
<polygon fill="grey" stroke="grey" stroke-width="3" points="520.85,-488.05 501.72,-478.93 510.99,-497.99 520.85,-488.05"/>
</g>
</g>
</svg>
