<?xml version="1.0" encoding="UTF-8" standalone="no"?>
<!DOCTYPE svg PUBLIC "-//W3C//DTD SVG 1.1//EN"
 "http://www.w3.org/Graphics/SVG/1.1/DTD/svg11.dtd">
<!-- Generated by graphviz version 2.49.3 (20211104.1129)
 -->
<!-- Title: pipeline_schematic Pages: 1 -->
<svg width="635pt" height="424pt"
 viewBox="0.00 0.00 634.50 424.00" xmlns="http://www.w3.org/2000/svg" xmlns:xlink="http://www.w3.org/1999/xlink">
<g id="graph0" class="graph" transform="scale(1 1) rotate(0) translate(4 420)">
<title>pipeline_schematic</title>
<polygon fill="white" stroke="transparent" points="-4,4 -4,-420 630.5,-420 630.5,4 -4,4"/>
<!-- 0 -->
<g id="node1" class="node">
<title>0</title>
<path fill="none" stroke="#d11515" stroke-width="3" d="M442,-416C442,-416 386,-416 386,-416 380,-416 374,-410 374,-404 374,-404 374,-351 374,-351 374,-345 380,-339 386,-339 386,-339 442,-339 442,-339 448,-339 454,-345 454,-351 454,-351 454,-404 454,-404 454,-410 448,-416 442,-416"/>
<text text-anchor="middle" x="414" y="-370" font-family="sans" font-size="30.00">all</text>
</g>
<!-- 1 -->
<g id="node2" class="node">
<title>1</title>
<path fill="none" stroke="#15b5d1" stroke-width="3" d="M397,-303C397,-303 207,-303 207,-303 201,-303 195,-297 195,-291 195,-291 195,-238 195,-238 195,-232 201,-226 207,-226 207,-226 397,-226 397,-226 403,-226 409,-232 409,-238 409,-238 409,-291 409,-291 409,-297 403,-303 397,-303"/>
<text text-anchor="middle" x="302" y="-257" font-family="sans" font-size="30.00">Betula spp.</text>
</g>
<!-- 0&#45;&gt;1 -->
<g id="edge1" class="edge">
<title>0&#45;&gt;1</title>
<path fill="none" stroke="grey" stroke-width="3" d="M376.08,-338.92C369.06,-331.96 361.61,-324.58 354.25,-317.28"/>
<polygon fill="grey" stroke="grey" stroke-width="3" points="359.01,-312.15 339.88,-303.04 349.16,-322.09 359.01,-312.15"/>
</g>
<!-- 2 -->
<g id="node3" class="node">
<title>2</title>
<path fill="none" stroke="#15b5d1" stroke-width="3" d="M614.5,-303C614.5,-303 439.5,-303 439.5,-303 433.5,-303 427.5,-297 427.5,-291 427.5,-291 427.5,-238 427.5,-238 427.5,-232 433.5,-226 439.5,-226 439.5,-226 614.5,-226 614.5,-226 620.5,-226 626.5,-232 626.5,-238 626.5,-238 626.5,-291 626.5,-291 626.5,-297 620.5,-303 614.5,-303"/>
<text text-anchor="middle" x="527" y="-257" font-family="sans" font-size="30.00">Alnus spp.</text>
</g>
<!-- 0&#45;&gt;2 -->
<g id="edge2" class="edge">
<title>0&#45;&gt;2</title>
<path fill="none" stroke="grey" stroke-width="3" d="M452.26,-338.92C459.34,-331.96 466.86,-324.58 474.29,-317.28"/>
<polygon fill="grey" stroke="grey" stroke-width="3" points="479.42,-322.05 488.78,-303.04 469.61,-312.06 479.42,-322.05"/>
</g>
<!-- 3 -->
<g id="node4" class="node">
<title>3</title>
<path fill="none" stroke="#15b5d1" stroke-width="3" d="M271.5,-190C271.5,-190 90.5,-190 90.5,-190 84.5,-190 78.5,-184 78.5,-178 78.5,-178 78.5,-125 78.5,-125 78.5,-119 84.5,-113 90.5,-113 90.5,-113 271.5,-113 271.5,-113 277.5,-113 283.5,-119 283.5,-125 283.5,-125 283.5,-178 283.5,-178 283.5,-184 277.5,-190 271.5,-190"/>
<text text-anchor="middle" x="181" y="-144" font-family="sans" font-size="30.00">B. pendula</text>
</g>
<!-- 1&#45;&gt;3 -->
<g id="edge3" class="edge">
<title>1&#45;&gt;3</title>
<path fill="none" stroke="grey" stroke-width="3" d="M261.03,-225.92C253.25,-218.78 244.98,-211.19 236.82,-203.71"/>
<polygon fill="grey" stroke="grey" stroke-width="3" points="241.39,-198.4 221.92,-190.04 231.93,-208.72 241.39,-198.4"/>
</g>
<!-- 6 -->
<g id="node7" class="node">
<title>6</title>
<path fill="none" stroke="#15b5d1" stroke-width="3" d="M534.5,-190C534.5,-190 313.5,-190 313.5,-190 307.5,-190 301.5,-184 301.5,-178 301.5,-178 301.5,-125 301.5,-125 301.5,-119 307.5,-113 313.5,-113 313.5,-113 534.5,-113 534.5,-113 540.5,-113 546.5,-119 546.5,-125 546.5,-125 546.5,-178 546.5,-178 546.5,-184 540.5,-190 534.5,-190"/>
<text text-anchor="middle" x="424" y="-144" font-family="sans" font-size="30.00">B. pubescens</text>
</g>
<!-- 1&#45;&gt;6 -->
<g id="edge4" class="edge">
<title>1&#45;&gt;6</title>
<path fill="none" stroke="grey" stroke-width="3" d="M343.3,-225.92C351.15,-218.78 359.49,-211.19 367.71,-203.71"/>
<polygon fill="grey" stroke="grey" stroke-width="3" points="372.66,-208.68 382.74,-190.04 363.23,-198.32 372.66,-208.68"/>
</g>
<!-- 4 -->
<g id="node5" class="node">
<title>4</title>
<path fill="none" stroke="#15b5d1" stroke-width="3" d="M112,-77C112,-77 12,-77 12,-77 6,-77 0,-71 0,-65 0,-65 0,-12 0,-12 0,-6 6,0 12,0 12,0 112,0 112,0 118,0 124,-6 124,-12 124,-12 124,-65 124,-65 124,-71 118,-77 112,-77"/>
<text text-anchor="middle" x="62" y="-31" font-family="sans" font-size="30.00">north</text>
</g>
<!-- 3&#45;&gt;4 -->
<g id="edge5" class="edge">
<title>3&#45;&gt;4</title>
<path fill="none" stroke="grey" stroke-width="3" d="M140.71,-112.92C133.05,-105.78 124.92,-98.19 116.9,-90.71"/>
<polygon fill="grey" stroke="grey" stroke-width="3" points="121.65,-85.56 102.25,-77.04 112.1,-95.8 121.65,-85.56"/>
</g>
<!-- 5 -->
<g id="node6" class="node">
<title>5</title>
<path fill="none" stroke="#15b5d1" stroke-width="3" d="M258,-77C258,-77 154,-77 154,-77 148,-77 142,-71 142,-65 142,-65 142,-12 142,-12 142,-6 148,0 154,0 154,0 258,0 258,0 264,0 270,-6 270,-12 270,-12 270,-65 270,-65 270,-71 264,-77 258,-77"/>
<text text-anchor="middle" x="206" y="-31" font-family="sans" font-size="30.00">south</text>
</g>
<!-- 3&#45;&gt;5 -->
<g id="edge6" class="edge">
<title>3&#45;&gt;5</title>
<path fill="none" stroke="grey" stroke-width="3" d="M189.46,-112.92C190.64,-107.68 191.88,-102.19 193.12,-96.69"/>
<polygon fill="grey" stroke="grey" stroke-width="3" points="199.98,-98.09 197.54,-77.04 186.32,-95.01 199.98,-98.09"/>
</g>
<!-- 7 -->
<g id="node8" class="node">
<title>7</title>
<path fill="none" stroke="#15b5d1" stroke-width="3" d="M449,-77C449,-77 349,-77 349,-77 343,-77 337,-71 337,-65 337,-65 337,-12 337,-12 337,-6 343,0 349,0 349,0 449,0 449,0 455,0 461,-6 461,-12 461,-12 461,-65 461,-65 461,-71 455,-77 449,-77"/>
<text text-anchor="middle" x="399" y="-31" font-family="sans" font-size="30.00">north</text>
</g>
<!-- 6&#45;&gt;7 -->
<g id="edge7" class="edge">
<title>6&#45;&gt;7</title>
<path fill="none" stroke="grey" stroke-width="3" d="M415.54,-112.92C414.36,-107.68 413.12,-102.19 411.88,-96.69"/>
<polygon fill="grey" stroke="grey" stroke-width="3" points="418.68,-95.01 407.46,-77.04 405.02,-98.09 418.68,-95.01"/>
</g>
<!-- 8 -->
<g id="node9" class="node">
<title>8</title>
<path fill="none" stroke="#15b5d1" stroke-width="3" d="M595,-77C595,-77 491,-77 491,-77 485,-77 479,-71 479,-65 479,-65 479,-12 479,-12 479,-6 485,0 491,0 491,0 595,0 595,0 601,0 607,-6 607,-12 607,-12 607,-65 607,-65 607,-71 601,-77 595,-77"/>
<text text-anchor="middle" x="543" y="-31" font-family="sans" font-size="30.00">south</text>
</g>
<!-- 6&#45;&gt;8 -->
<g id="edge8" class="edge">
<title>6&#45;&gt;8</title>
<path fill="none" stroke="grey" stroke-width="3" d="M464.29,-112.92C471.95,-105.78 480.08,-98.19 488.1,-90.71"/>
<polygon fill="grey" stroke="grey" stroke-width="3" points="492.9,-95.8 502.75,-77.04 483.35,-85.56 492.9,-95.8"/>
</g>
</g>
</svg>
