<?xml version="1.0" encoding="UTF-8" standalone="no"?>
<!DOCTYPE svg PUBLIC "-//W3C//DTD SVG 1.1//EN"
 "http://www.w3.org/Graphics/SVG/1.1/DTD/svg11.dtd">
<!-- Generated by graphviz version 2.49.3 (0)
 -->
<!-- Title: pipeline_schematic Pages: 1 -->
<svg width="1281pt" height="771pt"
 viewBox="0.00 0.00 1280.50 771.20" xmlns="http://www.w3.org/2000/svg" xmlns:xlink="http://www.w3.org/1999/xlink">
<g id="graph0" class="graph" transform="scale(1 1) rotate(0) translate(4 767.2)">
<title>pipeline_schematic</title>
<polygon fill="white" stroke="transparent" points="-4,4 -4,-767.2 1276.5,-767.2 1276.5,4 -4,4"/>
<!-- 0 -->
<g id="node1" class="node">
<title>0</title>
<path fill="none" stroke="#9915d1" stroke-width="3" d="M788.5,-746.5C788.5,-746.5 551.5,-746.5 551.5,-746.5 545.5,-746.5 539.5,-740.5 539.5,-734.5 539.5,-734.5 539.5,-681.5 539.5,-681.5 539.5,-675.5 545.5,-669.5 551.5,-669.5 551.5,-669.5 788.5,-669.5 788.5,-669.5 794.5,-669.5 800.5,-675.5 800.5,-681.5 800.5,-681.5 800.5,-734.5 800.5,-734.5 800.5,-740.5 794.5,-746.5 788.5,-746.5"/>
<text text-anchor="middle" x="670" y="-700.5" font-family="sans" font-size="30.00">Basic definitions</text>
</g>
<!-- 1 -->
<g id="node2" class="node">
<title>1</title>
<path fill="none" stroke="#9915d1" stroke-width="3" d="M880,-583.5C880,-583.5 460,-583.5 460,-583.5 454,-583.5 448,-577.5 448,-571.5 448,-571.5 448,-518.5 448,-518.5 448,-512.5 454,-506.5 460,-506.5 460,-506.5 880,-506.5 880,-506.5 886,-506.5 892,-512.5 892,-518.5 892,-518.5 892,-571.5 892,-571.5 892,-577.5 886,-583.5 880,-583.5"/>
<text text-anchor="middle" x="670" y="-537.5" font-family="sans" font-size="30.00">SNP calling &amp; VCF annotation</text>
</g>
<!-- 0&#45;&gt;1 -->
<g id="edge1" class="edge">
<title>0&#45;&gt;1</title>
<path fill="none" stroke="grey" stroke-width="3" d="M670,-669.25C670,-649.77 670,-625.59 670,-603.81"/>
<polygon fill="grey" stroke="grey" stroke-width="3" points="677,-603.51 670,-583.51 663,-603.51 677,-603.51"/>
</g>
<!-- 2 -->
<g id="node3" class="node">
<title>2</title>
<path fill="none" stroke="#9915d1" stroke-width="3" d="M824.5,-420.5C824.5,-420.5 515.5,-420.5 515.5,-420.5 509.5,-420.5 503.5,-414.5 503.5,-408.5 503.5,-408.5 503.5,-355.5 503.5,-355.5 503.5,-349.5 509.5,-343.5 515.5,-343.5 515.5,-343.5 824.5,-343.5 824.5,-343.5 830.5,-343.5 836.5,-349.5 836.5,-355.5 836.5,-355.5 836.5,-408.5 836.5,-408.5 836.5,-414.5 830.5,-420.5 824.5,-420.5"/>
<text text-anchor="middle" x="670" y="-374.5" font-family="sans" font-size="30.00">Sample set derivation</text>
</g>
<!-- 1&#45;&gt;2 -->
<g id="edge2" class="edge">
<title>1&#45;&gt;2</title>
<path fill="none" stroke="grey" stroke-width="3" d="M670,-506.25C670,-486.77 670,-462.59 670,-440.81"/>
<polygon fill="grey" stroke="grey" stroke-width="3" points="677,-440.51 670,-420.51 663,-440.51 677,-440.51"/>
</g>
<!-- 3 -->
<g id="node4" class="node">
<title>3</title>
<path fill="none" stroke="#9915d1" stroke-width="3" d="M763,-257.5C763,-257.5 577,-257.5 577,-257.5 571,-257.5 565,-251.5 565,-245.5 565,-245.5 565,-192.5 565,-192.5 565,-186.5 571,-180.5 577,-180.5 577,-180.5 763,-180.5 763,-180.5 769,-180.5 775,-186.5 775,-192.5 775,-192.5 775,-245.5 775,-245.5 775,-251.5 769,-257.5 763,-257.5"/>
<text text-anchor="middle" x="670" y="-211.5" font-family="sans" font-size="30.00">VCF filtering</text>
</g>
<!-- 2&#45;&gt;3 -->
<g id="edge3" class="edge">
<title>2&#45;&gt;3</title>
<path fill="none" stroke="grey" stroke-width="3" d="M670,-343.25C670,-323.77 670,-299.59 670,-277.81"/>
<polygon fill="grey" stroke="grey" stroke-width="3" points="677,-277.51 670,-257.51 663,-277.51 677,-277.51"/>
</g>
<!-- 4 -->
<g id="node5" class="node">
<title>4</title>
<path fill="none" stroke="#15b5d1" stroke-width="3" d="M284,-94.5C284,-94.5 12,-94.5 12,-94.5 6,-94.5 0,-88.5 0,-82.5 0,-82.5 0,-29.5 0,-29.5 0,-23.5 6,-17.5 12,-17.5 12,-17.5 284,-17.5 284,-17.5 290,-17.5 296,-23.5 296,-29.5 296,-29.5 296,-82.5 296,-82.5 296,-88.5 290,-94.5 284,-94.5"/>
<text text-anchor="middle" x="148" y="-48.5" font-family="sans" font-size="30.00">Summary statistics</text>
</g>
<!-- 3&#45;&gt;4 -->
<g id="edge4" class="edge">
<title>3&#45;&gt;4</title>
<path fill="none" stroke="grey" stroke-width="3" d="M564.99,-185.61C485.69,-161.15 376.05,-127.34 289.09,-100.52"/>
<polygon fill="grey" stroke="grey" stroke-width="3" points="290.95,-93.76 269.78,-94.56 286.82,-107.14 290.95,-93.76"/>
</g>
<!-- 5 -->
<g id="node6" class="node">
<title>5</title>
<path fill="none" stroke="#15b5d1" stroke-width="3" d="M450,-94.5C450,-94.5 326,-94.5 326,-94.5 320,-94.5 314,-88.5 314,-82.5 314,-82.5 314,-29.5 314,-29.5 314,-23.5 320,-17.5 326,-17.5 326,-17.5 450,-17.5 450,-17.5 456,-17.5 462,-23.5 462,-29.5 462,-29.5 462,-82.5 462,-82.5 462,-88.5 456,-94.5 450,-94.5"/>
<text text-anchor="middle" x="388" y="-48.5" font-family="sans" font-size="30.00">FEEMS</text>
</g>
<!-- 3&#45;&gt;5 -->
<g id="edge5" class="edge">
<title>3&#45;&gt;5</title>
<path fill="none" stroke="grey" stroke-width="3" d="M604.24,-180.46C564.65,-157.85 513.87,-128.86 471.47,-104.65"/>
<polygon fill="grey" stroke="grey" stroke-width="3" points="474.7,-98.44 453.86,-94.6 467.76,-110.6 474.7,-98.44"/>
</g>
<!-- 6 -->
<g id="node7" class="node">
<title>6</title>
<path fill="none" stroke="#15b5d1" stroke-width="3" d="M574,-94.5C574,-94.5 492,-94.5 492,-94.5 486,-94.5 480,-88.5 480,-82.5 480,-82.5 480,-29.5 480,-29.5 480,-23.5 486,-17.5 492,-17.5 492,-17.5 574,-17.5 574,-17.5 580,-17.5 586,-23.5 586,-29.5 586,-29.5 586,-82.5 586,-82.5 586,-88.5 580,-94.5 574,-94.5"/>
<text text-anchor="middle" x="533" y="-48.5" font-family="sans" font-size="30.00">PCA</text>
</g>
<!-- 3&#45;&gt;6 -->
<g id="edge6" class="edge">
<title>3&#45;&gt;6</title>
<path fill="none" stroke="grey" stroke-width="3" d="M637.88,-180.25C620.02,-159.26 597.5,-132.8 577.92,-109.79"/>
<polygon fill="grey" stroke="grey" stroke-width="3" points="583.21,-105.21 564.92,-94.51 572.55,-114.28 583.21,-105.21"/>
</g>
<!-- 7 -->
<g id="node8" class="node">
<title>7</title>
<path fill="none" stroke="#15b5d1" stroke-width="3" d="M723.5,-94.5C723.5,-94.5 616.5,-94.5 616.5,-94.5 610.5,-94.5 604.5,-88.5 604.5,-82.5 604.5,-82.5 604.5,-29.5 604.5,-29.5 604.5,-23.5 610.5,-17.5 616.5,-17.5 616.5,-17.5 723.5,-17.5 723.5,-17.5 729.5,-17.5 735.5,-23.5 735.5,-29.5 735.5,-29.5 735.5,-82.5 735.5,-82.5 735.5,-88.5 729.5,-94.5 723.5,-94.5"/>
<text text-anchor="middle" x="670" y="-48.5" font-family="sans" font-size="30.00">UMAP</text>
</g>
<!-- 3&#45;&gt;7 -->
<g id="edge7" class="edge">
<title>3&#45;&gt;7</title>
<path fill="none" stroke="grey" stroke-width="3" d="M670,-180.25C670,-160.77 670,-136.59 670,-114.81"/>
<polygon fill="grey" stroke="grey" stroke-width="3" points="677,-114.51 670,-94.51 663,-114.51 677,-114.51"/>
</g>
<!-- 8 -->
<g id="node9" class="node">
<title>8</title>
<path fill="none" stroke="#15b5d1" stroke-width="3" d="M902,-94.5C902,-94.5 766,-94.5 766,-94.5 760,-94.5 754,-88.5 754,-82.5 754,-82.5 754,-29.5 754,-29.5 754,-23.5 760,-17.5 766,-17.5 766,-17.5 902,-17.5 902,-17.5 908,-17.5 914,-23.5 914,-29.5 914,-29.5 914,-82.5 914,-82.5 914,-88.5 908,-94.5 902,-94.5"/>
<text text-anchor="middle" x="834" y="-48.5" font-family="sans" font-size="30.00">polyDFE</text>
</g>
<!-- 3&#45;&gt;8 -->
<g id="edge8" class="edge">
<title>3&#45;&gt;8</title>
<path fill="none" stroke="grey" stroke-width="3" d="M708.45,-180.25C730.14,-158.96 757.57,-132.04 781.24,-108.79"/>
<polygon fill="grey" stroke="grey" stroke-width="3" points="786.42,-113.52 795.79,-94.51 776.61,-103.53 786.42,-113.52"/>
</g>
<!-- 9 -->
<g id="node10" class="node">
<title>9</title>
<path fill="none" stroke="#15b5d1" stroke-width="3" d="M1021.5,-94.5C1021.5,-94.5 944.5,-94.5 944.5,-94.5 938.5,-94.5 932.5,-88.5 932.5,-82.5 932.5,-82.5 932.5,-29.5 932.5,-29.5 932.5,-23.5 938.5,-17.5 944.5,-17.5 944.5,-17.5 1021.5,-17.5 1021.5,-17.5 1027.5,-17.5 1033.5,-23.5 1033.5,-29.5 1033.5,-29.5 1033.5,-82.5 1033.5,-82.5 1033.5,-88.5 1027.5,-94.5 1021.5,-94.5"/>
<text text-anchor="middle" x="983" y="-48.5" font-family="sans" font-size="30.00">dadi</text>
</g>
<!-- 3&#45;&gt;9 -->
<g id="edge9" class="edge">
<title>3&#45;&gt;9</title>
<path fill="none" stroke="grey" stroke-width="3" d="M752.29,-180.5C797.82,-159.15 855.59,-131.1 914.89,-98.78"/>
<polygon fill="grey" stroke="grey" stroke-width="3" points="918.34,-104.87 932.48,-89.09 911.59,-92.61 918.34,-104.87"/>
</g>
<!-- 10 -->
<g id="node11" class="node">
<title>10</title>
<path fill="none" stroke="#15b5d1" stroke-width="3" d="M1260.5,-94.5C1260.5,-94.5 1063.5,-94.5 1063.5,-94.5 1057.5,-94.5 1051.5,-88.5 1051.5,-82.5 1051.5,-82.5 1051.5,-29.5 1051.5,-29.5 1051.5,-23.5 1057.5,-17.5 1063.5,-17.5 1063.5,-17.5 1260.5,-17.5 1260.5,-17.5 1266.5,-17.5 1272.5,-23.5 1272.5,-29.5 1272.5,-29.5 1272.5,-82.5 1272.5,-82.5 1272.5,-88.5 1266.5,-94.5 1260.5,-94.5"/>
<text text-anchor="middle" x="1162" y="-48.5" font-family="sans" font-size="30.00">ADMIXTURE</text>
</g>
<!-- 3&#45;&gt;10 -->
<g id="edge10" class="edge">
<title>3&#45;&gt;10</title>
<path fill="none" stroke="grey" stroke-width="3" d="M775.24,-183.56C850.43,-158.96 952.05,-125.7 1032.26,-99.46"/>
<polygon fill="grey" stroke="grey" stroke-width="3" points="1034.54,-106.07 1051.37,-93.2 1030.19,-92.77 1034.54,-106.07"/>
</g>
</g>
</svg>
