<?xml version="1.0" encoding="utf-8" standalone="no"?>
<!DOCTYPE svg PUBLIC "-//W3C//DTD SVG 1.1//EN"
  "http://www.w3.org/Graphics/SVG/1.1/DTD/svg11.dtd">
<svg height="207.76425pt" version="1.1" viewBox="0 0 219.190813 207.76425" width="219.190813pt" xmlns="http://www.w3.org/2000/svg" xmlns:xlink="http://www.w3.org/1999/xlink">
 <metadata>
  <rdf:RDF xmlns:cc="http://creativecommons.org/ns#" xmlns:dc="http://purl.org/dc/elements/1.1/" xmlns:rdf="http://www.w3.org/1999/02/22-rdf-syntax-ns#">
   <cc:Work>
    <dc:type rdf:resource="http://purl.org/dc/dcmitype/StillImage"/>
    <dc:date>2022-02-01T16:38:42.028703</dc:date>
    <dc:format>image/svg+xml</dc:format>
    <dc:creator>
     <cc:Agent>
      <dc:title>Matplotlib v3.4.3, https://matplotlib.org/</dc:title>
     </cc:Agent>
    </dc:creator>
   </cc:Work>
  </rdf:RDF>
 </metadata>
 <defs>
  <style type="text/css">*{stroke-linecap:butt;stroke-linejoin:round;}</style>
 </defs>
 <g id="figure_1">
  <g id="patch_1">
   <path d="M 0 207.76425 
L 219.190813 207.76425 
L 219.190813 0 
L 0 0 
z
" style="fill:#ffffff;"/>
  </g>
  <g id="axes_1">
   <g id="patch_2">
    <path d="M 41.782813 177.408 
L 219.190812 177.408 
L 219.190812 -0 
L 41.782813 -0 
z
" style="fill:#ffffff;"/>
   </g>
   <g id="PathCollection_1">
    <defs>
     <path d="M 0 1.581139 
C 0.419323 1.581139 0.821528 1.41454 1.118034 1.118034 
C 1.41454 0.821528 1.581139 0.419323 1.581139 -0 
C 1.581139 -0.419323 1.41454 -0.821528 1.118034 -1.118034 
C 0.821528 -1.41454 0.419323 -1.581139 0 -1.581139 
C -0.419323 -1.581139 -0.821528 -1.41454 -1.118034 -1.118034 
C -1.41454 -0.821528 -1.581139 -0.419323 -1.581139 0 
C -1.581139 0.419323 -1.41454 0.821528 -1.118034 1.118034 
C -0.821528 1.41454 -0.419323 1.581139 0 1.581139 
z
" id="C0_0_3d45100c19"/>
    </defs>
    <g clip-path="url(#p35d59bb59e)">
     <use style="fill:#440154;stroke:#440154;" x="126.187186" xlink:href="#C0_0_3d45100c19" y="109.436443"/>
    </g>
    <g clip-path="url(#p35d59bb59e)">
     <use style="fill:#440154;stroke:#440154;" x="136.247513" xlink:href="#C0_0_3d45100c19" y="119.231481"/>
    </g>
    <g clip-path="url(#p35d59bb59e)">
     <use style="fill:#440154;stroke:#440154;" x="116.394309" xlink:href="#C0_0_3d45100c19" y="115.849792"/>
    </g>
    <g clip-path="url(#p35d59bb59e)">
     <use style="fill:#440154;stroke:#440154;" x="73.791188" xlink:href="#C0_0_3d45100c19" y="117.307287"/>
    </g>
    <g clip-path="url(#p35d59bb59e)">
     <use style="fill:#440154;stroke:#440154;" x="151.880723" xlink:href="#C0_0_3d45100c19" y="94.129572"/>
    </g>
    <g clip-path="url(#p35d59bb59e)">
     <use style="fill:#fde725;stroke:#fde725;" x="97.084727" xlink:href="#C0_0_3d45100c19" y="117.096935"/>
    </g>
    <g clip-path="url(#p35d59bb59e)">
     <use style="fill:#fde725;stroke:#fde725;" x="93.101455" xlink:href="#C0_0_3d45100c19" y="75.228306"/>
    </g>
    <g clip-path="url(#p35d59bb59e)">
     <use style="fill:#440154;stroke:#440154;" x="137.086352" xlink:href="#C0_0_3d45100c19" y="109.02104"/>
    </g>
    <g clip-path="url(#p35d59bb59e)">
     <use style="fill:#440154;stroke:#440154;" x="170.510049" xlink:href="#C0_0_3d45100c19" y="133.999156"/>
    </g>
    <g clip-path="url(#p35d59bb59e)">
     <use style="fill:#440154;stroke:#440154;" x="148.548748" xlink:href="#C0_0_3d45100c19" y="108.996013"/>
    </g>
    <g clip-path="url(#p35d59bb59e)">
     <use style="fill:#440154;stroke:#440154;" x="102.848948" xlink:href="#C0_0_3d45100c19" y="156.841582"/>
    </g>
    <g clip-path="url(#p35d59bb59e)">
     <use style="fill:#440154;stroke:#440154;" x="136.453294" xlink:href="#C0_0_3d45100c19" y="122.752969"/>
    </g>
    <g clip-path="url(#p35d59bb59e)">
     <use style="fill:#440154;stroke:#440154;" x="129.65845" xlink:href="#C0_0_3d45100c19" y="138.111122"/>
    </g>
    <g clip-path="url(#p35d59bb59e)">
     <use style="fill:#440154;stroke:#440154;" x="94.823498" xlink:href="#C0_0_3d45100c19" y="131.574953"/>
    </g>
    <g clip-path="url(#p35d59bb59e)">
     <use style="fill:#440154;stroke:#440154;" x="96.353722" xlink:href="#C0_0_3d45100c19" y="125.082358"/>
    </g>
    <g clip-path="url(#p35d59bb59e)">
     <use style="fill:#440154;stroke:#440154;" x="139.465448" xlink:href="#C0_0_3d45100c19" y="117.353751"/>
    </g>
    <g clip-path="url(#p35d59bb59e)">
     <use style="fill:#440154;stroke:#440154;" x="125.961869" xlink:href="#C0_0_3d45100c19" y="106.044627"/>
    </g>
    <g clip-path="url(#p35d59bb59e)">
     <use style="fill:#440154;stroke:#440154;" x="154.96619" xlink:href="#C0_0_3d45100c19" y="143.004351"/>
    </g>
    <g clip-path="url(#p35d59bb59e)">
     <use style="fill:#440154;stroke:#440154;" x="100.763361" xlink:href="#C0_0_3d45100c19" y="83.10864"/>
    </g>
    <g clip-path="url(#p35d59bb59e)">
     <use style="fill:#440154;stroke:#440154;" x="72.135498" xlink:href="#C0_0_3d45100c19" y="124.57839"/>
    </g>
    <g clip-path="url(#p35d59bb59e)">
     <use style="fill:#fde725;stroke:#fde725;" x="149.666518" xlink:href="#C0_0_3d45100c19" y="114.679766"/>
    </g>
    <g clip-path="url(#p35d59bb59e)">
     <use style="fill:#440154;stroke:#440154;" x="111.265522" xlink:href="#C0_0_3d45100c19" y="149.982743"/>
    </g>
    <g clip-path="url(#p35d59bb59e)">
     <use style="fill:#440154;stroke:#440154;" x="174.752927" xlink:href="#C0_0_3d45100c19" y="106.855006"/>
    </g>
    <g clip-path="url(#p35d59bb59e)">
     <use style="fill:#440154;stroke:#440154;" x="176.11236" xlink:href="#C0_0_3d45100c19" y="93.096989"/>
    </g>
    <g clip-path="url(#p35d59bb59e)">
     <use style="fill:#fde725;stroke:#fde725;" x="149.856618" xlink:href="#C0_0_3d45100c19" y="50.348428"/>
    </g>
    <g clip-path="url(#p35d59bb59e)">
     <use style="fill:#fde725;stroke:#fde725;" x="139.038923" xlink:href="#C0_0_3d45100c19" y="49.107149"/>
    </g>
    <g clip-path="url(#p35d59bb59e)">
     <use style="fill:#fde725;stroke:#fde725;" x="135.189445" xlink:href="#C0_0_3d45100c19" y="24.455048"/>
    </g>
    <g clip-path="url(#p35d59bb59e)">
     <use style="fill:#fde725;stroke:#fde725;" x="107.674321" xlink:href="#C0_0_3d45100c19" y="32.620447"/>
    </g>
    <g clip-path="url(#p35d59bb59e)">
     <use style="fill:#fde725;stroke:#fde725;" x="133.811044" xlink:href="#C0_0_3d45100c19" y="80.521325"/>
    </g>
    <g clip-path="url(#p35d59bb59e)">
     <use style="fill:#fde725;stroke:#fde725;" x="112.153721" xlink:href="#C0_0_3d45100c19" y="75.665156"/>
    </g>
    <g clip-path="url(#p35d59bb59e)">
     <use style="fill:#440154;stroke:#440154;" x="90.382151" xlink:href="#C0_0_3d45100c19" y="117.850624"/>
    </g>
    <g clip-path="url(#p35d59bb59e)">
     <use style="fill:#fde725;stroke:#fde725;" x="174.806928" xlink:href="#C0_0_3d45100c19" y="76.795835"/>
    </g>
    <g clip-path="url(#p35d59bb59e)">
     <use style="fill:#fde725;stroke:#fde725;" x="91.539592" xlink:href="#C0_0_3d45100c19" y="63.770788"/>
    </g>
    <g clip-path="url(#p35d59bb59e)">
     <use style="fill:#fde725;stroke:#fde725;" x="102.816325" xlink:href="#C0_0_3d45100c19" y="41.102365"/>
    </g>
    <g clip-path="url(#p35d59bb59e)">
     <use style="fill:#fde725;stroke:#fde725;" x="88.649111" xlink:href="#C0_0_3d45100c19" y="58.620909"/>
    </g>
    <g clip-path="url(#p35d59bb59e)">
     <use style="fill:#fde725;stroke:#fde725;" x="162.644481" xlink:href="#C0_0_3d45100c19" y="80.284754"/>
    </g>
    <g clip-path="url(#p35d59bb59e)">
     <use style="fill:#fde725;stroke:#fde725;" x="78.369932" xlink:href="#C0_0_3d45100c19" y="90.320646"/>
    </g>
    <g clip-path="url(#p35d59bb59e)">
     <use style="fill:#fde725;stroke:#fde725;" x="120.35011" xlink:href="#C0_0_3d45100c19" y="96.449711"/>
    </g>
    <g clip-path="url(#p35d59bb59e)">
     <use style="fill:#fde725;stroke:#fde725;" x="78.71613" xlink:href="#C0_0_3d45100c19" y="84.433111"/>
    </g>
    <g clip-path="url(#p35d59bb59e)">
     <use style="fill:#fde725;stroke:#fde725;" x="140.055516" xlink:href="#C0_0_3d45100c19" y="51.678424"/>
    </g>
    <g clip-path="url(#p35d59bb59e)">
     <use style="fill:#fde725;stroke:#fde725;" x="97.84935" xlink:href="#C0_0_3d45100c19" y="61.519684"/>
    </g>
    <g clip-path="url(#p35d59bb59e)">
     <use style="fill:#fde725;stroke:#fde725;" x="84.279046" xlink:href="#C0_0_3d45100c19" y="67.33461"/>
    </g>
    <g clip-path="url(#p35d59bb59e)">
     <use style="fill:#fde725;stroke:#fde725;" x="115.701857" xlink:href="#C0_0_3d45100c19" y="60.218072"/>
    </g>
    <g clip-path="url(#p35d59bb59e)">
     <use style="fill:#440154;stroke:#440154;" x="59.999039" xlink:href="#C0_0_3d45100c19" y="105.83903"/>
    </g>
    <g clip-path="url(#p35d59bb59e)">
     <use style="fill:#440154;stroke:#440154;" x="49.253139" xlink:href="#C0_0_3d45100c19" y="102.893239"/>
    </g>
    <g clip-path="url(#p35d59bb59e)">
     <use style="fill:#440154;stroke:#440154;" x="54.852715" xlink:href="#C0_0_3d45100c19" y="99.838271"/>
    </g>
    <g clip-path="url(#p35d59bb59e)">
     <use style="fill:#440154;stroke:#440154;" x="104.655301" xlink:href="#C0_0_3d45100c19" y="140.535226"/>
    </g>
    <g clip-path="url(#p35d59bb59e)">
     <use style="fill:#440154;stroke:#440154;" x="134.441514" xlink:href="#C0_0_3d45100c19" y="137.101774"/>
    </g>
    <g clip-path="url(#p35d59bb59e)">
     <use style="fill:#440154;stroke:#440154;" x="76.593104" xlink:href="#C0_0_3d45100c19" y="113.86862"/>
    </g>
    <g clip-path="url(#p35d59bb59e)">
     <use style="fill:#440154;stroke:#440154;" x="99.391441" xlink:href="#C0_0_3d45100c19" y="102.062983"/>
    </g>
    <g clip-path="url(#p35d59bb59e)">
     <use style="fill:#440154;stroke:#440154;" x="167.168191" xlink:href="#C0_0_3d45100c19" y="116.400953"/>
    </g>
    <g clip-path="url(#p35d59bb59e)">
     <use style="fill:#440154;stroke:#440154;" x="126.94112" xlink:href="#C0_0_3d45100c19" y="73.229686"/>
    </g>
    <g clip-path="url(#p35d59bb59e)">
     <use style="fill:#440154;stroke:#440154;" x="179.808547" xlink:href="#C0_0_3d45100c19" y="145.397872"/>
    </g>
    <g clip-path="url(#p35d59bb59e)">
     <use style="fill:#440154;stroke:#440154;" x="130.334811" xlink:href="#C0_0_3d45100c19" y="130.499868"/>
    </g>
    <g clip-path="url(#p35d59bb59e)">
     <use style="fill:#440154;stroke:#440154;" x="108.79203" xlink:href="#C0_0_3d45100c19" y="119.279377"/>
    </g>
    <g clip-path="url(#p35d59bb59e)">
     <use style="fill:#440154;stroke:#440154;" x="115.49905" xlink:href="#C0_0_3d45100c19" y="117.636233"/>
    </g>
    <g clip-path="url(#p35d59bb59e)">
     <use style="fill:#440154;stroke:#440154;" x="174.396265" xlink:href="#C0_0_3d45100c19" y="117.287362"/>
    </g>
    <g clip-path="url(#p35d59bb59e)">
     <use style="fill:#440154;stroke:#440154;" x="183.767536" xlink:href="#C0_0_3d45100c19" y="111.404867"/>
    </g>
    <g clip-path="url(#p35d59bb59e)">
     <use style="fill:#440154;stroke:#440154;" x="104.660393" xlink:href="#C0_0_3d45100c19" y="95.938906"/>
    </g>
    <g clip-path="url(#p35d59bb59e)">
     <use style="fill:#440154;stroke:#440154;" x="120.214308" xlink:href="#C0_0_3d45100c19" y="124.63755"/>
    </g>
    <g clip-path="url(#p35d59bb59e)">
     <use style="fill:#440154;stroke:#440154;" x="67.020435" xlink:href="#C0_0_3d45100c19" y="137.330076"/>
    </g>
    <g clip-path="url(#p35d59bb59e)">
     <use style="fill:#440154;stroke:#440154;" x="122.853727" xlink:href="#C0_0_3d45100c19" y="112.567883"/>
    </g>
    <g clip-path="url(#p35d59bb59e)">
     <use style="fill:#440154;stroke:#440154;" x="147.108715" xlink:href="#C0_0_3d45100c19" y="105.465972"/>
    </g>
    <g clip-path="url(#p35d59bb59e)">
     <use style="fill:#440154;stroke:#440154;" x="191.274357" xlink:href="#C0_0_3d45100c19" y="109.138128"/>
    </g>
    <g clip-path="url(#p35d59bb59e)">
     <use style="fill:#fde725;stroke:#fde725;" x="93.613352" xlink:href="#C0_0_3d45100c19" y="73.648137"/>
    </g>
    <g clip-path="url(#p35d59bb59e)">
     <use style="fill:#fde725;stroke:#fde725;" x="98.312379" xlink:href="#C0_0_3d45100c19" y="98.764012"/>
    </g>
    <g clip-path="url(#p35d59bb59e)">
     <use style="fill:#fde725;stroke:#fde725;" x="103.241065" xlink:href="#C0_0_3d45100c19" y="91.973836"/>
    </g>
    <g clip-path="url(#p35d59bb59e)">
     <use style="fill:#fde725;stroke:#fde725;" x="144.376865" xlink:href="#C0_0_3d45100c19" y="42.691524"/>
    </g>
    <g clip-path="url(#p35d59bb59e)">
     <use style="fill:#440154;stroke:#440154;" x="151.883163" xlink:href="#C0_0_3d45100c19" y="109.627641"/>
    </g>
    <g clip-path="url(#p35d59bb59e)">
     <use style="fill:#440154;stroke:#440154;" x="117.628082" xlink:href="#C0_0_3d45100c19" y="98.69571"/>
    </g>
    <g clip-path="url(#p35d59bb59e)">
     <use style="fill:#fde725;stroke:#fde725;" x="112.698242" xlink:href="#C0_0_3d45100c19" y="78.747969"/>
    </g>
    <g clip-path="url(#p35d59bb59e)">
     <use style="fill:#fde725;stroke:#fde725;" x="121.944032" xlink:href="#C0_0_3d45100c19" y="68.656136"/>
    </g>
    <g clip-path="url(#p35d59bb59e)">
     <use style="fill:#440154;stroke:#440154;" x="161.229478" xlink:href="#C0_0_3d45100c19" y="98.847591"/>
    </g>
    <g clip-path="url(#p35d59bb59e)">
     <use style="fill:#440154;stroke:#440154;" x="198.65967" xlink:href="#C0_0_3d45100c19" y="139.071183"/>
    </g>
    <g clip-path="url(#p35d59bb59e)">
     <use style="fill:#fde725;stroke:#fde725;" x="108.002736" xlink:href="#C0_0_3d45100c19" y="33.700684"/>
    </g>
    <g clip-path="url(#p35d59bb59e)">
     <use style="fill:#fde725;stroke:#fde725;" x="151.045062" xlink:href="#C0_0_3d45100c19" y="64.414402"/>
    </g>
    <g clip-path="url(#p35d59bb59e)">
     <use style="fill:#fde725;stroke:#fde725;" x="69.719677" xlink:href="#C0_0_3d45100c19" y="99.519971"/>
    </g>
    <g clip-path="url(#p35d59bb59e)">
     <use style="fill:#fde725;stroke:#fde725;" x="113.6564" xlink:href="#C0_0_3d45100c19" y="64.573889"/>
    </g>
    <g clip-path="url(#p35d59bb59e)">
     <use style="fill:#fde725;stroke:#fde725;" x="116.81407" xlink:href="#C0_0_3d45100c19" y="49.002293"/>
    </g>
    <g clip-path="url(#p35d59bb59e)">
     <use style="fill:#fde725;stroke:#fde725;" x="150.200735" xlink:href="#C0_0_3d45100c19" y="46.978438"/>
    </g>
    <g clip-path="url(#p35d59bb59e)">
     <use style="fill:#fde725;stroke:#fde725;" x="129.730907" xlink:href="#C0_0_3d45100c19" y="8.064"/>
    </g>
    <g clip-path="url(#p35d59bb59e)">
     <use style="fill:#fde725;stroke:#fde725;" x="180.656319" xlink:href="#C0_0_3d45100c19" y="74.480797"/>
    </g>
    <g clip-path="url(#p35d59bb59e)">
     <use style="fill:#440154;stroke:#440154;" x="100.744665" xlink:href="#C0_0_3d45100c19" y="90.438538"/>
    </g>
    <g clip-path="url(#p35d59bb59e)">
     <use style="fill:#fde725;stroke:#fde725;" x="143.368104" xlink:href="#C0_0_3d45100c19" y="94.415683"/>
    </g>
    <g clip-path="url(#p35d59bb59e)">
     <use style="fill:#440154;stroke:#440154;" x="89.257451" xlink:href="#C0_0_3d45100c19" y="89.110201"/>
    </g>
    <g clip-path="url(#p35d59bb59e)">
     <use style="fill:#440154;stroke:#440154;" x="107.098519" xlink:href="#C0_0_3d45100c19" y="115.933229"/>
    </g>
    <g clip-path="url(#p35d59bb59e)">
     <use style="fill:#440154;stroke:#440154;" x="121.929755" xlink:href="#C0_0_3d45100c19" y="119.400473"/>
    </g>
    <g clip-path="url(#p35d59bb59e)">
     <use style="fill:#440154;stroke:#440154;" x="118.252106" xlink:href="#C0_0_3d45100c19" y="110.583209"/>
    </g>
    <g clip-path="url(#p35d59bb59e)">
     <use style="fill:#fde725;stroke:#fde725;" x="177.173988" xlink:href="#C0_0_3d45100c19" y="85.845786"/>
    </g>
    <g clip-path="url(#p35d59bb59e)">
     <use style="fill:#440154;stroke:#440154;" x="175.199737" xlink:href="#C0_0_3d45100c19" y="102.139333"/>
    </g>
    <g clip-path="url(#p35d59bb59e)">
     <use style="fill:#440154;stroke:#440154;" x="121.994021" xlink:href="#C0_0_3d45100c19" y="135.697974"/>
    </g>
    <g clip-path="url(#p35d59bb59e)">
     <use style="fill:#440154;stroke:#440154;" x="59.869339" xlink:href="#C0_0_3d45100c19" y="126.864869"/>
    </g>
    <g clip-path="url(#p35d59bb59e)">
     <use style="fill:#440154;stroke:#440154;" x="84.995306" xlink:href="#C0_0_3d45100c19" y="122.897955"/>
    </g>
    <g clip-path="url(#p35d59bb59e)">
     <use style="fill:#440154;stroke:#440154;" x="192.159419" xlink:href="#C0_0_3d45100c19" y="99.403812"/>
    </g>
    <g clip-path="url(#p35d59bb59e)">
     <use style="fill:#440154;stroke:#440154;" x="120.097489" xlink:href="#C0_0_3d45100c19" y="118.195779"/>
    </g>
    <g clip-path="url(#p35d59bb59e)">
     <use style="fill:#440154;stroke:#440154;" x="90.656873" xlink:href="#C0_0_3d45100c19" y="117.394546"/>
    </g>
    <g clip-path="url(#p35d59bb59e)">
     <use style="fill:#440154;stroke:#440154;" x="170.132208" xlink:href="#C0_0_3d45100c19" y="139.507293"/>
    </g>
    <g clip-path="url(#p35d59bb59e)">
     <use style="fill:#440154;stroke:#440154;" x="145.583137" xlink:href="#C0_0_3d45100c19" y="114.243438"/>
    </g>
    <g clip-path="url(#p35d59bb59e)">
     <use style="fill:#440154;stroke:#440154;" x="145.972466" xlink:href="#C0_0_3d45100c19" y="116.221135"/>
    </g>
    <g clip-path="url(#p35d59bb59e)">
     <use style="fill:#440154;stroke:#440154;" x="136.218819" xlink:href="#C0_0_3d45100c19" y="97.154823"/>
    </g>
    <g clip-path="url(#p35d59bb59e)">
     <use style="fill:#440154;stroke:#440154;" x="185.053663" xlink:href="#C0_0_3d45100c19" y="115.244309"/>
    </g>
    <g clip-path="url(#p35d59bb59e)">
     <use style="fill:#440154;stroke:#440154;" x="169.247666" xlink:href="#C0_0_3d45100c19" y="151.62357"/>
    </g>
    <g clip-path="url(#p35d59bb59e)">
     <use style="fill:#440154;stroke:#440154;" x="152.658378" xlink:href="#C0_0_3d45100c19" y="107.654622"/>
    </g>
    <g clip-path="url(#p35d59bb59e)">
     <use style="fill:#440154;stroke:#440154;" x="69.586327" xlink:href="#C0_0_3d45100c19" y="97.186239"/>
    </g>
    <g clip-path="url(#p35d59bb59e)">
     <use style="fill:#440154;stroke:#440154;" x="76.424161" xlink:href="#C0_0_3d45100c19" y="130.147214"/>
    </g>
    <g clip-path="url(#p35d59bb59e)">
     <use style="fill:#440154;stroke:#440154;" x="142.025327" xlink:href="#C0_0_3d45100c19" y="96.314055"/>
    </g>
    <g clip-path="url(#p35d59bb59e)">
     <use style="fill:#fde725;stroke:#fde725;" x="133.876499" xlink:href="#C0_0_3d45100c19" y="94.428036"/>
    </g>
    <g clip-path="url(#p35d59bb59e)">
     <use style="fill:#fde725;stroke:#fde725;" x="152.234748" xlink:href="#C0_0_3d45100c19" y="81.860281"/>
    </g>
    <g clip-path="url(#p35d59bb59e)">
     <use style="fill:#fde725;stroke:#fde725;" x="171.781513" xlink:href="#C0_0_3d45100c19" y="114.322156"/>
    </g>
    <g clip-path="url(#p35d59bb59e)">
     <use style="fill:#fde725;stroke:#fde725;" x="105.051984" xlink:href="#C0_0_3d45100c19" y="13.70283"/>
    </g>
    <g clip-path="url(#p35d59bb59e)">
     <use style="fill:#fde725;stroke:#fde725;" x="140.070404" xlink:href="#C0_0_3d45100c19" y="17.523773"/>
    </g>
    <g clip-path="url(#p35d59bb59e)">
     <use style="fill:#fde725;stroke:#fde725;" x="109.112065" xlink:href="#C0_0_3d45100c19" y="20.016303"/>
    </g>
    <g clip-path="url(#p35d59bb59e)">
     <use style="fill:#fde725;stroke:#fde725;" x="129.251203" xlink:href="#C0_0_3d45100c19" y="29.843816"/>
    </g>
    <g clip-path="url(#p35d59bb59e)">
     <use style="fill:#fde725;stroke:#fde725;" x="94.589342" xlink:href="#C0_0_3d45100c19" y="55.993227"/>
    </g>
    <g clip-path="url(#p35d59bb59e)">
     <use style="fill:#fde725;stroke:#fde725;" x="81.342126" xlink:href="#C0_0_3d45100c19" y="69.997408"/>
    </g>
    <g clip-path="url(#p35d59bb59e)">
     <use style="fill:#fde725;stroke:#fde725;" x="85.053833" xlink:href="#C0_0_3d45100c19" y="64.811516"/>
    </g>
    <g clip-path="url(#p35d59bb59e)">
     <use style="fill:#fde725;stroke:#fde725;" x="168.017413" xlink:href="#C0_0_3d45100c19" y="54.219163"/>
    </g>
    <g clip-path="url(#p35d59bb59e)">
     <use style="fill:#fde725;stroke:#fde725;" x="141.922971" xlink:href="#C0_0_3d45100c19" y="27.925842"/>
    </g>
    <g clip-path="url(#p35d59bb59e)">
     <use style="fill:#fde725;stroke:#fde725;" x="131.121352" xlink:href="#C0_0_3d45100c19" y="72.940462"/>
    </g>
    <g clip-path="url(#p35d59bb59e)">
     <use style="fill:#fde725;stroke:#fde725;" x="126.783576" xlink:href="#C0_0_3d45100c19" y="76.857552"/>
    </g>
    <g clip-path="url(#p35d59bb59e)">
     <use style="fill:#440154;stroke:#440154;" x="104.620904" xlink:href="#C0_0_3d45100c19" y="91.874802"/>
    </g>
    <g clip-path="url(#p35d59bb59e)">
     <use style="fill:#440154;stroke:#440154;" x="77.078285" xlink:href="#C0_0_3d45100c19" y="111.569362"/>
    </g>
    <g clip-path="url(#p35d59bb59e)">
     <use style="fill:#440154;stroke:#440154;" x="139.399531" xlink:href="#C0_0_3d45100c19" y="123.156176"/>
    </g>
    <g clip-path="url(#p35d59bb59e)">
     <use style="fill:#fde725;stroke:#fde725;" x="141.16669" xlink:href="#C0_0_3d45100c19" y="77.368647"/>
    </g>
    <g clip-path="url(#p35d59bb59e)">
     <use style="fill:#440154;stroke:#440154;" x="52.124435" xlink:href="#C0_0_3d45100c19" y="137.192142"/>
    </g>
    <g clip-path="url(#p35d59bb59e)">
     <use style="fill:#440154;stroke:#440154;" x="104.677962" xlink:href="#C0_0_3d45100c19" y="152.52874"/>
    </g>
    <g clip-path="url(#p35d59bb59e)">
     <use style="fill:#440154;stroke:#440154;" x="128.296842" xlink:href="#C0_0_3d45100c19" y="110.312939"/>
    </g>
    <g clip-path="url(#p35d59bb59e)">
     <use style="fill:#440154;stroke:#440154;" x="129.713968" xlink:href="#C0_0_3d45100c19" y="123.960364"/>
    </g>
    <g clip-path="url(#p35d59bb59e)">
     <use style="fill:#440154;stroke:#440154;" x="95.779134" xlink:href="#C0_0_3d45100c19" y="134.691753"/>
    </g>
    <g clip-path="url(#p35d59bb59e)">
     <use style="fill:#440154;stroke:#440154;" x="98.543137" xlink:href="#C0_0_3d45100c19" y="136.623046"/>
    </g>
    <g clip-path="url(#p35d59bb59e)">
     <use style="fill:#440154;stroke:#440154;" x="167.095199" xlink:href="#C0_0_3d45100c19" y="127.527443"/>
    </g>
    <g clip-path="url(#p35d59bb59e)">
     <use style="fill:#440154;stroke:#440154;" x="142.032024" xlink:href="#C0_0_3d45100c19" y="119.066128"/>
    </g>
    <g clip-path="url(#p35d59bb59e)">
     <use style="fill:#440154;stroke:#440154;" x="113.641794" xlink:href="#C0_0_3d45100c19" y="169.344"/>
    </g>
    <g clip-path="url(#p35d59bb59e)">
     <use style="fill:#440154;stroke:#440154;" x="122.686046" xlink:href="#C0_0_3d45100c19" y="152.816636"/>
    </g>
    <g clip-path="url(#p35d59bb59e)">
     <use style="fill:#440154;stroke:#440154;" x="147.688244" xlink:href="#C0_0_3d45100c19" y="130.197405"/>
    </g>
    <g clip-path="url(#p35d59bb59e)">
     <use style="fill:#440154;stroke:#440154;" x="82.481191" xlink:href="#C0_0_3d45100c19" y="102.097412"/>
    </g>
    <g clip-path="url(#p35d59bb59e)">
     <use style="fill:#440154;stroke:#440154;" x="125.377125" xlink:href="#C0_0_3d45100c19" y="95.15888"/>
    </g>
    <g clip-path="url(#p35d59bb59e)">
     <use style="fill:#440154;stroke:#440154;" x="119.64952" xlink:href="#C0_0_3d45100c19" y="94.498605"/>
    </g>
    <g clip-path="url(#p35d59bb59e)">
     <use style="fill:#440154;stroke:#440154;" x="75.061278" xlink:href="#C0_0_3d45100c19" y="90.367385"/>
    </g>
    <g clip-path="url(#p35d59bb59e)">
     <use style="fill:#440154;stroke:#440154;" x="103.240045" xlink:href="#C0_0_3d45100c19" y="128.456853"/>
    </g>
    <g clip-path="url(#p35d59bb59e)">
     <use style="fill:#440154;stroke:#440154;" x="164.40941" xlink:href="#C0_0_3d45100c19" y="149.215161"/>
    </g>
    <g clip-path="url(#p35d59bb59e)">
     <use style="fill:#440154;stroke:#440154;" x="120.229401" xlink:href="#C0_0_3d45100c19" y="125.35034"/>
    </g>
    <g clip-path="url(#p35d59bb59e)">
     <use style="fill:#440154;stroke:#440154;" x="119.999237" xlink:href="#C0_0_3d45100c19" y="115.823526"/>
    </g>
    <g clip-path="url(#p35d59bb59e)">
     <use style="fill:#440154;stroke:#440154;" x="135.680181" xlink:href="#C0_0_3d45100c19" y="101.635978"/>
    </g>
    <g clip-path="url(#p35d59bb59e)">
     <use style="fill:#440154;stroke:#440154;" x="131.937209" xlink:href="#C0_0_3d45100c19" y="102.118311"/>
    </g>
    <g clip-path="url(#p35d59bb59e)">
     <use style="fill:#440154;stroke:#440154;" x="98.778054" xlink:href="#C0_0_3d45100c19" y="105.947788"/>
    </g>
    <g clip-path="url(#p35d59bb59e)">
     <use style="fill:#440154;stroke:#440154;" x="90.041953" xlink:href="#C0_0_3d45100c19" y="143.587621"/>
    </g>
    <g clip-path="url(#p35d59bb59e)">
     <use style="fill:#440154;stroke:#440154;" x="74.17228" xlink:href="#C0_0_3d45100c19" y="114.632528"/>
    </g>
    <g clip-path="url(#p35d59bb59e)">
     <use style="fill:#440154;stroke:#440154;" x="150.929581" xlink:href="#C0_0_3d45100c19" y="108.598718"/>
    </g>
    <g clip-path="url(#p35d59bb59e)">
     <use style="fill:#440154;stroke:#440154;" x="112.87346" xlink:href="#C0_0_3d45100c19" y="135.345938"/>
    </g>
    <g clip-path="url(#p35d59bb59e)">
     <use style="fill:#440154;stroke:#440154;" x="188.938964" xlink:href="#C0_0_3d45100c19" y="88.005308"/>
    </g>
    <g clip-path="url(#p35d59bb59e)">
     <use style="fill:#440154;stroke:#440154;" x="152.612596" xlink:href="#C0_0_3d45100c19" y="125.436091"/>
    </g>
    <g clip-path="url(#p35d59bb59e)">
     <use style="fill:#440154;stroke:#440154;" x="130.872976" xlink:href="#C0_0_3d45100c19" y="83.994709"/>
    </g>
    <g clip-path="url(#p35d59bb59e)">
     <use style="fill:#440154;stroke:#440154;" x="84.095843" xlink:href="#C0_0_3d45100c19" y="125.39895"/>
    </g>
    <g clip-path="url(#p35d59bb59e)">
     <use style="fill:#440154;stroke:#440154;" x="113.081889" xlink:href="#C0_0_3d45100c19" y="116.623981"/>
    </g>
   </g>
   <g id="matplotlib.axis_1">
    <g id="xtick_1">
     <g id="line2d_1">
      <defs>
       <path d="M 0 0 
L 0 3.5 
" id="m5660f15a48" style="stroke:#000000;stroke-width:0.8;"/>
      </defs>
      <g>
       <use style="stroke:#000000;stroke-width:0.8;" x="48.904425" xlink:href="#m5660f15a48" y="177.408"/>
      </g>
     </g>
     <g id="text_1">
      <!-- −10 -->
      <g transform="translate(38.352081 192.006437)scale(0.1 -0.1)">
       <defs>
        <path d="M 678 2272 
L 4684 2272 
L 4684 1741 
L 678 1741 
L 678 2272 
z
" id="DejaVuSans-2212" transform="scale(0.015625)"/>
        <path d="M 794 531 
L 1825 531 
L 1825 4091 
L 703 3866 
L 703 4441 
L 1819 4666 
L 2450 4666 
L 2450 531 
L 3481 531 
L 3481 0 
L 794 0 
L 794 531 
z
" id="DejaVuSans-31" transform="scale(0.015625)"/>
        <path d="M 2034 4250 
Q 1547 4250 1301 3770 
Q 1056 3291 1056 2328 
Q 1056 1369 1301 889 
Q 1547 409 2034 409 
Q 2525 409 2770 889 
Q 3016 1369 3016 2328 
Q 3016 3291 2770 3770 
Q 2525 4250 2034 4250 
z
M 2034 4750 
Q 2819 4750 3233 4129 
Q 3647 3509 3647 2328 
Q 3647 1150 3233 529 
Q 2819 -91 2034 -91 
Q 1250 -91 836 529 
Q 422 1150 422 2328 
Q 422 3509 836 4129 
Q 1250 4750 2034 4750 
z
" id="DejaVuSans-30" transform="scale(0.015625)"/>
       </defs>
       <use xlink:href="#DejaVuSans-2212"/>
       <use x="83.789062" xlink:href="#DejaVuSans-31"/>
       <use x="147.412109" xlink:href="#DejaVuSans-30"/>
      </g>
     </g>
    </g>
    <g id="xtick_2">
     <g id="line2d_2">
      <g>
       <use style="stroke:#000000;stroke-width:0.8;" x="85.959622" xlink:href="#m5660f15a48" y="177.408"/>
      </g>
     </g>
     <g id="text_2">
      <!-- −5 -->
      <g transform="translate(78.588528 192.006437)scale(0.1 -0.1)">
       <defs>
        <path d="M 691 4666 
L 3169 4666 
L 3169 4134 
L 1269 4134 
L 1269 2991 
Q 1406 3038 1543 3061 
Q 1681 3084 1819 3084 
Q 2600 3084 3056 2656 
Q 3513 2228 3513 1497 
Q 3513 744 3044 326 
Q 2575 -91 1722 -91 
Q 1428 -91 1123 -41 
Q 819 9 494 109 
L 494 744 
Q 775 591 1075 516 
Q 1375 441 1709 441 
Q 2250 441 2565 725 
Q 2881 1009 2881 1497 
Q 2881 1984 2565 2268 
Q 2250 2553 1709 2553 
Q 1456 2553 1204 2497 
Q 953 2441 691 2322 
L 691 4666 
z
" id="DejaVuSans-35" transform="scale(0.015625)"/>
       </defs>
       <use xlink:href="#DejaVuSans-2212"/>
       <use x="83.789062" xlink:href="#DejaVuSans-35"/>
      </g>
     </g>
    </g>
    <g id="xtick_3">
     <g id="line2d_3">
      <g>
       <use style="stroke:#000000;stroke-width:0.8;" x="123.014818" xlink:href="#m5660f15a48" y="177.408"/>
      </g>
     </g>
     <g id="text_3">
      <!-- 0 -->
      <g transform="translate(119.833568 192.006437)scale(0.1 -0.1)">
       <use xlink:href="#DejaVuSans-30"/>
      </g>
     </g>
    </g>
    <g id="xtick_4">
     <g id="line2d_4">
      <g>
       <use style="stroke:#000000;stroke-width:0.8;" x="160.070015" xlink:href="#m5660f15a48" y="177.408"/>
      </g>
     </g>
     <g id="text_4">
      <!-- 5 -->
      <g transform="translate(156.888765 192.006437)scale(0.1 -0.1)">
       <use xlink:href="#DejaVuSans-35"/>
      </g>
     </g>
    </g>
    <g id="xtick_5">
     <g id="line2d_5">
      <g>
       <use style="stroke:#000000;stroke-width:0.8;" x="197.125212" xlink:href="#m5660f15a48" y="177.408"/>
      </g>
     </g>
     <g id="text_5">
      <!-- 10 -->
      <g transform="translate(190.762712 192.006437)scale(0.1 -0.1)">
       <use xlink:href="#DejaVuSans-31"/>
       <use x="63.623047" xlink:href="#DejaVuSans-30"/>
      </g>
     </g>
    </g>
    <g id="text_6">
     <!-- 1.54% -->
     <g transform="translate(114.603219 205.684562)scale(0.1 -0.1)">
      <defs>
       <path d="M 684 794 
L 1344 794 
L 1344 0 
L 684 0 
L 684 794 
z
" id="DejaVuSans-2e" transform="scale(0.015625)"/>
       <path d="M 2419 4116 
L 825 1625 
L 2419 1625 
L 2419 4116 
z
M 2253 4666 
L 3047 4666 
L 3047 1625 
L 3713 1625 
L 3713 1100 
L 3047 1100 
L 3047 0 
L 2419 0 
L 2419 1100 
L 313 1100 
L 313 1709 
L 2253 4666 
z
" id="DejaVuSans-34" transform="scale(0.015625)"/>
       <path d="M 4653 2053 
Q 4381 2053 4226 1822 
Q 4072 1591 4072 1178 
Q 4072 772 4226 539 
Q 4381 306 4653 306 
Q 4919 306 5073 539 
Q 5228 772 5228 1178 
Q 5228 1588 5073 1820 
Q 4919 2053 4653 2053 
z
M 4653 2450 
Q 5147 2450 5437 2106 
Q 5728 1763 5728 1178 
Q 5728 594 5436 251 
Q 5144 -91 4653 -91 
Q 4153 -91 3862 251 
Q 3572 594 3572 1178 
Q 3572 1766 3864 2108 
Q 4156 2450 4653 2450 
z
M 1428 4353 
Q 1159 4353 1004 4120 
Q 850 3888 850 3481 
Q 850 3069 1003 2837 
Q 1156 2606 1428 2606 
Q 1700 2606 1854 2837 
Q 2009 3069 2009 3481 
Q 2009 3884 1853 4118 
Q 1697 4353 1428 4353 
z
M 4250 4750 
L 4750 4750 
L 1831 -91 
L 1331 -91 
L 4250 4750 
z
M 1428 4750 
Q 1922 4750 2215 4408 
Q 2509 4066 2509 3481 
Q 2509 2891 2217 2550 
Q 1925 2209 1428 2209 
Q 931 2209 642 2551 
Q 353 2894 353 3481 
Q 353 4063 643 4406 
Q 934 4750 1428 4750 
z
" id="DejaVuSans-25" transform="scale(0.015625)"/>
      </defs>
      <use xlink:href="#DejaVuSans-31"/>
      <use x="63.623047" xlink:href="#DejaVuSans-2e"/>
      <use x="95.410156" xlink:href="#DejaVuSans-35"/>
      <use x="159.033203" xlink:href="#DejaVuSans-34"/>
      <use x="222.65625" xlink:href="#DejaVuSans-25"/>
     </g>
    </g>
   </g>
   <g id="matplotlib.axis_2">
    <g id="ytick_1">
     <g id="line2d_6">
      <defs>
       <path d="M 0 0 
L -3.5 0 
" id="m6827de7da3" style="stroke:#000000;stroke-width:0.8;"/>
      </defs>
      <g>
       <use style="stroke:#000000;stroke-width:0.8;" x="41.782813" xlink:href="#m6827de7da3" y="173.94818"/>
      </g>
     </g>
     <g id="text_7">
      <!-- −10 -->
      <g transform="translate(13.678125 177.747399)scale(0.1 -0.1)">
       <use xlink:href="#DejaVuSans-2212"/>
       <use x="83.789062" xlink:href="#DejaVuSans-31"/>
       <use x="147.412109" xlink:href="#DejaVuSans-30"/>
      </g>
     </g>
    </g>
    <g id="ytick_2">
     <g id="line2d_7">
      <g>
       <use style="stroke:#000000;stroke-width:0.8;" x="41.782813" xlink:href="#m6827de7da3" y="136.892983"/>
      </g>
     </g>
     <g id="text_8">
      <!-- −5 -->
      <g transform="translate(20.040625 140.692202)scale(0.1 -0.1)">
       <use xlink:href="#DejaVuSans-2212"/>
       <use x="83.789062" xlink:href="#DejaVuSans-35"/>
      </g>
     </g>
    </g>
    <g id="ytick_3">
     <g id="line2d_8">
      <g>
       <use style="stroke:#000000;stroke-width:0.8;" x="41.782813" xlink:href="#m6827de7da3" y="99.837787"/>
      </g>
     </g>
     <g id="text_9">
      <!-- 0 -->
      <g transform="translate(28.420313 103.637005)scale(0.1 -0.1)">
       <use xlink:href="#DejaVuSans-30"/>
      </g>
     </g>
    </g>
    <g id="ytick_4">
     <g id="line2d_9">
      <g>
       <use style="stroke:#000000;stroke-width:0.8;" x="41.782813" xlink:href="#m6827de7da3" y="62.78259"/>
      </g>
     </g>
     <g id="text_10">
      <!-- 5 -->
      <g transform="translate(28.420313 66.581809)scale(0.1 -0.1)">
       <use xlink:href="#DejaVuSans-35"/>
      </g>
     </g>
    </g>
    <g id="ytick_5">
     <g id="line2d_10">
      <g>
       <use style="stroke:#000000;stroke-width:0.8;" x="41.782813" xlink:href="#m6827de7da3" y="25.727393"/>
      </g>
     </g>
     <g id="text_11">
      <!-- 10 -->
      <g transform="translate(22.057813 29.526612)scale(0.1 -0.1)">
       <use xlink:href="#DejaVuSans-31"/>
       <use x="63.623047" xlink:href="#DejaVuSans-30"/>
      </g>
     </g>
    </g>
    <g id="text_12">
     <!-- 1.48% -->
     <g transform="translate(7.598438 104.587594)rotate(-90)scale(0.1 -0.1)">
      <defs>
       <path d="M 2034 2216 
Q 1584 2216 1326 1975 
Q 1069 1734 1069 1313 
Q 1069 891 1326 650 
Q 1584 409 2034 409 
Q 2484 409 2743 651 
Q 3003 894 3003 1313 
Q 3003 1734 2745 1975 
Q 2488 2216 2034 2216 
z
M 1403 2484 
Q 997 2584 770 2862 
Q 544 3141 544 3541 
Q 544 4100 942 4425 
Q 1341 4750 2034 4750 
Q 2731 4750 3128 4425 
Q 3525 4100 3525 3541 
Q 3525 3141 3298 2862 
Q 3072 2584 2669 2484 
Q 3125 2378 3379 2068 
Q 3634 1759 3634 1313 
Q 3634 634 3220 271 
Q 2806 -91 2034 -91 
Q 1263 -91 848 271 
Q 434 634 434 1313 
Q 434 1759 690 2068 
Q 947 2378 1403 2484 
z
M 1172 3481 
Q 1172 3119 1398 2916 
Q 1625 2713 2034 2713 
Q 2441 2713 2670 2916 
Q 2900 3119 2900 3481 
Q 2900 3844 2670 4047 
Q 2441 4250 2034 4250 
Q 1625 4250 1398 4047 
Q 1172 3844 1172 3481 
z
" id="DejaVuSans-38" transform="scale(0.015625)"/>
      </defs>
      <use xlink:href="#DejaVuSans-31"/>
      <use x="63.623047" xlink:href="#DejaVuSans-2e"/>
      <use x="95.410156" xlink:href="#DejaVuSans-34"/>
      <use x="159.033203" xlink:href="#DejaVuSans-38"/>
      <use x="222.65625" xlink:href="#DejaVuSans-25"/>
     </g>
    </g>
   </g>
   <g id="patch_3">
    <path d="M 41.782813 177.408 
L 41.782813 -0 
" style="fill:none;stroke:#000000;stroke-linecap:square;stroke-linejoin:miter;stroke-width:0.8;"/>
   </g>
   <g id="patch_4">
    <path d="M 219.190812 177.408 
L 219.190812 -0 
" style="fill:none;stroke:#000000;stroke-linecap:square;stroke-linejoin:miter;stroke-width:0.8;"/>
   </g>
   <g id="patch_5">
    <path d="M 41.782813 177.408 
L 219.190813 177.408 
" style="fill:none;stroke:#000000;stroke-linecap:square;stroke-linejoin:miter;stroke-width:0.8;"/>
   </g>
   <g id="patch_6">
    <path d="M 41.782813 -0 
L 219.190813 -0 
" style="fill:none;stroke:#000000;stroke-linecap:square;stroke-linejoin:miter;stroke-width:0.8;"/>
   </g>
   <g id="legend_1">
    <g id="patch_7">
     <path d="M 95.440812 37.35625 
L 212.190812 37.35625 
Q 214.190812 37.35625 214.190812 35.35625 
L 214.190812 7 
Q 214.190812 5 212.190812 5 
L 95.440812 5 
Q 93.440812 5 93.440812 7 
L 93.440812 35.35625 
Q 93.440812 37.35625 95.440812 37.35625 
z
" style="fill:#ffffff;opacity:0.8;stroke:#cccccc;stroke-linejoin:miter;"/>
    </g>
    <g id="line2d_11"/>
    <g id="line2d_12">
     <defs>
      <path d="M 0 3 
C 0.795609 3 1.55874 2.683901 2.12132 2.12132 
C 2.683901 1.55874 3 0.795609 3 0 
C 3 -0.795609 2.683901 -1.55874 2.12132 -2.12132 
C 1.55874 -2.683901 0.795609 -3 0 -3 
C -0.795609 -3 -1.55874 -2.683901 -2.12132 -2.12132 
C -2.683901 -1.55874 -3 -0.795609 -3 0 
C -3 0.795609 -2.683901 1.55874 -2.12132 2.12132 
C -1.55874 2.683901 -0.795609 3 0 3 
z
" id="m81eae8670d" style="stroke:#440154;"/>
     </defs>
     <g>
      <use style="fill:#440154;stroke:#440154;" x="107.440812" xlink:href="#m81eae8670d" y="13.098437"/>
     </g>
    </g>
    <g id="text_13">
     <!-- B. pendula north -->
     <g transform="translate(125.440812 16.598437)scale(0.1 -0.1)">
      <defs>
       <path d="M 1259 2228 
L 1259 519 
L 2272 519 
Q 2781 519 3026 730 
Q 3272 941 3272 1375 
Q 3272 1813 3026 2020 
Q 2781 2228 2272 2228 
L 1259 2228 
z
M 1259 4147 
L 1259 2741 
L 2194 2741 
Q 2656 2741 2882 2914 
Q 3109 3088 3109 3444 
Q 3109 3797 2882 3972 
Q 2656 4147 2194 4147 
L 1259 4147 
z
M 628 4666 
L 2241 4666 
Q 2963 4666 3353 4366 
Q 3744 4066 3744 3513 
Q 3744 3084 3544 2831 
Q 3344 2578 2956 2516 
Q 3422 2416 3680 2098 
Q 3938 1781 3938 1306 
Q 3938 681 3513 340 
Q 3088 0 2303 0 
L 628 0 
L 628 4666 
z
" id="DejaVuSans-42" transform="scale(0.015625)"/>
       <path id="DejaVuSans-20" transform="scale(0.015625)"/>
       <path d="M 1159 525 
L 1159 -1331 
L 581 -1331 
L 581 3500 
L 1159 3500 
L 1159 2969 
Q 1341 3281 1617 3432 
Q 1894 3584 2278 3584 
Q 2916 3584 3314 3078 
Q 3713 2572 3713 1747 
Q 3713 922 3314 415 
Q 2916 -91 2278 -91 
Q 1894 -91 1617 61 
Q 1341 213 1159 525 
z
M 3116 1747 
Q 3116 2381 2855 2742 
Q 2594 3103 2138 3103 
Q 1681 3103 1420 2742 
Q 1159 2381 1159 1747 
Q 1159 1113 1420 752 
Q 1681 391 2138 391 
Q 2594 391 2855 752 
Q 3116 1113 3116 1747 
z
" id="DejaVuSans-70" transform="scale(0.015625)"/>
       <path d="M 3597 1894 
L 3597 1613 
L 953 1613 
Q 991 1019 1311 708 
Q 1631 397 2203 397 
Q 2534 397 2845 478 
Q 3156 559 3463 722 
L 3463 178 
Q 3153 47 2828 -22 
Q 2503 -91 2169 -91 
Q 1331 -91 842 396 
Q 353 884 353 1716 
Q 353 2575 817 3079 
Q 1281 3584 2069 3584 
Q 2775 3584 3186 3129 
Q 3597 2675 3597 1894 
z
M 3022 2063 
Q 3016 2534 2758 2815 
Q 2500 3097 2075 3097 
Q 1594 3097 1305 2825 
Q 1016 2553 972 2059 
L 3022 2063 
z
" id="DejaVuSans-65" transform="scale(0.015625)"/>
       <path d="M 3513 2113 
L 3513 0 
L 2938 0 
L 2938 2094 
Q 2938 2591 2744 2837 
Q 2550 3084 2163 3084 
Q 1697 3084 1428 2787 
Q 1159 2491 1159 1978 
L 1159 0 
L 581 0 
L 581 3500 
L 1159 3500 
L 1159 2956 
Q 1366 3272 1645 3428 
Q 1925 3584 2291 3584 
Q 2894 3584 3203 3211 
Q 3513 2838 3513 2113 
z
" id="DejaVuSans-6e" transform="scale(0.015625)"/>
       <path d="M 2906 2969 
L 2906 4863 
L 3481 4863 
L 3481 0 
L 2906 0 
L 2906 525 
Q 2725 213 2448 61 
Q 2172 -91 1784 -91 
Q 1150 -91 751 415 
Q 353 922 353 1747 
Q 353 2572 751 3078 
Q 1150 3584 1784 3584 
Q 2172 3584 2448 3432 
Q 2725 3281 2906 2969 
z
M 947 1747 
Q 947 1113 1208 752 
Q 1469 391 1925 391 
Q 2381 391 2643 752 
Q 2906 1113 2906 1747 
Q 2906 2381 2643 2742 
Q 2381 3103 1925 3103 
Q 1469 3103 1208 2742 
Q 947 2381 947 1747 
z
" id="DejaVuSans-64" transform="scale(0.015625)"/>
       <path d="M 544 1381 
L 544 3500 
L 1119 3500 
L 1119 1403 
Q 1119 906 1312 657 
Q 1506 409 1894 409 
Q 2359 409 2629 706 
Q 2900 1003 2900 1516 
L 2900 3500 
L 3475 3500 
L 3475 0 
L 2900 0 
L 2900 538 
Q 2691 219 2414 64 
Q 2138 -91 1772 -91 
Q 1169 -91 856 284 
Q 544 659 544 1381 
z
M 1991 3584 
L 1991 3584 
z
" id="DejaVuSans-75" transform="scale(0.015625)"/>
       <path d="M 603 4863 
L 1178 4863 
L 1178 0 
L 603 0 
L 603 4863 
z
" id="DejaVuSans-6c" transform="scale(0.015625)"/>
       <path d="M 2194 1759 
Q 1497 1759 1228 1600 
Q 959 1441 959 1056 
Q 959 750 1161 570 
Q 1363 391 1709 391 
Q 2188 391 2477 730 
Q 2766 1069 2766 1631 
L 2766 1759 
L 2194 1759 
z
M 3341 1997 
L 3341 0 
L 2766 0 
L 2766 531 
Q 2569 213 2275 61 
Q 1981 -91 1556 -91 
Q 1019 -91 701 211 
Q 384 513 384 1019 
Q 384 1609 779 1909 
Q 1175 2209 1959 2209 
L 2766 2209 
L 2766 2266 
Q 2766 2663 2505 2880 
Q 2244 3097 1772 3097 
Q 1472 3097 1187 3025 
Q 903 2953 641 2809 
L 641 3341 
Q 956 3463 1253 3523 
Q 1550 3584 1831 3584 
Q 2591 3584 2966 3190 
Q 3341 2797 3341 1997 
z
" id="DejaVuSans-61" transform="scale(0.015625)"/>
       <path d="M 1959 3097 
Q 1497 3097 1228 2736 
Q 959 2375 959 1747 
Q 959 1119 1226 758 
Q 1494 397 1959 397 
Q 2419 397 2687 759 
Q 2956 1122 2956 1747 
Q 2956 2369 2687 2733 
Q 2419 3097 1959 3097 
z
M 1959 3584 
Q 2709 3584 3137 3096 
Q 3566 2609 3566 1747 
Q 3566 888 3137 398 
Q 2709 -91 1959 -91 
Q 1206 -91 779 398 
Q 353 888 353 1747 
Q 353 2609 779 3096 
Q 1206 3584 1959 3584 
z
" id="DejaVuSans-6f" transform="scale(0.015625)"/>
       <path d="M 2631 2963 
Q 2534 3019 2420 3045 
Q 2306 3072 2169 3072 
Q 1681 3072 1420 2755 
Q 1159 2438 1159 1844 
L 1159 0 
L 581 0 
L 581 3500 
L 1159 3500 
L 1159 2956 
Q 1341 3275 1631 3429 
Q 1922 3584 2338 3584 
Q 2397 3584 2469 3576 
Q 2541 3569 2628 3553 
L 2631 2963 
z
" id="DejaVuSans-72" transform="scale(0.015625)"/>
       <path d="M 1172 4494 
L 1172 3500 
L 2356 3500 
L 2356 3053 
L 1172 3053 
L 1172 1153 
Q 1172 725 1289 603 
Q 1406 481 1766 481 
L 2356 481 
L 2356 0 
L 1766 0 
Q 1100 0 847 248 
Q 594 497 594 1153 
L 594 3053 
L 172 3053 
L 172 3500 
L 594 3500 
L 594 4494 
L 1172 4494 
z
" id="DejaVuSans-74" transform="scale(0.015625)"/>
       <path d="M 3513 2113 
L 3513 0 
L 2938 0 
L 2938 2094 
Q 2938 2591 2744 2837 
Q 2550 3084 2163 3084 
Q 1697 3084 1428 2787 
Q 1159 2491 1159 1978 
L 1159 0 
L 581 0 
L 581 4863 
L 1159 4863 
L 1159 2956 
Q 1366 3272 1645 3428 
Q 1925 3584 2291 3584 
Q 2894 3584 3203 3211 
Q 3513 2838 3513 2113 
z
" id="DejaVuSans-68" transform="scale(0.015625)"/>
      </defs>
      <use xlink:href="#DejaVuSans-42"/>
      <use x="68.603516" xlink:href="#DejaVuSans-2e"/>
      <use x="100.390625" xlink:href="#DejaVuSans-20"/>
      <use x="132.177734" xlink:href="#DejaVuSans-70"/>
      <use x="195.654297" xlink:href="#DejaVuSans-65"/>
      <use x="257.177734" xlink:href="#DejaVuSans-6e"/>
      <use x="320.556641" xlink:href="#DejaVuSans-64"/>
      <use x="384.033203" xlink:href="#DejaVuSans-75"/>
      <use x="447.412109" xlink:href="#DejaVuSans-6c"/>
      <use x="475.195312" xlink:href="#DejaVuSans-61"/>
      <use x="536.474609" xlink:href="#DejaVuSans-20"/>
      <use x="568.261719" xlink:href="#DejaVuSans-6e"/>
      <use x="631.640625" xlink:href="#DejaVuSans-6f"/>
      <use x="692.822266" xlink:href="#DejaVuSans-72"/>
      <use x="733.935547" xlink:href="#DejaVuSans-74"/>
      <use x="773.144531" xlink:href="#DejaVuSans-68"/>
     </g>
    </g>
    <g id="line2d_13"/>
    <g id="line2d_14">
     <defs>
      <path d="M 0 3 
C 0.795609 3 1.55874 2.683901 2.12132 2.12132 
C 2.683901 1.55874 3 0.795609 3 0 
C 3 -0.795609 2.683901 -1.55874 2.12132 -2.12132 
C 1.55874 -2.683901 0.795609 -3 0 -3 
C -0.795609 -3 -1.55874 -2.683901 -2.12132 -2.12132 
C -2.683901 -1.55874 -3 -0.795609 -3 0 
C -3 0.795609 -2.683901 1.55874 -2.12132 2.12132 
C -1.55874 2.683901 -0.795609 3 0 3 
z
" id="mb987834510" style="stroke:#fde725;"/>
     </defs>
     <g>
      <use style="fill:#fde725;stroke:#fde725;" x="107.440812" xlink:href="#mb987834510" y="27.776562"/>
     </g>
    </g>
    <g id="text_14">
     <!-- B. pendula south -->
     <g transform="translate(125.440812 31.276562)scale(0.1 -0.1)">
      <defs>
       <path d="M 2834 3397 
L 2834 2853 
Q 2591 2978 2328 3040 
Q 2066 3103 1784 3103 
Q 1356 3103 1142 2972 
Q 928 2841 928 2578 
Q 928 2378 1081 2264 
Q 1234 2150 1697 2047 
L 1894 2003 
Q 2506 1872 2764 1633 
Q 3022 1394 3022 966 
Q 3022 478 2636 193 
Q 2250 -91 1575 -91 
Q 1294 -91 989 -36 
Q 684 19 347 128 
L 347 722 
Q 666 556 975 473 
Q 1284 391 1588 391 
Q 1994 391 2212 530 
Q 2431 669 2431 922 
Q 2431 1156 2273 1281 
Q 2116 1406 1581 1522 
L 1381 1569 
Q 847 1681 609 1914 
Q 372 2147 372 2553 
Q 372 3047 722 3315 
Q 1072 3584 1716 3584 
Q 2034 3584 2315 3537 
Q 2597 3491 2834 3397 
z
" id="DejaVuSans-73" transform="scale(0.015625)"/>
      </defs>
      <use xlink:href="#DejaVuSans-42"/>
      <use x="68.603516" xlink:href="#DejaVuSans-2e"/>
      <use x="100.390625" xlink:href="#DejaVuSans-20"/>
      <use x="132.177734" xlink:href="#DejaVuSans-70"/>
      <use x="195.654297" xlink:href="#DejaVuSans-65"/>
      <use x="257.177734" xlink:href="#DejaVuSans-6e"/>
      <use x="320.556641" xlink:href="#DejaVuSans-64"/>
      <use x="384.033203" xlink:href="#DejaVuSans-75"/>
      <use x="447.412109" xlink:href="#DejaVuSans-6c"/>
      <use x="475.195312" xlink:href="#DejaVuSans-61"/>
      <use x="536.474609" xlink:href="#DejaVuSans-20"/>
      <use x="568.261719" xlink:href="#DejaVuSans-73"/>
      <use x="620.361328" xlink:href="#DejaVuSans-6f"/>
      <use x="681.542969" xlink:href="#DejaVuSans-75"/>
      <use x="744.921875" xlink:href="#DejaVuSans-74"/>
      <use x="784.130859" xlink:href="#DejaVuSans-68"/>
     </g>
    </g>
   </g>
  </g>
 </g>
 <defs>
  <clipPath id="p35d59bb59e">
   <rect height="177.408" width="177.408" x="41.782813" y="-0"/>
  </clipPath>
 </defs>
</svg>
