<?xml version="1.0" encoding="utf-8" standalone="no"?>
<!DOCTYPE svg PUBLIC "-//W3C//DTD SVG 1.1//EN"
  "http://www.w3.org/Graphics/SVG/1.1/DTD/svg11.dtd">
<svg height="345.6pt" version="1.1" viewBox="0 0 460.8 345.6" width="460.8pt" xmlns="http://www.w3.org/2000/svg" xmlns:xlink="http://www.w3.org/1999/xlink">
 <metadata>
  <rdf:RDF xmlns:cc="http://creativecommons.org/ns#" xmlns:dc="http://purl.org/dc/elements/1.1/" xmlns:rdf="http://www.w3.org/1999/02/22-rdf-syntax-ns#">
   <cc:Work>
    <dc:type rdf:resource="http://purl.org/dc/dcmitype/StillImage"/>
    <dc:date>2021-12-16T10:36:53.816862</dc:date>
    <dc:format>image/svg+xml</dc:format>
    <dc:creator>
     <cc:Agent>
      <dc:title>Matplotlib v3.4.3, https://matplotlib.org/</dc:title>
     </cc:Agent>
    </dc:creator>
   </cc:Work>
  </rdf:RDF>
 </metadata>
 <defs>
  <style type="text/css">*{stroke-linecap:butt;stroke-linejoin:round;}</style>
 </defs>
 <g id="figure_1">
  <g id="patch_1">
   <path d="M 0 345.6 
L 460.8 345.6 
L 460.8 0 
L 0 0 
z
" style="fill:#ffffff;"/>
  </g>
  <g id="axes_1">
   <g id="patch_2">
    <path d="M 57.6 307.584 
L 414.72 307.584 
L 414.72 41.472 
L 57.6 41.472 
z
" style="fill:#ffffff;"/>
   </g>
   <g id="patch_3">
    <path clip-path="url(#p3df5959e84)" d="M 57.6 307.584 
L 59.224914 307.584 
L 59.224914 85.706757 
L 57.6 85.706757 
z
" style="fill:#1f77b4;"/>
   </g>
   <g id="patch_4">
    <path clip-path="url(#p3df5959e84)" d="M 61.21092 307.584 
L 62.835834 307.584 
L 62.835834 204.917367 
L 61.21092 204.917367 
z
" style="fill:#1f77b4;"/>
   </g>
   <g id="patch_5">
    <path clip-path="url(#p3df5959e84)" d="M 64.82184 307.584 
L 66.446754 307.584 
L 66.446754 242.934854 
L 64.82184 242.934854 
z
" style="fill:#1f77b4;"/>
   </g>
   <g id="patch_6">
    <path clip-path="url(#p3df5959e84)" d="M 68.43276 307.584 
L 70.057674 307.584 
L 70.057674 261.910372 
L 68.43276 261.910372 
z
" style="fill:#1f77b4;"/>
   </g>
   <g id="patch_7">
    <path clip-path="url(#p3df5959e84)" d="M 72.04368 307.584 
L 73.668595 307.584 
L 73.668595 272.768018 
L 72.04368 272.768018 
z
" style="fill:#1f77b4;"/>
   </g>
   <g id="patch_8">
    <path clip-path="url(#p3df5959e84)" d="M 75.654601 307.584 
L 77.279515 307.584 
L 77.279515 279.589398 
L 75.654601 279.589398 
z
" style="fill:#1f77b4;"/>
   </g>
   <g id="patch_9">
    <path clip-path="url(#p3df5959e84)" d="M 79.265521 307.584 
L 80.890435 307.584 
L 80.890435 284.367902 
L 79.265521 284.367902 
z
" style="fill:#1f77b4;"/>
   </g>
   <g id="patch_10">
    <path clip-path="url(#p3df5959e84)" d="M 82.876441 307.584 
L 84.501355 307.584 
L 84.501355 288.052946 
L 82.876441 288.052946 
z
" style="fill:#1f77b4;"/>
   </g>
   <g id="patch_11">
    <path clip-path="url(#p3df5959e84)" d="M 86.487361 307.584 
L 88.112275 307.584 
L 88.112275 291.031915 
L 86.487361 291.031915 
z
" style="fill:#1f77b4;"/>
   </g>
   <g id="patch_12">
    <path clip-path="url(#p3df5959e84)" d="M 90.098281 307.584 
L 91.723195 307.584 
L 91.723195 293.453983 
L 90.098281 293.453983 
z
" style="fill:#1f77b4;"/>
   </g>
   <g id="patch_13">
    <path clip-path="url(#p3df5959e84)" d="M 93.709201 307.584 
L 95.334115 307.584 
L 95.334115 295.389686 
L 93.709201 295.389686 
z
" style="fill:#1f77b4;"/>
   </g>
   <g id="patch_14">
    <path clip-path="url(#p3df5959e84)" d="M 97.320121 307.584 
L 98.945035 307.584 
L 98.945035 296.893902 
L 97.320121 296.893902 
z
" style="fill:#1f77b4;"/>
   </g>
   <g id="patch_15">
    <path clip-path="url(#p3df5959e84)" d="M 100.931041 307.584 
L 102.555956 307.584 
L 102.555956 298.025151 
L 100.931041 298.025151 
z
" style="fill:#1f77b4;"/>
   </g>
   <g id="patch_16">
    <path clip-path="url(#p3df5959e84)" d="M 104.541962 307.584 
L 106.166876 307.584 
L 106.166876 298.852757 
L 104.541962 298.852757 
z
" style="fill:#1f77b4;"/>
   </g>
   <g id="patch_17">
    <path clip-path="url(#p3df5959e84)" d="M 108.152882 307.584 
L 109.777796 307.584 
L 109.777796 299.457953 
L 108.152882 299.457953 
z
" style="fill:#1f77b4;"/>
   </g>
   <g id="patch_18">
    <path clip-path="url(#p3df5959e84)" d="M 111.763802 307.584 
L 113.388716 307.584 
L 113.388716 299.924508 
L 111.763802 299.924508 
z
" style="fill:#1f77b4;"/>
   </g>
   <g id="patch_19">
    <path clip-path="url(#p3df5959e84)" d="M 115.374722 307.584 
L 116.999636 307.584 
L 116.999636 300.323133 
L 115.374722 300.323133 
z
" style="fill:#1f77b4;"/>
   </g>
   <g id="patch_20">
    <path clip-path="url(#p3df5959e84)" d="M 118.985642 307.584 
L 120.610556 307.584 
L 120.610556 300.700929 
L 118.985642 300.700929 
z
" style="fill:#1f77b4;"/>
   </g>
   <g id="patch_21">
    <path clip-path="url(#p3df5959e84)" d="M 122.596562 307.584 
L 124.221476 307.584 
L 124.221476 301.081073 
L 122.596562 301.081073 
z
" style="fill:#1f77b4;"/>
   </g>
   <g id="patch_22">
    <path clip-path="url(#p3df5959e84)" d="M 126.207482 307.584 
L 127.832396 307.584 
L 127.832396 301.468881 
L 126.207482 301.468881 
z
" style="fill:#1f77b4;"/>
   </g>
   <g id="patch_23">
    <path clip-path="url(#p3df5959e84)" d="M 129.818402 307.584 
L 131.443316 307.584 
L 131.443316 301.858555 
L 129.818402 301.858555 
z
" style="fill:#1f77b4;"/>
   </g>
   <g id="patch_24">
    <path clip-path="url(#p3df5959e84)" d="M 133.429323 307.584 
L 135.054237 307.584 
L 135.054237 302.238449 
L 133.429323 302.238449 
z
" style="fill:#1f77b4;"/>
   </g>
   <g id="patch_25">
    <path clip-path="url(#p3df5959e84)" d="M 137.040243 307.584 
L 138.665157 307.584 
L 138.665157 302.595403 
L 137.040243 302.595403 
z
" style="fill:#1f77b4;"/>
   </g>
   <g id="patch_26">
    <path clip-path="url(#p3df5959e84)" d="M 140.651163 307.584 
L 142.276077 307.584 
L 142.276077 302.918723 
L 140.651163 302.918723 
z
" style="fill:#1f77b4;"/>
   </g>
   <g id="patch_27">
    <path clip-path="url(#p3df5959e84)" d="M 144.262083 307.584 
L 145.886997 307.584 
L 145.886997 303.203242 
L 144.262083 303.203242 
z
" style="fill:#1f77b4;"/>
   </g>
   <g id="patch_28">
    <path clip-path="url(#p3df5959e84)" d="M 147.873003 307.584 
L 149.497917 307.584 
L 149.497917 303.450399 
L 147.873003 303.450399 
z
" style="fill:#1f77b4;"/>
   </g>
   <g id="patch_29">
    <path clip-path="url(#p3df5959e84)" d="M 151.483923 307.584 
L 153.108837 307.584 
L 153.108837 303.666908 
L 151.483923 303.666908 
z
" style="fill:#1f77b4;"/>
   </g>
   <g id="patch_30">
    <path clip-path="url(#p3df5959e84)" d="M 155.094843 307.584 
L 156.719757 307.584 
L 156.719757 303.861716 
L 155.094843 303.861716 
z
" style="fill:#1f77b4;"/>
   </g>
   <g id="patch_31">
    <path clip-path="url(#p3df5959e84)" d="M 158.705763 307.584 
L 160.330677 307.584 
L 160.330677 304.042779 
L 158.705763 304.042779 
z
" style="fill:#1f77b4;"/>
   </g>
   <g id="patch_32">
    <path clip-path="url(#p3df5959e84)" d="M 162.316684 307.584 
L 163.941598 307.584 
L 163.941598 304.214996 
L 162.316684 304.214996 
z
" style="fill:#1f77b4;"/>
   </g>
   <g id="patch_33">
    <path clip-path="url(#p3df5959e84)" d="M 165.927604 307.584 
L 167.552518 307.584 
L 167.552518 304.37983 
L 165.927604 304.37983 
z
" style="fill:#1f77b4;"/>
   </g>
   <g id="patch_34">
    <path clip-path="url(#p3df5959e84)" d="M 169.538524 307.584 
L 171.163438 307.584 
L 171.163438 304.536274 
L 169.538524 304.536274 
z
" style="fill:#1f77b4;"/>
   </g>
   <g id="patch_35">
    <path clip-path="url(#p3df5959e84)" d="M 173.149444 307.584 
L 174.774358 307.584 
L 174.774358 304.682332 
L 173.149444 304.682332 
z
" style="fill:#1f77b4;"/>
   </g>
   <g id="patch_36">
    <path clip-path="url(#p3df5959e84)" d="M 176.760364 307.584 
L 178.385278 307.584 
L 178.385278 304.816278 
L 176.760364 304.816278 
z
" style="fill:#1f77b4;"/>
   </g>
   <g id="patch_37">
    <path clip-path="url(#p3df5959e84)" d="M 180.371284 307.584 
L 181.996198 307.584 
L 181.996198 304.937256 
L 180.371284 304.937256 
z
" style="fill:#1f77b4;"/>
   </g>
   <g id="patch_38">
    <path clip-path="url(#p3df5959e84)" d="M 183.982204 307.584 
L 185.607118 307.584 
L 185.607118 305.045257 
L 183.982204 305.045257 
z
" style="fill:#1f77b4;"/>
   </g>
   <g id="patch_39">
    <path clip-path="url(#p3df5959e84)" d="M 187.593124 307.584 
L 189.218038 307.584 
L 189.218038 305.140756 
L 187.593124 305.140756 
z
" style="fill:#1f77b4;"/>
   </g>
   <g id="patch_40">
    <path clip-path="url(#p3df5959e84)" d="M 191.204044 307.584 
L 192.828959 307.584 
L 192.828959 305.224343 
L 191.204044 305.224343 
z
" style="fill:#1f77b4;"/>
   </g>
   <g id="patch_41">
    <path clip-path="url(#p3df5959e84)" d="M 194.814965 307.584 
L 196.439879 307.584 
L 196.439879 305.296564 
L 194.814965 305.296564 
z
" style="fill:#1f77b4;"/>
   </g>
   <g id="patch_42">
    <path clip-path="url(#p3df5959e84)" d="M 198.425885 307.584 
L 200.050799 307.584 
L 200.050799 305.357993 
L 198.425885 305.357993 
z
" style="fill:#1f77b4;"/>
   </g>
   <g id="patch_43">
    <path clip-path="url(#p3df5959e84)" d="M 202.036805 307.584 
L 203.661719 307.584 
L 203.661719 305.409494 
L 202.036805 305.409494 
z
" style="fill:#1f77b4;"/>
   </g>
   <g id="patch_44">
    <path clip-path="url(#p3df5959e84)" d="M 205.647725 307.584 
L 207.272639 307.584 
L 207.272639 305.452505 
L 205.647725 305.452505 
z
" style="fill:#1f77b4;"/>
   </g>
   <g id="patch_45">
    <path clip-path="url(#p3df5959e84)" d="M 209.258645 307.584 
L 210.883559 307.584 
L 210.883559 305.489186 
L 209.258645 305.489186 
z
" style="fill:#1f77b4;"/>
   </g>
   <g id="patch_46">
    <path clip-path="url(#p3df5959e84)" d="M 212.869565 307.584 
L 214.494479 307.584 
L 214.494479 305.522281 
L 212.869565 305.522281 
z
" style="fill:#1f77b4;"/>
   </g>
   <g id="patch_47">
    <path clip-path="url(#p3df5959e84)" d="M 216.480485 307.584 
L 218.105399 307.584 
L 218.105399 305.554656 
L 216.480485 305.554656 
z
" style="fill:#1f77b4;"/>
   </g>
   <g id="patch_48">
    <path clip-path="url(#p3df5959e84)" d="M 220.091405 307.584 
L 221.71632 307.584 
L 221.71632 305.588623 
L 220.091405 305.588623 
z
" style="fill:#1f77b4;"/>
   </g>
   <g id="patch_49">
    <path clip-path="url(#p3df5959e84)" d="M 223.702326 307.584 
L 225.32724 307.584 
L 225.32724 305.625294 
L 223.702326 305.625294 
z
" style="fill:#1f77b4;"/>
   </g>
   <g id="patch_50">
    <path clip-path="url(#p3df5959e84)" d="M 227.313246 307.584 
L 228.93816 307.584 
L 228.93816 305.664243 
L 227.313246 305.664243 
z
" style="fill:#1f77b4;"/>
   </g>
   <g id="patch_51">
    <path clip-path="url(#p3df5959e84)" d="M 230.924166 307.584 
L 232.54908 307.584 
L 232.54908 305.703658 
L 230.924166 305.703658 
z
" style="fill:#1f77b4;"/>
   </g>
   <g id="patch_52">
    <path clip-path="url(#p3df5959e84)" d="M 234.535086 307.584 
L 236.16 307.584 
L 236.16 305.740986 
L 234.535086 305.740986 
z
" style="fill:#1f77b4;"/>
   </g>
   <g id="patch_53">
    <path clip-path="url(#p3df5959e84)" d="M 238.146006 307.584 
L 239.77092 307.584 
L 239.77092 305.773896 
L 238.146006 305.773896 
z
" style="fill:#1f77b4;"/>
   </g>
   <g id="patch_54">
    <path clip-path="url(#p3df5959e84)" d="M 241.756926 307.584 
L 243.38184 307.584 
L 243.38184 305.801237 
L 241.756926 305.801237 
z
" style="fill:#1f77b4;"/>
   </g>
   <g id="patch_55">
    <path clip-path="url(#p3df5959e84)" d="M 245.367846 307.584 
L 246.99276 307.584 
L 246.99276 305.823663 
L 245.367846 305.823663 
z
" style="fill:#1f77b4;"/>
   </g>
   <g id="patch_56">
    <path clip-path="url(#p3df5959e84)" d="M 248.978766 307.584 
L 250.60368 307.584 
L 250.60368 305.843706 
L 248.978766 305.843706 
z
" style="fill:#1f77b4;"/>
   </g>
   <g id="patch_57">
    <path clip-path="url(#p3df5959e84)" d="M 252.589687 307.584 
L 254.214601 307.584 
L 254.214601 305.865221 
L 252.589687 305.865221 
z
" style="fill:#1f77b4;"/>
   </g>
   <g id="patch_58">
    <path clip-path="url(#p3df5959e84)" d="M 256.200607 307.584 
L 257.825521 307.584 
L 257.825521 305.892361 
L 256.200607 305.892361 
z
" style="fill:#1f77b4;"/>
   </g>
   <g id="patch_59">
    <path clip-path="url(#p3df5959e84)" d="M 259.811527 307.584 
L 261.436441 307.584 
L 261.436441 305.92838 
L 259.811527 305.92838 
z
" style="fill:#1f77b4;"/>
   </g>
   <g id="patch_60">
    <path clip-path="url(#p3df5959e84)" d="M 263.422447 307.584 
L 265.047361 307.584 
L 265.047361 305.974601 
L 263.422447 305.974601 
z
" style="fill:#1f77b4;"/>
   </g>
   <g id="patch_61">
    <path clip-path="url(#p3df5959e84)" d="M 267.033367 307.584 
L 268.658281 307.584 
L 268.658281 306.029866 
L 267.033367 306.029866 
z
" style="fill:#1f77b4;"/>
   </g>
   <g id="patch_62">
    <path clip-path="url(#p3df5959e84)" d="M 270.644287 307.584 
L 272.269201 307.584 
L 272.269201 306.090604 
L 270.644287 306.090604 
z
" style="fill:#1f77b4;"/>
   </g>
   <g id="patch_63">
    <path clip-path="url(#p3df5959e84)" d="M 274.255207 307.584 
L 275.880121 307.584 
L 275.880121 306.15151 
L 274.255207 306.15151 
z
" style="fill:#1f77b4;"/>
   </g>
   <g id="patch_64">
    <path clip-path="url(#p3df5959e84)" d="M 277.866127 307.584 
L 279.491041 307.584 
L 279.491041 306.206631 
L 277.866127 306.206631 
z
" style="fill:#1f77b4;"/>
   </g>
   <g id="patch_65">
    <path clip-path="url(#p3df5959e84)" d="M 281.477048 307.584 
L 283.101962 307.584 
L 283.101962 306.250606 
L 281.477048 306.250606 
z
" style="fill:#1f77b4;"/>
   </g>
   <g id="patch_66">
    <path clip-path="url(#p3df5959e84)" d="M 285.087968 307.584 
L 286.712882 307.584 
L 286.712882 306.279751 
L 285.087968 306.279751 
z
" style="fill:#1f77b4;"/>
   </g>
   <g id="patch_67">
    <path clip-path="url(#p3df5959e84)" d="M 288.698888 307.584 
L 290.323802 307.584 
L 290.323802 306.292784 
L 288.698888 306.292784 
z
" style="fill:#1f77b4;"/>
   </g>
   <g id="patch_68">
    <path clip-path="url(#p3df5959e84)" d="M 292.309808 307.584 
L 293.934722 307.584 
L 293.934722 306.291014 
L 292.309808 306.291014 
z
" style="fill:#1f77b4;"/>
   </g>
   <g id="patch_69">
    <path clip-path="url(#p3df5959e84)" d="M 295.920728 307.584 
L 297.545642 307.584 
L 297.545642 306.277976 
L 295.920728 306.277976 
z
" style="fill:#1f77b4;"/>
   </g>
   <g id="patch_70">
    <path clip-path="url(#p3df5959e84)" d="M 299.531648 307.584 
L 301.156562 307.584 
L 301.156562 306.258545 
L 299.531648 306.258545 
z
" style="fill:#1f77b4;"/>
   </g>
   <g id="patch_71">
    <path clip-path="url(#p3df5959e84)" d="M 303.142568 307.584 
L 304.767482 307.584 
L 304.767482 306.237714 
L 303.142568 306.237714 
z
" style="fill:#1f77b4;"/>
   </g>
   <g id="patch_72">
    <path clip-path="url(#p3df5959e84)" d="M 306.753488 307.584 
L 308.378402 307.584 
L 308.378402 306.219369 
L 306.753488 306.219369 
z
" style="fill:#1f77b4;"/>
   </g>
   <g id="patch_73">
    <path clip-path="url(#p3df5959e84)" d="M 310.364408 307.584 
L 311.989323 307.584 
L 311.989323 306.205475 
L 310.364408 306.205475 
z
" style="fill:#1f77b4;"/>
   </g>
   <g id="patch_74">
    <path clip-path="url(#p3df5959e84)" d="M 313.975329 307.584 
L 315.600243 307.584 
L 315.600243 306.195978 
L 313.975329 306.195978 
z
" style="fill:#1f77b4;"/>
   </g>
   <g id="patch_75">
    <path clip-path="url(#p3df5959e84)" d="M 317.586249 307.584 
L 319.211163 307.584 
L 319.211163 306.189476 
L 317.586249 306.189476 
z
" style="fill:#1f77b4;"/>
   </g>
   <g id="patch_76">
    <path clip-path="url(#p3df5959e84)" d="M 321.197169 307.584 
L 322.822083 307.584 
L 322.822083 306.184249 
L 321.197169 306.184249 
z
" style="fill:#1f77b4;"/>
   </g>
   <g id="patch_77">
    <path clip-path="url(#p3df5959e84)" d="M 324.808089 307.584 
L 326.433003 307.584 
L 326.433003 306.179054 
L 324.808089 306.179054 
z
" style="fill:#1f77b4;"/>
   </g>
   <g id="patch_78">
    <path clip-path="url(#p3df5959e84)" d="M 328.419009 307.584 
L 330.043923 307.584 
L 330.043923 306.173188 
L 328.419009 306.173188 
z
" style="fill:#1f77b4;"/>
   </g>
   <g id="patch_79">
    <path clip-path="url(#p3df5959e84)" d="M 332.029929 307.584 
L 333.654843 307.584 
L 333.654843 306.165871 
L 332.029929 306.165871 
z
" style="fill:#1f77b4;"/>
   </g>
   <g id="patch_80">
    <path clip-path="url(#p3df5959e84)" d="M 335.640849 307.584 
L 337.265763 307.584 
L 337.265763 306.15555 
L 335.640849 306.15555 
z
" style="fill:#1f77b4;"/>
   </g>
   <g id="patch_81">
    <path clip-path="url(#p3df5959e84)" d="M 339.251769 307.584 
L 340.876684 307.584 
L 340.876684 306.139897 
L 339.251769 306.139897 
z
" style="fill:#1f77b4;"/>
   </g>
   <g id="patch_82">
    <path clip-path="url(#p3df5959e84)" d="M 342.86269 307.584 
L 344.487604 307.584 
L 344.487604 306.116796 
L 342.86269 306.116796 
z
" style="fill:#1f77b4;"/>
   </g>
   <g id="patch_83">
    <path clip-path="url(#p3df5959e84)" d="M 346.47361 307.584 
L 348.098524 307.584 
L 348.098524 306.08583 
L 346.47361 306.08583 
z
" style="fill:#1f77b4;"/>
   </g>
   <g id="patch_84">
    <path clip-path="url(#p3df5959e84)" d="M 350.08453 307.584 
L 351.709444 307.584 
L 351.709444 306.049169 
L 350.08453 306.049169 
z
" style="fill:#1f77b4;"/>
   </g>
   <g id="patch_85">
    <path clip-path="url(#p3df5959e84)" d="M 353.69545 307.584 
L 355.320364 307.584 
L 355.320364 306.010968 
L 353.69545 306.010968 
z
" style="fill:#1f77b4;"/>
   </g>
   <g id="patch_86">
    <path clip-path="url(#p3df5959e84)" d="M 357.30637 307.584 
L 358.931284 307.584 
L 358.931284 305.975265 
L 357.30637 305.975265 
z
" style="fill:#1f77b4;"/>
   </g>
   <g id="patch_87">
    <path clip-path="url(#p3df5959e84)" d="M 360.91729 307.584 
L 362.542204 307.584 
L 362.542204 305.943514 
L 360.91729 305.943514 
z
" style="fill:#1f77b4;"/>
   </g>
   <g id="patch_88">
    <path clip-path="url(#p3df5959e84)" d="M 364.52821 307.584 
L 366.153124 307.584 
L 366.153124 305.91353 
L 364.52821 305.91353 
z
" style="fill:#1f77b4;"/>
   </g>
   <g id="patch_89">
    <path clip-path="url(#p3df5959e84)" d="M 368.13913 307.584 
L 369.764044 307.584 
L 369.764044 305.881098 
L 368.13913 305.881098 
z
" style="fill:#1f77b4;"/>
   </g>
   <g id="patch_90">
    <path clip-path="url(#p3df5959e84)" d="M 371.750051 307.584 
L 373.374965 307.584 
L 373.374965 305.843485 
L 371.750051 305.843485 
z
" style="fill:#1f77b4;"/>
   </g>
   <g id="patch_91">
    <path clip-path="url(#p3df5959e84)" d="M 375.360971 307.584 
L 376.985885 307.584 
L 376.985885 305.801404 
L 375.360971 305.801404 
z
" style="fill:#1f77b4;"/>
   </g>
   <g id="patch_92">
    <path clip-path="url(#p3df5959e84)" d="M 378.971891 307.584 
L 380.596805 307.584 
L 380.596805 305.755157 
L 378.971891 305.755157 
z
" style="fill:#1f77b4;"/>
   </g>
   <g id="patch_93">
    <path clip-path="url(#p3df5959e84)" d="M 382.582811 307.584 
L 384.207725 307.584 
L 384.207725 305.693983 
L 382.582811 305.693983 
z
" style="fill:#1f77b4;"/>
   </g>
   <g id="patch_94">
    <path clip-path="url(#p3df5959e84)" d="M 386.193731 307.584 
L 387.818645 307.584 
L 387.818645 305.584151 
L 386.193731 305.584151 
z
" style="fill:#1f77b4;"/>
   </g>
   <g id="patch_95">
    <path clip-path="url(#p3df5959e84)" d="M 389.804651 307.584 
L 391.429565 307.584 
L 391.429565 305.36996 
L 389.804651 305.36996 
z
" style="fill:#1f77b4;"/>
   </g>
   <g id="patch_96">
    <path clip-path="url(#p3df5959e84)" d="M 393.415571 307.584 
L 395.040485 307.584 
L 395.040485 305.00991 
L 393.415571 305.00991 
z
" style="fill:#1f77b4;"/>
   </g>
   <g id="patch_97">
    <path clip-path="url(#p3df5959e84)" d="M 397.026491 307.584 
L 398.651405 307.584 
L 398.651405 304.543546 
L 397.026491 304.543546 
z
" style="fill:#1f77b4;"/>
   </g>
   <g id="patch_98">
    <path clip-path="url(#p3df5959e84)" d="M 400.637412 307.584 
L 402.262326 307.584 
L 402.262326 304.088283 
L 400.637412 304.088283 
z
" style="fill:#1f77b4;"/>
   </g>
   <g id="patch_99">
    <path clip-path="url(#p3df5959e84)" d="M 404.248332 307.584 
L 405.873246 307.584 
L 405.873246 303.68317 
L 404.248332 303.68317 
z
" style="fill:#1f77b4;"/>
   </g>
   <g id="patch_100">
    <path clip-path="url(#p3df5959e84)" d="M 407.859252 307.584 
L 409.484166 307.584 
L 409.484166 303.162125 
L 407.859252 303.162125 
z
" style="fill:#1f77b4;"/>
   </g>
   <g id="patch_101">
    <path clip-path="url(#p3df5959e84)" d="M 411.470172 307.584 
L 413.095086 307.584 
L 413.095086 301.585838 
L 411.470172 301.585838 
z
" style="fill:#1f77b4;"/>
   </g>
   <g id="patch_102">
    <path clip-path="url(#p3df5959e84)" d="M 59.224914 307.584 
L 60.849828 307.584 
L 60.849828 41.472 
L 59.224914 41.472 
z
" style="fill:#ff7f0e;"/>
   </g>
   <g id="patch_103">
    <path clip-path="url(#p3df5959e84)" d="M 62.835834 307.584 
L 64.460748 307.584 
L 64.460748 205.251755 
L 62.835834 205.251755 
z
" style="fill:#ff7f0e;"/>
   </g>
   <g id="patch_104">
    <path clip-path="url(#p3df5959e84)" d="M 66.446754 307.584 
L 68.071668 307.584 
L 68.071668 248.526856 
L 66.446754 248.526856 
z
" style="fill:#ff7f0e;"/>
   </g>
   <g id="patch_105">
    <path clip-path="url(#p3df5959e84)" d="M 70.057674 307.584 
L 71.682588 307.584 
L 71.682588 268.040913 
L 70.057674 268.040913 
z
" style="fill:#ff7f0e;"/>
   </g>
   <g id="patch_106">
    <path clip-path="url(#p3df5959e84)" d="M 73.668595 307.584 
L 75.293509 307.584 
L 75.293509 278.484754 
L 73.668595 278.484754 
z
" style="fill:#ff7f0e;"/>
   </g>
   <g id="patch_107">
    <path clip-path="url(#p3df5959e84)" d="M 77.279515 307.584 
L 78.904429 307.584 
L 78.904429 284.763328 
L 77.279515 284.763328 
z
" style="fill:#ff7f0e;"/>
   </g>
   <g id="patch_108">
    <path clip-path="url(#p3df5959e84)" d="M 80.890435 307.584 
L 82.515349 307.584 
L 82.515349 288.931098 
L 80.890435 288.931098 
z
" style="fill:#ff7f0e;"/>
   </g>
   <g id="patch_109">
    <path clip-path="url(#p3df5959e84)" d="M 84.501355 307.584 
L 86.126269 307.584 
L 86.126269 291.972536 
L 84.501355 291.972536 
z
" style="fill:#ff7f0e;"/>
   </g>
   <g id="patch_110">
    <path clip-path="url(#p3df5959e84)" d="M 88.112275 307.584 
L 89.737189 307.584 
L 89.737189 294.344176 
L 88.112275 294.344176 
z
" style="fill:#ff7f0e;"/>
   </g>
   <g id="patch_111">
    <path clip-path="url(#p3df5959e84)" d="M 91.723195 307.584 
L 93.348109 307.584 
L 93.348109 296.242084 
L 91.723195 296.242084 
z
" style="fill:#ff7f0e;"/>
   </g>
   <g id="patch_112">
    <path clip-path="url(#p3df5959e84)" d="M 95.334115 307.584 
L 96.959029 307.584 
L 96.959029 297.767613 
L 95.334115 297.767613 
z
" style="fill:#ff7f0e;"/>
   </g>
   <g id="patch_113">
    <path clip-path="url(#p3df5959e84)" d="M 98.945035 307.584 
L 100.569949 307.584 
L 100.569949 298.994714 
L 98.945035 298.994714 
z
" style="fill:#ff7f0e;"/>
   </g>
   <g id="patch_114">
    <path clip-path="url(#p3df5959e84)" d="M 102.555956 307.584 
L 104.18087 307.584 
L 104.18087 299.975751 
L 102.555956 299.975751 
z
" style="fill:#ff7f0e;"/>
   </g>
   <g id="patch_115">
    <path clip-path="url(#p3df5959e84)" d="M 106.166876 307.584 
L 107.79179 307.584 
L 107.79179 300.742639 
L 106.166876 300.742639 
z
" style="fill:#ff7f0e;"/>
   </g>
   <g id="patch_116">
    <path clip-path="url(#p3df5959e84)" d="M 109.777796 307.584 
L 111.40271 307.584 
L 111.40271 301.320652 
L 109.777796 301.320652 
z
" style="fill:#ff7f0e;"/>
   </g>
   <g id="patch_117">
    <path clip-path="url(#p3df5959e84)" d="M 113.388716 307.584 
L 115.01363 307.584 
L 115.01363 301.742633 
L 113.388716 301.742633 
z
" style="fill:#ff7f0e;"/>
   </g>
   <g id="patch_118">
    <path clip-path="url(#p3df5959e84)" d="M 116.999636 307.584 
L 118.62455 307.584 
L 118.62455 302.052899 
L 116.999636 302.052899 
z
" style="fill:#ff7f0e;"/>
   </g>
   <g id="patch_119">
    <path clip-path="url(#p3df5959e84)" d="M 120.610556 307.584 
L 122.23547 307.584 
L 122.23547 302.300751 
L 120.610556 302.300751 
z
" style="fill:#ff7f0e;"/>
   </g>
   <g id="patch_120">
    <path clip-path="url(#p3df5959e84)" d="M 124.221476 307.584 
L 125.84639 307.584 
L 125.84639 302.529866 
L 124.221476 302.529866 
z
" style="fill:#ff7f0e;"/>
   </g>
   <g id="patch_121">
    <path clip-path="url(#p3df5959e84)" d="M 127.832396 307.584 
L 129.45731 307.584 
L 129.45731 302.770157 
L 127.832396 302.770157 
z
" style="fill:#ff7f0e;"/>
   </g>
   <g id="patch_122">
    <path clip-path="url(#p3df5959e84)" d="M 131.443316 307.584 
L 133.068231 307.584 
L 133.068231 303.035013 
L 131.443316 303.035013 
z
" style="fill:#ff7f0e;"/>
   </g>
   <g id="patch_123">
    <path clip-path="url(#p3df5959e84)" d="M 135.054237 307.584 
L 136.679151 307.584 
L 136.679151 303.323225 
L 135.054237 303.323225 
z
" style="fill:#ff7f0e;"/>
   </g>
   <g id="patch_124">
    <path clip-path="url(#p3df5959e84)" d="M 138.665157 307.584 
L 140.290071 307.584 
L 140.290071 303.623467 
L 138.665157 303.623467 
z
" style="fill:#ff7f0e;"/>
   </g>
   <g id="patch_125">
    <path clip-path="url(#p3df5959e84)" d="M 142.276077 307.584 
L 143.900991 307.584 
L 143.900991 303.919674 
L 142.276077 303.919674 
z
" style="fill:#ff7f0e;"/>
   </g>
   <g id="patch_126">
    <path clip-path="url(#p3df5959e84)" d="M 145.886997 307.584 
L 147.511911 307.584 
L 147.511911 304.196258 
L 145.886997 304.196258 
z
" style="fill:#ff7f0e;"/>
   </g>
   <g id="patch_127">
    <path clip-path="url(#p3df5959e84)" d="M 149.497917 307.584 
L 151.122831 307.584 
L 151.122831 304.442281 
L 149.497917 304.442281 
z
" style="fill:#ff7f0e;"/>
   </g>
   <g id="patch_128">
    <path clip-path="url(#p3df5959e84)" d="M 153.108837 307.584 
L 154.733751 307.584 
L 154.733751 304.653712 
L 153.108837 304.653712 
z
" style="fill:#ff7f0e;"/>
   </g>
   <g id="patch_129">
    <path clip-path="url(#p3df5959e84)" d="M 156.719757 307.584 
L 158.344671 307.584 
L 158.344671 304.833392 
L 156.719757 304.833392 
z
" style="fill:#ff7f0e;"/>
   </g>
   <g id="patch_130">
    <path clip-path="url(#p3df5959e84)" d="M 160.330677 307.584 
L 161.955592 307.584 
L 161.955592 304.989118 
L 160.330677 304.989118 
z
" style="fill:#ff7f0e;"/>
   </g>
   <g id="patch_131">
    <path clip-path="url(#p3df5959e84)" d="M 163.941598 307.584 
L 165.566512 307.584 
L 165.566512 305.13083 
L 163.941598 305.13083 
z
" style="fill:#ff7f0e;"/>
   </g>
   <g id="patch_132">
    <path clip-path="url(#p3df5959e84)" d="M 167.552518 307.584 
L 169.177432 307.584 
L 169.177432 305.267838 
L 167.552518 305.267838 
z
" style="fill:#ff7f0e;"/>
   </g>
   <g id="patch_133">
    <path clip-path="url(#p3df5959e84)" d="M 171.163438 307.584 
L 172.788352 307.584 
L 172.788352 305.406637 
L 171.163438 305.406637 
z
" style="fill:#ff7f0e;"/>
   </g>
   <g id="patch_134">
    <path clip-path="url(#p3df5959e84)" d="M 174.774358 307.584 
L 176.399272 307.584 
L 176.399272 305.549504 
L 174.774358 305.549504 
z
" style="fill:#ff7f0e;"/>
   </g>
   <g id="patch_135">
    <path clip-path="url(#p3df5959e84)" d="M 178.385278 307.584 
L 180.010192 307.584 
L 180.010192 305.694026 
L 178.385278 305.694026 
z
" style="fill:#ff7f0e;"/>
   </g>
   <g id="patch_136">
    <path clip-path="url(#p3df5959e84)" d="M 181.996198 307.584 
L 183.621112 307.584 
L 183.621112 305.833778 
L 181.996198 305.833778 
z
" style="fill:#ff7f0e;"/>
   </g>
   <g id="patch_137">
    <path clip-path="url(#p3df5959e84)" d="M 185.607118 307.584 
L 187.232032 307.584 
L 187.232032 305.960157 
L 185.607118 305.960157 
z
" style="fill:#ff7f0e;"/>
   </g>
   <g id="patch_138">
    <path clip-path="url(#p3df5959e84)" d="M 189.218038 307.584 
L 190.842952 307.584 
L 190.842952 306.064962 
L 189.218038 306.064962 
z
" style="fill:#ff7f0e;"/>
   </g>
   <g id="patch_139">
    <path clip-path="url(#p3df5959e84)" d="M 192.828959 307.584 
L 194.453873 307.584 
L 194.453873 306.142867 
L 192.828959 306.142867 
z
" style="fill:#ff7f0e;"/>
   </g>
   <g id="patch_140">
    <path clip-path="url(#p3df5959e84)" d="M 196.439879 307.584 
L 198.064793 307.584 
L 198.064793 306.192944 
L 196.439879 306.192944 
z
" style="fill:#ff7f0e;"/>
   </g>
   <g id="patch_141">
    <path clip-path="url(#p3df5959e84)" d="M 200.050799 307.584 
L 201.675713 307.584 
L 201.675713 306.218824 
L 200.050799 306.218824 
z
" style="fill:#ff7f0e;"/>
   </g>
   <g id="patch_142">
    <path clip-path="url(#p3df5959e84)" d="M 203.661719 307.584 
L 205.286633 307.584 
L 205.286633 306.227628 
L 203.661719 306.227628 
z
" style="fill:#ff7f0e;"/>
   </g>
   <g id="patch_143">
    <path clip-path="url(#p3df5959e84)" d="M 207.272639 307.584 
L 208.897553 307.584 
L 208.897553 306.228182 
L 207.272639 306.228182 
z
" style="fill:#ff7f0e;"/>
   </g>
   <g id="patch_144">
    <path clip-path="url(#p3df5959e84)" d="M 210.883559 307.584 
L 212.508473 307.584 
L 212.508473 306.229073 
L 210.883559 306.229073 
z
" style="fill:#ff7f0e;"/>
   </g>
   <g id="patch_145">
    <path clip-path="url(#p3df5959e84)" d="M 214.494479 307.584 
L 216.119393 307.584 
L 216.119393 306.236974 
L 214.494479 306.236974 
z
" style="fill:#ff7f0e;"/>
   </g>
   <g id="patch_146">
    <path clip-path="url(#p3df5959e84)" d="M 218.105399 307.584 
L 219.730313 307.584 
L 219.730313 306.255529 
L 218.105399 306.255529 
z
" style="fill:#ff7f0e;"/>
   </g>
   <g id="patch_147">
    <path clip-path="url(#p3df5959e84)" d="M 221.71632 307.584 
L 223.341234 307.584 
L 223.341234 306.284959 
L 221.71632 306.284959 
z
" style="fill:#ff7f0e;"/>
   </g>
   <g id="patch_148">
    <path clip-path="url(#p3df5959e84)" d="M 225.32724 307.584 
L 226.952154 307.584 
L 226.952154 306.322436 
L 225.32724 306.322436 
z
" style="fill:#ff7f0e;"/>
   </g>
   <g id="patch_149">
    <path clip-path="url(#p3df5959e84)" d="M 228.93816 307.584 
L 230.563074 307.584 
L 230.563074 306.363114 
L 228.93816 306.363114 
z
" style="fill:#ff7f0e;"/>
   </g>
   <g id="patch_150">
    <path clip-path="url(#p3df5959e84)" d="M 232.54908 307.584 
L 234.173994 307.584 
L 234.173994 306.401574 
L 232.54908 306.401574 
z
" style="fill:#ff7f0e;"/>
   </g>
   <g id="patch_151">
    <path clip-path="url(#p3df5959e84)" d="M 236.16 307.584 
L 237.784914 307.584 
L 237.784914 306.433309 
L 236.16 306.433309 
z
" style="fill:#ff7f0e;"/>
   </g>
   <g id="patch_152">
    <path clip-path="url(#p3df5959e84)" d="M 239.77092 307.584 
L 241.395834 307.584 
L 241.395834 306.455876 
L 239.77092 306.455876 
z
" style="fill:#ff7f0e;"/>
   </g>
   <g id="patch_153">
    <path clip-path="url(#p3df5959e84)" d="M 243.38184 307.584 
L 245.006754 307.584 
L 245.006754 306.469429 
L 243.38184 306.469429 
z
" style="fill:#ff7f0e;"/>
   </g>
   <g id="patch_154">
    <path clip-path="url(#p3df5959e84)" d="M 246.99276 307.584 
L 248.617674 307.584 
L 248.617674 306.476496 
L 246.99276 306.476496 
z
" style="fill:#ff7f0e;"/>
   </g>
   <g id="patch_155">
    <path clip-path="url(#p3df5959e84)" d="M 250.60368 307.584 
L 252.228595 307.584 
L 252.228595 306.481079 
L 250.60368 306.481079 
z
" style="fill:#ff7f0e;"/>
   </g>
   <g id="patch_156">
    <path clip-path="url(#p3df5959e84)" d="M 254.214601 307.584 
L 255.839515 307.584 
L 255.839515 306.487344 
L 254.214601 306.487344 
z
" style="fill:#ff7f0e;"/>
   </g>
   <g id="patch_157">
    <path clip-path="url(#p3df5959e84)" d="M 257.825521 307.584 
L 259.450435 307.584 
L 259.450435 306.498296 
L 257.825521 306.498296 
z
" style="fill:#ff7f0e;"/>
   </g>
   <g id="patch_158">
    <path clip-path="url(#p3df5959e84)" d="M 261.436441 307.584 
L 263.061355 307.584 
L 263.061355 306.51485 
L 261.436441 306.51485 
z
" style="fill:#ff7f0e;"/>
   </g>
   <g id="patch_159">
    <path clip-path="url(#p3df5959e84)" d="M 265.047361 307.584 
L 266.672275 307.584 
L 266.672275 306.535567 
L 265.047361 306.535567 
z
" style="fill:#ff7f0e;"/>
   </g>
   <g id="patch_160">
    <path clip-path="url(#p3df5959e84)" d="M 268.658281 307.584 
L 270.283195 307.584 
L 270.283195 306.557141 
L 268.658281 306.557141 
z
" style="fill:#ff7f0e;"/>
   </g>
   <g id="patch_161">
    <path clip-path="url(#p3df5959e84)" d="M 272.269201 307.584 
L 273.894115 307.584 
L 273.894115 306.575436 
L 272.269201 306.575436 
z
" style="fill:#ff7f0e;"/>
   </g>
   <g id="patch_162">
    <path clip-path="url(#p3df5959e84)" d="M 275.880121 307.584 
L 277.505035 307.584 
L 277.505035 306.586733 
L 275.880121 306.586733 
z
" style="fill:#ff7f0e;"/>
   </g>
   <g id="patch_163">
    <path clip-path="url(#p3df5959e84)" d="M 279.491041 307.584 
L 281.115956 307.584 
L 281.115956 306.588787 
L 279.491041 306.588787 
z
" style="fill:#ff7f0e;"/>
   </g>
   <g id="patch_164">
    <path clip-path="url(#p3df5959e84)" d="M 283.101962 307.584 
L 284.726876 307.584 
L 284.726876 306.581437 
L 283.101962 306.581437 
z
" style="fill:#ff7f0e;"/>
   </g>
   <g id="patch_165">
    <path clip-path="url(#p3df5959e84)" d="M 286.712882 307.584 
L 288.337796 307.584 
L 288.337796 306.566644 
L 286.712882 306.566644 
z
" style="fill:#ff7f0e;"/>
   </g>
   <g id="patch_166">
    <path clip-path="url(#p3df5959e84)" d="M 290.323802 307.584 
L 291.948716 307.584 
L 291.948716 306.548058 
L 290.323802 306.548058 
z
" style="fill:#ff7f0e;"/>
   </g>
   <g id="patch_167">
    <path clip-path="url(#p3df5959e84)" d="M 293.934722 307.584 
L 295.559636 307.584 
L 295.559636 306.530249 
L 293.934722 306.530249 
z
" style="fill:#ff7f0e;"/>
   </g>
   <g id="patch_168">
    <path clip-path="url(#p3df5959e84)" d="M 297.545642 307.584 
L 299.170556 307.584 
L 299.170556 306.517776 
L 297.545642 306.517776 
z
" style="fill:#ff7f0e;"/>
   </g>
   <g id="patch_169">
    <path clip-path="url(#p3df5959e84)" d="M 301.156562 307.584 
L 302.781476 307.584 
L 302.781476 306.514225 
L 301.156562 306.514225 
z
" style="fill:#ff7f0e;"/>
   </g>
   <g id="patch_170">
    <path clip-path="url(#p3df5959e84)" d="M 304.767482 307.584 
L 306.392396 307.584 
L 306.392396 306.521358 
L 304.767482 306.521358 
z
" style="fill:#ff7f0e;"/>
   </g>
   <g id="patch_171">
    <path clip-path="url(#p3df5959e84)" d="M 308.378402 307.584 
L 310.003316 307.584 
L 310.003316 306.538535 
L 308.378402 306.538535 
z
" style="fill:#ff7f0e;"/>
   </g>
   <g id="patch_172">
    <path clip-path="url(#p3df5959e84)" d="M 311.989323 307.584 
L 313.614237 307.584 
L 313.614237 306.562616 
L 311.989323 306.562616 
z
" style="fill:#ff7f0e;"/>
   </g>
   <g id="patch_173">
    <path clip-path="url(#p3df5959e84)" d="M 315.600243 307.584 
L 317.225157 307.584 
L 317.225157 306.588471 
L 315.600243 306.588471 
z
" style="fill:#ff7f0e;"/>
   </g>
   <g id="patch_174">
    <path clip-path="url(#p3df5959e84)" d="M 319.211163 307.584 
L 320.836077 307.584 
L 320.836077 306.610075 
L 319.211163 306.610075 
z
" style="fill:#ff7f0e;"/>
   </g>
   <g id="patch_175">
    <path clip-path="url(#p3df5959e84)" d="M 322.822083 307.584 
L 324.446997 307.584 
L 324.446997 306.621944 
L 322.822083 306.621944 
z
" style="fill:#ff7f0e;"/>
   </g>
   <g id="patch_176">
    <path clip-path="url(#p3df5959e84)" d="M 326.433003 307.584 
L 328.057917 307.584 
L 328.057917 306.620538 
L 326.433003 306.620538 
z
" style="fill:#ff7f0e;"/>
   </g>
   <g id="patch_177">
    <path clip-path="url(#p3df5959e84)" d="M 330.043923 307.584 
L 331.668837 307.584 
L 331.668837 306.605259 
L 330.043923 306.605259 
z
" style="fill:#ff7f0e;"/>
   </g>
   <g id="patch_178">
    <path clip-path="url(#p3df5959e84)" d="M 333.654843 307.584 
L 335.279757 307.584 
L 335.279757 306.578802 
L 333.654843 306.578802 
z
" style="fill:#ff7f0e;"/>
   </g>
   <g id="patch_179">
    <path clip-path="url(#p3df5959e84)" d="M 337.265763 307.584 
L 338.890677 307.584 
L 338.890677 306.546747 
L 337.265763 306.546747 
z
" style="fill:#ff7f0e;"/>
   </g>
   <g id="patch_180">
    <path clip-path="url(#p3df5959e84)" d="M 340.876684 307.584 
L 342.501598 307.584 
L 342.501598 306.516394 
L 340.876684 306.516394 
z
" style="fill:#ff7f0e;"/>
   </g>
   <g id="patch_181">
    <path clip-path="url(#p3df5959e84)" d="M 344.487604 307.584 
L 346.112518 307.584 
L 346.112518 306.49496 
L 344.487604 306.49496 
z
" style="fill:#ff7f0e;"/>
   </g>
   <g id="patch_182">
    <path clip-path="url(#p3df5959e84)" d="M 348.098524 307.584 
L 349.723438 307.584 
L 349.723438 306.487428 
L 348.098524 306.487428 
z
" style="fill:#ff7f0e;"/>
   </g>
   <g id="patch_183">
    <path clip-path="url(#p3df5959e84)" d="M 351.709444 307.584 
L 353.334358 307.584 
L 353.334358 306.494591 
L 351.709444 306.494591 
z
" style="fill:#ff7f0e;"/>
   </g>
   <g id="patch_184">
    <path clip-path="url(#p3df5959e84)" d="M 355.320364 307.584 
L 356.945278 307.584 
L 356.945278 306.511961 
L 355.320364 306.511961 
z
" style="fill:#ff7f0e;"/>
   </g>
   <g id="patch_185">
    <path clip-path="url(#p3df5959e84)" d="M 358.931284 307.584 
L 360.556198 307.584 
L 360.556198 306.530028 
L 358.931284 306.530028 
z
" style="fill:#ff7f0e;"/>
   </g>
   <g id="patch_186">
    <path clip-path="url(#p3df5959e84)" d="M 362.542204 307.584 
L 364.167118 307.584 
L 364.167118 306.536048 
L 362.542204 306.536048 
z
" style="fill:#ff7f0e;"/>
   </g>
   <g id="patch_187">
    <path clip-path="url(#p3df5959e84)" d="M 366.153124 307.584 
L 367.778038 307.584 
L 367.778038 306.51724 
L 366.153124 306.51724 
z
" style="fill:#ff7f0e;"/>
   </g>
   <g id="patch_188">
    <path clip-path="url(#p3df5959e84)" d="M 369.764044 307.584 
L 371.388959 307.584 
L 371.388959 306.46505 
L 369.764044 306.46505 
z
" style="fill:#ff7f0e;"/>
   </g>
   <g id="patch_189">
    <path clip-path="url(#p3df5959e84)" d="M 373.374965 307.584 
L 374.999879 307.584 
L 374.999879 306.379447 
L 373.374965 306.379447 
z
" style="fill:#ff7f0e;"/>
   </g>
   <g id="patch_190">
    <path clip-path="url(#p3df5959e84)" d="M 376.985885 307.584 
L 378.610799 307.584 
L 378.610799 306.270664 
L 376.985885 306.270664 
z
" style="fill:#ff7f0e;"/>
   </g>
   <g id="patch_191">
    <path clip-path="url(#p3df5959e84)" d="M 380.596805 307.584 
L 382.221719 307.584 
L 382.221719 306.155358 
L 380.596805 306.155358 
z
" style="fill:#ff7f0e;"/>
   </g>
   <g id="patch_192">
    <path clip-path="url(#p3df5959e84)" d="M 384.207725 307.584 
L 385.832639 307.584 
L 385.832639 306.047134 
L 384.207725 306.047134 
z
" style="fill:#ff7f0e;"/>
   </g>
   <g id="patch_193">
    <path clip-path="url(#p3df5959e84)" d="M 387.818645 307.584 
L 389.443559 307.584 
L 389.443559 305.945519 
L 387.818645 305.945519 
z
" style="fill:#ff7f0e;"/>
   </g>
   <g id="patch_194">
    <path clip-path="url(#p3df5959e84)" d="M 391.429565 307.584 
L 393.054479 307.584 
L 393.054479 305.829541 
L 391.429565 305.829541 
z
" style="fill:#ff7f0e;"/>
   </g>
   <g id="patch_195">
    <path clip-path="url(#p3df5959e84)" d="M 395.040485 307.584 
L 396.665399 307.584 
L 396.665399 305.665721 
L 395.040485 305.665721 
z
" style="fill:#ff7f0e;"/>
   </g>
   <g id="patch_196">
    <path clip-path="url(#p3df5959e84)" d="M 398.651405 307.584 
L 400.27632 307.584 
L 400.27632 305.435314 
L 398.651405 305.435314 
z
" style="fill:#ff7f0e;"/>
   </g>
   <g id="patch_197">
    <path clip-path="url(#p3df5959e84)" d="M 402.262326 307.584 
L 403.88724 307.584 
L 403.88724 305.143704 
L 402.262326 305.143704 
z
" style="fill:#ff7f0e;"/>
   </g>
   <g id="patch_198">
    <path clip-path="url(#p3df5959e84)" d="M 405.873246 307.584 
L 407.49816 307.584 
L 407.49816 304.796694 
L 405.873246 304.796694 
z
" style="fill:#ff7f0e;"/>
   </g>
   <g id="patch_199">
    <path clip-path="url(#p3df5959e84)" d="M 409.484166 307.584 
L 411.10908 307.584 
L 411.10908 304.36287 
L 409.484166 304.36287 
z
" style="fill:#ff7f0e;"/>
   </g>
   <g id="patch_200">
    <path clip-path="url(#p3df5959e84)" d="M 413.095086 307.584 
L 414.72 307.584 
L 414.72 302.775096 
L 413.095086 302.775096 
z
" style="fill:#ff7f0e;"/>
   </g>
   <g id="matplotlib.axis_1">
    <g id="xtick_1">
     <g id="line2d_1">
      <defs>
       <path d="M 0 0 
L 0 3.5 
" id="m220ce765c5" style="stroke:#000000;stroke-width:0.8;"/>
      </defs>
      <g>
       <use style="stroke:#000000;stroke-width:0.8;" x="59.224914" xlink:href="#m220ce765c5" y="307.584"/>
      </g>
     </g>
     <g id="text_1">
      <!-- 1 -->
      <g transform="translate(56.043664 322.182437)scale(0.1 -0.1)">
       <defs>
        <path d="M 794 531 
L 1825 531 
L 1825 4091 
L 703 3866 
L 703 4441 
L 1819 4666 
L 2450 4666 
L 2450 531 
L 3481 531 
L 3481 0 
L 794 0 
L 794 531 
z
" id="DejaVuSans-31" transform="scale(0.015625)"/>
       </defs>
       <use xlink:href="#DejaVuSans-31"/>
      </g>
     </g>
    </g>
    <g id="xtick_2">
     <g id="line2d_2">
      <g>
       <use style="stroke:#000000;stroke-width:0.8;" x="109.777796" xlink:href="#m220ce765c5" y="307.584"/>
      </g>
     </g>
     <g id="text_2">
      <!-- 15 -->
      <g transform="translate(103.415296 322.182437)scale(0.1 -0.1)">
       <defs>
        <path d="M 691 4666 
L 3169 4666 
L 3169 4134 
L 1269 4134 
L 1269 2991 
Q 1406 3038 1543 3061 
Q 1681 3084 1819 3084 
Q 2600 3084 3056 2656 
Q 3513 2228 3513 1497 
Q 3513 744 3044 326 
Q 2575 -91 1722 -91 
Q 1428 -91 1123 -41 
Q 819 9 494 109 
L 494 744 
Q 775 591 1075 516 
Q 1375 441 1709 441 
Q 2250 441 2565 725 
Q 2881 1009 2881 1497 
Q 2881 1984 2565 2268 
Q 2250 2553 1709 2553 
Q 1456 2553 1204 2497 
Q 953 2441 691 2322 
L 691 4666 
z
" id="DejaVuSans-35" transform="scale(0.015625)"/>
       </defs>
       <use xlink:href="#DejaVuSans-31"/>
       <use x="63.623047" xlink:href="#DejaVuSans-35"/>
      </g>
     </g>
    </g>
    <g id="xtick_3">
     <g id="line2d_3">
      <g>
       <use style="stroke:#000000;stroke-width:0.8;" x="160.330677" xlink:href="#m220ce765c5" y="307.584"/>
      </g>
     </g>
     <g id="text_3">
      <!-- 29 -->
      <g transform="translate(153.968177 322.182437)scale(0.1 -0.1)">
       <defs>
        <path d="M 1228 531 
L 3431 531 
L 3431 0 
L 469 0 
L 469 531 
Q 828 903 1448 1529 
Q 2069 2156 2228 2338 
Q 2531 2678 2651 2914 
Q 2772 3150 2772 3378 
Q 2772 3750 2511 3984 
Q 2250 4219 1831 4219 
Q 1534 4219 1204 4116 
Q 875 4013 500 3803 
L 500 4441 
Q 881 4594 1212 4672 
Q 1544 4750 1819 4750 
Q 2544 4750 2975 4387 
Q 3406 4025 3406 3419 
Q 3406 3131 3298 2873 
Q 3191 2616 2906 2266 
Q 2828 2175 2409 1742 
Q 1991 1309 1228 531 
z
" id="DejaVuSans-32" transform="scale(0.015625)"/>
        <path d="M 703 97 
L 703 672 
Q 941 559 1184 500 
Q 1428 441 1663 441 
Q 2288 441 2617 861 
Q 2947 1281 2994 2138 
Q 2813 1869 2534 1725 
Q 2256 1581 1919 1581 
Q 1219 1581 811 2004 
Q 403 2428 403 3163 
Q 403 3881 828 4315 
Q 1253 4750 1959 4750 
Q 2769 4750 3195 4129 
Q 3622 3509 3622 2328 
Q 3622 1225 3098 567 
Q 2575 -91 1691 -91 
Q 1453 -91 1209 -44 
Q 966 3 703 97 
z
M 1959 2075 
Q 2384 2075 2632 2365 
Q 2881 2656 2881 3163 
Q 2881 3666 2632 3958 
Q 2384 4250 1959 4250 
Q 1534 4250 1286 3958 
Q 1038 3666 1038 3163 
Q 1038 2656 1286 2365 
Q 1534 2075 1959 2075 
z
" id="DejaVuSans-39" transform="scale(0.015625)"/>
       </defs>
       <use xlink:href="#DejaVuSans-32"/>
       <use x="63.623047" xlink:href="#DejaVuSans-39"/>
      </g>
     </g>
    </g>
    <g id="xtick_4">
     <g id="line2d_4">
      <g>
       <use style="stroke:#000000;stroke-width:0.8;" x="210.883559" xlink:href="#m220ce765c5" y="307.584"/>
      </g>
     </g>
     <g id="text_4">
      <!-- 43 -->
      <g transform="translate(204.521059 322.182437)scale(0.1 -0.1)">
       <defs>
        <path d="M 2419 4116 
L 825 1625 
L 2419 1625 
L 2419 4116 
z
M 2253 4666 
L 3047 4666 
L 3047 1625 
L 3713 1625 
L 3713 1100 
L 3047 1100 
L 3047 0 
L 2419 0 
L 2419 1100 
L 313 1100 
L 313 1709 
L 2253 4666 
z
" id="DejaVuSans-34" transform="scale(0.015625)"/>
        <path d="M 2597 2516 
Q 3050 2419 3304 2112 
Q 3559 1806 3559 1356 
Q 3559 666 3084 287 
Q 2609 -91 1734 -91 
Q 1441 -91 1130 -33 
Q 819 25 488 141 
L 488 750 
Q 750 597 1062 519 
Q 1375 441 1716 441 
Q 2309 441 2620 675 
Q 2931 909 2931 1356 
Q 2931 1769 2642 2001 
Q 2353 2234 1838 2234 
L 1294 2234 
L 1294 2753 
L 1863 2753 
Q 2328 2753 2575 2939 
Q 2822 3125 2822 3475 
Q 2822 3834 2567 4026 
Q 2313 4219 1838 4219 
Q 1578 4219 1281 4162 
Q 984 4106 628 3988 
L 628 4550 
Q 988 4650 1302 4700 
Q 1616 4750 1894 4750 
Q 2613 4750 3031 4423 
Q 3450 4097 3450 3541 
Q 3450 3153 3228 2886 
Q 3006 2619 2597 2516 
z
" id="DejaVuSans-33" transform="scale(0.015625)"/>
       </defs>
       <use xlink:href="#DejaVuSans-34"/>
       <use x="63.623047" xlink:href="#DejaVuSans-33"/>
      </g>
     </g>
    </g>
    <g id="xtick_5">
     <g id="line2d_5">
      <g>
       <use style="stroke:#000000;stroke-width:0.8;" x="261.436441" xlink:href="#m220ce765c5" y="307.584"/>
      </g>
     </g>
     <g id="text_5">
      <!-- 57 -->
      <g transform="translate(255.073941 322.182437)scale(0.1 -0.1)">
       <defs>
        <path d="M 525 4666 
L 3525 4666 
L 3525 4397 
L 1831 0 
L 1172 0 
L 2766 4134 
L 525 4134 
L 525 4666 
z
" id="DejaVuSans-37" transform="scale(0.015625)"/>
       </defs>
       <use xlink:href="#DejaVuSans-35"/>
       <use x="63.623047" xlink:href="#DejaVuSans-37"/>
      </g>
     </g>
    </g>
    <g id="xtick_6">
     <g id="line2d_6">
      <g>
       <use style="stroke:#000000;stroke-width:0.8;" x="311.989323" xlink:href="#m220ce765c5" y="307.584"/>
      </g>
     </g>
     <g id="text_6">
      <!-- 71 -->
      <g transform="translate(305.626823 322.182437)scale(0.1 -0.1)">
       <use xlink:href="#DejaVuSans-37"/>
       <use x="63.623047" xlink:href="#DejaVuSans-31"/>
      </g>
     </g>
    </g>
    <g id="xtick_7">
     <g id="line2d_7">
      <g>
       <use style="stroke:#000000;stroke-width:0.8;" x="362.542204" xlink:href="#m220ce765c5" y="307.584"/>
      </g>
     </g>
     <g id="text_7">
      <!-- 85 -->
      <g transform="translate(356.179704 322.182437)scale(0.1 -0.1)">
       <defs>
        <path d="M 2034 2216 
Q 1584 2216 1326 1975 
Q 1069 1734 1069 1313 
Q 1069 891 1326 650 
Q 1584 409 2034 409 
Q 2484 409 2743 651 
Q 3003 894 3003 1313 
Q 3003 1734 2745 1975 
Q 2488 2216 2034 2216 
z
M 1403 2484 
Q 997 2584 770 2862 
Q 544 3141 544 3541 
Q 544 4100 942 4425 
Q 1341 4750 2034 4750 
Q 2731 4750 3128 4425 
Q 3525 4100 3525 3541 
Q 3525 3141 3298 2862 
Q 3072 2584 2669 2484 
Q 3125 2378 3379 2068 
Q 3634 1759 3634 1313 
Q 3634 634 3220 271 
Q 2806 -91 2034 -91 
Q 1263 -91 848 271 
Q 434 634 434 1313 
Q 434 1759 690 2068 
Q 947 2378 1403 2484 
z
M 1172 3481 
Q 1172 3119 1398 2916 
Q 1625 2713 2034 2713 
Q 2441 2713 2670 2916 
Q 2900 3119 2900 3481 
Q 2900 3844 2670 4047 
Q 2441 4250 2034 4250 
Q 1625 4250 1398 4047 
Q 1172 3844 1172 3481 
z
" id="DejaVuSans-38" transform="scale(0.015625)"/>
       </defs>
       <use xlink:href="#DejaVuSans-38"/>
       <use x="63.623047" xlink:href="#DejaVuSans-35"/>
      </g>
     </g>
    </g>
    <g id="text_8">
     <!-- Allele count -->
     <g transform="translate(206.724063 335.860562)scale(0.1 -0.1)">
      <defs>
       <path d="M 2188 4044 
L 1331 1722 
L 3047 1722 
L 2188 4044 
z
M 1831 4666 
L 2547 4666 
L 4325 0 
L 3669 0 
L 3244 1197 
L 1141 1197 
L 716 0 
L 50 0 
L 1831 4666 
z
" id="DejaVuSans-41" transform="scale(0.015625)"/>
       <path d="M 603 4863 
L 1178 4863 
L 1178 0 
L 603 0 
L 603 4863 
z
" id="DejaVuSans-6c" transform="scale(0.015625)"/>
       <path d="M 3597 1894 
L 3597 1613 
L 953 1613 
Q 991 1019 1311 708 
Q 1631 397 2203 397 
Q 2534 397 2845 478 
Q 3156 559 3463 722 
L 3463 178 
Q 3153 47 2828 -22 
Q 2503 -91 2169 -91 
Q 1331 -91 842 396 
Q 353 884 353 1716 
Q 353 2575 817 3079 
Q 1281 3584 2069 3584 
Q 2775 3584 3186 3129 
Q 3597 2675 3597 1894 
z
M 3022 2063 
Q 3016 2534 2758 2815 
Q 2500 3097 2075 3097 
Q 1594 3097 1305 2825 
Q 1016 2553 972 2059 
L 3022 2063 
z
" id="DejaVuSans-65" transform="scale(0.015625)"/>
       <path id="DejaVuSans-20" transform="scale(0.015625)"/>
       <path d="M 3122 3366 
L 3122 2828 
Q 2878 2963 2633 3030 
Q 2388 3097 2138 3097 
Q 1578 3097 1268 2742 
Q 959 2388 959 1747 
Q 959 1106 1268 751 
Q 1578 397 2138 397 
Q 2388 397 2633 464 
Q 2878 531 3122 666 
L 3122 134 
Q 2881 22 2623 -34 
Q 2366 -91 2075 -91 
Q 1284 -91 818 406 
Q 353 903 353 1747 
Q 353 2603 823 3093 
Q 1294 3584 2113 3584 
Q 2378 3584 2631 3529 
Q 2884 3475 3122 3366 
z
" id="DejaVuSans-63" transform="scale(0.015625)"/>
       <path d="M 1959 3097 
Q 1497 3097 1228 2736 
Q 959 2375 959 1747 
Q 959 1119 1226 758 
Q 1494 397 1959 397 
Q 2419 397 2687 759 
Q 2956 1122 2956 1747 
Q 2956 2369 2687 2733 
Q 2419 3097 1959 3097 
z
M 1959 3584 
Q 2709 3584 3137 3096 
Q 3566 2609 3566 1747 
Q 3566 888 3137 398 
Q 2709 -91 1959 -91 
Q 1206 -91 779 398 
Q 353 888 353 1747 
Q 353 2609 779 3096 
Q 1206 3584 1959 3584 
z
" id="DejaVuSans-6f" transform="scale(0.015625)"/>
       <path d="M 544 1381 
L 544 3500 
L 1119 3500 
L 1119 1403 
Q 1119 906 1312 657 
Q 1506 409 1894 409 
Q 2359 409 2629 706 
Q 2900 1003 2900 1516 
L 2900 3500 
L 3475 3500 
L 3475 0 
L 2900 0 
L 2900 538 
Q 2691 219 2414 64 
Q 2138 -91 1772 -91 
Q 1169 -91 856 284 
Q 544 659 544 1381 
z
M 1991 3584 
L 1991 3584 
z
" id="DejaVuSans-75" transform="scale(0.015625)"/>
       <path d="M 3513 2113 
L 3513 0 
L 2938 0 
L 2938 2094 
Q 2938 2591 2744 2837 
Q 2550 3084 2163 3084 
Q 1697 3084 1428 2787 
Q 1159 2491 1159 1978 
L 1159 0 
L 581 0 
L 581 3500 
L 1159 3500 
L 1159 2956 
Q 1366 3272 1645 3428 
Q 1925 3584 2291 3584 
Q 2894 3584 3203 3211 
Q 3513 2838 3513 2113 
z
" id="DejaVuSans-6e" transform="scale(0.015625)"/>
       <path d="M 1172 4494 
L 1172 3500 
L 2356 3500 
L 2356 3053 
L 1172 3053 
L 1172 1153 
Q 1172 725 1289 603 
Q 1406 481 1766 481 
L 2356 481 
L 2356 0 
L 1766 0 
Q 1100 0 847 248 
Q 594 497 594 1153 
L 594 3053 
L 172 3053 
L 172 3500 
L 594 3500 
L 594 4494 
L 1172 4494 
z
" id="DejaVuSans-74" transform="scale(0.015625)"/>
      </defs>
      <use xlink:href="#DejaVuSans-41"/>
      <use x="68.408203" xlink:href="#DejaVuSans-6c"/>
      <use x="96.191406" xlink:href="#DejaVuSans-6c"/>
      <use x="123.974609" xlink:href="#DejaVuSans-65"/>
      <use x="185.498047" xlink:href="#DejaVuSans-6c"/>
      <use x="213.28125" xlink:href="#DejaVuSans-65"/>
      <use x="274.804688" xlink:href="#DejaVuSans-20"/>
      <use x="306.591797" xlink:href="#DejaVuSans-63"/>
      <use x="361.572266" xlink:href="#DejaVuSans-6f"/>
      <use x="422.753906" xlink:href="#DejaVuSans-75"/>
      <use x="486.132812" xlink:href="#DejaVuSans-6e"/>
      <use x="549.511719" xlink:href="#DejaVuSans-74"/>
     </g>
    </g>
   </g>
   <g id="matplotlib.axis_2">
    <g id="ytick_1">
     <g id="line2d_8">
      <defs>
       <path d="M 0 0 
L -3.5 0 
" id="m3b29926574" style="stroke:#000000;stroke-width:0.8;"/>
      </defs>
      <g>
       <use style="stroke:#000000;stroke-width:0.8;" x="57.6" xlink:href="#m3b29926574" y="307.584"/>
      </g>
     </g>
     <g id="text_9">
      <!-- 0 -->
      <g transform="translate(44.2375 311.383219)scale(0.1 -0.1)">
       <defs>
        <path d="M 2034 4250 
Q 1547 4250 1301 3770 
Q 1056 3291 1056 2328 
Q 1056 1369 1301 889 
Q 1547 409 2034 409 
Q 2525 409 2770 889 
Q 3016 1369 3016 2328 
Q 3016 3291 2770 3770 
Q 2525 4250 2034 4250 
z
M 2034 4750 
Q 2819 4750 3233 4129 
Q 3647 3509 3647 2328 
Q 3647 1150 3233 529 
Q 2819 -91 2034 -91 
Q 1250 -91 836 529 
Q 422 1150 422 2328 
Q 422 3509 836 4129 
Q 1250 4750 2034 4750 
z
" id="DejaVuSans-30" transform="scale(0.015625)"/>
       </defs>
       <use xlink:href="#DejaVuSans-30"/>
      </g>
     </g>
    </g>
    <g id="ytick_2">
     <g id="line2d_9">
      <g>
       <use style="stroke:#000000;stroke-width:0.8;" x="57.6" xlink:href="#m3b29926574" y="261.864929"/>
      </g>
     </g>
     <g id="text_10">
      <!-- 500 -->
      <g transform="translate(31.5125 265.664147)scale(0.1 -0.1)">
       <use xlink:href="#DejaVuSans-35"/>
       <use x="63.623047" xlink:href="#DejaVuSans-30"/>
       <use x="127.246094" xlink:href="#DejaVuSans-30"/>
      </g>
     </g>
    </g>
    <g id="ytick_3">
     <g id="line2d_10">
      <g>
       <use style="stroke:#000000;stroke-width:0.8;" x="57.6" xlink:href="#m3b29926574" y="216.145857"/>
      </g>
     </g>
     <g id="text_11">
      <!-- 1000 -->
      <g transform="translate(25.15 219.945076)scale(0.1 -0.1)">
       <use xlink:href="#DejaVuSans-31"/>
       <use x="63.623047" xlink:href="#DejaVuSans-30"/>
       <use x="127.246094" xlink:href="#DejaVuSans-30"/>
       <use x="190.869141" xlink:href="#DejaVuSans-30"/>
      </g>
     </g>
    </g>
    <g id="ytick_4">
     <g id="line2d_11">
      <g>
       <use style="stroke:#000000;stroke-width:0.8;" x="57.6" xlink:href="#m3b29926574" y="170.426786"/>
      </g>
     </g>
     <g id="text_12">
      <!-- 1500 -->
      <g transform="translate(25.15 174.226005)scale(0.1 -0.1)">
       <use xlink:href="#DejaVuSans-31"/>
       <use x="63.623047" xlink:href="#DejaVuSans-35"/>
       <use x="127.246094" xlink:href="#DejaVuSans-30"/>
       <use x="190.869141" xlink:href="#DejaVuSans-30"/>
      </g>
     </g>
    </g>
    <g id="ytick_5">
     <g id="line2d_12">
      <g>
       <use style="stroke:#000000;stroke-width:0.8;" x="57.6" xlink:href="#m3b29926574" y="124.707715"/>
      </g>
     </g>
     <g id="text_13">
      <!-- 2000 -->
      <g transform="translate(25.15 128.506934)scale(0.1 -0.1)">
       <use xlink:href="#DejaVuSans-32"/>
       <use x="63.623047" xlink:href="#DejaVuSans-30"/>
       <use x="127.246094" xlink:href="#DejaVuSans-30"/>
       <use x="190.869141" xlink:href="#DejaVuSans-30"/>
      </g>
     </g>
    </g>
    <g id="ytick_6">
     <g id="line2d_13">
      <g>
       <use style="stroke:#000000;stroke-width:0.8;" x="57.6" xlink:href="#m3b29926574" y="78.988644"/>
      </g>
     </g>
     <g id="text_14">
      <!-- 2500 -->
      <g transform="translate(25.15 82.787862)scale(0.1 -0.1)">
       <use xlink:href="#DejaVuSans-32"/>
       <use x="63.623047" xlink:href="#DejaVuSans-35"/>
       <use x="127.246094" xlink:href="#DejaVuSans-30"/>
       <use x="190.869141" xlink:href="#DejaVuSans-30"/>
      </g>
     </g>
    </g>
   </g>
   <g id="patch_201">
    <path d="M 57.6 307.584 
L 57.6 41.472 
" style="fill:none;stroke:#000000;stroke-linecap:square;stroke-linejoin:miter;stroke-width:0.8;"/>
   </g>
   <g id="patch_202">
    <path d="M 414.72 307.584 
L 414.72 41.472 
" style="fill:none;stroke:#000000;stroke-linecap:square;stroke-linejoin:miter;stroke-width:0.8;"/>
   </g>
   <g id="patch_203">
    <path d="M 57.6 307.584 
L 414.72 307.584 
" style="fill:none;stroke:#000000;stroke-linecap:square;stroke-linejoin:miter;stroke-width:0.8;"/>
   </g>
   <g id="patch_204">
    <path d="M 57.6 41.472 
L 414.72 41.472 
" style="fill:none;stroke:#000000;stroke-linecap:square;stroke-linejoin:miter;stroke-width:0.8;"/>
   </g>
   <g id="legend_1">
    <g id="patch_205">
     <path d="M 293.679375 78.82825 
L 407.72 78.82825 
Q 409.72 78.82825 409.72 76.82825 
L 409.72 48.472 
Q 409.72 46.472 407.72 46.472 
L 293.679375 46.472 
Q 291.679375 46.472 291.679375 48.472 
L 291.679375 76.82825 
Q 291.679375 78.82825 293.679375 78.82825 
z
" style="fill:#ffffff;opacity:0.8;stroke:#cccccc;stroke-linejoin:miter;"/>
    </g>
    <g id="patch_206">
     <path d="M 295.679375 58.070437 
L 315.679375 58.070437 
L 315.679375 51.070437 
L 295.679375 51.070437 
z
" style="fill:#1f77b4;"/>
    </g>
    <g id="text_15">
     <!-- synonymous -->
     <g transform="translate(323.679375 58.070437)scale(0.1 -0.1)">
      <defs>
       <path d="M 2834 3397 
L 2834 2853 
Q 2591 2978 2328 3040 
Q 2066 3103 1784 3103 
Q 1356 3103 1142 2972 
Q 928 2841 928 2578 
Q 928 2378 1081 2264 
Q 1234 2150 1697 2047 
L 1894 2003 
Q 2506 1872 2764 1633 
Q 3022 1394 3022 966 
Q 3022 478 2636 193 
Q 2250 -91 1575 -91 
Q 1294 -91 989 -36 
Q 684 19 347 128 
L 347 722 
Q 666 556 975 473 
Q 1284 391 1588 391 
Q 1994 391 2212 530 
Q 2431 669 2431 922 
Q 2431 1156 2273 1281 
Q 2116 1406 1581 1522 
L 1381 1569 
Q 847 1681 609 1914 
Q 372 2147 372 2553 
Q 372 3047 722 3315 
Q 1072 3584 1716 3584 
Q 2034 3584 2315 3537 
Q 2597 3491 2834 3397 
z
" id="DejaVuSans-73" transform="scale(0.015625)"/>
       <path d="M 2059 -325 
Q 1816 -950 1584 -1140 
Q 1353 -1331 966 -1331 
L 506 -1331 
L 506 -850 
L 844 -850 
Q 1081 -850 1212 -737 
Q 1344 -625 1503 -206 
L 1606 56 
L 191 3500 
L 800 3500 
L 1894 763 
L 2988 3500 
L 3597 3500 
L 2059 -325 
z
" id="DejaVuSans-79" transform="scale(0.015625)"/>
       <path d="M 3328 2828 
Q 3544 3216 3844 3400 
Q 4144 3584 4550 3584 
Q 5097 3584 5394 3201 
Q 5691 2819 5691 2113 
L 5691 0 
L 5113 0 
L 5113 2094 
Q 5113 2597 4934 2840 
Q 4756 3084 4391 3084 
Q 3944 3084 3684 2787 
Q 3425 2491 3425 1978 
L 3425 0 
L 2847 0 
L 2847 2094 
Q 2847 2600 2669 2842 
Q 2491 3084 2119 3084 
Q 1678 3084 1418 2786 
Q 1159 2488 1159 1978 
L 1159 0 
L 581 0 
L 581 3500 
L 1159 3500 
L 1159 2956 
Q 1356 3278 1631 3431 
Q 1906 3584 2284 3584 
Q 2666 3584 2933 3390 
Q 3200 3197 3328 2828 
z
" id="DejaVuSans-6d" transform="scale(0.015625)"/>
      </defs>
      <use xlink:href="#DejaVuSans-73"/>
      <use x="52.099609" xlink:href="#DejaVuSans-79"/>
      <use x="111.279297" xlink:href="#DejaVuSans-6e"/>
      <use x="174.658203" xlink:href="#DejaVuSans-6f"/>
      <use x="235.839844" xlink:href="#DejaVuSans-6e"/>
      <use x="299.21875" xlink:href="#DejaVuSans-79"/>
      <use x="358.398438" xlink:href="#DejaVuSans-6d"/>
      <use x="455.810547" xlink:href="#DejaVuSans-6f"/>
      <use x="516.992188" xlink:href="#DejaVuSans-75"/>
      <use x="580.371094" xlink:href="#DejaVuSans-73"/>
     </g>
    </g>
    <g id="patch_207">
     <path d="M 295.679375 72.748562 
L 315.679375 72.748562 
L 315.679375 65.748562 
L 295.679375 65.748562 
z
" style="fill:#ff7f0e;"/>
    </g>
    <g id="text_16">
     <!-- nonsynonymous -->
     <g transform="translate(323.679375 72.748562)scale(0.1 -0.1)">
      <use xlink:href="#DejaVuSans-6e"/>
      <use x="63.378906" xlink:href="#DejaVuSans-6f"/>
      <use x="124.560547" xlink:href="#DejaVuSans-6e"/>
      <use x="187.939453" xlink:href="#DejaVuSans-73"/>
      <use x="240.039062" xlink:href="#DejaVuSans-79"/>
      <use x="299.21875" xlink:href="#DejaVuSans-6e"/>
      <use x="362.597656" xlink:href="#DejaVuSans-6f"/>
      <use x="423.779297" xlink:href="#DejaVuSans-6e"/>
      <use x="487.158203" xlink:href="#DejaVuSans-79"/>
      <use x="546.337891" xlink:href="#DejaVuSans-6d"/>
      <use x="643.75" xlink:href="#DejaVuSans-6f"/>
      <use x="704.931641" xlink:href="#DejaVuSans-75"/>
      <use x="768.310547" xlink:href="#DejaVuSans-73"/>
     </g>
    </g>
   </g>
  </g>
 </g>
 <defs>
  <clipPath id="p3df5959e84">
   <rect height="266.112" width="357.12" x="57.6" y="41.472"/>
  </clipPath>
 </defs>
</svg>
