<?xml version="1.0" encoding="utf-8" standalone="no"?>
<!DOCTYPE svg PUBLIC "-//W3C//DTD SVG 1.1//EN"
  "http://www.w3.org/Graphics/SVG/1.1/DTD/svg11.dtd">
<svg height="323.276562pt" version="1.1" viewBox="0 0 438.77125 323.276562" width="438.77125pt" xmlns="http://www.w3.org/2000/svg" xmlns:xlink="http://www.w3.org/1999/xlink">
 <metadata>
  <rdf:RDF xmlns:cc="http://creativecommons.org/ns#" xmlns:dc="http://purl.org/dc/elements/1.1/" xmlns:rdf="http://www.w3.org/1999/02/22-rdf-syntax-ns#">
   <cc:Work>
    <dc:type rdf:resource="http://purl.org/dc/dcmitype/StillImage"/>
    <dc:date>2022-01-12T14:44:02.032844</dc:date>
    <dc:format>image/svg+xml</dc:format>
    <dc:creator>
     <cc:Agent>
      <dc:title>Matplotlib v3.4.3, https://matplotlib.org/</dc:title>
     </cc:Agent>
    </dc:creator>
   </cc:Work>
  </rdf:RDF>
 </metadata>
 <defs>
  <style type="text/css">*{stroke-linecap:butt;stroke-linejoin:round;}</style>
 </defs>
 <g id="figure_1">
  <g id="patch_1">
   <path d="M 0 323.276562 
L 438.77125 323.276562 
L 438.77125 0 
L 0 0 
z
" style="fill:#ffffff;"/>
  </g>
  <g id="axes_1">
   <g id="patch_2">
    <path d="M 36.58125 306.598437 
L 438.77125 306.598437 
L 438.77125 10.598437 
L 36.58125 10.598437 
z
" style="fill:#ffffff;"/>
   </g>
   <g id="patch_3">
    <path clip-path="url(#pecd71c0915)" d="M 54.862614 306.598437 
L 62.175159 306.598437 
L 62.175159 24.693676 
L 54.862614 24.693676 
z
" style="fill:#ce6dbd;stroke:#b18aaa;stroke-linejoin:miter;"/>
   </g>
   <g id="patch_4">
    <path clip-path="url(#pecd71c0915)" d="M 62.175159 306.598437 
L 69.487705 306.598437 
L 69.487705 303.067026 
L 62.175159 303.067026 
z
" style="fill:#ce6dbd;stroke:#b18aaa;stroke-linejoin:miter;"/>
   </g>
   <g id="patch_5">
    <path clip-path="url(#pecd71c0915)" d="M 69.487705 306.598437 
L 76.80025 306.598437 
L 76.80025 304.793719 
L 69.487705 304.793719 
z
" style="fill:#ce6dbd;stroke:#b18aaa;stroke-linejoin:miter;"/>
   </g>
   <g id="patch_6">
    <path clip-path="url(#pecd71c0915)" d="M 76.80025 306.598437 
L 84.112795 306.598437 
L 84.112795 305.627158 
L 76.80025 305.627158 
z
" style="fill:#ce6dbd;stroke:#b18aaa;stroke-linejoin:miter;"/>
   </g>
   <g id="patch_7">
    <path clip-path="url(#pecd71c0915)" d="M 84.112795 306.598437 
L 91.425341 306.598437 
L 91.425341 305.870279 
L 84.112795 305.870279 
z
" style="fill:#ce6dbd;stroke:#b18aaa;stroke-linejoin:miter;"/>
   </g>
   <g id="patch_8">
    <path clip-path="url(#pecd71c0915)" d="M 91.425341 306.598437 
L 98.737886 306.598437 
L 98.737886 306.030189 
L 91.425341 306.030189 
z
" style="fill:#ce6dbd;stroke:#b18aaa;stroke-linejoin:miter;"/>
   </g>
   <g id="patch_9">
    <path clip-path="url(#pecd71c0915)" d="M 98.737886 306.598437 
L 106.050432 306.598437 
L 106.050432 306.146564 
L 98.737886 306.146564 
z
" style="fill:#ce6dbd;stroke:#b18aaa;stroke-linejoin:miter;"/>
   </g>
   <g id="patch_10">
    <path clip-path="url(#pecd71c0915)" d="M 106.050432 306.598437 
L 113.362977 306.598437 
L 113.362977 306.20035 
L 106.050432 306.20035 
z
" style="fill:#ce6dbd;stroke:#b18aaa;stroke-linejoin:miter;"/>
   </g>
   <g id="patch_11">
    <path clip-path="url(#pecd71c0915)" d="M 113.362977 306.598437 
L 120.675523 306.598437 
L 120.675523 306.293571 
L 113.362977 306.293571 
z
" style="fill:#ce6dbd;stroke:#b18aaa;stroke-linejoin:miter;"/>
   </g>
   <g id="patch_12">
    <path clip-path="url(#pecd71c0915)" d="M 120.675523 306.598437 
L 127.988068 306.598437 
L 127.988068 306.286576 
L 120.675523 306.286576 
z
" style="fill:#ce6dbd;stroke:#b18aaa;stroke-linejoin:miter;"/>
   </g>
   <g id="patch_13">
    <path clip-path="url(#pecd71c0915)" d="M 127.988068 306.598437 
L 135.300614 306.598437 
L 135.300614 306.353507 
L 127.988068 306.353507 
z
" style="fill:#ce6dbd;stroke:#b18aaa;stroke-linejoin:miter;"/>
   </g>
   <g id="patch_14">
    <path clip-path="url(#pecd71c0915)" d="M 135.300614 306.598437 
L 142.613159 306.598437 
L 142.613159 306.355437 
L 135.300614 306.355437 
z
" style="fill:#ce6dbd;stroke:#b18aaa;stroke-linejoin:miter;"/>
   </g>
   <g id="patch_15">
    <path clip-path="url(#pecd71c0915)" d="M 142.613159 306.598437 
L 149.925705 306.598437 
L 149.925705 306.396319 
L 142.613159 306.396319 
z
" style="fill:#ce6dbd;stroke:#b18aaa;stroke-linejoin:miter;"/>
   </g>
   <g id="patch_16">
    <path clip-path="url(#pecd71c0915)" d="M 149.925705 306.598437 
L 157.23825 306.598437 
L 157.23825 306.402831 
L 149.925705 306.402831 
z
" style="fill:#ce6dbd;stroke:#b18aaa;stroke-linejoin:miter;"/>
   </g>
   <g id="patch_17">
    <path clip-path="url(#pecd71c0915)" d="M 157.23825 306.598437 
L 164.550795 306.598437 
L 164.550795 306.402107 
L 157.23825 306.402107 
z
" style="fill:#ce6dbd;stroke:#b18aaa;stroke-linejoin:miter;"/>
   </g>
   <g id="patch_18">
    <path clip-path="url(#pecd71c0915)" d="M 164.550795 306.598437 
L 171.863341 306.598437 
L 171.863341 306.436477 
L 164.550795 306.436477 
z
" style="fill:#ce6dbd;stroke:#b18aaa;stroke-linejoin:miter;"/>
   </g>
   <g id="patch_19">
    <path clip-path="url(#pecd71c0915)" d="M 171.863341 306.598437 
L 179.175886 306.598437 
L 179.175886 306.432739 
L 171.863341 306.432739 
z
" style="fill:#ce6dbd;stroke:#b18aaa;stroke-linejoin:miter;"/>
   </g>
   <g id="patch_20">
    <path clip-path="url(#pecd71c0915)" d="M 179.175886 306.598437 
L 186.488432 306.598437 
L 186.488432 306.453119 
L 179.175886 306.453119 
z
" style="fill:#ce6dbd;stroke:#b18aaa;stroke-linejoin:miter;"/>
   </g>
   <g id="patch_21">
    <path clip-path="url(#pecd71c0915)" d="M 186.488432 306.598437 
L 193.800977 306.598437 
L 193.800977 306.452034 
L 186.488432 306.452034 
z
" style="fill:#ce6dbd;stroke:#b18aaa;stroke-linejoin:miter;"/>
   </g>
   <g id="patch_22">
    <path clip-path="url(#pecd71c0915)" d="M 193.800977 306.598437 
L 201.113523 306.598437 
L 201.113523 306.446487 
L 193.800977 306.446487 
z
" style="fill:#ce6dbd;stroke:#b18aaa;stroke-linejoin:miter;"/>
   </g>
   <g id="patch_23">
    <path clip-path="url(#pecd71c0915)" d="M 201.113523 306.598437 
L 208.426068 306.598437 
L 208.426068 306.461682 
L 201.113523 306.461682 
z
" style="fill:#ce6dbd;stroke:#b18aaa;stroke-linejoin:miter;"/>
   </g>
   <g id="patch_24">
    <path clip-path="url(#pecd71c0915)" d="M 208.426068 306.598437 
L 215.738614 306.598437 
L 215.738614 306.460958 
L 208.426068 306.460958 
z
" style="fill:#ce6dbd;stroke:#b18aaa;stroke-linejoin:miter;"/>
   </g>
   <g id="patch_25">
    <path clip-path="url(#pecd71c0915)" d="M 215.738614 306.598437 
L 223.051159 306.598437 
L 223.051159 306.466144 
L 215.738614 306.466144 
z
" style="fill:#ce6dbd;stroke:#b18aaa;stroke-linejoin:miter;"/>
   </g>
   <g id="patch_26">
    <path clip-path="url(#pecd71c0915)" d="M 223.051159 306.598437 
L 230.363705 306.598437 
L 230.363705 306.453361 
L 223.051159 306.453361 
z
" style="fill:#ce6dbd;stroke:#b18aaa;stroke-linejoin:miter;"/>
   </g>
   <g id="patch_27">
    <path clip-path="url(#pecd71c0915)" d="M 230.363705 306.598437 
L 237.67625 306.598437 
L 237.67625 306.464697 
L 230.363705 306.464697 
z
" style="fill:#ce6dbd;stroke:#b18aaa;stroke-linejoin:miter;"/>
   </g>
   <g id="patch_28">
    <path clip-path="url(#pecd71c0915)" d="M 237.67625 306.598437 
L 244.988795 306.598437 
L 244.988795 306.462405 
L 237.67625 306.462405 
z
" style="fill:#ce6dbd;stroke:#b18aaa;stroke-linejoin:miter;"/>
   </g>
   <g id="patch_29">
    <path clip-path="url(#pecd71c0915)" d="M 244.988795 306.598437 
L 252.301341 306.598437 
L 252.301341 306.511367 
L 244.988795 306.511367 
z
" style="fill:#ce6dbd;stroke:#b18aaa;stroke-linejoin:miter;"/>
   </g>
   <g id="patch_30">
    <path clip-path="url(#pecd71c0915)" d="M 252.301341 306.598437 
L 259.613886 306.598437 
L 259.613886 306.540431 
L 252.301341 306.540431 
z
" style="fill:#ce6dbd;stroke:#b18aaa;stroke-linejoin:miter;"/>
   </g>
   <g id="patch_31">
    <path clip-path="url(#pecd71c0915)" d="M 259.613886 306.598437 
L 266.926432 306.598437 
L 266.926432 306.538381 
L 259.613886 306.538381 
z
" style="fill:#ce6dbd;stroke:#b18aaa;stroke-linejoin:miter;"/>
   </g>
   <g id="patch_32">
    <path clip-path="url(#pecd71c0915)" d="M 266.926432 306.598437 
L 274.238977 306.598437 
L 274.238977 306.543446 
L 266.926432 306.543446 
z
" style="fill:#ce6dbd;stroke:#b18aaa;stroke-linejoin:miter;"/>
   </g>
   <g id="patch_33">
    <path clip-path="url(#pecd71c0915)" d="M 274.238977 306.598437 
L 281.551523 306.598437 
L 281.551523 306.549717 
L 274.238977 306.549717 
z
" style="fill:#ce6dbd;stroke:#b18aaa;stroke-linejoin:miter;"/>
   </g>
   <g id="patch_34">
    <path clip-path="url(#pecd71c0915)" d="M 281.551523 306.598437 
L 288.864068 306.598437 
L 288.864068 306.560088 
L 281.551523 306.560088 
z
" style="fill:#ce6dbd;stroke:#b18aaa;stroke-linejoin:miter;"/>
   </g>
   <g id="patch_35">
    <path clip-path="url(#pecd71c0915)" d="M 288.864068 306.598437 
L 296.176614 306.598437 
L 296.176614 306.558882 
L 288.864068 306.558882 
z
" style="fill:#ce6dbd;stroke:#b18aaa;stroke-linejoin:miter;"/>
   </g>
   <g id="patch_36">
    <path clip-path="url(#pecd71c0915)" d="M 296.176614 306.598437 
L 303.489159 306.598437 
L 303.489159 306.558641 
L 296.176614 306.558641 
z
" style="fill:#ce6dbd;stroke:#b18aaa;stroke-linejoin:miter;"/>
   </g>
   <g id="patch_37">
    <path clip-path="url(#pecd71c0915)" d="M 303.489159 306.598437 
L 310.801705 306.598437 
L 310.801705 306.56455 
L 303.489159 306.56455 
z
" style="fill:#ce6dbd;stroke:#b18aaa;stroke-linejoin:miter;"/>
   </g>
   <g id="patch_38">
    <path clip-path="url(#pecd71c0915)" d="M 310.801705 306.598437 
L 318.11425 306.598437 
L 318.11425 306.577695 
L 310.801705 306.577695 
z
" style="fill:#ce6dbd;stroke:#b18aaa;stroke-linejoin:miter;"/>
   </g>
   <g id="patch_39">
    <path clip-path="url(#pecd71c0915)" d="M 318.11425 306.598437 
L 325.426795 306.598437 
L 325.426795 306.58879 
L 318.11425 306.58879 
z
" style="fill:#ce6dbd;stroke:#b18aaa;stroke-linejoin:miter;"/>
   </g>
   <g id="patch_40">
    <path clip-path="url(#pecd71c0915)" d="M 325.426795 306.598437 
L 332.739341 306.598437 
L 332.739341 306.594217 
L 325.426795 306.594217 
z
" style="fill:#ce6dbd;stroke:#b18aaa;stroke-linejoin:miter;"/>
   </g>
   <g id="patch_41">
    <path clip-path="url(#pecd71c0915)" d="M 332.739341 306.598437 
L 340.051886 306.598437 
L 340.051886 306.594699 
L 332.739341 306.594699 
z
" style="fill:#ce6dbd;stroke:#b18aaa;stroke-linejoin:miter;"/>
   </g>
   <g id="patch_42">
    <path clip-path="url(#pecd71c0915)" d="M 340.051886 306.598437 
L 347.364432 306.598437 
L 347.364432 306.596387 
L 340.051886 306.596387 
z
" style="fill:#ce6dbd;stroke:#b18aaa;stroke-linejoin:miter;"/>
   </g>
   <g id="patch_43">
    <path clip-path="url(#pecd71c0915)" d="M 347.364432 306.598437 
L 354.676977 306.598437 
L 354.676977 306.597714 
L 347.364432 306.597714 
z
" style="fill:#ce6dbd;stroke:#b18aaa;stroke-linejoin:miter;"/>
   </g>
   <g id="patch_44">
    <path clip-path="url(#pecd71c0915)" d="M 354.676977 306.598437 
L 361.989523 306.598437 
L 361.989523 306.597473 
L 354.676977 306.597473 
z
" style="fill:#ce6dbd;stroke:#b18aaa;stroke-linejoin:miter;"/>
   </g>
   <g id="patch_45">
    <path clip-path="url(#pecd71c0915)" d="M 361.989523 306.598437 
L 369.302068 306.598437 
L 369.302068 306.597473 
L 361.989523 306.597473 
z
" style="fill:#ce6dbd;stroke:#b18aaa;stroke-linejoin:miter;"/>
   </g>
   <g id="patch_46">
    <path clip-path="url(#pecd71c0915)" d="M 369.302068 306.598437 
L 376.614614 306.598437 
L 376.614614 306.597593 
L 369.302068 306.597593 
z
" style="fill:#ce6dbd;stroke:#b18aaa;stroke-linejoin:miter;"/>
   </g>
   <g id="patch_47">
    <path clip-path="url(#pecd71c0915)" d="M 376.614614 306.598437 
L 383.927159 306.598437 
L 383.927159 306.597593 
L 376.614614 306.597593 
z
" style="fill:#ce6dbd;stroke:#b18aaa;stroke-linejoin:miter;"/>
   </g>
   <g id="patch_48">
    <path clip-path="url(#pecd71c0915)" d="M 383.927159 306.598437 
L 391.239705 306.598437 
L 391.239705 306.597111 
L 383.927159 306.597111 
z
" style="fill:#ce6dbd;stroke:#b18aaa;stroke-linejoin:miter;"/>
   </g>
   <g id="patch_49">
    <path clip-path="url(#pecd71c0915)" d="M 391.239705 306.598437 
L 398.55225 306.598437 
L 398.55225 306.598196 
L 391.239705 306.598196 
z
" style="fill:#ce6dbd;stroke:#b18aaa;stroke-linejoin:miter;"/>
   </g>
   <g id="patch_50">
    <path clip-path="url(#pecd71c0915)" d="M 398.55225 306.598437 
L 405.864795 306.598437 
L 405.864795 306.597714 
L 398.55225 306.597714 
z
" style="fill:#ce6dbd;stroke:#b18aaa;stroke-linejoin:miter;"/>
   </g>
   <g id="patch_51">
    <path clip-path="url(#pecd71c0915)" d="M 405.864795 306.598437 
L 413.177341 306.598437 
L 413.177341 306.597593 
L 405.864795 306.597593 
z
" style="fill:#ce6dbd;stroke:#b18aaa;stroke-linejoin:miter;"/>
   </g>
   <g id="patch_52">
    <path clip-path="url(#pecd71c0915)" d="M 413.177341 306.598437 
L 420.489886 306.598437 
L 420.489886 306.598317 
L 413.177341 306.598317 
z
" style="fill:#ce6dbd;stroke:#b18aaa;stroke-linejoin:miter;"/>
   </g>
   <g id="matplotlib.axis_1">
    <g id="xtick_1">
     <g id="line2d_1">
      <defs>
       <path d="M 0 0 
L 0 3.5 
" id="m2a2729ac2d" style="stroke:#000000;stroke-width:0.8;"/>
      </defs>
      <g>
       <use style="stroke:#000000;stroke-width:0.8;" x="54.862614" xlink:href="#m2a2729ac2d" y="306.598437"/>
      </g>
     </g>
     <g id="text_1">
      <!-- 0.0 -->
      <g transform="translate(46.911051 321.196875)scale(0.1 -0.1)">
       <defs>
        <path d="M 2034 4250 
Q 1547 4250 1301 3770 
Q 1056 3291 1056 2328 
Q 1056 1369 1301 889 
Q 1547 409 2034 409 
Q 2525 409 2770 889 
Q 3016 1369 3016 2328 
Q 3016 3291 2770 3770 
Q 2525 4250 2034 4250 
z
M 2034 4750 
Q 2819 4750 3233 4129 
Q 3647 3509 3647 2328 
Q 3647 1150 3233 529 
Q 2819 -91 2034 -91 
Q 1250 -91 836 529 
Q 422 1150 422 2328 
Q 422 3509 836 4129 
Q 1250 4750 2034 4750 
z
" id="DejaVuSans-30" transform="scale(0.015625)"/>
        <path d="M 684 794 
L 1344 794 
L 1344 0 
L 684 0 
L 684 794 
z
" id="DejaVuSans-2e" transform="scale(0.015625)"/>
       </defs>
       <use xlink:href="#DejaVuSans-30"/>
       <use x="63.623047" xlink:href="#DejaVuSans-2e"/>
       <use x="95.410156" xlink:href="#DejaVuSans-30"/>
      </g>
     </g>
    </g>
    <g id="xtick_2">
     <g id="line2d_2">
      <g>
       <use style="stroke:#000000;stroke-width:0.8;" x="128.38509" xlink:href="#m2a2729ac2d" y="306.598437"/>
      </g>
     </g>
     <g id="text_2">
      <!-- 0.2 -->
      <g transform="translate(120.433527 321.196875)scale(0.1 -0.1)">
       <defs>
        <path d="M 1228 531 
L 3431 531 
L 3431 0 
L 469 0 
L 469 531 
Q 828 903 1448 1529 
Q 2069 2156 2228 2338 
Q 2531 2678 2651 2914 
Q 2772 3150 2772 3378 
Q 2772 3750 2511 3984 
Q 2250 4219 1831 4219 
Q 1534 4219 1204 4116 
Q 875 4013 500 3803 
L 500 4441 
Q 881 4594 1212 4672 
Q 1544 4750 1819 4750 
Q 2544 4750 2975 4387 
Q 3406 4025 3406 3419 
Q 3406 3131 3298 2873 
Q 3191 2616 2906 2266 
Q 2828 2175 2409 1742 
Q 1991 1309 1228 531 
z
" id="DejaVuSans-32" transform="scale(0.015625)"/>
       </defs>
       <use xlink:href="#DejaVuSans-30"/>
       <use x="63.623047" xlink:href="#DejaVuSans-2e"/>
       <use x="95.410156" xlink:href="#DejaVuSans-32"/>
      </g>
     </g>
    </g>
    <g id="xtick_3">
     <g id="line2d_3">
      <g>
       <use style="stroke:#000000;stroke-width:0.8;" x="201.907565" xlink:href="#m2a2729ac2d" y="306.598437"/>
      </g>
     </g>
     <g id="text_3">
      <!-- 0.4 -->
      <g transform="translate(193.956003 321.196875)scale(0.1 -0.1)">
       <defs>
        <path d="M 2419 4116 
L 825 1625 
L 2419 1625 
L 2419 4116 
z
M 2253 4666 
L 3047 4666 
L 3047 1625 
L 3713 1625 
L 3713 1100 
L 3047 1100 
L 3047 0 
L 2419 0 
L 2419 1100 
L 313 1100 
L 313 1709 
L 2253 4666 
z
" id="DejaVuSans-34" transform="scale(0.015625)"/>
       </defs>
       <use xlink:href="#DejaVuSans-30"/>
       <use x="63.623047" xlink:href="#DejaVuSans-2e"/>
       <use x="95.410156" xlink:href="#DejaVuSans-34"/>
      </g>
     </g>
    </g>
    <g id="xtick_4">
     <g id="line2d_4">
      <g>
       <use style="stroke:#000000;stroke-width:0.8;" x="275.430041" xlink:href="#m2a2729ac2d" y="306.598437"/>
      </g>
     </g>
     <g id="text_4">
      <!-- 0.6 -->
      <g transform="translate(267.478479 321.196875)scale(0.1 -0.1)">
       <defs>
        <path d="M 2113 2584 
Q 1688 2584 1439 2293 
Q 1191 2003 1191 1497 
Q 1191 994 1439 701 
Q 1688 409 2113 409 
Q 2538 409 2786 701 
Q 3034 994 3034 1497 
Q 3034 2003 2786 2293 
Q 2538 2584 2113 2584 
z
M 3366 4563 
L 3366 3988 
Q 3128 4100 2886 4159 
Q 2644 4219 2406 4219 
Q 1781 4219 1451 3797 
Q 1122 3375 1075 2522 
Q 1259 2794 1537 2939 
Q 1816 3084 2150 3084 
Q 2853 3084 3261 2657 
Q 3669 2231 3669 1497 
Q 3669 778 3244 343 
Q 2819 -91 2113 -91 
Q 1303 -91 875 529 
Q 447 1150 447 2328 
Q 447 3434 972 4092 
Q 1497 4750 2381 4750 
Q 2619 4750 2861 4703 
Q 3103 4656 3366 4563 
z
" id="DejaVuSans-36" transform="scale(0.015625)"/>
       </defs>
       <use xlink:href="#DejaVuSans-30"/>
       <use x="63.623047" xlink:href="#DejaVuSans-2e"/>
       <use x="95.410156" xlink:href="#DejaVuSans-36"/>
      </g>
     </g>
    </g>
    <g id="xtick_5">
     <g id="line2d_5">
      <g>
       <use style="stroke:#000000;stroke-width:0.8;" x="348.952517" xlink:href="#m2a2729ac2d" y="306.598437"/>
      </g>
     </g>
     <g id="text_5">
      <!-- 0.8 -->
      <g transform="translate(341.000955 321.196875)scale(0.1 -0.1)">
       <defs>
        <path d="M 2034 2216 
Q 1584 2216 1326 1975 
Q 1069 1734 1069 1313 
Q 1069 891 1326 650 
Q 1584 409 2034 409 
Q 2484 409 2743 651 
Q 3003 894 3003 1313 
Q 3003 1734 2745 1975 
Q 2488 2216 2034 2216 
z
M 1403 2484 
Q 997 2584 770 2862 
Q 544 3141 544 3541 
Q 544 4100 942 4425 
Q 1341 4750 2034 4750 
Q 2731 4750 3128 4425 
Q 3525 4100 3525 3541 
Q 3525 3141 3298 2862 
Q 3072 2584 2669 2484 
Q 3125 2378 3379 2068 
Q 3634 1759 3634 1313 
Q 3634 634 3220 271 
Q 2806 -91 2034 -91 
Q 1263 -91 848 271 
Q 434 634 434 1313 
Q 434 1759 690 2068 
Q 947 2378 1403 2484 
z
M 1172 3481 
Q 1172 3119 1398 2916 
Q 1625 2713 2034 2713 
Q 2441 2713 2670 2916 
Q 2900 3119 2900 3481 
Q 2900 3844 2670 4047 
Q 2441 4250 2034 4250 
Q 1625 4250 1398 4047 
Q 1172 3844 1172 3481 
z
" id="DejaVuSans-38" transform="scale(0.015625)"/>
       </defs>
       <use xlink:href="#DejaVuSans-30"/>
       <use x="63.623047" xlink:href="#DejaVuSans-2e"/>
       <use x="95.410156" xlink:href="#DejaVuSans-38"/>
      </g>
     </g>
    </g>
    <g id="xtick_6">
     <g id="line2d_6">
      <g>
       <use style="stroke:#000000;stroke-width:0.8;" x="422.474993" xlink:href="#m2a2729ac2d" y="306.598437"/>
      </g>
     </g>
     <g id="text_6">
      <!-- 1.0 -->
      <g transform="translate(414.523431 321.196875)scale(0.1 -0.1)">
       <defs>
        <path d="M 794 531 
L 1825 531 
L 1825 4091 
L 703 3866 
L 703 4441 
L 1819 4666 
L 2450 4666 
L 2450 531 
L 3481 531 
L 3481 0 
L 794 0 
L 794 531 
z
" id="DejaVuSans-31" transform="scale(0.015625)"/>
       </defs>
       <use xlink:href="#DejaVuSans-31"/>
       <use x="63.623047" xlink:href="#DejaVuSans-2e"/>
       <use x="95.410156" xlink:href="#DejaVuSans-30"/>
      </g>
     </g>
    </g>
   </g>
   <g id="matplotlib.axis_2">
    <g id="ytick_1">
     <g id="line2d_7">
      <defs>
       <path d="M 0 0 
L -3.5 0 
" id="m0bb39ebbd0" style="stroke:#000000;stroke-width:0.8;"/>
      </defs>
      <g>
       <use style="stroke:#000000;stroke-width:0.8;" x="36.58125" xlink:href="#m0bb39ebbd0" y="306.598437"/>
      </g>
     </g>
     <g id="text_7">
      <!-- 0.0 -->
      <g transform="translate(13.678125 310.397656)scale(0.1 -0.1)">
       <use xlink:href="#DejaVuSans-30"/>
       <use x="63.623047" xlink:href="#DejaVuSans-2e"/>
       <use x="95.410156" xlink:href="#DejaVuSans-30"/>
      </g>
     </g>
    </g>
    <g id="ytick_2">
     <g id="line2d_8">
      <g>
       <use style="stroke:#000000;stroke-width:0.8;" x="36.58125" xlink:href="#m0bb39ebbd0" y="246.300456"/>
      </g>
     </g>
     <g id="text_8">
      <!-- 0.5 -->
      <g transform="translate(13.678125 250.099675)scale(0.1 -0.1)">
       <defs>
        <path d="M 691 4666 
L 3169 4666 
L 3169 4134 
L 1269 4134 
L 1269 2991 
Q 1406 3038 1543 3061 
Q 1681 3084 1819 3084 
Q 2600 3084 3056 2656 
Q 3513 2228 3513 1497 
Q 3513 744 3044 326 
Q 2575 -91 1722 -91 
Q 1428 -91 1123 -41 
Q 819 9 494 109 
L 494 744 
Q 775 591 1075 516 
Q 1375 441 1709 441 
Q 2250 441 2565 725 
Q 2881 1009 2881 1497 
Q 2881 1984 2565 2268 
Q 2250 2553 1709 2553 
Q 1456 2553 1204 2497 
Q 953 2441 691 2322 
L 691 4666 
z
" id="DejaVuSans-35" transform="scale(0.015625)"/>
       </defs>
       <use xlink:href="#DejaVuSans-30"/>
       <use x="63.623047" xlink:href="#DejaVuSans-2e"/>
       <use x="95.410156" xlink:href="#DejaVuSans-35"/>
      </g>
     </g>
    </g>
    <g id="ytick_3">
     <g id="line2d_9">
      <g>
       <use style="stroke:#000000;stroke-width:0.8;" x="36.58125" xlink:href="#m0bb39ebbd0" y="186.002474"/>
      </g>
     </g>
     <g id="text_9">
      <!-- 1.0 -->
      <g transform="translate(13.678125 189.801693)scale(0.1 -0.1)">
       <use xlink:href="#DejaVuSans-31"/>
       <use x="63.623047" xlink:href="#DejaVuSans-2e"/>
       <use x="95.410156" xlink:href="#DejaVuSans-30"/>
      </g>
     </g>
    </g>
    <g id="ytick_4">
     <g id="line2d_10">
      <g>
       <use style="stroke:#000000;stroke-width:0.8;" x="36.58125" xlink:href="#m0bb39ebbd0" y="125.704493"/>
      </g>
     </g>
     <g id="text_10">
      <!-- 1.5 -->
      <g transform="translate(13.678125 129.503711)scale(0.1 -0.1)">
       <use xlink:href="#DejaVuSans-31"/>
       <use x="63.623047" xlink:href="#DejaVuSans-2e"/>
       <use x="95.410156" xlink:href="#DejaVuSans-35"/>
      </g>
     </g>
    </g>
    <g id="ytick_5">
     <g id="line2d_11">
      <g>
       <use style="stroke:#000000;stroke-width:0.8;" x="36.58125" xlink:href="#m0bb39ebbd0" y="65.406511"/>
      </g>
     </g>
     <g id="text_11">
      <!-- 2.0 -->
      <g transform="translate(13.678125 69.20573)scale(0.1 -0.1)">
       <use xlink:href="#DejaVuSans-32"/>
       <use x="63.623047" xlink:href="#DejaVuSans-2e"/>
       <use x="95.410156" xlink:href="#DejaVuSans-30"/>
      </g>
     </g>
    </g>
    <g id="text_12">
     <!-- n SNPs -->
     <g transform="translate(7.598438 175.803125)rotate(-90)scale(0.1 -0.1)">
      <defs>
       <path d="M 3513 2113 
L 3513 0 
L 2938 0 
L 2938 2094 
Q 2938 2591 2744 2837 
Q 2550 3084 2163 3084 
Q 1697 3084 1428 2787 
Q 1159 2491 1159 1978 
L 1159 0 
L 581 0 
L 581 3500 
L 1159 3500 
L 1159 2956 
Q 1366 3272 1645 3428 
Q 1925 3584 2291 3584 
Q 2894 3584 3203 3211 
Q 3513 2838 3513 2113 
z
" id="DejaVuSans-6e" transform="scale(0.015625)"/>
       <path id="DejaVuSans-20" transform="scale(0.015625)"/>
       <path d="M 3425 4513 
L 3425 3897 
Q 3066 4069 2747 4153 
Q 2428 4238 2131 4238 
Q 1616 4238 1336 4038 
Q 1056 3838 1056 3469 
Q 1056 3159 1242 3001 
Q 1428 2844 1947 2747 
L 2328 2669 
Q 3034 2534 3370 2195 
Q 3706 1856 3706 1288 
Q 3706 609 3251 259 
Q 2797 -91 1919 -91 
Q 1588 -91 1214 -16 
Q 841 59 441 206 
L 441 856 
Q 825 641 1194 531 
Q 1563 422 1919 422 
Q 2459 422 2753 634 
Q 3047 847 3047 1241 
Q 3047 1584 2836 1778 
Q 2625 1972 2144 2069 
L 1759 2144 
Q 1053 2284 737 2584 
Q 422 2884 422 3419 
Q 422 4038 858 4394 
Q 1294 4750 2059 4750 
Q 2388 4750 2728 4690 
Q 3069 4631 3425 4513 
z
" id="DejaVuSans-53" transform="scale(0.015625)"/>
       <path d="M 628 4666 
L 1478 4666 
L 3547 763 
L 3547 4666 
L 4159 4666 
L 4159 0 
L 3309 0 
L 1241 3903 
L 1241 0 
L 628 0 
L 628 4666 
z
" id="DejaVuSans-4e" transform="scale(0.015625)"/>
       <path d="M 1259 4147 
L 1259 2394 
L 2053 2394 
Q 2494 2394 2734 2622 
Q 2975 2850 2975 3272 
Q 2975 3691 2734 3919 
Q 2494 4147 2053 4147 
L 1259 4147 
z
M 628 4666 
L 2053 4666 
Q 2838 4666 3239 4311 
Q 3641 3956 3641 3272 
Q 3641 2581 3239 2228 
Q 2838 1875 2053 1875 
L 1259 1875 
L 1259 0 
L 628 0 
L 628 4666 
z
" id="DejaVuSans-50" transform="scale(0.015625)"/>
       <path d="M 2834 3397 
L 2834 2853 
Q 2591 2978 2328 3040 
Q 2066 3103 1784 3103 
Q 1356 3103 1142 2972 
Q 928 2841 928 2578 
Q 928 2378 1081 2264 
Q 1234 2150 1697 2047 
L 1894 2003 
Q 2506 1872 2764 1633 
Q 3022 1394 3022 966 
Q 3022 478 2636 193 
Q 2250 -91 1575 -91 
Q 1294 -91 989 -36 
Q 684 19 347 128 
L 347 722 
Q 666 556 975 473 
Q 1284 391 1588 391 
Q 1994 391 2212 530 
Q 2431 669 2431 922 
Q 2431 1156 2273 1281 
Q 2116 1406 1581 1522 
L 1381 1569 
Q 847 1681 609 1914 
Q 372 2147 372 2553 
Q 372 3047 722 3315 
Q 1072 3584 1716 3584 
Q 2034 3584 2315 3537 
Q 2597 3491 2834 3397 
z
" id="DejaVuSans-73" transform="scale(0.015625)"/>
      </defs>
      <use xlink:href="#DejaVuSans-6e"/>
      <use x="63.378906" xlink:href="#DejaVuSans-20"/>
      <use x="95.166016" xlink:href="#DejaVuSans-53"/>
      <use x="158.642578" xlink:href="#DejaVuSans-4e"/>
      <use x="233.447266" xlink:href="#DejaVuSans-50"/>
      <use x="292" xlink:href="#DejaVuSans-73"/>
     </g>
    </g>
    <g id="text_13">
     <!-- 1e6 -->
     <g transform="translate(36.58125 7.598437)scale(0.1 -0.1)">
      <defs>
       <path d="M 3597 1894 
L 3597 1613 
L 953 1613 
Q 991 1019 1311 708 
Q 1631 397 2203 397 
Q 2534 397 2845 478 
Q 3156 559 3463 722 
L 3463 178 
Q 3153 47 2828 -22 
Q 2503 -91 2169 -91 
Q 1331 -91 842 396 
Q 353 884 353 1716 
Q 353 2575 817 3079 
Q 1281 3584 2069 3584 
Q 2775 3584 3186 3129 
Q 3597 2675 3597 1894 
z
M 3022 2063 
Q 3016 2534 2758 2815 
Q 2500 3097 2075 3097 
Q 1594 3097 1305 2825 
Q 1016 2553 972 2059 
L 3022 2063 
z
" id="DejaVuSans-65" transform="scale(0.015625)"/>
      </defs>
      <use xlink:href="#DejaVuSans-31"/>
      <use x="63.623047" xlink:href="#DejaVuSans-65"/>
      <use x="125.146484" xlink:href="#DejaVuSans-36"/>
     </g>
    </g>
   </g>
   <g id="line2d_12">
    <path clip-path="url(#pecd71c0915)" d="M 57.332711 306.598437 
L 57.332711 10.598437 
" style="fill:none;stroke:#ce6dbd;stroke-dasharray:3.7,1.6;stroke-dashoffset:0;"/>
   </g>
   <g id="patch_53">
    <path d="M 36.58125 306.598437 
L 36.58125 10.598437 
" style="fill:none;stroke:#000000;stroke-linecap:square;stroke-linejoin:miter;stroke-width:0.8;"/>
   </g>
   <g id="patch_54">
    <path d="M 438.77125 306.598437 
L 438.77125 10.598437 
" style="fill:none;stroke:#000000;stroke-linecap:square;stroke-linejoin:miter;stroke-width:0.8;"/>
   </g>
   <g id="patch_55">
    <path d="M 36.58125 306.598437 
L 438.77125 306.598437 
" style="fill:none;stroke:#000000;stroke-linecap:square;stroke-linejoin:miter;stroke-width:0.8;"/>
   </g>
   <g id="patch_56">
    <path d="M 36.58125 10.598437 
L 438.77125 10.598437 
" style="fill:none;stroke:#000000;stroke-linecap:square;stroke-linejoin:miter;stroke-width:0.8;"/>
   </g>
   <g id="legend_1">
    <g id="patch_57">
     <path d="M 346.57125 33.276562 
L 431.77125 33.276562 
Q 433.77125 33.276562 433.77125 31.276562 
L 433.77125 17.598437 
Q 433.77125 15.598437 431.77125 15.598437 
L 346.57125 15.598437 
Q 344.57125 15.598437 344.57125 17.598437 
L 344.57125 31.276562 
Q 344.57125 33.276562 346.57125 33.276562 
z
" style="fill:#ffffff;opacity:0.8;stroke:#cccccc;stroke-linejoin:miter;"/>
    </g>
    <g id="line2d_13">
     <path d="M 348.57125 23.696875 
L 368.57125 23.696875 
" style="fill:none;stroke:#ce6dbd;stroke-dasharray:3.7,1.6;stroke-dashoffset:0;"/>
    </g>
    <g id="line2d_14"/>
    <g id="text_14">
     <!-- $\bar{x}=0.0067$ -->
     <g transform="translate(376.57125 27.196875)scale(0.1 -0.1)">
      <defs>
       <path d="M -2522 4769 
L -653 4769 
L -653 4306 
L -2522 4306 
L -2522 4769 
z
" id="DejaVuSans-304" transform="scale(0.015625)"/>
       <path d="M 3841 3500 
L 2234 1784 
L 3219 0 
L 2559 0 
L 1819 1388 
L 531 0 
L -166 0 
L 1556 1844 
L 641 3500 
L 1300 3500 
L 1972 2234 
L 3144 3500 
L 3841 3500 
z
" id="DejaVuSans-Oblique-78" transform="scale(0.015625)"/>
       <path d="M 678 2906 
L 4684 2906 
L 4684 2381 
L 678 2381 
L 678 2906 
z
M 678 1631 
L 4684 1631 
L 4684 1100 
L 678 1100 
L 678 1631 
z
" id="DejaVuSans-3d" transform="scale(0.015625)"/>
       <path d="M 525 4666 
L 3525 4666 
L 3525 4397 
L 1831 0 
L 1172 0 
L 2766 4134 
L 525 4134 
L 525 4666 
z
" id="DejaVuSans-37" transform="scale(0.015625)"/>
      </defs>
      <use transform="translate(62.201172 0.484375)" xlink:href="#DejaVuSans-304"/>
      <use transform="translate(0 0.578125)" xlink:href="#DejaVuSans-Oblique-78"/>
      <use transform="translate(78.662109 0.578125)" xlink:href="#DejaVuSans-3d"/>
      <use transform="translate(181.933594 0.578125)" xlink:href="#DejaVuSans-30"/>
      <use transform="translate(245.556641 0.578125)" xlink:href="#DejaVuSans-2e"/>
      <use transform="translate(277.34375 0.578125)" xlink:href="#DejaVuSans-30"/>
      <use transform="translate(340.966797 0.578125)" xlink:href="#DejaVuSans-30"/>
      <use transform="translate(404.589844 0.578125)" xlink:href="#DejaVuSans-36"/>
      <use transform="translate(468.212891 0.578125)" xlink:href="#DejaVuSans-37"/>
     </g>
    </g>
   </g>
  </g>
 </g>
 <defs>
  <clipPath id="pecd71c0915">
   <rect height="296" width="402.19" x="36.58125" y="10.598437"/>
  </clipPath>
 </defs>
</svg>
