<?xml version="1.0" encoding="utf-8" standalone="no"?>
<!DOCTYPE svg PUBLIC "-//W3C//DTD SVG 1.1//EN"
  "http://www.w3.org/Graphics/SVG/1.1/DTD/svg11.dtd">
<svg height="323.598125pt" version="1.1" viewBox="0 0 438.380312 323.598125" width="438.380312pt" xmlns="http://www.w3.org/2000/svg" xmlns:xlink="http://www.w3.org/1999/xlink">
 <metadata>
  <rdf:RDF xmlns:cc="http://creativecommons.org/ns#" xmlns:dc="http://purl.org/dc/elements/1.1/" xmlns:rdf="http://www.w3.org/1999/02/22-rdf-syntax-ns#">
   <cc:Work>
    <dc:type rdf:resource="http://purl.org/dc/dcmitype/StillImage"/>
    <dc:date>2022-01-12T14:45:12.464869</dc:date>
    <dc:format>image/svg+xml</dc:format>
    <dc:creator>
     <cc:Agent>
      <dc:title>Matplotlib v3.4.3, https://matplotlib.org/</dc:title>
     </cc:Agent>
    </dc:creator>
   </cc:Work>
  </rdf:RDF>
 </metadata>
 <defs>
  <style type="text/css">*{stroke-linecap:butt;stroke-linejoin:round;}</style>
 </defs>
 <g id="figure_1">
  <g id="patch_1">
   <path d="M 0 323.598125 
L 438.380312 323.598125 
L 438.380312 0 
L 0 0 
z
" style="fill:#ffffff;"/>
  </g>
  <g id="axes_1">
   <g id="patch_2">
    <path d="M 52.490625 306.92 
L 431.609714 306.92 
L 431.609714 0 
L 52.490625 0 
z
" style="fill:#ffffff;"/>
   </g>
   <g id="patch_3">
    <path clip-path="url(#p183bc8a980)" d="M 69.723311 306.92 
L 76.616385 306.92 
L 76.616385 306.781794 
L 69.723311 306.781794 
z
" style="fill:#40e0d0;stroke:#7aa6a2;stroke-linejoin:miter;"/>
   </g>
   <g id="patch_4">
    <path clip-path="url(#p183bc8a980)" d="M 76.616385 306.92 
L 83.50946 306.92 
L 83.50946 294.011601 
L 76.616385 294.011601 
z
" style="fill:#40e0d0;stroke:#7aa6a2;stroke-linejoin:miter;"/>
   </g>
   <g id="patch_5">
    <path clip-path="url(#p183bc8a980)" d="M 83.50946 306.92 
L 90.402534 306.92 
L 90.402534 218.316415 
L 83.50946 218.316415 
z
" style="fill:#40e0d0;stroke:#7aa6a2;stroke-linejoin:miter;"/>
   </g>
   <g id="patch_6">
    <path clip-path="url(#p183bc8a980)" d="M 90.402534 306.92 
L 97.295608 306.92 
L 97.295608 14.615238 
L 90.402534 14.615238 
z
" style="fill:#40e0d0;stroke:#7aa6a2;stroke-linejoin:miter;"/>
   </g>
   <g id="patch_7">
    <path clip-path="url(#p183bc8a980)" d="M 97.295608 306.92 
L 104.188683 306.92 
L 104.188683 42.836814 
L 97.295608 42.836814 
z
" style="fill:#40e0d0;stroke:#7aa6a2;stroke-linejoin:miter;"/>
   </g>
   <g id="patch_8">
    <path clip-path="url(#p183bc8a980)" d="M 104.188683 306.92 
L 111.081757 306.92 
L 111.081757 188.146141 
L 104.188683 188.146141 
z
" style="fill:#40e0d0;stroke:#7aa6a2;stroke-linejoin:miter;"/>
   </g>
   <g id="patch_9">
    <path clip-path="url(#p183bc8a980)" d="M 111.081757 306.92 
L 117.974831 306.92 
L 117.974831 261.69914 
L 111.081757 261.69914 
z
" style="fill:#40e0d0;stroke:#7aa6a2;stroke-linejoin:miter;"/>
   </g>
   <g id="patch_10">
    <path clip-path="url(#p183bc8a980)" d="M 117.974831 306.92 
L 124.867906 306.92 
L 124.867906 284.447776 
L 117.974831 284.447776 
z
" style="fill:#40e0d0;stroke:#7aa6a2;stroke-linejoin:miter;"/>
   </g>
   <g id="patch_11">
    <path clip-path="url(#p183bc8a980)" d="M 124.867906 306.92 
L 131.76098 306.92 
L 131.76098 290.805232 
L 124.867906 290.805232 
z
" style="fill:#40e0d0;stroke:#7aa6a2;stroke-linejoin:miter;"/>
   </g>
   <g id="patch_12">
    <path clip-path="url(#p183bc8a980)" d="M 131.76098 306.92 
L 138.654054 306.92 
L 138.654054 299.940619 
L 131.76098 299.940619 
z
" style="fill:#40e0d0;stroke:#7aa6a2;stroke-linejoin:miter;"/>
   </g>
   <g id="patch_13">
    <path clip-path="url(#p183bc8a980)" d="M 138.654054 306.92 
L 145.547129 306.92 
L 145.547129 304.335556 
L 138.654054 304.335556 
z
" style="fill:#40e0d0;stroke:#7aa6a2;stroke-linejoin:miter;"/>
   </g>
   <g id="patch_14">
    <path clip-path="url(#p183bc8a980)" d="M 145.547129 306.92 
L 152.440203 306.92 
L 152.440203 306.380998 
L 145.547129 306.380998 
z
" style="fill:#40e0d0;stroke:#7aa6a2;stroke-linejoin:miter;"/>
   </g>
   <g id="patch_15">
    <path clip-path="url(#p183bc8a980)" d="M 152.440203 306.92 
L 159.333277 306.92 
L 159.333277 305.897279 
L 152.440203 305.897279 
z
" style="fill:#40e0d0;stroke:#7aa6a2;stroke-linejoin:miter;"/>
   </g>
   <g id="patch_16">
    <path clip-path="url(#p183bc8a980)" d="M 159.333277 306.92 
L 166.226352 306.92 
L 166.226352 302.345396 
L 159.333277 302.345396 
z
" style="fill:#40e0d0;stroke:#7aa6a2;stroke-linejoin:miter;"/>
   </g>
   <g id="patch_17">
    <path clip-path="url(#p183bc8a980)" d="M 166.226352 306.92 
L 173.119426 306.92 
L 173.119426 300.189389 
L 166.226352 300.189389 
z
" style="fill:#40e0d0;stroke:#7aa6a2;stroke-linejoin:miter;"/>
   </g>
   <g id="patch_18">
    <path clip-path="url(#p183bc8a980)" d="M 173.119426 306.92 
L 180.0125 306.92 
L 180.0125 306.256613 
L 173.119426 306.256613 
z
" style="fill:#40e0d0;stroke:#7aa6a2;stroke-linejoin:miter;"/>
   </g>
   <g id="patch_19">
    <path clip-path="url(#p183bc8a980)" d="M 180.0125 306.92 
L 186.905575 306.92 
L 186.905575 304.68107 
L 180.0125 304.68107 
z
" style="fill:#40e0d0;stroke:#7aa6a2;stroke-linejoin:miter;"/>
   </g>
   <g id="patch_20">
    <path clip-path="url(#p183bc8a980)" d="M 186.905575 306.92 
L 193.798649 306.92 
L 193.798649 306.92 
L 186.905575 306.92 
z
" style="fill:#40e0d0;stroke:#7aa6a2;stroke-linejoin:miter;"/>
   </g>
   <g id="patch_21">
    <path clip-path="url(#p183bc8a980)" d="M 193.798649 306.92 
L 200.691724 306.92 
L 200.691724 298.821154 
L 193.798649 298.821154 
z
" style="fill:#40e0d0;stroke:#7aa6a2;stroke-linejoin:miter;"/>
   </g>
   <g id="patch_22">
    <path clip-path="url(#p183bc8a980)" d="M 200.691724 306.92 
L 207.584798 306.92 
L 207.584798 301.916959 
L 200.691724 301.916959 
z
" style="fill:#40e0d0;stroke:#7aa6a2;stroke-linejoin:miter;"/>
   </g>
   <g id="patch_23">
    <path clip-path="url(#p183bc8a980)" d="M 207.584798 306.92 
L 214.477872 306.92 
L 214.477872 304.045324 
L 207.584798 304.045324 
z
" style="fill:#40e0d0;stroke:#7aa6a2;stroke-linejoin:miter;"/>
   </g>
   <g id="patch_24">
    <path clip-path="url(#p183bc8a980)" d="M 214.477872 306.92 
L 221.370947 306.92 
L 221.370947 305.786714 
L 214.477872 305.786714 
z
" style="fill:#40e0d0;stroke:#7aa6a2;stroke-linejoin:miter;"/>
   </g>
   <g id="patch_25">
    <path clip-path="url(#p183bc8a980)" d="M 221.370947 306.92 
L 228.264021 306.92 
L 228.264021 304.280274 
L 221.370947 304.280274 
z
" style="fill:#40e0d0;stroke:#7aa6a2;stroke-linejoin:miter;"/>
   </g>
   <g id="patch_26">
    <path clip-path="url(#p183bc8a980)" d="M 228.264021 306.92 
L 235.157095 306.92 
L 235.157095 306.92 
L 228.264021 306.92 
z
" style="fill:#40e0d0;stroke:#7aa6a2;stroke-linejoin:miter;"/>
   </g>
   <g id="patch_27">
    <path clip-path="url(#p183bc8a980)" d="M 235.157095 306.92 
L 242.05017 306.92 
L 242.05017 304.542864 
L 235.157095 304.542864 
z
" style="fill:#40e0d0;stroke:#7aa6a2;stroke-linejoin:miter;"/>
   </g>
   <g id="patch_28">
    <path clip-path="url(#p183bc8a980)" d="M 242.05017 306.92 
L 248.943244 306.92 
L 248.943244 305.413559 
L 242.05017 305.413559 
z
" style="fill:#40e0d0;stroke:#7aa6a2;stroke-linejoin:miter;"/>
   </g>
   <g id="patch_29">
    <path clip-path="url(#p183bc8a980)" d="M 248.943244 306.92 
L 255.836318 306.92 
L 255.836318 305.358277 
L 248.943244 305.358277 
z
" style="fill:#40e0d0;stroke:#7aa6a2;stroke-linejoin:miter;"/>
   </g>
   <g id="patch_30">
    <path clip-path="url(#p183bc8a980)" d="M 255.836318 306.92 
L 262.729393 306.92 
L 262.729393 306.92 
L 255.836318 306.92 
z
" style="fill:#40e0d0;stroke:#7aa6a2;stroke-linejoin:miter;"/>
   </g>
   <g id="patch_31">
    <path clip-path="url(#p183bc8a980)" d="M 262.729393 306.92 
L 269.622467 306.92 
L 269.622467 301.405598 
L 262.729393 301.405598 
z
" style="fill:#40e0d0;stroke:#7aa6a2;stroke-linejoin:miter;"/>
   </g>
   <g id="patch_32">
    <path clip-path="url(#p183bc8a980)" d="M 269.622467 306.92 
L 276.515541 306.92 
L 276.515541 306.063126 
L 269.622467 306.063126 
z
" style="fill:#40e0d0;stroke:#7aa6a2;stroke-linejoin:miter;"/>
   </g>
   <g id="patch_33">
    <path clip-path="url(#p183bc8a980)" d="M 276.515541 306.92 
L 283.408616 306.92 
L 283.408616 306.92 
L 276.515541 306.92 
z
" style="fill:#40e0d0;stroke:#7aa6a2;stroke-linejoin:miter;"/>
   </g>
   <g id="patch_34">
    <path clip-path="url(#p183bc8a980)" d="M 283.408616 306.92 
L 290.30169 306.92 
L 290.30169 306.92 
L 283.408616 306.92 
z
" style="fill:#40e0d0;stroke:#7aa6a2;stroke-linejoin:miter;"/>
   </g>
   <g id="patch_35">
    <path clip-path="url(#p183bc8a980)" d="M 290.30169 306.92 
L 297.194764 306.92 
L 297.194764 306.92 
L 290.30169 306.92 
z
" style="fill:#40e0d0;stroke:#7aa6a2;stroke-linejoin:miter;"/>
   </g>
   <g id="patch_36">
    <path clip-path="url(#p183bc8a980)" d="M 297.194764 306.92 
L 304.087839 306.92 
L 304.087839 306.92 
L 297.194764 306.92 
z
" style="fill:#40e0d0;stroke:#7aa6a2;stroke-linejoin:miter;"/>
   </g>
   <g id="patch_37">
    <path clip-path="url(#p183bc8a980)" d="M 304.087839 306.92 
L 310.980913 306.92 
L 310.980913 306.92 
L 304.087839 306.92 
z
" style="fill:#40e0d0;stroke:#7aa6a2;stroke-linejoin:miter;"/>
   </g>
   <g id="patch_38">
    <path clip-path="url(#p183bc8a980)" d="M 310.980913 306.92 
L 317.873987 306.92 
L 317.873987 306.546845 
L 310.980913 306.546845 
z
" style="fill:#40e0d0;stroke:#7aa6a2;stroke-linejoin:miter;"/>
   </g>
   <g id="patch_39">
    <path clip-path="url(#p183bc8a980)" d="M 317.873987 306.92 
L 324.767062 306.92 
L 324.767062 306.92 
L 317.873987 306.92 
z
" style="fill:#40e0d0;stroke:#7aa6a2;stroke-linejoin:miter;"/>
   </g>
   <g id="patch_40">
    <path clip-path="url(#p183bc8a980)" d="M 324.767062 306.92 
L 331.660136 306.92 
L 331.660136 306.92 
L 324.767062 306.92 
z
" style="fill:#40e0d0;stroke:#7aa6a2;stroke-linejoin:miter;"/>
   </g>
   <g id="patch_41">
    <path clip-path="url(#p183bc8a980)" d="M 331.660136 306.92 
L 338.55321 306.92 
L 338.55321 306.92 
L 331.660136 306.92 
z
" style="fill:#40e0d0;stroke:#7aa6a2;stroke-linejoin:miter;"/>
   </g>
   <g id="patch_42">
    <path clip-path="url(#p183bc8a980)" d="M 338.55321 306.92 
L 345.446285 306.92 
L 345.446285 306.92 
L 338.55321 306.92 
z
" style="fill:#40e0d0;stroke:#7aa6a2;stroke-linejoin:miter;"/>
   </g>
   <g id="patch_43">
    <path clip-path="url(#p183bc8a980)" d="M 345.446285 306.92 
L 352.339359 306.92 
L 352.339359 306.311896 
L 345.446285 306.311896 
z
" style="fill:#40e0d0;stroke:#7aa6a2;stroke-linejoin:miter;"/>
   </g>
   <g id="patch_44">
    <path clip-path="url(#p183bc8a980)" d="M 352.339359 306.92 
L 359.232434 306.92 
L 359.232434 306.92 
L 352.339359 306.92 
z
" style="fill:#40e0d0;stroke:#7aa6a2;stroke-linejoin:miter;"/>
   </g>
   <g id="patch_45">
    <path clip-path="url(#p183bc8a980)" d="M 359.232434 306.92 
L 366.125508 306.92 
L 366.125508 306.92 
L 359.232434 306.92 
z
" style="fill:#40e0d0;stroke:#7aa6a2;stroke-linejoin:miter;"/>
   </g>
   <g id="patch_46">
    <path clip-path="url(#p183bc8a980)" d="M 366.125508 306.92 
L 373.018582 306.92 
L 373.018582 306.92 
L 366.125508 306.92 
z
" style="fill:#40e0d0;stroke:#7aa6a2;stroke-linejoin:miter;"/>
   </g>
   <g id="patch_47">
    <path clip-path="url(#p183bc8a980)" d="M 373.018582 306.92 
L 379.911657 306.92 
L 379.911657 306.92 
L 373.018582 306.92 
z
" style="fill:#40e0d0;stroke:#7aa6a2;stroke-linejoin:miter;"/>
   </g>
   <g id="patch_48">
    <path clip-path="url(#p183bc8a980)" d="M 379.911657 306.92 
L 386.804731 306.92 
L 386.804731 306.92 
L 379.911657 306.92 
z
" style="fill:#40e0d0;stroke:#7aa6a2;stroke-linejoin:miter;"/>
   </g>
   <g id="patch_49">
    <path clip-path="url(#p183bc8a980)" d="M 386.804731 306.92 
L 393.697805 306.92 
L 393.697805 306.92 
L 386.804731 306.92 
z
" style="fill:#40e0d0;stroke:#7aa6a2;stroke-linejoin:miter;"/>
   </g>
   <g id="patch_50">
    <path clip-path="url(#p183bc8a980)" d="M 393.697805 306.92 
L 400.59088 306.92 
L 400.59088 306.92 
L 393.697805 306.92 
z
" style="fill:#40e0d0;stroke:#7aa6a2;stroke-linejoin:miter;"/>
   </g>
   <g id="patch_51">
    <path clip-path="url(#p183bc8a980)" d="M 400.59088 306.92 
L 407.483954 306.92 
L 407.483954 306.92 
L 400.59088 306.92 
z
" style="fill:#40e0d0;stroke:#7aa6a2;stroke-linejoin:miter;"/>
   </g>
   <g id="patch_52">
    <path clip-path="url(#p183bc8a980)" d="M 407.483954 306.92 
L 414.377028 306.92 
L 414.377028 306.311896 
L 407.483954 306.311896 
z
" style="fill:#40e0d0;stroke:#7aa6a2;stroke-linejoin:miter;"/>
   </g>
   <g id="matplotlib.axis_1">
    <g id="xtick_1">
     <g id="line2d_1">
      <defs>
       <path d="M 0 0 
L 0 3.5 
" id="m36729a87e9" style="stroke:#000000;stroke-width:0.8;"/>
      </defs>
      <g>
       <use style="stroke:#000000;stroke-width:0.8;" x="95.234832" xlink:href="#m36729a87e9" y="306.92"/>
      </g>
     </g>
     <g id="text_1">
      <!-- 0.00 -->
      <g transform="translate(84.10202 321.518437)scale(0.1 -0.1)">
       <defs>
        <path d="M 2034 4250 
Q 1547 4250 1301 3770 
Q 1056 3291 1056 2328 
Q 1056 1369 1301 889 
Q 1547 409 2034 409 
Q 2525 409 2770 889 
Q 3016 1369 3016 2328 
Q 3016 3291 2770 3770 
Q 2525 4250 2034 4250 
z
M 2034 4750 
Q 2819 4750 3233 4129 
Q 3647 3509 3647 2328 
Q 3647 1150 3233 529 
Q 2819 -91 2034 -91 
Q 1250 -91 836 529 
Q 422 1150 422 2328 
Q 422 3509 836 4129 
Q 1250 4750 2034 4750 
z
" id="DejaVuSans-30" transform="scale(0.015625)"/>
        <path d="M 684 794 
L 1344 794 
L 1344 0 
L 684 0 
L 684 794 
z
" id="DejaVuSans-2e" transform="scale(0.015625)"/>
       </defs>
       <use xlink:href="#DejaVuSans-30"/>
       <use x="63.623047" xlink:href="#DejaVuSans-2e"/>
       <use x="95.410156" xlink:href="#DejaVuSans-30"/>
       <use x="159.033203" xlink:href="#DejaVuSans-30"/>
      </g>
     </g>
    </g>
    <g id="xtick_2">
     <g id="line2d_2">
      <g>
       <use style="stroke:#000000;stroke-width:0.8;" x="178.237999" xlink:href="#m36729a87e9" y="306.92"/>
      </g>
     </g>
     <g id="text_2">
      <!-- 0.05 -->
      <g transform="translate(167.105187 321.518437)scale(0.1 -0.1)">
       <defs>
        <path d="M 691 4666 
L 3169 4666 
L 3169 4134 
L 1269 4134 
L 1269 2991 
Q 1406 3038 1543 3061 
Q 1681 3084 1819 3084 
Q 2600 3084 3056 2656 
Q 3513 2228 3513 1497 
Q 3513 744 3044 326 
Q 2575 -91 1722 -91 
Q 1428 -91 1123 -41 
Q 819 9 494 109 
L 494 744 
Q 775 591 1075 516 
Q 1375 441 1709 441 
Q 2250 441 2565 725 
Q 2881 1009 2881 1497 
Q 2881 1984 2565 2268 
Q 2250 2553 1709 2553 
Q 1456 2553 1204 2497 
Q 953 2441 691 2322 
L 691 4666 
z
" id="DejaVuSans-35" transform="scale(0.015625)"/>
       </defs>
       <use xlink:href="#DejaVuSans-30"/>
       <use x="63.623047" xlink:href="#DejaVuSans-2e"/>
       <use x="95.410156" xlink:href="#DejaVuSans-30"/>
       <use x="159.033203" xlink:href="#DejaVuSans-35"/>
      </g>
     </g>
    </g>
    <g id="xtick_3">
     <g id="line2d_3">
      <g>
       <use style="stroke:#000000;stroke-width:0.8;" x="261.241166" xlink:href="#m36729a87e9" y="306.92"/>
      </g>
     </g>
     <g id="text_3">
      <!-- 0.10 -->
      <g transform="translate(250.108353 321.518437)scale(0.1 -0.1)">
       <defs>
        <path d="M 794 531 
L 1825 531 
L 1825 4091 
L 703 3866 
L 703 4441 
L 1819 4666 
L 2450 4666 
L 2450 531 
L 3481 531 
L 3481 0 
L 794 0 
L 794 531 
z
" id="DejaVuSans-31" transform="scale(0.015625)"/>
       </defs>
       <use xlink:href="#DejaVuSans-30"/>
       <use x="63.623047" xlink:href="#DejaVuSans-2e"/>
       <use x="95.410156" xlink:href="#DejaVuSans-31"/>
       <use x="159.033203" xlink:href="#DejaVuSans-30"/>
      </g>
     </g>
    </g>
    <g id="xtick_4">
     <g id="line2d_4">
      <g>
       <use style="stroke:#000000;stroke-width:0.8;" x="344.244333" xlink:href="#m36729a87e9" y="306.92"/>
      </g>
     </g>
     <g id="text_4">
      <!-- 0.15 -->
      <g transform="translate(333.11152 321.518437)scale(0.1 -0.1)">
       <use xlink:href="#DejaVuSans-30"/>
       <use x="63.623047" xlink:href="#DejaVuSans-2e"/>
       <use x="95.410156" xlink:href="#DejaVuSans-31"/>
       <use x="159.033203" xlink:href="#DejaVuSans-35"/>
      </g>
     </g>
    </g>
    <g id="xtick_5">
     <g id="line2d_5">
      <g>
       <use style="stroke:#000000;stroke-width:0.8;" x="427.247499" xlink:href="#m36729a87e9" y="306.92"/>
      </g>
     </g>
     <g id="text_5">
      <!-- 0.20 -->
      <g transform="translate(416.114687 321.518437)scale(0.1 -0.1)">
       <defs>
        <path d="M 1228 531 
L 3431 531 
L 3431 0 
L 469 0 
L 469 531 
Q 828 903 1448 1529 
Q 2069 2156 2228 2338 
Q 2531 2678 2651 2914 
Q 2772 3150 2772 3378 
Q 2772 3750 2511 3984 
Q 2250 4219 1831 4219 
Q 1534 4219 1204 4116 
Q 875 4013 500 3803 
L 500 4441 
Q 881 4594 1212 4672 
Q 1544 4750 1819 4750 
Q 2544 4750 2975 4387 
Q 3406 4025 3406 3419 
Q 3406 3131 3298 2873 
Q 3191 2616 2906 2266 
Q 2828 2175 2409 1742 
Q 1991 1309 1228 531 
z
" id="DejaVuSans-32" transform="scale(0.015625)"/>
       </defs>
       <use xlink:href="#DejaVuSans-30"/>
       <use x="63.623047" xlink:href="#DejaVuSans-2e"/>
       <use x="95.410156" xlink:href="#DejaVuSans-32"/>
       <use x="159.033203" xlink:href="#DejaVuSans-30"/>
      </g>
     </g>
    </g>
   </g>
   <g id="matplotlib.axis_2">
    <g id="ytick_1">
     <g id="line2d_6">
      <defs>
       <path d="M 0 0 
L -3.5 0 
" id="m6e2b59121f" style="stroke:#000000;stroke-width:0.8;"/>
      </defs>
      <g>
       <use style="stroke:#000000;stroke-width:0.8;" x="52.490625" xlink:href="#m6e2b59121f" y="306.92"/>
      </g>
     </g>
     <g id="text_6">
      <!-- 0 -->
      <g transform="translate(39.128125 310.719219)scale(0.1 -0.1)">
       <use xlink:href="#DejaVuSans-30"/>
      </g>
     </g>
    </g>
    <g id="ytick_2">
     <g id="line2d_7">
      <g>
       <use style="stroke:#000000;stroke-width:0.8;" x="52.490625" xlink:href="#m6e2b59121f" y="272.36861"/>
      </g>
     </g>
     <g id="text_7">
      <!-- 2500 -->
      <g transform="translate(20.040625 276.167828)scale(0.1 -0.1)">
       <use xlink:href="#DejaVuSans-32"/>
       <use x="63.623047" xlink:href="#DejaVuSans-35"/>
       <use x="127.246094" xlink:href="#DejaVuSans-30"/>
       <use x="190.869141" xlink:href="#DejaVuSans-30"/>
      </g>
     </g>
    </g>
    <g id="ytick_3">
     <g id="line2d_8">
      <g>
       <use style="stroke:#000000;stroke-width:0.8;" x="52.490625" xlink:href="#m6e2b59121f" y="237.817219"/>
      </g>
     </g>
     <g id="text_8">
      <!-- 5000 -->
      <g transform="translate(20.040625 241.616438)scale(0.1 -0.1)">
       <use xlink:href="#DejaVuSans-35"/>
       <use x="63.623047" xlink:href="#DejaVuSans-30"/>
       <use x="127.246094" xlink:href="#DejaVuSans-30"/>
       <use x="190.869141" xlink:href="#DejaVuSans-30"/>
      </g>
     </g>
    </g>
    <g id="ytick_4">
     <g id="line2d_9">
      <g>
       <use style="stroke:#000000;stroke-width:0.8;" x="52.490625" xlink:href="#m6e2b59121f" y="203.265829"/>
      </g>
     </g>
     <g id="text_9">
      <!-- 7500 -->
      <g transform="translate(20.040625 207.065048)scale(0.1 -0.1)">
       <defs>
        <path d="M 525 4666 
L 3525 4666 
L 3525 4397 
L 1831 0 
L 1172 0 
L 2766 4134 
L 525 4134 
L 525 4666 
z
" id="DejaVuSans-37" transform="scale(0.015625)"/>
       </defs>
       <use xlink:href="#DejaVuSans-37"/>
       <use x="63.623047" xlink:href="#DejaVuSans-35"/>
       <use x="127.246094" xlink:href="#DejaVuSans-30"/>
       <use x="190.869141" xlink:href="#DejaVuSans-30"/>
      </g>
     </g>
    </g>
    <g id="ytick_5">
     <g id="line2d_10">
      <g>
       <use style="stroke:#000000;stroke-width:0.8;" x="52.490625" xlink:href="#m6e2b59121f" y="168.714439"/>
      </g>
     </g>
     <g id="text_10">
      <!-- 10000 -->
      <g transform="translate(13.678125 172.513658)scale(0.1 -0.1)">
       <use xlink:href="#DejaVuSans-31"/>
       <use x="63.623047" xlink:href="#DejaVuSans-30"/>
       <use x="127.246094" xlink:href="#DejaVuSans-30"/>
       <use x="190.869141" xlink:href="#DejaVuSans-30"/>
       <use x="254.492188" xlink:href="#DejaVuSans-30"/>
      </g>
     </g>
    </g>
    <g id="ytick_6">
     <g id="line2d_11">
      <g>
       <use style="stroke:#000000;stroke-width:0.8;" x="52.490625" xlink:href="#m6e2b59121f" y="134.163049"/>
      </g>
     </g>
     <g id="text_11">
      <!-- 12500 -->
      <g transform="translate(13.678125 137.962267)scale(0.1 -0.1)">
       <use xlink:href="#DejaVuSans-31"/>
       <use x="63.623047" xlink:href="#DejaVuSans-32"/>
       <use x="127.246094" xlink:href="#DejaVuSans-35"/>
       <use x="190.869141" xlink:href="#DejaVuSans-30"/>
       <use x="254.492188" xlink:href="#DejaVuSans-30"/>
      </g>
     </g>
    </g>
    <g id="ytick_7">
     <g id="line2d_12">
      <g>
       <use style="stroke:#000000;stroke-width:0.8;" x="52.490625" xlink:href="#m6e2b59121f" y="99.611658"/>
      </g>
     </g>
     <g id="text_12">
      <!-- 15000 -->
      <g transform="translate(13.678125 103.410877)scale(0.1 -0.1)">
       <use xlink:href="#DejaVuSans-31"/>
       <use x="63.623047" xlink:href="#DejaVuSans-35"/>
       <use x="127.246094" xlink:href="#DejaVuSans-30"/>
       <use x="190.869141" xlink:href="#DejaVuSans-30"/>
       <use x="254.492188" xlink:href="#DejaVuSans-30"/>
      </g>
     </g>
    </g>
    <g id="ytick_8">
     <g id="line2d_13">
      <g>
       <use style="stroke:#000000;stroke-width:0.8;" x="52.490625" xlink:href="#m6e2b59121f" y="65.060268"/>
      </g>
     </g>
     <g id="text_13">
      <!-- 17500 -->
      <g transform="translate(13.678125 68.859487)scale(0.1 -0.1)">
       <use xlink:href="#DejaVuSans-31"/>
       <use x="63.623047" xlink:href="#DejaVuSans-37"/>
       <use x="127.246094" xlink:href="#DejaVuSans-35"/>
       <use x="190.869141" xlink:href="#DejaVuSans-30"/>
       <use x="254.492188" xlink:href="#DejaVuSans-30"/>
      </g>
     </g>
    </g>
    <g id="ytick_9">
     <g id="line2d_14">
      <g>
       <use style="stroke:#000000;stroke-width:0.8;" x="52.490625" xlink:href="#m6e2b59121f" y="30.508878"/>
      </g>
     </g>
     <g id="text_14">
      <!-- 20000 -->
      <g transform="translate(13.678125 34.308096)scale(0.1 -0.1)">
       <use xlink:href="#DejaVuSans-32"/>
       <use x="63.623047" xlink:href="#DejaVuSans-30"/>
       <use x="127.246094" xlink:href="#DejaVuSans-30"/>
       <use x="190.869141" xlink:href="#DejaVuSans-30"/>
       <use x="254.492188" xlink:href="#DejaVuSans-30"/>
      </g>
     </g>
    </g>
    <g id="text_15">
     <!-- n windows -->
     <g transform="translate(7.598438 179.792031)rotate(-90)scale(0.1 -0.1)">
      <defs>
       <path d="M 3513 2113 
L 3513 0 
L 2938 0 
L 2938 2094 
Q 2938 2591 2744 2837 
Q 2550 3084 2163 3084 
Q 1697 3084 1428 2787 
Q 1159 2491 1159 1978 
L 1159 0 
L 581 0 
L 581 3500 
L 1159 3500 
L 1159 2956 
Q 1366 3272 1645 3428 
Q 1925 3584 2291 3584 
Q 2894 3584 3203 3211 
Q 3513 2838 3513 2113 
z
" id="DejaVuSans-6e" transform="scale(0.015625)"/>
       <path id="DejaVuSans-20" transform="scale(0.015625)"/>
       <path d="M 269 3500 
L 844 3500 
L 1563 769 
L 2278 3500 
L 2956 3500 
L 3675 769 
L 4391 3500 
L 4966 3500 
L 4050 0 
L 3372 0 
L 2619 2869 
L 1863 0 
L 1184 0 
L 269 3500 
z
" id="DejaVuSans-77" transform="scale(0.015625)"/>
       <path d="M 603 3500 
L 1178 3500 
L 1178 0 
L 603 0 
L 603 3500 
z
M 603 4863 
L 1178 4863 
L 1178 4134 
L 603 4134 
L 603 4863 
z
" id="DejaVuSans-69" transform="scale(0.015625)"/>
       <path d="M 2906 2969 
L 2906 4863 
L 3481 4863 
L 3481 0 
L 2906 0 
L 2906 525 
Q 2725 213 2448 61 
Q 2172 -91 1784 -91 
Q 1150 -91 751 415 
Q 353 922 353 1747 
Q 353 2572 751 3078 
Q 1150 3584 1784 3584 
Q 2172 3584 2448 3432 
Q 2725 3281 2906 2969 
z
M 947 1747 
Q 947 1113 1208 752 
Q 1469 391 1925 391 
Q 2381 391 2643 752 
Q 2906 1113 2906 1747 
Q 2906 2381 2643 2742 
Q 2381 3103 1925 3103 
Q 1469 3103 1208 2742 
Q 947 2381 947 1747 
z
" id="DejaVuSans-64" transform="scale(0.015625)"/>
       <path d="M 1959 3097 
Q 1497 3097 1228 2736 
Q 959 2375 959 1747 
Q 959 1119 1226 758 
Q 1494 397 1959 397 
Q 2419 397 2687 759 
Q 2956 1122 2956 1747 
Q 2956 2369 2687 2733 
Q 2419 3097 1959 3097 
z
M 1959 3584 
Q 2709 3584 3137 3096 
Q 3566 2609 3566 1747 
Q 3566 888 3137 398 
Q 2709 -91 1959 -91 
Q 1206 -91 779 398 
Q 353 888 353 1747 
Q 353 2609 779 3096 
Q 1206 3584 1959 3584 
z
" id="DejaVuSans-6f" transform="scale(0.015625)"/>
       <path d="M 2834 3397 
L 2834 2853 
Q 2591 2978 2328 3040 
Q 2066 3103 1784 3103 
Q 1356 3103 1142 2972 
Q 928 2841 928 2578 
Q 928 2378 1081 2264 
Q 1234 2150 1697 2047 
L 1894 2003 
Q 2506 1872 2764 1633 
Q 3022 1394 3022 966 
Q 3022 478 2636 193 
Q 2250 -91 1575 -91 
Q 1294 -91 989 -36 
Q 684 19 347 128 
L 347 722 
Q 666 556 975 473 
Q 1284 391 1588 391 
Q 1994 391 2212 530 
Q 2431 669 2431 922 
Q 2431 1156 2273 1281 
Q 2116 1406 1581 1522 
L 1381 1569 
Q 847 1681 609 1914 
Q 372 2147 372 2553 
Q 372 3047 722 3315 
Q 1072 3584 1716 3584 
Q 2034 3584 2315 3537 
Q 2597 3491 2834 3397 
z
" id="DejaVuSans-73" transform="scale(0.015625)"/>
      </defs>
      <use xlink:href="#DejaVuSans-6e"/>
      <use x="63.378906" xlink:href="#DejaVuSans-20"/>
      <use x="95.166016" xlink:href="#DejaVuSans-77"/>
      <use x="176.953125" xlink:href="#DejaVuSans-69"/>
      <use x="204.736328" xlink:href="#DejaVuSans-6e"/>
      <use x="268.115234" xlink:href="#DejaVuSans-64"/>
      <use x="331.591797" xlink:href="#DejaVuSans-6f"/>
      <use x="392.773438" xlink:href="#DejaVuSans-77"/>
      <use x="474.560547" xlink:href="#DejaVuSans-73"/>
     </g>
    </g>
   </g>
   <g id="line2d_15">
    <path clip-path="url(#p183bc8a980)" d="M 105.798078 306.92 
L 105.798078 0 
" style="fill:none;stroke:#40e0d0;stroke-dasharray:3.7,1.6;stroke-dashoffset:0;"/>
   </g>
   <g id="patch_53">
    <path d="M 52.490625 306.92 
L 52.490625 -0 
" style="fill:none;stroke:#000000;stroke-linecap:square;stroke-linejoin:miter;stroke-width:0.8;"/>
   </g>
   <g id="patch_54">
    <path d="M 431.609714 306.92 
L 431.609714 -0 
" style="fill:none;stroke:#000000;stroke-linecap:square;stroke-linejoin:miter;stroke-width:0.8;"/>
   </g>
   <g id="patch_55">
    <path d="M 52.490625 306.92 
L 431.609714 306.92 
" style="fill:none;stroke:#000000;stroke-linecap:square;stroke-linejoin:miter;stroke-width:0.8;"/>
   </g>
   <g id="patch_56">
    <path d="M 52.490625 0 
L 431.609714 0 
" style="fill:none;stroke:#000000;stroke-linecap:square;stroke-linejoin:miter;stroke-width:0.8;"/>
   </g>
   <g id="legend_1">
    <g id="patch_57">
     <path d="M 339.409714 22.678125 
L 424.609714 22.678125 
Q 426.609714 22.678125 426.609714 20.678125 
L 426.609714 7 
Q 426.609714 5 424.609714 5 
L 339.409714 5 
Q 337.409714 5 337.409714 7 
L 337.409714 20.678125 
Q 337.409714 22.678125 339.409714 22.678125 
z
" style="fill:#ffffff;opacity:0.8;stroke:#cccccc;stroke-linejoin:miter;"/>
    </g>
    <g id="line2d_16">
     <path d="M 341.409714 13.098438 
L 361.409714 13.098438 
" style="fill:none;stroke:#40e0d0;stroke-dasharray:3.7,1.6;stroke-dashoffset:0;"/>
    </g>
    <g id="line2d_17"/>
    <g id="text_16">
     <!-- $\bar{x}=0.0064$ -->
     <g transform="translate(369.409714 16.598438)scale(0.1 -0.1)">
      <defs>
       <path d="M -2522 4769 
L -653 4769 
L -653 4306 
L -2522 4306 
L -2522 4769 
z
" id="DejaVuSans-304" transform="scale(0.015625)"/>
       <path d="M 3841 3500 
L 2234 1784 
L 3219 0 
L 2559 0 
L 1819 1388 
L 531 0 
L -166 0 
L 1556 1844 
L 641 3500 
L 1300 3500 
L 1972 2234 
L 3144 3500 
L 3841 3500 
z
" id="DejaVuSans-Oblique-78" transform="scale(0.015625)"/>
       <path d="M 678 2906 
L 4684 2906 
L 4684 2381 
L 678 2381 
L 678 2906 
z
M 678 1631 
L 4684 1631 
L 4684 1100 
L 678 1100 
L 678 1631 
z
" id="DejaVuSans-3d" transform="scale(0.015625)"/>
       <path d="M 2113 2584 
Q 1688 2584 1439 2293 
Q 1191 2003 1191 1497 
Q 1191 994 1439 701 
Q 1688 409 2113 409 
Q 2538 409 2786 701 
Q 3034 994 3034 1497 
Q 3034 2003 2786 2293 
Q 2538 2584 2113 2584 
z
M 3366 4563 
L 3366 3988 
Q 3128 4100 2886 4159 
Q 2644 4219 2406 4219 
Q 1781 4219 1451 3797 
Q 1122 3375 1075 2522 
Q 1259 2794 1537 2939 
Q 1816 3084 2150 3084 
Q 2853 3084 3261 2657 
Q 3669 2231 3669 1497 
Q 3669 778 3244 343 
Q 2819 -91 2113 -91 
Q 1303 -91 875 529 
Q 447 1150 447 2328 
Q 447 3434 972 4092 
Q 1497 4750 2381 4750 
Q 2619 4750 2861 4703 
Q 3103 4656 3366 4563 
z
" id="DejaVuSans-36" transform="scale(0.015625)"/>
       <path d="M 2419 4116 
L 825 1625 
L 2419 1625 
L 2419 4116 
z
M 2253 4666 
L 3047 4666 
L 3047 1625 
L 3713 1625 
L 3713 1100 
L 3047 1100 
L 3047 0 
L 2419 0 
L 2419 1100 
L 313 1100 
L 313 1709 
L 2253 4666 
z
" id="DejaVuSans-34" transform="scale(0.015625)"/>
      </defs>
      <use transform="translate(62.201172 0.484375)" xlink:href="#DejaVuSans-304"/>
      <use transform="translate(0 0.578125)" xlink:href="#DejaVuSans-Oblique-78"/>
      <use transform="translate(78.662109 0.578125)" xlink:href="#DejaVuSans-3d"/>
      <use transform="translate(181.933594 0.578125)" xlink:href="#DejaVuSans-30"/>
      <use transform="translate(245.556641 0.578125)" xlink:href="#DejaVuSans-2e"/>
      <use transform="translate(277.34375 0.578125)" xlink:href="#DejaVuSans-30"/>
      <use transform="translate(340.966797 0.578125)" xlink:href="#DejaVuSans-30"/>
      <use transform="translate(404.589844 0.578125)" xlink:href="#DejaVuSans-36"/>
      <use transform="translate(468.212891 0.578125)" xlink:href="#DejaVuSans-34"/>
     </g>
    </g>
   </g>
  </g>
 </g>
 <defs>
  <clipPath id="p183bc8a980">
   <rect height="306.92" width="379.119089" x="52.490625" y="0"/>
  </clipPath>
 </defs>
</svg>
